ply
format ascii 1.0
element vertex 22
property float x
property float y
property float z
property float nx
property float ny
property float nz
element face 40
property list uchar int vertex_indices
end_header
0.000000 1.000000 0.000000 0.390115 0.406812 -0.826023
-0.235114 0.323607 0.000000 -0.592395 0.513891 -0.620471
-0.951057 0.309017 0.000000 -0.266349 0.496734 -0.826023
-0.380423 -0.123607 0.000000 -0.671799 -0.404600 -0.620471
-0.587785 -0.809017 0.000000 -0.554728 -0.099814 -0.826023
-0.000000 -0.400000 0.000000 0.177200 -0.763947 -0.620471
0.587785 -0.809017 0.000000 -0.076492 -0.558422 -0.826023
0.380423 -0.123607 0.000000 0.781315 -0.067545 -0.620471
0.951057 0.309017 0.000000 0.507454 -0.245310 -0.826023
0.235114 0.323607 0.000000 0.305679 0.722202 -0.620471
0.000000 1.000000 0.150000 -0.390115 0.406812 0.826023
-0.235114 0.323607 0.150000 -0.305679 0.722202 0.620471
-0.951057 0.309017 0.150000 -0.507454 -0.245310 0.826023
-0.380423 -0.123607 0.150000 -0.781315 -0.067545 0.620471
-0.587785 -0.809017 0.150000 0.076492 -0.558422 0.826023
-0.000000 -0.400000 0.150000 -0.177200 -0.763947 0.620471
0.587785 -0.809017 0.150000 0.554728 -0.099814 0.826023
0.380423 -0.123607 0.150000 0.671799 -0.404600 0.620471
0.951057 0.309017 0.150000 0.266349 0.496734 0.826023
0.235114 0.323607 0.150000 0.592395 0.513891 0.620471
0.000000 0.000000 0.150000 0.000000 0.000000 1.000000
0.000000 0.000000 0.000000 0.000000 0.000000 -1.000000
3 0 1 10
3 1 11 10
3 1 2 11
3 2 12 11
3 2 3 12
3 3 13 12
3 3 4 13
3 4 14 13
3 4 5 14
3 5 15 14
3 5 6 15
3 6 16 15
3 6 7 16
3 7 17 16
3 7 8 17
3 8 18 17
3 8 9 18
3 9 19 18
3 9 0 19
3 0 10 19
3 20 10 11
3 21 1 0
3 20 11 12
3 21 2 1
3 20 12 13
3 21 3 2
3 20 13 14
3 21 4 3
3 20 14 15
3 21 5 4
3 20 15 16
3 21 6 5
3 20 16 17
3 21 7 6
3 20 17 18
3 21 8 7
3 20 18 19
3 21 9 8
3 20 19 10
3 21 0 9
