ply
format ascii 1.0
element vertex 57
property float x
property float y
property float z
property float nx
property float ny
property float nz
element face 91
property list uchar int vertex_indices
end_header
-1.000000 -0.210000 0.100000 -0.158268 -0.981658 -0.106300
-1.000000 0.210000 0.100000 -0.294946 0.862600 0.411008
-1.000000 -0.126000 0.000000 -0.048867 -0.904949 0.422704
-1.000000 0.126000 0.000000 -0.026505 0.490838 0.870847
-0.800000 -0.228000 0.161803 -0.254812 -0.843943 0.472051
-0.800000 0.228000 0.161803 -0.246537 0.844744 0.475002
-0.800000 -0.136800 0.000000 -0.005308 -0.876212 0.481897
-0.800000 0.136800 0.000000 -0.005308 0.876212 0.481897
-0.600000 -0.246000 0.217557 -0.231621 -0.826579 0.512950
-0.600000 0.246000 0.217557 -0.216149 0.827824 0.517675
-0.600000 -0.147600 0.000000 -0.019921 -0.847229 0.530854
-0.600000 0.147600 0.000000 -0.019921 0.847229 0.530854
-0.400000 -0.264000 0.261803 -0.192980 -0.819619 0.539429
-0.400000 0.264000 0.261803 -0.171116 0.821145 0.544464
-0.400000 -0.158400 0.000000 -0.030062 -0.831915 0.554089
-0.400000 0.158400 0.000000 -0.030062 0.831915 0.554089
-0.200000 -0.282000 0.290211 -0.140620 -0.820358 0.554291
-0.200000 0.282000 0.290211 -0.113863 0.822006 0.557980
-0.200000 -0.169200 0.000000 -0.039277 -0.825439 0.563123
-0.200000 0.169200 0.000000 -0.039277 0.825439 0.563123
0.000000 -0.300000 0.300000 0.000580 -0.826873 0.562388
0.000000 0.300000 0.300000 0.029608 0.826511 0.562142
0.000000 -0.180000 0.000000 -0.019419 -0.826348 0.562824
0.000000 0.180000 0.000000 -0.019419 0.826348 0.562824
0.200000 -0.282000 0.290211 0.113556 -0.822305 0.557601
0.200000 0.282000 0.290211 0.140335 0.820662 0.553913
0.200000 -0.169200 0.000000 0.049197 -0.824580 0.563602
0.200000 0.169200 0.000000 0.049197 0.824580 0.563602
0.400000 -0.264000 0.261803 0.169901 -0.826237 0.537091
0.400000 0.264000 0.261803 0.192069 0.824675 0.531997
0.400000 -0.158400 0.000000 0.038779 -0.826652 0.561376
0.400000 0.158400 0.000000 0.038779 0.826652 0.561376
0.600000 -0.246000 0.217557 0.212830 -0.839535 0.499884
0.600000 0.246000 0.217557 0.228855 0.838208 0.495007
0.600000 -0.147600 0.000000 0.027376 -0.835771 0.548396
0.600000 0.147600 0.000000 0.027376 0.835771 0.548396
0.800000 -0.228000 0.161803 0.239941 -0.866366 0.437994
0.800000 0.228000 0.161803 0.248933 0.865435 0.434805
0.800000 -0.136800 0.000000 0.012180 -0.854885 0.518675
0.800000 0.136800 0.000000 0.012180 0.854885 0.518675
1.000000 -0.210000 0.100000 0.297401 -0.489096 0.819962
1.000000 0.210000 0.100000 0.198251 0.904248 0.378196
1.000000 -0.126000 0.000000 -0.044206 -0.880904 0.471226
1.000000 0.126000 0.000000 -0.049965 0.995669 -0.078403
0.020000 0.000000 0.300000 0.971904 -0.235377 0.000000
0.006180 0.019021 0.300000 0.524191 0.851600 0.000000
-0.016180 0.011756 0.300000 -0.647936 0.761695 0.000000
-0.016180 -0.011756 0.300000 -0.924638 -0.380847 0.000000
0.006180 -0.019021 0.300000 0.076478 -0.997071 0.000000
0.020000 0.000000 1.500000 0.971904 0.235377 0.000000
0.006180 0.019021 1.500000 0.076478 0.997071 0.000000
-0.016180 0.011756 1.500000 -0.924638 0.380847 0.000000
-0.016180 -0.011756 1.500000 -0.647936 -0.761695 0.000000
0.006180 -0.019021 1.500000 0.524191 -0.851600 0.000000
0.000000 0.000000 1.400000 0.000000 -1.000000 0.000000
0.000000 0.000000 0.500000 0.000000 -1.000000 0.000000
0.600000 0.000000 0.600000 0.000000 -1.000000 0.000000
3 0 4 1
3 1 4 5
3 2 6 3
3 3 6 7
3 0 2 6
3 0 6 4
3 1 5 7
3 1 7 3
3 4 8 5
3 5 8 9
3 6 10 7
3 7 10 11
3 4 6 10
3 4 10 8
3 5 9 11
3 5 11 7
3 8 12 9
3 9 12 13
3 10 14 11
3 11 14 15
3 8 10 14
3 8 14 12
3 9 13 15
3 9 15 11
3 12 16 13
3 13 16 17
3 14 18 15
3 15 18 19
3 12 14 18
3 12 18 16
3 13 17 19
3 13 19 15
3 16 20 17
3 17 20 21
3 18 22 19
3 19 22 23
3 16 18 22
3 16 22 20
3 17 21 23
3 17 23 19
3 20 24 21
3 21 24 25
3 22 26 23
3 23 26 27
3 20 22 26
3 20 26 24
3 21 25 27
3 21 27 23
3 24 28 25
3 25 28 29
3 26 30 27
3 27 30 31
3 24 26 30
3 24 30 28
3 25 29 31
3 25 31 27
3 28 32 29
3 29 32 33
3 30 34 31
3 31 34 35
3 28 30 34
3 28 34 32
3 29 33 35
3 29 35 31
3 32 36 33
3 33 36 37
3 34 38 35
3 35 38 39
3 32 34 38
3 32 38 36
3 33 37 39
3 33 39 35
3 36 40 37
3 37 40 41
3 38 42 39
3 39 42 43
3 36 38 42
3 36 42 40
3 37 41 43
3 37 43 39
3 44 45 49
3 45 50 49
3 45 46 50
3 46 51 50
3 46 47 51
3 47 52 51
3 47 48 52
3 48 53 52
3 48 44 53
3 44 49 53
3 54 55 56
