ply
format ascii 1.0
element vertex 412
property float x
property float y
property float z
property float nx
property float ny
property float nz
element face 816
property list uchar int vertex_indices
end_header
0.000000 0.000000 0.880000 0.000000 0.000000 0.000000
0.000735 0.000000 0.899745 0.006779 -0.000000 -0.999977
0.005666 0.000000 0.953362 0.990178 -0.025968 -0.137380
0.005473 0.001466 0.953362 0.963135 0.231185 -0.137564
0.004907 0.002833 0.953362 0.870418 0.472546 -0.138101
0.004006 0.004006 0.953362 0.718372 0.681640 -0.138956
0.002833 0.004907 0.953362 0.517394 0.844206 -0.140069
0.001466 0.005473 0.953362 0.281220 0.949174 -0.141364
0.000000 0.005666 0.953362 0.025972 0.989418 -0.142753
-0.001466 0.005473 0.953362 -0.230942 0.962231 -0.144140
-0.002833 0.004907 0.953362 -0.472024 0.869507 -0.145432
-0.004006 0.004006 0.953362 -0.680872 0.717593 -0.146540
-0.004907 0.002833 0.953362 -0.843290 0.516854 -0.147390
-0.005473 0.001466 0.953362 -0.948251 0.280959 -0.147924
-0.005666 0.000000 0.953362 -0.988631 0.025957 -0.148106
-0.005473 -0.001466 0.953362 -0.961688 -0.230813 -0.147924
-0.004907 -0.002833 0.953362 -0.869248 -0.471893 -0.147390
-0.004006 -0.004006 0.953362 -0.717583 -0.680882 -0.146540
-0.002833 -0.004907 0.953362 -0.516988 -0.843548 -0.145432
-0.001466 -0.005473 0.953362 -0.281095 -0.948794 -0.144140
-0.000000 -0.005666 0.953362 -0.025953 -0.989418 -0.142753
0.001466 -0.005473 0.953362 0.231061 -0.962615 -0.141364
0.002833 -0.004907 0.953362 0.472421 -0.870172 -0.140069
0.004006 -0.004006 0.953362 0.681650 -0.718363 -0.138956
0.004907 -0.002833 0.953362 0.844451 -0.517524 -0.138101
0.005473 -0.001466 0.953362 0.949693 -0.281352 -0.137564
0.017966 0.000000 1.025612 0.973775 0.000599 -0.227512
0.017353 0.004650 1.025612 0.940440 0.252610 -0.227512
0.015559 0.008983 1.025612 0.843015 0.487406 -0.227512
0.012704 0.012704 1.025612 0.688140 0.688986 -0.227512
0.008983 0.015559 1.025612 0.486369 0.843613 -0.227512
0.004650 0.017353 1.025612 0.251453 0.940750 -0.227512
0.000000 0.017966 1.025612 -0.000599 0.973775 -0.227512
-0.004650 0.017353 1.025612 -0.252610 0.940440 -0.227512
-0.008983 0.015559 1.025612 -0.487406 0.843015 -0.227512
-0.012704 0.012704 1.025612 -0.688986 0.688140 -0.227512
-0.015559 0.008983 1.025612 -0.843613 0.486369 -0.227512
-0.017353 0.004650 1.025612 -0.940750 0.251453 -0.227512
-0.017966 0.000000 1.025612 -0.973775 -0.000599 -0.227512
-0.017353 -0.004650 1.025612 -0.940440 -0.252610 -0.227512
-0.015559 -0.008983 1.025612 -0.843015 -0.487406 -0.227512
-0.012704 -0.012704 1.025612 -0.688140 -0.688986 -0.227512
-0.008983 -0.015559 1.025612 -0.486369 -0.843613 -0.227512
-0.004650 -0.017353 1.025612 -0.251453 -0.940750 -0.227512
-0.000000 -0.017966 1.025612 0.000599 -0.973775 -0.227512
0.004650 -0.017353 1.025612 0.252610 -0.940440 -0.227512
0.008983 -0.015559 1.025612 0.487406 -0.843015 -0.227512
0.012704 -0.012704 1.025612 0.688986 -0.688140 -0.227512
0.015559 -0.008983 1.025612 0.843613 -0.486369 -0.227512
0.017353 -0.004650 1.025612 0.940750 -0.251453 -0.227512
0.038990 0.000000 1.095967 0.915176 0.002179 -0.403048
0.037662 0.010091 1.095967 0.883428 0.238970 -0.403048
0.033767 0.019495 1.095967 0.791476 0.459476 -0.403048
0.027570 0.027570 1.095967 0.645586 0.648668 -0.403048
0.019495 0.033767 1.095967 0.455701 0.793656 -0.403048
0.010091 0.037662 1.095967 0.234760 0.884556 -0.403048
0.000000 0.038990 1.095967 -0.002179 0.915176 -0.403048
-0.010091 0.037662 1.095967 -0.238970 0.883428 -0.403048
-0.019495 0.033767 1.095967 -0.459476 0.791476 -0.403048
-0.027570 0.027570 1.095967 -0.648668 0.645586 -0.403048
-0.033767 0.019495 1.095967 -0.793656 0.455701 -0.403048
-0.037662 0.010091 1.095967 -0.884556 0.234760 -0.403048
-0.038990 0.000000 1.095967 -0.915176 -0.002179 -0.403048
-0.037662 -0.010091 1.095967 -0.883428 -0.238970 -0.403048
-0.033767 -0.019495 1.095967 -0.791476 -0.459476 -0.403048
-0.027570 -0.027570 1.095967 -0.645586 -0.648668 -0.403048
-0.019495 -0.033767 1.095967 -0.455701 -0.793656 -0.403048
-0.010091 -0.037662 1.095967 -0.234760 -0.884556 -0.403048
-0.000000 -0.038990 1.095967 0.002179 -0.915176 -0.403048
0.010091 -0.037662 1.095967 0.238970 -0.883428 -0.403048
0.019495 -0.033767 1.095967 0.459476 -0.791476 -0.403048
0.027570 -0.027570 1.095967 0.648668 -0.645586 -0.403048
0.033767 -0.019495 1.095967 0.793656 -0.455701 -0.403048
0.037662 -0.010091 1.095967 0.884556 -0.234760 -0.403048
0.067882 0.000000 1.144264 0.629261 0.012365 -0.777095
0.065569 0.017569 1.144264 0.604620 0.174808 -0.777095
0.058788 0.033941 1.144264 0.538774 0.325339 -0.777095
0.048000 0.048000 1.144264 0.436212 0.453698 -0.777095
0.033941 0.058788 1.144264 0.303923 0.551139 -0.777095
0.017569 0.065569 1.144264 0.150922 0.611020 -0.777095
0.000000 0.067882 1.144264 -0.012365 0.629261 -0.777095
-0.017569 0.065569 1.144264 -0.174808 0.604620 -0.777095
-0.033941 0.058788 1.144264 -0.325339 0.538774 -0.777095
-0.048000 0.048000 1.144264 -0.453698 0.436212 -0.777095
-0.058788 0.033941 1.144264 -0.551139 0.303923 -0.777095
-0.065569 0.017569 1.144264 -0.611020 0.150922 -0.777095
-0.067882 0.000000 1.144264 -0.629261 -0.012365 -0.777095
-0.065569 -0.017569 1.144264 -0.604620 -0.174808 -0.777095
-0.058788 -0.033941 1.144264 -0.538774 -0.325339 -0.777095
-0.048000 -0.048000 1.144264 -0.436212 -0.453698 -0.777095
-0.033941 -0.058788 1.144264 -0.303923 -0.551139 -0.777095
-0.017569 -0.065569 1.144264 -0.150922 -0.611020 -0.777095
-0.000000 -0.067882 1.144264 0.012365 -0.629261 -0.777095
0.017569 -0.065569 1.144264 0.174808 -0.604620 -0.777095
0.033941 -0.058788 1.144264 0.325339 -0.538774 -0.777095
0.048000 -0.048000 1.144264 0.453698 -0.436212 -0.777095
0.058788 -0.033941 1.144264 0.551139 -0.303923 -0.777095
0.065569 -0.017569 1.144264 0.611020 -0.150922 -0.777095
0.101666 0.000000 1.155897 -0.199563 0.025370 -0.979556
0.098201 0.026313 1.155897 -0.199330 -0.027145 -0.979556
0.088045 0.050833 1.155897 -0.185512 -0.077810 -0.979556
0.071888 0.071888 1.155897 -0.159052 -0.123173 -0.979556
0.050833 0.088045 1.155897 -0.121753 -0.160142 -0.979556
0.026313 0.098201 1.155897 -0.076157 -0.186197 -0.979556
0.000000 0.101666 1.155897 -0.025370 -0.199563 -0.979556
-0.026313 0.098201 1.155897 0.027145 -0.199330 -0.979556
-0.050833 0.088045 1.155897 0.077810 -0.185512 -0.979556
-0.071888 0.071888 1.155897 0.123173 -0.159052 -0.979556
-0.088045 0.050833 1.155897 0.160142 -0.121753 -0.979556
-0.098201 0.026313 1.155897 0.186197 -0.076157 -0.979556
-0.101666 0.000000 1.155897 0.199563 -0.025370 -0.979556
-0.098201 -0.026313 1.155897 0.199330 0.027145 -0.979556
-0.088045 -0.050833 1.155897 0.185512 0.077810 -0.979556
-0.071888 -0.071888 1.155897 0.159052 0.123173 -0.979556
-0.050833 -0.088045 1.155897 0.121753 0.160142 -0.979556
-0.026313 -0.098201 1.155897 0.076157 0.186197 -0.979556
-0.000000 -0.101666 1.155897 0.025370 0.199563 -0.979556
0.026313 -0.098201 1.155897 -0.027145 0.199330 -0.979556
0.050833 -0.088045 1.155897 -0.077810 0.185512 -0.979556
0.071888 -0.071888 1.155897 -0.123173 0.159052 -0.979556
0.088045 -0.050833 1.155897 -0.160142 0.121753 -0.979556
0.098201 -0.026313 1.155897 -0.186197 0.076157 -0.979556
0.135814 0.000000 1.125008 -0.816041 0.005597 -0.577967
0.131186 0.035151 1.125008 -0.789684 -0.205801 -0.577967
0.117618 0.067907 1.125008 -0.709511 -0.403174 -0.577967
0.096035 0.096035 1.125008 -0.580986 -0.573071 -0.577967
0.067907 0.117618 1.125008 -0.412867 -0.703914 -0.577967
0.035151 0.131186 1.125008 -0.216613 -0.786787 -0.577967
0.000000 0.135814 1.125008 -0.005597 -0.816041 -0.577967
-0.035151 0.131186 1.125008 0.205801 -0.789684 -0.577967
-0.067907 0.117618 1.125008 0.403174 -0.709511 -0.577967
-0.096035 0.096035 1.125008 0.573071 -0.580986 -0.577967
-0.117618 0.067907 1.125008 0.703914 -0.412867 -0.577967
-0.131186 0.035151 1.125008 0.786787 -0.216613 -0.577967
-0.135814 0.000000 1.125008 0.816041 -0.005597 -0.577967
-0.131186 -0.035151 1.125008 0.789684 0.205801 -0.577967
-0.117618 -0.067907 1.125008 0.709511 0.403174 -0.577967
-0.096035 -0.096035 1.125008 0.580986 0.573071 -0.577967
-0.067907 -0.117618 1.125008 0.412867 0.703914 -0.577967
-0.035151 -0.131186 1.125008 0.216613 0.786787 -0.577967
-0.000000 -0.135814 1.125008 0.005597 0.816041 -0.577967
0.035151 -0.131186 1.125008 -0.205801 0.789684 -0.577967
0.067907 -0.117618 1.125008 -0.403174 0.709511 -0.577967
0.096035 -0.096035 1.125008 -0.573071 0.580986 -0.577967
0.117618 -0.067907 1.125008 -0.703914 0.412867 -0.577967
0.131186 -0.035151 1.125008 -0.786787 0.216613 -0.577967
0.165166 0.000000 1.054853 -0.956308 0.001262 -0.292357
0.159538 0.042748 1.054853 -0.924050 -0.246292 -0.292357
0.143038 0.082583 1.054853 -0.828819 -0.477061 -0.292357
0.116790 0.116790 1.054853 -0.677105 -0.675320 -0.292357
0.082583 0.143038 1.054853 -0.479247 -0.827556 -0.292357
0.042748 0.159538 1.054853 -0.248730 -0.923396 -0.292357
0.000000 0.165166 1.054853 -0.001262 -0.956308 -0.292357
-0.042748 0.159538 1.054853 0.246292 -0.924050 -0.292357
-0.082583 0.143038 1.054853 0.477061 -0.828819 -0.292357
-0.116790 0.116790 1.054853 0.675320 -0.677105 -0.292357
-0.143038 0.082583 1.054853 0.827556 -0.479247 -0.292357
-0.159538 0.042748 1.054853 0.923396 -0.248730 -0.292357
-0.165166 0.000000 1.054853 0.956308 -0.001262 -0.292357
-0.159538 -0.042748 1.054853 0.924050 0.246292 -0.292357
-0.143038 -0.082583 1.054853 0.828819 0.477061 -0.292357
-0.116790 -0.116790 1.054853 0.677105 0.675320 -0.292357
-0.082583 -0.143038 1.054853 0.479247 0.827556 -0.292357
-0.042748 -0.159538 1.054853 0.248730 0.923396 -0.292357
-0.000000 -0.165166 1.054853 0.001262 0.956308 -0.292357
0.042748 -0.159538 1.054853 -0.246292 0.924050 -0.292357
0.082583 -0.143038 1.054853 -0.477061 0.828819 -0.292357
0.116790 -0.116790 1.054853 -0.675320 0.677105 -0.292357
0.143038 -0.082583 1.054853 -0.827556 0.479247 -0.292357
0.159538 -0.042748 1.054853 -0.923396 0.248730 -0.292357
0.184995 0.000000 0.955516 -0.991716 0.000379 -0.128450
0.178692 0.047880 0.955516 -0.958022 -0.256309 -0.128450
0.160211 0.092498 0.955516 -0.859041 -0.495530 -0.128450
0.130812 0.130812 0.955516 -0.701517 -0.700981 -0.128450
0.092498 0.160211 0.955516 -0.496186 -0.858662 -0.128450
0.047880 0.178692 0.955516 -0.257041 -0.957826 -0.128450
0.000000 0.184995 0.955516 -0.000379 -0.991716 -0.128450
-0.047880 0.178692 0.955516 0.256309 -0.958022 -0.128450
-0.092498 0.160211 0.955516 0.495530 -0.859041 -0.128450
-0.130812 0.130812 0.955516 0.700981 -0.701517 -0.128450
-0.160211 0.092498 0.955516 0.858662 -0.496186 -0.128450
-0.178692 0.047880 0.955516 0.957826 -0.257041 -0.128450
-0.184995 0.000000 0.955516 0.991716 -0.000379 -0.128450
-0.178692 -0.047880 0.955516 0.958022 0.256309 -0.128450
-0.160211 -0.092498 0.955516 0.859041 0.495530 -0.128450
-0.130812 -0.130812 0.955516 0.701517 0.700981 -0.128450
-0.092498 -0.160211 0.955516 0.496186 0.858662 -0.128450
-0.047880 -0.178692 0.955516 0.257041 0.957826 -0.128450
-0.000000 -0.184995 0.955516 0.000379 0.991716 -0.128450
0.047880 -0.178692 0.955516 -0.256309 0.958022 -0.128450
0.092498 -0.160211 0.955516 -0.495530 0.859041 -0.128450
0.130812 -0.130812 0.955516 -0.700981 0.701517 -0.128450
0.160211 -0.092498 0.955516 -0.858662 0.496186 -0.128450
0.178692 -0.047880 0.955516 -0.957826 0.257041 -0.128450
0.192000 0.000000 0.840000 -0.999999 0.000003 -0.001084
0.185458 0.049693 0.840000 -0.965926 -0.258816 -0.001084
0.166277 0.096000 0.840000 -0.866026 -0.499997 -0.001084
0.135765 0.135765 0.840000 -0.707108 -0.707104 -0.001084
0.096000 0.166277 0.840000 -0.500002 -0.866024 -0.001084
0.049693 0.185458 0.840000 -0.258822 -0.965925 -0.001084
0.000000 0.192000 0.840000 -0.000003 -0.999999 -0.001084
-0.049693 0.185458 0.840000 0.258816 -0.965926 -0.001084
-0.096000 0.166277 0.840000 0.499997 -0.866026 -0.001084
-0.135765 0.135765 0.840000 0.707104 -0.707108 -0.001084
-0.166277 0.096000 0.840000 0.866024 -0.500002 -0.001084
-0.185458 0.049693 0.840000 0.965925 -0.258822 -0.001084
-0.192000 0.000000 0.840000 0.999999 -0.000003 -0.001084
-0.185458 -0.049693 0.840000 0.965926 0.258816 -0.001084
-0.166277 -0.096000 0.840000 0.866026 0.499997 -0.001084
-0.135765 -0.135765 0.840000 0.707108 0.707104 -0.001084
-0.096000 -0.166277 0.840000 0.500002 0.866024 -0.001084
-0.049693 -0.185458 0.840000 0.258822 0.965925 -0.001084
-0.000000 -0.192000 0.840000 0.000003 0.999999 -0.001084
0.049693 -0.185458 0.840000 -0.258816 0.965926 -0.001084
0.096000 -0.166277 0.840000 -0.499997 0.866026 -0.001084
0.135765 -0.135765 0.840000 -0.707104 0.707108 -0.001084
0.166277 -0.096000 0.840000 -0.866024 0.500002 -0.001084
0.185458 -0.049693 0.840000 -0.965925 0.258822 -0.001084
0.184995 0.000000 0.720185 -0.993538 -0.000271 0.113503
0.178692 0.047880 0.720185 -0.959613 -0.257409 0.113503
0.160211 0.092498 0.720185 -0.860293 -0.497004 0.113503
0.130812 0.130812 0.720185 -0.702345 -0.702729 0.113503
0.092498 0.160211 0.720185 -0.496534 -0.860564 0.113503
0.047880 0.178692 0.720185 -0.256884 -0.959754 0.113503
0.000000 0.184995 0.720185 0.000271 -0.993538 0.113503
-0.047880 0.178692 0.720185 0.257409 -0.959613 0.113503
-0.092498 0.160211 0.720185 0.497004 -0.860293 0.113503
-0.130812 0.130812 0.720185 0.702729 -0.702345 0.113503
-0.160211 0.092498 0.720185 0.860564 -0.496534 0.113503
-0.178692 0.047880 0.720185 0.959754 -0.256884 0.113503
-0.184995 0.000000 0.720185 0.993538 0.000271 0.113503
-0.178692 -0.047880 0.720185 0.959613 0.257409 0.113503
-0.160211 -0.092498 0.720185 0.860293 0.497004 0.113503
-0.130812 -0.130812 0.720185 0.702345 0.702729 0.113503
-0.092498 -0.160211 0.720185 0.496534 0.860564 0.113503
-0.047880 -0.178692 0.720185 0.256884 0.959754 0.113503
-0.000000 -0.184995 0.720185 -0.000271 0.993538 0.113503
0.047880 -0.178692 0.720185 -0.257409 0.959613 0.113503
0.092498 -0.160211 0.720185 -0.497004 0.860293 0.113503
0.130812 -0.130812 0.720185 -0.702729 0.702345 0.113503
0.160211 -0.092498 0.720185 -0.860564 0.496534 0.113503
0.178692 -0.047880 0.720185 -0.959754 0.256884 0.113503
0.165166 0.000000 0.604033 -0.976797 -0.000432 0.214168
0.159538 0.042748 0.604033 -0.943401 -0.253231 0.214168
0.143038 0.082583 0.604033 -0.845715 -0.488773 0.214168
0.116790 0.116790 0.604033 -0.690394 -0.691005 0.214168
0.082583 0.143038 0.604033 -0.488024 -0.846147 0.214168
0.042748 0.159538 0.604033 -0.252396 -0.943625 0.214168
0.000000 0.165166 0.604033 0.000432 -0.976797 0.214168
-0.042748 0.159538 0.604033 0.253231 -0.943401 0.214168
-0.082583 0.143038 0.604033 0.488773 -0.845715 0.214168
-0.116790 0.116790 0.604033 0.691005 -0.690394 0.214168
-0.143038 0.082583 0.604033 0.846147 -0.488024 0.214168
-0.159538 0.042748 0.604033 0.943625 -0.252396 0.214168
-0.165166 0.000000 0.604033 0.976797 0.000432 0.214168
-0.159538 -0.042748 0.604033 0.943401 0.253231 0.214168
-0.143038 -0.082583 0.604033 0.845715 0.488773 0.214168
-0.116790 -0.116790 0.604033 0.690394 0.691005 0.214168
-0.082583 -0.143038 0.604033 0.488024 0.846147 0.214168
-0.042748 -0.159538 0.604033 0.252396 0.943625 0.214168
-0.000000 -0.165166 0.604033 -0.000432 0.976797 0.214168
0.042748 -0.159538 0.604033 -0.253231 0.943401 0.214168
0.082583 -0.143038 0.604033 -0.488773 0.845715 0.214168
0.116790 -0.116790 0.604033 -0.691005 0.690394 0.214168
0.143038 -0.082583 0.604033 -0.846147 0.488024 0.214168
0.159538 -0.042748 0.604033 -0.943625 0.252396 0.214168
0.135814 0.000000 0.494828 -0.957602 -0.000369 0.288095
0.131186 0.035151 0.494828 -0.924877 -0.248202 0.288095
0.117618 0.067907 0.494828 -0.829123 -0.479121 0.288095
0.096035 0.096035 0.494828 -0.676866 -0.677388 0.288095
0.067907 0.117618 0.494828 -0.478481 -0.829492 0.288095
0.035151 0.131186 0.494828 -0.247489 -0.925068 0.288095
0.000000 0.135814 0.494828 0.000369 -0.957602 0.288095
-0.035151 0.131186 0.494828 0.248202 -0.924877 0.288095
-0.067907 0.117618 0.494828 0.479121 -0.829123 0.288095
-0.096035 0.096035 0.494828 0.677388 -0.676866 0.288095
-0.117618 0.067907 0.494828 0.829492 -0.478481 0.288095
-0.131186 0.035151 0.494828 0.925068 -0.247489 0.288095
-0.135814 0.000000 0.494828 0.957602 0.000369 0.288095
-0.131186 -0.035151 0.494828 0.924877 0.248202 0.288095
-0.117618 -0.067907 0.494828 0.829123 0.479121 0.288095
-0.096035 -0.096035 0.494828 0.676866 0.677388 0.288095
-0.067907 -0.117618 0.494828 0.478481 0.829492 0.288095
-0.035151 -0.131186 0.494828 0.247489 0.925068 0.288095
-0.000000 -0.135814 0.494828 -0.000369 0.957602 0.288095
0.035151 -0.131186 0.494828 -0.248202 0.924877 0.288095
0.067907 -0.117618 0.494828 -0.479121 0.829123 0.288095
0.096035 -0.096035 0.494828 -0.677388 0.676866 0.288095
0.117618 -0.067907 0.494828 -0.829492 0.478481 0.288095
0.131186 -0.035151 0.494828 -0.925068 0.247489 0.288095
0.101666 0.000000 0.392431 -0.946364 -0.000099 0.323104
0.098201 0.026313 0.392431 -0.914091 -0.245033 0.323104
0.088045 0.050833 0.392431 -0.819525 -0.473268 0.323104
0.071888 0.071888 0.392431 -0.669110 -0.669250 0.323104
0.050833 0.088045 0.392431 -0.473096 -0.819625 0.323104
0.026313 0.098201 0.392431 -0.244841 -0.914143 0.323104
0.000000 0.101666 0.392431 0.000099 -0.946364 0.323104
-0.026313 0.098201 0.392431 0.245033 -0.914091 0.323104
-0.050833 0.088045 0.392431 0.473268 -0.819525 0.323104
-0.071888 0.071888 0.392431 0.669250 -0.669110 0.323104
-0.088045 0.050833 0.392431 0.819625 -0.473096 0.323104
-0.098201 0.026313 0.392431 0.914143 -0.244841 0.323104
-0.101666 0.000000 0.392431 0.946364 0.000099 0.323104
-0.098201 -0.026313 0.392431 0.914091 0.245033 0.323104
-0.088045 -0.050833 0.392431 0.819525 0.473268 0.323104
-0.071888 -0.071888 0.392431 0.669110 0.669250 0.323104
-0.050833 -0.088045 0.392431 0.473096 0.819625 0.323104
-0.026313 -0.098201 0.392431 0.244841 0.914143 0.323104
-0.000000 -0.101666 0.392431 -0.000099 0.946364 0.323104
0.026313 -0.098201 0.392431 -0.245033 0.914091 0.323104
0.050833 -0.088045 0.392431 -0.473268 0.819525 0.323104
0.071888 -0.071888 0.392431 -0.669250 0.669110 0.323104
0.088045 -0.050833 0.392431 -0.819625 0.473096 0.323104
0.098201 -0.026313 0.392431 -0.914143 0.244841 0.323104
0.067882 0.000000 0.295736 -0.948468 0.000188 0.316872
0.065569 0.017569 0.295736 -0.916198 -0.245301 0.316872
0.058788 0.033941 0.295736 -0.821491 -0.474072 0.316872
0.048000 0.048000 0.295736 -0.670801 -0.670536 0.316872
0.033941 0.058788 0.295736 -0.474396 -0.821304 0.316872
0.017569 0.065569 0.295736 -0.245663 -0.916101 0.316872
0.000000 0.067882 0.295736 -0.000188 -0.948468 0.316872
-0.017569 0.065569 0.295736 0.245301 -0.916198 0.316872
-0.033941 0.058788 0.295736 0.474072 -0.821491 0.316872
-0.048000 0.048000 0.295736 0.670536 -0.670801 0.316872
-0.058788 0.033941 0.295736 0.821304 -0.474396 0.316872
-0.065569 0.017569 0.295736 0.916101 -0.245663 0.316872
-0.067882 0.000000 0.295736 0.948468 -0.000188 0.316872
-0.065569 -0.017569 0.295736 0.916198 0.245301 0.316872
-0.058788 -0.033941 0.295736 0.821491 0.474072 0.316872
-0.048000 -0.048000 0.295736 0.670801 0.670536 0.316872
-0.033941 -0.058788 0.295736 0.474396 0.821304 0.316872
-0.017569 -0.065569 0.295736 0.245663 0.916101 0.316872
-0.000000 -0.067882 0.295736 0.000188 0.948468 0.316872
0.017569 -0.065569 0.295736 -0.245301 0.916198 0.316872
0.033941 -0.058788 0.295736 -0.474072 0.821491 0.316872
0.048000 -0.048000 0.295736 -0.670536 0.670801 0.316872
0.058788 -0.033941 0.295736 -0.821304 0.474396 0.316872
0.065569 -0.017569 0.295736 -0.916101 0.245663 0.316872
0.038990 0.000000 0.205147 -0.960744 0.000331 0.277436
0.037662 0.010091 0.205147 -0.928093 -0.248339 0.277436
0.033767 0.019495 0.205147 -0.832194 -0.480085 0.277436
0.027570 0.027570 0.205147 -0.679583 -0.679115 0.277436
0.019495 0.033767 0.205147 -0.480659 -0.831863 0.277436
0.010091 0.037662 0.205147 -0.248979 -0.927922 0.277436
0.000000 0.038990 0.205147 -0.000331 -0.960744 0.277436
-0.010091 0.037662 0.205147 0.248339 -0.928093 0.277436
-0.019495 0.033767 0.205147 0.480085 -0.832194 0.277436
-0.027570 0.027570 0.205147 0.679115 -0.679583 0.277436
-0.033767 0.019495 0.205147 0.831863 -0.480659 0.277436
-0.037662 0.010091 0.205147 0.927922 -0.248979 0.277436
-0.038990 0.000000 0.205147 0.960744 -0.000331 0.277436
-0.037662 -0.010091 0.205147 0.928093 0.248339 0.277436
-0.033767 -0.019495 0.205147 0.832194 0.480085 0.277436
-0.027570 -0.027570 0.205147 0.679583 0.679115 0.277436
-0.019495 -0.033767 0.205147 0.480659 0.831863 0.277436
-0.010091 -0.037662 0.205147 0.248979 0.927922 0.277436
-0.000000 -0.038990 0.205147 0.000331 0.960744 0.277436
0.010091 -0.037662 0.205147 -0.248339 0.928093 0.277436
0.019495 -0.033767 0.205147 -0.480085 0.832194 0.277436
0.027570 -0.027570 0.205147 -0.679115 0.679583 0.277436
0.033767 -0.019495 0.205147 -0.831863 0.480659 0.277436
0.037662 -0.010091 0.205147 -0.927922 0.248979 0.277436
0.017966 0.000000 0.123995 -0.976047 0.000321 0.217558
0.017353 0.004650 0.123995 -0.942872 -0.252309 0.217558
0.015559 0.008983 0.123995 -0.845442 -0.487745 0.217558
0.012704 0.012704 0.123995 -0.690397 -0.689942 0.217558
0.008983 0.015559 0.123995 -0.488302 -0.845121 0.217558
0.004650 0.017353 0.123995 -0.252930 -0.942706 0.217558
0.000000 0.017966 0.123995 -0.000321 -0.976047 0.217558
-0.004650 0.017353 0.123995 0.252309 -0.942872 0.217558
-0.008983 0.015559 0.123995 0.487745 -0.845442 0.217558
-0.012704 0.012704 0.123995 0.689942 -0.690397 0.217558
-0.015559 0.008983 0.123995 0.845121 -0.488302 0.217558
-0.017353 0.004650 0.123995 0.942706 -0.252930 0.217558
-0.017966 0.000000 0.123995 0.976047 -0.000321 0.217558
-0.017353 -0.004650 0.123995 0.942872 0.252309 0.217558
-0.015559 -0.008983 0.123995 0.845442 0.487745 0.217558
-0.012704 -0.012704 0.123995 0.690397 0.689942 0.217558
-0.008983 -0.015559 0.123995 0.488302 0.845121 0.217558
-0.004650 -0.017353 0.123995 0.252930 0.942706 0.217558
-0.000000 -0.017966 0.123995 0.000321 0.976047 0.217558
0.004650 -0.017353 0.123995 -0.252309 0.942872 0.217558
0.008983 -0.015559 0.123995 -0.487745 0.845442 0.217558
0.012704 -0.012704 0.123995 -0.689942 0.690397 0.217558
0.015559 -0.008983 0.123995 -0.845121 0.488302 0.217558
0.017353 -0.004650 0.123995 -0.942706 0.252930 0.217558
0.005666 0.000000 0.058309 -0.987443 -0.025890 0.155840
0.005473 0.001466 0.058309 -0.947062 -0.280564 0.156066
0.004907 0.002833 0.058309 -0.842088 -0.516066 0.156728
0.004006 0.004006 0.058309 -0.679711 -0.716308 0.157781
0.002833 0.004907 0.058309 -0.471050 -0.867630 0.159152
0.001466 0.005473 0.058309 -0.230376 -0.959733 0.160746
0.000000 0.005666 0.058309 0.025868 -0.986377 0.162455
-0.001466 0.005473 0.058309 0.280205 -0.945799 0.164161
-0.002833 0.004907 0.058309 0.515315 -0.840819 0.165749
-0.004006 0.004006 0.058309 0.715215 -0.678632 0.167111
-0.004907 0.002833 0.058309 0.866335 -0.470306 0.168155
-0.005473 0.001466 0.058309 0.958432 -0.230025 0.168811
-0.005666 0.000000 0.058309 0.985270 0.025878 0.169034
-0.005473 -0.001466 0.058309 0.945036 0.280017 0.168810
-0.004907 -0.002833 0.058309 0.840456 0.515129 0.168155
-0.004006 -0.004006 0.058309 0.678616 0.715230 0.167111
-0.002833 -0.004907 0.058309 0.470489 0.866699 0.165749
-0.001466 -0.005473 0.058309 0.230206 0.959196 0.164161
-0.000000 -0.005666 0.058309 -0.025898 0.986376 0.162455
0.001466 -0.005473 0.058309 -0.280381 0.946334 0.160746
0.002833 -0.004907 0.058309 -0.515886 0.841744 0.159152
0.004006 -0.004006 0.058309 -0.716321 0.679697 0.157781
0.004907 -0.002833 0.058309 -0.867976 0.471225 0.156728
0.005473 -0.001466 0.058309 -0.960464 0.230549 0.156066
0.000735 0.000000 0.015111 -0.008365 0.000000 0.999965
0.000000 0.000000 0.000000 0.000000 0.000000 0.000000
3 1 3 2
3 1 4 3
3 1 5 4
3 1 6 5
3 1 7 6
3 1 8 7
3 1 9 8
3 1 10 9
3 1 11 10
3 1 12 11
3 1 13 12
3 1 14 13
3 1 15 14
3 1 16 15
3 1 17 16
3 1 18 17
3 1 19 18
3 1 20 19
3 1 21 20
3 1 22 21
3 1 23 22
3 1 24 23
3 1 25 24
3 1 2 25
3 2 3 26
3 3 27 26
3 3 4 27
3 4 28 27
3 4 5 28
3 5 29 28
3 5 6 29
3 6 30 29
3 6 7 30
3 7 31 30
3 7 8 31
3 8 32 31
3 8 9 32
3 9 33 32
3 9 10 33
3 10 34 33
3 10 11 34
3 11 35 34
3 11 12 35
3 12 36 35
3 12 13 36
3 13 37 36
3 13 14 37
3 14 38 37
3 14 15 38
3 15 39 38
3 15 16 39
3 16 40 39
3 16 17 40
3 17 41 40
3 17 18 41
3 18 42 41
3 18 19 42
3 19 43 42
3 19 20 43
3 20 44 43
3 20 21 44
3 21 45 44
3 21 22 45
3 22 46 45
3 22 23 46
3 23 47 46
3 23 24 47
3 24 48 47
3 24 25 48
3 25 49 48
3 25 2 49
3 2 26 49
3 26 27 50
3 27 51 50
3 27 28 51
3 28 52 51
3 28 29 52
3 29 53 52
3 29 30 53
3 30 54 53
3 30 31 54
3 31 55 54
3 31 32 55
3 32 56 55
3 32 33 56
3 33 57 56
3 33 34 57
3 34 58 57
3 34 35 58
3 35 59 58
3 35 36 59
3 36 60 59
3 36 37 60
3 37 61 60
3 37 38 61
3 38 62 61
3 38 39 62
3 39 63 62
3 39 40 63
3 40 64 63
3 40 41 64
3 41 65 64
3 41 42 65
3 42 66 65
3 42 43 66
3 43 67 66
3 43 44 67
3 44 68 67
3 44 45 68
3 45 69 68
3 45 46 69
3 46 70 69
3 46 47 70
3 47 71 70
3 47 48 71
3 48 72 71
3 48 49 72
3 49 73 72
3 49 26 73
3 26 50 73
3 50 51 74
3 51 75 74
3 51 52 75
3 52 76 75
3 52 53 76
3 53 77 76
3 53 54 77
3 54 78 77
3 54 55 78
3 55 79 78
3 55 56 79
3 56 80 79
3 56 57 80
3 57 81 80
3 57 58 81
3 58 82 81
3 58 59 82
3 59 83 82
3 59 60 83
3 60 84 83
3 60 61 84
3 61 85 84
3 61 62 85
3 62 86 85
3 62 63 86
3 63 87 86
3 63 64 87
3 64 88 87
3 64 65 88
3 65 89 88
3 65 66 89
3 66 90 89
3 66 67 90
3 67 91 90
3 67 68 91
3 68 92 91
3 68 69 92
3 69 93 92
3 69 70 93
3 70 94 93
3 70 71 94
3 71 95 94
3 71 72 95
3 72 96 95
3 72 73 96
3 73 97 96
3 73 50 97
3 50 74 97
3 74 75 98
3 75 99 98
3 75 76 99
3 76 100 99
3 76 77 100
3 77 101 100
3 77 78 101
3 78 102 101
3 78 79 102
3 79 103 102
3 79 80 103
3 80 104 103
3 80 81 104
3 81 105 104
3 81 82 105
3 82 106 105
3 82 83 106
3 83 107 106
3 83 84 107
3 84 108 107
3 84 85 108
3 85 109 108
3 85 86 109
3 86 110 109
3 86 87 110
3 87 111 110
3 87 88 111
3 88 112 111
3 88 89 112
3 89 113 112
3 89 90 113
3 90 114 113
3 90 91 114
3 91 115 114
3 91 92 115
3 92 116 115
3 92 93 116
3 93 117 116
3 93 94 117
3 94 118 117
3 94 95 118
3 95 119 118
3 95 96 119
3 96 120 119
3 96 97 120
3 97 121 120
3 97 74 121
3 74 98 121
3 98 99 122
3 99 123 122
3 99 100 123
3 100 124 123
3 100 101 124
3 101 125 124
3 101 102 125
3 102 126 125
3 102 103 126
3 103 127 126
3 103 104 127
3 104 128 127
3 104 105 128
3 105 129 128
3 105 106 129
3 106 130 129
3 106 107 130
3 107 131 130
3 107 108 131
3 108 132 131
3 108 109 132
3 109 133 132
3 109 110 133
3 110 134 133
3 110 111 134
3 111 135 134
3 111 112 135
3 112 136 135
3 112 113 136
3 113 137 136
3 113 114 137
3 114 138 137
3 114 115 138
3 115 139 138
3 115 116 139
3 116 140 139
3 116 117 140
3 117 141 140
3 117 118 141
3 118 142 141
3 118 119 142
3 119 143 142
3 119 120 143
3 120 144 143
3 120 121 144
3 121 145 144
3 121 98 145
3 98 122 145
3 122 123 146
3 123 147 146
3 123 124 147
3 124 148 147
3 124 125 148
3 125 149 148
3 125 126 149
3 126 150 149
3 126 127 150
3 127 151 150
3 127 128 151
3 128 152 151
3 128 129 152
3 129 153 152
3 129 130 153
3 130 154 153
3 130 131 154
3 131 155 154
3 131 132 155
3 132 156 155
3 132 133 156
3 133 157 156
3 133 134 157
3 134 158 157
3 134 135 158
3 135 159 158
3 135 136 159
3 136 160 159
3 136 137 160
3 137 161 160
3 137 138 161
3 138 162 161
3 138 139 162
3 139 163 162
3 139 140 163
3 140 164 163
3 140 141 164
3 141 165 164
3 141 142 165
3 142 166 165
3 142 143 166
3 143 167 166
3 143 144 167
3 144 168 167
3 144 145 168
3 145 169 168
3 145 122 169
3 122 146 169
3 146 147 170
3 147 171 170
3 147 148 171
3 148 172 171
3 148 149 172
3 149 173 172
3 149 150 173
3 150 174 173
3 150 151 174
3 151 175 174
3 151 152 175
3 152 176 175
3 152 153 176
3 153 177 176
3 153 154 177
3 154 178 177
3 154 155 178
3 155 179 178
3 155 156 179
3 156 180 179
3 156 157 180
3 157 181 180
3 157 158 181
3 158 182 181
3 158 159 182
3 159 183 182
3 159 160 183
3 160 184 183
3 160 161 184
3 161 185 184
3 161 162 185
3 162 186 185
3 162 163 186
3 163 187 186
3 163 164 187
3 164 188 187
3 164 165 188
3 165 189 188
3 165 166 189
3 166 190 189
3 166 167 190
3 167 191 190
3 167 168 191
3 168 192 191
3 168 169 192
3 169 193 192
3 169 146 193
3 146 170 193
3 170 171 194
3 171 195 194
3 171 172 195
3 172 196 195
3 172 173 196
3 173 197 196
3 173 174 197
3 174 198 197
3 174 175 198
3 175 199 198
3 175 176 199
3 176 200 199
3 176 177 200
3 177 201 200
3 177 178 201
3 178 202 201
3 178 179 202
3 179 203 202
3 179 180 203
3 180 204 203
3 180 181 204
3 181 205 204
3 181 182 205
3 182 206 205
3 182 183 206
3 183 207 206
3 183 184 207
3 184 208 207
3 184 185 208
3 185 209 208
3 185 186 209
3 186 210 209
3 186 187 210
3 187 211 210
3 187 188 211
3 188 212 211
3 188 189 212
3 189 213 212
3 189 190 213
3 190 214 213
3 190 191 214
3 191 215 214
3 191 192 215
3 192 216 215
3 192 193 216
3 193 217 216
3 193 170 217
3 170 194 217
3 194 195 218
3 195 219 218
3 195 196 219
3 196 220 219
3 196 197 220
3 197 221 220
3 197 198 221
3 198 222 221
3 198 199 222
3 199 223 222
3 199 200 223
3 200 224 223
3 200 201 224
3 201 225 224
3 201 202 225
3 202 226 225
3 202 203 226
3 203 227 226
3 203 204 227
3 204 228 227
3 204 205 228
3 205 229 228
3 205 206 229
3 206 230 229
3 206 207 230
3 207 231 230
3 207 208 231
3 208 232 231
3 208 209 232
3 209 233 232
3 209 210 233
3 210 234 233
3 210 211 234
3 211 235 234
3 211 212 235
3 212 236 235
3 212 213 236
3 213 237 236
3 213 214 237
3 214 238 237
3 214 215 238
3 215 239 238
3 215 216 239
3 216 240 239
3 216 217 240
3 217 241 240
3 217 194 241
3 194 218 241
3 218 219 242
3 219 243 242
3 219 220 243
3 220 244 243
3 220 221 244
3 221 245 244
3 221 222 245
3 222 246 245
3 222 223 246
3 223 247 246
3 223 224 247
3 224 248 247
3 224 225 248
3 225 249 248
3 225 226 249
3 226 250 249
3 226 227 250
3 227 251 250
3 227 228 251
3 228 252 251
3 228 229 252
3 229 253 252
3 229 230 253
3 230 254 253
3 230 231 254
3 231 255 254
3 231 232 255
3 232 256 255
3 232 233 256
3 233 257 256
3 233 234 257
3 234 258 257
3 234 235 258
3 235 259 258
3 235 236 259
3 236 260 259
3 236 237 260
3 237 261 260
3 237 238 261
3 238 262 261
3 238 239 262
3 239 263 262
3 239 240 263
3 240 264 263
3 240 241 264
3 241 265 264
3 241 218 265
3 218 242 265
3 242 243 266
3 243 267 266
3 243 244 267
3 244 268 267
3 244 245 268
3 245 269 268
3 245 246 269
3 246 270 269
3 246 247 270
3 247 271 270
3 247 248 271
3 248 272 271
3 248 249 272
3 249 273 272
3 249 250 273
3 250 274 273
3 250 251 274
3 251 275 274
3 251 252 275
3 252 276 275
3 252 253 276
3 253 277 276
3 253 254 277
3 254 278 277
3 254 255 278
3 255 279 278
3 255 256 279
3 256 280 279
3 256 257 280
3 257 281 280
3 257 258 281
3 258 282 281
3 258 259 282
3 259 283 282
3 259 260 283
3 260 284 283
3 260 261 284
3 261 285 284
3 261 262 285
3 262 286 285
3 262 263 286
3 263 287 286
3 263 264 287
3 264 288 287
3 264 265 288
3 265 289 288
3 265 242 289
3 242 266 289
3 266 267 290
3 267 291 290
3 267 268 291
3 268 292 291
3 268 269 292
3 269 293 292
3 269 270 293
3 270 294 293
3 270 271 294
3 271 295 294
3 271 272 295
3 272 296 295
3 272 273 296
3 273 297 296
3 273 274 297
3 274 298 297
3 274 275 298
3 275 299 298
3 275 276 299
3 276 300 299
3 276 277 300
3 277 301 300
3 277 278 301
3 278 302 301
3 278 279 302
3 279 303 302
3 279 280 303
3 280 304 303
3 280 281 304
3 281 305 304
3 281 282 305
3 282 306 305
3 282 283 306
3 283 307 306
3 283 284 307
3 284 308 307
3 284 285 308
3 285 309 308
3 285 286 309
3 286 310 309
3 286 287 310
3 287 311 310
3 287 288 311
3 288 312 311
3 288 289 312
3 289 313 312
3 289 266 313
3 266 290 313
3 290 291 314
3 291 315 314
3 291 292 315
3 292 316 315
3 292 293 316
3 293 317 316
3 293 294 317
3 294 318 317
3 294 295 318
3 295 319 318
3 295 296 319
3 296 320 319
3 296 297 320
3 297 321 320
3 297 298 321
3 298 322 321
3 298 299 322
3 299 323 322
3 299 300 323
3 300 324 323
3 300 301 324
3 301 325 324
3 301 302 325
3 302 326 325
3 302 303 326
3 303 327 326
3 303 304 327
3 304 328 327
3 304 305 328
3 305 329 328
3 305 306 329
3 306 330 329
3 306 307 330
3 307 331 330
3 307 308 331
3 308 332 331
3 308 309 332
3 309 333 332
3 309 310 333
3 310 334 333
3 310 311 334
3 311 335 334
3 311 312 335
3 312 336 335
3 312 313 336
3 313 337 336
3 313 290 337
3 290 314 337
3 314 315 338
3 315 339 338
3 315 316 339
3 316 340 339
3 316 317 340
3 317 341 340
3 317 318 341
3 318 342 341
3 318 319 342
3 319 343 342
3 319 320 343
3 320 344 343
3 320 321 344
3 321 345 344
3 321 322 345
3 322 346 345
3 322 323 346
3 323 347 346
3 323 324 347
3 324 348 347
3 324 325 348
3 325 349 348
3 325 326 349
3 326 350 349
3 326 327 350
3 327 351 350
3 327 328 351
3 328 352 351
3 328 329 352
3 329 353 352
3 329 330 353
3 330 354 353
3 330 331 354
3 331 355 354
3 331 332 355
3 332 356 355
3 332 333 356
3 333 357 356
3 333 334 357
3 334 358 357
3 334 335 358
3 335 359 358
3 335 336 359
3 336 360 359
3 336 337 360
3 337 361 360
3 337 314 361
3 314 338 361
3 338 339 362
3 339 363 362
3 339 340 363
3 340 364 363
3 340 341 364
3 341 365 364
3 341 342 365
3 342 366 365
3 342 343 366
3 343 367 366
3 343 344 367
3 344 368 367
3 344 345 368
3 345 369 368
3 345 346 369
3 346 370 369
3 346 347 370
3 347 371 370
3 347 348 371
3 348 372 371
3 348 349 372
3 349 373 372
3 349 350 373
3 350 374 373
3 350 351 374
3 351 375 374
3 351 352 375
3 352 376 375
3 352 353 376
3 353 377 376
3 353 354 377
3 354 378 377
3 354 355 378
3 355 379 378
3 355 356 379
3 356 380 379
3 356 357 380
3 357 381 380
3 357 358 381
3 358 382 381
3 358 359 382
3 359 383 382
3 359 360 383
3 360 384 383
3 360 361 384
3 361 385 384
3 361 338 385
3 338 362 385
3 362 363 386
3 363 387 386
3 363 364 387
3 364 388 387
3 364 365 388
3 365 389 388
3 365 366 389
3 366 390 389
3 366 367 390
3 367 391 390
3 367 368 391
3 368 392 391
3 368 369 392
3 369 393 392
3 369 370 393
3 370 394 393
3 370 371 394
3 371 395 394
3 371 372 395
3 372 396 395
3 372 373 396
3 373 397 396
3 373 374 397
3 374 398 397
3 374 375 398
3 375 399 398
3 375 376 399
3 376 400 399
3 376 377 400
3 377 401 400
3 377 378 401
3 378 402 401
3 378 379 402
3 379 403 402
3 379 380 403
3 380 404 403
3 380 381 404
3 381 405 404
3 381 382 405
3 382 406 405
3 382 383 406
3 383 407 406
3 383 384 407
3 384 408 407
3 384 385 408
3 385 409 408
3 385 362 409
3 362 386 409
3 386 387 410
3 387 388 410
3 388 389 410
3 389 390 410
3 390 391 410
3 391 392 410
3 392 393 410
3 393 394 410
3 394 395 410
3 395 396 410
3 396 397 410
3 397 398 410
3 398 399 410
3 399 400 410
3 400 401 410
3 401 402 410
3 402 403 410
3 403 404 410
3 404 405 410
3 405 406 410
3 406 407 410
3 407 408 410
3 408 409 410
3 409 386 410
