ply
format ascii 1.0
element vertex 59
property float x
property float y
property float z
property float nx
property float ny
property float nz
element face 90
property list uchar int vertex_indices
end_header
0.300000 0.000000 0.000000 0.766937 -0.058349 -0.639064
0.270291 0.130165 0.000000 0.716303 0.280190 -0.639064
0.187047 0.234549 0.000000 0.523797 0.563235 -0.639064
0.066756 0.292478 0.000000 0.227546 0.734724 -0.639064
-0.066756 0.292478 0.000000 -0.113773 0.760692 -0.639064
-0.187047 0.234549 0.000000 -0.432558 0.635996 -0.639064
-0.270291 0.130165 0.000000 -0.665669 0.385332 -0.639064
-0.300000 0.000000 0.000000 -0.766937 0.058349 -0.639064
-0.270291 -0.130165 0.000000 -0.716303 -0.280190 -0.639064
-0.187047 -0.234549 0.000000 -0.523797 -0.563235 -0.639064
-0.066756 -0.292478 0.000000 -0.227546 -0.734724 -0.639064
0.066756 -0.292478 0.000000 0.113773 -0.760692 -0.639064
0.187047 -0.234549 0.000000 0.432558 -0.635996 -0.639064
0.270291 -0.130165 0.000000 0.665669 -0.385332 -0.639064
0.400000 0.000000 0.700000 0.987154 0.075104 -0.141022
0.360388 0.173553 0.700000 0.856808 0.495976 -0.141022
0.249396 0.312733 0.700000 0.556762 0.818614 -0.141022
0.089008 0.389971 0.700000 0.146442 0.979116 -0.141022
-0.089008 0.389971 0.700000 -0.292883 0.945691 -0.141022
-0.249396 0.312733 0.700000 -0.674199 0.724961 -0.141022
-0.360388 0.173553 0.700000 -0.921981 0.360644 -0.141022
-0.400000 0.000000 0.700000 -0.987154 -0.075104 -0.141022
-0.360388 -0.173553 0.700000 -0.856808 -0.495976 -0.141022
-0.249396 -0.312733 0.700000 -0.556762 -0.818614 -0.141022
-0.089008 -0.389971 0.700000 -0.146442 -0.979116 -0.141022
0.089008 -0.389971 0.700000 0.292883 -0.945691 -0.141022
0.249396 -0.312733 0.700000 0.674199 -0.724961 -0.141022
0.360388 -0.173553 0.700000 0.921981 -0.360644 -0.141022
0.000000 0.000000 0.000000 0.000000 0.000000 -1.000000
0.400000 -0.030000 0.550000 -0.077533 -0.952784 -0.293582
0.408216 -0.015000 0.574648 0.301682 -0.575417 0.760186
0.408216 0.015000 0.574648 0.362848 0.327020 0.872582
0.400000 0.030000 0.550000 0.109581 0.952849 0.282969
0.391784 0.015000 0.525352 -0.206737 0.529893 -0.822480
0.391784 -0.015000 0.525352 -0.211299 -0.326783 -0.921176
0.550000 -0.030000 0.500000 0.282562 -0.956956 0.066283
0.575476 -0.015000 0.505095 0.649656 -0.198431 0.733875
0.575476 0.015000 0.505095 0.410285 0.712043 0.569790
0.550000 0.030000 0.500000 -0.131912 0.942317 -0.307633
0.524524 0.015000 0.494905 -0.366623 0.221540 -0.903608
0.524524 -0.015000 0.494905 -0.275128 -0.651348 -0.707143
0.580000 0.030000 0.350000 0.359558 0.932558 0.032458
0.557076 0.015000 0.362226 -0.641639 0.695171 0.324094
0.557076 -0.015000 0.362226 -0.897599 -0.261900 0.354577
0.580000 -0.030000 0.350000 -0.216420 -0.961834 0.167443
0.602924 -0.015000 0.337774 0.720060 -0.672437 -0.171295
0.602924 0.015000 0.337774 0.953491 0.201272 -0.224378
0.500000 0.030000 0.200000 -0.053346 0.997443 -0.047565
0.490007 0.015000 0.223982 -0.623510 0.504745 0.597049
0.490007 -0.015000 0.223982 -0.567789 -0.506659 0.648777
0.500000 -0.030000 0.200000 0.045518 -0.998072 0.042200
0.509993 -0.015000 0.176018 0.598330 -0.504416 -0.622547
0.509993 0.015000 0.176018 0.554308 0.503330 -0.662873
0.380000 0.030000 0.150000 -0.072685 0.981981 0.174445
0.370007 0.015000 0.173982 -0.363427 0.327327 0.872226
0.370007 -0.015000 0.173982 -0.290742 -0.654654 0.697781
0.380000 -0.030000 0.150000 0.072685 -0.981981 -0.174445
0.389993 -0.015000 0.126018 0.363427 -0.327327 -0.872226
0.389993 0.015000 0.126018 0.290742 0.654654 -0.697781
3 0 1 14
3 1 15 14
3 1 2 15
3 2 16 15
3 2 3 16
3 3 17 16
3 3 4 17
3 4 18 17
3 4 5 18
3 5 19 18
3 5 6 19
3 6 20 19
3 6 7 20
3 7 21 20
3 7 8 21
3 8 22 21
3 8 9 22
3 9 23 22
3 9 10 23
3 10 24 23
3 10 11 24
3 11 25 24
3 11 12 25
3 12 26 25
3 12 13 26
3 13 27 26
3 13 0 27
3 0 14 27
3 28 1 0
3 28 2 1
3 28 3 2
3 28 4 3
3 28 5 4
3 28 6 5
3 28 7 6
3 28 8 7
3 28 9 8
3 28 10 9
3 28 11 10
3 28 12 11
3 28 13 12
3 28 0 13
3 29 35 30
3 30 35 36
3 30 36 31
3 31 36 37
3 31 37 32
3 32 37 38
3 32 38 33
3 33 38 39
3 33 39 34
3 34 39 40
3 34 40 29
3 29 40 35
3 35 41 36
3 36 41 42
3 36 42 37
3 37 42 43
3 37 43 38
3 38 43 44
3 38 44 39
3 39 44 45
3 39 45 40
3 40 45 46
3 40 46 35
3 35 46 41
3 41 47 42
3 42 47 48
3 42 48 43
3 43 48 49
3 43 49 44
3 44 49 50
3 44 50 45
3 45 50 51
3 45 51 46
3 46 51 52
3 46 52 41
3 41 52 47
3 47 53 48
3 48 53 54
3 48 54 49
3 49 54 55
3 49 55 50
3 50 55 56
3 50 56 51
3 51 56 57
3 51 57 52
3 52 57 58
3 52 58 47
3 47 58 53
