ply
format ascii 1.0
element vertex 56
property float x
property float y
property float z
property float nx
property float ny
property float nz
element face 60
property list uchar int vertex_indices
end_header
-0.600000 -0.400000 0.710000 0.577350 0.577350 0.577350
0.600000 -0.400000 0.710000 -0.816497 0.408248 0.408248
-0.600000 0.400000 0.710000 0.408248 -0.816497 0.408248
0.600000 0.400000 0.710000 -0.408248 -0.408248 0.816497
-0.600000 -0.400000 0.790000 0.408248 0.408248 -0.816497
0.600000 -0.400000 0.790000 -0.408248 0.816497 -0.408248
-0.600000 0.400000 0.790000 0.816497 -0.408248 -0.408248
0.600000 0.400000 0.790000 -0.577350 -0.577350 -0.577350
-0.465000 -0.300000 0.000000 0.981981 -0.188982 0.000000
-0.482500 -0.269689 0.000000 0.654654 0.755929 0.000000
-0.517500 -0.269689 0.000000 -0.327327 0.944911 0.000000
-0.535000 -0.300000 0.000000 -0.981981 0.188982 0.000000
-0.517500 -0.330311 0.000000 -0.654654 -0.755929 0.000000
-0.482500 -0.330311 0.000000 0.327327 -0.944911 0.000000
-0.465000 -0.300000 0.710000 0.981981 0.188982 0.000000
-0.482500 -0.269689 0.710000 0.327327 0.944911 0.000000
-0.517500 -0.269689 0.710000 -0.654654 0.755929 0.000000
-0.535000 -0.300000 0.710000 -0.981981 -0.188982 0.000000
-0.517500 -0.330311 0.710000 -0.327327 -0.944911 0.000000
-0.482500 -0.330311 0.710000 0.654654 -0.755929 0.000000
0.535000 -0.300000 0.000000 0.981981 -0.188982 0.000000
0.517500 -0.269689 0.000000 0.654654 0.755929 0.000000
0.482500 -0.269689 0.000000 -0.327327 0.944911 0.000000
0.465000 -0.300000 0.000000 -0.981981 0.188982 0.000000
0.482500 -0.330311 0.000000 -0.654654 -0.755929 0.000000
0.517500 -0.330311 0.000000 0.327327 -0.944911 0.000000
0.535000 -0.300000 0.710000 0.981981 0.188982 0.000000
0.517500 -0.269689 0.710000 0.327327 0.944911 0.000000
0.482500 -0.269689 0.710000 -0.654654 0.755929 0.000000
0.465000 -0.300000 0.710000 -0.981981 -0.188982 0.000000
0.482500 -0.330311 0.710000 -0.327327 -0.944911 0.000000
0.517500 -0.330311 0.710000 0.654654 -0.755929 0.000000
-0.465000 0.300000 0.000000 0.981981 -0.188982 0.000000
-0.482500 0.330311 0.000000 0.654654 0.755929 0.000000
-0.517500 0.330311 0.000000 -0.327327 0.944911 0.000000
-0.535000 0.300000 0.000000 -0.981981 0.188982 0.000000
-0.517500 0.269689 0.000000 -0.654654 -0.755929 0.000000
-0.482500 0.269689 0.000000 0.327327 -0.944911 0.000000
-0.465000 0.300000 0.710000 0.981981 0.188982 0.000000
-0.482500 0.330311 0.710000 0.327327 0.944911 0.000000
-0.517500 0.330311 0.710000 -0.654654 0.755929 0.000000
-0.535000 0.300000 0.710000 -0.981981 -0.188982 0.000000
-0.517500 0.269689 0.710000 -0.327327 -0.944911 0.000000
-0.482500 0.269689 0.710000 0.654654 -0.755929 0.000000
0.535000 0.300000 0.000000 0.981981 -0.188982 0.000000
0.517500 0.330311 0.000000 0.654654 0.755929 0.000000
0.482500 0.330311 0.000000 -0.327327 0.944911 0.000000
0.465000 0.300000 0.000000 -0.981981 0.188982 0.000000
0.482500 0.269689 0.000000 -0.654654 -0.755929 0.000000
0.517500 0.269689 0.000000 0.327327 -0.944911 0.000000
0.535000 0.300000 0.710000 0.981981 0.188982 0.000000
0.517500 0.330311 0.710000 0.327327 0.944911 0.000000
0.482500 0.330311 0.710000 -0.654654 0.755929 0.000000
0.465000 0.300000 0.710000 -0.981981 -0.188982 0.000000
0.482500 0.269689 0.710000 -0.327327 -0.944911 0.000000
0.517500 0.269689 0.710000 0.654654 -0.755929 0.000000
3 0 1 3
3 0 3 2
3 4 6 7
3 4 7 5
3 0 4 5
3 0 5 1
3 2 3 7
3 2 7 6
3 0 2 6
3 0 6 4
3 1 5 7
3 1 7 3
3 8 9 14
3 9 15 14
3 9 10 15
3 10 16 15
3 10 11 16
3 11 17 16
3 11 12 17
3 12 18 17
3 12 13 18
3 13 19 18
3 13 8 19
3 8 14 19
3 20 21 26
3 21 27 26
3 21 22 27
3 22 28 27
3 22 23 28
3 23 29 28
3 23 24 29
3 24 30 29
3 24 25 30
3 25 31 30
3 25 20 31
3 20 26 31
3 32 33 38
3 33 39 38
3 33 34 39
3 34 40 39
3 34 35 40
3 35 41 40
3 35 36 41
3 36 42 41
3 36 37 42
3 37 43 42
3 37 32 43
3 32 38 43
3 44 45 50
3 45 51 50
3 45 46 51
3 46 52 51
3 46 47 52
3 47 53 52
3 47 48 53
3 48 54 53
3 48 49 54
3 49 55 54
3 49 44 55
3 44 50 55
