ply
format ascii 1.0
element vertex 64
property float x
property float y
property float z
property float nx
property float ny
property float nz
element face 72
property list uchar int vertex_indices
end_header
-0.250000 -0.250000 0.420000 0.577350 0.577350 0.577350
0.250000 -0.250000 0.420000 -0.816497 0.408248 0.408248
-0.250000 0.250000 0.420000 0.408248 -0.816497 0.408248
0.250000 0.250000 0.420000 -0.408248 -0.408248 0.816497
-0.250000 -0.250000 0.480000 0.408248 0.408248 -0.816497
0.250000 -0.250000 0.480000 -0.408248 0.816497 -0.408248
-0.250000 0.250000 0.480000 0.816497 -0.408248 -0.408248
0.250000 0.250000 0.480000 -0.577350 -0.577350 -0.577350
-0.250000 -0.260000 0.450000 0.577350 0.577350 0.577350
0.250000 -0.260000 0.450000 -0.816497 0.408248 0.408248
-0.250000 -0.200000 0.450000 0.408248 -0.816497 0.408248
0.250000 -0.200000 0.450000 -0.408248 -0.408248 0.816497
-0.250000 -0.260000 1.050000 0.408248 0.408248 -0.816497
0.250000 -0.260000 1.050000 -0.408248 0.816497 -0.408248
-0.250000 -0.200000 1.050000 0.816497 -0.408248 -0.408248
0.250000 -0.200000 1.050000 -0.577350 -0.577350 -0.577350
-0.175000 -0.200000 0.000000 0.981981 -0.188982 0.000000
-0.187500 -0.178349 0.000000 0.654654 0.755929 0.000000
-0.212500 -0.178349 0.000000 -0.327327 0.944911 0.000000
-0.225000 -0.200000 0.000000 -0.981981 0.188982 0.000000
-0.212500 -0.221651 0.000000 -0.654654 -0.755929 0.000000
-0.187500 -0.221651 0.000000 0.327327 -0.944911 0.000000
-0.175000 -0.200000 0.420000 0.981981 0.188982 0.000000
-0.187500 -0.178349 0.420000 0.327327 0.944911 0.000000
-0.212500 -0.178349 0.420000 -0.654654 0.755929 0.000000
-0.225000 -0.200000 0.420000 -0.981981 -0.188982 0.000000
-0.212500 -0.221651 0.420000 -0.327327 -0.944911 0.000000
-0.187500 -0.221651 0.420000 0.654654 -0.755929 0.000000
0.225000 -0.200000 0.000000 0.981981 -0.188982 0.000000
0.212500 -0.178349 0.000000 0.654654 0.755929 0.000000
0.187500 -0.178349 0.000000 -0.327327 0.944911 0.000000
0.175000 -0.200000 0.000000 -0.981981 0.188982 0.000000
0.187500 -0.221651 0.000000 -0.654654 -0.755929 0.000000
0.212500 -0.221651 0.000000 0.327327 -0.944911 0.000000
0.225000 -0.200000 0.420000 0.981981 0.188982 0.000000
0.212500 -0.178349 0.420000 0.327327 0.944911 0.000000
0.187500 -0.178349 0.420000 -0.654654 0.755929 0.000000
0.175000 -0.200000 0.420000 -0.981981 -0.188982 0.000000
0.187500 -0.221651 0.420000 -0.327327 -0.944911 0.000000
0.212500 -0.221651 0.420000 0.654654 -0.755929 0.000000
-0.175000 0.200000 0.000000 0.981981 -0.188982 0.000000
-0.187500 0.221651 0.000000 0.654654 0.755929 0.000000
-0.212500 0.221651 0.000000 -0.327327 0.944911 0.000000
-0.225000 0.200000 0.000000 -0.981981 0.188982 0.000000
-0.212500 0.178349 0.000000 -0.654654 -0.755929 0.000000
-0.187500 0.178349 0.000000 0.327327 -0.944911 0.000000
-0.175000 0.200000 0.420000 0.981981 0.188982 0.000000
-0.187500 0.221651 0.420000 0.327327 0.944911 0.000000
-0.212500 0.221651 0.420000 -0.654654 0.755929 0.000000
-0.225000 0.200000 0.420000 -0.981981 -0.188982 0.000000
-0.212500 0.178349 0.420000 -0.327327 -0.944911 0.000000
-0.187500 0.178349 0.420000 0.654654 -0.755929 0.000000
0.225000 0.200000 0.000000 0.981981 -0.188982 0.000000
0.212500 0.221651 0.000000 0.654654 0.755929 0.000000
0.187500 0.221651 0.000000 -0.327327 0.944911 0.000000
0.175000 0.200000 0.000000 -0.981981 0.188982 0.000000
0.187500 0.178349 0.000000 -0.654654 -0.755929 0.000000
0.212500 0.178349 0.000000 0.327327 -0.944911 0.000000
0.225000 0.200000 0.420000 0.981981 0.188982 0.000000
0.212500 0.221651 0.420000 0.327327 0.944911 0.000000
0.187500 0.221651 0.420000 -0.654654 0.755929 0.000000
0.175000 0.200000 0.420000 -0.981981 -0.188982 0.000000
0.187500 0.178349 0.420000 -0.327327 -0.944911 0.000000
0.212500 0.178349 0.420000 0.654654 -0.755929 0.000000
3 0 1 3
3 0 3 2
3 4 6 7
3 4 7 5
3 0 4 5
3 0 5 1
3 2 3 7
3 2 7 6
3 0 2 6
3 0 6 4
3 1 5 7
3 1 7 3
3 8 9 11
3 8 11 10
3 12 14 15
3 12 15 13
3 8 12 13
3 8 13 9
3 10 11 15
3 10 15 14
3 8 10 14
3 8 14 12
3 9 13 15
3 9 15 11
3 16 17 22
3 17 23 22
3 17 18 23
3 18 24 23
3 18 19 24
3 19 25 24
3 19 20 25
3 20 26 25
3 20 21 26
3 21 27 26
3 21 16 27
3 16 22 27
3 28 29 34
3 29 35 34
3 29 30 35
3 30 36 35
3 30 31 36
3 31 37 36
3 31 32 37
3 32 38 37
3 32 33 38
3 33 39 38
3 33 28 39
3 28 34 39
3 40 41 46
3 41 47 46
3 41 42 47
3 42 48 47
3 42 43 48
3 43 49 48
3 43 44 49
3 44 50 49
3 44 45 50
3 45 51 50
3 45 40 51
3 40 46 51
3 52 53 58
3 53 59 58
3 53 54 59
3 54 60 59
3 54 55 60
3 55 61 60
3 55 56 61
3 56 62 61
3 56 57 62
3 57 63 62
3 57 52 63
3 52 58 63
