ply
format ascii 1.0
element vertex 60
property float x
property float y
property float z
property float nx
property float ny
property float nz
element face 104
property list uchar int vertex_indices
end_header
-0.900000 -0.400000 0.000000 0.577350 0.577350 0.577350
0.900000 -0.400000 0.000000 -0.816497 0.408248 0.408248
-0.900000 0.400000 0.000000 0.408248 -0.816497 0.408248
0.900000 0.400000 0.000000 -0.408248 -0.408248 0.816497
-0.900000 -0.400000 0.400000 0.408248 0.408248 -0.816497
0.900000 -0.400000 0.400000 -0.408248 0.816497 -0.408248
-0.900000 0.400000 0.400000 0.816497 -0.408248 -0.408248
0.900000 0.400000 0.400000 -0.577350 -0.577350 -0.577350
-0.550000 -0.350000 0.350000 0.577350 0.577350 0.577350
0.350000 -0.350000 0.350000 -0.816497 0.408248 0.408248
-0.550000 0.350000 0.350000 0.408248 -0.816497 0.408248
0.350000 0.350000 0.350000 -0.408248 -0.408248 0.816497
-0.550000 -0.350000 0.650000 0.408248 0.408248 -0.816497
0.350000 -0.350000 0.650000 -0.408248 0.816497 -0.408248
-0.550000 0.350000 0.650000 0.816497 -0.408248 -0.408248
0.350000 0.350000 0.650000 -0.577350 -0.577350 -0.577350
-0.400000 -0.400000 0.000000 0.000000 0.000000 0.000000
-0.428647 -0.311832 0.000000 0.000000 0.000000 0.000000
-0.503647 -0.257342 0.000000 0.000000 0.000000 0.000000
-0.596353 -0.257342 0.000000 0.000000 0.000000 0.000000
-0.671353 -0.311832 0.000000 0.000000 0.000000 0.000000
-0.700000 -0.400000 0.000000 0.000000 0.000000 0.000000
-0.671353 -0.488168 0.000000 0.000000 0.000000 0.000000
-0.596353 -0.542658 0.000000 0.000000 0.000000 0.000000
-0.503647 -0.542658 0.000000 0.000000 0.000000 0.000000
-0.428647 -0.488168 0.000000 0.000000 0.000000 0.000000
-0.550000 -0.400000 0.000000 0.000000 0.000000 0.000000
-0.400000 0.400000 0.000000 0.000000 0.000000 0.000000
-0.428647 0.488168 0.000000 0.000000 0.000000 0.000000
-0.503647 0.542658 0.000000 0.000000 0.000000 0.000000
-0.596353 0.542658 0.000000 0.000000 0.000000 0.000000
-0.671353 0.488168 0.000000 0.000000 0.000000 0.000000
-0.700000 0.400000 0.000000 0.000000 0.000000 0.000000
-0.671353 0.311832 0.000000 0.000000 0.000000 0.000000
-0.596353 0.257342 0.000000 0.000000 0.000000 0.000000
-0.503647 0.257342 0.000000 0.000000 0.000000 0.000000
-0.428647 0.311832 0.000000 0.000000 0.000000 0.000000
-0.550000 0.400000 0.000000 0.000000 0.000000 0.000000
0.700000 -0.400000 0.000000 0.000000 0.000000 0.000000
0.671353 -0.311832 0.000000 0.000000 0.000000 0.000000
0.596353 -0.257342 0.000000 0.000000 0.000000 0.000000
0.503647 -0.257342 0.000000 0.000000 0.000000 0.000000
0.428647 -0.311832 0.000000 0.000000 0.000000 0.000000
0.400000 -0.400000 0.000000 0.000000 0.000000 0.000000
0.428647 -0.488168 0.000000 0.000000 0.000000 0.000000
0.503647 -0.542658 0.000000 0.000000 0.000000 0.000000
0.596353 -0.542658 0.000000 0.000000 0.000000 0.000000
0.671353 -0.488168 0.000000 0.000000 0.000000 0.000000
0.550000 -0.400000 0.000000 0.000000 0.000000 0.000000
0.700000 0.400000 0.000000 0.000000 0.000000 0.000000
0.671353 0.488168 0.000000 0.000000 0.000000 0.000000
0.596353 0.542658 0.000000 0.000000 0.000000 0.000000
0.503647 0.542658 0.000000 0.000000 0.000000 0.000000
0.428647 0.488168 0.000000 0.000000 0.000000 0.000000
0.400000 0.400000 0.000000 0.000000 0.000000 0.000000
0.428647 0.311832 0.000000 0.000000 0.000000 0.000000
0.503647 0.257342 0.000000 0.000000 0.000000 0.000000
0.596353 0.257342 0.000000 0.000000 0.000000 0.000000
0.671353 0.311832 0.000000 0.000000 0.000000 0.000000
0.550000 0.400000 0.000000 0.000000 0.000000 0.000000
3 0 1 3
3 0 3 2
3 4 6 7
3 4 7 5
3 0 4 5
3 0 5 1
3 2 3 7
3 2 7 6
3 0 2 6
3 0 6 4
3 1 5 7
3 1 7 3
3 8 9 11
3 8 11 10
3 12 14 15
3 12 15 13
3 8 12 13
3 8 13 9
3 10 11 15
3 10 15 14
3 8 10 14
3 8 14 12
3 9 13 15
3 9 15 11
3 26 17 16
3 26 16 17
3 26 18 17
3 26 17 18
3 26 19 18
3 26 18 19
3 26 20 19
3 26 19 20
3 26 21 20
3 26 20 21
3 26 22 21
3 26 21 22
3 26 23 22
3 26 22 23
3 26 24 23
3 26 23 24
3 26 25 24
3 26 24 25
3 26 16 25
3 26 25 16
3 37 28 27
3 37 27 28
3 37 29 28
3 37 28 29
3 37 30 29
3 37 29 30
3 37 31 30
3 37 30 31
3 37 32 31
3 37 31 32
3 37 33 32
3 37 32 33
3 37 34 33
3 37 33 34
3 37 35 34
3 37 34 35
3 37 36 35
3 37 35 36
3 37 27 36
3 37 36 27
3 48 39 38
3 48 38 39
3 48 40 39
3 48 39 40
3 48 41 40
3 48 40 41
3 48 42 41
3 48 41 42
3 48 43 42
3 48 42 43
3 48 44 43
3 48 43 44
3 48 45 44
3 48 44 45
3 48 46 45
3 48 45 46
3 48 47 46
3 48 46 47
3 48 38 47
3 48 47 38
3 59 50 49
3 59 49 50
3 59 51 50
3 59 50 51
3 59 52 51
3 59 51 52
3 59 53 52
3 59 52 53
3 59 54 53
3 59 53 54
3 59 55 54
3 59 54 55
3 59 56 55
3 59 55 56
3 59 57 56
3 59 56 57
3 59 58 57
3 59 57 58
3 59 49 58
3 59 58 49
