ply
format ascii 1.0
element vertex 97
property float x
property float y
property float z
property float nx
property float ny
property float nz
element face 174
property list uchar int vertex_indices
end_header
0.000000 0.000000 1.650000 0.000000 -0.000000 -1.000000
0.057403 0.000000 1.589104 -0.891602 0.052713 -0.449742
0.049712 0.028701 1.589104 -0.798506 -0.400150 -0.449742
0.028701 0.049712 1.589104 -0.491451 -0.745794 -0.449742
0.000000 0.057403 1.589104 -0.052713 -0.891602 -0.449742
-0.028701 0.049712 1.589104 0.400150 -0.798506 -0.449742
-0.049712 0.028701 1.589104 0.745794 -0.491451 -0.449742
-0.057403 0.000000 1.589104 0.891602 -0.052713 -0.449742
-0.049712 -0.028701 1.589104 0.798506 0.400150 -0.449742
-0.028701 -0.049712 1.589104 0.491451 0.745794 -0.449742
-0.000000 -0.057403 1.589104 0.052713 0.891602 -0.449742
0.028701 -0.049712 1.589104 -0.400150 0.798506 -0.449742
0.049712 -0.028701 1.589104 -0.745794 0.491451 -0.449742
0.106066 0.000000 1.415685 -0.980229 0.001233 -0.197863
0.091856 0.053033 1.415685 -0.849520 -0.489046 -0.197863
0.053033 0.091856 1.415685 -0.491183 -0.848286 -0.197863
0.000000 0.106066 1.415685 -0.001233 -0.980229 -0.197863
-0.053033 0.091856 1.415685 0.489046 -0.849520 -0.197863
-0.091856 0.053033 1.415685 0.848286 -0.491183 -0.197863
-0.106066 0.000000 1.415685 0.980229 -0.001233 -0.197863
-0.091856 -0.053033 1.415685 0.849520 0.489046 -0.197863
-0.053033 -0.091856 1.415685 0.491183 0.848286 -0.197863
-0.000000 -0.106066 1.415685 0.001233 0.980229 -0.197863
0.053033 -0.091856 1.415685 -0.489046 0.849520 -0.197863
0.091856 -0.053033 1.415685 -0.848286 0.491183 -0.197863
0.138582 0.000000 1.156147 -0.996724 0.000295 -0.080878
0.120015 0.069291 1.156147 -0.863336 -0.498107 -0.080878
0.069291 0.120015 1.156147 -0.498617 -0.863041 -0.080878
0.000000 0.138582 1.156147 -0.000295 -0.996724 -0.080878
-0.069291 0.120015 1.156147 0.498107 -0.863336 -0.080878
-0.120015 0.069291 1.156147 0.863041 -0.498617 -0.080878
-0.138582 0.000000 1.156147 0.996724 -0.000295 -0.080878
-0.120015 -0.069291 1.156147 0.863336 0.498107 -0.080878
-0.069291 -0.120015 1.156147 0.498617 0.863041 -0.080878
-0.000000 -0.138582 1.156147 0.000295 0.996724 -0.080878
0.069291 -0.120015 1.156147 -0.498107 0.863336 -0.080878
0.120015 -0.069291 1.156147 -0.863041 0.498617 -0.080878
0.150000 0.000000 0.850000 -1.000000 0.000000 0.000000
0.129904 0.075000 0.850000 -0.866025 -0.500000 0.000000
0.075000 0.129904 0.850000 -0.500000 -0.866025 0.000000
0.000000 0.150000 0.850000 -0.000000 -1.000000 0.000000
-0.075000 0.129904 0.850000 0.500000 -0.866025 0.000000
-0.129904 0.075000 0.850000 0.866025 -0.500000 0.000000
-0.150000 0.000000 0.850000 1.000000 -0.000000 0.000000
-0.129904 -0.075000 0.850000 0.866025 0.500000 0.000000
-0.075000 -0.129904 0.850000 0.500000 0.866025 0.000000
-0.000000 -0.150000 0.850000 0.000000 1.000000 0.000000
0.075000 -0.129904 0.850000 -0.500000 0.866025 0.000000
0.129904 -0.075000 0.850000 -0.866025 0.500000 0.000000
0.138582 0.000000 0.543853 -0.996724 -0.000295 0.080878
0.120015 0.069291 0.543853 -0.863041 -0.498617 0.080878
0.069291 0.120015 0.543853 -0.498107 -0.863336 0.080878
0.000000 0.138582 0.543853 0.000295 -0.996724 0.080878
-0.069291 0.120015 0.543853 0.498617 -0.863041 0.080878
-0.120015 0.069291 0.543853 0.863336 -0.498107 0.080878
-0.138582 0.000000 0.543853 0.996724 0.000295 0.080878
-0.120015 -0.069291 0.543853 0.863041 0.498617 0.080878
-0.069291 -0.120015 0.543853 0.498107 0.863336 0.080878
-0.000000 -0.138582 0.543853 -0.000295 0.996724 0.080878
0.069291 -0.120015 0.543853 -0.498617 0.863041 0.080878
0.120015 -0.069291 0.543853 -0.863336 0.498107 0.080878
0.106066 0.000000 0.284315 -0.980229 -0.001233 0.197863
0.091856 0.053033 0.284315 -0.848286 -0.491183 0.197863
0.053033 0.091856 0.284315 -0.489046 -0.849520 0.197863
0.000000 0.106066 0.284315 0.001233 -0.980229 0.197863
-0.053033 0.091856 0.284315 0.491183 -0.848286 0.197863
-0.091856 0.053033 0.284315 0.849520 -0.489046 0.197863
-0.106066 0.000000 0.284315 0.980229 0.001233 0.197863
-0.091856 -0.053033 0.284315 0.848286 0.491183 0.197863
-0.053033 -0.091856 0.284315 0.489046 0.849520 0.197863
-0.000000 -0.106066 0.284315 -0.001233 0.980229 0.197863
0.053033 -0.091856 0.284315 -0.491183 0.848286 0.197863
0.091856 -0.053033 0.284315 -0.849520 0.489046 0.197863
0.057403 0.000000 0.110896 -0.891602 -0.052713 0.449742
0.049712 0.028701 0.110896 -0.745794 -0.491451 0.449742
0.028701 0.049712 0.110896 -0.400150 -0.798506 0.449742
0.000000 0.057403 0.110896 0.052713 -0.891602 0.449742
-0.028701 0.049712 0.110896 0.491451 -0.745794 0.449742
-0.049712 0.028701 0.110896 0.798506 -0.400150 0.449742
-0.057403 0.000000 0.110896 0.891602 0.052713 0.449742
-0.049712 -0.028701 0.110896 0.745794 0.491451 0.449742
-0.028701 -0.049712 0.110896 0.400150 0.798506 0.449742
-0.000000 -0.057403 0.110896 -0.052713 0.891602 0.449742
0.028701 -0.049712 0.110896 -0.491451 0.745794 0.449742
0.049712 -0.028701 0.110896 -0.798506 0.400150 0.449742
0.000000 0.000000 0.050000 -0.000000 -0.000000 1.000000
0.000000 0.000000 0.850000 0.000000 0.000000 0.000000
-1.200000 0.000000 0.800000 0.000000 -1.000000 0.000000
-1.000000 0.000000 0.700000 0.000000 -1.000000 0.000000
0.000000 0.000000 0.700000 0.000000 0.000000 0.000000
1.200000 0.000000 0.800000 0.000000 1.000000 0.000000
1.000000 0.000000 0.700000 0.000000 1.000000 0.000000
0.000000 0.000000 0.150000 -0.707107 -0.707107 0.000000
0.000000 0.400000 0.000000 -1.000000 0.000000 0.000000
0.000000 0.000000 0.000000 -1.000000 0.000000 0.000000
-0.300000 0.000000 0.050000 0.000000 -1.000000 0.000000
0.300000 0.000000 0.050000 0.000000 -1.000000 0.000000
3 0 2 1
3 0 3 2
3 0 4 3
3 0 5 4
3 0 6 5
3 0 7 6
3 0 8 7
3 0 9 8
3 0 10 9
3 0 11 10
3 0 12 11
3 0 1 12
3 1 2 13
3 2 14 13
3 2 3 14
3 3 15 14
3 3 4 15
3 4 16 15
3 4 5 16
3 5 17 16
3 5 6 17
3 6 18 17
3 6 7 18
3 7 19 18
3 7 8 19
3 8 20 19
3 8 9 20
3 9 21 20
3 9 10 21
3 10 22 21
3 10 11 22
3 11 23 22
3 11 12 23
3 12 24 23
3 12 1 24
3 1 13 24
3 13 14 25
3 14 26 25
3 14 15 26
3 15 27 26
3 15 16 27
3 16 28 27
3 16 17 28
3 17 29 28
3 17 18 29
3 18 30 29
3 18 19 30
3 19 31 30
3 19 20 31
3 20 32 31
3 20 21 32
3 21 33 32
3 21 22 33
3 22 34 33
3 22 23 34
3 23 35 34
3 23 24 35
3 24 36 35
3 24 13 36
3 13 25 36
3 25 26 37
3 26 38 37
3 26 27 38
3 27 39 38
3 27 28 39
3 28 40 39
3 28 29 40
3 29 41 40
3 29 30 41
3 30 42 41
3 30 31 42
3 31 43 42
3 31 32 43
3 32 44 43
3 32 33 44
3 33 45 44
3 33 34 45
3 34 46 45
3 34 35 46
3 35 47 46
3 35 36 47
3 36 48 47
3 36 25 48
3 25 37 48
3 37 38 49
3 38 50 49
3 38 39 50
3 39 51 50
3 39 40 51
3 40 52 51
3 40 41 52
3 41 53 52
3 41 42 53
3 42 54 53
3 42 43 54
3 43 55 54
3 43 44 55
3 44 56 55
3 44 45 56
3 45 57 56
3 45 46 57
3 46 58 57
3 46 47 58
3 47 59 58
3 47 48 59
3 48 60 59
3 48 37 60
3 37 49 60
3 49 50 61
3 50 62 61
3 50 51 62
3 51 63 62
3 51 52 63
3 52 64 63
3 52 53 64
3 53 65 64
3 53 54 65
3 54 66 65
3 54 55 66
3 55 67 66
3 55 56 67
3 56 68 67
3 56 57 68
3 57 69 68
3 57 58 69
3 58 70 69
3 58 59 70
3 59 71 70
3 59 60 71
3 60 72 71
3 60 49 72
3 49 61 72
3 61 62 73
3 62 74 73
3 62 63 74
3 63 75 74
3 63 64 75
3 64 76 75
3 64 65 76
3 65 77 76
3 65 66 77
3 66 78 77
3 66 67 78
3 67 79 78
3 67 68 79
3 68 80 79
3 68 69 80
3 69 81 80
3 69 70 81
3 70 82 81
3 70 71 82
3 71 83 82
3 71 72 83
3 72 84 83
3 72 61 84
3 61 73 84
3 73 74 85
3 74 75 85
3 75 76 85
3 76 77 85
3 77 78 85
3 78 79 85
3 79 80 85
3 80 81 85
3 81 82 85
3 82 83 85
3 83 84 85
3 84 73 85
3 86 87 88
3 86 88 89
3 86 90 91
3 86 91 89
3 92 93 94
3 92 95 96
