ply
format ascii 1.0
element vertex 192
property float x
property float y
property float z
property float nx
property float ny
property float nz
element face 296
property list uchar int vertex_indices
end_header
0.000000 0.000000 1.290000 0.000000 0.000000 -1.000000
0.045922 0.000000 1.279343 -0.467924 0.040566 -0.882837
0.037152 0.026992 1.279343 -0.402403 -0.242220 -0.882837
0.014191 0.043674 1.279343 -0.183177 -0.432486 -0.882837
-0.014191 0.043674 1.279343 0.106016 -0.457558 -0.882837
-0.037152 0.026992 1.279343 0.354714 -0.307858 -0.882837
-0.045922 0.000000 1.279343 0.467924 -0.040566 -0.882837
-0.037152 -0.026992 1.279343 0.402403 0.242220 -0.882837
-0.014191 -0.043674 1.279343 0.183177 0.432486 -0.882837
0.014191 -0.043674 1.279343 -0.106016 0.457558 -0.882837
0.037152 -0.026992 1.279343 -0.354714 0.307858 -0.882837
0.084853 0.000000 1.248995 -0.754223 0.013195 -0.656486
0.068647 0.049875 1.248995 -0.617935 -0.432646 -0.656486
0.026221 0.080700 1.248995 -0.245617 -0.713231 -0.656486
-0.026221 0.080700 1.248995 0.220518 -0.721386 -0.656486
-0.068647 0.049875 1.248995 0.602423 -0.453996 -0.656486
-0.084853 0.000000 1.248995 0.754223 -0.013195 -0.656486
-0.068647 -0.049875 1.248995 0.617935 0.432646 -0.656486
-0.026221 -0.080700 1.248995 0.245617 0.713231 -0.656486
0.026221 -0.080700 1.248995 -0.220518 0.721386 -0.656486
0.068647 -0.049875 1.248995 -0.602423 0.453996 -0.656486
0.110866 0.000000 1.203576 -0.940911 0.005951 -0.338601
0.089692 0.065165 1.203576 -0.764711 -0.548239 -0.338601
0.034259 0.105439 1.203576 -0.296417 -0.893021 -0.338601
-0.034259 0.105439 1.203576 0.285098 -0.896699 -0.338601
-0.089692 0.065165 1.203576 0.757715 -0.557868 -0.338601
-0.110866 0.000000 1.203576 0.940911 -0.005951 -0.338601
-0.089692 -0.065165 1.203576 0.764711 0.548239 -0.338601
-0.034259 -0.105439 1.203576 0.296417 0.893021 -0.338601
0.034259 -0.105439 1.203576 -0.285098 0.896699 -0.338601
0.089692 -0.065165 1.203576 -0.757715 0.557868 -0.338601
0.120000 0.000000 1.150000 -1.000000 0.000000 -0.000000
0.097082 0.070534 1.150000 -0.809017 -0.587785 -0.000000
0.037082 0.114127 1.150000 -0.309017 -0.951057 -0.000000
-0.037082 0.114127 1.150000 0.309017 -0.951057 0.000000
-0.097082 0.070534 1.150000 0.809017 -0.587785 0.000000
-0.120000 0.000000 1.150000 1.000000 -0.000000 0.000000
-0.097082 -0.070534 1.150000 0.809017 0.587785 0.000000
-0.037082 -0.114127 1.150000 0.309017 0.951057 -0.000000
0.037082 -0.114127 1.150000 -0.309017 0.951057 0.000000
0.097082 -0.070534 1.150000 -0.809017 0.587785 0.000000
0.110866 0.000000 1.096424 -0.940911 -0.005951 0.338601
0.089692 0.065165 1.096424 -0.757715 -0.557868 0.338601
0.034259 0.105439 1.096424 -0.285098 -0.896699 0.338601
-0.034259 0.105439 1.096424 0.296417 -0.893021 0.338601
-0.089692 0.065165 1.096424 0.764711 -0.548239 0.338601
-0.110866 0.000000 1.096424 0.940911 0.005951 0.338601
-0.089692 -0.065165 1.096424 0.757715 0.557868 0.338601
-0.034259 -0.105439 1.096424 0.285098 0.896699 0.338601
0.034259 -0.105439 1.096424 -0.296417 0.893021 0.338601
0.089692 -0.065165 1.096424 -0.764711 0.548239 0.338601
0.084853 0.000000 1.051005 -0.754223 -0.013195 0.656486
0.068647 0.049875 1.051005 -0.602423 -0.453996 0.656486
0.026221 0.080700 1.051005 -0.220518 -0.721386 0.656486
-0.026221 0.080700 1.051005 0.245617 -0.713231 0.656486
-0.068647 0.049875 1.051005 0.617935 -0.432646 0.656486
-0.084853 0.000000 1.051005 0.754223 0.013195 0.656486
-0.068647 -0.049875 1.051005 0.602423 0.453996 0.656486
-0.026221 -0.080700 1.051005 0.220518 0.721386 0.656486
0.026221 -0.080700 1.051005 -0.245617 0.713231 0.656486
0.068647 -0.049875 1.051005 -0.617935 0.432646 0.656486
0.045922 0.000000 1.020657 -0.467924 -0.040566 0.882837
0.037152 0.026992 1.020657 -0.354714 -0.307858 0.882837
0.014191 0.043674 1.020657 -0.106016 -0.457558 0.882837
-0.014191 0.043674 1.020657 0.183177 -0.432486 0.882837
-0.037152 0.026992 1.020657 0.402403 -0.242220 0.882837
-0.045922 0.000000 1.020657 0.467924 0.040566 0.882837
-0.037152 -0.026992 1.020657 0.354714 0.307858 0.882837
-0.014191 -0.043674 1.020657 0.106016 0.457558 0.882837
0.014191 -0.043674 1.020657 -0.183177 0.432486 0.882837
0.037152 -0.026992 1.020657 -0.402403 0.242220 0.882837
0.000000 0.000000 1.010000 -0.000000 0.000000 1.000000
-0.200000 -0.120000 0.650000 0.577350 0.577350 0.577350
0.200000 -0.120000 0.650000 -0.816497 0.408248 0.408248
-0.200000 0.120000 0.650000 0.408248 -0.816497 0.408248
0.200000 0.120000 0.650000 -0.408248 -0.408248 0.816497
-0.200000 -0.120000 1.050000 0.408248 0.408248 -0.816497
0.200000 -0.120000 1.050000 -0.408248 0.816497 -0.408248
-0.200000 0.120000 1.050000 0.816497 -0.408248 -0.408248
0.200000 0.120000 1.050000 -0.577350 -0.577350 -0.577350
-0.250000 -0.040000 1.000000 0.181556 -0.983075 -0.024507
-0.215606 -0.020000 0.995873 0.941341 -0.316737 -0.116427
-0.215606 0.020000 0.995873 0.754281 0.648922 -0.099798
-0.250000 0.040000 1.000000 -0.181760 0.983162 0.018836
-0.284394 0.020000 1.004127 -0.941991 0.317138 0.109889
-0.284394 -0.020000 1.004127 -0.755919 -0.649470 0.082309
-0.245700 -0.020580 0.750000 0.750652 -0.656747 -0.072151
-0.245740 0.018227 0.759696 0.948534 0.313350 0.045768
-0.280040 0.038807 0.759696 0.194720 0.973749 0.117887
-0.314300 0.020580 0.750000 -0.750523 0.657037 0.070832
-0.314260 -0.018227 0.740304 -0.948256 -0.313046 -0.053034
-0.279960 -0.038807 0.740304 -0.194807 -0.972886 -0.124673
-0.215700 0.029420 0.550000 0.935386 -0.349651 0.052895
-0.215740 0.068227 0.559696 0.747402 0.609461 0.264476
-0.250040 0.088807 0.559696 -0.187984 0.959112 0.211580
-0.284300 0.070580 0.550000 -0.935386 0.349651 -0.052895
-0.284260 0.031773 0.540304 -0.747402 -0.609461 -0.264476
-0.249960 0.011193 0.540304 0.187984 -0.959112 -0.211580
-0.035000 0.000000 0.650000 0.981945 -0.018758 -0.188234
-0.067500 0.005601 0.706012 0.654514 0.075419 0.752279
-0.132500 0.005601 0.706012 -0.327327 0.094337 0.940190
-0.165000 0.000000 0.650000 -0.981945 0.018886 0.188221
-0.132500 -0.005601 0.593988 -0.654510 -0.075036 -0.752321
-0.067500 -0.005601 0.593988 0.327327 -0.093699 -0.940254
-0.035000 0.200000 0.630000 0.999989 -0.004668 0.000583
-0.067500 0.208350 0.685669 0.500036 0.105157 0.859596
-0.132500 0.208350 0.685669 -0.500035 0.109793 0.859017
-0.165000 0.200000 0.630000 -0.999989 0.004733 -0.000592
-0.132500 0.191650 0.574331 -0.500037 -0.104833 -0.859636
-0.067500 0.191650 0.574331 0.500038 -0.109599 -0.859040
-0.035000 0.400000 0.600000 0.981981 0.028034 0.186891
-0.067500 0.408350 0.655669 0.327327 0.140169 0.934457
-0.132500 0.408350 0.655669 -0.654654 0.112135 0.747566
-0.165000 0.400000 0.600000 -0.981981 -0.028034 -0.186891
-0.132500 0.391650 0.544331 -0.327327 -0.140169 -0.934457
-0.067500 0.391650 0.544331 0.654654 -0.112135 -0.747566
-0.045000 0.400000 0.000000 0.981981 -0.188982 0.000000
-0.072500 0.447631 0.000000 0.654654 0.755929 0.000000
-0.127500 0.447631 0.000000 -0.327327 0.944911 0.000000
-0.155000 0.400000 0.000000 -0.981981 0.188982 0.000000
-0.127500 0.352369 0.000000 -0.654654 -0.755929 0.000000
-0.072500 0.352369 0.000000 0.327327 -0.944911 0.000000
-0.045000 0.400000 0.600000 0.981981 0.188982 0.000000
-0.072500 0.447631 0.600000 0.327327 0.944911 0.000000
-0.127500 0.447631 0.600000 -0.654654 0.755929 0.000000
-0.155000 0.400000 0.600000 -0.981981 -0.188982 0.000000
-0.127500 0.352369 0.600000 -0.327327 -0.944911 0.000000
-0.072500 0.352369 0.600000 0.654654 -0.755929 0.000000
-0.150000 0.350000 0.000000 0.577350 0.577350 0.577350
-0.050000 0.350000 0.000000 -0.816497 0.408248 0.408248
-0.150000 0.530000 0.000000 0.408248 -0.816497 0.408248
-0.050000 0.530000 0.000000 -0.408248 -0.408248 0.816497
-0.150000 0.350000 0.060000 0.408248 0.408248 -0.816497
-0.050000 0.350000 0.060000 -0.408248 0.816497 -0.408248
-0.150000 0.530000 0.060000 0.816497 -0.408248 -0.408248
-0.050000 0.530000 0.060000 -0.577350 -0.577350 -0.577350
0.250000 -0.040000 1.000000 0.491245 -0.870880 -0.015691
0.284394 -0.020000 1.004127 0.998768 -0.007703 0.049017
0.284394 0.020000 1.004127 0.502614 0.864383 -0.014904
0.250000 0.040000 1.000000 -0.487176 0.862765 -0.135265
0.215606 0.020000 0.995873 -0.983013 -0.016815 -0.182762
0.215606 -0.020000 0.995873 -0.480359 -0.868117 -0.125008
0.314300 0.020580 0.750000 0.981227 0.187144 0.046596
0.280040 0.038807 0.759696 0.326041 0.928500 0.177721
0.245740 0.018227 0.759696 -0.659904 0.734921 0.156263
0.245700 -0.020580 0.750000 -0.976875 -0.213516 0.011221
0.279960 -0.038807 0.740304 -0.311338 -0.943255 -0.115489
0.314260 -0.018227 0.740304 0.658169 -0.745804 -0.102907
0.284300 0.070580 0.550000 0.748697 0.660799 0.052895
0.250040 0.088807 0.559696 -0.186041 0.946278 0.264476
0.215740 0.068227 0.559696 -0.934738 0.285479 0.211580
0.215700 0.029420 0.550000 -0.748697 -0.660799 -0.052895
0.249960 0.011193 0.540304 0.186041 -0.946278 -0.264476
0.284260 0.031773 0.540304 0.934738 -0.285479 -0.211580
0.165000 0.000000 0.650000 0.981945 -0.018758 -0.188234
0.132500 0.005601 0.706012 0.654514 0.075419 0.752279
0.067500 0.005601 0.706012 -0.327327 0.094337 0.940190
0.035000 0.000000 0.650000 -0.981945 0.018886 0.188221
0.067500 -0.005601 0.593988 -0.654510 -0.075036 -0.752321
0.132500 -0.005601 0.593988 0.327327 -0.093699 -0.940254
0.165000 0.200000 0.630000 0.999989 -0.004668 0.000583
0.132500 0.208350 0.685669 0.500036 0.105157 0.859596
0.067500 0.208350 0.685669 -0.500035 0.109793 0.859017
0.035000 0.200000 0.630000 -0.999989 0.004733 -0.000592
0.067500 0.191650 0.574331 -0.500037 -0.104833 -0.859636
0.132500 0.191650 0.574331 0.500038 -0.109599 -0.859040
0.165000 0.400000 0.600000 0.981981 0.028034 0.186891
0.132500 0.408350 0.655669 0.327327 0.140169 0.934457
0.067500 0.408350 0.655669 -0.654654 0.112135 0.747566
0.035000 0.400000 0.600000 -0.981981 -0.028034 -0.186891
0.067500 0.391650 0.544331 -0.327327 -0.140169 -0.934457
0.132500 0.391650 0.544331 0.654654 -0.112135 -0.747566
0.155000 0.400000 0.000000 0.981981 -0.188982 0.000000
0.127500 0.447631 0.000000 0.654654 0.755929 0.000000
0.072500 0.447631 0.000000 -0.327327 0.944911 0.000000
0.045000 0.400000 0.000000 -0.981981 0.188982 0.000000
0.072500 0.352369 0.000000 -0.654654 -0.755929 0.000000
0.127500 0.352369 0.000000 0.327327 -0.944911 0.000000
0.155000 0.400000 0.600000 0.981981 0.188982 0.000000
0.127500 0.447631 0.600000 0.327327 0.944911 0.000000
0.072500 0.447631 0.600000 -0.654654 0.755929 0.000000
0.045000 0.400000 0.600000 -0.981981 -0.188982 0.000000
0.072500 0.352369 0.600000 -0.327327 -0.944911 0.000000
0.127500 0.352369 0.600000 0.654654 -0.755929 0.000000
0.050000 0.350000 0.000000 0.577350 0.577350 0.577350
0.150000 0.350000 0.000000 -0.816497 0.408248 0.408248
0.050000 0.530000 0.000000 0.408248 -0.816497 0.408248
0.150000 0.530000 0.000000 -0.408248 -0.408248 0.816497
0.050000 0.350000 0.060000 0.408248 0.408248 -0.816497
0.150000 0.350000 0.060000 -0.408248 0.816497 -0.408248
0.050000 0.530000 0.060000 0.816497 -0.408248 -0.408248
0.150000 0.530000 0.060000 -0.577350 -0.577350 -0.577350
3 0 2 1
3 0 3 2
3 0 4 3
3 0 5 4
3 0 6 5
3 0 7 6
3 0 8 7
3 0 9 8
3 0 10 9
3 0 1 10
3 1 2 11
3 2 12 11
3 2 3 12
3 3 13 12
3 3 4 13
3 4 14 13
3 4 5 14
3 5 15 14
3 5 6 15
3 6 16 15
3 6 7 16
3 7 17 16
3 7 8 17
3 8 18 17
3 8 9 18
3 9 19 18
3 9 10 19
3 10 20 19
3 10 1 20
3 1 11 20
3 11 12 21
3 12 22 21
3 12 13 22
3 13 23 22
3 13 14 23
3 14 24 23
3 14 15 24
3 15 25 24
3 15 16 25
3 16 26 25
3 16 17 26
3 17 27 26
3 17 18 27
3 18 28 27
3 18 19 28
3 19 29 28
3 19 20 29
3 20 30 29
3 20 11 30
3 11 21 30
3 21 22 31
3 22 32 31
3 22 23 32
3 23 33 32
3 23 24 33
3 24 34 33
3 24 25 34
3 25 35 34
3 25 26 35
3 26 36 35
3 26 27 36
3 27 37 36
3 27 28 37
3 28 38 37
3 28 29 38
3 29 39 38
3 29 30 39
3 30 40 39
3 30 21 40
3 21 31 40
3 31 32 41
3 32 42 41
3 32 33 42
3 33 43 42
3 33 34 43
3 34 44 43
3 34 35 44
3 35 45 44
3 35 36 45
3 36 46 45
3 36 37 46
3 37 47 46
3 37 38 47
3 38 48 47
3 38 39 48
3 39 49 48
3 39 40 49
3 40 50 49
3 40 31 50
3 31 41 50
3 41 42 51
3 42 52 51
3 42 43 52
3 43 53 52
3 43 44 53
3 44 54 53
3 44 45 54
3 45 55 54
3 45 46 55
3 46 56 55
3 46 47 56
3 47 57 56
3 47 48 57
3 48 58 57
3 48 49 58
3 49 59 58
3 49 50 59
3 50 60 59
3 50 41 60
3 41 51 60
3 51 52 61
3 52 62 61
3 52 53 62
3 53 63 62
3 53 54 63
3 54 64 63
3 54 55 64
3 55 65 64
3 55 56 65
3 56 66 65
3 56 57 66
3 57 67 66
3 57 58 67
3 58 68 67
3 58 59 68
3 59 69 68
3 59 60 69
3 60 70 69
3 60 51 70
3 51 61 70
3 61 62 71
3 62 63 71
3 63 64 71
3 64 65 71
3 65 66 71
3 66 67 71
3 67 68 71
3 68 69 71
3 69 70 71
3 70 61 71
3 72 73 75
3 72 75 74
3 76 78 79
3 76 79 77
3 72 76 77
3 72 77 73
3 74 75 79
3 74 79 78
3 72 74 78
3 72 78 76
3 73 77 79
3 73 79 75
3 80 86 81
3 81 86 87
3 81 87 82
3 82 87 88
3 82 88 83
3 83 88 89
3 83 89 84
3 84 89 90
3 84 90 85
3 85 90 91
3 85 91 80
3 80 91 86
3 86 92 87
3 87 92 93
3 87 93 88
3 88 93 94
3 88 94 89
3 89 94 95
3 89 95 90
3 90 95 96
3 90 96 91
3 91 96 97
3 91 97 86
3 86 97 92
3 98 104 99
3 99 104 105
3 99 105 100
3 100 105 106
3 100 106 101
3 101 106 107
3 101 107 102
3 102 107 108
3 102 108 103
3 103 108 109
3 103 109 98
3 98 109 104
3 104 110 105
3 105 110 111
3 105 111 106
3 106 111 112
3 106 112 107
3 107 112 113
3 107 113 108
3 108 113 114
3 108 114 109
3 109 114 115
3 109 115 104
3 104 115 110
3 116 117 122
3 117 123 122
3 117 118 123
3 118 124 123
3 118 119 124
3 119 125 124
3 119 120 125
3 120 126 125
3 120 121 126
3 121 127 126
3 121 116 127
3 116 122 127
3 128 129 131
3 128 131 130
3 132 134 135
3 132 135 133
3 128 132 133
3 128 133 129
3 130 131 135
3 130 135 134
3 128 130 134
3 128 134 132
3 129 133 135
3 129 135 131
3 136 142 137
3 137 142 143
3 137 143 138
3 138 143 144
3 138 144 139
3 139 144 145
3 139 145 140
3 140 145 146
3 140 146 141
3 141 146 147
3 141 147 136
3 136 147 142
3 142 148 143
3 143 148 149
3 143 149 144
3 144 149 150
3 144 150 145
3 145 150 151
3 145 151 146
3 146 151 152
3 146 152 147
3 147 152 153
3 147 153 142
3 142 153 148
3 154 160 155
3 155 160 161
3 155 161 156
3 156 161 162
3 156 162 157
3 157 162 163
3 157 163 158
3 158 163 164
3 158 164 159
3 159 164 165
3 159 165 154
3 154 165 160
3 160 166 161
3 161 166 167
3 161 167 162
3 162 167 168
3 162 168 163
3 163 168 169
3 163 169 164
3 164 169 170
3 164 170 165
3 165 170 171
3 165 171 160
3 160 171 166
3 172 173 178
3 173 179 178
3 173 174 179
3 174 180 179
3 174 175 180
3 175 181 180
3 175 176 181
3 176 182 181
3 176 177 182
3 177 183 182
3 177 172 183
3 172 178 183
3 184 185 187
3 184 187 186
3 188 190 191
3 188 191 189
3 184 188 189
3 184 189 185
3 186 187 191
3 186 191 190
3 184 186 190
3 184 190 188
3 185 189 191
3 185 191 187
