ply
format ascii 1.0
element vertex 180
property float x
property float y
property float z
property float nx
property float ny
property float nz
element face 284
property list uchar int vertex_indices
end_header
0.000000 0.000000 1.640000 0.000000 0.000000 -1.000000
0.045922 0.000000 1.629343 -0.467924 0.040566 -0.882837
0.037152 0.026992 1.629343 -0.402403 -0.242220 -0.882837
0.014191 0.043674 1.629343 -0.183177 -0.432486 -0.882837
-0.014191 0.043674 1.629343 0.106016 -0.457558 -0.882837
-0.037152 0.026992 1.629343 0.354714 -0.307858 -0.882837
-0.045922 0.000000 1.629343 0.467924 -0.040566 -0.882837
-0.037152 -0.026992 1.629343 0.402403 0.242220 -0.882837
-0.014191 -0.043674 1.629343 0.183177 0.432486 -0.882837
0.014191 -0.043674 1.629343 -0.106016 0.457558 -0.882837
0.037152 -0.026992 1.629343 -0.354714 0.307858 -0.882837
0.084853 0.000000 1.598995 -0.754223 0.013195 -0.656486
0.068647 0.049875 1.598995 -0.617935 -0.432646 -0.656486
0.026221 0.080700 1.598995 -0.245617 -0.713231 -0.656486
-0.026221 0.080700 1.598995 0.220518 -0.721386 -0.656486
-0.068647 0.049875 1.598995 0.602423 -0.453996 -0.656486
-0.084853 0.000000 1.598995 0.754223 -0.013195 -0.656486
-0.068647 -0.049875 1.598995 0.617935 0.432646 -0.656486
-0.026221 -0.080700 1.598995 0.245617 0.713231 -0.656486
0.026221 -0.080700 1.598995 -0.220518 0.721386 -0.656486
0.068647 -0.049875 1.598995 -0.602423 0.453996 -0.656486
0.110866 0.000000 1.553576 -0.940911 0.005951 -0.338601
0.089692 0.065165 1.553576 -0.764711 -0.548239 -0.338601
0.034259 0.105439 1.553576 -0.296417 -0.893021 -0.338601
-0.034259 0.105439 1.553576 0.285098 -0.896699 -0.338601
-0.089692 0.065165 1.553576 0.757715 -0.557868 -0.338601
-0.110866 0.000000 1.553576 0.940911 -0.005951 -0.338601
-0.089692 -0.065165 1.553576 0.764711 0.548239 -0.338601
-0.034259 -0.105439 1.553576 0.296417 0.893021 -0.338601
0.034259 -0.105439 1.553576 -0.285098 0.896699 -0.338601
0.089692 -0.065165 1.553576 -0.757715 0.557868 -0.338601
0.120000 0.000000 1.500000 -1.000000 0.000000 -0.000000
0.097082 0.070534 1.500000 -0.809017 -0.587785 -0.000000
0.037082 0.114127 1.500000 -0.309017 -0.951057 -0.000000
-0.037082 0.114127 1.500000 0.309017 -0.951057 0.000000
-0.097082 0.070534 1.500000 0.809017 -0.587785 0.000000
-0.120000 0.000000 1.500000 1.000000 -0.000000 0.000000
-0.097082 -0.070534 1.500000 0.809017 0.587785 0.000000
-0.037082 -0.114127 1.500000 0.309017 0.951057 -0.000000
0.037082 -0.114127 1.500000 -0.309017 0.951057 0.000000
0.097082 -0.070534 1.500000 -0.809017 0.587785 0.000000
0.110866 0.000000 1.446424 -0.940911 -0.005951 0.338601
0.089692 0.065165 1.446424 -0.757715 -0.557868 0.338601
0.034259 0.105439 1.446424 -0.285098 -0.896699 0.338601
-0.034259 0.105439 1.446424 0.296417 -0.893021 0.338601
-0.089692 0.065165 1.446424 0.764711 -0.548239 0.338601
-0.110866 0.000000 1.446424 0.940911 0.005951 0.338601
-0.089692 -0.065165 1.446424 0.757715 0.557868 0.338601
-0.034259 -0.105439 1.446424 0.285098 0.896699 0.338601
0.034259 -0.105439 1.446424 -0.296417 0.893021 0.338601
0.089692 -0.065165 1.446424 -0.764711 0.548239 0.338601
0.084853 0.000000 1.401005 -0.754223 -0.013195 0.656486
0.068647 0.049875 1.401005 -0.602423 -0.453996 0.656486
0.026221 0.080700 1.401005 -0.220518 -0.721386 0.656486
-0.026221 0.080700 1.401005 0.245617 -0.713231 0.656486
-0.068647 0.049875 1.401005 0.617935 -0.432646 0.656486
-0.084853 0.000000 1.401005 0.754223 0.013195 0.656486
-0.068647 -0.049875 1.401005 0.602423 0.453996 0.656486
-0.026221 -0.080700 1.401005 0.220518 0.721386 0.656486
0.026221 -0.080700 1.401005 -0.245617 0.713231 0.656486
0.068647 -0.049875 1.401005 -0.617935 0.432646 0.656486
0.045922 0.000000 1.370657 -0.467924 -0.040566 0.882837
0.037152 0.026992 1.370657 -0.354714 -0.307858 0.882837
0.014191 0.043674 1.370657 -0.106016 -0.457558 0.882837
-0.014191 0.043674 1.370657 0.183177 -0.432486 0.882837
-0.037152 0.026992 1.370657 0.402403 -0.242220 0.882837
-0.045922 0.000000 1.370657 0.467924 0.040566 0.882837
-0.037152 -0.026992 1.370657 0.354714 0.307858 0.882837
-0.014191 -0.043674 1.370657 0.106016 0.457558 0.882837
0.014191 -0.043674 1.370657 -0.183177 0.432486 0.882837
0.037152 -0.026992 1.370657 -0.402403 0.242220 0.882837
0.000000 0.000000 1.360000 -0.000000 -0.000000 1.000000
0.050000 0.000000 1.300000 0.981981 -0.188982 0.000000
0.025000 0.043301 1.300000 0.654654 0.755929 0.000000
-0.025000 0.043301 1.300000 -0.327327 0.944911 0.000000
-0.050000 0.000000 1.300000 -0.981981 0.188982 0.000000
-0.025000 -0.043301 1.300000 -0.654654 -0.755929 0.000000
0.025000 -0.043301 1.300000 0.327327 -0.944911 0.000000
0.050000 0.000000 1.370000 0.981981 0.188982 0.000000
0.025000 0.043301 1.370000 0.327327 0.944911 0.000000
-0.025000 0.043301 1.370000 -0.654654 0.755929 0.000000
-0.050000 0.000000 1.370000 -0.981981 -0.188982 0.000000
-0.025000 -0.043301 1.370000 -0.327327 -0.944911 0.000000
0.025000 -0.043301 1.370000 0.654654 -0.755929 0.000000
-0.200000 -0.120000 0.700000 0.577350 0.577350 0.577350
0.200000 -0.120000 0.700000 -0.816497 0.408248 0.408248
-0.200000 0.120000 0.700000 0.408248 -0.816497 0.408248
0.200000 0.120000 0.700000 -0.408248 -0.408248 0.816497
-0.200000 -0.120000 1.300000 0.408248 0.408248 -0.816497
0.200000 -0.120000 1.300000 -0.408248 0.816497 -0.408248
-0.200000 0.120000 1.300000 0.816497 -0.408248 -0.408248
0.200000 0.120000 1.300000 -0.577350 -0.577350 -0.577350
0.285777 -0.017889 1.250000 0.926128 -0.368297 0.081506
0.278216 0.011712 1.275820 0.672078 0.343085 0.656204
0.242439 0.029600 1.275820 -0.260678 0.744697 0.614388
0.214223 0.017889 1.250000 -0.921195 0.376109 -0.099713
0.221784 -0.011712 1.224180 -0.665478 -0.316578 -0.675956
0.257561 -0.029600 1.224180 0.253228 -0.744056 -0.618269
0.385777 0.217889 1.050000 0.965381 0.172330 0.195812
0.354366 0.235989 1.066903 0.248645 0.787611 0.563777
0.318589 0.218101 1.066903 -0.702568 0.615751 0.356720
0.314223 0.182111 1.050000 -0.963616 -0.154560 -0.218074
0.345634 0.164011 1.033097 -0.249510 -0.775630 -0.579778
0.381411 0.181899 1.033097 0.701402 -0.609985 -0.368720
0.335777 0.317889 0.850000 0.804539 0.586697 0.092214
0.304366 0.335989 0.866903 -0.076086 0.884096 0.461069
0.268589 0.318101 0.866903 -0.880624 0.297399 0.368856
0.264223 0.282111 0.850000 -0.804539 -0.586697 -0.092214
0.295634 0.264011 0.833097 0.076086 -0.884096 -0.461069
0.331411 0.281899 0.833097 0.880624 -0.297399 -0.368856
-0.283282 0.022188 1.250000 -0.832871 0.553455 0.003774
-0.282227 -0.012285 1.270261 -0.810778 -0.298156 0.503729
-0.248945 -0.034473 1.270261 0.020345 -0.858313 0.512724
-0.216718 -0.022188 1.250000 0.835884 -0.548901 -0.002269
-0.217773 0.012285 1.229739 0.811884 0.297183 -0.502521
-0.251055 0.034473 1.229739 -0.013048 0.862298 -0.506234
-0.390000 -0.150000 1.000000 -0.982040 0.158220 0.102782
-0.370000 -0.180984 1.015492 -0.565670 -0.681190 0.464756
-0.330000 -0.180984 1.015492 0.413160 -0.838337 0.355654
-0.310000 -0.150000 1.000000 0.979843 -0.164032 -0.114018
-0.330000 -0.119016 0.984508 0.565225 0.675490 -0.473534
-0.370000 -0.119016 0.984508 -0.412779 0.834959 -0.363946
-0.390000 -0.250000 0.800000 -0.981981 -0.169031 0.084515
-0.370000 -0.280984 0.815492 -0.327327 -0.845154 0.422577
-0.330000 -0.280984 0.815492 0.654654 -0.676123 0.338062
-0.310000 -0.250000 0.800000 0.981981 0.169031 -0.084515
-0.330000 -0.219016 0.784508 0.327327 0.845154 -0.422577
-0.370000 -0.219016 0.784508 -0.654654 0.676123 -0.338062
0.155709 -0.022283 0.700000 0.954297 -0.289715 0.073370
0.142216 0.024763 0.734708 0.652545 0.471917 0.592856
0.086507 0.047046 0.734708 -0.287640 0.781676 0.553395
0.044291 0.022283 0.700000 -0.954167 0.287779 -0.082151
0.057784 -0.024763 0.665292 -0.646938 -0.452738 -0.613595
0.113493 -0.047046 0.665292 0.280426 -0.779798 -0.559711
0.253666 0.276833 0.400000 0.955510 0.228275 0.186793
0.204697 0.307688 0.415811 0.217699 0.863474 0.454994
0.151031 0.280855 0.415811 -0.732292 0.629728 0.259213
0.146334 0.223167 0.400000 -0.954001 -0.217146 -0.206713
0.195303 0.192312 0.384189 -0.217922 -0.852621 -0.474918
0.248969 0.219145 0.384189 0.730488 -0.626882 -0.270935
0.203666 0.376833 0.050000 0.797802 0.600170 0.057505
0.154697 0.407688 0.065811 -0.109768 0.951461 0.287527
0.101031 0.380855 0.065811 -0.907571 0.351291 0.230022
0.096334 0.323167 0.050000 -0.797802 -0.600170 -0.057505
0.145303 0.292312 0.034189 0.109768 -0.951461 -0.287527
0.198969 0.319145 0.034189 0.907571 -0.351291 -0.230022
-0.153666 0.026833 0.700000 -0.810348 0.570208 -0.134901
-0.144153 -0.021225 0.734641 -0.834337 -0.222818 0.504217
-0.090488 -0.048057 0.734641 -0.025031 -0.781973 0.622809
-0.046334 -0.026833 0.700000 0.809140 -0.572626 0.131879
-0.055847 0.021225 0.665359 0.830043 0.216523 -0.513952
-0.109512 0.048057 0.665359 0.019008 0.769924 -0.637853
-0.253666 -0.173167 0.450000 -0.885800 0.463113 0.029755
-0.248608 -0.230133 0.468146 -0.776680 -0.431282 0.459090
-0.194942 -0.256966 0.468146 0.112999 -0.895742 0.429975
-0.146334 -0.226833 0.450000 0.885279 -0.463971 -0.031800
-0.151392 -0.169867 0.431854 0.774305 0.426097 -0.467859
-0.205058 -0.143034 0.431854 -0.114984 0.893012 -0.435096
-0.303666 -0.273167 0.150000 -0.957505 0.280766 0.065995
-0.298608 -0.330133 0.168146 -0.688743 -0.645561 0.329977
-0.244942 -0.356966 0.168146 0.268762 -0.926326 0.263982
-0.196334 -0.326833 0.150000 0.957505 -0.280766 -0.065995
-0.201392 -0.269867 0.131854 0.688743 0.645561 -0.329977
-0.255058 -0.243034 0.131854 -0.268762 0.926326 -0.263982
0.100000 0.300000 0.000000 0.577350 0.577350 0.577350
0.200000 0.300000 0.000000 -0.816497 0.408248 0.408248
0.100000 0.480000 0.000000 0.408248 -0.816497 0.408248
0.200000 0.480000 0.000000 -0.408248 -0.408248 0.816497
0.100000 0.300000 0.060000 0.408248 0.408248 -0.816497
0.200000 0.300000 0.060000 -0.408248 0.816497 -0.408248
0.100000 0.480000 0.060000 0.816497 -0.408248 -0.408248
0.200000 0.480000 0.060000 -0.577350 -0.577350 -0.577350
-0.300000 -0.430000 0.100000 0.577350 0.577350 0.577350
-0.200000 -0.430000 0.100000 -0.816497 0.408248 0.408248
-0.300000 -0.250000 0.100000 0.408248 -0.816497 0.408248
-0.200000 -0.250000 0.100000 -0.408248 -0.408248 0.816497
-0.300000 -0.430000 0.160000 0.408248 0.408248 -0.816497
-0.200000 -0.430000 0.160000 -0.408248 0.816497 -0.408248
-0.300000 -0.250000 0.160000 0.816497 -0.408248 -0.408248
-0.200000 -0.250000 0.160000 -0.577350 -0.577350 -0.577350
3 0 2 1
3 0 3 2
3 0 4 3
3 0 5 4
3 0 6 5
3 0 7 6
3 0 8 7
3 0 9 8
3 0 10 9
3 0 1 10
3 1 2 11
3 2 12 11
3 2 3 12
3 3 13 12
3 3 4 13
3 4 14 13
3 4 5 14
3 5 15 14
3 5 6 15
3 6 16 15
3 6 7 16
3 7 17 16
3 7 8 17
3 8 18 17
3 8 9 18
3 9 19 18
3 9 10 19
3 10 20 19
3 10 1 20
3 1 11 20
3 11 12 21
3 12 22 21
3 12 13 22
3 13 23 22
3 13 14 23
3 14 24 23
3 14 15 24
3 15 25 24
3 15 16 25
3 16 26 25
3 16 17 26
3 17 27 26
3 17 18 27
3 18 28 27
3 18 19 28
3 19 29 28
3 19 20 29
3 20 30 29
3 20 11 30
3 11 21 30
3 21 22 31
3 22 32 31
3 22 23 32
3 23 33 32
3 23 24 33
3 24 34 33
3 24 25 34
3 25 35 34
3 25 26 35
3 26 36 35
3 26 27 36
3 27 37 36
3 27 28 37
3 28 38 37
3 28 29 38
3 29 39 38
3 29 30 39
3 30 40 39
3 30 21 40
3 21 31 40
3 31 32 41
3 32 42 41
3 32 33 42
3 33 43 42
3 33 34 43
3 34 44 43
3 34 35 44
3 35 45 44
3 35 36 45
3 36 46 45
3 36 37 46
3 37 47 46
3 37 38 47
3 38 48 47
3 38 39 48
3 39 49 48
3 39 40 49
3 40 50 49
3 40 31 50
3 31 41 50
3 41 42 51
3 42 52 51
3 42 43 52
3 43 53 52
3 43 44 53
3 44 54 53
3 44 45 54
3 45 55 54
3 45 46 55
3 46 56 55
3 46 47 56
3 47 57 56
3 47 48 57
3 48 58 57
3 48 49 58
3 49 59 58
3 49 50 59
3 50 60 59
3 50 41 60
3 41 51 60
3 51 52 61
3 52 62 61
3 52 53 62
3 53 63 62
3 53 54 63
3 54 64 63
3 54 55 64
3 55 65 64
3 55 56 65
3 56 66 65
3 56 57 66
3 57 67 66
3 57 58 67
3 58 68 67
3 58 59 68
3 59 69 68
3 59 60 69
3 60 70 69
3 60 51 70
3 51 61 70
3 61 62 71
3 62 63 71
3 63 64 71
3 64 65 71
3 65 66 71
3 66 67 71
3 67 68 71
3 68 69 71
3 69 70 71
3 70 61 71
3 72 73 78
3 73 79 78
3 73 74 79
3 74 80 79
3 74 75 80
3 75 81 80
3 75 76 81
3 76 82 81
3 76 77 82
3 77 83 82
3 77 72 83
3 72 78 83
3 84 85 87
3 84 87 86
3 88 90 91
3 88 91 89
3 84 88 89
3 84 89 85
3 86 87 91
3 86 91 90
3 84 86 90
3 84 90 88
3 85 89 91
3 85 91 87
3 92 98 93
3 93 98 99
3 93 99 94
3 94 99 100
3 94 100 95
3 95 100 101
3 95 101 96
3 96 101 102
3 96 102 97
3 97 102 103
3 97 103 92
3 92 103 98
3 98 104 99
3 99 104 105
3 99 105 100
3 100 105 106
3 100 106 101
3 101 106 107
3 101 107 102
3 102 107 108
3 102 108 103
3 103 108 109
3 103 109 98
3 98 109 104
3 110 116 111
3 111 116 117
3 111 117 112
3 112 117 118
3 112 118 113
3 113 118 119
3 113 119 114
3 114 119 120
3 114 120 115
3 115 120 121
3 115 121 110
3 110 121 116
3 116 122 117
3 117 122 123
3 117 123 118
3 118 123 124
3 118 124 119
3 119 124 125
3 119 125 120
3 120 125 126
3 120 126 121
3 121 126 127
3 121 127 116
3 116 127 122
3 128 134 129
3 129 134 135
3 129 135 130
3 130 135 136
3 130 136 131
3 131 136 137
3 131 137 132
3 132 137 138
3 132 138 133
3 133 138 139
3 133 139 128
3 128 139 134
3 134 140 135
3 135 140 141
3 135 141 136
3 136 141 142
3 136 142 137
3 137 142 143
3 137 143 138
3 138 143 144
3 138 144 139
3 139 144 145
3 139 145 134
3 134 145 140
3 146 152 147
3 147 152 153
3 147 153 148
3 148 153 154
3 148 154 149
3 149 154 155
3 149 155 150
3 150 155 156
3 150 156 151
3 151 156 157
3 151 157 146
3 146 157 152
3 152 158 153
3 153 158 159
3 153 159 154
3 154 159 160
3 154 160 155
3 155 160 161
3 155 161 156
3 156 161 162
3 156 162 157
3 157 162 163
3 157 163 152
3 152 163 158
3 164 165 167
3 164 167 166
3 168 170 171
3 168 171 169
3 164 168 169
3 164 169 165
3 166 167 171
3 166 171 170
3 164 166 170
3 164 170 168
3 165 169 171
3 165 171 167
3 172 173 175
3 172 175 174
3 176 178 179
3 176 179 177
3 172 176 177
3 172 177 173
3 174 175 179
3 174 179 178
3 172 174 178
3 172 178 176
3 173 177 179
3 173 179 175
