ply
format ascii 1.0
element vertex 180
property float x
property float y
property float z
property float nx
property float ny
property float nz
element face 284
property list uchar int vertex_indices
end_header
0.000000 0.000000 1.690000 0.000000 0.000000 -1.000000
0.045922 0.000000 1.679343 -0.467924 0.040566 -0.882837
0.037152 0.026992 1.679343 -0.402403 -0.242220 -0.882837
0.014191 0.043674 1.679343 -0.183177 -0.432486 -0.882837
-0.014191 0.043674 1.679343 0.106016 -0.457558 -0.882837
-0.037152 0.026992 1.679343 0.354714 -0.307858 -0.882837
-0.045922 0.000000 1.679343 0.467924 -0.040566 -0.882837
-0.037152 -0.026992 1.679343 0.402403 0.242220 -0.882837
-0.014191 -0.043674 1.679343 0.183177 0.432486 -0.882837
0.014191 -0.043674 1.679343 -0.106016 0.457558 -0.882837
0.037152 -0.026992 1.679343 -0.354714 0.307858 -0.882837
0.084853 0.000000 1.648995 -0.754223 0.013195 -0.656486
0.068647 0.049875 1.648995 -0.617935 -0.432646 -0.656486
0.026221 0.080700 1.648995 -0.245617 -0.713231 -0.656486
-0.026221 0.080700 1.648995 0.220518 -0.721386 -0.656486
-0.068647 0.049875 1.648995 0.602423 -0.453996 -0.656486
-0.084853 0.000000 1.648995 0.754223 -0.013195 -0.656486
-0.068647 -0.049875 1.648995 0.617935 0.432646 -0.656486
-0.026221 -0.080700 1.648995 0.245617 0.713231 -0.656486
0.026221 -0.080700 1.648995 -0.220518 0.721386 -0.656486
0.068647 -0.049875 1.648995 -0.602423 0.453996 -0.656486
0.110866 0.000000 1.603576 -0.940911 0.005951 -0.338601
0.089692 0.065165 1.603576 -0.764711 -0.548239 -0.338601
0.034259 0.105439 1.603576 -0.296417 -0.893021 -0.338601
-0.034259 0.105439 1.603576 0.285098 -0.896699 -0.338601
-0.089692 0.065165 1.603576 0.757715 -0.557868 -0.338601
-0.110866 0.000000 1.603576 0.940911 -0.005951 -0.338601
-0.089692 -0.065165 1.603576 0.764711 0.548239 -0.338601
-0.034259 -0.105439 1.603576 0.296417 0.893021 -0.338601
0.034259 -0.105439 1.603576 -0.285098 0.896699 -0.338601
0.089692 -0.065165 1.603576 -0.757715 0.557868 -0.338601
0.120000 0.000000 1.550000 -1.000000 0.000000 -0.000000
0.097082 0.070534 1.550000 -0.809017 -0.587785 -0.000000
0.037082 0.114127 1.550000 -0.309017 -0.951057 -0.000000
-0.037082 0.114127 1.550000 0.309017 -0.951057 0.000000
-0.097082 0.070534 1.550000 0.809017 -0.587785 0.000000
-0.120000 0.000000 1.550000 1.000000 -0.000000 0.000000
-0.097082 -0.070534 1.550000 0.809017 0.587785 0.000000
-0.037082 -0.114127 1.550000 0.309017 0.951057 -0.000000
0.037082 -0.114127 1.550000 -0.309017 0.951057 0.000000
0.097082 -0.070534 1.550000 -0.809017 0.587785 0.000000
0.110866 0.000000 1.496424 -0.940911 -0.005951 0.338601
0.089692 0.065165 1.496424 -0.757715 -0.557868 0.338601
0.034259 0.105439 1.496424 -0.285098 -0.896699 0.338601
-0.034259 0.105439 1.496424 0.296417 -0.893021 0.338601
-0.089692 0.065165 1.496424 0.764711 -0.548239 0.338601
-0.110866 0.000000 1.496424 0.940911 0.005951 0.338601
-0.089692 -0.065165 1.496424 0.757715 0.557868 0.338601
-0.034259 -0.105439 1.496424 0.285098 0.896699 0.338601
0.034259 -0.105439 1.496424 -0.296417 0.893021 0.338601
0.089692 -0.065165 1.496424 -0.764711 0.548239 0.338601
0.084853 0.000000 1.451005 -0.754223 -0.013195 0.656486
0.068647 0.049875 1.451005 -0.602423 -0.453996 0.656486
0.026221 0.080700 1.451005 -0.220518 -0.721386 0.656486
-0.026221 0.080700 1.451005 0.245617 -0.713231 0.656486
-0.068647 0.049875 1.451005 0.617935 -0.432646 0.656486
-0.084853 0.000000 1.451005 0.754223 0.013195 0.656486
-0.068647 -0.049875 1.451005 0.602423 0.453996 0.656486
-0.026221 -0.080700 1.451005 0.220518 0.721386 0.656486
0.026221 -0.080700 1.451005 -0.245617 0.713231 0.656486
0.068647 -0.049875 1.451005 -0.617935 0.432646 0.656486
0.045922 0.000000 1.420657 -0.467924 -0.040566 0.882837
0.037152 0.026992 1.420657 -0.354714 -0.307858 0.882837
0.014191 0.043674 1.420657 -0.106016 -0.457558 0.882837
-0.014191 0.043674 1.420657 0.183177 -0.432486 0.882837
-0.037152 0.026992 1.420657 0.402403 -0.242220 0.882837
-0.045922 0.000000 1.420657 0.467924 0.040566 0.882837
-0.037152 -0.026992 1.420657 0.354714 0.307858 0.882837
-0.014191 -0.043674 1.420657 0.106016 0.457558 0.882837
0.014191 -0.043674 1.420657 -0.183177 0.432486 0.882837
0.037152 -0.026992 1.420657 -0.402403 0.242220 0.882837
0.000000 0.000000 1.410000 -0.000000 -0.000000 1.000000
0.050000 0.000000 1.350000 0.981981 -0.188982 0.000000
0.025000 0.043301 1.350000 0.654654 0.755929 0.000000
-0.025000 0.043301 1.350000 -0.327327 0.944911 0.000000
-0.050000 0.000000 1.350000 -0.981981 0.188982 0.000000
-0.025000 -0.043301 1.350000 -0.654654 -0.755929 0.000000
0.025000 -0.043301 1.350000 0.327327 -0.944911 0.000000
0.050000 0.000000 1.420000 0.981981 0.188982 0.000000
0.025000 0.043301 1.420000 0.327327 0.944911 0.000000
-0.025000 0.043301 1.420000 -0.654654 0.755929 0.000000
-0.050000 0.000000 1.420000 -0.981981 -0.188982 0.000000
-0.025000 -0.043301 1.420000 -0.327327 -0.944911 0.000000
0.025000 -0.043301 1.420000 0.654654 -0.755929 0.000000
-0.200000 -0.120000 0.750000 0.577350 0.577350 0.577350
0.200000 -0.120000 0.750000 -0.816497 0.408248 0.408248
-0.200000 0.120000 0.750000 0.408248 -0.816497 0.408248
0.200000 0.120000 0.750000 -0.408248 -0.408248 0.816497
-0.200000 -0.120000 1.350000 0.408248 0.408248 -0.816497
0.200000 -0.120000 1.350000 -0.408248 0.816497 -0.408248
-0.200000 0.120000 1.350000 0.816497 -0.408248 -0.408248
0.200000 0.120000 1.350000 -0.577350 -0.577350 -0.577350
0.321781 -0.016713 1.300000 0.953457 -0.299925 0.031067
0.314513 0.025699 1.313168 0.717498 0.625401 0.306708
0.272732 0.042412 1.313168 -0.237074 0.929248 0.283361
0.238219 0.016713 1.300000 -0.954935 0.295794 -0.024603
0.245487 -0.025699 1.286832 -0.718894 -0.626141 -0.301893
0.287268 -0.042412 1.286832 0.233154 -0.932834 -0.274700
0.361781 0.116713 1.000000 0.971806 0.221086 0.081939
0.326742 0.143729 1.008206 0.280170 0.927957 0.245766
0.284960 0.127016 1.008206 -0.689846 0.706141 0.159617
0.278219 0.083287 1.000000 -0.971521 -0.218849 -0.090845
0.313258 0.056271 0.991794 -0.280968 -0.925604 -0.253602
0.355040 0.072984 0.991794 0.689090 -0.705284 -0.166522
0.341781 0.166713 0.750000 0.843134 0.536230 0.039795
0.306742 0.193729 0.758206 -0.039147 0.979222 0.198976
0.264960 0.177016 0.758206 -0.882281 0.442993 0.159181
0.258219 0.133287 0.750000 -0.843134 -0.536230 -0.039795
0.293258 0.106271 0.741794 0.039147 -0.979222 -0.198976
0.335040 0.122984 0.741794 0.882281 -0.442993 -0.159181
-0.321781 0.016713 1.300000 -0.953457 0.299925 0.031067
-0.314513 -0.025699 1.313168 -0.717498 -0.625401 0.306708
-0.272732 -0.042412 1.313168 0.237074 -0.929248 0.283361
-0.238219 -0.016713 1.300000 0.954935 -0.295794 -0.024603
-0.245487 0.025699 1.286832 0.718894 0.626141 -0.301893
-0.287268 0.042412 1.286832 -0.233154 0.932834 -0.274700
-0.361781 -0.116713 1.000000 -0.971806 -0.221086 0.081939
-0.326742 -0.143729 1.008206 -0.280170 -0.927957 0.245766
-0.284960 -0.127016 1.008206 0.689846 -0.706141 0.159617
-0.278219 -0.083287 1.000000 0.971521 0.218849 -0.090845
-0.313258 -0.056271 0.991794 0.280968 0.925604 -0.253602
-0.355040 -0.072984 0.991794 -0.689090 0.705284 -0.166522
-0.341781 -0.166713 0.750000 -0.843134 -0.536230 0.039795
-0.306742 -0.193729 0.758206 0.039147 -0.979222 0.198976
-0.264960 -0.177016 0.758206 0.882281 -0.442993 0.159181
-0.258219 -0.133287 0.750000 0.843134 0.536230 -0.039795
-0.293258 -0.106271 0.741794 -0.039147 0.979222 -0.198976
-0.335040 -0.122984 0.741794 -0.882281 0.442993 -0.159181
0.156921 -0.018974 0.750000 0.976619 -0.208558 0.052150
0.143435 0.035437 0.771392 0.644965 0.666050 0.374696
0.086514 0.054410 0.771392 -0.328315 0.883521 0.334066
0.043079 0.018974 0.750000 -0.977608 0.204442 -0.049867
0.056565 -0.035437 0.728608 -0.644912 -0.663309 -0.379617
0.113486 -0.054410 0.728608 0.324372 -0.886004 -0.331329
0.201450 0.180870 0.400000 0.929804 0.348021 0.119772
0.149354 0.209386 0.408539 0.142120 0.954080 0.263692
0.097905 0.178516 0.408539 -0.785190 0.603285 0.139729
0.098550 0.119130 0.400000 -0.929432 -0.345073 -0.130694
0.150646 0.090614 0.391461 -0.142790 -0.950898 -0.274599
0.202095 0.121484 0.391461 0.784276 -0.602827 -0.146669
0.171450 0.230870 0.050000 0.746133 0.665073 0.031056
0.119354 0.259386 0.058539 -0.198863 0.967647 0.155281
0.067905 0.228516 0.058539 -0.944996 0.302575 0.124225
0.068550 0.169130 0.050000 -0.746133 -0.665073 -0.031056
0.120646 0.140614 0.041461 0.198863 -0.967647 -0.155281
0.172095 0.171484 0.041461 0.944996 -0.302575 -0.124225
-0.155385 0.023077 0.750000 -0.991295 -0.077503 0.106434
-0.146427 -0.033425 0.768092 -0.415342 -0.861366 0.292471
-0.091042 -0.056502 0.768092 0.580165 -0.803662 0.132420
-0.044615 -0.023077 0.750000 0.974488 0.042622 -0.220356
-0.053573 0.033425 0.731908 0.381760 0.833175 -0.400098
-0.108958 0.056502 0.731908 -0.607013 0.761277 -0.228017
-0.150000 -0.179781 0.405124 -0.322783 -0.921588 0.215610
-0.098227 -0.149513 0.406967 0.657581 -0.730628 0.183764
-0.098227 -0.089732 0.401843 0.980841 0.194422 -0.012259
-0.150000 -0.060219 0.394876 0.313707 0.933725 -0.172470
-0.201773 -0.090487 0.393033 -0.667967 0.732624 -0.130698
-0.201773 -0.150268 0.398157 -0.979944 -0.190111 0.059736
-0.120000 -0.209781 0.055124 0.188297 -0.977020 0.099884
-0.068227 -0.179513 0.056967 0.941484 -0.319264 0.108064
-0.068227 -0.119732 0.051843 0.753187 0.657755 0.008180
-0.120000 -0.090219 0.044876 -0.188297 0.977020 -0.099884
-0.171773 -0.120487 0.043033 -0.941484 0.319264 -0.108064
-0.171773 -0.180268 0.048157 -0.753187 -0.657755 -0.008180
0.070000 0.150000 0.000000 0.577350 0.577350 0.577350
0.170000 0.150000 0.000000 -0.816497 0.408248 0.408248
0.070000 0.330000 0.000000 0.408248 -0.816497 0.408248
0.170000 0.330000 0.000000 -0.408248 -0.408248 0.816497
0.070000 0.150000 0.060000 0.408248 0.408248 -0.816497
0.170000 0.150000 0.060000 -0.408248 0.816497 -0.408248
0.070000 0.330000 0.060000 0.816497 -0.408248 -0.408248
0.170000 0.330000 0.060000 -0.577350 -0.577350 -0.577350
-0.170000 -0.280000 0.000000 0.577350 0.577350 0.577350
-0.070000 -0.280000 0.000000 -0.816497 0.408248 0.408248
-0.170000 -0.100000 0.000000 0.408248 -0.816497 0.408248
-0.070000 -0.100000 0.000000 -0.408248 -0.408248 0.816497
-0.170000 -0.280000 0.060000 0.408248 0.408248 -0.816497
-0.070000 -0.280000 0.060000 -0.408248 0.816497 -0.408248
-0.170000 -0.100000 0.060000 0.816497 -0.408248 -0.408248
-0.070000 -0.100000 0.060000 -0.577350 -0.577350 -0.577350
3 0 2 1
3 0 3 2
3 0 4 3
3 0 5 4
3 0 6 5
3 0 7 6
3 0 8 7
3 0 9 8
3 0 10 9
3 0 1 10
3 1 2 11
3 2 12 11
3 2 3 12
3 3 13 12
3 3 4 13
3 4 14 13
3 4 5 14
3 5 15 14
3 5 6 15
3 6 16 15
3 6 7 16
3 7 17 16
3 7 8 17
3 8 18 17
3 8 9 18
3 9 19 18
3 9 10 19
3 10 20 19
3 10 1 20
3 1 11 20
3 11 12 21
3 12 22 21
3 12 13 22
3 13 23 22
3 13 14 23
3 14 24 23
3 14 15 24
3 15 25 24
3 15 16 25
3 16 26 25
3 16 17 26
3 17 27 26
3 17 18 27
3 18 28 27
3 18 19 28
3 19 29 28
3 19 20 29
3 20 30 29
3 20 11 30
3 11 21 30
3 21 22 31
3 22 32 31
3 22 23 32
3 23 33 32
3 23 24 33
3 24 34 33
3 24 25 34
3 25 35 34
3 25 26 35
3 26 36 35
3 26 27 36
3 27 37 36
3 27 28 37
3 28 38 37
3 28 29 38
3 29 39 38
3 29 30 39
3 30 40 39
3 30 21 40
3 21 31 40
3 31 32 41
3 32 42 41
3 32 33 42
3 33 43 42
3 33 34 43
3 34 44 43
3 34 35 44
3 35 45 44
3 35 36 45
3 36 46 45
3 36 37 46
3 37 47 46
3 37 38 47
3 38 48 47
3 38 39 48
3 39 49 48
3 39 40 49
3 40 50 49
3 40 31 50
3 31 41 50
3 41 42 51
3 42 52 51
3 42 43 52
3 43 53 52
3 43 44 53
3 44 54 53
3 44 45 54
3 45 55 54
3 45 46 55
3 46 56 55
3 46 47 56
3 47 57 56
3 47 48 57
3 48 58 57
3 48 49 58
3 49 59 58
3 49 50 59
3 50 60 59
3 50 41 60
3 41 51 60
3 51 52 61
3 52 62 61
3 52 53 62
3 53 63 62
3 53 54 63
3 54 64 63
3 54 55 64
3 55 65 64
3 55 56 65
3 56 66 65
3 56 57 66
3 57 67 66
3 57 58 67
3 58 68 67
3 58 59 68
3 59 69 68
3 59 60 69
3 60 70 69
3 60 51 70
3 51 61 70
3 61 62 71
3 62 63 71
3 63 64 71
3 64 65 71
3 65 66 71
3 66 67 71
3 67 68 71
3 68 69 71
3 69 70 71
3 70 61 71
3 72 73 78
3 73 79 78
3 73 74 79
3 74 80 79
3 74 75 80
3 75 81 80
3 75 76 81
3 76 82 81
3 76 77 82
3 77 83 82
3 77 72 83
3 72 78 83
3 84 85 87
3 84 87 86
3 88 90 91
3 88 91 89
3 84 88 89
3 84 89 85
3 86 87 91
3 86 91 90
3 84 86 90
3 84 90 88
3 85 89 91
3 85 91 87
3 92 98 93
3 93 98 99
3 93 99 94
3 94 99 100
3 94 100 95
3 95 100 101
3 95 101 96
3 96 101 102
3 96 102 97
3 97 102 103
3 97 103 92
3 92 103 98
3 98 104 99
3 99 104 105
3 99 105 100
3 100 105 106
3 100 106 101
3 101 106 107
3 101 107 102
3 102 107 108
3 102 108 103
3 103 108 109
3 103 109 98
3 98 109 104
3 110 116 111
3 111 116 117
3 111 117 112
3 112 117 118
3 112 118 113
3 113 118 119
3 113 119 114
3 114 119 120
3 114 120 115
3 115 120 121
3 115 121 110
3 110 121 116
3 116 122 117
3 117 122 123
3 117 123 118
3 118 123 124
3 118 124 119
3 119 124 125
3 119 125 120
3 120 125 126
3 120 126 121
3 121 126 127
3 121 127 116
3 116 127 122
3 128 134 129
3 129 134 135
3 129 135 130
3 130 135 136
3 130 136 131
3 131 136 137
3 131 137 132
3 132 137 138
3 132 138 133
3 133 138 139
3 133 139 128
3 128 139 134
3 134 140 135
3 135 140 141
3 135 141 136
3 136 141 142
3 136 142 137
3 137 142 143
3 137 143 138
3 138 143 144
3 138 144 139
3 139 144 145
3 139 145 134
3 134 145 140
3 146 152 147
3 147 152 153
3 147 153 148
3 148 153 154
3 148 154 149
3 149 154 155
3 149 155 150
3 150 155 156
3 150 156 151
3 151 156 157
3 151 157 146
3 146 157 152
3 152 158 153
3 153 158 159
3 153 159 154
3 154 159 160
3 154 160 155
3 155 160 161
3 155 161 156
3 156 161 162
3 156 162 157
3 157 162 163
3 157 163 152
3 152 163 158
3 164 165 167
3 164 167 166
3 168 170 171
3 168 171 169
3 164 168 169
3 164 169 165
3 166 167 171
3 166 171 170
3 164 166 170
3 164 170 168
3 165 169 171
3 165 171 167
3 172 173 175
3 172 175 174
3 176 178 179
3 176 179 177
3 172 176 177
3 172 177 173
3 174 175 179
3 174 179 178
3 172 174 178
3 172 178 176
3 173 177 179
3 173 179 175
