ply
format ascii 1.0
element vertex 30
property float x
property float y
property float z
property float nx
property float ny
property float nz
element face 56
property list uchar int vertex_indices
end_header
0.000000 0.000000 3.236068 0.000000 0.000000 1.000000
0.000000 0.000000 0.000000 0.000000 0.000000 -1.000000
0.000000 1.618034 1.618034 0.000000 1.000000 0.000000
0.000000 -1.618034 1.618034 0.000000 -1.000000 0.000000
1.618034 0.000000 1.618034 0.993001 -0.118103 0.000000
-1.618034 0.000000 1.618034 -0.993001 -0.118103 0.000000
0.500000 0.809017 2.927051 0.247803 0.592048 0.766859
0.500000 0.809017 0.309017 0.247803 0.592048 -0.766859
-0.500000 0.809017 2.927051 -0.309017 0.500000 0.809017
-0.500000 0.809017 0.309017 -0.309017 0.500000 -0.809017
0.500000 -0.809017 2.927051 0.365906 -0.400953 0.839851
0.500000 -0.809017 0.309017 0.365906 -0.400953 -0.839851
-0.500000 -0.809017 2.927051 -0.309017 -0.500000 0.809017
-0.500000 -0.809017 0.309017 -0.309017 -0.500000 -0.809017
1.309017 0.500000 2.427051 0.809017 0.309017 0.500000
1.309017 -0.500000 2.427051 0.809017 -0.309017 0.500000
1.309017 0.500000 0.809017 0.779608 0.265100 -0.567391
1.309017 -0.500000 0.809017 0.839851 -0.365906 -0.400953
-1.309017 0.500000 2.427051 -0.809017 0.309017 0.500000
-1.309017 -0.500000 2.427051 -0.809017 -0.309017 0.500000
-1.309017 0.500000 0.809017 -0.779608 0.265100 -0.567391
-1.309017 -0.500000 0.809017 -0.839851 -0.365906 -0.400953
0.809017 1.309017 2.118034 0.400953 0.839851 0.365906
0.809017 1.309017 1.118034 0.500000 0.809017 -0.309017
-0.809017 1.309017 2.118034 -0.332073 0.853838 0.400860
-0.809017 1.309017 1.118034 -0.428942 0.832491 -0.350667
0.809017 -1.309017 2.118034 0.500000 -0.809017 0.309017
0.809017 -1.309017 1.118034 0.332073 -0.853838 -0.400860
-0.809017 -1.309017 2.118034 -0.567391 -0.779608 0.265100
-0.809017 -1.309017 1.118034 -0.400953 -0.839851 -0.365906
3 11 13 1
3 10 0 12
3 29 21 13
3 9 7 1
3 8 0 6
3 28 29 3
3 28 12 19
3 17 27 11
3 22 23 2
3 20 21 5
3 16 7 23
3 16 4 17
3 26 3 27
3 26 15 10
3 14 15 4
3 14 22 6
3 25 9 20
3 24 2 25
3 18 5 19
3 18 8 24
3 27 13 11
3 27 3 29
3 27 29 13
3 28 5 21
3 28 19 5
3 28 21 29
3 20 13 21
3 20 1 13
3 20 9 1
3 16 17 11
3 16 11 1
3 16 1 7
3 26 10 12
3 26 28 3
3 26 12 28
3 26 17 4
3 26 27 17
3 26 4 15
3 14 10 15
3 14 0 10
3 14 6 0
3 14 4 16
3 14 23 22
3 14 16 23
3 25 23 7
3 25 2 23
3 25 7 9
3 24 8 6
3 24 22 2
3 24 6 22
3 18 19 12
3 18 12 0
3 18 0 8
3 18 24 25
3 18 20 5
3 18 25 20
