ply
format ascii 1.0
element vertex 24
property float x
property float y
property float z
property float nx
property float ny
property float nz
element face 44
property list uchar int vertex_indices
end_header
-1.000000 -1.000000 0.585786 -0.698400 -0.698400 -0.156448
-1.000000 -0.414214 0.000000 -0.512730 -0.187672 -0.837787
-0.414214 -1.000000 0.000000 -0.250563 -0.684550 -0.684550
-1.000000 -1.000000 1.414214 -0.698400 -0.698400 0.156448
-1.000000 -0.414214 2.000000 -0.698400 -0.156448 0.698400
-0.414214 -1.000000 2.000000 -0.156448 -0.698400 0.698400
-1.000000 1.000000 0.585786 -0.512730 0.837787 -0.187672
-1.000000 0.414214 0.000000 -0.927975 0.081456 -0.363629
-0.414214 1.000000 0.000000 -0.156448 0.698400 -0.698400
-1.000000 1.000000 1.414214 -0.698400 0.698400 0.156448
-1.000000 0.414214 2.000000 -0.698400 0.156448 0.698400
-0.414214 1.000000 2.000000 -0.187672 0.837787 0.512730
1.000000 -1.000000 0.585786 0.837787 -0.512730 -0.187672
1.000000 -0.414214 0.000000 0.837787 -0.187672 -0.512730
0.414214 -1.000000 0.000000 0.061950 -0.705749 -0.705749
1.000000 -1.000000 1.414214 0.698400 -0.698400 0.156448
1.000000 -0.414214 2.000000 0.698400 -0.156448 0.698400
0.414214 -1.000000 2.000000 0.156448 -0.698400 0.698400
1.000000 1.000000 0.585786 0.705749 0.705749 -0.061950
1.000000 0.414214 0.000000 0.512730 0.187672 -0.837787
0.414214 1.000000 0.000000 0.187672 0.512730 -0.837787
1.000000 1.000000 1.414214 0.684550 0.684550 0.250563
1.000000 0.414214 2.000000 0.837787 0.187672 0.512730
0.414214 1.000000 2.000000 0.081456 0.363629 0.927975
3 2 0 1
3 3 5 4
3 10 11 9
3 15 16 17
3 23 22 21
3 7 6 8
3 14 13 12
3 18 19 20
3 23 10 4
3 23 4 5
3 23 5 17
3 23 17 16
3 23 16 22
3 23 11 10
3 7 0 3
3 7 1 0
3 7 4 10
3 7 3 4
3 7 9 6
3 7 10 9
3 14 12 15
3 14 0 2
3 14 3 0
3 14 5 3
3 14 17 5
3 14 15 17
3 14 19 13
3 14 2 1
3 14 1 7
3 14 20 19
3 14 7 8
3 14 8 20
3 18 22 16
3 18 12 13
3 18 15 12
3 18 21 22
3 18 13 19
3 18 16 15
3 18 9 11
3 18 6 9
3 18 8 6
3 18 23 21
3 18 11 23
3 18 20 8
