ply
format ascii 1.0
element vertex 12
property float x
property float y
property float z
property float nx
property float ny
property float nz
element face 20
property list uchar int vertex_indices
end_header
1.000000 0.333333 1.333333 0.904534 0.301511 0.301511
0.333333 1.000000 1.333333 0.534522 0.801784 -0.267261
0.333333 0.333333 2.000000 0.109764 0.109764 0.987878
1.000000 -0.333333 0.666667 0.962250 -0.192450 -0.192450
0.333333 -1.000000 0.666667 0.447214 -0.894427 0.000000
0.333333 -0.333333 0.000000 0.192450 -0.192450 -0.962250
-1.000000 0.333333 0.666667 -0.962250 0.192450 -0.192450
-0.333333 1.000000 0.666667 -0.447214 0.894427 0.000000
-0.333333 0.333333 0.000000 -0.192450 0.192450 -0.962250
-1.000000 -0.333333 1.333333 -0.894427 -0.000000 0.447214
-0.333333 -1.000000 1.333333 -0.390567 -0.911322 -0.130189
-0.333333 -0.333333 2.000000 -0.301511 -0.301511 0.904534
3 3 4 5
3 8 6 7
3 10 11 9
3 2 0 1
3 1 0 3
3 1 5 8
3 1 3 5
3 1 8 7
3 10 5 4
3 10 9 6
3 10 8 5
3 10 6 8
3 2 3 0
3 2 10 4
3 2 4 3
3 2 11 10
3 2 6 9
3 2 7 6
3 2 9 11
3 2 1 7
