ply
format ascii 1.0
element vertex 12
property float x
property float y
property float z
property float nx
property float ny
property float nz
element face 20
property list uchar int vertex_indices
end_header
-1.000000 -1.000000 1.000000 -0.707107 -0.707107 0.000000
-1.000000 0.000000 0.000000 -0.825768 0.000000 -0.564010
0.000000 -1.000000 0.000000 0.000000 -0.707107 -0.707107
-1.000000 1.000000 1.000000 -0.707107 0.707107 0.000000
-1.000000 0.000000 2.000000 -0.707107 0.000000 0.707107
0.000000 -1.000000 2.000000 0.000000 -0.825768 0.564010
1.000000 -1.000000 1.000000 0.707107 -0.707107 0.000000
1.000000 0.000000 0.000000 0.825768 0.000000 -0.564010
0.000000 1.000000 0.000000 0.000000 0.707107 -0.707107
1.000000 1.000000 1.000000 0.707107 0.707107 0.000000
1.000000 0.000000 2.000000 0.707107 0.000000 0.707107
0.000000 1.000000 2.000000 0.000000 0.825768 0.564010
3 8 1 3
3 2 0 1
3 2 7 6
3 5 4 0
3 9 7 8
3 11 3 4
3 10 5 6
3 10 9 11
3 4 1 0
3 4 3 1
3 2 8 7
3 2 1 8
3 5 0 2
3 5 2 6
3 11 8 3
3 11 9 8
3 10 7 9
3 10 6 7
3 10 11 4
3 10 4 5
