ply
format ascii 1.0
element vertex 24
property float x
property float y
property float z
property float nx
property float ny
property float nz
element face 44
property list uchar int vertex_indices
end_header
-1.000000 -1.000000 0.000000 -0.292403 -0.453374 -0.841993
-1.000000 -2.414214 1.414214 -0.367001 -0.854763 -0.367001
-2.414214 -1.000000 1.414214 -0.842549 -0.380861 -0.380861
-1.000000 -1.000000 4.828427 -0.367001 -0.367001 0.854763
-1.000000 -2.414214 3.414214 -0.326727 -0.886848 0.326727
-2.414214 -1.000000 3.414214 -0.892863 -0.244078 0.378446
-1.000000 1.000000 0.000000 -0.326727 0.326727 -0.886848
-1.000000 2.414214 1.414214 -0.292890 0.910182 -0.292890
-2.414214 1.000000 1.414214 -0.892863 0.378446 -0.244078
-1.000000 1.000000 4.828427 -0.326727 0.326727 0.886848
-1.000000 2.414214 3.414214 -0.453374 0.841993 0.292403
-2.414214 1.000000 3.414214 -0.854763 0.367001 0.367001
1.000000 -1.000000 0.000000 0.378446 -0.244078 -0.892863
1.000000 -2.414214 1.414214 0.326727 -0.886848 -0.326727
2.414214 -1.000000 1.414214 0.854763 -0.367001 -0.367001
1.000000 -1.000000 4.828427 0.326727 -0.326727 0.886848
1.000000 -2.414214 3.414214 0.367001 -0.854763 0.367001
2.414214 -1.000000 3.414214 0.892863 -0.378446 0.244078
1.000000 1.000000 0.000000 0.367001 0.367001 -0.854763
1.000000 2.414214 1.414214 0.292403 0.841993 -0.453374
2.414214 1.000000 1.414214 0.886848 0.326727 -0.326727
1.000000 1.000000 4.828427 0.367001 0.367001 0.854763
1.000000 2.414214 3.414214 0.326727 0.886848 0.326727
2.414214 1.000000 3.414214 0.841993 0.292403 0.453374
3 9 10 11
3 6 8 7
3 20 18 19
3 22 21 23
3 1 2 0
3 16 17 15
3 13 12 14
3 4 3 5
3 8 2 5
3 8 5 11
3 10 8 11
3 10 7 8
3 23 15 17
3 23 21 15
3 9 15 21
3 9 3 15
3 9 5 3
3 9 11 5
3 6 0 2
3 6 2 8
3 6 12 0
3 6 18 12
3 6 19 18
3 6 7 19
3 20 12 18
3 20 14 12
3 20 17 14
3 20 23 17
3 22 9 21
3 22 10 9
3 22 23 20
3 22 20 19
3 22 7 10
3 22 19 7
3 13 0 12
3 13 1 0
3 13 14 17
3 13 17 16
3 4 13 16
3 4 1 13
3 4 5 2
3 4 2 1
3 4 15 3
3 4 16 15
