ply
format ascii 1.0
element vertex 34
property float x
property float y
property float z
property float nx
property float ny
property float nz
element face 56
property list uchar int vertex_indices
end_header
0.040000 0.000000 0.000000 0.805885 -0.111270 -0.581522
0.028284 0.028284 0.000000 0.648526 0.491167 -0.581522
0.000000 0.040000 0.000000 0.111270 0.805885 -0.581522
-0.028284 0.028284 0.000000 -0.491167 0.648526 -0.581522
-0.040000 0.000000 0.000000 -0.805885 0.111270 -0.581522
-0.028284 -0.028284 0.000000 -0.648526 -0.491167 -0.581522
-0.000000 -0.040000 0.000000 -0.111270 -0.805885 -0.581522
0.028284 -0.028284 0.000000 0.491167 -0.648526 -0.581522
0.040000 0.000000 1.000000 0.805885 0.111270 0.581522
0.028284 0.028284 1.000000 0.491167 0.648526 0.581522
0.000000 0.040000 1.000000 -0.111270 0.805885 0.581522
-0.028284 0.028284 1.000000 -0.648526 0.491167 0.581522
-0.040000 0.000000 1.000000 -0.805885 -0.111270 0.581522
-0.028284 -0.028284 1.000000 -0.491167 -0.648526 0.581522
-0.000000 -0.040000 1.000000 0.111270 -0.805885 0.581522
0.028284 -0.028284 1.000000 0.648526 -0.491167 0.581522
0.000000 0.000000 0.000000 0.000000 0.000000 -1.000000
0.000000 0.000000 1.000000 0.000000 0.000000 1.000000
-0.100000 -0.100000 1.000000 0.577350 0.577350 0.577350
-0.040000 -0.100000 1.000000 -0.816497 0.408248 0.408248
-0.100000 0.100000 1.000000 0.408248 -0.816497 0.408248
-0.040000 0.100000 1.000000 -0.408248 -0.408248 0.816497
-0.100000 -0.100000 1.240000 0.408248 0.408248 -0.816497
-0.040000 -0.100000 1.240000 -0.408248 0.816497 -0.408248
-0.100000 0.100000 1.240000 0.816497 -0.408248 -0.408248
-0.040000 0.100000 1.240000 -0.577350 -0.577350 -0.577350
0.040000 -0.100000 1.000000 0.577350 0.577350 0.577350
0.100000 -0.100000 1.000000 -0.816497 0.408248 0.408248
0.040000 0.100000 1.000000 0.408248 -0.816497 0.408248
0.100000 0.100000 1.000000 -0.408248 -0.408248 0.816497
0.040000 -0.100000 1.240000 0.408248 0.408248 -0.816497
0.100000 -0.100000 1.240000 -0.408248 0.816497 -0.408248
0.040000 0.100000 1.240000 0.816497 -0.408248 -0.408248
0.100000 0.100000 1.240000 -0.577350 -0.577350 -0.577350
3 0 1 8
3 1 9 8
3 1 2 9
3 2 10 9
3 2 3 10
3 3 11 10
3 3 4 11
3 4 12 11
3 4 5 12
3 5 13 12
3 5 6 13
3 6 14 13
3 6 7 14
3 7 15 14
3 7 0 15
3 0 8 15
3 16 1 0
3 17 8 9
3 16 2 1
3 17 9 10
3 16 3 2
3 17 10 11
3 16 4 3
3 17 11 12
3 16 5 4
3 17 12 13
3 16 6 5
3 17 13 14
3 16 7 6
3 17 14 15
3 16 0 7
3 17 15 8
3 18 19 21
3 18 21 20
3 22 24 25
3 22 25 23
3 18 22 23
3 18 23 19
3 20 21 25
3 20 25 24
3 18 20 24
3 18 24 22
3 19 23 25
3 19 25 21
3 26 27 29
3 26 29 28
3 30 32 33
3 30 33 31
3 26 30 31
3 26 31 27
3 28 29 33
3 28 33 32
3 26 28 32
3 26 32 30
3 27 31 33
3 27 33 29
