ply
format ascii 1.0
element vertex 26
property float x
property float y
property float z
property float nx
property float ny
property float nz
element face 44
property list uchar int vertex_indices
end_header
0.035000 0.000000 0.000000 0.805885 -0.111270 -0.581522
0.024749 0.024749 0.000000 0.648526 0.491167 -0.581522
0.000000 0.035000 0.000000 0.111270 0.805885 -0.581522
-0.024749 0.024749 0.000000 -0.491167 0.648526 -0.581522
-0.035000 0.000000 0.000000 -0.805885 0.111270 -0.581522
-0.024749 -0.024749 0.000000 -0.648526 -0.491167 -0.581522
-0.000000 -0.035000 0.000000 -0.111270 -0.805885 -0.581522
0.024749 -0.024749 0.000000 0.491167 -0.648526 -0.581522
0.035000 0.000000 1.200000 0.805885 0.111270 0.581522
0.024749 0.024749 1.200000 0.491167 0.648526 0.581522
0.000000 0.035000 1.200000 -0.111270 0.805885 0.581522
-0.024749 0.024749 1.200000 -0.648526 0.491167 0.581522
-0.035000 0.000000 1.200000 -0.805885 -0.111270 0.581522
-0.024749 -0.024749 1.200000 -0.491167 -0.648526 0.581522
-0.000000 -0.035000 1.200000 0.111270 -0.805885 0.581522
0.024749 -0.024749 1.200000 0.648526 -0.491167 0.581522
0.000000 0.000000 0.000000 0.000000 0.000000 -1.000000
0.000000 0.000000 1.200000 0.000000 0.000000 1.000000
0.000000 -0.010000 1.000000 0.488442 0.622978 0.611002
0.000000 0.010000 1.000000 0.324445 -0.849283 0.416478
0.000000 -0.010000 1.300000 0.257973 0.438812 -0.860752
0.000000 0.010000 1.300000 0.786580 -0.440847 -0.432373
0.250000 -0.005000 1.050000 -0.845359 0.381384 0.374052
0.250000 0.005000 1.050000 -0.539973 -0.382279 0.749861
0.250000 -0.005000 1.250000 -0.485293 0.785039 -0.384974
0.250000 0.005000 1.250000 -0.655677 -0.539051 -0.528688
3 0 1 8
3 1 9 8
3 1 2 9
3 2 10 9
3 2 3 10
3 3 11 10
3 3 4 11
3 4 12 11
3 4 5 12
3 5 13 12
3 5 6 13
3 6 14 13
3 6 7 14
3 7 15 14
3 7 0 15
3 0 8 15
3 16 1 0
3 17 8 9
3 16 2 1
3 17 9 10
3 16 3 2
3 17 10 11
3 16 4 3
3 17 11 12
3 16 5 4
3 17 12 13
3 16 6 5
3 17 13 14
3 16 7 6
3 17 14 15
3 16 0 7
3 17 15 8
3 18 19 21
3 18 21 20
3 22 24 25
3 22 25 23
3 18 22 23
3 18 23 19
3 20 21 25
3 20 25 24
3 18 20 24
3 18 24 22
3 19 23 25
3 19 25 21
