ply
format ascii 1.0
element vertex 46
property float x
property float y
property float z
property float nx
property float ny
property float nz
element face 68
property list uchar int vertex_indices
end_header
0.080000 0.000000 0.000000 0.815655 -0.088341 -0.571754
0.064721 0.047023 0.000000 0.711804 0.407961 -0.571754
0.024721 0.076085 0.000000 0.336068 0.748435 -0.571754
-0.024721 0.076085 0.000000 -0.168034 0.803033 -0.571754
-0.064721 0.047023 0.000000 -0.607954 0.550899 -0.571754
-0.080000 0.000000 0.000000 -0.815655 0.088341 -0.571754
-0.064721 -0.047023 0.000000 -0.711804 -0.407961 -0.571754
-0.024721 -0.076085 0.000000 -0.336068 -0.748435 -0.571754
0.024721 -0.076085 0.000000 0.168034 -0.803033 -0.571754
0.064721 -0.047023 0.000000 0.607954 -0.550899 -0.571754
0.080000 0.000000 0.500000 0.815655 0.088341 0.571754
0.064721 0.047023 0.500000 0.607954 0.550899 0.571754
0.024721 0.076085 0.500000 0.168034 0.803033 0.571754
-0.024721 0.076085 0.500000 -0.336068 0.748435 0.571754
-0.064721 0.047023 0.500000 -0.711804 0.407961 0.571754
-0.080000 0.000000 0.500000 -0.815655 -0.088341 0.571754
-0.064721 -0.047023 0.500000 -0.607954 -0.550899 0.571754
-0.024721 -0.076085 0.500000 -0.168034 -0.803033 0.571754
0.024721 -0.076085 0.500000 0.336068 -0.748435 0.571754
0.064721 -0.047023 0.500000 0.711804 -0.407961 0.571754
0.000000 0.000000 0.000000 0.000000 0.000000 -1.000000
0.000000 0.000000 0.500000 0.000000 0.000000 1.000000
0.025000 0.000000 0.500000 0.990602 -0.136774 0.000000
0.017678 0.017678 0.500000 0.797175 0.603748 0.000000
0.000000 0.025000 0.500000 0.136774 0.990602 0.000000
-0.017678 0.017678 0.500000 -0.603748 0.797175 0.000000
-0.025000 0.000000 0.500000 -0.990602 0.136774 0.000000
-0.017678 -0.017678 0.500000 -0.797175 -0.603748 0.000000
-0.000000 -0.025000 0.500000 -0.136774 -0.990602 0.000000
0.017678 -0.017678 0.500000 0.603748 -0.797175 0.000000
0.025000 0.000000 1.200000 0.990602 0.136774 0.000000
0.017678 0.017678 1.200000 0.603748 0.797175 0.000000
0.000000 0.025000 1.200000 -0.136774 0.990602 0.000000
-0.017678 0.017678 1.200000 -0.797175 0.603748 0.000000
-0.025000 0.000000 1.200000 -0.990602 -0.136774 0.000000
-0.017678 -0.017678 1.200000 -0.603748 -0.797175 0.000000
-0.000000 -0.025000 1.200000 0.136774 -0.990602 0.000000
0.017678 -0.017678 1.200000 0.797175 -0.603748 0.000000
-0.040000 -0.008000 1.200000 0.577350 0.577350 0.577350
0.040000 -0.008000 1.200000 -0.816497 0.408248 0.408248
-0.040000 0.008000 1.200000 0.408248 -0.816497 0.408248
0.040000 0.008000 1.200000 -0.408248 -0.408248 0.816497
-0.040000 -0.008000 1.280000 0.408248 0.408248 -0.816497
0.040000 -0.008000 1.280000 -0.408248 0.816497 -0.408248
-0.040000 0.008000 1.280000 0.816497 -0.408248 -0.408248
0.040000 0.008000 1.280000 -0.577350 -0.577350 -0.577350
3 0 1 10
3 1 11 10
3 1 2 11
3 2 12 11
3 2 3 12
3 3 13 12
3 3 4 13
3 4 14 13
3 4 5 14
3 5 15 14
3 5 6 15
3 6 16 15
3 6 7 16
3 7 17 16
3 7 8 17
3 8 18 17
3 8 9 18
3 9 19 18
3 9 0 19
3 0 10 19
3 20 1 0
3 21 10 11
3 20 2 1
3 21 11 12
3 20 3 2
3 21 12 13
3 20 4 3
3 21 13 14
3 20 5 4
3 21 14 15
3 20 6 5
3 21 15 16
3 20 7 6
3 21 16 17
3 20 8 7
3 21 17 18
3 20 9 8
3 21 18 19
3 20 0 9
3 21 19 10
3 22 23 30
3 23 31 30
3 23 24 31
3 24 32 31
3 24 25 32
3 25 33 32
3 25 26 33
3 26 34 33
3 26 27 34
3 27 35 34
3 27 28 35
3 28 36 35
3 28 29 36
3 29 37 36
3 29 22 37
3 22 30 37
3 38 39 41
3 38 41 40
3 42 44 45
3 42 45 43
3 38 42 43
3 38 43 39
3 40 41 45
3 40 45 44
3 38 40 44
3 38 44 42
3 39 43 45
3 39 45 41
