ply
format ascii 1.0
element vertex 50
property float x
property float y
property float z
property float nx
property float ny
property float nz
element face 80
property list uchar int vertex_indices
end_header
-0.065000 -0.020000 0.000000 0.577350 0.577350 0.577350
-0.015000 -0.020000 0.000000 -0.816497 0.408248 0.408248
-0.065000 0.020000 0.000000 0.408248 -0.816497 0.408248
-0.015000 0.020000 0.000000 -0.408248 -0.408248 0.816497
-0.065000 -0.020000 0.700000 0.408248 0.408248 -0.816497
-0.015000 -0.020000 0.700000 -0.408248 0.816497 -0.408248
-0.065000 0.020000 0.700000 0.816497 -0.408248 -0.408248
-0.015000 0.020000 0.700000 -0.577350 -0.577350 -0.577350
-0.050000 -0.030000 0.700000 0.577350 0.577350 0.577350
-0.010000 -0.030000 0.700000 -0.816497 0.408248 0.408248
-0.050000 0.030000 0.700000 0.408248 -0.816497 0.408248
-0.010000 0.030000 0.700000 -0.408248 -0.408248 0.816497
-0.050000 -0.030000 1.000000 0.408248 0.408248 -0.816497
-0.010000 -0.030000 1.000000 -0.408248 0.816497 -0.408248
-0.050000 0.030000 1.000000 0.816497 -0.408248 -0.408248
-0.010000 0.030000 1.000000 -0.577350 -0.577350 -0.577350
0.015000 -0.020000 0.000000 0.577350 0.577350 0.577350
0.065000 -0.020000 0.000000 -0.816497 0.408248 0.408248
0.015000 0.020000 0.000000 0.408248 -0.816497 0.408248
0.065000 0.020000 0.000000 -0.408248 -0.408248 0.816497
0.015000 -0.020000 0.700000 0.408248 0.408248 -0.816497
0.065000 -0.020000 0.700000 -0.408248 0.816497 -0.408248
0.015000 0.020000 0.700000 0.816497 -0.408248 -0.408248
0.065000 0.020000 0.700000 -0.577350 -0.577350 -0.577350
0.010000 -0.030000 0.700000 0.577350 0.577350 0.577350
0.050000 -0.030000 0.700000 -0.816497 0.408248 0.408248
0.010000 0.030000 0.700000 0.408248 -0.816497 0.408248
0.050000 0.030000 0.700000 -0.408248 -0.408248 0.816497
0.010000 -0.030000 1.000000 0.408248 0.408248 -0.816497
0.050000 -0.030000 1.000000 -0.408248 0.816497 -0.408248
0.010000 0.030000 1.000000 0.816497 -0.408248 -0.408248
0.050000 0.030000 1.000000 -0.577350 -0.577350 -0.577350
0.040000 0.000000 0.680000 0.805885 -0.111270 -0.581522
0.028284 0.028284 0.680000 0.648526 0.491167 -0.581522
0.000000 0.040000 0.680000 0.111270 0.805885 -0.581522
-0.028284 0.028284 0.680000 -0.491167 0.648526 -0.581522
-0.040000 0.000000 0.680000 -0.805885 0.111270 -0.581522
-0.028284 -0.028284 0.680000 -0.648526 -0.491167 -0.581522
-0.000000 -0.040000 0.680000 -0.111270 -0.805885 -0.581522
0.028284 -0.028284 0.680000 0.491167 -0.648526 -0.581522
0.040000 0.000000 0.720000 0.805885 0.111270 0.581522
0.028284 0.028284 0.720000 0.491167 0.648526 0.581522
0.000000 0.040000 0.720000 -0.111270 0.805885 0.581522
-0.028284 0.028284 0.720000 -0.648526 0.491167 0.581522
-0.040000 0.000000 0.720000 -0.805885 -0.111270 0.581522
-0.028284 -0.028284 0.720000 -0.491167 -0.648526 0.581522
-0.000000 -0.040000 0.720000 0.111270 -0.805885 0.581522
0.028284 -0.028284 0.720000 0.648526 -0.491167 0.581522
0.000000 0.000000 0.680000 0.000000 0.000000 -1.000000
0.000000 0.000000 0.720000 0.000000 0.000000 1.000000
3 0 1 3
3 0 3 2
3 4 6 7
3 4 7 5
3 0 4 5
3 0 5 1
3 2 3 7
3 2 7 6
3 0 2 6
3 0 6 4
3 1 5 7
3 1 7 3
3 8 9 11
3 8 11 10
3 12 14 15
3 12 15 13
3 8 12 13
3 8 13 9
3 10 11 15
3 10 15 14
3 8 10 14
3 8 14 12
3 9 13 15
3 9 15 11
3 16 17 19
3 16 19 18
3 20 22 23
3 20 23 21
3 16 20 21
3 16 21 17
3 18 19 23
3 18 23 22
3 16 18 22
3 16 22 20
3 17 21 23
3 17 23 19
3 24 25 27
3 24 27 26
3 28 30 31
3 28 31 29
3 24 28 29
3 24 29 25
3 26 27 31
3 26 31 30
3 24 26 30
3 24 30 28
3 25 29 31
3 25 31 27
3 32 33 40
3 33 41 40
3 33 34 41
3 34 42 41
3 34 35 42
3 35 43 42
3 35 36 43
3 36 44 43
3 36 37 44
3 37 45 44
3 37 38 45
3 38 46 45
3 38 39 46
3 39 47 46
3 39 32 47
3 32 40 47
3 48 33 32
3 49 40 41
3 48 34 33
3 49 41 42
3 48 35 34
3 49 42 43
3 48 36 35
3 49 43 44
3 48 37 36
3 49 44 45
3 48 38 37
3 49 45 46
3 48 39 38
3 49 46 47
3 48 32 39
3 49 47 40
