ply
format ascii 1.0
element vertex 16
property float x
property float y
property float z
property float nx
property float ny
property float nz
element face 24
property list uchar int vertex_indices
end_header
-0.040000 -0.040000 0.000000 0.577350 0.577350 0.577350
0.040000 -0.040000 0.000000 -0.816497 0.408248 0.408248
-0.040000 0.040000 0.000000 0.408248 -0.816497 0.408248
0.040000 0.040000 0.000000 -0.408248 -0.408248 0.816497
-0.040000 -0.040000 1.200000 0.408248 0.408248 -0.816497
0.040000 -0.040000 1.200000 -0.408248 0.816497 -0.408248
-0.040000 0.040000 1.200000 0.816497 -0.408248 -0.408248
0.040000 0.040000 1.200000 -0.577350 -0.577350 -0.577350
-0.250000 -0.080000 1.180000 0.577350 0.577350 0.577350
0.250000 -0.080000 1.180000 -0.816497 0.408248 0.408248
-0.250000 0.080000 1.180000 0.408248 -0.816497 0.408248
0.250000 0.080000 1.180000 -0.408248 -0.408248 0.816497
-0.250000 -0.080000 1.380000 0.408248 0.408248 -0.816497
0.250000 -0.080000 1.380000 -0.408248 0.816497 -0.408248
-0.250000 0.080000 1.380000 0.816497 -0.408248 -0.408248
0.250000 0.080000 1.380000 -0.577350 -0.577350 -0.577350
3 0 1 3
3 0 3 2
3 4 6 7
3 4 7 5
3 0 4 5
3 0 5 1
3 2 3 7
3 2 7 6
3 0 2 6
3 0 6 4
3 1 5 7
3 1 7 3
3 8 9 11
3 8 11 10
3 12 14 15
3 12 15 13
3 8 12 13
3 8 13 9
3 10 11 15
3 10 15 14
3 8 10 14
3 8 14 12
3 9 13 15
3 9 15 11
