ply
format ascii 1.0
element vertex 304
property float x
property float y
property float z
property float nx
property float ny
property float nz
element face 492
property list uchar int vertex_indices
end_header
-1.500000 -1.500000 0.000000 0.301511 0.301511 -0.904534
1.500000 -1.500000 0.000000 -0.272166 0.136083 -0.952579
-1.500000 1.500000 0.000000 0.136083 -0.272166 -0.952579
1.500000 1.500000 0.000000 -0.162221 -0.162221 -0.973329
-1.500000 -1.500000 1.200000 0.408248 0.408248 -0.816497
1.500000 -1.500000 1.200000 -0.408248 0.816497 -0.408248
-1.500000 1.500000 1.200000 0.816497 -0.408248 -0.408248
1.500000 1.500000 1.200000 -0.577350 -0.577350 -0.577350
-1.200000 -1.500000 0.000000 0.805885 -0.111270 -0.581522
-1.287868 -1.287868 0.000000 0.648526 0.491167 -0.581522
-1.500000 -1.200000 0.000000 0.111270 0.805885 -0.581522
-1.712132 -1.287868 0.000000 -0.491167 0.648526 -0.581522
-1.800000 -1.500000 0.000000 -0.805885 0.111270 -0.581522
-1.712132 -1.712132 0.000000 -0.648526 -0.491167 -0.581522
-1.500000 -1.800000 0.000000 -0.111270 -0.805885 -0.581522
-1.287868 -1.712132 0.000000 0.491167 -0.648526 -0.581522
-1.200000 -1.500000 1.800000 0.805885 0.111270 0.581522
-1.287868 -1.287868 1.800000 0.491167 0.648526 0.581522
-1.500000 -1.200000 1.800000 -0.111270 0.805885 0.581522
-1.712132 -1.287868 1.800000 -0.648526 0.491167 0.581522
-1.800000 -1.500000 1.800000 -0.805885 -0.111270 0.581522
-1.712132 -1.712132 1.800000 -0.491167 -0.648526 0.581522
-1.500000 -1.800000 1.800000 0.111270 -0.805885 0.581522
-1.287868 -1.712132 1.800000 0.648526 -0.491167 0.581522
-1.500000 -1.500000 1.800000 0.000000 0.000000 0.000000
-1.500000 -1.500000 2.300000 0.000000 -0.000000 1.000000
-1.120000 -1.500000 1.800000 0.871552 -0.000000 -0.490303
-1.231299 -1.231299 1.800000 0.616280 0.616280 -0.490303
-1.500000 -1.120000 1.800000 0.000000 0.871552 -0.490303
-1.768701 -1.231299 1.800000 -0.616280 0.616280 -0.490303
-1.880000 -1.500000 1.800000 -0.871552 0.000000 -0.490303
-1.768701 -1.768701 1.800000 -0.616280 -0.616280 -0.490303
-1.500000 -1.880000 1.800000 0.000000 -0.871552 -0.490303
-1.231299 -1.768701 1.800000 0.616280 -0.616280 -0.490303
1.800000 -1.500000 0.000000 0.805885 -0.111270 -0.581522
1.712132 -1.287868 0.000000 0.648526 0.491167 -0.581522
1.500000 -1.200000 0.000000 0.111270 0.805885 -0.581522
1.287868 -1.287868 0.000000 -0.491167 0.648526 -0.581522
1.200000 -1.500000 0.000000 -0.805885 0.111270 -0.581522
1.287868 -1.712132 0.000000 -0.648526 -0.491167 -0.581522
1.500000 -1.800000 0.000000 -0.111270 -0.805885 -0.581522
1.712132 -1.712132 0.000000 0.491167 -0.648526 -0.581522
1.800000 -1.500000 1.800000 0.805885 0.111270 0.581522
1.712132 -1.287868 1.800000 0.491167 0.648526 0.581522
1.500000 -1.200000 1.800000 -0.111270 0.805885 0.581522
1.287868 -1.287868 1.800000 -0.648526 0.491167 0.581522
1.200000 -1.500000 1.800000 -0.805885 -0.111270 0.581522
1.287868 -1.712132 1.800000 -0.491167 -0.648526 0.581522
1.500000 -1.800000 1.800000 0.111270 -0.805885 0.581522
1.712132 -1.712132 1.800000 0.648526 -0.491167 0.581522
1.500000 -1.500000 1.800000 0.000000 0.000000 0.000000
1.500000 -1.500000 2.300000 0.000000 -0.000000 1.000000
1.880000 -1.500000 1.800000 0.871552 -0.000000 -0.490303
1.768701 -1.231299 1.800000 0.616280 0.616280 -0.490303
1.500000 -1.120000 1.800000 0.000000 0.871552 -0.490303
1.231299 -1.231299 1.800000 -0.616280 0.616280 -0.490303
1.120000 -1.500000 1.800000 -0.871552 0.000000 -0.490303
1.231299 -1.768701 1.800000 -0.616280 -0.616280 -0.490303
1.500000 -1.880000 1.800000 0.000000 -0.871552 -0.490303
1.768701 -1.768701 1.800000 0.616280 -0.616280 -0.490303
1.800000 1.500000 0.000000 0.805885 -0.111270 -0.581522
1.712132 1.712132 0.000000 0.648526 0.491167 -0.581522
1.500000 1.800000 0.000000 0.111270 0.805885 -0.581522
1.287868 1.712132 0.000000 -0.491167 0.648526 -0.581522
1.200000 1.500000 0.000000 -0.805885 0.111270 -0.581522
1.287868 1.287868 0.000000 -0.648526 -0.491167 -0.581522
1.500000 1.200000 0.000000 -0.111270 -0.805885 -0.581522
1.712132 1.287868 0.000000 0.491167 -0.648526 -0.581522
1.800000 1.500000 1.800000 0.805885 0.111270 0.581522
1.712132 1.712132 1.800000 0.491167 0.648526 0.581522
1.500000 1.800000 1.800000 -0.111270 0.805885 0.581522
1.287868 1.712132 1.800000 -0.648526 0.491167 0.581522
1.200000 1.500000 1.800000 -0.805885 -0.111270 0.581522
1.287868 1.287868 1.800000 -0.491167 -0.648526 0.581522
1.500000 1.200000 1.800000 0.111270 -0.805885 0.581522
1.712132 1.287868 1.800000 0.648526 -0.491167 0.581522
1.500000 1.500000 1.800000 0.000000 0.000000 0.000000
1.500000 1.500000 2.300000 0.000000 -0.000000 1.000000
1.880000 1.500000 1.800000 0.871552 -0.000000 -0.490303
1.768701 1.768701 1.800000 0.616280 0.616280 -0.490303
1.500000 1.880000 1.800000 0.000000 0.871552 -0.490303
1.231299 1.768701 1.800000 -0.616280 0.616280 -0.490303
1.120000 1.500000 1.800000 -0.871552 0.000000 -0.490303
1.231299 1.231299 1.800000 -0.616280 -0.616280 -0.490303
1.500000 1.120000 1.800000 0.000000 -0.871552 -0.490303
1.768701 1.231299 1.800000 0.616280 -0.616280 -0.490303
-1.200000 1.500000 0.000000 0.805885 -0.111270 -0.581522
-1.287868 1.712132 0.000000 0.648526 0.491167 -0.581522
-1.500000 1.800000 0.000000 0.111270 0.805885 -0.581522
-1.712132 1.712132 0.000000 -0.491167 0.648526 -0.581522
-1.800000 1.500000 0.000000 -0.805885 0.111270 -0.581522
-1.712132 1.287868 0.000000 -0.648526 -0.491167 -0.581522
-1.500000 1.200000 0.000000 -0.111270 -0.805885 -0.581522
-1.287868 1.287868 0.000000 0.491167 -0.648526 -0.581522
-1.200000 1.500000 1.800000 0.805885 0.111270 0.581522
-1.287868 1.712132 1.800000 0.491167 0.648526 0.581522
-1.500000 1.800000 1.800000 -0.111270 0.805885 0.581522
-1.712132 1.712132 1.800000 -0.648526 0.491167 0.581522
-1.800000 1.500000 1.800000 -0.805885 -0.111270 0.581522
-1.712132 1.287868 1.800000 -0.491167 -0.648526 0.581522
-1.500000 1.200000 1.800000 0.111270 -0.805885 0.581522
-1.287868 1.287868 1.800000 0.648526 -0.491167 0.581522
-1.500000 1.500000 1.800000 0.000000 0.000000 0.000000
-1.500000 1.500000 2.300000 0.000000 -0.000000 1.000000
-1.120000 1.500000 1.800000 0.871552 -0.000000 -0.490303
-1.231299 1.768701 1.800000 0.616280 0.616280 -0.490303
-1.500000 1.880000 1.800000 0.000000 0.871552 -0.490303
-1.768701 1.768701 1.800000 -0.616280 0.616280 -0.490303
-1.880000 1.500000 1.800000 -0.871552 0.000000 -0.490303
-1.768701 1.231299 1.800000 -0.616280 -0.616280 -0.490303
-1.500000 1.120000 1.800000 0.000000 -0.871552 -0.490303
-1.231299 1.231299 1.800000 0.616280 -0.616280 -0.490303
-1.320000 -1.620000 1.200000 0.577350 0.577350 0.577350
-1.080000 -1.620000 1.200000 -0.816497 0.408248 0.408248
-1.320000 -1.380000 1.200000 0.408248 -0.816497 0.408248
-1.080000 -1.380000 1.200000 -0.408248 -0.408248 0.816497
-1.320000 -1.620000 1.440000 0.408248 0.408248 -0.816497
-1.080000 -1.620000 1.440000 -0.408248 0.816497 -0.408248
-1.320000 -1.380000 1.440000 0.816497 -0.408248 -0.408248
-1.080000 -1.380000 1.440000 -0.577350 -0.577350 -0.577350
-1.620000 -1.320000 1.200000 0.577350 0.577350 0.577350
-1.380000 -1.320000 1.200000 -0.816497 0.408248 0.408248
-1.620000 -1.080000 1.200000 0.408248 -0.816497 0.408248
-1.380000 -1.080000 1.200000 -0.408248 -0.408248 0.816497
-1.620000 -1.320000 1.440000 0.408248 0.408248 -0.816497
-1.380000 -1.320000 1.440000 -0.408248 0.816497 -0.408248
-1.620000 -1.080000 1.440000 0.816497 -0.408248 -0.408248
-1.380000 -1.080000 1.440000 -0.577350 -0.577350 -0.577350
-1.320000 1.380000 1.200000 0.577350 0.577350 0.577350
-1.080000 1.380000 1.200000 -0.816497 0.408248 0.408248
-1.320000 1.620000 1.200000 0.408248 -0.816497 0.408248
-1.080000 1.620000 1.200000 -0.408248 -0.408248 0.816497
-1.320000 1.380000 1.440000 0.408248 0.408248 -0.816497
-1.080000 1.380000 1.440000 -0.408248 0.816497 -0.408248
-1.320000 1.620000 1.440000 0.816497 -0.408248 -0.408248
-1.080000 1.620000 1.440000 -0.577350 -0.577350 -0.577350
1.380000 -1.320000 1.200000 0.577350 0.577350 0.577350
1.620000 -1.320000 1.200000 -0.816497 0.408248 0.408248
1.380000 -1.080000 1.200000 0.408248 -0.816497 0.408248
1.620000 -1.080000 1.200000 -0.408248 -0.408248 0.816497
1.380000 -1.320000 1.440000 0.408248 0.408248 -0.816497
1.620000 -1.320000 1.440000 -0.408248 0.816497 -0.408248
1.380000 -1.080000 1.440000 0.816497 -0.408248 -0.408248
1.620000 -1.080000 1.440000 -0.577350 -0.577350 -0.577350
-0.840000 -1.620000 1.200000 0.577350 0.577350 0.577350
-0.600000 -1.620000 1.200000 -0.816497 0.408248 0.408248
-0.840000 -1.380000 1.200000 0.408248 -0.816497 0.408248
-0.600000 -1.380000 1.200000 -0.408248 -0.408248 0.816497
-0.840000 -1.620000 1.440000 0.408248 0.408248 -0.816497
-0.600000 -1.620000 1.440000 -0.408248 0.816497 -0.408248
-0.840000 -1.380000 1.440000 0.816497 -0.408248 -0.408248
-0.600000 -1.380000 1.440000 -0.577350 -0.577350 -0.577350
-1.620000 -0.840000 1.200000 0.577350 0.577350 0.577350
-1.380000 -0.840000 1.200000 -0.816497 0.408248 0.408248
-1.620000 -0.600000 1.200000 0.408248 -0.816497 0.408248
-1.380000 -0.600000 1.200000 -0.408248 -0.408248 0.816497
-1.620000 -0.840000 1.440000 0.408248 0.408248 -0.816497
-1.380000 -0.840000 1.440000 -0.408248 0.816497 -0.408248
-1.620000 -0.600000 1.440000 0.816497 -0.408248 -0.408248
-1.380000 -0.600000 1.440000 -0.577350 -0.577350 -0.577350
-0.840000 1.380000 1.200000 0.577350 0.577350 0.577350
-0.600000 1.380000 1.200000 -0.816497 0.408248 0.408248
-0.840000 1.620000 1.200000 0.408248 -0.816497 0.408248
-0.600000 1.620000 1.200000 -0.408248 -0.408248 0.816497
-0.840000 1.380000 1.440000 0.408248 0.408248 -0.816497
-0.600000 1.380000 1.440000 -0.408248 0.816497 -0.408248
-0.840000 1.620000 1.440000 0.816497 -0.408248 -0.408248
-0.600000 1.620000 1.440000 -0.577350 -0.577350 -0.577350
1.380000 -0.840000 1.200000 0.577350 0.577350 0.577350
1.620000 -0.840000 1.200000 -0.816497 0.408248 0.408248
1.380000 -0.600000 1.200000 0.408248 -0.816497 0.408248
1.620000 -0.600000 1.200000 -0.408248 -0.408248 0.816497
1.380000 -0.840000 1.440000 0.408248 0.408248 -0.816497
1.620000 -0.840000 1.440000 -0.408248 0.816497 -0.408248
1.380000 -0.600000 1.440000 0.816497 -0.408248 -0.408248
1.620000 -0.600000 1.440000 -0.577350 -0.577350 -0.577350
-0.360000 -1.620000 1.200000 0.577350 0.577350 0.577350
-0.120000 -1.620000 1.200000 -0.816497 0.408248 0.408248
-0.360000 -1.380000 1.200000 0.408248 -0.816497 0.408248
-0.120000 -1.380000 1.200000 -0.408248 -0.408248 0.816497
-0.360000 -1.620000 1.440000 0.408248 0.408248 -0.816497
-0.120000 -1.620000 1.440000 -0.408248 0.816497 -0.408248
-0.360000 -1.380000 1.440000 0.816497 -0.408248 -0.408248
-0.120000 -1.380000 1.440000 -0.577350 -0.577350 -0.577350
-1.620000 -0.360000 1.200000 0.577350 0.577350 0.577350
-1.380000 -0.360000 1.200000 -0.816497 0.408248 0.408248
-1.620000 -0.120000 1.200000 0.408248 -0.816497 0.408248
-1.380000 -0.120000 1.200000 -0.408248 -0.408248 0.816497
-1.620000 -0.360000 1.440000 0.408248 0.408248 -0.816497
-1.380000 -0.360000 1.440000 -0.408248 0.816497 -0.408248
-1.620000 -0.120000 1.440000 0.816497 -0.408248 -0.408248
-1.380000 -0.120000 1.440000 -0.577350 -0.577350 -0.577350
-0.360000 1.380000 1.200000 0.577350 0.577350 0.577350
-0.120000 1.380000 1.200000 -0.816497 0.408248 0.408248
-0.360000 1.620000 1.200000 0.408248 -0.816497 0.408248
-0.120000 1.620000 1.200000 -0.408248 -0.408248 0.816497
-0.360000 1.380000 1.440000 0.408248 0.408248 -0.816497
-0.120000 1.380000 1.440000 -0.408248 0.816497 -0.408248
-0.360000 1.620000 1.440000 0.816497 -0.408248 -0.408248
-0.120000 1.620000 1.440000 -0.577350 -0.577350 -0.577350
1.380000 -0.360000 1.200000 0.577350 0.577350 0.577350
1.620000 -0.360000 1.200000 -0.816497 0.408248 0.408248
1.380000 -0.120000 1.200000 0.408248 -0.816497 0.408248
1.620000 -0.120000 1.200000 -0.408248 -0.408248 0.816497
1.380000 -0.360000 1.440000 0.408248 0.408248 -0.816497
1.620000 -0.360000 1.440000 -0.408248 0.816497 -0.408248
1.380000 -0.120000 1.440000 0.816497 -0.408248 -0.408248
1.620000 -0.120000 1.440000 -0.577350 -0.577350 -0.577350
0.120000 -1.620000 1.200000 0.577350 0.577350 0.577350
0.360000 -1.620000 1.200000 -0.816497 0.408248 0.408248
0.120000 -1.380000 1.200000 0.408248 -0.816497 0.408248
0.360000 -1.380000 1.200000 -0.408248 -0.408248 0.816497
0.120000 -1.620000 1.440000 0.408248 0.408248 -0.816497
0.360000 -1.620000 1.440000 -0.408248 0.816497 -0.408248
0.120000 -1.380000 1.440000 0.816497 -0.408248 -0.408248
0.360000 -1.380000 1.440000 -0.577350 -0.577350 -0.577350
-1.620000 0.120000 1.200000 0.577350 0.577350 0.577350
-1.380000 0.120000 1.200000 -0.816497 0.408248 0.408248
-1.620000 0.360000 1.200000 0.408248 -0.816497 0.408248
-1.380000 0.360000 1.200000 -0.408248 -0.408248 0.816497
-1.620000 0.120000 1.440000 0.408248 0.408248 -0.816497
-1.380000 0.120000 1.440000 -0.408248 0.816497 -0.408248
-1.620000 0.360000 1.440000 0.816497 -0.408248 -0.408248
-1.380000 0.360000 1.440000 -0.577350 -0.577350 -0.577350
0.120000 1.380000 1.200000 0.577350 0.577350 0.577350
0.360000 1.380000 1.200000 -0.816497 0.408248 0.408248
0.120000 1.620000 1.200000 0.408248 -0.816497 0.408248
0.360000 1.620000 1.200000 -0.408248 -0.408248 0.816497
0.120000 1.380000 1.440000 0.408248 0.408248 -0.816497
0.360000 1.380000 1.440000 -0.408248 0.816497 -0.408248
0.120000 1.620000 1.440000 0.816497 -0.408248 -0.408248
0.360000 1.620000 1.440000 -0.577350 -0.577350 -0.577350
1.380000 0.120000 1.200000 0.577350 0.577350 0.577350
1.620000 0.120000 1.200000 -0.816497 0.408248 0.408248
1.380000 0.360000 1.200000 0.408248 -0.816497 0.408248
1.620000 0.360000 1.200000 -0.408248 -0.408248 0.816497
1.380000 0.120000 1.440000 0.408248 0.408248 -0.816497
1.620000 0.120000 1.440000 -0.408248 0.816497 -0.408248
1.380000 0.360000 1.440000 0.816497 -0.408248 -0.408248
1.620000 0.360000 1.440000 -0.577350 -0.577350 -0.577350
0.600000 -1.620000 1.200000 0.577350 0.577350 0.577350
0.840000 -1.620000 1.200000 -0.816497 0.408248 0.408248
0.600000 -1.380000 1.200000 0.408248 -0.816497 0.408248
0.840000 -1.380000 1.200000 -0.408248 -0.408248 0.816497
0.600000 -1.620000 1.440000 0.408248 0.408248 -0.816497
0.840000 -1.620000 1.440000 -0.408248 0.816497 -0.408248
0.600000 -1.380000 1.440000 0.816497 -0.408248 -0.408248
0.840000 -1.380000 1.440000 -0.577350 -0.577350 -0.577350
-1.620000 0.600000 1.200000 0.577350 0.577350 0.577350
-1.380000 0.600000 1.200000 -0.816497 0.408248 0.408248
-1.620000 0.840000 1.200000 0.408248 -0.816497 0.408248
-1.380000 0.840000 1.200000 -0.408248 -0.408248 0.816497
-1.620000 0.600000 1.440000 0.408248 0.408248 -0.816497
-1.380000 0.600000 1.440000 -0.408248 0.816497 -0.408248
-1.620000 0.840000 1.440000 0.816497 -0.408248 -0.408248
-1.380000 0.840000 1.440000 -0.577350 -0.577350 -0.577350
0.600000 1.380000 1.200000 0.577350 0.577350 0.577350
0.840000 1.380000 1.200000 -0.816497 0.408248 0.408248
0.600000 1.620000 1.200000 0.408248 -0.816497 0.408248
0.840000 1.620000 1.200000 -0.408248 -0.408248 0.816497
0.600000 1.380000 1.440000 0.408248 0.408248 -0.816497
0.840000 1.380000 1.440000 -0.408248 0.816497 -0.408248
0.600000 1.620000 1.440000 0.816497 -0.408248 -0.408248
0.840000 1.620000 1.440000 -0.577350 -0.577350 -0.577350
1.380000 0.600000 1.200000 0.577350 0.577350 0.577350
1.620000 0.600000 1.200000 -0.816497 0.408248 0.408248
1.380000 0.840000 1.200000 0.408248 -0.816497 0.408248
1.620000 0.840000 1.200000 -0.408248 -0.408248 0.816497
1.380000 0.600000 1.440000 0.408248 0.408248 -0.816497
1.620000 0.600000 1.440000 -0.408248 0.816497 -0.408248
1.380000 0.840000 1.440000 0.816497 -0.408248 -0.408248
1.620000 0.840000 1.440000 -0.577350 -0.577350 -0.577350
1.080000 -1.620000 1.200000 0.577350 0.577350 0.577350
1.320000 -1.620000 1.200000 -0.816497 0.408248 0.408248
1.080000 -1.380000 1.200000 0.408248 -0.816497 0.408248
1.320000 -1.380000 1.200000 -0.408248 -0.408248 0.816497
1.080000 -1.620000 1.440000 0.408248 0.408248 -0.816497
1.320000 -1.620000 1.440000 -0.408248 0.816497 -0.408248
1.080000 -1.380000 1.440000 0.816497 -0.408248 -0.408248
1.320000 -1.380000 1.440000 -0.577350 -0.577350 -0.577350
-1.620000 1.080000 1.200000 0.577350 0.577350 0.577350
-1.380000 1.080000 1.200000 -0.816497 0.408248 0.408248
-1.620000 1.320000 1.200000 0.408248 -0.816497 0.408248
-1.380000 1.320000 1.200000 -0.408248 -0.408248 0.816497
-1.620000 1.080000 1.440000 0.408248 0.408248 -0.816497
-1.380000 1.080000 1.440000 -0.408248 0.816497 -0.408248
-1.620000 1.320000 1.440000 0.816497 -0.408248 -0.408248
-1.380000 1.320000 1.440000 -0.577350 -0.577350 -0.577350
1.080000 1.380000 1.200000 0.577350 0.577350 0.577350
1.320000 1.380000 1.200000 -0.816497 0.408248 0.408248
1.080000 1.620000 1.200000 0.408248 -0.816497 0.408248
1.320000 1.620000 1.200000 -0.408248 -0.408248 0.816497
1.080000 1.380000 1.440000 0.408248 0.408248 -0.816497
1.320000 1.380000 1.440000 -0.408248 0.816497 -0.408248
1.080000 1.620000 1.440000 0.816497 -0.408248 -0.408248
1.320000 1.620000 1.440000 -0.577350 -0.577350 -0.577350
1.380000 1.080000 1.200000 0.577350 0.577350 0.577350
1.620000 1.080000 1.200000 -0.816497 0.408248 0.408248
1.380000 1.320000 1.200000 0.408248 -0.816497 0.408248
1.620000 1.320000 1.200000 -0.408248 -0.408248 0.816497
1.380000 1.080000 1.440000 0.408248 0.408248 -0.816497
1.620000 1.080000 1.440000 -0.408248 0.816497 -0.408248
1.380000 1.320000 1.440000 0.816497 -0.408248 -0.408248
1.620000 1.320000 1.440000 -0.577350 -0.577350 -0.577350
3 0 1 3
3 0 3 2
3 4 6 7
3 4 7 5
3 0 4 5
3 0 5 1
3 2 3 7
3 2 7 6
3 0 2 6
3 0 6 4
3 1 5 7
3 1 7 3
3 8 9 16
3 9 17 16
3 9 10 17
3 10 18 17
3 10 11 18
3 11 19 18
3 11 12 19
3 12 20 19
3 12 13 20
3 13 21 20
3 13 14 21
3 14 22 21
3 14 15 22
3 15 23 22
3 15 8 23
3 8 16 23
3 0 9 8
3 24 16 17
3 0 10 9
3 24 17 18
3 0 11 10
3 24 18 19
3 0 12 11
3 24 19 20
3 0 13 12
3 24 20 21
3 0 14 13
3 24 21 22
3 0 15 14
3 24 22 23
3 0 8 15
3 24 23 16
3 25 26 27
3 24 27 26
3 25 27 28
3 24 28 27
3 25 28 29
3 24 29 28
3 25 29 30
3 24 30 29
3 25 30 31
3 24 31 30
3 25 31 32
3 24 32 31
3 25 32 33
3 24 33 32
3 25 33 26
3 24 26 33
3 34 35 42
3 35 43 42
3 35 36 43
3 36 44 43
3 36 37 44
3 37 45 44
3 37 38 45
3 38 46 45
3 38 39 46
3 39 47 46
3 39 40 47
3 40 48 47
3 40 41 48
3 41 49 48
3 41 34 49
3 34 42 49
3 1 35 34
3 50 42 43
3 1 36 35
3 50 43 44
3 1 37 36
3 50 44 45
3 1 38 37
3 50 45 46
3 1 39 38
3 50 46 47
3 1 40 39
3 50 47 48
3 1 41 40
3 50 48 49
3 1 34 41
3 50 49 42
3 51 52 53
3 50 53 52
3 51 53 54
3 50 54 53
3 51 54 55
3 50 55 54
3 51 55 56
3 50 56 55
3 51 56 57
3 50 57 56
3 51 57 58
3 50 58 57
3 51 58 59
3 50 59 58
3 51 59 52
3 50 52 59
3 60 61 68
3 61 69 68
3 61 62 69
3 62 70 69
3 62 63 70
3 63 71 70
3 63 64 71
3 64 72 71
3 64 65 72
3 65 73 72
3 65 66 73
3 66 74 73
3 66 67 74
3 67 75 74
3 67 60 75
3 60 68 75
3 3 61 60
3 76 68 69
3 3 62 61
3 76 69 70
3 3 63 62
3 76 70 71
3 3 64 63
3 76 71 72
3 3 65 64
3 76 72 73
3 3 66 65
3 76 73 74
3 3 67 66
3 76 74 75
3 3 60 67
3 76 75 68
3 77 78 79
3 76 79 78
3 77 79 80
3 76 80 79
3 77 80 81
3 76 81 80
3 77 81 82
3 76 82 81
3 77 82 83
3 76 83 82
3 77 83 84
3 76 84 83
3 77 84 85
3 76 85 84
3 77 85 78
3 76 78 85
3 86 87 94
3 87 95 94
3 87 88 95
3 88 96 95
3 88 89 96
3 89 97 96
3 89 90 97
3 90 98 97
3 90 91 98
3 91 99 98
3 91 92 99
3 92 100 99
3 92 93 100
3 93 101 100
3 93 86 101
3 86 94 101
3 2 87 86
3 102 94 95
3 2 88 87
3 102 95 96
3 2 89 88
3 102 96 97
3 2 90 89
3 102 97 98
3 2 91 90
3 102 98 99
3 2 92 91
3 102 99 100
3 2 93 92
3 102 100 101
3 2 86 93
3 102 101 94
3 103 104 105
3 102 105 104
3 103 105 106
3 102 106 105
3 103 106 107
3 102 107 106
3 103 107 108
3 102 108 107
3 103 108 109
3 102 109 108
3 103 109 110
3 102 110 109
3 103 110 111
3 102 111 110
3 103 111 104
3 102 104 111
3 112 113 115
3 112 115 114
3 116 118 119
3 116 119 117
3 112 116 117
3 112 117 113
3 114 115 119
3 114 119 118
3 112 114 118
3 112 118 116
3 113 117 119
3 113 119 115
3 120 121 123
3 120 123 122
3 124 126 127
3 124 127 125
3 120 124 125
3 120 125 121
3 122 123 127
3 122 127 126
3 120 122 126
3 120 126 124
3 121 125 127
3 121 127 123
3 128 129 131
3 128 131 130
3 132 134 135
3 132 135 133
3 128 132 133
3 128 133 129
3 130 131 135
3 130 135 134
3 128 130 134
3 128 134 132
3 129 133 135
3 129 135 131
3 136 137 139
3 136 139 138
3 140 142 143
3 140 143 141
3 136 140 141
3 136 141 137
3 138 139 143
3 138 143 142
3 136 138 142
3 136 142 140
3 137 141 143
3 137 143 139
3 144 145 147
3 144 147 146
3 148 150 151
3 148 151 149
3 144 148 149
3 144 149 145
3 146 147 151
3 146 151 150
3 144 146 150
3 144 150 148
3 145 149 151
3 145 151 147
3 152 153 155
3 152 155 154
3 156 158 159
3 156 159 157
3 152 156 157
3 152 157 153
3 154 155 159
3 154 159 158
3 152 154 158
3 152 158 156
3 153 157 159
3 153 159 155
3 160 161 163
3 160 163 162
3 164 166 167
3 164 167 165
3 160 164 165
3 160 165 161
3 162 163 167
3 162 167 166
3 160 162 166
3 160 166 164
3 161 165 167
3 161 167 163
3 168 169 171
3 168 171 170
3 172 174 175
3 172 175 173
3 168 172 173
3 168 173 169
3 170 171 175
3 170 175 174
3 168 170 174
3 168 174 172
3 169 173 175
3 169 175 171
3 176 177 179
3 176 179 178
3 180 182 183
3 180 183 181
3 176 180 181
3 176 181 177
3 178 179 183
3 178 183 182
3 176 178 182
3 176 182 180
3 177 181 183
3 177 183 179
3 184 185 187
3 184 187 186
3 188 190 191
3 188 191 189
3 184 188 189
3 184 189 185
3 186 187 191
3 186 191 190
3 184 186 190
3 184 190 188
3 185 189 191
3 185 191 187
3 192 193 195
3 192 195 194
3 196 198 199
3 196 199 197
3 192 196 197
3 192 197 193
3 194 195 199
3 194 199 198
3 192 194 198
3 192 198 196
3 193 197 199
3 193 199 195
3 200 201 203
3 200 203 202
3 204 206 207
3 204 207 205
3 200 204 205
3 200 205 201
3 202 203 207
3 202 207 206
3 200 202 206
3 200 206 204
3 201 205 207
3 201 207 203
3 208 209 211
3 208 211 210
3 212 214 215
3 212 215 213
3 208 212 213
3 208 213 209
3 210 211 215
3 210 215 214
3 208 210 214
3 208 214 212
3 209 213 215
3 209 215 211
3 216 217 219
3 216 219 218
3 220 222 223
3 220 223 221
3 216 220 221
3 216 221 217
3 218 219 223
3 218 223 222
3 216 218 222
3 216 222 220
3 217 221 223
3 217 223 219
3 224 225 227
3 224 227 226
3 228 230 231
3 228 231 229
3 224 228 229
3 224 229 225
3 226 227 231
3 226 231 230
3 224 226 230
3 224 230 228
3 225 229 231
3 225 231 227
3 232 233 235
3 232 235 234
3 236 238 239
3 236 239 237
3 232 236 237
3 232 237 233
3 234 235 239
3 234 239 238
3 232 234 238
3 232 238 236
3 233 237 239
3 233 239 235
3 240 241 243
3 240 243 242
3 244 246 247
3 244 247 245
3 240 244 245
3 240 245 241
3 242 243 247
3 242 247 246
3 240 242 246
3 240 246 244
3 241 245 247
3 241 247 243
3 248 249 251
3 248 251 250
3 252 254 255
3 252 255 253
3 248 252 253
3 248 253 249
3 250 251 255
3 250 255 254
3 248 250 254
3 248 254 252
3 249 253 255
3 249 255 251
3 256 257 259
3 256 259 258
3 260 262 263
3 260 263 261
3 256 260 261
3 256 261 257
3 258 259 263
3 258 263 262
3 256 258 262
3 256 262 260
3 257 261 263
3 257 263 259
3 264 265 267
3 264 267 266
3 268 270 271
3 268 271 269
3 264 268 269
3 264 269 265
3 266 267 271
3 266 271 270
3 264 266 270
3 264 270 268
3 265 269 271
3 265 271 267
3 272 273 275
3 272 275 274
3 276 278 279
3 276 279 277
3 272 276 277
3 272 277 273
3 274 275 279
3 274 279 278
3 272 274 278
3 272 278 276
3 273 277 279
3 273 279 275
3 280 281 283
3 280 283 282
3 284 286 287
3 284 287 285
3 280 284 285
3 280 285 281
3 282 283 287
3 282 287 286
3 280 282 286
3 280 286 284
3 281 285 287
3 281 287 283
3 288 289 291
3 288 291 290
3 292 294 295
3 292 295 293
3 288 292 293
3 288 293 289
3 290 291 295
3 290 295 294
3 288 290 294
3 288 294 292
3 289 293 295
3 289 295 291
3 296 297 299
3 296 299 298
3 300 302 303
3 300 303 301
3 296 300 301
3 296 301 297
3 298 299 303
3 298 303 302
3 296 298 302
3 296 302 300
3 297 301 303
3 297 303 299
