ply
format ascii 1.0
element vertex 39
property float x
property float y
property float z
property float nx
property float ny
property float nz
element face 72
property list uchar int vertex_indices
end_header
0.500000 0.000000 0.000000 0.820795 -0.073310 -0.566499
0.433013 0.250000 0.000000 0.747484 0.346909 -0.566499
0.250000 0.433013 0.000000 0.473886 0.674174 -0.566499
0.000000 0.500000 0.000000 0.073310 0.820795 -0.566499
-0.250000 0.433013 0.000000 -0.346909 0.747484 -0.566499
-0.433013 0.250000 0.000000 -0.674174 0.473886 -0.566499
-0.500000 0.000000 0.000000 -0.820795 0.073310 -0.566499
-0.433013 -0.250000 0.000000 -0.747484 -0.346909 -0.566499
-0.250000 -0.433013 0.000000 -0.473886 -0.674174 -0.566499
-0.000000 -0.500000 0.000000 -0.073310 -0.820795 -0.566499
0.250000 -0.433013 0.000000 0.346909 -0.747484 -0.566499
0.433013 -0.250000 0.000000 0.674174 -0.473886 -0.566499
0.500000 0.000000 2.500000 0.820795 0.073310 0.566499
0.433013 0.250000 2.500000 0.674174 0.473886 0.566499
0.250000 0.433013 2.500000 0.346909 0.747484 0.566499
0.000000 0.500000 2.500000 -0.073310 0.820795 0.566499
-0.250000 0.433013 2.500000 -0.473886 0.674174 0.566499
-0.433013 0.250000 2.500000 -0.747484 0.346909 0.566499
-0.500000 0.000000 2.500000 -0.820795 -0.073310 0.566499
-0.433013 -0.250000 2.500000 -0.674174 -0.473886 0.566499
-0.250000 -0.433013 2.500000 -0.346909 -0.747484 0.566499
-0.000000 -0.500000 2.500000 0.073310 -0.820795 0.566499
0.250000 -0.433013 2.500000 0.473886 -0.674174 0.566499
0.433013 -0.250000 2.500000 0.747484 -0.346909 0.566499
0.000000 0.000000 0.000000 0.000000 0.000000 -1.000000
0.000000 0.000000 2.500000 0.000000 0.000000 0.000000
0.000000 0.000000 3.300000 -0.000000 -0.000000 1.000000
0.650000 0.000000 2.500000 0.893160 -0.000000 -0.449739
0.562917 0.325000 2.500000 0.773499 0.446580 -0.449739
0.325000 0.562917 2.500000 0.446580 0.773499 -0.449739
0.000000 0.650000 2.500000 0.000000 0.893160 -0.449739
-0.325000 0.562917 2.500000 -0.446580 0.773499 -0.449739
-0.562917 0.325000 2.500000 -0.773499 0.446580 -0.449739
-0.650000 0.000000 2.500000 -0.893160 0.000000 -0.449739
-0.562917 -0.325000 2.500000 -0.773499 -0.446580 -0.449739
-0.325000 -0.562917 2.500000 -0.446580 -0.773499 -0.449739
-0.000000 -0.650000 2.500000 -0.000000 -0.893160 -0.449739
0.325000 -0.562917 2.500000 0.446580 -0.773499 -0.449739
0.562917 -0.325000 2.500000 0.773499 -0.446580 -0.449739
3 0 1 12
3 1 13 12
3 1 2 13
3 2 14 13
3 2 3 14
3 3 15 14
3 3 4 15
3 4 16 15
3 4 5 16
3 5 17 16
3 5 6 17
3 6 18 17
3 6 7 18
3 7 19 18
3 7 8 19
3 8 20 19
3 8 9 20
3 9 21 20
3 9 10 21
3 10 22 21
3 10 11 22
3 11 23 22
3 11 0 23
3 0 12 23
3 24 1 0
3 25 12 13
3 24 2 1
3 25 13 14
3 24 3 2
3 25 14 15
3 24 4 3
3 25 15 16
3 24 5 4
3 25 16 17
3 24 6 5
3 25 17 18
3 24 7 6
3 25 18 19
3 24 8 7
3 25 19 20
3 24 9 8
3 25 20 21
3 24 10 9
3 25 21 22
3 24 11 10
3 25 22 23
3 24 0 11
3 25 23 12
3 26 27 28
3 25 28 27
3 26 28 29
3 25 29 28
3 26 29 30
3 25 30 29
3 26 30 31
3 25 31 30
3 26 31 32
3 25 32 31
3 26 32 33
3 25 33 32
3 26 33 34
3 25 34 33
3 26 34 35
3 25 35 34
3 26 35 36
3 25 36 35
3 26 36 37
3 25 37 36
3 26 37 38
3 25 38 37
3 26 38 27
3 25 27 38
