ply
format ascii 1.0
element vertex 14
property float x
property float y
property float z
property float nx
property float ny
property float nz
element face 18
property list uchar int vertex_indices
end_header
-1.000000 -0.800000 0.000000 0.577350 0.577350 0.577350
1.000000 -0.800000 0.000000 -0.816497 0.408248 0.408248
-1.000000 0.800000 0.000000 0.408248 -0.816497 0.408248
1.000000 0.800000 0.000000 -0.408248 -0.408248 0.816497
-1.000000 -0.800000 1.000000 0.408248 0.408248 -0.816497
1.000000 -0.800000 1.000000 -0.408248 0.816497 -0.408248
-1.000000 0.800000 1.000000 0.816497 -0.408248 -0.408248
1.000000 0.800000 1.000000 -0.577350 -0.577350 -0.577350
-1.150000 -0.950000 1.000000 -0.327084 -0.707107 0.626910
1.150000 -0.950000 1.000000 0.413732 -0.447214 0.792986
1.150000 0.950000 1.000000 0.327084 0.707107 0.626910
-1.150000 0.950000 1.000000 -0.413732 0.447214 0.792986
0.000000 -0.950000 1.600000 -0.160673 -0.347351 0.923868
0.000000 0.950000 1.600000 0.160673 0.347351 0.923868
3 0 1 3
3 0 3 2
3 4 6 7
3 4 7 5
3 0 4 5
3 0 5 1
3 2 3 7
3 2 7 6
3 0 2 6
3 0 6 4
3 1 5 7
3 1 7 3
3 8 9 12
3 9 13 12
3 9 10 13
3 10 11 13
3 11 8 12
3 11 12 13
