ply
format ascii 1.0
element vertex 84
property float x
property float y
property float z
property float nx
property float ny
property float nz
element face 92
property list uchar int vertex_indices
end_header
-2.000000 -0.400000 0.800000 0.577350 0.577350 0.577350
2.000000 -0.400000 0.800000 -0.816497 0.408248 0.408248
-2.000000 0.400000 0.800000 0.408248 -0.816497 0.408248
2.000000 0.400000 0.800000 -0.408248 -0.408248 0.816497
-2.000000 -0.400000 0.900000 0.408248 0.408248 -0.816497
2.000000 -0.400000 0.900000 -0.408248 0.816497 -0.408248
-2.000000 0.400000 0.900000 0.816497 -0.408248 -0.408248
2.000000 0.400000 0.900000 -0.577350 -0.577350 -0.577350
-0.700000 -0.400000 0.000000 -0.993712 0.000000 0.111964
-0.700000 -0.450000 0.000000 -0.993712 0.000000 0.111964
-0.682450 -0.400000 0.155765 -0.982593 0.000000 0.185774
-0.682450 -0.450000 0.155765 -0.965890 0.000000 0.258954
-0.630678 -0.400000 0.303719 -0.916618 0.000000 0.399764
-0.630678 -0.450000 0.303719 -0.884050 0.000000 0.467392
-0.547282 -0.400000 0.436443 -0.804681 0.000000 0.593707
-0.547282 -0.450000 0.436443 -0.757880 0.000000 0.652394
-0.436443 -0.400000 0.547282 -0.652394 0.000000 0.757880
-0.436443 -0.450000 0.547282 -0.593707 0.000000 0.804681
-0.303719 -0.400000 0.630678 -0.467392 0.000000 0.884050
-0.303719 -0.450000 0.630678 -0.399764 0.000000 0.916618
-0.155765 -0.400000 0.682450 -0.258954 0.000000 0.965890
-0.155765 -0.450000 0.682450 -0.185774 0.000000 0.982593
-0.000000 -0.400000 0.700000 -0.037531 0.000000 0.999295
-0.000000 -0.450000 0.700000 0.037531 0.000000 0.999295
0.155765 -0.400000 0.682450 0.185774 0.000000 0.982593
0.155765 -0.450000 0.682450 0.258954 0.000000 0.965890
0.303719 -0.400000 0.630678 0.399764 0.000000 0.916618
0.303719 -0.450000 0.630678 0.467392 0.000000 0.884050
0.436443 -0.400000 0.547282 0.593707 0.000000 0.804681
0.436443 -0.450000 0.547282 0.652394 0.000000 0.757880
0.547282 -0.400000 0.436443 0.757880 0.000000 0.652394
0.547282 -0.450000 0.436443 0.804681 0.000000 0.593707
0.630678 -0.400000 0.303719 0.884050 0.000000 0.467392
0.630678 -0.450000 0.303719 0.916618 0.000000 0.399764
0.682450 -0.400000 0.155765 0.965890 0.000000 0.258954
0.682450 -0.450000 0.155765 0.982593 0.000000 0.185774
0.700000 -0.400000 0.000000 0.993712 0.000000 0.111964
0.700000 -0.450000 0.000000 0.993712 0.000000 0.111964
-0.700000 0.400000 0.000000 0.993712 0.000000 -0.111964
-0.700000 0.450000 0.000000 0.993712 0.000000 -0.111964
-0.682450 0.400000 0.155765 0.982593 0.000000 -0.185774
-0.682450 0.450000 0.155765 0.965890 0.000000 -0.258954
-0.630678 0.400000 0.303719 0.916618 0.000000 -0.399764
-0.630678 0.450000 0.303719 0.884050 0.000000 -0.467392
-0.547282 0.400000 0.436443 0.804681 0.000000 -0.593707
-0.547282 0.450000 0.436443 0.757880 0.000000 -0.652394
-0.436443 0.400000 0.547282 0.652394 0.000000 -0.757880
-0.436443 0.450000 0.547282 0.593707 0.000000 -0.804681
-0.303719 0.400000 0.630678 0.467392 0.000000 -0.884050
-0.303719 0.450000 0.630678 0.399764 0.000000 -0.916618
-0.155765 0.400000 0.682450 0.258954 0.000000 -0.965890
-0.155765 0.450000 0.682450 0.185774 0.000000 -0.982593
-0.000000 0.400000 0.700000 0.037531 0.000000 -0.999295
-0.000000 0.450000 0.700000 -0.037531 0.000000 -0.999295
0.155765 0.400000 0.682450 -0.185774 0.000000 -0.982593
0.155765 0.450000 0.682450 -0.258954 0.000000 -0.965890
0.303719 0.400000 0.630678 -0.399764 0.000000 -0.916618
0.303719 0.450000 0.630678 -0.467392 0.000000 -0.884050
0.436443 0.400000 0.547282 -0.593707 0.000000 -0.804681
0.436443 0.450000 0.547282 -0.652394 0.000000 -0.757880
0.547282 0.400000 0.436443 -0.757880 0.000000 -0.652394
0.547282 0.450000 0.436443 -0.804681 0.000000 -0.593707
0.630678 0.400000 0.303719 -0.884050 0.000000 -0.467392
0.630678 0.450000 0.303719 -0.916618 0.000000 -0.399764
0.682450 0.400000 0.155765 -0.965890 0.000000 -0.258954
0.682450 0.450000 0.155765 -0.982593 0.000000 -0.185774
0.700000 0.400000 0.000000 -0.993712 0.000000 -0.111964
0.700000 0.450000 0.000000 -0.993712 0.000000 -0.111964
-1.750000 -0.400000 0.000000 0.577350 0.577350 0.577350
-1.450000 -0.400000 0.000000 -0.816497 0.408248 0.408248
-1.750000 0.400000 0.000000 0.408248 -0.816497 0.408248
-1.450000 0.400000 0.000000 -0.408248 -0.408248 0.816497
-1.750000 -0.400000 0.840000 0.408248 0.408248 -0.816497
-1.450000 -0.400000 0.840000 -0.408248 0.816497 -0.408248
-1.750000 0.400000 0.840000 0.816497 -0.408248 -0.408248
-1.450000 0.400000 0.840000 -0.577350 -0.577350 -0.577350
1.450000 -0.400000 0.000000 0.577350 0.577350 0.577350
1.750000 -0.400000 0.000000 -0.816497 0.408248 0.408248
1.450000 0.400000 0.000000 0.408248 -0.816497 0.408248
1.750000 0.400000 0.000000 -0.408248 -0.408248 0.816497
1.450000 -0.400000 0.840000 0.408248 0.408248 -0.816497
1.750000 -0.400000 0.840000 -0.408248 0.816497 -0.408248
1.450000 0.400000 0.840000 0.816497 -0.408248 -0.408248
1.750000 0.400000 0.840000 -0.577350 -0.577350 -0.577350
3 0 1 3
3 0 3 2
3 4 6 7
3 4 7 5
3 0 4 5
3 0 5 1
3 2 3 7
3 2 7 6
3 0 2 6
3 0 6 4
3 1 5 7
3 1 7 3
3 8 9 10
3 9 11 10
3 10 11 12
3 11 13 12
3 12 13 14
3 13 15 14
3 14 15 16
3 15 17 16
3 16 17 18
3 17 19 18
3 18 19 20
3 19 21 20
3 20 21 22
3 21 23 22
3 22 23 24
3 23 25 24
3 24 25 26
3 25 27 26
3 26 27 28
3 27 29 28
3 28 29 30
3 29 31 30
3 30 31 32
3 31 33 32
3 32 33 34
3 33 35 34
3 34 35 36
3 35 37 36
3 38 39 40
3 39 41 40
3 40 41 42
3 41 43 42
3 42 43 44
3 43 45 44
3 44 45 46
3 45 47 46
3 46 47 48
3 47 49 48
3 48 49 50
3 49 51 50
3 50 51 52
3 51 53 52
3 52 53 54
3 53 55 54
3 54 55 56
3 55 57 56
3 56 57 58
3 57 59 58
3 58 59 60
3 59 61 60
3 60 61 62
3 61 63 62
3 62 63 64
3 63 65 64
3 64 65 66
3 65 67 66
3 68 69 71
3 68 71 70
3 72 74 75
3 72 75 73
3 68 72 73
3 68 73 69
3 70 71 75
3 70 75 74
3 68 70 74
3 68 74 72
3 69 73 75
3 69 75 71
3 76 77 79
3 76 79 78
3 80 82 83
3 80 83 81
3 76 80 81
3 76 81 77
3 78 79 83
3 78 83 82
3 76 78 82
3 76 82 80
3 77 81 83
3 77 83 79
