ply
format ascii 1.0
element vertex 6
property float x
property float y
property float z
property float nx
property float ny
property float nz
element face 8
property list uchar int vertex_indices
end_header
0.000000 0.000000 2.000000 -0.000000 0.000000 1.000000
1.500000 0.000000 0.000000 0.761646 0.000000 -0.647994
0.000000 1.500000 0.000000 0.000000 0.761646 -0.647994
-1.500000 0.000000 0.000000 -0.761646 0.000000 -0.647994
-0.000000 -1.500000 0.000000 -0.000000 -0.761646 -0.647994
0.000000 0.000000 0.000000 0.000000 0.000000 -1.000000
3 0 1 2
3 5 2 1
3 0 2 3
3 5 3 2
3 0 3 4
3 5 4 3
3 0 4 1
3 5 1 4
