ply
format ascii 1.0
element vertex 239
property float x
property float y
property float z
property float nx
property float ny
property float nz
element face 450
property list uchar int vertex_indices
end_header
0.000000 0.000000 0.560000 0.000000 -0.000000 -1.000000
0.154508 0.000000 0.547764 -0.180225 0.014122 -0.983524
0.139207 0.053631 0.547764 -0.167044 -0.084781 -0.982298
0.096334 0.096640 0.547764 -0.120476 -0.166142 -0.978715
0.034381 0.120508 0.547764 -0.050573 -0.214072 -0.975508
-0.034381 0.120508 0.547764 0.028820 -0.220113 -0.975049
-0.096334 0.096640 0.547764 0.102785 -0.183306 -0.977668
-0.139207 0.053631 0.547764 0.157050 -0.110028 -0.981442
-0.154508 0.000000 0.547764 0.180225 -0.014122 -0.983524
-0.139207 -0.053631 0.547764 0.167044 0.084781 -0.982298
-0.096334 -0.096640 0.547764 0.120476 0.166142 -0.978715
-0.034381 -0.120508 0.547764 0.050573 0.214072 -0.975508
0.034381 -0.120508 0.547764 -0.028820 0.220113 -0.975049
0.096334 -0.096640 0.547764 -0.102785 0.183306 -0.977668
0.139207 -0.053631 0.547764 -0.157050 0.110028 -0.981442
0.293893 0.000000 0.512254 -0.348747 0.009488 -0.937169
0.264788 0.102012 0.512254 -0.315773 -0.178948 -0.931807
0.183239 0.183820 0.512254 -0.218843 -0.327313 -0.919225
0.065397 0.229219 0.512254 -0.081959 -0.408258 -0.909180
-0.065397 0.229219 0.512254 0.068339 -0.411640 -0.908781
-0.183239 0.183820 0.512254 0.207060 -0.337563 -0.918247
-0.264788 0.102012 0.512254 0.308577 -0.195301 -0.930934
-0.293893 0.000000 0.512254 0.348747 -0.009488 -0.937169
-0.264788 -0.102012 0.512254 0.315773 0.178948 -0.931807
-0.183239 -0.183820 0.512254 0.218843 0.327313 -0.919225
-0.065397 -0.229219 0.512254 0.081959 0.408258 -0.909180
0.065397 -0.229219 0.512254 -0.068339 0.411640 -0.908781
0.183239 -0.183820 0.512254 -0.207060 0.337563 -0.918247
0.264788 -0.102012 0.512254 -0.308577 0.195301 -0.930934
0.404508 0.000000 0.456946 -0.580098 0.011869 -0.814460
0.364450 0.140408 0.456946 -0.519099 -0.296775 -0.801536
0.252207 0.253006 0.456946 -0.350362 -0.527825 -0.773723
0.090012 0.315493 0.456946 -0.126628 -0.645494 -0.753196
-0.090012 0.315493 0.456946 0.111698 -0.648428 -0.753037
-0.252207 0.253006 0.456946 0.335933 -0.537945 -0.773152
-0.364450 0.140408 0.456946 0.508928 -0.315778 -0.800798
-0.404508 0.000000 0.456946 0.580098 -0.011869 -0.814460
-0.364450 -0.140408 0.456946 0.519099 0.296775 -0.801536
-0.252207 -0.253006 0.456946 0.350362 0.527825 -0.773723
-0.090012 -0.315493 0.456946 0.126628 0.645494 -0.753196
0.090012 -0.315493 0.456946 -0.111698 0.648428 -0.753037
0.252207 -0.253006 0.456946 -0.335933 0.537945 -0.773152
0.364450 -0.140408 0.456946 -0.508928 0.315778 -0.800798
0.475528 0.000000 0.387254 -0.850996 0.011740 -0.525042
0.428436 0.165059 0.387254 -0.747329 -0.429697 -0.506813
0.296487 0.297426 0.387254 -0.485406 -0.734813 -0.473741
0.105815 0.370885 0.387254 -0.168442 -0.875823 -0.452284
-0.105815 0.370885 0.387254 0.156355 -0.877377 -0.453610
-0.296487 0.297426 0.387254 0.471803 -0.741557 -0.476965
-0.428436 0.165059 0.387254 0.735558 -0.446339 -0.509642
-0.475528 0.000000 0.387254 0.850996 -0.011740 -0.525042
-0.428436 -0.165059 0.387254 0.747329 0.429697 -0.506813
-0.296487 -0.297426 0.387254 0.485406 0.734813 -0.473741
-0.105815 -0.370885 0.387254 0.168442 0.875823 -0.452284
0.105815 -0.370885 0.387254 -0.156355 0.877377 -0.453610
0.296487 -0.297426 0.387254 -0.471803 0.741557 -0.476965
0.428436 -0.165059 0.387254 -0.735558 0.446339 -0.509642
0.500000 0.000000 0.310000 -1.000000 -0.000000 -0.000000
0.450484 0.173553 0.310000 -0.861923 -0.507024 0.003943
0.311745 0.312733 0.310000 -0.545276 -0.838248 0.003795
0.111260 0.389971 0.310000 -0.182642 -0.983178 0.001407
-0.111260 0.389971 0.310000 0.182642 -0.983178 -0.001407
-0.311745 0.312733 0.310000 0.545276 -0.838248 -0.003795
-0.450484 0.173553 0.310000 0.861923 -0.507024 -0.003943
-0.500000 0.000000 0.310000 1.000000 -0.000000 -0.000000
-0.450484 -0.173553 0.310000 0.861923 0.507024 0.003943
-0.311745 -0.312733 0.310000 0.545276 0.838248 0.003795
-0.111260 -0.389971 0.310000 0.182642 0.983178 0.001407
0.111260 -0.389971 0.310000 -0.182642 0.983178 -0.001407
0.311745 -0.312733 0.310000 -0.545276 0.838248 -0.003795
0.450484 -0.173553 0.310000 -0.861923 0.507024 -0.003943
0.475528 0.000000 0.232746 -0.850996 -0.011740 0.525042
0.428436 0.165059 0.232746 -0.735558 -0.446339 0.509642
0.296487 0.297426 0.232746 -0.471803 -0.741557 0.476965
0.105815 0.370885 0.232746 -0.156355 -0.877377 0.453610
-0.105815 0.370885 0.232746 0.168442 -0.875823 0.452284
-0.296487 0.297426 0.232746 0.485406 -0.734813 0.473741
-0.428436 0.165059 0.232746 0.747329 -0.429697 0.506813
-0.475528 0.000000 0.232746 0.850996 0.011740 0.525042
-0.428436 -0.165059 0.232746 0.735558 0.446339 0.509642
-0.296487 -0.297426 0.232746 0.471803 0.741557 0.476965
-0.105815 -0.370885 0.232746 0.156355 0.877377 0.453610
0.105815 -0.370885 0.232746 -0.168442 0.875823 0.452284
0.296487 -0.297426 0.232746 -0.485406 0.734813 0.473741
0.428436 -0.165059 0.232746 -0.747329 0.429697 0.506813
0.404508 0.000000 0.163054 -0.580098 -0.011869 0.814460
0.364450 0.140408 0.163054 -0.508928 -0.315778 0.800798
0.252207 0.253006 0.163054 -0.335933 -0.537945 0.773152
0.090012 0.315493 0.163054 -0.111698 -0.648428 0.753037
-0.090012 0.315493 0.163054 0.126628 -0.645494 0.753196
-0.252207 0.253006 0.163054 0.350362 -0.527825 0.773723
-0.364450 0.140408 0.163054 0.519099 -0.296775 0.801536
-0.404508 0.000000 0.163054 0.580098 0.011869 0.814460
-0.364450 -0.140408 0.163054 0.508928 0.315778 0.800798
-0.252207 -0.253006 0.163054 0.335933 0.537945 0.773152
-0.090012 -0.315493 0.163054 0.111698 0.648428 0.753037
0.090012 -0.315493 0.163054 -0.126628 0.645494 0.753196
0.252207 -0.253006 0.163054 -0.350362 0.527825 0.773723
0.364450 -0.140408 0.163054 -0.519099 0.296775 0.801536
0.293893 0.000000 0.107746 -0.348747 -0.009488 0.937169
0.264788 0.102012 0.107746 -0.308577 -0.195301 0.930934
0.183239 0.183820 0.107746 -0.207060 -0.337563 0.918247
0.065397 0.229219 0.107746 -0.068339 -0.411640 0.908781
-0.065397 0.229219 0.107746 0.081959 -0.408258 0.909180
-0.183239 0.183820 0.107746 0.218843 -0.327313 0.919225
-0.264788 0.102012 0.107746 0.315773 -0.178948 0.931807
-0.293893 0.000000 0.107746 0.348747 0.009488 0.937169
-0.264788 -0.102012 0.107746 0.308577 0.195301 0.930934
-0.183239 -0.183820 0.107746 0.207060 0.337563 0.918247
-0.065397 -0.229219 0.107746 0.068339 0.411640 0.908781
0.065397 -0.229219 0.107746 -0.081959 0.408258 0.909180
0.183239 -0.183820 0.107746 -0.218843 0.327313 0.919225
0.264788 -0.102012 0.107746 -0.315773 0.178948 0.931807
0.154508 0.000000 0.072236 -0.180225 -0.014122 0.983524
0.139207 0.053631 0.072236 -0.157050 -0.110028 0.981442
0.096334 0.096640 0.072236 -0.102785 -0.183306 0.977668
0.034381 0.120508 0.072236 -0.028820 -0.220113 0.975049
-0.034381 0.120508 0.072236 0.050573 -0.214072 0.975508
-0.096334 0.096640 0.072236 0.120476 -0.166142 0.978715
-0.139207 0.053631 0.072236 0.167044 -0.084781 0.982298
-0.154508 0.000000 0.072236 0.180225 0.014122 0.983524
-0.139207 -0.053631 0.072236 0.157050 0.110028 0.981442
-0.096334 -0.096640 0.072236 0.102785 0.183306 0.977668
-0.034381 -0.120508 0.072236 0.028820 0.220113 0.975049
0.034381 -0.120508 0.072236 -0.050573 0.214072 0.975508
0.096334 -0.096640 0.072236 -0.120476 0.166142 0.978715
0.139207 -0.053631 0.072236 -0.167044 0.084781 0.982298
0.000000 0.000000 0.060000 -0.000000 -0.000000 1.000000
0.000000 0.450000 0.310000 0.000000 -0.000000 -1.000000
0.070534 0.450000 0.290902 -0.569577 0.087743 -0.817241
0.035267 0.511084 0.290902 -0.360776 -0.449397 -0.817241
-0.035267 0.511084 0.290902 0.208801 -0.537140 -0.817241
-0.070534 0.450000 0.290902 0.569577 -0.087743 -0.817241
-0.035267 0.388916 0.290902 0.360776 0.449397 -0.817241
0.035267 0.388916 0.290902 -0.208801 0.537140 -0.817241
0.114127 0.450000 0.240902 -0.932419 0.020153 -0.360816
0.057063 0.548837 0.240902 -0.483663 -0.797422 -0.360816
-0.057063 0.548837 0.240902 0.448757 -0.817575 -0.360816
-0.114127 0.450000 0.240902 0.932419 -0.020153 -0.360816
-0.057063 0.351163 0.240902 0.483663 0.797422 -0.360816
0.057063 0.351163 0.240902 -0.448757 0.817575 -0.360816
0.114127 0.450000 0.179098 -0.932419 -0.020153 0.360816
0.057063 0.548837 0.179098 -0.448757 -0.817575 0.360816
-0.057063 0.548837 0.179098 0.483663 -0.797422 0.360816
-0.114127 0.450000 0.179098 0.932419 0.020153 0.360816
-0.057063 0.351163 0.179098 0.448757 0.817575 0.360816
0.057063 0.351163 0.179098 -0.483663 0.797422 0.360816
0.070534 0.450000 0.129098 -0.569577 -0.087743 0.817241
0.035267 0.511084 0.129098 -0.208801 -0.537140 0.817241
-0.035267 0.511084 0.129098 0.360776 -0.449397 0.817241
-0.070534 0.450000 0.129098 0.569577 0.087743 0.817241
-0.035267 0.388916 0.129098 0.208801 0.537140 0.817241
0.035267 0.388916 0.129098 -0.360776 0.449397 0.817241
0.000000 0.450000 0.110000 -0.000000 0.000000 1.000000
-0.400000 0.200000 0.120000 0.000178 0.000000 -1.000000
-0.315147 0.200000 0.102426 -0.511373 0.197719 -0.836304
-0.373779 0.240350 0.102426 -0.223454 -0.703417 -0.674739
-0.468647 0.224938 0.102426 0.353465 -0.559989 -0.749316
-0.468647 0.175062 0.102426 0.511668 0.328580 -0.793871
-0.373779 0.159650 0.102426 -0.075183 0.749910 -0.657254
-0.280000 0.200000 0.060000 -1.000000 0.000000 -0.000000
-0.362918 0.257063 0.060000 -0.210677 -0.977376 0.018758
-0.497082 0.235267 0.060000 0.724136 -0.687372 -0.056095
-0.497082 0.164733 0.060000 0.724136 0.687372 0.056095
-0.362918 0.142937 0.060000 -0.210677 0.977376 -0.018758
-0.315147 0.200000 0.017574 -0.511373 -0.197719 0.836304
-0.373779 0.240350 0.017574 -0.075183 -0.749910 0.657254
-0.468647 0.224938 0.017574 0.511668 -0.328580 0.793871
-0.468647 0.175062 0.017574 0.353465 0.559989 0.749316
-0.373779 0.159650 0.017574 -0.223454 0.703417 0.674739
-0.400000 0.200000 0.000000 0.000178 0.000000 1.000000
-0.400000 -0.200000 0.120000 0.000178 0.000000 -1.000000
-0.315147 -0.200000 0.102426 -0.511373 0.197719 -0.836304
-0.373779 -0.159650 0.102426 -0.223454 -0.703417 -0.674739
-0.468647 -0.175062 0.102426 0.353465 -0.559989 -0.749316
-0.468647 -0.224938 0.102426 0.511668 0.328580 -0.793871
-0.373779 -0.240350 0.102426 -0.075183 0.749910 -0.657254
-0.280000 -0.200000 0.060000 -1.000000 0.000000 -0.000000
-0.362918 -0.142937 0.060000 -0.210677 -0.977376 0.018758
-0.497082 -0.164733 0.060000 0.724136 -0.687372 -0.056095
-0.497082 -0.235267 0.060000 0.724136 0.687372 0.056095
-0.362918 -0.257063 0.060000 -0.210677 0.977376 -0.018758
-0.315147 -0.200000 0.017574 -0.511373 -0.197719 0.836304
-0.373779 -0.159650 0.017574 -0.075183 -0.749910 0.657254
-0.468647 -0.175062 0.017574 0.511668 -0.328580 0.793871
-0.468647 -0.224938 0.017574 0.353465 0.559989 0.749316
-0.373779 -0.240350 0.017574 -0.223454 0.703417 0.674739
-0.400000 -0.200000 0.000000 0.000178 0.000000 1.000000
0.400000 0.200000 0.120000 0.000178 0.000000 -1.000000
0.484853 0.200000 0.102426 -0.511373 0.197719 -0.836304
0.426221 0.240350 0.102426 -0.223454 -0.703417 -0.674739
0.331353 0.224938 0.102426 0.353465 -0.559989 -0.749316
0.331353 0.175062 0.102426 0.511668 0.328580 -0.793871
0.426221 0.159650 0.102426 -0.075183 0.749910 -0.657254
0.520000 0.200000 0.060000 -1.000000 0.000000 -0.000000
0.437082 0.257063 0.060000 -0.210677 -0.977376 0.018758
0.302918 0.235267 0.060000 0.724136 -0.687372 -0.056095
0.302918 0.164733 0.060000 0.724136 0.687372 0.056095
0.437082 0.142937 0.060000 -0.210677 0.977376 -0.018758
0.484853 0.200000 0.017574 -0.511373 -0.197719 0.836304
0.426221 0.240350 0.017574 -0.075183 -0.749910 0.657254
0.331353 0.224938 0.017574 0.511668 -0.328580 0.793871
0.331353 0.175062 0.017574 0.353465 0.559989 0.749316
0.426221 0.159650 0.017574 -0.223454 0.703417 0.674739
0.400000 0.200000 0.000000 0.000178 0.000000 1.000000
0.400000 -0.200000 0.120000 0.000178 0.000000 -1.000000
0.484853 -0.200000 0.102426 -0.511373 0.197719 -0.836304
0.426221 -0.159650 0.102426 -0.223454 -0.703417 -0.674739
0.331353 -0.175062 0.102426 0.353465 -0.559989 -0.749316
0.331353 -0.224938 0.102426 0.511668 0.328580 -0.793871
0.426221 -0.240350 0.102426 -0.075183 0.749910 -0.657254
0.520000 -0.200000 0.060000 -1.000000 0.000000 -0.000000
0.437082 -0.142937 0.060000 -0.210677 -0.977376 0.018758
0.302918 -0.164733 0.060000 0.724136 -0.687372 -0.056095
0.302918 -0.235267 0.060000 0.724136 0.687372 0.056095
0.437082 -0.257063 0.060000 -0.210677 0.977376 -0.018758
0.484853 -0.200000 0.017574 -0.511373 -0.197719 0.836304
0.426221 -0.159650 0.017574 -0.075183 -0.749910 0.657254
0.331353 -0.175062 0.017574 0.511668 -0.328580 0.793871
0.331353 -0.224938 0.017574 0.353465 0.559989 0.749316
0.426221 -0.240350 0.017574 -0.223454 0.703417 0.674739
0.400000 -0.200000 0.000000 0.000178 0.000000 1.000000
0.000000 -0.450000 0.200000 0.000079 0.000000 -1.000000
0.035355 -0.450000 0.188284 -0.697212 0.084287 -0.711893
0.010925 -0.396200 0.188284 -0.356752 -0.463147 -0.811309
-0.028603 -0.416750 0.188284 0.505719 -0.398817 -0.764979
-0.028603 -0.483250 0.188284 0.633621 0.228524 -0.739122
0.010925 -0.503800 0.188284 -0.056566 0.552838 -0.831367
0.050000 -0.450000 0.160000 -1.000000 0.000000 0.000000
0.015451 -0.373915 0.160000 -0.358322 -0.933159 -0.028647
-0.040451 -0.402977 0.160000 0.867305 -0.496769 0.031651
-0.040451 -0.497023 0.160000 0.867305 0.496769 -0.031651
0.015451 -0.526085 0.160000 -0.358322 0.933159 0.028647
0.035355 -0.450000 0.131716 -0.697212 -0.084287 0.711893
0.010925 -0.396200 0.131716 -0.056566 -0.552838 0.831367
-0.028603 -0.416750 0.131716 0.633621 -0.228524 0.739122
-0.028603 -0.483250 0.131716 0.505719 0.398817 0.764979
0.010925 -0.503800 0.131716 -0.356752 0.463147 0.811309
0.000000 -0.450000 0.120000 0.000079 0.000000 1.000000
3 0 2 1
3 0 3 2
3 0 4 3
3 0 5 4
3 0 6 5
3 0 7 6
3 0 8 7
3 0 9 8
3 0 10 9
3 0 11 10
3 0 12 11
3 0 13 12
3 0 14 13
3 0 1 14
3 1 2 15
3 2 16 15
3 2 3 16
3 3 17 16
3 3 4 17
3 4 18 17
3 4 5 18
3 5 19 18
3 5 6 19
3 6 20 19
3 6 7 20
3 7 21 20
3 7 8 21
3 8 22 21
3 8 9 22
3 9 23 22
3 9 10 23
3 10 24 23
3 10 11 24
3 11 25 24
3 11 12 25
3 12 26 25
3 12 13 26
3 13 27 26
3 13 14 27
3 14 28 27
3 14 1 28
3 1 15 28
3 15 16 29
3 16 30 29
3 16 17 30
3 17 31 30
3 17 18 31
3 18 32 31
3 18 19 32
3 19 33 32
3 19 20 33
3 20 34 33
3 20 21 34
3 21 35 34
3 21 22 35
3 22 36 35
3 22 23 36
3 23 37 36
3 23 24 37
3 24 38 37
3 24 25 38
3 25 39 38
3 25 26 39
3 26 40 39
3 26 27 40
3 27 41 40
3 27 28 41
3 28 42 41
3 28 15 42
3 15 29 42
3 29 30 43
3 30 44 43
3 30 31 44
3 31 45 44
3 31 32 45
3 32 46 45
3 32 33 46
3 33 47 46
3 33 34 47
3 34 48 47
3 34 35 48
3 35 49 48
3 35 36 49
3 36 50 49
3 36 37 50
3 37 51 50
3 37 38 51
3 38 52 51
3 38 39 52
3 39 53 52
3 39 40 53
3 40 54 53
3 40 41 54
3 41 55 54
3 41 42 55
3 42 56 55
3 42 29 56
3 29 43 56
3 43 44 57
3 44 58 57
3 44 45 58
3 45 59 58
3 45 46 59
3 46 60 59
3 46 47 60
3 47 61 60
3 47 48 61
3 48 62 61
3 48 49 62
3 49 63 62
3 49 50 63
3 50 64 63
3 50 51 64
3 51 65 64
3 51 52 65
3 52 66 65
3 52 53 66
3 53 67 66
3 53 54 67
3 54 68 67
3 54 55 68
3 55 69 68
3 55 56 69
3 56 70 69
3 56 43 70
3 43 57 70
3 57 58 71
3 58 72 71
3 58 59 72
3 59 73 72
3 59 60 73
3 60 74 73
3 60 61 74
3 61 75 74
3 61 62 75
3 62 76 75
3 62 63 76
3 63 77 76
3 63 64 77
3 64 78 77
3 64 65 78
3 65 79 78
3 65 66 79
3 66 80 79
3 66 67 80
3 67 81 80
3 67 68 81
3 68 82 81
3 68 69 82
3 69 83 82
3 69 70 83
3 70 84 83
3 70 57 84
3 57 71 84
3 71 72 85
3 72 86 85
3 72 73 86
3 73 87 86
3 73 74 87
3 74 88 87
3 74 75 88
3 75 89 88
3 75 76 89
3 76 90 89
3 76 77 90
3 77 91 90
3 77 78 91
3 78 92 91
3 78 79 92
3 79 93 92
3 79 80 93
3 80 94 93
3 80 81 94
3 81 95 94
3 81 82 95
3 82 96 95
3 82 83 96
3 83 97 96
3 83 84 97
3 84 98 97
3 84 71 98
3 71 85 98
3 85 86 99
3 86 100 99
3 86 87 100
3 87 101 100
3 87 88 101
3 88 102 101
3 88 89 102
3 89 103 102
3 89 90 103
3 90 104 103
3 90 91 104
3 91 105 104
3 91 92 105
3 92 106 105
3 92 93 106
3 93 107 106
3 93 94 107
3 94 108 107
3 94 95 108
3 95 109 108
3 95 96 109
3 96 110 109
3 96 97 110
3 97 111 110
3 97 98 111
3 98 112 111
3 98 85 112
3 85 99 112
3 99 100 113
3 100 114 113
3 100 101 114
3 101 115 114
3 101 102 115
3 102 116 115
3 102 103 116
3 103 117 116
3 103 104 117
3 104 118 117
3 104 105 118
3 105 119 118
3 105 106 119
3 106 120 119
3 106 107 120
3 107 121 120
3 107 108 121
3 108 122 121
3 108 109 122
3 109 123 122
3 109 110 123
3 110 124 123
3 110 111 124
3 111 125 124
3 111 112 125
3 112 126 125
3 112 99 126
3 99 113 126
3 113 114 127
3 114 115 127
3 115 116 127
3 116 117 127
3 117 118 127
3 118 119 127
3 119 120 127
3 120 121 127
3 121 122 127
3 122 123 127
3 123 124 127
3 124 125 127
3 125 126 127
3 126 113 127
3 128 130 129
3 128 131 130
3 128 132 131
3 128 133 132
3 128 134 133
3 128 129 134
3 129 130 135
3 130 136 135
3 130 131 136
3 131 137 136
3 131 132 137
3 132 138 137
3 132 133 138
3 133 139 138
3 133 134 139
3 134 140 139
3 134 129 140
3 129 135 140
3 135 136 141
3 136 142 141
3 136 137 142
3 137 143 142
3 137 138 143
3 138 144 143
3 138 139 144
3 139 145 144
3 139 140 145
3 140 146 145
3 140 135 146
3 135 141 146
3 141 142 147
3 142 148 147
3 142 143 148
3 143 149 148
3 143 144 149
3 144 150 149
3 144 145 150
3 145 151 150
3 145 146 151
3 146 152 151
3 146 141 152
3 141 147 152
3 147 148 153
3 148 149 153
3 149 150 153
3 150 151 153
3 151 152 153
3 152 147 153
3 154 156 155
3 154 157 156
3 154 158 157
3 154 159 158
3 154 155 159
3 155 156 160
3 156 161 160
3 156 157 161
3 157 162 161
3 157 158 162
3 158 163 162
3 158 159 163
3 159 164 163
3 159 155 164
3 155 160 164
3 160 161 165
3 161 166 165
3 161 162 166
3 162 167 166
3 162 163 167
3 163 168 167
3 163 164 168
3 164 169 168
3 164 160 169
3 160 165 169
3 165 166 170
3 166 167 170
3 167 168 170
3 168 169 170
3 169 165 170
3 171 173 172
3 171 174 173
3 171 175 174
3 171 176 175
3 171 172 176
3 172 173 177
3 173 178 177
3 173 174 178
3 174 179 178
3 174 175 179
3 175 180 179
3 175 176 180
3 176 181 180
3 176 172 181
3 172 177 181
3 177 178 182
3 178 183 182
3 178 179 183
3 179 184 183
3 179 180 184
3 180 185 184
3 180 181 185
3 181 186 185
3 181 177 186
3 177 182 186
3 182 183 187
3 183 184 187
3 184 185 187
3 185 186 187
3 186 182 187
3 188 190 189
3 188 191 190
3 188 192 191
3 188 193 192
3 188 189 193
3 189 190 194
3 190 195 194
3 190 191 195
3 191 196 195
3 191 192 196
3 192 197 196
3 192 193 197
3 193 198 197
3 193 189 198
3 189 194 198
3 194 195 199
3 195 200 199
3 195 196 200
3 196 201 200
3 196 197 201
3 197 202 201
3 197 198 202
3 198 203 202
3 198 194 203
3 194 199 203
3 199 200 204
3 200 201 204
3 201 202 204
3 202 203 204
3 203 199 204
3 205 207 206
3 205 208 207
3 205 209 208
3 205 210 209
3 205 206 210
3 206 207 211
3 207 212 211
3 207 208 212
3 208 213 212
3 208 209 213
3 209 214 213
3 209 210 214
3 210 215 214
3 210 206 215
3 206 211 215
3 211 212 216
3 212 217 216
3 212 213 217
3 213 218 217
3 213 214 218
3 214 219 218
3 214 215 219
3 215 220 219
3 215 211 220
3 211 216 220
3 216 217 221
3 217 218 221
3 218 219 221
3 219 220 221
3 220 216 221
3 222 224 223
3 222 225 224
3 222 226 225
3 222 227 226
3 222 223 227
3 223 224 228
3 224 229 228
3 224 225 229
3 225 230 229
3 225 226 230
3 226 231 230
3 226 227 231
3 227 232 231
3 227 223 232
3 223 228 232
3 228 229 233
3 229 234 233
3 229 230 234
3 230 235 234
3 230 231 235
3 231 236 235
3 231 232 236
3 232 237 236
3 232 228 237
3 228 233 237
3 233 234 238
3 234 235 238
3 235 236 238
3 236 237 238
3 237 233 238
