ply
format ascii 1.0
element vertex 353
property float x
property float y
property float z
property float nx
property float ny
property float nz
element face 670
property list uchar int vertex_indices
end_header
0.000000 0.000000 1.300000 0.000000 -0.000000 -1.000000
0.154508 0.000000 1.270634 -0.392517 0.035291 -0.919067
0.133808 0.061803 1.270634 -0.351240 -0.211351 -0.912119
0.077254 0.107047 1.270634 -0.213757 -0.392287 -0.894661
0.000000 0.123607 1.270634 -0.026507 -0.465796 -0.884495
-0.077254 0.107047 1.270634 0.165832 -0.423106 -0.890776
-0.133808 0.061803 1.270634 0.320986 -0.269706 -0.907869
-0.154508 0.000000 1.270634 0.392517 -0.035291 -0.919067
-0.133808 -0.061803 1.270634 0.351240 0.211351 -0.912119
-0.077254 -0.107047 1.270634 0.213757 0.392287 -0.894661
-0.000000 -0.123607 1.270634 0.026507 0.465796 -0.884495
0.077254 -0.107047 1.270634 -0.165832 0.423106 -0.890776
0.133808 -0.061803 1.270634 -0.320986 0.269706 -0.907869
0.293893 0.000000 1.185410 -0.652545 0.013329 -0.757633
0.254518 0.117557 1.185410 -0.557319 -0.381421 -0.737505
0.146946 0.203615 1.185410 -0.310829 -0.642102 -0.700779
0.000000 0.235114 1.185410 -0.007953 -0.729130 -0.684329
-0.146946 0.203615 1.185410 0.294578 -0.649600 -0.700887
-0.254518 0.117557 1.185410 0.544157 -0.400464 -0.737239
-0.293893 0.000000 1.185410 0.652545 -0.013329 -0.757633
-0.254518 -0.117557 1.185410 0.557319 0.381421 -0.737505
-0.146946 -0.203615 1.185410 0.310829 0.642102 -0.700779
-0.000000 -0.235114 1.185410 0.007953 0.729130 -0.684329
0.146946 -0.203615 1.185410 -0.294578 0.649600 -0.700887
0.254518 -0.117557 1.185410 -0.544157 0.400464 -0.737239
0.404508 0.000000 1.052671 -0.852956 0.007955 -0.521922
0.350315 0.161803 1.052671 -0.713130 -0.493846 -0.497556
0.202254 0.280252 1.052671 -0.383515 -0.801915 -0.458092
0.000000 0.323607 1.052671 -0.003992 -0.896920 -0.442174
-0.202254 0.280252 1.052671 0.374621 -0.804954 -0.460119
-0.350315 0.161803 1.052671 0.704483 -0.503875 -0.499813
-0.404508 0.000000 1.052671 0.852956 -0.007955 -0.521922
-0.350315 -0.161803 1.052671 0.713130 0.493846 -0.497556
-0.202254 -0.280252 1.052671 0.383515 0.801915 -0.458092
-0.000000 -0.323607 1.052671 0.003992 0.896920 -0.442174
0.202254 -0.280252 1.052671 -0.374621 0.804954 -0.460119
0.350315 -0.161803 1.052671 -0.704483 0.503875 -0.499813
0.475528 0.000000 0.885410 -0.964600 0.003625 -0.263694
0.411820 0.190211 0.885410 -0.795524 -0.553271 -0.247048
0.237764 0.329456 0.885410 -0.419032 -0.880088 -0.223287
0.000000 0.380423 0.885410 -0.001640 -0.976667 -0.214755
-0.237764 0.329456 0.885410 0.415195 -0.881155 -0.226227
-0.411820 0.190211 0.885410 0.791376 -0.557487 -0.250863
-0.475528 0.000000 0.885410 0.964600 -0.003625 -0.263694
-0.411820 -0.190211 0.885410 0.795524 0.553271 -0.247048
-0.237764 -0.329456 0.885410 0.419032 0.880088 -0.223287
-0.000000 -0.380423 0.885410 0.001640 0.976667 -0.214755
0.237764 -0.329456 0.885410 -0.415195 0.881155 -0.226227
0.411820 -0.190211 0.885410 -0.791376 0.557487 -0.250863
0.500000 0.000000 0.700000 -1.000000 0.000000 -0.000000
0.433013 0.200000 0.700000 -0.819738 -0.572735 0.002145
0.250000 0.346410 0.700000 -0.428501 -0.903540 0.001589
0.000000 0.400000 0.700000 -0.000000 -1.000000 -0.000000
-0.250000 0.346410 0.700000 0.428501 -0.903540 -0.001589
-0.433013 0.200000 0.700000 0.819738 -0.572735 -0.002145
-0.500000 0.000000 0.700000 1.000000 -0.000000 -0.000000
-0.433013 -0.200000 0.700000 0.819738 0.572735 0.002145
-0.250000 -0.346410 0.700000 0.428501 0.903540 0.001589
-0.000000 -0.400000 0.700000 0.000000 1.000000 -0.000000
0.250000 -0.346410 0.700000 -0.428501 0.903540 -0.001589
0.433013 -0.200000 0.700000 -0.819738 0.572735 -0.002145
0.475528 0.000000 0.514590 -0.964600 -0.003625 0.263694
0.411820 0.190211 0.514590 -0.791376 -0.557487 0.250863
0.237764 0.329456 0.514590 -0.415195 -0.881155 0.226227
0.000000 0.380423 0.514590 0.001640 -0.976667 0.214755
-0.237764 0.329456 0.514590 0.419032 -0.880088 0.223287
-0.411820 0.190211 0.514590 0.795524 -0.553271 0.247048
-0.475528 0.000000 0.514590 0.964600 0.003625 0.263694
-0.411820 -0.190211 0.514590 0.791376 0.557487 0.250863
-0.237764 -0.329456 0.514590 0.415195 0.881155 0.226227
-0.000000 -0.380423 0.514590 -0.001640 0.976667 0.214755
0.237764 -0.329456 0.514590 -0.419032 0.880088 0.223287
0.411820 -0.190211 0.514590 -0.795524 0.553271 0.247048
0.404508 0.000000 0.347329 -0.852956 -0.007955 0.521922
0.350315 0.161803 0.347329 -0.704483 -0.503875 0.499813
0.202254 0.280252 0.347329 -0.374621 -0.804954 0.460119
0.000000 0.323607 0.347329 0.003992 -0.896920 0.442174
-0.202254 0.280252 0.347329 0.383515 -0.801915 0.458092
-0.350315 0.161803 0.347329 0.713130 -0.493846 0.497556
-0.404508 0.000000 0.347329 0.852956 0.007955 0.521922
-0.350315 -0.161803 0.347329 0.704483 0.503875 0.499813
-0.202254 -0.280252 0.347329 0.374621 0.804954 0.460119
-0.000000 -0.323607 0.347329 -0.003992 0.896920 0.442174
0.202254 -0.280252 0.347329 -0.383515 0.801915 0.458092
0.350315 -0.161803 0.347329 -0.713130 0.493846 0.497556
0.293893 0.000000 0.214590 -0.652545 -0.013329 0.757633
0.254518 0.117557 0.214590 -0.544157 -0.400464 0.737239
0.146946 0.203615 0.214590 -0.294578 -0.649600 0.700887
0.000000 0.235114 0.214590 0.007953 -0.729130 0.684329
-0.146946 0.203615 0.214590 0.310829 -0.642102 0.700779
-0.254518 0.117557 0.214590 0.557319 -0.381421 0.737505
-0.293893 0.000000 0.214590 0.652545 0.013329 0.757633
-0.254518 -0.117557 0.214590 0.544157 0.400464 0.737239
-0.146946 -0.203615 0.214590 0.294578 0.649600 0.700887
-0.000000 -0.235114 0.214590 -0.007953 0.729130 0.684329
0.146946 -0.203615 0.214590 -0.310829 0.642102 0.700779
0.254518 -0.117557 0.214590 -0.557319 0.381421 0.737505
0.154508 0.000000 0.129366 -0.392517 -0.035291 0.919067
0.133808 0.061803 0.129366 -0.320986 -0.269706 0.907869
0.077254 0.107047 0.129366 -0.165832 -0.423106 0.890776
0.000000 0.123607 0.129366 0.026507 -0.465796 0.884495
-0.077254 0.107047 0.129366 0.213757 -0.392287 0.894661
-0.133808 0.061803 0.129366 0.351240 -0.211351 0.912119
-0.154508 0.000000 0.129366 0.392517 0.035291 0.919067
-0.133808 -0.061803 0.129366 0.320986 0.269706 0.907869
-0.077254 -0.107047 0.129366 0.165832 0.423106 0.890776
-0.000000 -0.123607 0.129366 -0.026507 0.465796 0.884495
0.077254 -0.107047 0.129366 -0.213757 0.392287 0.894661
0.133808 -0.061803 0.129366 -0.351240 0.211351 0.912119
0.000000 0.000000 0.100000 -0.000000 -0.000000 1.000000
0.000000 0.400000 1.650000 0.000000 0.000000 -1.000000
0.095671 0.400000 1.630970 -0.417611 0.036552 -0.907891
0.077399 0.456234 1.630970 -0.359339 -0.215894 -0.907891
0.029564 0.490988 1.630970 -0.163812 -0.385876 -0.907891
-0.029564 0.490988 1.630970 0.094286 -0.408467 -0.907891
-0.077399 0.456234 1.630970 0.316369 -0.275037 -0.907891
-0.095671 0.400000 1.630970 0.417611 -0.036552 -0.907891
-0.077399 0.343766 1.630970 0.359339 0.215894 -0.907891
-0.029564 0.309012 1.630970 0.163812 0.385876 -0.907891
0.029564 0.309012 1.630970 -0.094286 0.408467 -0.907891
0.077399 0.343766 1.630970 -0.316369 0.275037 -0.907891
0.176777 0.400000 1.576777 -0.705682 0.014497 -0.708381
0.143015 0.503907 1.576777 -0.579430 -0.403061 -0.708381
0.054627 0.568125 1.576777 -0.231855 -0.666663 -0.708381
-0.054627 0.568125 1.576777 0.204280 -0.675623 -0.708381
-0.143015 0.503907 1.576777 0.562387 -0.426518 -0.708381
-0.176777 0.400000 1.576777 0.705682 -0.014497 -0.708381
-0.143015 0.296093 1.576777 0.579430 0.403061 -0.708381
-0.054627 0.231875 1.576777 0.231855 0.666663 -0.708381
0.054627 0.231875 1.576777 -0.204280 0.675623 -0.708381
0.143015 0.296093 1.576777 -0.562387 0.426518 -0.708381
0.230970 0.400000 1.495671 -0.923352 0.007587 -0.383879
0.186859 0.535761 1.495671 -0.751467 -0.536595 -0.383879
0.071374 0.619665 1.495671 -0.292547 -0.875816 -0.383879
-0.071374 0.619665 1.495671 0.278116 -0.880505 -0.383879
-0.186859 0.535761 1.495671 0.742548 -0.548871 -0.383879
-0.230970 0.400000 1.495671 0.923352 -0.007587 -0.383879
-0.186859 0.264239 1.495671 0.751467 0.536595 -0.383879
-0.071374 0.180335 1.495671 0.292547 0.875816 -0.383879
0.071374 0.180335 1.495671 -0.278116 0.880505 -0.383879
0.186859 0.264239 1.495671 -0.742548 0.548871 -0.383879
0.250000 0.400000 1.400000 -1.000000 0.000000 0.000000
0.202254 0.546946 1.400000 -0.809017 -0.587785 -0.000000
0.077254 0.637764 1.400000 -0.309017 -0.951057 -0.000000
-0.077254 0.637764 1.400000 0.309017 -0.951057 0.000000
-0.202254 0.546946 1.400000 0.809017 -0.587785 -0.000000
-0.250000 0.400000 1.400000 1.000000 -0.000000 0.000000
-0.202254 0.253054 1.400000 0.809017 0.587785 0.000000
-0.077254 0.162236 1.400000 0.309017 0.951057 0.000000
0.077254 0.162236 1.400000 -0.309017 0.951057 -0.000000
0.202254 0.253054 1.400000 -0.809017 0.587785 -0.000000
0.230970 0.400000 1.304329 -0.923352 -0.007587 0.383879
0.186859 0.535761 1.304329 -0.742548 -0.548871 0.383879
0.071374 0.619665 1.304329 -0.278116 -0.880505 0.383879
-0.071374 0.619665 1.304329 0.292547 -0.875816 0.383879
-0.186859 0.535761 1.304329 0.751467 -0.536595 0.383879
-0.230970 0.400000 1.304329 0.923352 0.007587 0.383879
-0.186859 0.264239 1.304329 0.742548 0.548871 0.383879
-0.071374 0.180335 1.304329 0.278116 0.880505 0.383879
0.071374 0.180335 1.304329 -0.292547 0.875816 0.383879
0.186859 0.264239 1.304329 -0.751467 0.536595 0.383879
0.176777 0.400000 1.223223 -0.705682 -0.014497 0.708381
0.143015 0.503907 1.223223 -0.562387 -0.426518 0.708381
0.054627 0.568125 1.223223 -0.204280 -0.675623 0.708381
-0.054627 0.568125 1.223223 0.231855 -0.666663 0.708381
-0.143015 0.503907 1.223223 0.579430 -0.403061 0.708381
-0.176777 0.400000 1.223223 0.705682 0.014497 0.708381
-0.143015 0.296093 1.223223 0.562387 0.426518 0.708381
-0.054627 0.231875 1.223223 0.204280 0.675623 0.708381
0.054627 0.231875 1.223223 -0.231855 0.666663 0.708381
0.143015 0.296093 1.223223 -0.579430 0.403061 0.708381
0.095671 0.400000 1.169030 -0.417611 -0.036552 0.907891
0.077399 0.456234 1.169030 -0.316369 -0.275037 0.907891
0.029564 0.490988 1.169030 -0.094286 -0.408467 0.907891
-0.029564 0.490988 1.169030 0.163812 -0.385876 0.907891
-0.077399 0.456234 1.169030 0.359339 -0.215894 0.907891
-0.095671 0.400000 1.169030 0.417611 0.036552 0.907891
-0.077399 0.343766 1.169030 0.316369 0.275037 0.907891
-0.029564 0.309012 1.169030 0.094286 0.408467 0.907891
0.029564 0.309012 1.169030 -0.163812 0.385876 0.907891
0.077399 0.343766 1.169030 -0.359339 0.215894 0.907891
0.000000 0.400000 1.150000 0.015348 -0.047236 0.998766
-0.000000 0.400000 1.150000 -0.060286 0.185542 0.980785
-0.100000 0.400000 2.050000 0.000000 -0.000000 -1.000000
-0.080000 0.400000 2.023205 -0.923140 0.113287 -0.367393
-0.090000 0.417321 2.023205 -0.559680 -0.742820 -0.367393
-0.110000 0.417321 2.023205 0.363461 -0.856107 -0.367393
-0.120000 0.400000 2.023205 0.923140 -0.113287 -0.367393
-0.110000 0.382679 2.023205 0.559680 0.742820 -0.367393
-0.090000 0.382679 2.023205 -0.363461 0.856107 -0.367393
-0.065359 0.400000 1.950000 -0.992118 0.001308 -0.125298
-0.082679 0.430000 1.950000 -0.497192 -0.858546 -0.125298
-0.117321 0.430000 1.950000 0.494926 -0.859854 -0.125298
-0.134641 0.400000 1.950000 0.992118 -0.001308 -0.125298
-0.117321 0.370000 1.950000 0.497192 0.858546 -0.125298
-0.082679 0.370000 1.950000 -0.494926 0.859854 -0.125298
-0.060000 0.400000 1.850000 -1.000000 -0.000000 0.000000
-0.080000 0.434641 1.850000 -0.500000 -0.866025 0.000000
-0.120000 0.434641 1.850000 0.500000 -0.866025 0.000000
-0.140000 0.400000 1.850000 1.000000 -0.000000 -0.000000
-0.120000 0.365359 1.850000 0.500000 0.866025 0.000000
-0.080000 0.365359 1.850000 -0.500000 0.866025 0.000000
-0.065359 0.400000 1.750000 -0.992118 -0.001308 0.125298
-0.082679 0.430000 1.750000 -0.494926 -0.859854 0.125298
-0.117321 0.430000 1.750000 0.497192 -0.858546 0.125298
-0.134641 0.400000 1.750000 0.992118 0.001308 0.125298
-0.117321 0.370000 1.750000 0.494926 0.859854 0.125298
-0.082679 0.370000 1.750000 -0.497192 0.858546 0.125298
-0.080000 0.400000 1.676795 -0.923140 -0.113287 0.367393
-0.090000 0.417321 1.676795 -0.363461 -0.856107 0.367393
-0.110000 0.417321 1.676795 0.559680 -0.742820 0.367393
-0.120000 0.400000 1.676795 0.923140 0.113287 0.367393
-0.110000 0.382679 1.676795 0.363461 0.856107 0.367393
-0.090000 0.382679 1.676795 -0.559680 0.742820 0.367393
-0.100000 0.400000 1.650000 0.000000 -0.000000 1.000000
0.100000 0.400000 2.050000 0.000000 -0.000000 -1.000000
0.120000 0.400000 2.023205 -0.923140 0.113287 -0.367393
0.110000 0.417321 2.023205 -0.559680 -0.742820 -0.367393
0.090000 0.417321 2.023205 0.363461 -0.856107 -0.367393
0.080000 0.400000 2.023205 0.923140 -0.113287 -0.367393
0.090000 0.382679 2.023205 0.559680 0.742820 -0.367393
0.110000 0.382679 2.023205 -0.363461 0.856107 -0.367393
0.134641 0.400000 1.950000 -0.992118 0.001308 -0.125298
0.117321 0.430000 1.950000 -0.497192 -0.858546 -0.125298
0.082679 0.430000 1.950000 0.494926 -0.859854 -0.125298
0.065359 0.400000 1.950000 0.992118 -0.001308 -0.125298
0.082679 0.370000 1.950000 0.497192 0.858546 -0.125298
0.117321 0.370000 1.950000 -0.494926 0.859854 -0.125298
0.140000 0.400000 1.850000 -1.000000 0.000000 0.000000
0.120000 0.434641 1.850000 -0.500000 -0.866025 0.000000
0.080000 0.434641 1.850000 0.500000 -0.866025 0.000000
0.060000 0.400000 1.850000 1.000000 -0.000000 -0.000000
0.080000 0.365359 1.850000 0.500000 0.866025 0.000000
0.120000 0.365359 1.850000 -0.500000 0.866025 0.000000
0.134641 0.400000 1.750000 -0.992118 -0.001308 0.125298
0.117321 0.430000 1.750000 -0.494926 -0.859854 0.125298
0.082679 0.430000 1.750000 0.497192 -0.858546 0.125298
0.065359 0.400000 1.750000 0.992118 0.001308 0.125298
0.082679 0.370000 1.750000 0.494926 0.859854 0.125298
0.117321 0.370000 1.750000 -0.497192 0.858546 0.125298
0.120000 0.400000 1.676795 -0.923140 -0.113287 0.367393
0.110000 0.417321 1.676795 -0.363461 -0.856107 0.367393
0.090000 0.417321 1.676795 0.559680 -0.742820 0.367393
0.080000 0.400000 1.676795 0.923140 0.113287 0.367393
0.090000 0.382679 1.676795 0.363461 0.856107 0.367393
0.110000 0.382679 1.676795 -0.559680 0.742820 0.367393
0.100000 0.400000 1.650000 0.000000 -0.000000 1.000000
0.000000 -0.450000 0.650000 0.000000 -0.000000 -1.000000
0.058779 -0.450000 0.630902 -0.626148 0.094387 -0.773970
0.029389 -0.399096 0.630902 -0.394815 -0.495066 -0.773970
-0.029389 -0.399096 0.630902 0.231332 -0.589453 -0.773970
-0.058779 -0.450000 0.630902 0.626148 -0.094387 -0.773970
-0.029389 -0.500904 0.630902 0.394815 0.495066 -0.773970
0.029389 -0.500904 0.630902 -0.231332 0.589453 -0.773970
0.095106 -0.450000 0.580902 -0.948654 0.015188 -0.315949
0.047553 -0.367636 0.580902 -0.487481 -0.813965 -0.315949
-0.047553 -0.367636 0.580902 0.461174 -0.829153 -0.315949
-0.095106 -0.450000 0.580902 0.948654 -0.015188 -0.315949
-0.047553 -0.532364 0.580902 0.487481 0.813965 -0.315949
0.047553 -0.532364 0.580902 -0.461174 0.829153 -0.315949
0.095106 -0.450000 0.519098 -0.948654 -0.015188 0.315949
0.047553 -0.367636 0.519098 -0.461174 -0.829153 0.315949
-0.047553 -0.367636 0.519098 0.487481 -0.813965 0.315949
-0.095106 -0.450000 0.519098 0.948654 0.015188 0.315949
-0.047553 -0.532364 0.519098 0.461174 0.829153 0.315949
0.047553 -0.532364 0.519098 -0.487481 0.813965 0.315949
0.058779 -0.450000 0.469098 -0.626148 -0.094387 0.773970
0.029389 -0.399096 0.469098 -0.231332 -0.589453 0.773970
-0.029389 -0.399096 0.469098 0.394815 -0.495066 0.773970
-0.058779 -0.450000 0.469098 0.626148 0.094387 0.773970
-0.029389 -0.500904 0.469098 0.231332 0.589453 0.773970
0.029389 -0.500904 0.469098 -0.394815 0.495066 0.773970
0.000000 -0.450000 0.450000 -0.000000 -0.000000 1.000000
-0.200000 0.200000 0.160000 0.000000 -0.000000 -1.000000
-0.129289 0.200000 0.136569 -0.695904 0.089007 -0.712598
-0.164645 0.273485 0.136569 -0.451019 -0.491751 -0.744824
-0.235355 0.273485 0.136569 0.260691 -0.602829 -0.754081
-0.270711 0.200000 0.136569 0.695904 -0.089007 -0.712598
-0.235355 0.126515 0.136569 0.451019 0.491751 -0.744824
-0.164645 0.126515 0.136569 -0.260691 0.602829 -0.754081
-0.100000 0.200000 0.080000 -1.000000 0.000000 0.000000
-0.150000 0.303923 0.080000 -0.539756 -0.841746 -0.011241
-0.250000 0.303923 0.080000 0.539756 -0.841746 0.011241
-0.300000 0.200000 0.080000 1.000000 -0.000000 0.000000
-0.250000 0.096077 0.080000 0.539756 0.841746 -0.011241
-0.150000 0.096077 0.080000 -0.539756 0.841746 0.011241
-0.129289 0.200000 0.023431 -0.695904 -0.089007 0.712598
-0.164645 0.273485 0.023431 -0.260691 -0.602829 0.754081
-0.235355 0.273485 0.023431 0.451019 -0.491751 0.744824
-0.270711 0.200000 0.023431 0.695904 0.089007 0.712598
-0.235355 0.126515 0.023431 0.260691 0.602829 0.754081
-0.164645 0.126515 0.023431 -0.451019 0.491751 0.744824
-0.200000 0.200000 0.000000 0.000000 -0.000000 1.000000
0.200000 0.200000 0.160000 0.000000 -0.000000 -1.000000
0.270711 0.200000 0.136569 -0.695904 0.089007 -0.712598
0.235355 0.273485 0.136569 -0.451019 -0.491751 -0.744824
0.164645 0.273485 0.136569 0.260691 -0.602829 -0.754081
0.129289 0.200000 0.136569 0.695904 -0.089007 -0.712598
0.164645 0.126515 0.136569 0.451019 0.491751 -0.744824
0.235355 0.126515 0.136569 -0.260691 0.602829 -0.754081
0.300000 0.200000 0.080000 -1.000000 0.000000 0.000000
0.250000 0.303923 0.080000 -0.539756 -0.841746 -0.011241
0.150000 0.303923 0.080000 0.539756 -0.841746 0.011241
0.100000 0.200000 0.080000 1.000000 -0.000000 0.000000
0.150000 0.096077 0.080000 0.539756 0.841746 -0.011241
0.250000 0.096077 0.080000 -0.539756 0.841746 0.011241
0.270711 0.200000 0.023431 -0.695904 -0.089007 0.712598
0.235355 0.273485 0.023431 -0.260691 -0.602829 0.754081
0.164645 0.273485 0.023431 0.451019 -0.491751 0.744824
0.129289 0.200000 0.023431 0.695904 0.089007 0.712598
0.164645 0.126515 0.023431 0.260691 0.602829 0.754081
0.235355 0.126515 0.023431 -0.451019 0.491751 0.744824
0.200000 0.200000 0.000000 0.000000 -0.000000 1.000000
-0.200000 -0.200000 0.160000 0.000000 -0.000000 -1.000000
-0.129289 -0.200000 0.136569 -0.695904 0.089007 -0.712598
-0.164645 -0.126515 0.136569 -0.451019 -0.491751 -0.744824
-0.235355 -0.126515 0.136569 0.260691 -0.602829 -0.754081
-0.270711 -0.200000 0.136569 0.695904 -0.089007 -0.712598
-0.235355 -0.273485 0.136569 0.451019 0.491751 -0.744824
-0.164645 -0.273485 0.136569 -0.260691 0.602829 -0.754081
-0.100000 -0.200000 0.080000 -1.000000 -0.000000 0.000000
-0.150000 -0.096077 0.080000 -0.539756 -0.841746 -0.011241
-0.250000 -0.096077 0.080000 0.539756 -0.841746 0.011241
-0.300000 -0.200000 0.080000 1.000000 -0.000000 0.000000
-0.250000 -0.303923 0.080000 0.539756 0.841746 -0.011241
-0.150000 -0.303923 0.080000 -0.539756 0.841746 0.011241
-0.129289 -0.200000 0.023431 -0.695904 -0.089007 0.712598
-0.164645 -0.126515 0.023431 -0.260691 -0.602829 0.754081
-0.235355 -0.126515 0.023431 0.451019 -0.491751 0.744824
-0.270711 -0.200000 0.023431 0.695904 0.089007 0.712598
-0.235355 -0.273485 0.023431 0.260691 0.602829 0.754081
-0.164645 -0.273485 0.023431 -0.451019 0.491751 0.744824
-0.200000 -0.200000 0.000000 0.000000 -0.000000 1.000000
0.200000 -0.200000 0.160000 0.000000 -0.000000 -1.000000
0.270711 -0.200000 0.136569 -0.695904 0.089007 -0.712598
0.235355 -0.126515 0.136569 -0.451019 -0.491751 -0.744824
0.164645 -0.126515 0.136569 0.260691 -0.602829 -0.754081
0.129289 -0.200000 0.136569 0.695904 -0.089007 -0.712598
0.164645 -0.273485 0.136569 0.451019 0.491751 -0.744824
0.235355 -0.273485 0.136569 -0.260691 0.602829 -0.754081
0.300000 -0.200000 0.080000 -1.000000 -0.000000 0.000000
0.250000 -0.096077 0.080000 -0.539756 -0.841746 -0.011241
0.150000 -0.096077 0.080000 0.539756 -0.841746 0.011241
0.100000 -0.200000 0.080000 1.000000 -0.000000 0.000000
0.150000 -0.303923 0.080000 0.539756 0.841746 -0.011241
0.250000 -0.303923 0.080000 -0.539756 0.841746 0.011241
0.270711 -0.200000 0.023431 -0.695904 -0.089007 0.712598
0.235355 -0.126515 0.023431 -0.260691 -0.602829 0.754081
0.164645 -0.126515 0.023431 0.451019 -0.491751 0.744824
0.129289 -0.200000 0.023431 0.695904 0.089007 0.712598
0.164645 -0.273485 0.023431 0.260691 0.602829 0.754081
0.235355 -0.273485 0.023431 -0.451019 0.491751 0.744824
0.200000 -0.200000 0.000000 0.000000 -0.000000 1.000000
3 0 2 1
3 0 3 2
3 0 4 3
3 0 5 4
3 0 6 5
3 0 7 6
3 0 8 7
3 0 9 8
3 0 10 9
3 0 11 10
3 0 12 11
3 0 1 12
3 1 2 13
3 2 14 13
3 2 3 14
3 3 15 14
3 3 4 15
3 4 16 15
3 4 5 16
3 5 17 16
3 5 6 17
3 6 18 17
3 6 7 18
3 7 19 18
3 7 8 19
3 8 20 19
3 8 9 20
3 9 21 20
3 9 10 21
3 10 22 21
3 10 11 22
3 11 23 22
3 11 12 23
3 12 24 23
3 12 1 24
3 1 13 24
3 13 14 25
3 14 26 25
3 14 15 26
3 15 27 26
3 15 16 27
3 16 28 27
3 16 17 28
3 17 29 28
3 17 18 29
3 18 30 29
3 18 19 30
3 19 31 30
3 19 20 31
3 20 32 31
3 20 21 32
3 21 33 32
3 21 22 33
3 22 34 33
3 22 23 34
3 23 35 34
3 23 24 35
3 24 36 35
3 24 13 36
3 13 25 36
3 25 26 37
3 26 38 37
3 26 27 38
3 27 39 38
3 27 28 39
3 28 40 39
3 28 29 40
3 29 41 40
3 29 30 41
3 30 42 41
3 30 31 42
3 31 43 42
3 31 32 43
3 32 44 43
3 32 33 44
3 33 45 44
3 33 34 45
3 34 46 45
3 34 35 46
3 35 47 46
3 35 36 47
3 36 48 47
3 36 25 48
3 25 37 48
3 37 38 49
3 38 50 49
3 38 39 50
3 39 51 50
3 39 40 51
3 40 52 51
3 40 41 52
3 41 53 52
3 41 42 53
3 42 54 53
3 42 43 54
3 43 55 54
3 43 44 55
3 44 56 55
3 44 45 56
3 45 57 56
3 45 46 57
3 46 58 57
3 46 47 58
3 47 59 58
3 47 48 59
3 48 60 59
3 48 37 60
3 37 49 60
3 49 50 61
3 50 62 61
3 50 51 62
3 51 63 62
3 51 52 63
3 52 64 63
3 52 53 64
3 53 65 64
3 53 54 65
3 54 66 65
3 54 55 66
3 55 67 66
3 55 56 67
3 56 68 67
3 56 57 68
3 57 69 68
3 57 58 69
3 58 70 69
3 58 59 70
3 59 71 70
3 59 60 71
3 60 72 71
3 60 49 72
3 49 61 72
3 61 62 73
3 62 74 73
3 62 63 74
3 63 75 74
3 63 64 75
3 64 76 75
3 64 65 76
3 65 77 76
3 65 66 77
3 66 78 77
3 66 67 78
3 67 79 78
3 67 68 79
3 68 80 79
3 68 69 80
3 69 81 80
3 69 70 81
3 70 82 81
3 70 71 82
3 71 83 82
3 71 72 83
3 72 84 83
3 72 61 84
3 61 73 84
3 73 74 85
3 74 86 85
3 74 75 86
3 75 87 86
3 75 76 87
3 76 88 87
3 76 77 88
3 77 89 88
3 77 78 89
3 78 90 89
3 78 79 90
3 79 91 90
3 79 80 91
3 80 92 91
3 80 81 92
3 81 93 92
3 81 82 93
3 82 94 93
3 82 83 94
3 83 95 94
3 83 84 95
3 84 96 95
3 84 73 96
3 73 85 96
3 85 86 97
3 86 98 97
3 86 87 98
3 87 99 98
3 87 88 99
3 88 100 99
3 88 89 100
3 89 101 100
3 89 90 101
3 90 102 101
3 90 91 102
3 91 103 102
3 91 92 103
3 92 104 103
3 92 93 104
3 93 105 104
3 93 94 105
3 94 106 105
3 94 95 106
3 95 107 106
3 95 96 107
3 96 108 107
3 96 85 108
3 85 97 108
3 97 98 109
3 98 99 109
3 99 100 109
3 100 101 109
3 101 102 109
3 102 103 109
3 103 104 109
3 104 105 109
3 105 106 109
3 106 107 109
3 107 108 109
3 108 97 109
3 110 112 111
3 110 113 112
3 110 114 113
3 110 115 114
3 110 116 115
3 110 117 116
3 110 118 117
3 110 119 118
3 110 120 119
3 110 111 120
3 111 112 121
3 112 122 121
3 112 113 122
3 113 123 122
3 113 114 123
3 114 124 123
3 114 115 124
3 115 125 124
3 115 116 125
3 116 126 125
3 116 117 126
3 117 127 126
3 117 118 127
3 118 128 127
3 118 119 128
3 119 129 128
3 119 120 129
3 120 130 129
3 120 111 130
3 111 121 130
3 121 122 131
3 122 132 131
3 122 123 132
3 123 133 132
3 123 124 133
3 124 134 133
3 124 125 134
3 125 135 134
3 125 126 135
3 126 136 135
3 126 127 136
3 127 137 136
3 127 128 137
3 128 138 137
3 128 129 138
3 129 139 138
3 129 130 139
3 130 140 139
3 130 121 140
3 121 131 140
3 131 132 141
3 132 142 141
3 132 133 142
3 133 143 142
3 133 134 143
3 134 144 143
3 134 135 144
3 135 145 144
3 135 136 145
3 136 146 145
3 136 137 146
3 137 147 146
3 137 138 147
3 138 148 147
3 138 139 148
3 139 149 148
3 139 140 149
3 140 150 149
3 140 131 150
3 131 141 150
3 141 142 151
3 142 152 151
3 142 143 152
3 143 153 152
3 143 144 153
3 144 154 153
3 144 145 154
3 145 155 154
3 145 146 155
3 146 156 155
3 146 147 156
3 147 157 156
3 147 148 157
3 148 158 157
3 148 149 158
3 149 159 158
3 149 150 159
3 150 160 159
3 150 141 160
3 141 151 160
3 151 152 161
3 152 162 161
3 152 153 162
3 153 163 162
3 153 154 163
3 154 164 163
3 154 155 164
3 155 165 164
3 155 156 165
3 156 166 165
3 156 157 166
3 157 167 166
3 157 158 167
3 158 168 167
3 158 159 168
3 159 169 168
3 159 160 169
3 160 170 169
3 160 151 170
3 151 161 170
3 161 162 171
3 162 172 171
3 162 163 172
3 163 173 172
3 163 164 173
3 164 174 173
3 164 165 174
3 165 175 174
3 165 166 175
3 166 176 175
3 166 167 176
3 167 177 176
3 167 168 177
3 168 178 177
3 168 169 178
3 169 179 178
3 169 170 179
3 170 180 179
3 170 161 180
3 161 171 180
3 171 172 181
3 172 173 181
3 173 174 181
3 174 175 181
3 175 176 181
3 176 177 181
3 177 178 181
3 178 182 181
3 178 179 182
3 179 180 182
3 180 181 182
3 180 171 181
3 183 185 184
3 183 186 185
3 183 187 186
3 183 188 187
3 183 189 188
3 183 184 189
3 184 185 190
3 185 191 190
3 185 186 191
3 186 192 191
3 186 187 192
3 187 193 192
3 187 188 193
3 188 194 193
3 188 189 194
3 189 195 194
3 189 184 195
3 184 190 195
3 190 191 196
3 191 197 196
3 191 192 197
3 192 198 197
3 192 193 198
3 193 199 198
3 193 194 199
3 194 200 199
3 194 195 200
3 195 201 200
3 195 190 201
3 190 196 201
3 196 197 202
3 197 203 202
3 197 198 203
3 198 204 203
3 198 199 204
3 199 205 204
3 199 200 205
3 200 206 205
3 200 201 206
3 201 207 206
3 201 196 207
3 196 202 207
3 202 203 208
3 203 209 208
3 203 204 209
3 204 210 209
3 204 205 210
3 205 211 210
3 205 206 211
3 206 212 211
3 206 207 212
3 207 213 212
3 207 202 213
3 202 208 213
3 208 209 214
3 209 210 214
3 210 211 214
3 211 212 214
3 212 213 214
3 213 208 214
3 215 217 216
3 215 218 217
3 215 219 218
3 215 220 219
3 215 221 220
3 215 216 221
3 216 217 222
3 217 223 222
3 217 218 223
3 218 224 223
3 218 219 224
3 219 225 224
3 219 220 225
3 220 226 225
3 220 221 226
3 221 227 226
3 221 216 227
3 216 222 227
3 222 223 228
3 223 229 228
3 223 224 229
3 224 230 229
3 224 225 230
3 225 231 230
3 225 226 231
3 226 232 231
3 226 227 232
3 227 233 232
3 227 222 233
3 222 228 233
3 228 229 234
3 229 235 234
3 229 230 235
3 230 236 235
3 230 231 236
3 231 237 236
3 231 232 237
3 232 238 237
3 232 233 238
3 233 239 238
3 233 228 239
3 228 234 239
3 234 235 240
3 235 241 240
3 235 236 241
3 236 242 241
3 236 237 242
3 237 243 242
3 237 238 243
3 238 244 243
3 238 239 244
3 239 245 244
3 239 234 245
3 234 240 245
3 240 241 246
3 241 242 246
3 242 243 246
3 243 244 246
3 244 245 246
3 245 240 246
3 247 249 248
3 247 250 249
3 247 251 250
3 247 252 251
3 247 253 252
3 247 248 253
3 248 249 254
3 249 255 254
3 249 250 255
3 250 256 255
3 250 251 256
3 251 257 256
3 251 252 257
3 252 258 257
3 252 253 258
3 253 259 258
3 253 248 259
3 248 254 259
3 254 255 260
3 255 261 260
3 255 256 261
3 256 262 261
3 256 257 262
3 257 263 262
3 257 258 263
3 258 264 263
3 258 259 264
3 259 265 264
3 259 254 265
3 254 260 265
3 260 261 266
3 261 267 266
3 261 262 267
3 262 268 267
3 262 263 268
3 263 269 268
3 263 264 269
3 264 270 269
3 264 265 270
3 265 271 270
3 265 260 271
3 260 266 271
3 266 267 272
3 267 268 272
3 268 269 272
3 269 270 272
3 270 271 272
3 271 266 272
3 273 275 274
3 273 276 275
3 273 277 276
3 273 278 277
3 273 279 278
3 273 274 279
3 274 275 280
3 275 281 280
3 275 276 281
3 276 282 281
3 276 277 282
3 277 283 282
3 277 278 283
3 278 284 283
3 278 279 284
3 279 285 284
3 279 274 285
3 274 280 285
3 280 281 286
3 281 287 286
3 281 282 287
3 282 288 287
3 282 283 288
3 283 289 288
3 283 284 289
3 284 290 289
3 284 285 290
3 285 291 290
3 285 280 291
3 280 286 291
3 286 287 292
3 287 288 292
3 288 289 292
3 289 290 292
3 290 291 292
3 291 286 292
3 293 295 294
3 293 296 295
3 293 297 296
3 293 298 297
3 293 299 298
3 293 294 299
3 294 295 300
3 295 301 300
3 295 296 301
3 296 302 301
3 296 297 302
3 297 303 302
3 297 298 303
3 298 304 303
3 298 299 304
3 299 305 304
3 299 294 305
3 294 300 305
3 300 301 306
3 301 307 306
3 301 302 307
3 302 308 307
3 302 303 308
3 303 309 308
3 303 304 309
3 304 310 309
3 304 305 310
3 305 311 310
3 305 300 311
3 300 306 311
3 306 307 312
3 307 308 312
3 308 309 312
3 309 310 312
3 310 311 312
3 311 306 312
3 313 315 314
3 313 316 315
3 313 317 316
3 313 318 317
3 313 319 318
3 313 314 319
3 314 315 320
3 315 321 320
3 315 316 321
3 316 322 321
3 316 317 322
3 317 323 322
3 317 318 323
3 318 324 323
3 318 319 324
3 319 325 324
3 319 314 325
3 314 320 325
3 320 321 326
3 321 327 326
3 321 322 327
3 322 328 327
3 322 323 328
3 323 329 328
3 323 324 329
3 324 330 329
3 324 325 330
3 325 331 330
3 325 320 331
3 320 326 331
3 326 327 332
3 327 328 332
3 328 329 332
3 329 330 332
3 330 331 332
3 331 326 332
3 333 335 334
3 333 336 335
3 333 337 336
3 333 338 337
3 333 339 338
3 333 334 339
3 334 335 340
3 335 341 340
3 335 336 341
3 336 342 341
3 336 337 342
3 337 343 342
3 337 338 343
3 338 344 343
3 338 339 344
3 339 345 344
3 339 334 345
3 334 340 345
3 340 341 346
3 341 347 346
3 341 342 347
3 342 348 347
3 342 343 348
3 343 349 348
3 343 344 349
3 344 350 349
3 344 345 350
3 345 351 350
3 345 340 351
3 340 346 351
3 346 347 352
3 347 348 352
3 348 349 352
3 349 350 352
3 350 351 352
3 351 346 352
