ply
format ascii 1.0
element vertex 270
property float x
property float y
property float z
property float nx
property float ny
property float nz
element face 494
property list uchar int vertex_indices
end_header
0.000000 0.000000 0.900000 0.000000 -0.000000 -1.000000
0.092705 0.000000 0.882870 -0.384679 0.018503 -0.922865
0.080285 0.069529 0.882870 -0.349803 -0.114057 -0.929854
0.046353 0.120427 0.882870 -0.223625 -0.221476 -0.949179
0.000000 0.139058 0.882870 -0.029720 -0.271384 -0.962012
-0.046353 0.120427 0.882870 0.174698 -0.242845 -0.954205
-0.080285 0.069529 0.882870 0.324169 -0.147635 -0.934408
-0.092705 0.000000 0.882870 0.384679 -0.018503 -0.922865
-0.080285 -0.069529 0.882870 0.349803 0.114057 -0.929854
-0.046353 -0.120427 0.882870 0.223625 0.221476 -0.949179
-0.000000 -0.139058 0.882870 0.029720 0.271384 -0.962012
0.046353 -0.120427 0.882870 -0.174698 0.242845 -0.954205
0.080285 -0.069529 0.882870 -0.324169 0.147635 -0.934408
0.176336 0.000000 0.833156 -0.643312 0.007396 -0.765568
0.152711 0.132252 0.833156 -0.576825 -0.216883 -0.787550
0.088168 0.229067 0.833156 -0.361945 -0.407669 -0.838333
0.000000 0.264503 0.833156 -0.015990 -0.494942 -0.868779
-0.088168 0.229067 0.833156 0.340304 -0.421454 -0.840577
-0.152711 0.132252 0.833156 0.569156 -0.232566 -0.788654
-0.176336 0.000000 0.833156 0.643312 -0.007396 -0.765568
-0.152711 -0.132252 0.833156 0.576825 0.216883 -0.787550
-0.088168 -0.229067 0.833156 0.361945 0.407669 -0.838333
-0.000000 -0.264503 0.833156 0.015990 0.494942 -0.868779
0.088168 -0.229067 0.833156 -0.340304 0.421454 -0.840577
0.152711 -0.132252 0.833156 -0.569156 0.232566 -0.788654
0.242705 0.000000 0.755725 -0.846978 0.004627 -0.531608
0.210189 0.182029 0.755725 -0.771230 -0.299859 -0.561506
0.121353 0.315283 0.755725 -0.502399 -0.588038 -0.633882
0.000000 0.364058 0.755725 -0.013930 -0.733761 -0.679265
-0.121353 0.315283 0.755725 0.487870 -0.602142 -0.631987
-0.210189 0.182029 0.755725 0.768368 -0.311297 -0.559199
-0.242705 0.000000 0.755725 0.846978 -0.004627 -0.531608
-0.210189 -0.182029 0.755725 0.771230 0.299859 -0.561506
-0.121353 -0.315283 0.755725 0.502399 0.588038 -0.633882
-0.000000 -0.364058 0.755725 0.013930 0.733761 -0.679265
0.121353 -0.315283 0.755725 -0.487870 0.602142 -0.631987
0.210189 -0.182029 0.755725 -0.768368 0.311297 -0.559199
0.285317 0.000000 0.658156 -0.962828 0.002176 -0.270107
0.247092 0.213988 0.658156 -0.888754 -0.352849 -0.292597
0.142658 0.370638 0.658156 -0.598540 -0.721476 -0.348170
0.000000 0.427975 0.658156 -0.008632 -0.924035 -0.382210
-0.142658 0.370638 0.658156 0.591574 -0.731150 -0.339793
-0.247092 0.213988 0.658156 0.888173 -0.358859 -0.287000
-0.285317 0.000000 0.658156 0.962828 -0.002176 -0.270107
-0.247092 -0.213988 0.658156 0.888754 0.352849 -0.292597
-0.142658 -0.370638 0.658156 0.598540 0.721476 -0.348170
-0.000000 -0.427975 0.658156 0.008632 0.924035 -0.382210
0.142658 -0.370638 0.658156 -0.591574 0.731150 -0.339793
0.247092 -0.213988 0.658156 -0.888173 0.358859 -0.287000
0.300000 0.000000 0.550000 -1.000000 0.000000 -0.000000
0.259808 0.225000 0.550000 -0.927885 -0.372851 -0.003446
0.150000 0.389711 0.550000 -0.631401 -0.775434 -0.005872
0.000000 0.450000 0.550000 -0.000000 -1.000000 -0.000000
-0.150000 0.389711 0.550000 0.631401 -0.775434 0.005872
-0.259808 0.225000 0.550000 0.927885 -0.372851 0.003446
-0.300000 0.000000 0.550000 1.000000 -0.000000 -0.000000
-0.259808 -0.225000 0.550000 0.927885 0.372851 -0.003446
-0.150000 -0.389711 0.550000 0.631401 0.775434 -0.005872
-0.000000 -0.450000 0.550000 0.000000 1.000000 -0.000000
0.150000 -0.389711 0.550000 -0.631401 0.775434 0.005872
0.259808 -0.225000 0.550000 -0.927885 0.372851 0.003446
0.285317 0.000000 0.441844 -0.962828 -0.002176 0.270107
0.247092 0.213988 0.441844 -0.888173 -0.358859 0.287000
0.142658 0.370638 0.441844 -0.591574 -0.731150 0.339793
0.000000 0.427975 0.441844 0.008632 -0.924035 0.382210
-0.142658 0.370638 0.441844 0.598540 -0.721476 0.348170
-0.247092 0.213988 0.441844 0.888754 -0.352849 0.292597
-0.285317 0.000000 0.441844 0.962828 0.002176 0.270107
-0.247092 -0.213988 0.441844 0.888173 0.358859 0.287000
-0.142658 -0.370638 0.441844 0.591574 0.731150 0.339793
-0.000000 -0.427975 0.441844 -0.008632 0.924035 0.382210
0.142658 -0.370638 0.441844 -0.598540 0.721476 0.348170
0.247092 -0.213988 0.441844 -0.888754 0.352849 0.292597
0.242705 0.000000 0.344275 -0.846978 -0.004627 0.531608
0.210189 0.182029 0.344275 -0.768368 -0.311297 0.559199
0.121353 0.315283 0.344275 -0.487870 -0.602142 0.631987
0.000000 0.364058 0.344275 0.013930 -0.733761 0.679265
-0.121353 0.315283 0.344275 0.502399 -0.588038 0.633882
-0.210189 0.182029 0.344275 0.771230 -0.299859 0.561506
-0.242705 0.000000 0.344275 0.846978 0.004627 0.531608
-0.210189 -0.182029 0.344275 0.768368 0.311297 0.559199
-0.121353 -0.315283 0.344275 0.487870 0.602142 0.631987
-0.000000 -0.364058 0.344275 -0.013930 0.733761 0.679265
0.121353 -0.315283 0.344275 -0.502399 0.588038 0.633882
0.210189 -0.182029 0.344275 -0.771230 0.299859 0.561506
0.176336 0.000000 0.266844 -0.643312 -0.007396 0.765568
0.152711 0.132252 0.266844 -0.569156 -0.232566 0.788654
0.088168 0.229067 0.266844 -0.340304 -0.421454 0.840577
0.000000 0.264503 0.266844 0.015990 -0.494942 0.868779
-0.088168 0.229067 0.266844 0.361945 -0.407669 0.838333
-0.152711 0.132252 0.266844 0.576825 -0.216883 0.787550
-0.176336 0.000000 0.266844 0.643312 0.007396 0.765568
-0.152711 -0.132252 0.266844 0.569156 0.232566 0.788654
-0.088168 -0.229067 0.266844 0.340304 0.421454 0.840577
-0.000000 -0.264503 0.266844 -0.015990 0.494942 0.868779
0.088168 -0.229067 0.266844 -0.361945 0.407669 0.838333
0.152711 -0.132252 0.266844 -0.576825 0.216883 0.787550
0.092705 0.000000 0.217130 -0.384679 -0.018503 0.922865
0.080285 0.069529 0.217130 -0.324169 -0.147635 0.934408
0.046353 0.120427 0.217130 -0.174698 -0.242845 0.954205
0.000000 0.139058 0.217130 0.029720 -0.271384 0.962012
-0.046353 0.120427 0.217130 0.223625 -0.221476 0.949179
-0.080285 0.069529 0.217130 0.349803 -0.114057 0.929854
-0.092705 0.000000 0.217130 0.384679 0.018503 0.922865
-0.080285 -0.069529 0.217130 0.324169 0.147635 0.934408
-0.046353 -0.120427 0.217130 0.174698 0.242845 0.954205
-0.000000 -0.139058 0.217130 -0.029720 0.271384 0.962012
0.046353 -0.120427 0.217130 -0.223625 0.221476 0.949179
0.080285 -0.069529 0.217130 -0.349803 0.114057 0.929854
0.000000 0.000000 0.200000 -0.000000 -0.000000 1.000000
0.000000 0.400000 1.220000 0.000000 0.000000 -1.000000
0.084190 0.400000 1.203253 -0.417303 0.040155 -0.907880
0.068111 0.444987 1.203253 -0.357532 -0.235154 -0.903810
0.026016 0.472791 1.203253 -0.160964 -0.415954 -0.895026
-0.026016 0.472791 1.203253 0.092896 -0.439090 -0.893628
-0.068111 0.444987 1.203253 0.313612 -0.298389 -0.901450
-0.084190 0.400000 1.203253 0.417303 -0.040155 -0.907880
-0.068111 0.355013 1.203253 0.357532 0.235154 -0.903810
-0.026016 0.327209 1.203253 0.160964 0.415954 -0.895026
0.026016 0.327209 1.203253 -0.092896 0.439090 -0.893628
0.068111 0.355013 1.203253 -0.313612 0.298389 -0.901450
0.155563 0.400000 1.155563 -0.705401 0.015787 -0.708633
0.125854 0.483125 1.155563 -0.571383 -0.433246 -0.697007
0.048072 0.534500 1.155563 -0.222103 -0.699468 -0.679275
-0.048072 0.534500 1.155563 0.197418 -0.706689 -0.679423
-0.125854 0.483125 1.155563 0.553200 -0.456016 -0.697150
-0.155563 0.400000 1.155563 0.705401 -0.015787 -0.708633
-0.125854 0.316875 1.155563 0.571383 0.433246 -0.697007
-0.048072 0.265500 1.155563 0.222103 0.699468 -0.679275
0.048072 0.265500 1.155563 -0.197418 0.706689 -0.679423
0.125854 0.316875 1.155563 -0.553200 0.456016 -0.697150
0.203253 0.400000 1.084190 -0.923252 0.008208 -0.384107
0.164436 0.508609 1.084190 -0.734001 -0.567961 -0.372375
0.062809 0.575732 1.084190 -0.274125 -0.892899 -0.357194
-0.062809 0.575732 1.084190 0.262091 -0.895976 -0.358518
-0.164436 0.508609 1.084190 0.724159 -0.578945 -0.374721
-0.203253 0.400000 1.084190 0.923252 -0.008208 -0.384107
-0.164436 0.291391 1.084190 0.734001 0.567961 -0.372375
-0.062809 0.224268 1.084190 0.274125 0.892899 -0.357194
0.062809 0.224268 1.084190 -0.262091 0.895976 -0.358518
0.164436 0.291391 1.084190 -0.724159 0.578945 -0.374721
0.220000 0.400000 1.000000 -1.000000 0.000000 0.000000
0.177984 0.517557 1.000000 -0.786630 -0.617423 0.001688
0.067984 0.590211 1.000000 -0.287601 -0.957750 0.000912
-0.067984 0.590211 1.000000 0.287601 -0.957750 -0.000912
-0.177984 0.517557 1.000000 0.786630 -0.617423 -0.001688
-0.220000 0.400000 1.000000 1.000000 -0.000000 0.000000
-0.177984 0.282443 1.000000 0.786630 0.617423 0.001688
-0.067984 0.209789 1.000000 0.287601 0.957750 0.000912
0.067984 0.209789 1.000000 -0.287601 0.957750 -0.000912
0.177984 0.282443 1.000000 -0.786630 0.617423 -0.001688
0.203253 0.400000 0.915810 -0.923252 -0.008208 0.384107
0.164436 0.508609 0.915810 -0.724159 -0.578945 0.374721
0.062809 0.575732 0.915810 -0.262091 -0.895976 0.358518
-0.062809 0.575732 0.915810 0.274125 -0.892899 0.357194
-0.164436 0.508609 0.915810 0.734001 -0.567961 0.372375
-0.203253 0.400000 0.915810 0.923252 0.008208 0.384107
-0.164436 0.291391 0.915810 0.724159 0.578945 0.374721
-0.062809 0.224268 0.915810 0.262091 0.895976 0.358518
0.062809 0.224268 0.915810 -0.274125 0.892899 0.357194
0.164436 0.291391 0.915810 -0.734001 0.567961 0.372375
0.155563 0.400000 0.844437 -0.705401 -0.015787 0.708633
0.125854 0.483125 0.844437 -0.553200 -0.456016 0.697150
0.048072 0.534500 0.844437 -0.197418 -0.706689 0.679423
-0.048072 0.534500 0.844437 0.222103 -0.699468 0.679275
-0.125854 0.483125 0.844437 0.571383 -0.433246 0.697007
-0.155563 0.400000 0.844437 0.705401 0.015787 0.708633
-0.125854 0.316875 0.844437 0.553200 0.456016 0.697150
-0.048072 0.265500 0.844437 0.197418 0.706689 0.679423
0.048072 0.265500 0.844437 -0.222103 0.699468 0.679275
0.125854 0.316875 0.844437 -0.571383 0.433246 0.697007
0.084190 0.400000 0.796747 -0.417303 -0.040155 0.907880
0.068111 0.444987 0.796747 -0.313612 -0.298389 0.901450
0.026016 0.472791 0.796747 -0.092896 -0.439090 0.893628
-0.026016 0.472791 0.796747 0.160964 -0.415954 0.895026
-0.068111 0.444987 0.796747 0.357532 -0.235154 0.903810
-0.084190 0.400000 0.796747 0.417303 0.040155 0.907880
-0.068111 0.355013 0.796747 0.313612 0.298389 0.901450
-0.026016 0.327209 0.796747 0.092896 0.439090 0.893628
0.026016 0.327209 0.796747 -0.160964 0.415954 0.895026
0.068111 0.355013 0.796747 -0.357532 0.235154 0.903810
0.000000 0.400000 0.780000 -0.000000 -0.000000 1.000000
-0.120000 0.400000 1.300000 -0.068305 0.160115 -0.984732
-0.060000 0.350000 1.150000 -0.743857 0.485453 -0.459360
-0.200000 0.350000 1.150000 0.727997 0.432074 -0.532290
-0.120000 0.500000 1.150000 -0.060908 -0.830505 -0.553670
0.120000 0.400000 1.300000 -0.068305 -0.160115 0.984732
0.060000 0.350000 1.150000 -0.743857 -0.485453 0.459360
0.200000 0.350000 1.150000 0.727997 -0.432074 0.532290
0.120000 0.500000 1.150000 -0.060908 0.830505 0.553670
-0.050000 -0.450000 0.400000 -0.978232 -0.168045 -0.121751
-0.025000 -0.415359 0.425981 -0.638781 0.608061 0.471404
0.025000 -0.415359 0.425981 0.327301 0.743793 0.582792
0.050000 -0.450000 0.400000 0.978230 0.163575 0.127706
0.025000 -0.484641 0.374019 0.641345 -0.620004 -0.451965
-0.025000 -0.484641 0.374019 -0.327308 -0.766018 -0.553250
-0.050000 -0.600000 0.600000 -0.958067 0.217749 0.186259
-0.025000 -0.557288 0.607119 -0.282437 0.782508 0.554896
0.025000 -0.557288 0.607119 0.701163 0.566431 0.433044
0.050000 -0.600000 0.600000 0.953233 -0.300519 -0.032165
0.025000 -0.642712 0.592881 0.230435 -0.888753 -0.396255
-0.025000 -0.642712 0.592881 -0.727177 -0.623053 -0.288129
0.050000 -0.650000 0.900000 0.969395 0.205110 -0.134922
0.025000 -0.688730 0.919365 0.698817 -0.699243 0.150711
-0.025000 -0.688730 0.919365 -0.208912 -0.956573 0.203284
-0.050000 -0.650000 0.900000 -0.946352 -0.321197 -0.035352
-0.025000 -0.611270 0.880635 -0.720543 0.623361 -0.303708
0.025000 -0.611270 0.880635 0.256527 0.899966 -0.352498
0.050000 -0.550000 1.100000 0.981981 -0.169031 0.084515
0.025000 -0.588730 1.119365 0.327327 -0.845154 0.422577
-0.025000 -0.588730 1.119365 -0.654654 -0.676123 0.338062
-0.050000 -0.550000 1.100000 -0.981981 0.169031 -0.084515
-0.025000 -0.511270 1.080635 -0.327327 0.845154 -0.422577
0.025000 -0.511270 1.080635 0.654654 0.676123 -0.338062
-0.070000 0.200000 0.000000 0.783349 -0.150756 -0.603023
-0.095000 0.243301 0.000000 0.522233 0.603023 -0.603023
-0.145000 0.243301 0.000000 -0.261116 0.753778 -0.603023
-0.170000 0.200000 0.000000 -0.783349 0.150756 -0.603023
-0.145000 0.156699 0.000000 -0.522233 -0.603023 -0.603023
-0.095000 0.156699 0.000000 0.261116 -0.753778 -0.603023
-0.070000 0.200000 0.300000 0.783349 0.150756 0.603023
-0.095000 0.243301 0.300000 0.261116 0.753778 0.603023
-0.145000 0.243301 0.300000 -0.522233 0.603023 0.603023
-0.170000 0.200000 0.300000 -0.783349 -0.150756 0.603023
-0.145000 0.156699 0.300000 -0.261116 -0.753778 0.603023
-0.095000 0.156699 0.300000 0.522233 -0.603023 0.603023
-0.120000 0.200000 0.000000 0.000000 0.000000 -1.000000
-0.120000 0.200000 0.300000 0.000000 0.000000 1.000000
0.170000 0.200000 0.000000 0.783349 -0.150756 -0.603023
0.145000 0.243301 0.000000 0.522233 0.603023 -0.603023
0.095000 0.243301 0.000000 -0.261116 0.753778 -0.603023
0.070000 0.200000 0.000000 -0.783349 0.150756 -0.603023
0.095000 0.156699 0.000000 -0.522233 -0.603023 -0.603023
0.145000 0.156699 0.000000 0.261116 -0.753778 -0.603023
0.170000 0.200000 0.300000 0.783349 0.150756 0.603023
0.145000 0.243301 0.300000 0.261116 0.753778 0.603023
0.095000 0.243301 0.300000 -0.522233 0.603023 0.603023
0.070000 0.200000 0.300000 -0.783349 -0.150756 0.603023
0.095000 0.156699 0.300000 -0.261116 -0.753778 0.603023
0.145000 0.156699 0.300000 0.522233 -0.603023 0.603023
0.120000 0.200000 0.000000 0.000000 0.000000 -1.000000
0.120000 0.200000 0.300000 0.000000 0.000000 1.000000
-0.070000 -0.200000 0.000000 0.783349 -0.150756 -0.603023
-0.095000 -0.156699 0.000000 0.522233 0.603023 -0.603023
-0.145000 -0.156699 0.000000 -0.261116 0.753778 -0.603023
-0.170000 -0.200000 0.000000 -0.783349 0.150756 -0.603023
-0.145000 -0.243301 0.000000 -0.522233 -0.603023 -0.603023
-0.095000 -0.243301 0.000000 0.261116 -0.753778 -0.603023
-0.070000 -0.200000 0.300000 0.783349 0.150756 0.603023
-0.095000 -0.156699 0.300000 0.261116 0.753778 0.603023
-0.145000 -0.156699 0.300000 -0.522233 0.603023 0.603023
-0.170000 -0.200000 0.300000 -0.783349 -0.150756 0.603023
-0.145000 -0.243301 0.300000 -0.261116 -0.753778 0.603023
-0.095000 -0.243301 0.300000 0.522233 -0.603023 0.603023
-0.120000 -0.200000 0.000000 0.000000 0.000000 -1.000000
-0.120000 -0.200000 0.300000 0.000000 0.000000 1.000000
0.170000 -0.200000 0.000000 0.783349 -0.150756 -0.603023
0.145000 -0.156699 0.000000 0.522233 0.603023 -0.603023
0.095000 -0.156699 0.000000 -0.261116 0.753778 -0.603023
0.070000 -0.200000 0.000000 -0.783349 0.150756 -0.603023
0.095000 -0.243301 0.000000 -0.522233 -0.603023 -0.603023
0.145000 -0.243301 0.000000 0.261116 -0.753778 -0.603023
0.170000 -0.200000 0.300000 0.783349 0.150756 0.603023
0.145000 -0.156699 0.300000 0.261116 0.753778 0.603023
0.095000 -0.156699 0.300000 -0.522233 0.603023 0.603023
0.070000 -0.200000 0.300000 -0.783349 -0.150756 0.603023
0.095000 -0.243301 0.300000 -0.261116 -0.753778 0.603023
0.145000 -0.243301 0.300000 0.522233 -0.603023 0.603023
0.120000 -0.200000 0.000000 0.000000 0.000000 -1.000000
0.120000 -0.200000 0.300000 0.000000 0.000000 1.000000
3 0 2 1
3 0 3 2
3 0 4 3
3 0 5 4
3 0 6 5
3 0 7 6
3 0 8 7
3 0 9 8
3 0 10 9
3 0 11 10
3 0 12 11
3 0 1 12
3 1 2 13
3 2 14 13
3 2 3 14
3 3 15 14
3 3 4 15
3 4 16 15
3 4 5 16
3 5 17 16
3 5 6 17
3 6 18 17
3 6 7 18
3 7 19 18
3 7 8 19
3 8 20 19
3 8 9 20
3 9 21 20
3 9 10 21
3 10 22 21
3 10 11 22
3 11 23 22
3 11 12 23
3 12 24 23
3 12 1 24
3 1 13 24
3 13 14 25
3 14 26 25
3 14 15 26
3 15 27 26
3 15 16 27
3 16 28 27
3 16 17 28
3 17 29 28
3 17 18 29
3 18 30 29
3 18 19 30
3 19 31 30
3 19 20 31
3 20 32 31
3 20 21 32
3 21 33 32
3 21 22 33
3 22 34 33
3 22 23 34
3 23 35 34
3 23 24 35
3 24 36 35
3 24 13 36
3 13 25 36
3 25 26 37
3 26 38 37
3 26 27 38
3 27 39 38
3 27 28 39
3 28 40 39
3 28 29 40
3 29 41 40
3 29 30 41
3 30 42 41
3 30 31 42
3 31 43 42
3 31 32 43
3 32 44 43
3 32 33 44
3 33 45 44
3 33 34 45
3 34 46 45
3 34 35 46
3 35 47 46
3 35 36 47
3 36 48 47
3 36 25 48
3 25 37 48
3 37 38 49
3 38 50 49
3 38 39 50
3 39 51 50
3 39 40 51
3 40 52 51
3 40 41 52
3 41 53 52
3 41 42 53
3 42 54 53
3 42 43 54
3 43 55 54
3 43 44 55
3 44 56 55
3 44 45 56
3 45 57 56
3 45 46 57
3 46 58 57
3 46 47 58
3 47 59 58
3 47 48 59
3 48 60 59
3 48 37 60
3 37 49 60
3 49 50 61
3 50 62 61
3 50 51 62
3 51 63 62
3 51 52 63
3 52 64 63
3 52 53 64
3 53 65 64
3 53 54 65
3 54 66 65
3 54 55 66
3 55 67 66
3 55 56 67
3 56 68 67
3 56 57 68
3 57 69 68
3 57 58 69
3 58 70 69
3 58 59 70
3 59 71 70
3 59 60 71
3 60 72 71
3 60 49 72
3 49 61 72
3 61 62 73
3 62 74 73
3 62 63 74
3 63 75 74
3 63 64 75
3 64 76 75
3 64 65 76
3 65 77 76
3 65 66 77
3 66 78 77
3 66 67 78
3 67 79 78
3 67 68 79
3 68 80 79
3 68 69 80
3 69 81 80
3 69 70 81
3 70 82 81
3 70 71 82
3 71 83 82
3 71 72 83
3 72 84 83
3 72 61 84
3 61 73 84
3 73 74 85
3 74 86 85
3 74 75 86
3 75 87 86
3 75 76 87
3 76 88 87
3 76 77 88
3 77 89 88
3 77 78 89
3 78 90 89
3 78 79 90
3 79 91 90
3 79 80 91
3 80 92 91
3 80 81 92
3 81 93 92
3 81 82 93
3 82 94 93
3 82 83 94
3 83 95 94
3 83 84 95
3 84 96 95
3 84 73 96
3 73 85 96
3 85 86 97
3 86 98 97
3 86 87 98
3 87 99 98
3 87 88 99
3 88 100 99
3 88 89 100
3 89 101 100
3 89 90 101
3 90 102 101
3 90 91 102
3 91 103 102
3 91 92 103
3 92 104 103
3 92 93 104
3 93 105 104
3 93 94 105
3 94 106 105
3 94 95 106
3 95 107 106
3 95 96 107
3 96 108 107
3 96 85 108
3 85 97 108
3 97 98 109
3 98 99 109
3 99 100 109
3 100 101 109
3 101 102 109
3 102 103 109
3 103 104 109
3 104 105 109
3 105 106 109
3 106 107 109
3 107 108 109
3 108 97 109
3 110 112 111
3 110 113 112
3 110 114 113
3 110 115 114
3 110 116 115
3 110 117 116
3 110 118 117
3 110 119 118
3 110 120 119
3 110 111 120
3 111 112 121
3 112 122 121
3 112 113 122
3 113 123 122
3 113 114 123
3 114 124 123
3 114 115 124
3 115 125 124
3 115 116 125
3 116 126 125
3 116 117 126
3 117 127 126
3 117 118 127
3 118 128 127
3 118 119 128
3 119 129 128
3 119 120 129
3 120 130 129
3 120 111 130
3 111 121 130
3 121 122 131
3 122 132 131
3 122 123 132
3 123 133 132
3 123 124 133
3 124 134 133
3 124 125 134
3 125 135 134
3 125 126 135
3 126 136 135
3 126 127 136
3 127 137 136
3 127 128 137
3 128 138 137
3 128 129 138
3 129 139 138
3 129 130 139
3 130 140 139
3 130 121 140
3 121 131 140
3 131 132 141
3 132 142 141
3 132 133 142
3 133 143 142
3 133 134 143
3 134 144 143
3 134 135 144
3 135 145 144
3 135 136 145
3 136 146 145
3 136 137 146
3 137 147 146
3 137 138 147
3 138 148 147
3 138 139 148
3 139 149 148
3 139 140 149
3 140 150 149
3 140 131 150
3 131 141 150
3 141 142 151
3 142 152 151
3 142 143 152
3 143 153 152
3 143 144 153
3 144 154 153
3 144 145 154
3 145 155 154
3 145 146 155
3 146 156 155
3 146 147 156
3 147 157 156
3 147 148 157
3 148 158 157
3 148 149 158
3 149 159 158
3 149 150 159
3 150 160 159
3 150 141 160
3 141 151 160
3 151 152 161
3 152 162 161
3 152 153 162
3 153 163 162
3 153 154 163
3 154 164 163
3 154 155 164
3 155 165 164
3 155 156 165
3 156 166 165
3 156 157 166
3 157 167 166
3 157 158 167
3 158 168 167
3 158 159 168
3 159 169 168
3 159 160 169
3 160 170 169
3 160 151 170
3 151 161 170
3 161 162 171
3 162 172 171
3 162 163 172
3 163 173 172
3 163 164 173
3 164 174 173
3 164 165 174
3 165 175 174
3 165 166 175
3 166 176 175
3 166 167 176
3 167 177 176
3 167 168 177
3 168 178 177
3 168 169 178
3 169 179 178
3 169 170 179
3 170 180 179
3 170 161 180
3 161 171 180
3 171 172 181
3 172 173 181
3 173 174 181
3 174 175 181
3 175 176 181
3 176 177 181
3 177 178 181
3 178 179 181
3 179 180 181
3 180 171 181
3 182 183 184
3 182 184 185
3 182 185 183
3 186 187 188
3 186 188 189
3 186 189 187
3 190 196 191
3 191 196 197
3 191 197 192
3 192 197 198
3 192 198 193
3 193 198 199
3 193 199 194
3 194 199 200
3 194 200 195
3 195 200 201
3 195 201 190
3 190 201 196
3 196 202 197
3 197 202 203
3 197 203 198
3 198 203 204
3 198 204 199
3 199 204 205
3 199 205 200
3 200 205 206
3 200 206 201
3 201 206 207
3 201 207 196
3 196 207 202
3 202 208 203
3 203 208 209
3 203 209 204
3 204 209 210
3 204 210 205
3 205 210 211
3 205 211 206
3 206 211 212
3 206 212 207
3 207 212 213
3 207 213 202
3 202 213 208
3 214 215 220
3 215 221 220
3 215 216 221
3 216 222 221
3 216 217 222
3 217 223 222
3 217 218 223
3 218 224 223
3 218 219 224
3 219 225 224
3 219 214 225
3 214 220 225
3 226 215 214
3 227 220 221
3 226 216 215
3 227 221 222
3 226 217 216
3 227 222 223
3 226 218 217
3 227 223 224
3 226 219 218
3 227 224 225
3 226 214 219
3 227 225 220
3 228 229 234
3 229 235 234
3 229 230 235
3 230 236 235
3 230 231 236
3 231 237 236
3 231 232 237
3 232 238 237
3 232 233 238
3 233 239 238
3 233 228 239
3 228 234 239
3 240 229 228
3 241 234 235
3 240 230 229
3 241 235 236
3 240 231 230
3 241 236 237
3 240 232 231
3 241 237 238
3 240 233 232
3 241 238 239
3 240 228 233
3 241 239 234
3 242 243 248
3 243 249 248
3 243 244 249
3 244 250 249
3 244 245 250
3 245 251 250
3 245 246 251
3 246 252 251
3 246 247 252
3 247 253 252
3 247 242 253
3 242 248 253
3 254 243 242
3 255 248 249
3 254 244 243
3 255 249 250
3 254 245 244
3 255 250 251
3 254 246 245
3 255 251 252
3 254 247 246
3 255 252 253
3 254 242 247
3 255 253 248
3 256 257 262
3 257 263 262
3 257 258 263
3 258 264 263
3 258 259 264
3 259 265 264
3 259 260 265
3 260 266 265
3 260 261 266
3 261 267 266
3 261 256 267
3 256 262 267
3 268 257 256
3 269 262 263
3 268 258 257
3 269 263 264
3 268 259 258
3 269 264 265
3 268 260 259
3 269 265 266
3 268 261 260
3 269 266 267
3 268 256 261
3 269 267 262
