ply
format ascii 1.0
element vertex 188
property float x
property float y
property float z
property float nx
property float ny
property float nz
element face 338
property list uchar int vertex_indices
end_header
0.200000 0.000000 0.224000 0.355157 0.049714 -0.933484
0.200000 0.008678 0.222614 0.366394 -0.251558 -0.895809
0.200000 0.015637 0.218729 0.408544 -0.558349 -0.722037
0.200000 0.019499 0.213115 0.461436 -0.814698 -0.351202
0.200000 0.019499 0.206885 0.472511 -0.863654 0.175601
0.200000 0.015637 0.201271 0.426680 -0.657331 0.621177
0.200000 0.008678 0.197386 0.376859 -0.353648 0.856102
0.200000 0.000000 0.196000 0.355157 -0.049714 0.933484
0.200000 -0.008678 0.197386 0.366394 0.251558 0.895809
0.200000 -0.015637 0.201271 0.408544 0.558349 0.722037
0.200000 -0.019499 0.206885 0.461436 0.814698 0.351202
0.200000 -0.019499 0.213115 0.472511 0.863654 -0.175601
0.200000 -0.015637 0.218729 0.426680 0.657331 -0.621177
0.200000 -0.008678 0.222614 0.376859 0.353648 -0.856102
0.333333 0.000000 0.274729 0.344900 0.000205 -0.938639
0.333333 0.040121 0.268318 0.361278 -0.304293 -0.881410
0.333333 0.072295 0.250358 0.406970 -0.612770 -0.677413
0.333333 0.090151 0.224403 0.456364 -0.848808 -0.266941
0.333333 0.090151 0.195597 0.456133 -0.849298 0.265775
0.333333 0.072295 0.169642 0.406544 -0.613488 0.677019
0.333333 0.040121 0.151682 0.361010 -0.304794 0.881347
0.333333 0.000000 0.145271 0.344900 -0.000205 0.938639
0.333333 -0.040121 0.151682 0.361278 0.304293 0.881410
0.333333 -0.072295 0.169642 0.406970 0.612770 0.677413
0.333333 -0.090151 0.195597 0.456364 0.848808 0.266941
0.333333 -0.090151 0.224403 0.456133 0.849298 -0.265775
0.333333 -0.072295 0.250358 0.406544 0.613488 -0.677019
0.333333 -0.040121 0.268318 0.361010 0.304794 -0.881347
0.466667 0.000000 0.322000 0.312786 0.000368 -0.949824
0.466667 0.069421 0.310909 0.328186 -0.308246 -0.892904
0.466667 0.125093 0.279831 0.371092 -0.623037 -0.688561
0.466667 0.155988 0.234922 0.417723 -0.866690 -0.272684
0.466667 0.155988 0.185078 0.417196 -0.867612 0.270548
0.466667 0.125093 0.140169 0.370158 -0.624361 0.687863
0.466667 0.069421 0.109091 0.327614 -0.309152 0.892801
0.466667 0.000000 0.098000 0.312786 -0.000368 0.949824
0.466667 -0.069421 0.109091 0.328186 0.308246 0.892904
0.466667 -0.125093 0.140169 0.371092 0.623037 0.688561
0.466667 -0.155988 0.185078 0.417723 0.866690 0.272684
0.466667 -0.155988 0.234922 0.417196 0.867612 -0.270548
0.466667 -0.125093 0.279831 0.370158 0.624361 -0.687863
0.466667 -0.069421 0.310909 0.327614 0.309152 -0.892801
0.600000 0.000000 0.362593 0.259515 0.000446 -0.965739
0.600000 0.094582 0.347481 0.272977 -0.314094 -0.909301
0.600000 0.170431 0.305140 0.310406 -0.638194 -0.704525
0.600000 0.212524 0.243955 0.351381 -0.893178 -0.280649
0.600000 0.212524 0.176045 0.350450 -0.894379 0.277977
0.600000 0.170431 0.114860 0.308837 -0.639865 0.703699
0.600000 0.094582 0.072519 0.272052 -0.315203 0.909195
0.600000 0.000000 0.057407 0.259515 -0.000446 0.965739
0.600000 -0.094582 0.072519 0.272977 0.314094 0.909301
0.600000 -0.170431 0.114860 0.310406 0.638194 0.704525
0.600000 -0.212524 0.176045 0.351381 0.893178 0.280649
0.600000 -0.212524 0.243955 0.350450 0.894379 -0.277977
0.600000 -0.170431 0.305140 0.308837 0.639865 -0.703699
0.600000 -0.094582 0.347481 0.272052 0.315203 -0.909195
0.733333 0.000000 0.393741 0.186561 0.000406 -0.982443
0.733333 0.113889 0.375545 0.196908 -0.320428 -0.926582
0.733333 0.205221 0.324561 0.225382 -0.654707 -0.721499
0.733333 0.255906 0.250886 0.256605 -0.922316 -0.288940
0.733333 0.255906 0.169114 0.255176 -0.923497 0.286422
0.733333 0.205221 0.095439 0.223093 -0.656295 0.720768
0.733333 0.113889 0.044455 0.195612 -0.321449 0.926502
0.733333 0.000000 0.026259 0.186561 -0.000406 0.982443
0.733333 -0.113889 0.044455 0.196908 0.320428 0.926582
0.733333 -0.205221 0.095439 0.225382 0.654707 0.721499
0.733333 -0.255906 0.169114 0.256605 0.922316 0.288940
0.733333 -0.255906 0.250886 0.255176 0.923497 -0.286422
0.733333 -0.205221 0.324561 0.223093 0.656295 -0.720768
0.733333 -0.113889 0.375545 0.195612 0.321449 -0.926502
0.866667 0.000000 0.413321 0.097778 0.000243 -0.995208
0.866667 0.126026 0.393186 0.103803 -0.325468 -0.939838
0.866667 0.227090 0.336769 0.119662 -0.667871 -0.734595
0.866667 0.283177 0.255243 0.136579 -0.945665 -0.295066
0.866667 0.283177 0.164757 0.134695 -0.946418 0.293515
0.866667 0.227090 0.083231 0.116756 -0.668856 0.734166
0.866667 0.126026 0.026814 0.102208 -0.326086 0.939799
0.866667 0.000000 0.006679 0.097778 -0.000243 0.995208
0.866667 -0.126026 0.026814 0.103803 0.325468 0.939838
0.866667 -0.227090 0.083231 0.119662 0.667871 0.734595
0.866667 -0.283177 0.164757 0.136579 0.945665 0.295066
0.866667 -0.283177 0.255243 0.134695 0.946418 -0.293515
0.866667 -0.227090 0.336769 0.116756 0.668856 -0.734166
0.866667 -0.126026 0.393186 0.102208 0.326086 -0.939799
1.000000 0.000000 0.420000 0.000000 0.000000 -1.000000
1.000000 0.130165 0.399203 0.000857 -0.327600 -0.944816
1.000000 0.234549 0.340933 0.001578 -0.673255 -0.739408
1.000000 0.292478 0.256729 0.001037 -0.954932 -0.296822
1.000000 0.292478 0.163271 -0.001037 -0.954932 0.296822
1.000000 0.234549 0.079067 -0.001578 -0.673255 0.739408
1.000000 0.130165 0.020797 -0.000857 -0.327600 0.944816
1.000000 0.000000 0.000000 0.000000 -0.000000 1.000000
1.000000 -0.130165 0.020797 0.000857 0.327600 0.944816
1.000000 -0.234549 0.079067 0.001578 0.673255 0.739408
1.000000 -0.292478 0.163271 0.001037 0.954932 0.296822
1.000000 -0.292478 0.256729 -0.001037 0.954932 -0.296822
1.000000 -0.234549 0.340933 -0.001578 0.673255 -0.739408
1.000000 -0.130165 0.399203 -0.000857 0.327600 -0.944816
1.133333 0.000000 0.413321 -0.097778 -0.000243 -0.995208
1.133333 0.126026 0.393186 -0.102208 -0.326086 -0.939799
1.133333 0.227090 0.336769 -0.116756 -0.668856 -0.734166
1.133333 0.283177 0.255243 -0.134695 -0.946418 -0.293515
1.133333 0.283177 0.164757 -0.136579 -0.945665 0.295066
1.133333 0.227090 0.083231 -0.119662 -0.667871 0.734595
1.133333 0.126026 0.026814 -0.103803 -0.325468 0.939838
1.133333 0.000000 0.006679 -0.097778 0.000243 0.995208
1.133333 -0.126026 0.026814 -0.102208 0.326086 0.939799
1.133333 -0.227090 0.083231 -0.116756 0.668856 0.734166
1.133333 -0.283177 0.164757 -0.134695 0.946418 0.293515
1.133333 -0.283177 0.255243 -0.136579 0.945665 -0.295066
1.133333 -0.227090 0.336769 -0.119662 0.667871 -0.734595
1.133333 -0.126026 0.393186 -0.103803 0.325468 -0.939838
1.266667 0.000000 0.393741 -0.186561 -0.000406 -0.982443
1.266667 0.113889 0.375545 -0.195612 -0.321449 -0.926502
1.266667 0.205221 0.324561 -0.223093 -0.656295 -0.720768
1.266667 0.255906 0.250886 -0.255176 -0.923497 -0.286422
1.266667 0.255906 0.169114 -0.256605 -0.922316 0.288940
1.266667 0.205221 0.095439 -0.225382 -0.654707 0.721499
1.266667 0.113889 0.044455 -0.196908 -0.320428 0.926582
1.266667 0.000000 0.026259 -0.186561 0.000406 0.982443
1.266667 -0.113889 0.044455 -0.195612 0.321449 0.926502
1.266667 -0.205221 0.095439 -0.223093 0.656295 0.720768
1.266667 -0.255906 0.169114 -0.255176 0.923497 0.286422
1.266667 -0.255906 0.250886 -0.256605 0.922316 -0.288940
1.266667 -0.205221 0.324561 -0.225382 0.654707 -0.721499
1.266667 -0.113889 0.375545 -0.196908 0.320428 -0.926582
1.400000 0.000000 0.362593 -0.259515 -0.000446 -0.965739
1.400000 0.094582 0.347481 -0.272052 -0.315203 -0.909195
1.400000 0.170431 0.305140 -0.308837 -0.639865 -0.703699
1.400000 0.212524 0.243955 -0.350450 -0.894379 -0.277977
1.400000 0.212524 0.176045 -0.351381 -0.893178 0.280649
1.400000 0.170431 0.114860 -0.310406 -0.638194 0.704525
1.400000 0.094582 0.072519 -0.272977 -0.314094 0.909301
1.400000 0.000000 0.057407 -0.259515 0.000446 0.965739
1.400000 -0.094582 0.072519 -0.272052 0.315203 0.909195
1.400000 -0.170431 0.114860 -0.308837 0.639865 0.703699
1.400000 -0.212524 0.176045 -0.350450 0.894379 0.277977
1.400000 -0.212524 0.243955 -0.351381 0.893178 -0.280649
1.400000 -0.170431 0.305140 -0.310406 0.638194 -0.704525
1.400000 -0.094582 0.347481 -0.272977 0.314094 -0.909301
1.533333 0.000000 0.322000 -0.312786 -0.000368 -0.949824
1.533333 0.069421 0.310909 -0.327614 -0.309152 -0.892801
1.533333 0.125093 0.279831 -0.370158 -0.624361 -0.687863
1.533333 0.155988 0.234922 -0.417196 -0.867612 -0.270548
1.533333 0.155988 0.185078 -0.417723 -0.866690 0.272684
1.533333 0.125093 0.140169 -0.371092 -0.623037 0.688561
1.533333 0.069421 0.109091 -0.328186 -0.308246 0.892904
1.533333 0.000000 0.098000 -0.312786 0.000368 0.949824
1.533333 -0.069421 0.109091 -0.327614 0.309152 0.892801
1.533333 -0.125093 0.140169 -0.370158 0.624361 0.687863
1.533333 -0.155988 0.185078 -0.417196 0.867612 0.270548
1.533333 -0.155988 0.234922 -0.417723 0.866690 -0.272684
1.533333 -0.125093 0.279831 -0.371092 0.623037 -0.688561
1.533333 -0.069421 0.310909 -0.328186 0.308246 -0.892904
1.666667 0.000000 0.274729 -0.344900 -0.000205 -0.938639
1.666667 0.040121 0.268318 -0.361010 -0.304794 -0.881347
1.666667 0.072295 0.250358 -0.406544 -0.613488 -0.677019
1.666667 0.090151 0.224403 -0.456133 -0.849298 -0.265775
1.666667 0.090151 0.195597 -0.456364 -0.848808 0.266941
1.666667 0.072295 0.169642 -0.406970 -0.612770 0.677413
1.666667 0.040121 0.151682 -0.361278 -0.304293 0.881410
1.666667 0.000000 0.145271 -0.344900 0.000205 0.938639
1.666667 -0.040121 0.151682 -0.361010 0.304794 0.881347
1.666667 -0.072295 0.169642 -0.406544 0.613488 0.677019
1.666667 -0.090151 0.195597 -0.456133 0.849298 0.265775
1.666667 -0.090151 0.224403 -0.456364 0.848808 -0.266941
1.666667 -0.072295 0.250358 -0.406970 0.612770 -0.677413
1.666667 -0.040121 0.268318 -0.361278 0.304293 -0.881410
1.800000 0.000000 0.224000 -0.355157 -0.049714 -0.933484
1.800000 0.008678 0.222614 -0.376859 -0.353648 -0.856102
1.800000 0.015637 0.218729 -0.426680 -0.657331 -0.621177
1.800000 0.019499 0.213115 -0.472511 -0.863654 -0.175601
1.800000 0.019499 0.206885 -0.461436 -0.814698 0.351202
1.800000 0.015637 0.201271 -0.408544 -0.558349 0.722037
1.800000 0.008678 0.197386 -0.366394 -0.251558 0.895809
1.800000 0.000000 0.196000 -0.355157 0.049714 0.933484
1.800000 -0.008678 0.197386 -0.376859 0.353648 0.856102
1.800000 -0.015637 0.201271 -0.426680 0.657331 0.621177
1.800000 -0.019499 0.206885 -0.472511 0.863654 0.175601
1.800000 -0.019499 0.213115 -0.461436 0.814698 -0.351202
1.800000 -0.015637 0.218729 -0.408544 0.558349 -0.722037
1.800000 -0.008678 0.222614 -0.366394 0.251558 -0.895809
0.200000 0.000000 0.210000 0.000000 -1.000000 0.000000
-0.150000 0.000000 0.510000 0.000000 -1.000000 0.000000
-0.150000 0.000000 0.160000 0.000000 -1.000000 0.000000
1.100000 0.000000 0.430000 0.000000 -1.000000 0.000000
1.300000 0.000000 0.660000 0.000000 -1.000000 0.000000
0.900000 0.000000 0.430000 0.000000 -1.000000 0.000000
3 0 1 14
3 1 15 14
3 1 2 15
3 2 16 15
3 2 3 16
3 3 17 16
3 3 4 17
3 4 18 17
3 4 5 18
3 5 19 18
3 5 6 19
3 6 20 19
3 6 7 20
3 7 21 20
3 7 8 21
3 8 22 21
3 8 9 22
3 9 23 22
3 9 10 23
3 10 24 23
3 10 11 24
3 11 25 24
3 11 12 25
3 12 26 25
3 12 13 26
3 13 27 26
3 13 0 27
3 0 14 27
3 14 15 28
3 15 29 28
3 15 16 29
3 16 30 29
3 16 17 30
3 17 31 30
3 17 18 31
3 18 32 31
3 18 19 32
3 19 33 32
3 19 20 33
3 20 34 33
3 20 21 34
3 21 35 34
3 21 22 35
3 22 36 35
3 22 23 36
3 23 37 36
3 23 24 37
3 24 38 37
3 24 25 38
3 25 39 38
3 25 26 39
3 26 40 39
3 26 27 40
3 27 41 40
3 27 14 41
3 14 28 41
3 28 29 42
3 29 43 42
3 29 30 43
3 30 44 43
3 30 31 44
3 31 45 44
3 31 32 45
3 32 46 45
3 32 33 46
3 33 47 46
3 33 34 47
3 34 48 47
3 34 35 48
3 35 49 48
3 35 36 49
3 36 50 49
3 36 37 50
3 37 51 50
3 37 38 51
3 38 52 51
3 38 39 52
3 39 53 52
3 39 40 53
3 40 54 53
3 40 41 54
3 41 55 54
3 41 28 55
3 28 42 55
3 42 43 56
3 43 57 56
3 43 44 57
3 44 58 57
3 44 45 58
3 45 59 58
3 45 46 59
3 46 60 59
3 46 47 60
3 47 61 60
3 47 48 61
3 48 62 61
3 48 49 62
3 49 63 62
3 49 50 63
3 50 64 63
3 50 51 64
3 51 65 64
3 51 52 65
3 52 66 65
3 52 53 66
3 53 67 66
3 53 54 67
3 54 68 67
3 54 55 68
3 55 69 68
3 55 42 69
3 42 56 69
3 56 57 70
3 57 71 70
3 57 58 71
3 58 72 71
3 58 59 72
3 59 73 72
3 59 60 73
3 60 74 73
3 60 61 74
3 61 75 74
3 61 62 75
3 62 76 75
3 62 63 76
3 63 77 76
3 63 64 77
3 64 78 77
3 64 65 78
3 65 79 78
3 65 66 79
3 66 80 79
3 66 67 80
3 67 81 80
3 67 68 81
3 68 82 81
3 68 69 82
3 69 83 82
3 69 56 83
3 56 70 83
3 70 71 84
3 71 85 84
3 71 72 85
3 72 86 85
3 72 73 86
3 73 87 86
3 73 74 87
3 74 88 87
3 74 75 88
3 75 89 88
3 75 76 89
3 76 90 89
3 76 77 90
3 77 91 90
3 77 78 91
3 78 92 91
3 78 79 92
3 79 93 92
3 79 80 93
3 80 94 93
3 80 81 94
3 81 95 94
3 81 82 95
3 82 96 95
3 82 83 96
3 83 97 96
3 83 70 97
3 70 84 97
3 84 85 98
3 85 99 98
3 85 86 99
3 86 100 99
3 86 87 100
3 87 101 100
3 87 88 101
3 88 102 101
3 88 89 102
3 89 103 102
3 89 90 103
3 90 104 103
3 90 91 104
3 91 105 104
3 91 92 105
3 92 106 105
3 92 93 106
3 93 107 106
3 93 94 107
3 94 108 107
3 94 95 108
3 95 109 108
3 95 96 109
3 96 110 109
3 96 97 110
3 97 111 110
3 97 84 111
3 84 98 111
3 98 99 112
3 99 113 112
3 99 100 113
3 100 114 113
3 100 101 114
3 101 115 114
3 101 102 115
3 102 116 115
3 102 103 116
3 103 117 116
3 103 104 117
3 104 118 117
3 104 105 118
3 105 119 118
3 105 106 119
3 106 120 119
3 106 107 120
3 107 121 120
3 107 108 121
3 108 122 121
3 108 109 122
3 109 123 122
3 109 110 123
3 110 124 123
3 110 111 124
3 111 125 124
3 111 98 125
3 98 112 125
3 112 113 126
3 113 127 126
3 113 114 127
3 114 128 127
3 114 115 128
3 115 129 128
3 115 116 129
3 116 130 129
3 116 117 130
3 117 131 130
3 117 118 131
3 118 132 131
3 118 119 132
3 119 133 132
3 119 120 133
3 120 134 133
3 120 121 134
3 121 135 134
3 121 122 135
3 122 136 135
3 122 123 136
3 123 137 136
3 123 124 137
3 124 138 137
3 124 125 138
3 125 139 138
3 125 112 139
3 112 126 139
3 126 127 140
3 127 141 140
3 127 128 141
3 128 142 141
3 128 129 142
3 129 143 142
3 129 130 143
3 130 144 143
3 130 131 144
3 131 145 144
3 131 132 145
3 132 146 145
3 132 133 146
3 133 147 146
3 133 134 147
3 134 148 147
3 134 135 148
3 135 149 148
3 135 136 149
3 136 150 149
3 136 137 150
3 137 151 150
3 137 138 151
3 138 152 151
3 138 139 152
3 139 153 152
3 139 126 153
3 126 140 153
3 140 141 154
3 141 155 154
3 141 142 155
3 142 156 155
3 142 143 156
3 143 157 156
3 143 144 157
3 144 158 157
3 144 145 158
3 145 159 158
3 145 146 159
3 146 160 159
3 146 147 160
3 147 161 160
3 147 148 161
3 148 162 161
3 148 149 162
3 149 163 162
3 149 150 163
3 150 164 163
3 150 151 164
3 151 165 164
3 151 152 165
3 152 166 165
3 152 153 166
3 153 167 166
3 153 140 167
3 140 154 167
3 154 155 168
3 155 169 168
3 155 156 169
3 156 170 169
3 156 157 170
3 157 171 170
3 157 158 171
3 158 172 171
3 158 159 172
3 159 173 172
3 159 160 173
3 160 174 173
3 160 161 174
3 161 175 174
3 161 162 175
3 162 176 175
3 162 163 176
3 163 177 176
3 163 164 177
3 164 178 177
3 164 165 178
3 165 179 178
3 165 166 179
3 166 180 179
3 166 167 180
3 167 181 180
3 167 154 181
3 154 168 181
3 182 183 184
3 185 186 187
