ply
format ascii 1.0
element vertex 149
property float x
property float y
property float z
property float nx
property float ny
property float nz
element face 248
property list uchar int vertex_indices
end_header
0.000000 0.000000 1.150000 0.000000 -0.000000 -1.000000
0.076537 0.000000 1.130970 -0.492200 0.028363 -0.870020
0.061919 0.067481 1.130970 -0.430331 -0.176181 -0.885311
0.023651 0.109186 1.130970 -0.205630 -0.328447 -0.921867
-0.023651 0.109186 1.130970 0.118047 -0.351784 -0.928608
-0.061919 0.067481 1.130970 0.385221 -0.227119 -0.894439
-0.076537 0.000000 1.130970 0.492200 -0.028363 -0.870020
-0.061919 -0.067481 1.130970 0.430331 0.176181 -0.885311
-0.023651 -0.109186 1.130970 0.205630 0.328447 -0.921867
0.023651 -0.109186 1.130970 -0.118047 0.351784 -0.928608
0.061919 -0.067481 1.130970 -0.385221 0.227119 -0.894439
0.141421 0.000000 1.076777 -0.775190 0.008624 -0.631669
0.114412 0.124688 1.076777 -0.666761 -0.323236 -0.671527
0.043702 0.201750 1.076777 -0.295581 -0.591678 -0.750033
-0.043702 0.201750 1.076777 0.259036 -0.607742 -0.750700
-0.114412 0.124688 1.076777 0.657313 -0.344242 -0.670400
-0.141421 0.000000 1.076777 0.775190 -0.008624 -0.631669
-0.114412 -0.124688 1.076777 0.666761 0.323236 -0.671527
-0.043702 -0.201750 1.076777 0.295581 0.591678 -0.750033
0.043702 -0.201750 1.076777 -0.259036 0.607742 -0.750700
0.114412 -0.124688 1.076777 -0.657313 0.344242 -0.670400
0.184776 0.000000 0.995671 -0.947731 0.003716 -0.319048
0.149487 0.162913 0.995671 -0.833959 -0.421953 -0.355622
0.057099 0.263598 0.995671 -0.379640 -0.819064 -0.430126
-0.057099 0.263598 0.995671 0.359603 -0.831996 -0.422456
-0.149487 0.162913 0.995671 0.831740 -0.433216 -0.347179
-0.184776 0.000000 0.995671 0.947731 -0.003716 -0.319048
-0.149487 -0.162913 0.995671 0.833959 0.421953 -0.355622
-0.057099 -0.263598 0.995671 0.379640 0.819064 -0.430126
0.057099 -0.263598 0.995671 -0.359603 0.831996 -0.422456
0.149487 -0.162913 0.995671 -0.831740 0.433216 -0.347179
0.200000 0.000000 0.900000 -1.000000 0.000000 0.000000
0.161803 0.176336 0.900000 -0.888313 -0.459203 -0.005733
0.061803 0.285317 0.900000 -0.403923 -0.914770 -0.006508
-0.061803 0.285317 0.900000 0.403923 -0.914770 0.006508
-0.161803 0.176336 0.900000 0.888313 -0.459203 0.005733
-0.200000 0.000000 0.900000 1.000000 -0.000000 0.000000
-0.161803 -0.176336 0.900000 0.888313 0.459203 -0.005733
-0.061803 -0.285317 0.900000 0.403923 0.914770 -0.006508
0.061803 -0.285317 0.900000 -0.403923 0.914770 0.006508
0.161803 -0.176336 0.900000 -0.888313 0.459203 0.005733
0.184776 0.000000 0.804329 -0.947731 -0.003716 0.319048
0.149487 0.162913 0.804329 -0.831740 -0.433216 0.347179
0.057099 0.263598 0.804329 -0.359603 -0.831996 0.422456
-0.057099 0.263598 0.804329 0.379640 -0.819064 0.430126
-0.149487 0.162913 0.804329 0.833959 -0.421953 0.355622
-0.184776 0.000000 0.804329 0.947731 0.003716 0.319048
-0.149487 -0.162913 0.804329 0.831740 0.433216 0.347179
-0.057099 -0.263598 0.804329 0.359603 0.831996 0.422456
0.057099 -0.263598 0.804329 -0.379640 0.819064 0.430126
0.149487 -0.162913 0.804329 -0.833959 0.421953 0.355622
0.141421 0.000000 0.723223 -0.775190 -0.008624 0.631669
0.114412 0.124688 0.723223 -0.657313 -0.344242 0.670400
0.043702 0.201750 0.723223 -0.259036 -0.607742 0.750700
-0.043702 0.201750 0.723223 0.295581 -0.591678 0.750033
-0.114412 0.124688 0.723223 0.666761 -0.323236 0.671527
-0.141421 0.000000 0.723223 0.775190 0.008624 0.631669
-0.114412 -0.124688 0.723223 0.657313 0.344242 0.670400
-0.043702 -0.201750 0.723223 0.259036 0.607742 0.750700
0.043702 -0.201750 0.723223 -0.295581 0.591678 0.750033
0.114412 -0.124688 0.723223 -0.666761 0.323236 0.671527
0.076537 0.000000 0.669030 -0.492200 -0.028363 0.870020
0.061919 0.067481 0.669030 -0.385221 -0.227119 0.894439
0.023651 0.109186 0.669030 -0.118047 -0.351784 0.928608
-0.023651 0.109186 0.669030 0.205630 -0.328447 0.921867
-0.061919 0.067481 0.669030 0.430331 -0.176181 0.885311
-0.076537 0.000000 0.669030 0.492200 0.028363 0.870020
-0.061919 -0.067481 0.669030 0.385221 0.227119 0.894439
-0.023651 -0.109186 0.669030 0.118047 0.351784 0.928608
0.023651 -0.109186 0.669030 -0.205630 0.328447 0.921867
0.061919 -0.067481 0.669030 -0.430331 0.176181 0.885311
0.000000 0.000000 0.650000 -0.000000 -0.000000 1.000000
0.000000 0.250000 1.330000 0.000000 -0.000000 -1.000000
0.065000 0.250000 1.312583 -0.540835 0.059605 -0.839014
0.045962 0.295962 1.312583 -0.424575 -0.340282 -0.839014
0.000000 0.315000 1.312583 -0.059605 -0.540835 -0.839014
-0.045962 0.295962 1.312583 0.340282 -0.424575 -0.839014
-0.065000 0.250000 1.312583 0.540835 -0.059605 -0.839014
-0.045962 0.204038 1.312583 0.424575 0.340282 -0.839014
-0.000000 0.185000 1.312583 0.059605 0.540835 -0.839014
0.045962 0.204038 1.312583 -0.340282 0.424575 -0.839014
0.112583 0.250000 1.265000 -0.863683 0.016517 -0.503765
0.079608 0.329608 1.265000 -0.622395 -0.599036 -0.503765
0.000000 0.362583 1.265000 -0.016517 -0.863683 -0.503765
-0.079608 0.329608 1.265000 0.599036 -0.622395 -0.503765
-0.112583 0.250000 1.265000 0.863683 -0.016517 -0.503765
-0.079608 0.170392 1.265000 0.622395 0.599036 -0.503765
-0.000000 0.137417 1.265000 0.016517 0.863683 -0.503765
0.079608 0.170392 1.265000 -0.599036 0.622395 -0.503765
0.130000 0.250000 1.200000 -1.000000 0.000000 -0.000000
0.091924 0.341924 1.200000 -0.707107 -0.707107 -0.000000
0.000000 0.380000 1.200000 0.000000 -1.000000 -0.000000
-0.091924 0.341924 1.200000 0.707107 -0.707107 -0.000000
-0.130000 0.250000 1.200000 1.000000 -0.000000 -0.000000
-0.091924 0.158076 1.200000 0.707107 0.707107 -0.000000
-0.000000 0.120000 1.200000 0.000000 1.000000 -0.000000
0.091924 0.158076 1.200000 -0.707107 0.707107 -0.000000
0.112583 0.250000 1.135000 -0.863683 -0.016517 0.503765
0.079608 0.329608 1.135000 -0.599036 -0.622395 0.503765
0.000000 0.362583 1.135000 0.016517 -0.863683 0.503765
-0.079608 0.329608 1.135000 0.622395 -0.599036 0.503765
-0.112583 0.250000 1.135000 0.863683 0.016517 0.503765
-0.079608 0.170392 1.135000 0.599036 0.622395 0.503765
-0.000000 0.137417 1.135000 -0.016517 0.863683 0.503765
0.079608 0.170392 1.135000 -0.622395 0.599036 0.503765
0.065000 0.250000 1.087417 -0.540835 -0.059605 0.839014
0.045962 0.295962 1.087417 -0.340282 -0.424575 0.839014
0.000000 0.315000 1.087417 0.059605 -0.540835 0.839014
-0.045962 0.295962 1.087417 0.424575 -0.340282 0.839014
-0.065000 0.250000 1.087417 0.540835 0.059605 0.839014
-0.045962 0.204038 1.087417 0.340282 0.424575 0.839014
-0.000000 0.185000 1.087417 -0.059605 0.540835 0.839014
0.045962 0.204038 1.087417 -0.424575 0.340282 0.839014
0.000000 0.250000 1.070000 0.015842 -0.038246 0.999143
-0.000000 0.250000 1.070000 -0.106596 0.257344 0.960422
0.000000 0.420000 1.200000 0.000000 -0.242536 0.970143
-0.030000 0.300000 1.170000 0.000000 -0.242536 0.970143
0.030000 0.300000 1.170000 0.000000 -0.242536 0.970143
-0.200000 0.000000 0.950000 -0.062536 -0.902590 0.425936
-0.600000 0.000000 0.900000 -0.050702 -0.912636 0.405616
-0.200000 -0.100000 0.750000 -0.074329 -0.891953 0.445976
-0.500000 -0.050000 0.800000 -0.062536 -0.902590 0.425936
0.200000 0.000000 0.950000 -0.062536 0.902590 -0.425936
0.600000 0.000000 0.900000 -0.050702 0.912636 -0.405616
0.200000 -0.100000 0.750000 -0.074329 0.891953 -0.445976
0.500000 -0.050000 0.800000 -0.062536 0.902590 -0.425936
0.000000 -0.300000 0.800000 0.000000 0.196116 0.980581
-0.080000 -0.550000 0.850000 0.000000 0.196116 0.980581
0.080000 -0.550000 0.850000 0.000000 0.196116 0.980581
-0.040000 0.000000 0.000000 0.971904 -0.235377 0.000000
-0.053820 0.019021 0.000000 0.524191 0.851600 0.000000
-0.076180 0.011756 0.000000 -0.647936 0.761695 0.000000
-0.076180 -0.011756 0.000000 -0.924638 -0.380847 0.000000
-0.053820 -0.019021 0.000000 0.076478 -0.997071 0.000000
-0.040000 0.000000 0.650000 0.971904 0.235377 0.000000
-0.053820 0.019021 0.650000 0.076478 0.997071 0.000000
-0.076180 0.011756 0.650000 -0.924638 0.380847 0.000000
-0.076180 -0.011756 0.650000 -0.647936 -0.761695 0.000000
-0.053820 -0.019021 0.650000 0.524191 -0.851600 0.000000
0.080000 0.000000 0.000000 0.971904 -0.235377 0.000000
0.066180 0.019021 0.000000 0.524191 0.851600 0.000000
0.043820 0.011756 0.000000 -0.647936 0.761695 0.000000
0.043820 -0.011756 0.000000 -0.924638 -0.380847 0.000000
0.066180 -0.019021 0.000000 0.076478 -0.997071 0.000000
0.080000 0.000000 0.650000 0.971904 0.235377 0.000000
0.066180 0.019021 0.650000 0.076478 0.997071 0.000000
0.043820 0.011756 0.650000 -0.924638 0.380847 0.000000
0.043820 -0.011756 0.650000 -0.647936 -0.761695 0.000000
0.066180 -0.019021 0.650000 0.524191 -0.851600 0.000000
3 0 2 1
3 0 3 2
3 0 4 3
3 0 5 4
3 0 6 5
3 0 7 6
3 0 8 7
3 0 9 8
3 0 10 9
3 0 1 10
3 1 2 11
3 2 12 11
3 2 3 12
3 3 13 12
3 3 4 13
3 4 14 13
3 4 5 14
3 5 15 14
3 5 6 15
3 6 16 15
3 6 7 16
3 7 17 16
3 7 8 17
3 8 18 17
3 8 9 18
3 9 19 18
3 9 10 19
3 10 20 19
3 10 1 20
3 1 11 20
3 11 12 21
3 12 22 21
3 12 13 22
3 13 23 22
3 13 14 23
3 14 24 23
3 14 15 24
3 15 25 24
3 15 16 25
3 16 26 25
3 16 17 26
3 17 27 26
3 17 18 27
3 18 28 27
3 18 19 28
3 19 29 28
3 19 20 29
3 20 30 29
3 20 11 30
3 11 21 30
3 21 22 31
3 22 32 31
3 22 23 32
3 23 33 32
3 23 24 33
3 24 34 33
3 24 25 34
3 25 35 34
3 25 26 35
3 26 36 35
3 26 27 36
3 27 37 36
3 27 28 37
3 28 38 37
3 28 29 38
3 29 39 38
3 29 30 39
3 30 40 39
3 30 21 40
3 21 31 40
3 31 32 41
3 32 42 41
3 32 33 42
3 33 43 42
3 33 34 43
3 34 44 43
3 34 35 44
3 35 45 44
3 35 36 45
3 36 46 45
3 36 37 46
3 37 47 46
3 37 38 47
3 38 48 47
3 38 39 48
3 39 49 48
3 39 40 49
3 40 50 49
3 40 31 50
3 31 41 50
3 41 42 51
3 42 52 51
3 42 43 52
3 43 53 52
3 43 44 53
3 44 54 53
3 44 45 54
3 45 55 54
3 45 46 55
3 46 56 55
3 46 47 56
3 47 57 56
3 47 48 57
3 48 58 57
3 48 49 58
3 49 59 58
3 49 50 59
3 50 60 59
3 50 41 60
3 41 51 60
3 51 52 61
3 52 62 61
3 52 53 62
3 53 63 62
3 53 54 63
3 54 64 63
3 54 55 64
3 55 65 64
3 55 56 65
3 56 66 65
3 56 57 66
3 57 67 66
3 57 58 67
3 58 68 67
3 58 59 68
3 59 69 68
3 59 60 69
3 60 70 69
3 60 51 70
3 51 61 70
3 61 62 71
3 62 63 71
3 63 64 71
3 64 65 71
3 65 66 71
3 66 67 71
3 67 68 71
3 68 69 71
3 69 70 71
3 70 61 71
3 72 74 73
3 72 75 74
3 72 76 75
3 72 77 76
3 72 78 77
3 72 79 78
3 72 80 79
3 72 73 80
3 73 74 81
3 74 82 81
3 74 75 82
3 75 83 82
3 75 76 83
3 76 84 83
3 76 77 84
3 77 85 84
3 77 78 85
3 78 86 85
3 78 79 86
3 79 87 86
3 79 80 87
3 80 88 87
3 80 73 88
3 73 81 88
3 81 82 89
3 82 90 89
3 82 83 90
3 83 91 90
3 83 84 91
3 84 92 91
3 84 85 92
3 85 93 92
3 85 86 93
3 86 94 93
3 86 87 94
3 87 95 94
3 87 88 95
3 88 96 95
3 88 81 96
3 81 89 96
3 89 90 97
3 90 98 97
3 90 91 98
3 91 99 98
3 91 92 99
3 92 100 99
3 92 93 100
3 93 101 100
3 93 94 101
3 94 102 101
3 94 95 102
3 95 103 102
3 95 96 103
3 96 104 103
3 96 89 104
3 89 97 104
3 97 98 105
3 98 106 105
3 98 99 106
3 99 107 106
3 99 100 107
3 100 108 107
3 100 101 108
3 101 109 108
3 101 102 109
3 102 110 109
3 102 103 110
3 103 111 110
3 103 104 111
3 104 112 111
3 104 97 112
3 97 105 112
3 105 106 113
3 106 107 113
3 107 108 113
3 108 109 113
3 109 110 113
3 110 111 113
3 111 114 113
3 111 112 114
3 112 113 114
3 112 105 113
3 115 116 117
3 118 119 121
3 118 121 120
3 122 123 125
3 122 125 124
3 126 127 128
3 129 130 134
3 130 135 134
3 130 131 135
3 131 136 135
3 131 132 136
3 132 137 136
3 132 133 137
3 133 138 137
3 133 129 138
3 129 134 138
3 139 140 144
3 140 145 144
3 140 141 145
3 141 146 145
3 141 142 146
3 142 147 146
3 142 143 147
3 143 148 147
3 143 139 148
3 139 144 148
