ply
format ascii 1.0
element vertex 262
property float x
property float y
property float z
property float nx
property float ny
property float nz
element face 416
property list uchar int vertex_indices
end_header
0.000000 0.000000 1.350000 0.000000 -0.000000 -1.000000
0.108156 0.000000 1.332870 -0.338780 0.014348 -0.940756
0.093666 0.092705 1.332870 -0.307960 -0.087719 -0.947347
0.054078 0.160570 1.332870 -0.196613 -0.170146 -0.965605
0.000000 0.185410 1.332870 -0.026207 -0.208288 -0.977716
-0.054078 0.160570 1.332870 0.153308 -0.186550 -0.970410
-0.093666 0.092705 1.332870 0.285115 -0.113673 -0.951729
-0.108156 0.000000 1.332870 0.338780 -0.014348 -0.940756
-0.093666 -0.092705 1.332870 0.307960 0.087719 -0.947347
-0.054078 -0.160570 1.332870 0.196613 0.170146 -0.965605
-0.000000 -0.185410 1.332870 0.026207 0.208288 -0.977716
0.054078 -0.160570 1.332870 -0.153308 0.186550 -0.970410
0.093666 -0.092705 1.332870 -0.285115 0.113673 -0.951729
0.205725 0.000000 1.283156 -0.587544 0.006621 -0.809165
0.178163 0.176336 1.283156 -0.527338 -0.172689 -0.831921
0.102862 0.305422 1.283156 -0.331924 -0.325574 -0.885341
0.000000 0.352671 1.283156 -0.016347 -0.396201 -0.918018
-0.102862 0.305422 1.283156 0.309812 -0.337920 -0.888722
-0.178163 0.176336 1.283156 0.519493 -0.186725 -0.833823
-0.205725 0.000000 1.283156 0.587544 -0.006621 -0.809165
-0.178163 -0.176336 1.283156 0.527338 0.172689 -0.831921
-0.102862 -0.305422 1.283156 0.331924 0.325574 -0.885341
-0.000000 -0.352671 1.283156 0.016347 0.396201 -0.918018
0.102862 -0.305422 1.283156 -0.309812 0.337920 -0.888722
0.178163 -0.176336 1.283156 -0.519493 0.186725 -0.833823
0.283156 0.000000 1.205725 -0.808843 0.004776 -0.588005
0.245220 0.242705 1.205725 -0.740250 -0.251445 -0.623543
0.141578 0.420378 1.205725 -0.490059 -0.501546 -0.712947
0.000000 0.485410 1.205725 -0.017852 -0.634862 -0.772419
-0.141578 0.420378 1.205725 0.472817 -0.517946 -0.712865
-0.245220 0.242705 1.205725 0.737446 -0.263657 -0.621818
-0.283156 0.000000 1.205725 0.808843 -0.004776 -0.588005
-0.245220 -0.242705 1.205725 0.740250 0.251445 -0.623543
-0.141578 -0.420378 1.205725 0.490059 0.501546 -0.712947
-0.000000 -0.485410 1.205725 0.017852 0.634862 -0.772419
0.141578 -0.420378 1.205725 -0.472817 0.517946 -0.712865
0.245220 -0.242705 1.205725 -0.737446 0.263657 -0.621818
0.332870 0.000000 1.108156 -0.951000 0.002496 -0.309180
0.288274 0.285317 1.108156 -0.888153 -0.309909 -0.339323
0.166435 0.494183 1.108156 -0.620929 -0.661871 -0.419970
0.000000 0.570634 1.108156 -0.014407 -0.879704 -0.475304
-0.166435 0.494183 1.108156 0.612052 -0.677038 -0.408672
-0.288274 0.285317 1.108156 0.888236 -0.317404 -0.332101
-0.332870 0.000000 1.108156 0.951000 -0.002496 -0.309180
-0.288274 -0.285317 1.108156 0.888153 0.309909 -0.339323
-0.166435 -0.494183 1.108156 0.620929 0.661871 -0.419970
-0.000000 -0.570634 1.108156 0.014407 0.879704 -0.475304
0.166435 -0.494183 1.108156 -0.612052 0.677038 -0.408672
0.288274 -0.285317 1.108156 -0.888236 0.317404 -0.332101
0.350000 0.000000 1.000000 -1.000000 0.000000 -0.000000
0.303109 0.300000 1.000000 -0.942381 -0.334504 -0.005008
0.175000 0.519615 1.000000 -0.673231 -0.739365 -0.009991
0.000000 0.600000 1.000000 -0.000000 -1.000000 -0.000000
-0.175000 0.519615 1.000000 0.673231 -0.739365 0.009991
-0.303109 0.300000 1.000000 0.942381 -0.334504 0.005008
-0.350000 0.000000 1.000000 1.000000 -0.000000 -0.000000
-0.303109 -0.300000 1.000000 0.942381 0.334504 -0.005008
-0.175000 -0.519615 1.000000 0.673231 0.739365 -0.009991
-0.000000 -0.600000 1.000000 0.000000 1.000000 -0.000000
0.175000 -0.519615 1.000000 -0.673231 0.739365 0.009991
0.303109 -0.300000 1.000000 -0.942381 0.334504 0.005008
0.332870 0.000000 0.891844 -0.951000 -0.002496 0.309180
0.288274 0.285317 0.891844 -0.888236 -0.317404 0.332101
0.166435 0.494183 0.891844 -0.612052 -0.677038 0.408672
0.000000 0.570634 0.891844 0.014407 -0.879704 0.475304
-0.166435 0.494183 0.891844 0.620929 -0.661871 0.419970
-0.288274 0.285317 0.891844 0.888153 -0.309909 0.339323
-0.332870 0.000000 0.891844 0.951000 0.002496 0.309180
-0.288274 -0.285317 0.891844 0.888236 0.317404 0.332101
-0.166435 -0.494183 0.891844 0.612052 0.677038 0.408672
-0.000000 -0.570634 0.891844 -0.014407 0.879704 0.475304
0.166435 -0.494183 0.891844 -0.620929 0.661871 0.419970
0.288274 -0.285317 0.891844 -0.888153 0.309909 0.339323
0.283156 0.000000 0.794275 -0.808843 -0.004776 0.588005
0.245220 0.242705 0.794275 -0.737446 -0.263657 0.621818
0.141578 0.420378 0.794275 -0.472817 -0.517946 0.712865
0.000000 0.485410 0.794275 0.017852 -0.634862 0.772419
-0.141578 0.420378 0.794275 0.490059 -0.501546 0.712947
-0.245220 0.242705 0.794275 0.740250 -0.251445 0.623543
-0.283156 0.000000 0.794275 0.808843 0.004776 0.588005
-0.245220 -0.242705 0.794275 0.737446 0.263657 0.621818
-0.141578 -0.420378 0.794275 0.472817 0.517946 0.712865
-0.000000 -0.485410 0.794275 -0.017852 0.634862 0.772419
0.141578 -0.420378 0.794275 -0.490059 0.501546 0.712947
0.245220 -0.242705 0.794275 -0.740250 0.251445 0.623543
0.205725 0.000000 0.716844 -0.587544 -0.006621 0.809165
0.178163 0.176336 0.716844 -0.519493 -0.186725 0.833823
0.102862 0.305422 0.716844 -0.309812 -0.337920 0.888722
0.000000 0.352671 0.716844 0.016347 -0.396201 0.918018
-0.102862 0.305422 0.716844 0.331924 -0.325574 0.885341
-0.178163 0.176336 0.716844 0.527338 -0.172689 0.831921
-0.205725 0.000000 0.716844 0.587544 0.006621 0.809165
-0.178163 -0.176336 0.716844 0.519493 0.186725 0.833823
-0.102862 -0.305422 0.716844 0.309812 0.337920 0.888722
-0.000000 -0.352671 0.716844 -0.016347 0.396201 0.918018
0.102862 -0.305422 0.716844 -0.331924 0.325574 0.885341
0.178163 -0.176336 0.716844 -0.527338 0.172689 0.831921
0.108156 0.000000 0.667130 -0.338780 -0.014348 0.940756
0.093666 0.092705 0.667130 -0.285115 -0.113673 0.951729
0.054078 0.160570 0.667130 -0.153308 -0.186550 0.970410
0.000000 0.185410 0.667130 0.026207 -0.208288 0.977716
-0.054078 0.160570 0.667130 0.196613 -0.170146 0.965605
-0.093666 0.092705 0.667130 0.307960 -0.087719 0.947347
-0.108156 0.000000 0.667130 0.338780 0.014348 0.940756
-0.093666 -0.092705 0.667130 0.285115 0.113673 0.951729
-0.054078 -0.160570 0.667130 0.153308 0.186550 0.970410
-0.000000 -0.185410 0.667130 -0.026207 0.208288 0.977716
0.054078 -0.160570 0.667130 -0.196613 0.170146 0.965605
0.093666 -0.092705 0.667130 -0.307960 0.087719 0.947347
0.000000 0.000000 0.650000 -0.000000 -0.000000 1.000000
0.000000 0.550000 1.700000 0.000000 0.000000 -1.000000
0.075000 0.550000 1.673205 -0.634414 0.067770 -0.770017
0.053033 0.603033 1.673205 -0.496518 -0.400678 -0.770017
0.000000 0.625000 1.673205 -0.067770 -0.634414 -0.770017
-0.053033 0.603033 1.673205 0.400678 -0.496518 -0.770017
-0.075000 0.550000 1.673205 0.634414 -0.067770 -0.770017
-0.053033 0.496967 1.673205 0.496518 0.400678 -0.770017
-0.000000 0.475000 1.673205 0.067770 0.634414 -0.770017
0.053033 0.496967 1.673205 -0.400678 0.496518 -0.770017
0.129904 0.550000 1.600000 -0.911536 0.011242 -0.411067
0.091856 0.641856 1.600000 -0.652502 -0.636604 -0.411067
0.000000 0.679904 1.600000 -0.011242 -0.911536 -0.411067
-0.091856 0.641856 1.600000 0.636604 -0.652502 -0.411067
-0.129904 0.550000 1.600000 0.911536 -0.011242 -0.411067
-0.091856 0.458144 1.600000 0.652502 0.636604 -0.411067
-0.000000 0.420096 1.600000 0.011242 0.911536 -0.411067
0.091856 0.458144 1.600000 -0.636604 0.652502 -0.411067
0.150000 0.550000 1.500000 -1.000000 0.000000 0.000000
0.106066 0.656066 1.500000 -0.707107 -0.707107 0.000000
0.000000 0.700000 1.500000 -0.000000 -1.000000 0.000000
-0.106066 0.656066 1.500000 0.707107 -0.707107 0.000000
-0.150000 0.550000 1.500000 1.000000 -0.000000 0.000000
-0.106066 0.443934 1.500000 0.707107 0.707107 0.000000
-0.000000 0.400000 1.500000 0.000000 1.000000 0.000000
0.106066 0.443934 1.500000 -0.707107 0.707107 0.000000
0.129904 0.550000 1.400000 -0.911536 -0.011242 0.411067
0.091856 0.641856 1.400000 -0.636604 -0.652502 0.411067
0.000000 0.679904 1.400000 0.011242 -0.911536 0.411067
-0.091856 0.641856 1.400000 0.652502 -0.636604 0.411067
-0.129904 0.550000 1.400000 0.911536 0.011242 0.411067
-0.091856 0.458144 1.400000 0.636604 0.652502 0.411067
-0.000000 0.420096 1.400000 -0.011242 0.911536 0.411067
0.091856 0.458144 1.400000 -0.652502 0.636604 0.411067
0.075000 0.550000 1.326795 -0.634414 -0.067770 0.770017
0.053033 0.603033 1.326795 -0.400678 -0.496518 0.770017
0.000000 0.625000 1.326795 0.067770 -0.634414 0.770017
-0.053033 0.603033 1.326795 0.496518 -0.400678 0.770017
-0.075000 0.550000 1.326795 0.634414 0.067770 0.770017
-0.053033 0.496967 1.326795 0.400678 0.496518 0.770017
-0.000000 0.475000 1.326795 -0.067770 0.634414 0.770017
0.053033 0.496967 1.326795 -0.496518 0.400678 0.770017
0.000000 0.550000 1.300000 -0.000000 0.000000 1.000000
0.080000 0.350000 1.100000 0.990602 -0.136774 0.000000
0.056569 0.406569 1.100000 0.797175 0.603748 0.000000
0.000000 0.430000 1.100000 0.136774 0.990602 0.000000
-0.056569 0.406569 1.100000 -0.603748 0.797175 0.000000
-0.080000 0.350000 1.100000 -0.990602 0.136774 0.000000
-0.056569 0.293431 1.100000 -0.797175 -0.603748 0.000000
-0.000000 0.270000 1.100000 -0.136774 -0.990602 0.000000
0.056569 0.293431 1.100000 0.603748 -0.797175 0.000000
0.080000 0.350000 1.500000 0.990602 0.136774 0.000000
0.056569 0.406569 1.500000 0.603748 0.797175 0.000000
0.000000 0.430000 1.500000 -0.136774 0.990602 0.000000
-0.056569 0.406569 1.500000 -0.797175 0.603748 0.000000
-0.080000 0.350000 1.500000 -0.990602 -0.136774 0.000000
-0.056569 0.293431 1.500000 -0.603748 -0.797175 0.000000
-0.000000 0.270000 1.500000 0.136774 -0.990602 0.000000
0.056569 0.293431 1.500000 0.797175 -0.603748 0.000000
-0.080000 0.570000 1.700000 -0.467522 0.879560 -0.088301
-0.061476 0.556180 1.704322 0.665584 0.725137 0.176565
-0.068552 0.533820 1.702671 0.877963 -0.422752 0.224636
-0.091448 0.533820 1.697329 -0.131995 -0.991206 -0.009339
-0.098524 0.556180 1.695678 -0.961234 -0.186279 -0.203298
-0.164142 0.564142 2.000000 -0.614502 0.784605 -0.082358
-0.141689 0.567051 2.006340 0.514162 0.820279 0.250557
-0.130722 0.546396 2.003919 0.935029 -0.273830 0.225253
-0.146396 0.530722 1.996081 0.067629 -0.990033 -0.123536
-0.167051 0.541689 1.993660 -0.889919 -0.330566 -0.314276
-0.214142 0.514142 2.200000 -0.530322 0.844158 0.078459
-0.191689 0.517051 2.206340 0.610636 0.718793 0.332357
-0.180722 0.496396 2.203919 0.907716 -0.399920 0.126949
-0.196396 0.480722 2.196081 -0.049636 -0.965956 -0.253898
-0.217051 0.491689 2.193660 -0.938393 -0.197074 -0.283867
-0.143292 0.563416 2.000000 0.235702 0.942809 -0.235702
-0.141056 0.545528 2.011180 0.707107 -0.000000 0.707107
-0.156708 0.536584 2.000000 -0.235702 -0.942809 0.235702
-0.158944 0.554472 1.988820 -0.707107 0.000000 -0.707107
-0.243292 0.613416 2.100000 0.612826 0.754247 0.235702
-0.241056 0.595528 2.111180 0.424264 -0.565685 0.707107
-0.256708 0.586584 2.100000 -0.612826 -0.754247 -0.235702
-0.258944 0.604472 2.088820 -0.424264 0.565685 -0.707107
0.080000 0.530000 1.700000 -0.046625 -0.998883 0.007696
0.061476 0.543820 1.704322 -0.940209 -0.263953 0.215257
0.068552 0.566180 1.702671 -0.530516 0.839074 0.120450
0.091448 0.566180 1.697329 0.606342 0.781859 -0.145071
0.098524 0.543820 1.695678 0.907294 -0.360949 -0.215716
0.135858 0.535858 2.000000 -0.586194 -0.809182 0.040028
0.132949 0.558311 2.006340 -0.922419 0.294451 0.249883
0.153604 0.569278 2.003919 0.016319 0.992786 0.118783
0.169278 0.553604 1.996081 0.932961 0.315530 -0.173275
0.158311 0.532949 1.993660 0.562709 -0.796360 -0.221740
0.185858 0.485858 2.200000 -0.844158 -0.530322 0.078459
0.182949 0.508311 2.206340 -0.718793 0.610636 0.332357
0.203604 0.519278 2.203919 0.399920 0.907716 0.126949
0.219278 0.503604 2.196081 0.965956 -0.049636 -0.253898
0.208311 0.482949 2.193660 0.197074 -0.938393 -0.283867
0.156708 0.536584 2.000000 0.612826 -0.754247 -0.235702
0.141056 0.545528 2.011180 -0.424264 -0.565685 0.707107
0.143292 0.563416 2.000000 -0.612826 0.754247 0.235702
0.158944 0.554472 1.988820 0.424264 0.565685 -0.707107
0.256708 0.586584 2.100000 0.235702 -0.942809 0.235702
0.241056 0.595528 2.111180 -0.707107 -0.000000 0.707107
0.243292 0.613416 2.100000 -0.235702 0.942809 -0.235702
0.258944 0.604472 2.088820 0.707107 0.000000 -0.707107
-0.100000 0.350000 0.000000 0.981981 -0.188982 0.000000
-0.125000 0.393301 0.000000 0.654654 0.755929 0.000000
-0.175000 0.393301 0.000000 -0.327327 0.944911 0.000000
-0.200000 0.350000 0.000000 -0.981981 0.188982 0.000000
-0.175000 0.306699 0.000000 -0.654654 -0.755929 0.000000
-0.125000 0.306699 0.000000 0.327327 -0.944911 0.000000
-0.100000 0.350000 0.700000 0.981981 0.188982 0.000000
-0.125000 0.393301 0.700000 0.327327 0.944911 0.000000
-0.175000 0.393301 0.700000 -0.654654 0.755929 0.000000
-0.200000 0.350000 0.700000 -0.981981 -0.188982 0.000000
-0.175000 0.306699 0.700000 -0.327327 -0.944911 0.000000
-0.125000 0.306699 0.700000 0.654654 -0.755929 0.000000
0.200000 0.350000 0.000000 0.981981 -0.188982 0.000000
0.175000 0.393301 0.000000 0.654654 0.755929 0.000000
0.125000 0.393301 0.000000 -0.327327 0.944911 0.000000
0.100000 0.350000 0.000000 -0.981981 0.188982 0.000000
0.125000 0.306699 0.000000 -0.654654 -0.755929 0.000000
0.175000 0.306699 0.000000 0.327327 -0.944911 0.000000
0.200000 0.350000 0.700000 0.981981 0.188982 0.000000
0.175000 0.393301 0.700000 0.327327 0.944911 0.000000
0.125000 0.393301 0.700000 -0.654654 0.755929 0.000000
0.100000 0.350000 0.700000 -0.981981 -0.188982 0.000000
0.125000 0.306699 0.700000 -0.327327 -0.944911 0.000000
0.175000 0.306699 0.700000 0.654654 -0.755929 0.000000
-0.100000 -0.350000 0.000000 0.981981 -0.188982 0.000000
-0.125000 -0.306699 0.000000 0.654654 0.755929 0.000000
-0.175000 -0.306699 0.000000 -0.327327 0.944911 0.000000
-0.200000 -0.350000 0.000000 -0.981981 0.188982 0.000000
-0.175000 -0.393301 0.000000 -0.654654 -0.755929 0.000000
-0.125000 -0.393301 0.000000 0.327327 -0.944911 0.000000
-0.100000 -0.350000 0.700000 0.981981 0.188982 0.000000
-0.125000 -0.306699 0.700000 0.327327 0.944911 0.000000
-0.175000 -0.306699 0.700000 -0.654654 0.755929 0.000000
-0.200000 -0.350000 0.700000 -0.981981 -0.188982 0.000000
-0.175000 -0.393301 0.700000 -0.327327 -0.944911 0.000000
-0.125000 -0.393301 0.700000 0.654654 -0.755929 0.000000
0.200000 -0.350000 0.000000 0.981981 -0.188982 0.000000
0.175000 -0.306699 0.000000 0.654654 0.755929 0.000000
0.125000 -0.306699 0.000000 -0.327327 0.944911 0.000000
0.100000 -0.350000 0.000000 -0.981981 0.188982 0.000000
0.125000 -0.393301 0.000000 -0.654654 -0.755929 0.000000
0.175000 -0.393301 0.000000 0.327327 -0.944911 0.000000
0.200000 -0.350000 0.700000 0.981981 0.188982 0.000000
0.175000 -0.306699 0.700000 0.327327 0.944911 0.000000
0.125000 -0.306699 0.700000 -0.654654 0.755929 0.000000
0.100000 -0.350000 0.700000 -0.981981 -0.188982 0.000000
0.125000 -0.393301 0.700000 -0.327327 -0.944911 0.000000
0.175000 -0.393301 0.700000 0.654654 -0.755929 0.000000
3 0 2 1
3 0 3 2
3 0 4 3
3 0 5 4
3 0 6 5
3 0 7 6
3 0 8 7
3 0 9 8
3 0 10 9
3 0 11 10
3 0 12 11
3 0 1 12
3 1 2 13
3 2 14 13
3 2 3 14
3 3 15 14
3 3 4 15
3 4 16 15
3 4 5 16
3 5 17 16
3 5 6 17
3 6 18 17
3 6 7 18
3 7 19 18
3 7 8 19
3 8 20 19
3 8 9 20
3 9 21 20
3 9 10 21
3 10 22 21
3 10 11 22
3 11 23 22
3 11 12 23
3 12 24 23
3 12 1 24
3 1 13 24
3 13 14 25
3 14 26 25
3 14 15 26
3 15 27 26
3 15 16 27
3 16 28 27
3 16 17 28
3 17 29 28
3 17 18 29
3 18 30 29
3 18 19 30
3 19 31 30
3 19 20 31
3 20 32 31
3 20 21 32
3 21 33 32
3 21 22 33
3 22 34 33
3 22 23 34
3 23 35 34
3 23 24 35
3 24 36 35
3 24 13 36
3 13 25 36
3 25 26 37
3 26 38 37
3 26 27 38
3 27 39 38
3 27 28 39
3 28 40 39
3 28 29 40
3 29 41 40
3 29 30 41
3 30 42 41
3 30 31 42
3 31 43 42
3 31 32 43
3 32 44 43
3 32 33 44
3 33 45 44
3 33 34 45
3 34 46 45
3 34 35 46
3 35 47 46
3 35 36 47
3 36 48 47
3 36 25 48
3 25 37 48
3 37 38 49
3 38 50 49
3 38 39 50
3 39 51 50
3 39 40 51
3 40 52 51
3 40 41 52
3 41 53 52
3 41 42 53
3 42 54 53
3 42 43 54
3 43 55 54
3 43 44 55
3 44 56 55
3 44 45 56
3 45 57 56
3 45 46 57
3 46 58 57
3 46 47 58
3 47 59 58
3 47 48 59
3 48 60 59
3 48 37 60
3 37 49 60
3 49 50 61
3 50 62 61
3 50 51 62
3 51 63 62
3 51 52 63
3 52 64 63
3 52 53 64
3 53 65 64
3 53 54 65
3 54 66 65
3 54 55 66
3 55 67 66
3 55 56 67
3 56 68 67
3 56 57 68
3 57 69 68
3 57 58 69
3 58 70 69
3 58 59 70
3 59 71 70
3 59 60 71
3 60 72 71
3 60 49 72
3 49 61 72
3 61 62 73
3 62 74 73
3 62 63 74
3 63 75 74
3 63 64 75
3 64 76 75
3 64 65 76
3 65 77 76
3 65 66 77
3 66 78 77
3 66 67 78
3 67 79 78
3 67 68 79
3 68 80 79
3 68 69 80
3 69 81 80
3 69 70 81
3 70 82 81
3 70 71 82
3 71 83 82
3 71 72 83
3 72 84 83
3 72 61 84
3 61 73 84
3 73 74 85
3 74 86 85
3 74 75 86
3 75 87 86
3 75 76 87
3 76 88 87
3 76 77 88
3 77 89 88
3 77 78 89
3 78 90 89
3 78 79 90
3 79 91 90
3 79 80 91
3 80 92 91
3 80 81 92
3 81 93 92
3 81 82 93
3 82 94 93
3 82 83 94
3 83 95 94
3 83 84 95
3 84 96 95
3 84 73 96
3 73 85 96
3 85 86 97
3 86 98 97
3 86 87 98
3 87 99 98
3 87 88 99
3 88 100 99
3 88 89 100
3 89 101 100
3 89 90 101
3 90 102 101
3 90 91 102
3 91 103 102
3 91 92 103
3 92 104 103
3 92 93 104
3 93 105 104
3 93 94 105
3 94 106 105
3 94 95 106
3 95 107 106
3 95 96 107
3 96 108 107
3 96 85 108
3 85 97 108
3 97 98 109
3 98 99 109
3 99 100 109
3 100 101 109
3 101 102 109
3 102 103 109
3 103 104 109
3 104 105 109
3 105 106 109
3 106 107 109
3 107 108 109
3 108 97 109
3 110 112 111
3 110 113 112
3 110 114 113
3 110 115 114
3 110 116 115
3 110 117 116
3 110 118 117
3 110 111 118
3 111 112 119
3 112 120 119
3 112 113 120
3 113 121 120
3 113 114 121
3 114 122 121
3 114 115 122
3 115 123 122
3 115 116 123
3 116 124 123
3 116 117 124
3 117 125 124
3 117 118 125
3 118 126 125
3 118 111 126
3 111 119 126
3 119 120 127
3 120 128 127
3 120 121 128
3 121 129 128
3 121 122 129
3 122 130 129
3 122 123 130
3 123 131 130
3 123 124 131
3 124 132 131
3 124 125 132
3 125 133 132
3 125 126 133
3 126 134 133
3 126 119 134
3 119 127 134
3 127 128 135
3 128 136 135
3 128 129 136
3 129 137 136
3 129 130 137
3 130 138 137
3 130 131 138
3 131 139 138
3 131 132 139
3 132 140 139
3 132 133 140
3 133 141 140
3 133 134 141
3 134 142 141
3 134 127 142
3 127 135 142
3 135 136 143
3 136 144 143
3 136 137 144
3 137 145 144
3 137 138 145
3 138 146 145
3 138 139 146
3 139 147 146
3 139 140 147
3 140 148 147
3 140 141 148
3 141 149 148
3 141 142 149
3 142 150 149
3 142 135 150
3 135 143 150
3 143 144 151
3 144 145 151
3 145 146 151
3 146 147 151
3 147 148 151
3 148 149 151
3 149 150 151
3 150 143 151
3 152 153 160
3 153 161 160
3 153 154 161
3 154 162 161
3 154 155 162
3 155 163 162
3 155 156 163
3 156 164 163
3 156 157 164
3 157 165 164
3 157 158 165
3 158 166 165
3 158 159 166
3 159 167 166
3 159 152 167
3 152 160 167
3 168 173 169
3 169 173 174
3 169 174 170
3 170 174 175
3 170 175 171
3 171 175 176
3 171 176 172
3 172 176 177
3 172 177 168
3 168 177 173
3 173 178 174
3 174 178 179
3 174 179 175
3 175 179 180
3 175 180 176
3 176 180 181
3 176 181 177
3 177 181 182
3 177 182 173
3 173 182 178
3 183 187 184
3 184 187 188
3 184 188 185
3 185 188 189
3 185 189 186
3 186 189 190
3 186 190 183
3 183 190 187
3 191 196 192
3 192 196 197
3 192 197 193
3 193 197 198
3 193 198 194
3 194 198 199
3 194 199 195
3 195 199 200
3 195 200 191
3 191 200 196
3 196 201 197
3 197 201 202
3 197 202 198
3 198 202 203
3 198 203 199
3 199 203 204
3 199 204 200
3 200 204 205
3 200 205 196
3 196 205 201
3 206 210 207
3 207 210 211
3 207 211 208
3 208 211 212
3 208 212 209
3 209 212 213
3 209 213 206
3 206 213 210
3 214 215 220
3 215 221 220
3 215 216 221
3 216 222 221
3 216 217 222
3 217 223 222
3 217 218 223
3 218 224 223
3 218 219 224
3 219 225 224
3 219 214 225
3 214 220 225
3 226 227 232
3 227 233 232
3 227 228 233
3 228 234 233
3 228 229 234
3 229 235 234
3 229 230 235
3 230 236 235
3 230 231 236
3 231 237 236
3 231 226 237
3 226 232 237
3 238 239 244
3 239 245 244
3 239 240 245
3 240 246 245
3 240 241 246
3 241 247 246
3 241 242 247
3 242 248 247
3 242 243 248
3 243 249 248
3 243 238 249
3 238 244 249
3 250 251 256
3 251 257 256
3 251 252 257
3 252 258 257
3 252 253 258
3 253 259 258
3 253 254 259
3 254 260 259
3 254 255 260
3 255 261 260
3 255 250 261
3 250 256 261
