ply
format ascii 1.0
element vertex 648
property float x
property float y
property float z
property float nx
property float ny
property float nz
element face 1296
property list uchar int vertex_indices
end_header
0.770000 0.000000 0.770000 -1.000000 0.000000 0.000000
0.740526 0.000000 0.880000 -0.865558 -0.007707 -0.500749
0.660000 0.000000 0.960526 -0.499180 -0.013540 -0.866393
0.550000 0.000000 0.990000 0.000000 -0.015747 -0.999876
0.440000 0.000000 0.960526 0.499180 -0.013540 -0.866393
0.359474 0.000000 0.880000 0.865558 -0.007707 -0.500749
0.330000 0.000000 0.770000 1.000000 -0.000000 0.000000
0.359474 0.000000 0.660000 0.865558 0.007707 0.500749
0.440000 0.000000 0.579474 0.499180 0.013540 0.866393
0.550000 0.000000 0.550000 0.000000 0.015747 0.999876
0.660000 0.000000 0.579474 -0.499180 0.013540 0.866393
0.740526 0.000000 0.660000 -0.865558 0.007707 0.500749
0.723563 0.263356 0.770000 -0.939693 -0.342020 0.000000
0.695866 0.253275 0.880000 -0.810723 -0.303280 -0.500749
0.620197 0.225733 0.960526 -0.464445 -0.183453 -0.866393
0.516831 0.188111 0.990000 0.005386 -0.014797 -0.999876
0.413465 0.150489 0.960526 0.473706 0.158006 -0.866393
0.337795 0.122947 0.880000 0.815995 0.288797 -0.500749
0.310099 0.112867 0.770000 0.939693 0.342020 0.000000
0.337795 0.122947 0.660000 0.810723 0.303280 0.500749
0.413465 0.150489 0.579474 0.464445 0.183453 0.866393
0.516831 0.188111 0.550000 -0.005386 0.014797 0.999876
0.620197 0.225733 0.579474 -0.473706 -0.158006 0.866393
0.695866 0.253275 0.660000 -0.815995 -0.288797 0.500749
0.589854 0.494946 0.770000 -0.766044 -0.642788 0.000000
0.567276 0.476001 0.880000 -0.658102 -0.562274 -0.500749
0.505589 0.424240 0.960526 -0.373691 -0.331239 -0.866393
0.421324 0.353533 0.990000 0.010122 -0.012063 -0.999876
0.337060 0.282827 0.960526 0.391097 0.310495 -0.866393
0.275373 0.231066 0.880000 0.668010 0.550467 -0.500749
0.252795 0.212120 0.770000 0.766044 0.642788 0.000000
0.275373 0.231066 0.660000 0.658102 0.562274 0.500749
0.337060 0.282827 0.579474 0.373691 0.331239 0.866393
0.421324 0.353533 0.550000 -0.010122 0.012063 0.999876
0.505589 0.424240 0.579474 -0.391097 -0.310495 0.866393
0.567276 0.476001 0.660000 -0.668010 -0.550467 0.500749
0.385000 0.666840 0.770000 -0.500000 -0.866025 0.000000
0.370263 0.641314 0.880000 -0.426105 -0.753449 -0.500749
0.330000 0.571577 0.960526 -0.237864 -0.439072 -0.866393
0.275000 0.476314 0.990000 0.013637 -0.007873 -0.999876
0.220000 0.381051 0.960526 0.261316 0.425533 -0.866393
0.179737 0.311314 0.880000 0.439453 0.745742 -0.500749
0.165000 0.285788 0.770000 0.500000 0.866025 0.000000
0.179737 0.311314 0.660000 0.426105 0.753449 0.500749
0.220000 0.381051 0.579474 0.237864 0.439072 0.866393
0.275000 0.476314 0.550000 -0.013637 0.007873 0.999876
0.330000 0.571577 0.579474 -0.261316 -0.425533 0.866393
0.370263 0.641314 0.660000 -0.439453 -0.745742 0.500749
0.133709 0.758302 0.770000 -0.173648 -0.984808 0.000000
0.128591 0.729275 0.880000 -0.142713 -0.853747 -0.500749
0.114608 0.649973 0.960526 -0.073348 -0.493947 -0.866393
0.095506 0.541644 0.990000 0.015508 -0.002734 -0.999876
0.076405 0.433315 0.960526 0.100016 0.489245 -0.866393
0.062422 0.354013 0.880000 0.157892 0.851070 -0.500749
0.057304 0.324987 0.770000 0.173648 0.984808 0.000000
0.062422 0.354013 0.660000 0.142713 0.853747 0.500749
0.076405 0.433315 0.579474 0.073348 0.493947 0.866393
0.095506 0.541644 0.550000 -0.015508 0.002734 0.999876
0.114608 0.649973 0.579474 -0.100016 -0.489245 0.866393
0.128591 0.729275 0.660000 -0.157892 -0.851070 0.500749
-0.133709 0.758302 0.770000 0.173648 -0.984808 0.000000
-0.128591 0.729275 0.880000 0.157892 -0.851070 -0.500749
-0.114608 0.649973 0.960526 0.100016 -0.489245 -0.866393
-0.095506 0.541644 0.990000 0.015508 0.002734 -0.999876
-0.076405 0.433315 0.960526 -0.073348 0.493947 -0.866393
-0.062422 0.354013 0.880000 -0.142713 0.853747 -0.500749
-0.057304 0.324987 0.770000 -0.173648 0.984808 0.000000
-0.062422 0.354013 0.660000 -0.157892 0.851070 0.500749
-0.076405 0.433315 0.579474 -0.100016 0.489245 0.866393
-0.095506 0.541644 0.550000 -0.015508 -0.002734 0.999876
-0.114608 0.649973 0.579474 0.073348 -0.493947 0.866393
-0.128591 0.729275 0.660000 0.142713 -0.853747 0.500749
-0.385000 0.666840 0.770000 0.500000 -0.866025 0.000000
-0.370263 0.641314 0.880000 0.439453 -0.745742 -0.500749
-0.330000 0.571577 0.960526 0.261316 -0.425533 -0.866393
-0.275000 0.476314 0.990000 0.013637 0.007873 -0.999876
-0.220000 0.381051 0.960526 -0.237864 0.439072 -0.866393
-0.179737 0.311314 0.880000 -0.426105 0.753449 -0.500749
-0.165000 0.285788 0.770000 -0.500000 0.866025 0.000000
-0.179737 0.311314 0.660000 -0.439453 0.745742 0.500749
-0.220000 0.381051 0.579474 -0.261316 0.425533 0.866393
-0.275000 0.476314 0.550000 -0.013637 -0.007873 0.999876
-0.330000 0.571577 0.579474 0.237864 -0.439072 0.866393
-0.370263 0.641314 0.660000 0.426105 -0.753449 0.500749
-0.589854 0.494946 0.770000 0.766044 -0.642788 0.000000
-0.567276 0.476001 0.880000 0.668010 -0.550467 -0.500749
-0.505589 0.424240 0.960526 0.391097 -0.310495 -0.866393
-0.421324 0.353533 0.990000 0.010122 0.012063 -0.999876
-0.337060 0.282827 0.960526 -0.373691 0.331239 -0.866393
-0.275373 0.231066 0.880000 -0.658102 0.562274 -0.500749
-0.252795 0.212120 0.770000 -0.766044 0.642788 0.000000
-0.275373 0.231066 0.660000 -0.668010 0.550467 0.500749
-0.337060 0.282827 0.579474 -0.391097 0.310495 0.866393
-0.421324 0.353533 0.550000 -0.010122 -0.012063 0.999876
-0.505589 0.424240 0.579474 0.373691 -0.331239 0.866393
-0.567276 0.476001 0.660000 0.658102 -0.562274 0.500749
-0.723563 0.263356 0.770000 0.939693 -0.342020 0.000000
-0.695866 0.253275 0.880000 0.815995 -0.288797 -0.500749
-0.620197 0.225733 0.960526 0.473706 -0.158006 -0.866393
-0.516831 0.188111 0.990000 0.005386 0.014797 -0.999876
-0.413465 0.150489 0.960526 -0.464445 0.183453 -0.866393
-0.337795 0.122947 0.880000 -0.810723 0.303280 -0.500749
-0.310099 0.112867 0.770000 -0.939693 0.342020 0.000000
-0.337795 0.122947 0.660000 -0.815995 0.288797 0.500749
-0.413465 0.150489 0.579474 -0.473706 0.158006 0.866393
-0.516831 0.188111 0.550000 -0.005386 -0.014797 0.999876
-0.620197 0.225733 0.579474 0.464445 -0.183453 0.866393
-0.695866 0.253275 0.660000 0.810723 -0.303280 0.500749
-0.770000 0.000000 0.770000 1.000000 -0.000000 0.000000
-0.740526 0.000000 0.880000 0.865558 0.007707 -0.500749
-0.660000 0.000000 0.960526 0.499180 0.013540 -0.866393
-0.550000 0.000000 0.990000 -0.000000 0.015747 -0.999876
-0.440000 0.000000 0.960526 -0.499180 0.013540 -0.866393
-0.359474 0.000000 0.880000 -0.865558 0.007707 -0.500749
-0.330000 0.000000 0.770000 -1.000000 0.000000 0.000000
-0.359474 0.000000 0.660000 -0.865558 -0.007707 0.500749
-0.440000 0.000000 0.579474 -0.499180 -0.013540 0.866393
-0.550000 0.000000 0.550000 -0.000000 -0.015747 0.999876
-0.660000 0.000000 0.579474 0.499180 -0.013540 0.866393
-0.740526 0.000000 0.660000 0.865558 -0.007707 0.500749
-0.723563 -0.263356 0.770000 0.939693 0.342020 0.000000
-0.695866 -0.253275 0.880000 0.810723 0.303280 -0.500749
-0.620197 -0.225733 0.960526 0.464445 0.183453 -0.866393
-0.516831 -0.188111 0.990000 -0.005386 0.014797 -0.999876
-0.413465 -0.150489 0.960526 -0.473706 -0.158006 -0.866393
-0.337795 -0.122947 0.880000 -0.815995 -0.288797 -0.500749
-0.310099 -0.112867 0.770000 -0.939693 -0.342020 0.000000
-0.337795 -0.122947 0.660000 -0.810723 -0.303280 0.500749
-0.413465 -0.150489 0.579474 -0.464445 -0.183453 0.866393
-0.516831 -0.188111 0.550000 0.005386 -0.014797 0.999876
-0.620197 -0.225733 0.579474 0.473706 0.158006 0.866393
-0.695866 -0.253275 0.660000 0.815995 0.288797 0.500749
-0.589854 -0.494946 0.770000 0.766044 0.642788 0.000000
-0.567276 -0.476001 0.880000 0.658102 0.562274 -0.500749
-0.505589 -0.424240 0.960526 0.373691 0.331239 -0.866393
-0.421324 -0.353533 0.990000 -0.010122 0.012063 -0.999876
-0.337060 -0.282827 0.960526 -0.391097 -0.310495 -0.866393
-0.275373 -0.231066 0.880000 -0.668010 -0.550467 -0.500749
-0.252795 -0.212120 0.770000 -0.766044 -0.642788 0.000000
-0.275373 -0.231066 0.660000 -0.658102 -0.562274 0.500749
-0.337060 -0.282827 0.579474 -0.373691 -0.331239 0.866393
-0.421324 -0.353533 0.550000 0.010122 -0.012063 0.999876
-0.505589 -0.424240 0.579474 0.391097 0.310495 0.866393
-0.567276 -0.476001 0.660000 0.668010 0.550467 0.500749
-0.385000 -0.666840 0.770000 0.500000 0.866025 0.000000
-0.370263 -0.641314 0.880000 0.426105 0.753449 -0.500749
-0.330000 -0.571577 0.960526 0.237864 0.439072 -0.866393
-0.275000 -0.476314 0.990000 -0.013637 0.007873 -0.999876
-0.220000 -0.381051 0.960526 -0.261316 -0.425533 -0.866393
-0.179737 -0.311314 0.880000 -0.439453 -0.745742 -0.500749
-0.165000 -0.285788 0.770000 -0.500000 -0.866025 0.000000
-0.179737 -0.311314 0.660000 -0.426105 -0.753449 0.500749
-0.220000 -0.381051 0.579474 -0.237864 -0.439072 0.866393
-0.275000 -0.476314 0.550000 0.013637 -0.007873 0.999876
-0.330000 -0.571577 0.579474 0.261316 0.425533 0.866393
-0.370263 -0.641314 0.660000 0.439453 0.745742 0.500749
-0.133709 -0.758302 0.770000 0.173648 0.984808 0.000000
-0.128591 -0.729275 0.880000 0.142713 0.853747 -0.500749
-0.114608 -0.649973 0.960526 0.073348 0.493947 -0.866393
-0.095506 -0.541644 0.990000 -0.015508 0.002734 -0.999876
-0.076405 -0.433315 0.960526 -0.100016 -0.489245 -0.866393
-0.062422 -0.354013 0.880000 -0.157892 -0.851070 -0.500749
-0.057304 -0.324987 0.770000 -0.173648 -0.984808 0.000000
-0.062422 -0.354013 0.660000 -0.142713 -0.853747 0.500749
-0.076405 -0.433315 0.579474 -0.073348 -0.493947 0.866393
-0.095506 -0.541644 0.550000 0.015508 -0.002734 0.999876
-0.114608 -0.649973 0.579474 0.100016 0.489245 0.866393
-0.128591 -0.729275 0.660000 0.157892 0.851070 0.500749
0.133709 -0.758302 0.770000 -0.173648 0.984808 0.000000
0.128591 -0.729275 0.880000 -0.157892 0.851070 -0.500749
0.114608 -0.649973 0.960526 -0.100016 0.489245 -0.866393
0.095506 -0.541644 0.990000 -0.015508 -0.002734 -0.999876
0.076405 -0.433315 0.960526 0.073348 -0.493947 -0.866393
0.062422 -0.354013 0.880000 0.142713 -0.853747 -0.500749
0.057304 -0.324987 0.770000 0.173648 -0.984808 0.000000
0.062422 -0.354013 0.660000 0.157892 -0.851070 0.500749
0.076405 -0.433315 0.579474 0.100016 -0.489245 0.866393
0.095506 -0.541644 0.550000 0.015508 0.002734 0.999876
0.114608 -0.649973 0.579474 -0.073348 0.493947 0.866393
0.128591 -0.729275 0.660000 -0.142713 0.853747 0.500749
0.385000 -0.666840 0.770000 -0.500000 0.866025 0.000000
0.370263 -0.641314 0.880000 -0.439453 0.745742 -0.500749
0.330000 -0.571577 0.960526 -0.261316 0.425533 -0.866393
0.275000 -0.476314 0.990000 -0.013637 -0.007873 -0.999876
0.220000 -0.381051 0.960526 0.237864 -0.439072 -0.866393
0.179737 -0.311314 0.880000 0.426105 -0.753449 -0.500749
0.165000 -0.285788 0.770000 0.500000 -0.866025 0.000000
0.179737 -0.311314 0.660000 0.439453 -0.745742 0.500749
0.220000 -0.381051 0.579474 0.261316 -0.425533 0.866393
0.275000 -0.476314 0.550000 0.013637 0.007873 0.999876
0.330000 -0.571577 0.579474 -0.237864 0.439072 0.866393
0.370263 -0.641314 0.660000 -0.426105 0.753449 0.500749
0.589854 -0.494946 0.770000 -0.766044 0.642788 0.000000
0.567276 -0.476001 0.880000 -0.668010 0.550467 -0.500749
0.505589 -0.424240 0.960526 -0.391097 0.310495 -0.866393
0.421324 -0.353533 0.990000 -0.010122 -0.012063 -0.999876
0.337060 -0.282827 0.960526 0.373691 -0.331239 -0.866393
0.275373 -0.231066 0.880000 0.658102 -0.562274 -0.500749
0.252795 -0.212120 0.770000 0.766044 -0.642788 0.000000
0.275373 -0.231066 0.660000 0.668010 -0.550467 0.500749
0.337060 -0.282827 0.579474 0.391097 -0.310495 0.866393
0.421324 -0.353533 0.550000 0.010122 0.012063 0.999876
0.505589 -0.424240 0.579474 -0.373691 0.331239 0.866393
0.567276 -0.476001 0.660000 -0.658102 0.562274 0.500749
0.723563 -0.263356 0.770000 -0.939693 0.342020 0.000000
0.695866 -0.253275 0.880000 -0.815995 0.288797 -0.500749
0.620197 -0.225733 0.960526 -0.473706 0.158006 -0.866393
0.516831 -0.188111 0.990000 -0.005386 -0.014797 -0.999876
0.413465 -0.150489 0.960526 0.464445 -0.183453 -0.866393
0.337795 -0.122947 0.880000 0.810723 -0.303280 -0.500749
0.310099 -0.112867 0.770000 0.939693 -0.342020 0.000000
0.337795 -0.122947 0.660000 0.815995 -0.288797 0.500749
0.413465 -0.150489 0.579474 0.473706 -0.158006 0.866393
0.516831 -0.188111 0.550000 0.005386 0.014797 0.999876
0.620197 -0.225733 0.579474 -0.464445 0.183453 0.866393
0.695866 -0.253275 0.660000 -0.810723 0.303280 0.500749
2.170000 0.000000 0.770000 -1.000000 0.000000 0.000000
2.140526 0.000000 0.880000 -0.865558 -0.007707 -0.500749
2.060000 0.000000 0.960526 -0.499180 -0.013540 -0.866393
1.950000 0.000000 0.990000 0.000000 -0.015747 -0.999876
1.840000 0.000000 0.960526 0.499180 -0.013540 -0.866393
1.759474 0.000000 0.880000 0.865558 -0.007707 -0.500749
1.730000 0.000000 0.770000 1.000000 -0.000000 0.000000
1.759474 0.000000 0.660000 0.865558 0.007707 0.500749
1.840000 0.000000 0.579474 0.499180 0.013540 0.866393
1.950000 0.000000 0.550000 0.000000 0.015747 0.999876
2.060000 0.000000 0.579474 -0.499180 0.013540 0.866393
2.140526 0.000000 0.660000 -0.865558 0.007707 0.500749
2.123563 0.263356 0.770000 -0.939693 -0.342020 0.000000
2.095866 0.253275 0.880000 -0.810723 -0.303280 -0.500749
2.020197 0.225733 0.960526 -0.464445 -0.183453 -0.866393
1.916831 0.188111 0.990000 0.005386 -0.014797 -0.999876
1.813465 0.150489 0.960526 0.473706 0.158006 -0.866393
1.737795 0.122947 0.880000 0.815995 0.288797 -0.500749
1.710099 0.112867 0.770000 0.939693 0.342020 0.000000
1.737795 0.122947 0.660000 0.810723 0.303280 0.500749
1.813465 0.150489 0.579474 0.464445 0.183453 0.866393
1.916831 0.188111 0.550000 -0.005386 0.014797 0.999876
2.020197 0.225733 0.579474 -0.473706 -0.158006 0.866393
2.095866 0.253275 0.660000 -0.815995 -0.288797 0.500749
1.989854 0.494946 0.770000 -0.766044 -0.642788 0.000000
1.967276 0.476001 0.880000 -0.658102 -0.562274 -0.500749
1.905589 0.424240 0.960526 -0.373691 -0.331239 -0.866393
1.821324 0.353533 0.990000 0.010122 -0.012063 -0.999876
1.737060 0.282827 0.960526 0.391097 0.310495 -0.866393
1.675373 0.231066 0.880000 0.668010 0.550467 -0.500749
1.652795 0.212120 0.770000 0.766044 0.642788 -0.000000
1.675373 0.231066 0.660000 0.658102 0.562274 0.500749
1.737060 0.282827 0.579474 0.373691 0.331239 0.866393
1.821324 0.353533 0.550000 -0.010122 0.012063 0.999876
1.905589 0.424240 0.579474 -0.391097 -0.310495 0.866393
1.967276 0.476001 0.660000 -0.668010 -0.550467 0.500749
1.785000 0.666840 0.770000 -0.500000 -0.866025 0.000000
1.770263 0.641314 0.880000 -0.426105 -0.753449 -0.500749
1.730000 0.571577 0.960526 -0.237864 -0.439072 -0.866393
1.675000 0.476314 0.990000 0.013637 -0.007873 -0.999876
1.620000 0.381051 0.960526 0.261316 0.425533 -0.866393
1.579737 0.311314 0.880000 0.439453 0.745742 -0.500749
1.565000 0.285788 0.770000 0.500000 0.866025 0.000000
1.579737 0.311314 0.660000 0.426105 0.753449 0.500749
1.620000 0.381051 0.579474 0.237864 0.439072 0.866393
1.675000 0.476314 0.550000 -0.013637 0.007873 0.999876
1.730000 0.571577 0.579474 -0.261316 -0.425533 0.866393
1.770263 0.641314 0.660000 -0.439453 -0.745742 0.500749
1.533709 0.758302 0.770000 -0.173648 -0.984808 0.000000
1.528591 0.729275 0.880000 -0.142713 -0.853747 -0.500749
1.514608 0.649973 0.960526 -0.073348 -0.493947 -0.866393
1.495506 0.541644 0.990000 0.015508 -0.002734 -0.999876
1.476405 0.433315 0.960526 0.100016 0.489245 -0.866393
1.462422 0.354013 0.880000 0.157892 0.851070 -0.500749
1.457304 0.324987 0.770000 0.173648 0.984808 0.000000
1.462422 0.354013 0.660000 0.142713 0.853747 0.500749
1.476405 0.433315 0.579474 0.073348 0.493947 0.866393
1.495506 0.541644 0.550000 -0.015508 0.002734 0.999876
1.514608 0.649973 0.579474 -0.100016 -0.489245 0.866393
1.528591 0.729275 0.660000 -0.157892 -0.851070 0.500749
1.266291 0.758302 0.770000 0.173648 -0.984808 0.000000
1.271409 0.729275 0.880000 0.157892 -0.851070 -0.500749
1.285392 0.649973 0.960526 0.100016 -0.489245 -0.866393
1.304494 0.541644 0.990000 0.015508 0.002734 -0.999876
1.323595 0.433315 0.960526 -0.073348 0.493947 -0.866393
1.337578 0.354013 0.880000 -0.142713 0.853747 -0.500749
1.342696 0.324987 0.770000 -0.173648 0.984808 0.000000
1.337578 0.354013 0.660000 -0.157892 0.851070 0.500749
1.323595 0.433315 0.579474 -0.100016 0.489245 0.866393
1.304494 0.541644 0.550000 -0.015508 -0.002734 0.999876
1.285392 0.649973 0.579474 0.073348 -0.493947 0.866393
1.271409 0.729275 0.660000 0.142713 -0.853747 0.500749
1.015000 0.666840 0.770000 0.500000 -0.866025 0.000000
1.029737 0.641314 0.880000 0.439453 -0.745742 -0.500749
1.070000 0.571577 0.960526 0.261316 -0.425533 -0.866393
1.125000 0.476314 0.990000 0.013637 0.007873 -0.999876
1.180000 0.381051 0.960526 -0.237864 0.439072 -0.866393
1.220263 0.311314 0.880000 -0.426105 0.753449 -0.500749
1.235000 0.285788 0.770000 -0.500000 0.866025 0.000000
1.220263 0.311314 0.660000 -0.439453 0.745742 0.500749
1.180000 0.381051 0.579474 -0.261316 0.425533 0.866393
1.125000 0.476314 0.550000 -0.013637 -0.007873 0.999876
1.070000 0.571577 0.579474 0.237864 -0.439072 0.866393
1.029737 0.641314 0.660000 0.426105 -0.753449 0.500749
0.810146 0.494946 0.770000 0.766044 -0.642788 0.000000
0.832724 0.476001 0.880000 0.668010 -0.550467 -0.500749
0.894411 0.424240 0.960526 0.391097 -0.310495 -0.866393
0.978676 0.353533 0.990000 0.010122 0.012063 -0.999876
1.062940 0.282827 0.960526 -0.373691 0.331239 -0.866393
1.124627 0.231066 0.880000 -0.658102 0.562274 -0.500749
1.147205 0.212120 0.770000 -0.766044 0.642788 0.000000
1.124627 0.231066 0.660000 -0.668010 0.550467 0.500749
1.062940 0.282827 0.579474 -0.391097 0.310495 0.866393
0.978676 0.353533 0.550000 -0.010122 -0.012063 0.999876
0.894411 0.424240 0.579474 0.373691 -0.331239 0.866393
0.832724 0.476001 0.660000 0.658102 -0.562274 0.500749
0.676437 0.263356 0.770000 0.939693 -0.342020 0.000000
0.704134 0.253275 0.880000 0.815995 -0.288797 -0.500749
0.779803 0.225733 0.960526 0.473706 -0.158006 -0.866393
0.883169 0.188111 0.990000 0.005386 0.014797 -0.999876
0.986535 0.150489 0.960526 -0.464445 0.183453 -0.866393
1.062205 0.122947 0.880000 -0.810723 0.303280 -0.500749
1.089901 0.112867 0.770000 -0.939693 0.342020 0.000000
1.062205 0.122947 0.660000 -0.815995 0.288797 0.500749
0.986535 0.150489 0.579474 -0.473706 0.158006 0.866393
0.883169 0.188111 0.550000 -0.005386 -0.014797 0.999876
0.779803 0.225733 0.579474 0.464445 -0.183453 0.866393
0.704134 0.253275 0.660000 0.810723 -0.303280 0.500749
0.630000 0.000000 0.770000 1.000000 -0.000000 0.000000
0.659474 0.000000 0.880000 0.865558 0.007707 -0.500749
0.740000 0.000000 0.960526 0.499180 0.013540 -0.866393
0.850000 0.000000 0.990000 -0.000000 0.015747 -0.999876
0.960000 0.000000 0.960526 -0.499180 0.013540 -0.866393
1.040526 0.000000 0.880000 -0.865558 0.007707 -0.500749
1.070000 0.000000 0.770000 -1.000000 0.000000 0.000000
1.040526 0.000000 0.660000 -0.865558 -0.007707 0.500749
0.960000 0.000000 0.579474 -0.499180 -0.013540 0.866393
0.850000 0.000000 0.550000 -0.000000 -0.015747 0.999876
0.740000 0.000000 0.579474 0.499180 -0.013540 0.866393
0.659474 0.000000 0.660000 0.865558 -0.007707 0.500749
0.676437 -0.263356 0.770000 0.939693 0.342020 0.000000
0.704134 -0.253275 0.880000 0.810723 0.303280 -0.500749
0.779803 -0.225733 0.960526 0.464445 0.183453 -0.866393
0.883169 -0.188111 0.990000 -0.005386 0.014797 -0.999876
0.986535 -0.150489 0.960526 -0.473706 -0.158006 -0.866393
1.062205 -0.122947 0.880000 -0.815995 -0.288797 -0.500749
1.089901 -0.112867 0.770000 -0.939693 -0.342020 -0.000000
1.062205 -0.122947 0.660000 -0.810723 -0.303280 0.500749
0.986535 -0.150489 0.579474 -0.464445 -0.183453 0.866393
0.883169 -0.188111 0.550000 0.005386 -0.014797 0.999876
0.779803 -0.225733 0.579474 0.473706 0.158006 0.866393
0.704134 -0.253275 0.660000 0.815995 0.288797 0.500749
0.810146 -0.494946 0.770000 0.766044 0.642788 0.000000
0.832724 -0.476001 0.880000 0.658102 0.562274 -0.500749
0.894411 -0.424240 0.960526 0.373691 0.331239 -0.866393
0.978676 -0.353533 0.990000 -0.010122 0.012063 -0.999876
1.062940 -0.282827 0.960526 -0.391097 -0.310495 -0.866393
1.124627 -0.231066 0.880000 -0.668010 -0.550467 -0.500749
1.147205 -0.212120 0.770000 -0.766044 -0.642788 -0.000000
1.124627 -0.231066 0.660000 -0.658102 -0.562274 0.500749
1.062940 -0.282827 0.579474 -0.373691 -0.331239 0.866393
0.978676 -0.353533 0.550000 0.010122 -0.012063 0.999876
0.894411 -0.424240 0.579474 0.391097 0.310495 0.866393
0.832724 -0.476001 0.660000 0.668010 0.550467 0.500749
1.015000 -0.666840 0.770000 0.500000 0.866025 0.000000
1.029737 -0.641314 0.880000 0.426105 0.753449 -0.500749
1.070000 -0.571577 0.960526 0.237864 0.439072 -0.866393
1.125000 -0.476314 0.990000 -0.013637 0.007873 -0.999876
1.180000 -0.381051 0.960526 -0.261316 -0.425533 -0.866393
1.220263 -0.311314 0.880000 -0.439453 -0.745742 -0.500749
1.235000 -0.285788 0.770000 -0.500000 -0.866025 0.000000
1.220263 -0.311314 0.660000 -0.426105 -0.753449 0.500749
1.180000 -0.381051 0.579474 -0.237864 -0.439072 0.866393
1.125000 -0.476314 0.550000 0.013637 -0.007873 0.999876
1.070000 -0.571577 0.579474 0.261316 0.425533 0.866393
1.029737 -0.641314 0.660000 0.439453 0.745742 0.500749
1.266291 -0.758302 0.770000 0.173648 0.984808 0.000000
1.271409 -0.729275 0.880000 0.142713 0.853747 -0.500749
1.285392 -0.649973 0.960526 0.073348 0.493947 -0.866393
1.304494 -0.541644 0.990000 -0.015508 0.002734 -0.999876
1.323595 -0.433315 0.960526 -0.100016 -0.489245 -0.866393
1.337578 -0.354013 0.880000 -0.157892 -0.851070 -0.500749
1.342696 -0.324987 0.770000 -0.173648 -0.984808 0.000000
1.337578 -0.354013 0.660000 -0.142713 -0.853747 0.500749
1.323595 -0.433315 0.579474 -0.073348 -0.493947 0.866393
1.304494 -0.541644 0.550000 0.015508 -0.002734 0.999876
1.285392 -0.649973 0.579474 0.100016 0.489245 0.866393
1.271409 -0.729275 0.660000 0.157892 0.851070 0.500749
1.533709 -0.758302 0.770000 -0.173648 0.984808 0.000000
1.528591 -0.729275 0.880000 -0.157892 0.851070 -0.500749
1.514608 -0.649973 0.960526 -0.100016 0.489245 -0.866393
1.495506 -0.541644 0.990000 -0.015508 -0.002734 -0.999876
1.476405 -0.433315 0.960526 0.073348 -0.493947 -0.866393
1.462422 -0.354013 0.880000 0.142713 -0.853747 -0.500749
1.457304 -0.324987 0.770000 0.173648 -0.984808 0.000000
1.462422 -0.354013 0.660000 0.157892 -0.851070 0.500749
1.476405 -0.433315 0.579474 0.100016 -0.489245 0.866393
1.495506 -0.541644 0.550000 0.015508 0.002734 0.999876
1.514608 -0.649973 0.579474 -0.073348 0.493947 0.866393
1.528591 -0.729275 0.660000 -0.142713 0.853747 0.500749
1.785000 -0.666840 0.770000 -0.500000 0.866025 0.000000
1.770263 -0.641314 0.880000 -0.439453 0.745742 -0.500749
1.730000 -0.571577 0.960526 -0.261316 0.425533 -0.866393
1.675000 -0.476314 0.990000 -0.013637 -0.007873 -0.999876
1.620000 -0.381051 0.960526 0.237864 -0.439072 -0.866393
1.579737 -0.311314 0.880000 0.426105 -0.753449 -0.500749
1.565000 -0.285788 0.770000 0.500000 -0.866025 -0.000000
1.579737 -0.311314 0.660000 0.439453 -0.745742 0.500749
1.620000 -0.381051 0.579474 0.261316 -0.425533 0.866393
1.675000 -0.476314 0.550000 0.013637 0.007873 0.999876
1.730000 -0.571577 0.579474 -0.237864 0.439072 0.866393
1.770263 -0.641314 0.660000 -0.426105 0.753449 0.500749
1.989854 -0.494946 0.770000 -0.766044 0.642788 -0.000000
1.967276 -0.476001 0.880000 -0.668010 0.550467 -0.500749
1.905589 -0.424240 0.960526 -0.391097 0.310495 -0.866393
1.821324 -0.353533 0.990000 -0.010122 -0.012063 -0.999876
1.737060 -0.282827 0.960526 0.373691 -0.331239 -0.866393
1.675373 -0.231066 0.880000 0.658102 -0.562274 -0.500749
1.652795 -0.212120 0.770000 0.766044 -0.642788 0.000000
1.675373 -0.231066 0.660000 0.668010 -0.550467 0.500749
1.737060 -0.282827 0.579474 0.391097 -0.310495 0.866393
1.821324 -0.353533 0.550000 0.010122 0.012063 0.999876
1.905589 -0.424240 0.579474 -0.373691 0.331239 0.866393
1.967276 -0.476001 0.660000 -0.658102 0.562274 0.500749
2.123563 -0.263356 0.770000 -0.939693 0.342020 0.000000
2.095866 -0.253275 0.880000 -0.815995 0.288797 -0.500749
2.020197 -0.225733 0.960526 -0.473706 0.158006 -0.866393
1.916831 -0.188111 0.990000 -0.005386 -0.014797 -0.999876
1.813465 -0.150489 0.960526 0.464445 -0.183453 -0.866393
1.737795 -0.122947 0.880000 0.810723 -0.303280 -0.500749
1.710099 -0.112867 0.770000 0.939693 -0.342020 0.000000
1.737795 -0.122947 0.660000 0.815995 -0.288797 0.500749
1.813465 -0.150489 0.579474 0.473706 -0.158006 0.866393
1.916831 -0.188111 0.550000 0.005386 0.014797 0.999876
2.020197 -0.225733 0.579474 -0.464445 0.183453 0.866393
2.095866 -0.253275 0.660000 -0.810723 0.303280 0.500749
3.570000 0.000000 0.770000 -1.000000 -0.000000 0.000000
3.540526 0.000000 0.880000 -0.865558 -0.007707 -0.500749
3.460000 0.000000 0.960526 -0.499180 -0.013540 -0.866393
3.350000 0.000000 0.990000 0.000000 -0.015747 -0.999876
3.240000 0.000000 0.960526 0.499180 -0.013540 -0.866393
3.159474 0.000000 0.880000 0.865558 -0.007707 -0.500749
3.130000 0.000000 0.770000 1.000000 -0.000000 0.000000
3.159474 0.000000 0.660000 0.865558 0.007707 0.500749
3.240000 0.000000 0.579474 0.499180 0.013540 0.866393
3.350000 0.000000 0.550000 0.000000 0.015747 0.999876
3.460000 0.000000 0.579474 -0.499180 0.013540 0.866393
3.540526 0.000000 0.660000 -0.865558 0.007707 0.500749
3.523563 0.263356 0.770000 -0.939693 -0.342020 0.000000
3.495866 0.253275 0.880000 -0.810723 -0.303280 -0.500749
3.420197 0.225733 0.960526 -0.464445 -0.183453 -0.866393
3.316831 0.188111 0.990000 0.005386 -0.014797 -0.999876
3.213465 0.150489 0.960526 0.473706 0.158006 -0.866393
3.137795 0.122947 0.880000 0.815995 0.288797 -0.500749
3.110099 0.112867 0.770000 0.939693 0.342020 -0.000000
3.137795 0.122947 0.660000 0.810723 0.303280 0.500749
3.213465 0.150489 0.579474 0.464445 0.183453 0.866393
3.316831 0.188111 0.550000 -0.005386 0.014797 0.999876
3.420197 0.225733 0.579474 -0.473706 -0.158006 0.866393
3.495866 0.253275 0.660000 -0.815995 -0.288797 0.500749
3.389854 0.494946 0.770000 -0.766044 -0.642788 0.000000
3.367276 0.476001 0.880000 -0.658102 -0.562274 -0.500749
3.305589 0.424240 0.960526 -0.373691 -0.331239 -0.866393
3.221324 0.353533 0.990000 0.010122 -0.012063 -0.999876
3.137060 0.282827 0.960526 0.391097 0.310495 -0.866393
3.075373 0.231066 0.880000 0.668010 0.550467 -0.500749
3.052795 0.212120 0.770000 0.766044 0.642788 0.000000
3.075373 0.231066 0.660000 0.658102 0.562274 0.500749
3.137060 0.282827 0.579474 0.373691 0.331239 0.866393
3.221324 0.353533 0.550000 -0.010122 0.012063 0.999876
3.305589 0.424240 0.579474 -0.391097 -0.310495 0.866393
3.367276 0.476001 0.660000 -0.668010 -0.550467 0.500749
3.185000 0.666840 0.770000 -0.500000 -0.866025 0.000000
3.170263 0.641314 0.880000 -0.426105 -0.753449 -0.500749
3.130000 0.571577 0.960526 -0.237864 -0.439072 -0.866393
3.075000 0.476314 0.990000 0.013637 -0.007873 -0.999876
3.020000 0.381051 0.960526 0.261316 0.425533 -0.866393
2.979737 0.311314 0.880000 0.439453 0.745742 -0.500749
2.965000 0.285788 0.770000 0.500000 0.866025 0.000000
2.979737 0.311314 0.660000 0.426105 0.753449 0.500749
3.020000 0.381051 0.579474 0.237864 0.439072 0.866393
3.075000 0.476314 0.550000 -0.013637 0.007873 0.999876
3.130000 0.571577 0.579474 -0.261316 -0.425533 0.866393
3.170263 0.641314 0.660000 -0.439453 -0.745742 0.500749
2.933709 0.758302 0.770000 -0.173648 -0.984808 0.000000
2.928591 0.729275 0.880000 -0.142713 -0.853747 -0.500749
2.914608 0.649973 0.960526 -0.073348 -0.493947 -0.866393
2.895506 0.541644 0.990000 0.015508 -0.002734 -0.999876
2.876405 0.433315 0.960526 0.100016 0.489245 -0.866393
2.862422 0.354013 0.880000 0.157892 0.851070 -0.500749
2.857304 0.324987 0.770000 0.173648 0.984808 0.000000
2.862422 0.354013 0.660000 0.142713 0.853747 0.500749
2.876405 0.433315 0.579474 0.073348 0.493947 0.866393
2.895506 0.541644 0.550000 -0.015508 0.002734 0.999876
2.914608 0.649973 0.579474 -0.100016 -0.489245 0.866393
2.928591 0.729275 0.660000 -0.157892 -0.851070 0.500749
2.666291 0.758302 0.770000 0.173648 -0.984808 0.000000
2.671409 0.729275 0.880000 0.157892 -0.851070 -0.500749
2.685392 0.649973 0.960526 0.100016 -0.489245 -0.866393
2.704494 0.541644 0.990000 0.015508 0.002734 -0.999876
2.723595 0.433315 0.960526 -0.073348 0.493947 -0.866393
2.737578 0.354013 0.880000 -0.142713 0.853747 -0.500749
2.742696 0.324987 0.770000 -0.173648 0.984808 0.000000
2.737578 0.354013 0.660000 -0.157892 0.851070 0.500749
2.723595 0.433315 0.579474 -0.100016 0.489245 0.866393
2.704494 0.541644 0.550000 -0.015508 -0.002734 0.999876
2.685392 0.649973 0.579474 0.073348 -0.493947 0.866393
2.671409 0.729275 0.660000 0.142713 -0.853747 0.500749
2.415000 0.666840 0.770000 0.500000 -0.866025 0.000000
2.429737 0.641314 0.880000 0.439453 -0.745742 -0.500749
2.470000 0.571577 0.960526 0.261316 -0.425533 -0.866393
2.525000 0.476314 0.990000 0.013637 0.007873 -0.999876
2.580000 0.381051 0.960526 -0.237864 0.439072 -0.866393
2.620263 0.311314 0.880000 -0.426105 0.753449 -0.500749
2.635000 0.285788 0.770000 -0.500000 0.866025 -0.000000
2.620263 0.311314 0.660000 -0.439453 0.745742 0.500749
2.580000 0.381051 0.579474 -0.261316 0.425533 0.866393
2.525000 0.476314 0.550000 -0.013637 -0.007873 0.999876
2.470000 0.571577 0.579474 0.237864 -0.439072 0.866393
2.429737 0.641314 0.660000 0.426105 -0.753449 0.500749
2.210146 0.494946 0.770000 0.766044 -0.642788 0.000000
2.232724 0.476001 0.880000 0.668010 -0.550467 -0.500749
2.294411 0.424240 0.960526 0.391097 -0.310495 -0.866393
2.378676 0.353533 0.990000 0.010122 0.012063 -0.999876
2.462940 0.282827 0.960526 -0.373691 0.331239 -0.866393
2.524627 0.231066 0.880000 -0.658102 0.562274 -0.500749
2.547205 0.212120 0.770000 -0.766044 0.642788 -0.000000
2.524627 0.231066 0.660000 -0.668010 0.550467 0.500749
2.462940 0.282827 0.579474 -0.391097 0.310495 0.866393
2.378676 0.353533 0.550000 -0.010122 -0.012063 0.999876
2.294411 0.424240 0.579474 0.373691 -0.331239 0.866393
2.232724 0.476001 0.660000 0.658102 -0.562274 0.500749
2.076437 0.263356 0.770000 0.939693 -0.342020 0.000000
2.104134 0.253275 0.880000 0.815995 -0.288797 -0.500749
2.179803 0.225733 0.960526 0.473706 -0.158006 -0.866393
2.283169 0.188111 0.990000 0.005386 0.014797 -0.999876
2.386535 0.150489 0.960526 -0.464445 0.183453 -0.866393
2.462205 0.122947 0.880000 -0.810723 0.303280 -0.500749
2.489901 0.112867 0.770000 -0.939693 0.342020 0.000000
2.462205 0.122947 0.660000 -0.815995 0.288797 0.500749
2.386535 0.150489 0.579474 -0.473706 0.158006 0.866393
2.283169 0.188111 0.550000 -0.005386 -0.014797 0.999876
2.179803 0.225733 0.579474 0.464445 -0.183453 0.866393
2.104134 0.253275 0.660000 0.810723 -0.303280 0.500749
2.030000 0.000000 0.770000 1.000000 -0.000000 0.000000
2.059474 0.000000 0.880000 0.865558 0.007707 -0.500749
2.140000 0.000000 0.960526 0.499180 0.013540 -0.866393
2.250000 0.000000 0.990000 -0.000000 0.015747 -0.999876
2.360000 0.000000 0.960526 -0.499180 0.013540 -0.866393
2.440526 0.000000 0.880000 -0.865558 0.007707 -0.500749
2.470000 0.000000 0.770000 -1.000000 0.000000 0.000000
2.440526 0.000000 0.660000 -0.865558 -0.007707 0.500749
2.360000 0.000000 0.579474 -0.499180 -0.013540 0.866393
2.250000 0.000000 0.550000 -0.000000 -0.015747 0.999876
2.140000 0.000000 0.579474 0.499180 -0.013540 0.866393
2.059474 0.000000 0.660000 0.865558 -0.007707 0.500749
2.076437 -0.263356 0.770000 0.939693 0.342020 0.000000
2.104134 -0.253275 0.880000 0.810723 0.303280 -0.500749
2.179803 -0.225733 0.960526 0.464445 0.183453 -0.866393
2.283169 -0.188111 0.990000 -0.005386 0.014797 -0.999876
2.386535 -0.150489 0.960526 -0.473706 -0.158006 -0.866393
2.462205 -0.122947 0.880000 -0.815995 -0.288797 -0.500749
2.489901 -0.112867 0.770000 -0.939693 -0.342020 -0.000000
2.462205 -0.122947 0.660000 -0.810723 -0.303280 0.500749
2.386535 -0.150489 0.579474 -0.464445 -0.183453 0.866393
2.283169 -0.188111 0.550000 0.005386 -0.014797 0.999876
2.179803 -0.225733 0.579474 0.473706 0.158006 0.866393
2.104134 -0.253275 0.660000 0.815995 0.288797 0.500749
2.210146 -0.494946 0.770000 0.766044 0.642788 0.000000
2.232724 -0.476001 0.880000 0.658102 0.562274 -0.500749
2.294411 -0.424240 0.960526 0.373691 0.331239 -0.866393
2.378676 -0.353533 0.990000 -0.010122 0.012063 -0.999876
2.462940 -0.282827 0.960526 -0.391097 -0.310495 -0.866393
2.524627 -0.231066 0.880000 -0.668010 -0.550467 -0.500749
2.547205 -0.212120 0.770000 -0.766044 -0.642788 -0.000000
2.524627 -0.231066 0.660000 -0.658102 -0.562274 0.500749
2.462940 -0.282827 0.579474 -0.373691 -0.331239 0.866393
2.378676 -0.353533 0.550000 0.010122 -0.012063 0.999876
2.294411 -0.424240 0.579474 0.391097 0.310495 0.866393
2.232724 -0.476001 0.660000 0.668010 0.550467 0.500749
2.415000 -0.666840 0.770000 0.500000 0.866025 0.000000
2.429737 -0.641314 0.880000 0.426105 0.753449 -0.500749
2.470000 -0.571577 0.960526 0.237864 0.439072 -0.866393
2.525000 -0.476314 0.990000 -0.013637 0.007873 -0.999876
2.580000 -0.381051 0.960526 -0.261316 -0.425533 -0.866393
2.620263 -0.311314 0.880000 -0.439453 -0.745742 -0.500749
2.635000 -0.285788 0.770000 -0.500000 -0.866025 0.000000
2.620263 -0.311314 0.660000 -0.426105 -0.753449 0.500749
2.580000 -0.381051 0.579474 -0.237864 -0.439072 0.866393
2.525000 -0.476314 0.550000 0.013637 -0.007873 0.999876
2.470000 -0.571577 0.579474 0.261316 0.425533 0.866393
2.429737 -0.641314 0.660000 0.439453 0.745742 0.500749
2.666291 -0.758302 0.770000 0.173648 0.984808 0.000000
2.671409 -0.729275 0.880000 0.142713 0.853747 -0.500749
2.685392 -0.649973 0.960526 0.073348 0.493947 -0.866393
2.704494 -0.541644 0.990000 -0.015508 0.002734 -0.999876
2.723595 -0.433315 0.960526 -0.100016 -0.489245 -0.866393
2.737578 -0.354013 0.880000 -0.157892 -0.851070 -0.500749
2.742696 -0.324987 0.770000 -0.173648 -0.984808 0.000000
2.737578 -0.354013 0.660000 -0.142713 -0.853747 0.500749
2.723595 -0.433315 0.579474 -0.073348 -0.493947 0.866393
2.704494 -0.541644 0.550000 0.015508 -0.002734 0.999876
2.685392 -0.649973 0.579474 0.100016 0.489245 0.866393
2.671409 -0.729275 0.660000 0.157892 0.851070 0.500749
2.933709 -0.758302 0.770000 -0.173648 0.984808 0.000000
2.928591 -0.729275 0.880000 -0.157892 0.851070 -0.500749
2.914608 -0.649973 0.960526 -0.100016 0.489245 -0.866393
2.895506 -0.541644 0.990000 -0.015508 -0.002734 -0.999876
2.876405 -0.433315 0.960526 0.073348 -0.493947 -0.866393
2.862422 -0.354013 0.880000 0.142713 -0.853747 -0.500749
2.857304 -0.324987 0.770000 0.173648 -0.984808 0.000000
2.862422 -0.354013 0.660000 0.157892 -0.851070 0.500749
2.876405 -0.433315 0.579474 0.100016 -0.489245 0.866393
2.895506 -0.541644 0.550000 0.015508 0.002734 0.999876
2.914608 -0.649973 0.579474 -0.073348 0.493947 0.866393
2.928591 -0.729275 0.660000 -0.142713 0.853747 0.500749
3.185000 -0.666840 0.770000 -0.500000 0.866025 0.000000
3.170263 -0.641314 0.880000 -0.439453 0.745742 -0.500749
3.130000 -0.571577 0.960526 -0.261316 0.425533 -0.866393
3.075000 -0.476314 0.990000 -0.013637 -0.007873 -0.999876
3.020000 -0.381051 0.960526 0.237864 -0.439072 -0.866393
2.979737 -0.311314 0.880000 0.426105 -0.753449 -0.500749
2.965000 -0.285788 0.770000 0.500000 -0.866025 -0.000000
2.979737 -0.311314 0.660000 0.439453 -0.745742 0.500749
3.020000 -0.381051 0.579474 0.261316 -0.425533 0.866393
3.075000 -0.476314 0.550000 0.013637 0.007873 0.999876
3.130000 -0.571577 0.579474 -0.237864 0.439072 0.866393
3.170263 -0.641314 0.660000 -0.426105 0.753449 0.500749
3.389854 -0.494946 0.770000 -0.766044 0.642788 0.000000
3.367276 -0.476001 0.880000 -0.668010 0.550467 -0.500749
3.305589 -0.424240 0.960526 -0.391097 0.310495 -0.866393
3.221324 -0.353533 0.990000 -0.010122 -0.012063 -0.999876
3.137060 -0.282827 0.960526 0.373691 -0.331239 -0.866393
3.075373 -0.231066 0.880000 0.658102 -0.562274 -0.500749
3.052795 -0.212120 0.770000 0.766044 -0.642788 -0.000000
3.075373 -0.231066 0.660000 0.668010 -0.550467 0.500749
3.137060 -0.282827 0.579474 0.391097 -0.310495 0.866393
3.221324 -0.353533 0.550000 0.010122 0.012063 0.999876
3.305589 -0.424240 0.579474 -0.373691 0.331239 0.866393
3.367276 -0.476001 0.660000 -0.658102 0.562274 0.500749
3.523563 -0.263356 0.770000 -0.939693 0.342020 0.000000
3.495866 -0.253275 0.880000 -0.815995 0.288797 -0.500749
3.420197 -0.225733 0.960526 -0.473706 0.158006 -0.866393
3.316831 -0.188111 0.990000 -0.005386 -0.014797 -0.999876
3.213465 -0.150489 0.960526 0.464445 -0.183453 -0.866393
3.137795 -0.122947 0.880000 0.810723 -0.303280 -0.500749
3.110099 -0.112867 0.770000 0.939693 -0.342020 0.000000
3.137795 -0.122947 0.660000 0.815995 -0.288797 0.500749
3.213465 -0.150489 0.579474 0.473706 -0.158006 0.866393
3.316831 -0.188111 0.550000 0.005386 0.014797 0.999876
3.420197 -0.225733 0.579474 -0.464445 0.183453 0.866393
3.495866 -0.253275 0.660000 -0.810723 0.303280 0.500749
3 0 1 12
3 1 13 12
3 1 2 13
3 2 14 13
3 2 3 14
3 3 15 14
3 3 4 15
3 4 16 15
3 4 5 16
3 5 17 16
3 5 6 17
3 6 18 17
3 6 7 18
3 7 19 18
3 7 8 19
3 8 20 19
3 8 9 20
3 9 21 20
3 9 10 21
3 10 22 21
3 10 11 22
3 11 23 22
3 11 0 23
3 0 12 23
3 12 13 24
3 13 25 24
3 13 14 25
3 14 26 25
3 14 15 26
3 15 27 26
3 15 16 27
3 16 28 27
3 16 17 28
3 17 29 28
3 17 18 29
3 18 30 29
3 18 19 30
3 19 31 30
3 19 20 31
3 20 32 31
3 20 21 32
3 21 33 32
3 21 22 33
3 22 34 33
3 22 23 34
3 23 35 34
3 23 12 35
3 12 24 35
3 24 25 36
3 25 37 36
3 25 26 37
3 26 38 37
3 26 27 38
3 27 39 38
3 27 28 39
3 28 40 39
3 28 29 40
3 29 41 40
3 29 30 41
3 30 42 41
3 30 31 42
3 31 43 42
3 31 32 43
3 32 44 43
3 32 33 44
3 33 45 44
3 33 34 45
3 34 46 45
3 34 35 46
3 35 47 46
3 35 24 47
3 24 36 47
3 36 37 48
3 37 49 48
3 37 38 49
3 38 50 49
3 38 39 50
3 39 51 50
3 39 40 51
3 40 52 51
3 40 41 52
3 41 53 52
3 41 42 53
3 42 54 53
3 42 43 54
3 43 55 54
3 43 44 55
3 44 56 55
3 44 45 56
3 45 57 56
3 45 46 57
3 46 58 57
3 46 47 58
3 47 59 58
3 47 36 59
3 36 48 59
3 48 49 60
3 49 61 60
3 49 50 61
3 50 62 61
3 50 51 62
3 51 63 62
3 51 52 63
3 52 64 63
3 52 53 64
3 53 65 64
3 53 54 65
3 54 66 65
3 54 55 66
3 55 67 66
3 55 56 67
3 56 68 67
3 56 57 68
3 57 69 68
3 57 58 69
3 58 70 69
3 58 59 70
3 59 71 70
3 59 48 71
3 48 60 71
3 60 61 72
3 61 73 72
3 61 62 73
3 62 74 73
3 62 63 74
3 63 75 74
3 63 64 75
3 64 76 75
3 64 65 76
3 65 77 76
3 65 66 77
3 66 78 77
3 66 67 78
3 67 79 78
3 67 68 79
3 68 80 79
3 68 69 80
3 69 81 80
3 69 70 81
3 70 82 81
3 70 71 82
3 71 83 82
3 71 60 83
3 60 72 83
3 72 73 84
3 73 85 84
3 73 74 85
3 74 86 85
3 74 75 86
3 75 87 86
3 75 76 87
3 76 88 87
3 76 77 88
3 77 89 88
3 77 78 89
3 78 90 89
3 78 79 90
3 79 91 90
3 79 80 91
3 80 92 91
3 80 81 92
3 81 93 92
3 81 82 93
3 82 94 93
3 82 83 94
3 83 95 94
3 83 72 95
3 72 84 95
3 84 85 96
3 85 97 96
3 85 86 97
3 86 98 97
3 86 87 98
3 87 99 98
3 87 88 99
3 88 100 99
3 88 89 100
3 89 101 100
3 89 90 101
3 90 102 101
3 90 91 102
3 91 103 102
3 91 92 103
3 92 104 103
3 92 93 104
3 93 105 104
3 93 94 105
3 94 106 105
3 94 95 106
3 95 107 106
3 95 84 107
3 84 96 107
3 96 97 108
3 97 109 108
3 97 98 109
3 98 110 109
3 98 99 110
3 99 111 110
3 99 100 111
3 100 112 111
3 100 101 112
3 101 113 112
3 101 102 113
3 102 114 113
3 102 103 114
3 103 115 114
3 103 104 115
3 104 116 115
3 104 105 116
3 105 117 116
3 105 106 117
3 106 118 117
3 106 107 118
3 107 119 118
3 107 96 119
3 96 108 119
3 108 109 120
3 109 121 120
3 109 110 121
3 110 122 121
3 110 111 122
3 111 123 122
3 111 112 123
3 112 124 123
3 112 113 124
3 113 125 124
3 113 114 125
3 114 126 125
3 114 115 126
3 115 127 126
3 115 116 127
3 116 128 127
3 116 117 128
3 117 129 128
3 117 118 129
3 118 130 129
3 118 119 130
3 119 131 130
3 119 108 131
3 108 120 131
3 120 121 132
3 121 133 132
3 121 122 133
3 122 134 133
3 122 123 134
3 123 135 134
3 123 124 135
3 124 136 135
3 124 125 136
3 125 137 136
3 125 126 137
3 126 138 137
3 126 127 138
3 127 139 138
3 127 128 139
3 128 140 139
3 128 129 140
3 129 141 140
3 129 130 141
3 130 142 141
3 130 131 142
3 131 143 142
3 131 120 143
3 120 132 143
3 132 133 144
3 133 145 144
3 133 134 145
3 134 146 145
3 134 135 146
3 135 147 146
3 135 136 147
3 136 148 147
3 136 137 148
3 137 149 148
3 137 138 149
3 138 150 149
3 138 139 150
3 139 151 150
3 139 140 151
3 140 152 151
3 140 141 152
3 141 153 152
3 141 142 153
3 142 154 153
3 142 143 154
3 143 155 154
3 143 132 155
3 132 144 155
3 144 145 156
3 145 157 156
3 145 146 157
3 146 158 157
3 146 147 158
3 147 159 158
3 147 148 159
3 148 160 159
3 148 149 160
3 149 161 160
3 149 150 161
3 150 162 161
3 150 151 162
3 151 163 162
3 151 152 163
3 152 164 163
3 152 153 164
3 153 165 164
3 153 154 165
3 154 166 165
3 154 155 166
3 155 167 166
3 155 144 167
3 144 156 167
3 156 157 168
3 157 169 168
3 157 158 169
3 158 170 169
3 158 159 170
3 159 171 170
3 159 160 171
3 160 172 171
3 160 161 172
3 161 173 172
3 161 162 173
3 162 174 173
3 162 163 174
3 163 175 174
3 163 164 175
3 164 176 175
3 164 165 176
3 165 177 176
3 165 166 177
3 166 178 177
3 166 167 178
3 167 179 178
3 167 156 179
3 156 168 179
3 168 169 180
3 169 181 180
3 169 170 181
3 170 182 181
3 170 171 182
3 171 183 182
3 171 172 183
3 172 184 183
3 172 173 184
3 173 185 184
3 173 174 185
3 174 186 185
3 174 175 186
3 175 187 186
3 175 176 187
3 176 188 187
3 176 177 188
3 177 189 188
3 177 178 189
3 178 190 189
3 178 179 190
3 179 191 190
3 179 168 191
3 168 180 191
3 180 181 192
3 181 193 192
3 181 182 193
3 182 194 193
3 182 183 194
3 183 195 194
3 183 184 195
3 184 196 195
3 184 185 196
3 185 197 196
3 185 186 197
3 186 198 197
3 186 187 198
3 187 199 198
3 187 188 199
3 188 200 199
3 188 189 200
3 189 201 200
3 189 190 201
3 190 202 201
3 190 191 202
3 191 203 202
3 191 180 203
3 180 192 203
3 192 193 204
3 193 205 204
3 193 194 205
3 194 206 205
3 194 195 206
3 195 207 206
3 195 196 207
3 196 208 207
3 196 197 208
3 197 209 208
3 197 198 209
3 198 210 209
3 198 199 210
3 199 211 210
3 199 200 211
3 200 212 211
3 200 201 212
3 201 213 212
3 201 202 213
3 202 214 213
3 202 203 214
3 203 215 214
3 203 192 215
3 192 204 215
3 204 205 0
3 205 1 0
3 205 206 1
3 206 2 1
3 206 207 2
3 207 3 2
3 207 208 3
3 208 4 3
3 208 209 4
3 209 5 4
3 209 210 5
3 210 6 5
3 210 211 6
3 211 7 6
3 211 212 7
3 212 8 7
3 212 213 8
3 213 9 8
3 213 214 9
3 214 10 9
3 214 215 10
3 215 11 10
3 215 204 11
3 204 0 11
3 216 217 228
3 217 229 228
3 217 218 229
3 218 230 229
3 218 219 230
3 219 231 230
3 219 220 231
3 220 232 231
3 220 221 232
3 221 233 232
3 221 222 233
3 222 234 233
3 222 223 234
3 223 235 234
3 223 224 235
3 224 236 235
3 224 225 236
3 225 237 236
3 225 226 237
3 226 238 237
3 226 227 238
3 227 239 238
3 227 216 239
3 216 228 239
3 228 229 240
3 229 241 240
3 229 230 241
3 230 242 241
3 230 231 242
3 231 243 242
3 231 232 243
3 232 244 243
3 232 233 244
3 233 245 244
3 233 234 245
3 234 246 245
3 234 235 246
3 235 247 246
3 235 236 247
3 236 248 247
3 236 237 248
3 237 249 248
3 237 238 249
3 238 250 249
3 238 239 250
3 239 251 250
3 239 228 251
3 228 240 251
3 240 241 252
3 241 253 252
3 241 242 253
3 242 254 253
3 242 243 254
3 243 255 254
3 243 244 255
3 244 256 255
3 244 245 256
3 245 257 256
3 245 246 257
3 246 258 257
3 246 247 258
3 247 259 258
3 247 248 259
3 248 260 259
3 248 249 260
3 249 261 260
3 249 250 261
3 250 262 261
3 250 251 262
3 251 263 262
3 251 240 263
3 240 252 263
3 252 253 264
3 253 265 264
3 253 254 265
3 254 266 265
3 254 255 266
3 255 267 266
3 255 256 267
3 256 268 267
3 256 257 268
3 257 269 268
3 257 258 269
3 258 270 269
3 258 259 270
3 259 271 270
3 259 260 271
3 260 272 271
3 260 261 272
3 261 273 272
3 261 262 273
3 262 274 273
3 262 263 274
3 263 275 274
3 263 252 275
3 252 264 275
3 264 265 276
3 265 277 276
3 265 266 277
3 266 278 277
3 266 267 278
3 267 279 278
3 267 268 279
3 268 280 279
3 268 269 280
3 269 281 280
3 269 270 281
3 270 282 281
3 270 271 282
3 271 283 282
3 271 272 283
3 272 284 283
3 272 273 284
3 273 285 284
3 273 274 285
3 274 286 285
3 274 275 286
3 275 287 286
3 275 264 287
3 264 276 287
3 276 277 288
3 277 289 288
3 277 278 289
3 278 290 289
3 278 279 290
3 279 291 290
3 279 280 291
3 280 292 291
3 280 281 292
3 281 293 292
3 281 282 293
3 282 294 293
3 282 283 294
3 283 295 294
3 283 284 295
3 284 296 295
3 284 285 296
3 285 297 296
3 285 286 297
3 286 298 297
3 286 287 298
3 287 299 298
3 287 276 299
3 276 288 299
3 288 289 300
3 289 301 300
3 289 290 301
3 290 302 301
3 290 291 302
3 291 303 302
3 291 292 303
3 292 304 303
3 292 293 304
3 293 305 304
3 293 294 305
3 294 306 305
3 294 295 306
3 295 307 306
3 295 296 307
3 296 308 307
3 296 297 308
3 297 309 308
3 297 298 309
3 298 310 309
3 298 299 310
3 299 311 310
3 299 288 311
3 288 300 311
3 300 301 312
3 301 313 312
3 301 302 313
3 302 314 313
3 302 303 314
3 303 315 314
3 303 304 315
3 304 316 315
3 304 305 316
3 305 317 316
3 305 306 317
3 306 318 317
3 306 307 318
3 307 319 318
3 307 308 319
3 308 320 319
3 308 309 320
3 309 321 320
3 309 310 321
3 310 322 321
3 310 311 322
3 311 323 322
3 311 300 323
3 300 312 323
3 312 313 324
3 313 325 324
3 313 314 325
3 314 326 325
3 314 315 326
3 315 327 326
3 315 316 327
3 316 328 327
3 316 317 328
3 317 329 328
3 317 318 329
3 318 330 329
3 318 319 330
3 319 331 330
3 319 320 331
3 320 332 331
3 320 321 332
3 321 333 332
3 321 322 333
3 322 334 333
3 322 323 334
3 323 335 334
3 323 312 335
3 312 324 335
3 324 325 336
3 325 337 336
3 325 326 337
3 326 338 337
3 326 327 338
3 327 339 338
3 327 328 339
3 328 340 339
3 328 329 340
3 329 341 340
3 329 330 341
3 330 342 341
3 330 331 342
3 331 343 342
3 331 332 343
3 332 344 343
3 332 333 344
3 333 345 344
3 333 334 345
3 334 346 345
3 334 335 346
3 335 347 346
3 335 324 347
3 324 336 347
3 336 337 348
3 337 349 348
3 337 338 349
3 338 350 349
3 338 339 350
3 339 351 350
3 339 340 351
3 340 352 351
3 340 341 352
3 341 353 352
3 341 342 353
3 342 354 353
3 342 343 354
3 343 355 354
3 343 344 355
3 344 356 355
3 344 345 356
3 345 357 356
3 345 346 357
3 346 358 357
3 346 347 358
3 347 359 358
3 347 336 359
3 336 348 359
3 348 349 360
3 349 361 360
3 349 350 361
3 350 362 361
3 350 351 362
3 351 363 362
3 351 352 363
3 352 364 363
3 352 353 364
3 353 365 364
3 353 354 365
3 354 366 365
3 354 355 366
3 355 367 366
3 355 356 367
3 356 368 367
3 356 357 368
3 357 369 368
3 357 358 369
3 358 370 369
3 358 359 370
3 359 371 370
3 359 348 371
3 348 360 371
3 360 361 372
3 361 373 372
3 361 362 373
3 362 374 373
3 362 363 374
3 363 375 374
3 363 364 375
3 364 376 375
3 364 365 376
3 365 377 376
3 365 366 377
3 366 378 377
3 366 367 378
3 367 379 378
3 367 368 379
3 368 380 379
3 368 369 380
3 369 381 380
3 369 370 381
3 370 382 381
3 370 371 382
3 371 383 382
3 371 360 383
3 360 372 383
3 372 373 384
3 373 385 384
3 373 374 385
3 374 386 385
3 374 375 386
3 375 387 386
3 375 376 387
3 376 388 387
3 376 377 388
3 377 389 388
3 377 378 389
3 378 390 389
3 378 379 390
3 379 391 390
3 379 380 391
3 380 392 391
3 380 381 392
3 381 393 392
3 381 382 393
3 382 394 393
3 382 383 394
3 383 395 394
3 383 372 395
3 372 384 395
3 384 385 396
3 385 397 396
3 385 386 397
3 386 398 397
3 386 387 398
3 387 399 398
3 387 388 399
3 388 400 399
3 388 389 400
3 389 401 400
3 389 390 401
3 390 402 401
3 390 391 402
3 391 403 402
3 391 392 403
3 392 404 403
3 392 393 404
3 393 405 404
3 393 394 405
3 394 406 405
3 394 395 406
3 395 407 406
3 395 384 407
3 384 396 407
3 396 397 408
3 397 409 408
3 397 398 409
3 398 410 409
3 398 399 410
3 399 411 410
3 399 400 411
3 400 412 411
3 400 401 412
3 401 413 412
3 401 402 413
3 402 414 413
3 402 403 414
3 403 415 414
3 403 404 415
3 404 416 415
3 404 405 416
3 405 417 416
3 405 406 417
3 406 418 417
3 406 407 418
3 407 419 418
3 407 396 419
3 396 408 419
3 408 409 420
3 409 421 420
3 409 410 421
3 410 422 421
3 410 411 422
3 411 423 422
3 411 412 423
3 412 424 423
3 412 413 424
3 413 425 424
3 413 414 425
3 414 426 425
3 414 415 426
3 415 427 426
3 415 416 427
3 416 428 427
3 416 417 428
3 417 429 428
3 417 418 429
3 418 430 429
3 418 419 430
3 419 431 430
3 419 408 431
3 408 420 431
3 420 421 216
3 421 217 216
3 421 422 217
3 422 218 217
3 422 423 218
3 423 219 218
3 423 424 219
3 424 220 219
3 424 425 220
3 425 221 220
3 425 426 221
3 426 222 221
3 426 427 222
3 427 223 222
3 427 428 223
3 428 224 223
3 428 429 224
3 429 225 224
3 429 430 225
3 430 226 225
3 430 431 226
3 431 227 226
3 431 420 227
3 420 216 227
3 432 433 444
3 433 445 444
3 433 434 445
3 434 446 445
3 434 435 446
3 435 447 446
3 435 436 447
3 436 448 447
3 436 437 448
3 437 449 448
3 437 438 449
3 438 450 449
3 438 439 450
3 439 451 450
3 439 440 451
3 440 452 451
3 440 441 452
3 441 453 452
3 441 442 453
3 442 454 453
3 442 443 454
3 443 455 454
3 443 432 455
3 432 444 455
3 444 445 456
3 445 457 456
3 445 446 457
3 446 458 457
3 446 447 458
3 447 459 458
3 447 448 459
3 448 460 459
3 448 449 460
3 449 461 460
3 449 450 461
3 450 462 461
3 450 451 462
3 451 463 462
3 451 452 463
3 452 464 463
3 452 453 464
3 453 465 464
3 453 454 465
3 454 466 465
3 454 455 466
3 455 467 466
3 455 444 467
3 444 456 467
3 456 457 468
3 457 469 468
3 457 458 469
3 458 470 469
3 458 459 470
3 459 471 470
3 459 460 471
3 460 472 471
3 460 461 472
3 461 473 472
3 461 462 473
3 462 474 473
3 462 463 474
3 463 475 474
3 463 464 475
3 464 476 475
3 464 465 476
3 465 477 476
3 465 466 477
3 466 478 477
3 466 467 478
3 467 479 478
3 467 456 479
3 456 468 479
3 468 469 480
3 469 481 480
3 469 470 481
3 470 482 481
3 470 471 482
3 471 483 482
3 471 472 483
3 472 484 483
3 472 473 484
3 473 485 484
3 473 474 485
3 474 486 485
3 474 475 486
3 475 487 486
3 475 476 487
3 476 488 487
3 476 477 488
3 477 489 488
3 477 478 489
3 478 490 489
3 478 479 490
3 479 491 490
3 479 468 491
3 468 480 491
3 480 481 492
3 481 493 492
3 481 482 493
3 482 494 493
3 482 483 494
3 483 495 494
3 483 484 495
3 484 496 495
3 484 485 496
3 485 497 496
3 485 486 497
3 486 498 497
3 486 487 498
3 487 499 498
3 487 488 499
3 488 500 499
3 488 489 500
3 489 501 500
3 489 490 501
3 490 502 501
3 490 491 502
3 491 503 502
3 491 480 503
3 480 492 503
3 492 493 504
3 493 505 504
3 493 494 505
3 494 506 505
3 494 495 506
3 495 507 506
3 495 496 507
3 496 508 507
3 496 497 508
3 497 509 508
3 497 498 509
3 498 510 509
3 498 499 510
3 499 511 510
3 499 500 511
3 500 512 511
3 500 501 512
3 501 513 512
3 501 502 513
3 502 514 513
3 502 503 514
3 503 515 514
3 503 492 515
3 492 504 515
3 504 505 516
3 505 517 516
3 505 506 517
3 506 518 517
3 506 507 518
3 507 519 518
3 507 508 519
3 508 520 519
3 508 509 520
3 509 521 520
3 509 510 521
3 510 522 521
3 510 511 522
3 511 523 522
3 511 512 523
3 512 524 523
3 512 513 524
3 513 525 524
3 513 514 525
3 514 526 525
3 514 515 526
3 515 527 526
3 515 504 527
3 504 516 527
3 516 517 528
3 517 529 528
3 517 518 529
3 518 530 529
3 518 519 530
3 519 531 530
3 519 520 531
3 520 532 531
3 520 521 532
3 521 533 532
3 521 522 533
3 522 534 533
3 522 523 534
3 523 535 534
3 523 524 535
3 524 536 535
3 524 525 536
3 525 537 536
3 525 526 537
3 526 538 537
3 526 527 538
3 527 539 538
3 527 516 539
3 516 528 539
3 528 529 540
3 529 541 540
3 529 530 541
3 530 542 541
3 530 531 542
3 531 543 542
3 531 532 543
3 532 544 543
3 532 533 544
3 533 545 544
3 533 534 545
3 534 546 545
3 534 535 546
3 535 547 546
3 535 536 547
3 536 548 547
3 536 537 548
3 537 549 548
3 537 538 549
3 538 550 549
3 538 539 550
3 539 551 550
3 539 528 551
3 528 540 551
3 540 541 552
3 541 553 552
3 541 542 553
3 542 554 553
3 542 543 554
3 543 555 554
3 543 544 555
3 544 556 555
3 544 545 556
3 545 557 556
3 545 546 557
3 546 558 557
3 546 547 558
3 547 559 558
3 547 548 559
3 548 560 559
3 548 549 560
3 549 561 560
3 549 550 561
3 550 562 561
3 550 551 562
3 551 563 562
3 551 540 563
3 540 552 563
3 552 553 564
3 553 565 564
3 553 554 565
3 554 566 565
3 554 555 566
3 555 567 566
3 555 556 567
3 556 568 567
3 556 557 568
3 557 569 568
3 557 558 569
3 558 570 569
3 558 559 570
3 559 571 570
3 559 560 571
3 560 572 571
3 560 561 572
3 561 573 572
3 561 562 573
3 562 574 573
3 562 563 574
3 563 575 574
3 563 552 575
3 552 564 575
3 564 565 576
3 565 577 576
3 565 566 577
3 566 578 577
3 566 567 578
3 567 579 578
3 567 568 579
3 568 580 579
3 568 569 580
3 569 581 580
3 569 570 581
3 570 582 581
3 570 571 582
3 571 583 582
3 571 572 583
3 572 584 583
3 572 573 584
3 573 585 584
3 573 574 585
3 574 586 585
3 574 575 586
3 575 587 586
3 575 564 587
3 564 576 587
3 576 577 588
3 577 589 588
3 577 578 589
3 578 590 589
3 578 579 590
3 579 591 590
3 579 580 591
3 580 592 591
3 580 581 592
3 581 593 592
3 581 582 593
3 582 594 593
3 582 583 594
3 583 595 594
3 583 584 595
3 584 596 595
3 584 585 596
3 585 597 596
3 585 586 597
3 586 598 597
3 586 587 598
3 587 599 598
3 587 576 599
3 576 588 599
3 588 589 600
3 589 601 600
3 589 590 601
3 590 602 601
3 590 591 602
3 591 603 602
3 591 592 603
3 592 604 603
3 592 593 604
3 593 605 604
3 593 594 605
3 594 606 605
3 594 595 606
3 595 607 606
3 595 596 607
3 596 608 607
3 596 597 608
3 597 609 608
3 597 598 609
3 598 610 609
3 598 599 610
3 599 611 610
3 599 588 611
3 588 600 611
3 600 601 612
3 601 613 612
3 601 602 613
3 602 614 613
3 602 603 614
3 603 615 614
3 603 604 615
3 604 616 615
3 604 605 616
3 605 617 616
3 605 606 617
3 606 618 617
3 606 607 618
3 607 619 618
3 607 608 619
3 608 620 619
3 608 609 620
3 609 621 620
3 609 610 621
3 610 622 621
3 610 611 622
3 611 623 622
3 611 600 623
3 600 612 623
3 612 613 624
3 613 625 624
3 613 614 625
3 614 626 625
3 614 615 626
3 615 627 626
3 615 616 627
3 616 628 627
3 616 617 628
3 617 629 628
3 617 618 629
3 618 630 629
3 618 619 630
3 619 631 630
3 619 620 631
3 620 632 631
3 620 621 632
3 621 633 632
3 621 622 633
3 622 634 633
3 622 623 634
3 623 635 634
3 623 612 635
3 612 624 635
3 624 625 636
3 625 637 636
3 625 626 637
3 626 638 637
3 626 627 638
3 627 639 638
3 627 628 639
3 628 640 639
3 628 629 640
3 629 641 640
3 629 630 641
3 630 642 641
3 630 631 642
3 631 643 642
3 631 632 643
3 632 644 643
3 632 633 644
3 633 645 644
3 633 634 645
3 634 646 645
3 634 635 646
3 635 647 646
3 635 624 647
3 624 636 647
3 636 637 432
3 637 433 432
3 637 638 433
3 638 434 433
3 638 639 434
3 639 435 434
3 639 640 435
3 640 436 435
3 640 641 436
3 641 437 436
3 641 642 437
3 642 438 437
3 642 643 438
3 643 439 438
3 643 644 439
3 644 440 439
3 644 645 440
3 645 441 440
3 645 646 441
3 646 442 441
3 646 647 442
3 647 443 442
3 647 636 443
3 636 432 443
