ply
format ascii 1.0
element vertex 1108
property float x
property float y
property float z
property float nx
property float ny
property float nz
element face 2304
property list uchar int vertex_indices
end_header
1.000000 0.000000 2.000000 -0.901547 0.050877 0.429679
1.129410 0.000000 2.250000 -0.884844 -0.003754 0.465872
1.250000 0.000000 2.433013 -0.755706 -0.246058 0.606930
1.353553 0.000000 2.500000 -0.168917 -0.478635 0.861612
1.433013 0.000000 2.433013 0.747048 -0.246826 0.617249
1.482963 0.000000 2.250000 0.956876 -0.190761 0.219086
1.500000 0.000000 2.000000 0.971595 -0.231221 0.050403
1.482963 0.000000 1.750000 0.955440 -0.280015 -0.093408
1.433013 0.000000 1.566987 0.875887 -0.303775 -0.374890
1.353553 0.000000 1.500000 0.414592 -0.318823 -0.852329
1.250000 0.000000 1.566987 -0.577153 -0.302195 -0.758665
1.129410 0.000000 1.750000 -0.830167 -0.096406 -0.549116
1.000000 0.000000 2.000000 -0.872043 0.032822 -0.488327
0.870590 0.000000 2.250000 -0.861263 -0.043387 -0.506304
0.750000 0.000000 2.433013 -0.760257 -0.108424 -0.640510
0.646447 0.000000 2.500000 -0.188642 0.093762 -0.977560
0.566987 0.000000 2.433013 0.707095 0.421632 -0.567664
0.517037 0.000000 2.250000 0.854474 0.494015 -0.160696
0.500000 0.000000 2.000000 0.917136 0.398575 -0.000253
0.517037 0.000000 1.750000 0.950332 0.270123 0.154605
0.566987 0.000000 1.566987 0.844858 0.262716 0.466042
0.646447 0.000000 1.500000 0.193458 0.455055 0.869194
0.750000 0.000000 1.566987 -0.650297 0.369954 0.663512
0.870590 0.000000 1.750000 -0.858842 0.153837 0.488594
0.991445 0.130526 2.000000 -0.908986 -0.115056 0.400632
1.103262 0.145247 2.257929 -0.864957 -0.232716 0.444626
1.210697 0.159391 2.448436 -0.704664 -0.284492 0.650010
1.308801 0.172307 2.522053 0.028460 -0.136058 0.990292
1.391756 0.183228 2.460406 0.793730 0.141763 0.591520
1.453040 0.191296 2.281052 0.956384 0.179729 0.230275
1.486106 0.195650 2.032702 0.989306 0.130392 0.065355
1.485462 0.195565 1.782123 0.991765 0.077956 -0.101610
1.447912 0.190621 1.596235 0.872878 0.078376 -0.481603
1.373645 0.180844 1.524194 0.120137 0.150086 -0.981347
1.266853 0.166784 1.584265 -0.663733 0.097142 -0.741635
1.135683 0.149516 1.758999 -0.830500 0.006045 -0.556986
0.991445 0.130526 2.000000 -0.847988 -0.117653 -0.516793
0.847206 0.111537 2.241001 -0.788950 -0.267334 -0.553254
0.716036 0.094268 2.415735 -0.579524 -0.389506 -0.715848
0.609245 0.080209 2.475806 0.190043 -0.217370 -0.957410
0.534978 0.070431 2.403765 0.849620 0.217030 -0.480670
0.497428 0.065488 2.217877 0.955574 0.277196 -0.100207
0.496784 0.065403 1.967298 0.989100 0.131931 0.065386
0.529850 0.069756 1.718948 0.973577 -0.012842 0.227998
0.591134 0.077824 1.539594 0.807379 0.010657 0.589936
0.674088 0.088745 1.477947 -0.000587 0.224783 0.974409
0.772192 0.101661 1.551564 -0.749899 0.193342 0.632669
0.879628 0.115805 1.742071 -0.895989 0.037929 0.442454
0.965926 0.258819 2.000000 -0.909426 -0.239679 0.339850
1.058337 0.283580 2.264753 -0.852747 -0.352449 0.385489
1.150748 0.308342 2.461940 -0.699462 -0.388376 0.599931
1.241471 0.332651 2.541870 -0.015262 -0.150694 0.988463
1.326012 0.355304 2.485828 0.729348 0.234222 0.642800
1.396921 0.374304 2.310901 0.907972 0.299312 0.293256
1.444757 0.387121 2.065263 0.957598 0.256892 0.130431
1.459961 0.391195 1.815178 0.977374 0.208351 -0.036478
1.435199 0.384561 1.627211 0.883687 0.199494 -0.423437
1.367550 0.366434 1.550426 0.161491 0.178489 -0.970599
1.259935 0.337599 1.603323 -0.622006 0.019486 -0.782770
1.121376 0.300472 1.769030 -0.787019 -0.094035 -0.609720
0.965926 0.258819 2.000000 -0.790781 -0.218756 -0.571675
0.810476 0.217166 2.230970 -0.709206 -0.361781 -0.605096
0.671917 0.180040 2.396677 -0.472417 -0.459291 -0.752246
0.564302 0.151204 2.449574 0.281350 -0.182656 -0.942061
0.496652 0.133078 2.372789 0.840669 0.338129 -0.423019
0.471891 0.126443 2.184822 0.913564 0.405128 -0.035678
0.487095 0.130517 1.934737 0.956792 0.259848 0.130491
0.534930 0.143334 1.689099 0.949843 0.115279 0.290706
0.605840 0.162334 1.514172 0.759550 0.110111 0.641061
0.690380 0.184987 1.458130 -0.091676 0.197613 0.975984
0.781104 0.209296 1.538060 -0.806814 0.073246 0.586248
0.873515 0.234058 1.735247 -0.918949 -0.089996 0.383970
0.923880 0.382683 2.000000 -0.905236 -0.377484 -0.195072
0.996081 0.412590 2.270443 -0.819943 -0.471434 0.324721
1.072365 0.444188 2.473465 -0.675224 -0.494501 0.547303
1.154124 0.478054 2.559367 -0.053261 -0.178792 0.982444
1.238198 0.512878 2.509169 0.652022 0.311331 0.691332
1.316445 0.545290 2.339418 0.841178 0.407937 0.354975
1.376943 0.570349 2.097545 0.905982 0.375754 0.194949
1.406565 0.582618 1.849025 0.941928 0.334578 0.028814
1.394290 0.577534 1.659784 0.873795 0.323078 -0.363459
1.334364 0.552712 1.578582 0.195641 0.219842 -0.955716
1.228458 0.508844 1.624080 -0.569857 -0.044521 -0.820537
1.086201 0.449919 1.780050 -0.729174 -0.181397 -0.659849
0.761558 0.315448 2.219950 -0.615910 -0.438846 -0.654270
0.619301 0.256523 2.375920 -0.355838 -0.507117 -0.784991
0.513395 0.212655 2.421418 0.364603 -0.128497 -0.922254
0.453469 0.187833 2.340216 0.810667 0.458854 -0.363691
0.441194 0.182748 2.150975 0.850742 0.524787 0.028910
0.470816 0.195018 1.902455 0.904235 0.379895 0.195036
0.531314 0.220077 1.660582 0.905815 0.235407 0.352254
0.609561 0.252488 1.490831 0.697240 0.195956 0.689534
0.693635 0.287313 1.440633 -0.174649 0.151248 0.972945
0.775394 0.321179 1.526535 -0.841763 -0.056483 0.536884
0.851678 0.352777 1.729557 -0.919845 -0.221503 0.323763
0.866025 0.500000 2.000000 -0.834971 -0.485644 -0.258791
0.918243 0.530148 2.274975 -0.766744 -0.585793 0.262585
0.978097 0.564705 2.482963 -0.631377 -0.599115 0.492366
1.049707 0.606048 2.574469 -0.082579 -0.218800 0.972269
1.131190 0.653093 2.530330 0.565014 0.371110 0.736910
1.213996 0.700901 2.366481 0.758387 0.502480 0.415166
1.284284 0.741481 2.129410 0.836255 0.483513 0.258634
1.326068 0.765606 1.883519 0.886595 0.452897 0.093986
1.325305 0.765165 1.693814 0.842960 0.445263 -0.301927
1.273851 0.735458 1.608543 0.219767 0.272375 -0.936757
1.172212 0.676777 1.646447 -0.510525 -0.093450 -0.854770
1.030315 0.594852 1.792012 -0.659933 -0.253811 -0.707155
0.701736 0.405148 2.207988 -0.512637 -0.496392 -0.700570
0.559839 0.323223 2.353553 -0.234117 -0.531627 -0.813979
0.458200 0.264542 2.391457 0.436075 -0.056762 -0.898118
0.406746 0.234835 2.306186 0.759856 0.575192 -0.302941
0.405983 0.234394 2.116481 0.768993 0.632414 0.093291
0.447767 0.258519 1.870590 0.833309 0.488516 0.258745
0.518055 0.299099 1.633519 0.843573 0.344000 0.412370
0.600860 0.346907 1.469670 0.623596 0.265905 0.735134
0.682344 0.393952 1.425531 -0.245891 0.087651 0.965326
0.753953 0.435295 1.517037 -0.853368 -0.191629 0.484811
0.813808 0.469852 1.725025 -0.898370 -0.352473 0.262095
0.793353 0.608761 2.000000 -0.748913 -0.579510 -0.321399
0.826818 0.634440 2.278330 -0.694097 -0.691728 0.199353
0.870741 0.668143 2.490393 -0.568098 -0.698368 0.435370
0.931453 0.714729 2.587111 -0.100629 -0.268575 0.957988
1.008229 0.773642 2.549220 0.471892 0.412248 0.779339
1.092426 0.838248 2.391976 0.662534 0.580327 0.473571
1.168978 0.896989 2.160720 0.750838 0.577118 0.321212
1.219933 0.936088 1.918511 0.813229 0.559870 0.158758
1.229079 0.943105 1.729155 0.791682 0.562201 -0.239104
1.186468 0.910409 1.640181 0.231466 0.333763 -0.913797
1.091591 0.837607 1.670327 -0.447432 -0.126566 -0.885317
0.954326 0.732280 1.804865 -0.582615 -0.309691 -0.751433
0.632381 0.485243 2.195135 -0.403306 -0.533008 -0.743805
0.495116 0.379916 2.329673 -0.111780 -0.532305 -0.839140
0.400239 0.307114 2.359819 0.492450 0.029994 -0.869823
0.357628 0.274417 2.270845 0.689270 0.683239 -0.241022
0.366774 0.281435 2.081489 0.670901 0.724692 0.157205
0.417728 0.320534 1.839280 0.746536 0.582599 0.321345
0.494281 0.379275 1.608024 0.765832 0.438022 0.470784
0.578477 0.443881 1.450780 0.542128 0.318364 0.777651
0.655254 0.502794 1.412889 -0.302230 0.009431 0.953188
0.715966 0.549380 1.509607 -0.841068 -0.327817 0.430280
0.759888 0.583083 1.721670 -0.855007 -0.478820 0.199233
0.707107 0.707107 2.000000 -0.650048 -0.656531 -0.382628
0.723998 0.723998 2.280493 -0.603674 -0.785666 0.135301
0.753255 0.753255 2.495722 -0.486323 -0.788466 0.376578
0.802778 0.802778 2.597239 -0.105309 -0.325467 0.939671
0.872814 0.872814 2.565758 0.376396 0.434148 0.818438
0.954968 0.954968 2.415792 0.556989 0.639476 0.529937
1.033748 1.033748 2.191342 0.652681 0.654038 0.382417
1.090267 1.090267 1.953852 0.724294 0.652483 0.222854
1.107158 1.107158 1.765655 0.721186 0.670205 -0.175259
1.073376 1.073376 1.673359 0.228852 0.401225 -0.886930
0.987600 0.987600 1.695619 -0.384037 -0.143849 -0.912043
0.859297 0.859297 1.818553 -0.500752 -0.348147 -0.792491
0.554916 0.554916 2.181447 -0.292038 -0.548060 -0.783801
0.426614 0.426614 2.304381 0.006613 -0.509505 -0.860442
0.340838 0.340838 2.326641 0.530957 0.128620 -0.837581
0.307055 0.307055 2.234345 0.600699 0.779366 -0.178183
0.323947 0.323947 2.046148 0.559647 0.798887 0.220399
0.380466 0.380466 1.808658 0.646981 0.659589 0.382567
0.459246 0.459246 1.584208 0.675827 0.515053 0.527236
0.541400 0.541400 1.434242 0.456561 0.352477 0.816891
0.611436 0.611436 1.402761 -0.341058 -0.080243 0.936611
0.660959 0.660959 1.504278 -0.805136 -0.460667 0.373553
0.690215 0.690215 1.719507 -0.791001 -0.596633 0.135452
0.608761 0.793353 2.000000 -0.541786 -0.714783 -0.442215
0.612105 0.797710 2.281455 -0.497816 -0.864396 0.070707
0.628669 0.819297 2.498929 -0.387733 -0.865819 0.316262
0.667171 0.869474 2.604809 -0.095099 -0.386424 0.917405
0.728590 0.949518 2.579874 0.282295 0.436950 0.854040
0.805138 1.049277 2.437827 0.445437 0.678603 0.584024
0.881752 1.149122 2.221144 0.545154 0.712359 0.441986
0.939762 1.224722 1.989391 0.622774 0.728257 0.285998
0.961766 1.253398 1.803159 0.633377 0.765890 -0.110664
0.936419 1.220365 1.707936 0.210642 0.471634 -0.856266
0.861845 1.123178 1.722215 -0.323693 -0.145983 -0.934833
0.746729 0.973156 1.833018 -0.417951 -0.369007 -0.830151
0.470794 0.613551 2.166982 -0.182998 -0.541716 -0.820399
0.355678 0.463529 2.277785 0.116642 -0.464443 -0.877888
0.281104 0.366341 2.292064 0.549469 0.235485 -0.801642
0.255757 0.333308 2.196841 0.496613 0.860364 -0.114671
0.277761 0.361985 2.010609 0.438869 0.852945 0.282629
0.335771 0.437585 1.778856 0.538130 0.717578 0.442151
0.412385 0.537430 1.562173 0.577171 0.573377 0.581474
0.488932 0.637189 1.420126 0.370685 0.368154 0.852675
0.550352 0.717233 1.395191 -0.360417 -0.177767 0.915696
0.588854 0.767409 1.501071 -0.746655 -0.585954 0.314904
0.605418 0.788996 1.718545 -0.708306 -0.702323 0.071030
0.500000 0.866025 2.000000 -0.427830 -0.753031 -0.499905
0.493536 0.854829 2.281211 -0.379451 -0.925193 0.005854
0.500000 0.866025 2.500000 -0.274700 -0.927182 0.254703
0.528093 0.914684 2.609789 -0.069132 -0.448116 0.891298
0.579247 1.003285 2.591506 0.193244 0.421514 0.885993
0.646629 1.119994 2.457988 0.331739 0.697112 0.635598
0.716506 1.241025 2.250000 0.431921 0.750852 0.499665
0.771629 1.336501 2.024975 0.512058 0.785334 0.347919
0.795753 1.378285 1.841506 0.530768 0.846289 -0.045597
0.778093 1.347697 1.743764 0.176210 0.541645 -0.821931
0.716506 1.241025 1.750000 -0.269512 -0.134313 -0.953584
0.618536 1.071336 1.848198 -0.337749 -0.372821 -0.864251
0.381464 0.660715 2.151802 -0.080246 -0.514946 -0.853458
0.283494 0.491025 2.250000 0.214183 -0.399154 -0.891516
0.221907 0.384354 2.256236 0.546596 0.346611 -0.762295
0.204247 0.353766 2.158494 0.380056 0.923571 -0.050725
0.228371 0.395550 1.975025 0.312514 0.885570 0.343658
0.283494 0.491025 1.750000 0.423749 0.755377 0.499842
0.353371 0.612056 1.542012 0.473707 0.612037 0.633255
0.420753 0.728766 1.408494 0.288199 0.366062 0.884839
0.471907 0.817367 1.390211 -0.359073 -0.279227 0.890561
0.500000 0.866025 1.500000 -0.667471 -0.699753 0.254615
0.506464 0.877221 1.718789 -0.609513 -0.792751 0.006248
0.382683 0.923880 2.000000 -0.312037 -0.770782 -0.555453
0.370708 0.894969 2.279763 -0.251993 -0.965930 -0.058975
0.370169 0.893667 2.498929 -0.150223 -0.969791 0.192192
0.388877 0.938831 2.612159 -0.027241 -0.507070 0.861474
0.428402 1.034254 2.600606 0.112647 0.389390 0.914159
0.483205 1.166561 2.476187 0.219788 0.695154 0.684437
0.541778 1.307968 2.277785 0.316798 0.769015 0.555207
0.589509 1.423201 2.060452 0.395808 0.822548 0.408351
0.612525 1.478767 1.880532 0.416390 0.908974 0.019665
0.601484 1.452111 1.780689 0.125623 0.607830 -0.784067
0.554293 1.338181 1.778856 -0.224236 -0.110787 -0.968217
0.477012 1.151609 1.864029 -0.263473 -0.360827 -0.894643
0.288355 0.696150 2.135971 0.012426 -0.469484 -0.882853
0.211074 0.509578 2.221144 0.295569 -0.316425 -0.901396
0.163883 0.395648 2.219311 0.521732 0.457826 -0.719855
0.152842 0.368992 2.119468 0.254526 0.966973 0.013419
0.175858 0.424558 1.939548 0.184673 0.896261 0.403253
0.223589 0.539791 1.722215 0.307740 0.772551 0.555393
0.282162 0.681198 1.523813 0.369353 0.630855 0.682349
0.336965 0.813506 1.399394 0.212566 0.347586 0.913236
0.376490 0.908928 1.387841 -0.336561 -0.380545 0.861343
0.395198 0.954092 1.501071 -0.570115 -0.798580 0.192974
0.394659 0.952790 1.720237 -0.497747 -0.865339 -0.058612
0.258819 0.965926 2.000000 -0.198273 -0.768290 -0.608619
0.246002 0.918090 2.277118 -0.119221 -0.985157 -0.123497
0.241928 0.902887 2.495722 -0.017816 -0.991481 0.129026
0.252636 0.942852 2.611906 0.030020 -0.559809 0.828077
0.279507 1.043133 2.607134 0.043531 0.342750 0.938418
0.318598 1.189026 2.492348 0.113365 0.673622 0.730329
0.361487 1.349086 2.304381 0.203612 0.767086 0.608376
0.397378 1.483035 2.095671 0.277825 0.839458 0.467036
0.415957 1.552372 1.920069 0.293673 0.952134 0.084841
0.410195 1.530870 1.818553 0.059642 0.666815 -0.742833
0.378378 1.412125 1.808658 -0.190126 -0.077860 -0.978667
0.324781 1.212100 1.880441 -0.198108 -0.334890 -0.921196
0.192857 0.719752 2.119559 0.091629 -0.407767 -0.908477
0.139260 0.519726 2.191342 0.357724 -0.219690 -0.907618
0.107443 0.400981 2.181447 0.475082 0.564920 -0.674657
0.101681 0.379480 2.079931 0.123823 0.989271 0.077527
0.120260 0.448817 1.904329 0.059419 0.885311 0.461187
0.156152 0.582766 1.695619 0.193990 0.769424 0.608568
0.199040 0.742826 1.507652 0.267944 0.630427 0.728538
0.238131 0.888719 1.392866 0.146873 0.314765 0.937737
0.265002 0.989000 1.388094 -0.293203 -0.477627 0.828194
0.275710 1.028965 1.504278 -0.457709 -0.879506 0.130274
0.271637 1.013761 1.722882 -0.376545 -0.918161 -0.123266
0.130526 0.991445 2.000000 -0.090265 -0.746549 -0.659179
0.121710 0.924481 2.273286 0.014861 -0.982165 -0.187431
0.117794 0.894734 2.490393 0.118601 -0.990779 0.065506
0.122191 0.928134 2.609034 0.101385 -0.603005 0.791269
0.135754 1.031153 2.611061 -0.011569 0.284304 0.958664
0.156406 1.188023 2.506400 0.016001 0.634109 0.773078
0.179594 1.364149 2.329673 0.096054 0.746035 0.658942
0.199437 1.514875 2.130480 0.161901 0.836363 0.523722
0.210286 1.597278 1.959949 0.166324 0.974649 0.149653
0.208253 1.581839 1.857194 -0.020299 0.715419 -0.698401
0.192326 1.460859 1.839280 -0.168876 -0.038391 -0.984889
0.164741 1.251334 1.897366 -0.144183 -0.297427 -0.943795
0.096311 0.731556 2.102634 0.154513 -0.332840 -0.930238
0.068727 0.522030 2.160720 0.398275 -0.112907 -0.910291
0.052799 0.401051 2.142806 0.407653 0.663804 -0.627044
0.050767 0.385611 2.040051 -0.008097 0.989924 0.141368
0.061615 0.468014 1.869520 -0.059342 0.853784 0.517234
0.081459 0.618741 1.670327 0.086226 0.747061 0.659140
0.104646 0.794867 1.493600 0.173084 0.612086 0.771617
0.125298 0.951736 1.388939 0.093715 0.270201 0.958232
0.138861 1.054756 1.390966 -0.230091 -0.566510 0.791281
0.143258 1.088156 1.509607 -0.333840 -0.940259 0.066811
0.139342 1.058408 1.726714 -0.249726 -0.950003 -0.187433
0.000000 1.000000 2.000000 0.008539 -0.707247 -0.706915
0.000000 0.914730 2.268283 0.146167 -0.957019 -0.250498
0.000000 0.870590 2.482963 0.254851 -0.966978 0.001941
0.000000 0.896447 2.603553 0.184913 -0.633613 0.751227
0.000000 1.000000 2.612372 -0.050702 0.217194 0.974811
0.000000 1.164730 2.518283 -0.069158 0.578847 0.812498
0.000000 1.353553 2.353553 -0.002454 0.707518 0.706691
0.000000 1.518283 2.164730 0.051676 0.814281 0.578166
0.000000 1.612372 2.000000 0.038187 0.976126 0.213824
0.000000 1.603553 1.896447 -0.112141 0.750785 -0.650958
0.000000 1.482963 1.870590 -0.161537 0.004482 -0.986856
0.000000 1.268283 1.914730 -0.103672 -0.251298 -0.962342
0.000000 0.731717 2.085270 0.198875 -0.248244 -0.948063
0.000000 0.517037 2.129410 0.415642 -0.000416 -0.909528
0.000000 0.396447 2.103553 0.321210 0.750661 -0.577350
0.000000 0.387628 2.000000 -0.137275 0.969150 0.204707
0.000000 0.481717 1.835270 -0.168018 0.803450 0.571172
0.000000 0.646447 1.646447 -0.012127 0.707217 0.706892
0.000000 0.835270 1.481717 0.088006 0.577832 0.811397
0.000000 1.000000 1.387628 0.055094 0.216949 0.974627
0.000000 1.103553 1.396447 -0.149057 -0.643510 0.750784
0.000000 1.129410 1.517037 -0.202428 -0.979293 0.002883
0.000000 1.085270 1.731717 -0.121241 -0.960408 -0.250832
-0.130526 0.991445 2.000000 0.095100 -0.652698 -0.751626
-0.117130 0.889689 2.262132 0.270684 -0.910562 -0.312422
-0.109548 0.832100 2.473465 0.386644 -0.920185 -0.061361
-0.111886 0.849861 2.595488 0.278052 -0.649009 0.708148
-0.125298 0.951736 2.611061 -0.072572 0.144870 0.986786
-0.147557 1.120808 2.527947 -0.139462 0.510623 0.848419
-0.173557 1.318297 2.375920 -0.088893 0.653811 0.751418
-0.196625 1.493512 2.198274 -0.049497 0.774907 0.630134
-0.210286 1.597278 2.040051 -0.086904 0.956909 0.277078
-0.210021 1.595268 1.936143 -0.213274 0.770500 -0.600704
-0.194535 1.477642 1.902455 -0.168483 0.047479 -0.984560
-0.166197 1.262392 1.932459 -0.077914 -0.199688 -0.976757
-0.094855 0.720497 2.067541 0.223240 -0.157882 -0.961892
-0.066517 0.505248 2.097545 0.409099 0.113218 -0.905439
-0.051031 0.387621 2.063857 0.218210 0.822085 -0.525891
-0.050767 0.385611 1.959949 -0.259894 0.927903 0.267303
-0.064428 0.489378 1.801726 -0.263448 0.736709 0.622780
-0.087495 0.664592 1.624080 -0.098067 0.652264 0.751622
-0.113495 0.862082 1.472053 0.015455 0.530247 0.847702
-0.135754 1.031153 1.388939 0.032343 0.158387 0.986847
-0.149166 1.133029 1.404512 -0.052599 -0.705355 0.706900
-0.151504 1.150790 1.526535 -0.067581 -0.995834 -0.061213
-0.143923 1.093201 1.737868 0.004968 -0.949679 -0.313187
-0.258819 0.965926 2.000000 0.166898 -0.585753 -0.793119
-0.227875 0.850441 2.254858 0.384617 -0.844387 -0.372935
-0.209296 0.781104 2.461940 0.509740 -0.851332 -0.124088
-0.211857 0.790661 2.584873 0.377731 -0.647110 0.662245
-0.238131 0.888719 2.607134 -0.076585 0.070959 0.994535
-0.283580 1.058337 2.535351 -0.192852 0.432671 0.880684
-0.337599 1.259935 2.396677 -0.160757 0.587722 0.792932
-0.386248 1.441497 2.230970 -0.138676 0.720541 0.679404
-0.415957 1.552372 2.079931 -0.205262 0.918067 0.339146
-0.417192 1.556982 1.976112 -0.320636 0.772691 -0.547852
-0.387121 1.444757 1.934737 -0.189392 0.087316 -0.978012
-0.330542 1.233601 1.950477 -0.067570 -0.145973 -0.986978
-0.187096 0.698251 2.049523 0.226928 -0.065868 -0.971682
-0.130517 0.487095 2.065263 0.378797 0.223370 -0.898120
-0.100446 0.374870 2.023888 0.101703 0.875199 -0.472951
-0.101681 0.379480 1.920069 -0.372412 0.867829 0.328911
-0.131390 0.490355 1.769030 -0.343011 0.656487 0.671840
-0.180040 0.671917 1.603323 -0.169129 0.585090 0.793136
-0.234058 0.873515 1.464649 -0.042421 0.472380 0.880374
-0.279507 1.043133 1.392866 0.026078 0.098075 0.994837
-0.305781 1.141190 1.415127 0.056207 -0.749306 0.659835
-0.308342 1.150748 1.538060 0.066561 -0.989899 -0.125180
-0.289763 1.081411 1.745142 0.125120 -0.918858 -0.374226
-0.382683 0.923880 2.000000 0.222030 -0.509682 -0.831220
-0.330649 0.798258 2.246493 0.484534 -0.760788 -0.431773
-0.298055 0.719569 2.448436 0.620111 -0.762162 -0.185932
-0.298757 0.721263 2.571754 0.480475 -0.626468 0.613744
-0.336965 0.813506 2.600606 -0.062867 -0.000877 0.998022
-0.405818 0.979730 2.540462 -0.227938 0.348547 0.909153
-0.488987 1.180520 2.415735 -0.216141 0.512476 0.831055
-0.564912 1.363819 2.262676 -0.213445 0.653994 0.725764
-0.612525 1.478767 2.119468 -0.313487 0.861346 0.399761
-0.616946 1.489440 2.016184 -0.430824 0.756114 -0.492627
-0.573615 1.384830 1.967298 -0.223260 0.120845 -0.967239
-0.489744 1.182347 1.968708 -0.072591 -0.093582 -0.992962
-0.275623 0.665412 2.031292 0.210069 0.023631 -0.977401
-0.191751 0.462929 2.032702 0.325771 0.325517 -0.887644
-0.148420 0.358319 1.983816 -0.024771 0.907751 -0.418777
-0.152842 0.368992 1.880532 -0.471683 0.791187 0.389278
-0.200454 0.483940 1.737324 -0.404701 0.566125 0.718136
-0.276380 0.667240 1.584265 -0.223469 0.508991 0.831258
-0.359549 0.868029 1.459538 -0.084138 0.407616 0.909269
-0.428402 1.034254 1.399394 0.036182 0.039612 0.998560
-0.466610 1.126497 1.428246 0.173818 -0.773253 0.609809
-0.467312 1.128190 1.551564 0.195971 -0.962278 -0.188726
-0.434717 1.049501 1.753507 0.235732 -0.869682 -0.433686
-0.500000 0.866025 2.000000 0.259275 -0.428049 -0.865766
-0.424099 0.734561 2.237072 0.567493 -0.662677 -0.488683
-0.375000 0.649519 2.433013 0.714094 -0.655182 -0.246589
-0.371882 0.644119 2.556186 0.582534 -0.586354 0.562888
-0.420753 0.728766 2.591506 -0.032255 -0.067076 0.997226
-0.512488 0.887654 2.543258 -0.244046 0.261996 0.933702
-0.625000 1.082532 2.433013 -0.253817 0.431592 0.865624
-0.728994 1.262654 2.293258 -0.271995 0.578476 0.769015
-0.795753 1.378285 2.158494 -0.408594 0.789099 0.458665
-0.804895 1.394119 2.056186 -0.540226 0.720209 -0.435264
-0.750000 1.299038 2.000000 -0.268447 0.145190 -0.952290
-0.640606 1.109561 1.987072 -0.092233 -0.045854 -0.994681
-0.359394 0.622489 2.012928 0.173612 0.106554 -0.979033
-0.250000 0.433013 2.000000 0.251901 0.415406 -0.874062
-0.195105 0.337932 1.943814 -0.157314 0.918188 -0.363570
-0.204247 0.353766 1.841506 -0.555057 0.700770 0.448145
-0.271006 0.469396 1.706742 -0.447188 0.469256 0.761460
-0.375000 0.649519 1.566987 -0.259929 0.427535 0.865824
-0.487512 0.844396 1.456742 -0.108935 0.339543 0.934261
-0.579247 1.003285 1.408494 0.061808 -0.013513 0.997997
-0.628118 1.087932 1.443814 0.296356 -0.775800 0.557053
-0.625000 1.082532 1.566987 0.316883 -0.914496 -0.251560
-0.575901 0.997489 1.762928 0.333745 -0.804508 -0.491305
-0.608761 0.793353 2.000000 0.278140 -0.344571 -0.896610
-0.507109 0.660878 2.226636 0.631154 -0.553479 -0.543420
-0.439657 0.572972 2.415735 0.788542 -0.533585 -0.305761
-0.430964 0.561644 2.538237 0.680039 -0.526804 0.509927
-0.488932 0.637189 2.579874 0.013737 -0.124317 0.992148
-0.602303 0.784937 2.543728 -0.241236 0.176810 0.954224
-0.743386 0.968799 2.448436 -0.273273 0.348745 0.896492
-0.875294 1.140705 2.322584 -0.313195 0.497466 0.808973
-0.961766 1.253398 2.196841 -0.488114 0.704198 0.515606
-0.976946 1.273181 2.095948 -0.645154 0.665126 -0.376010
-0.912490 1.189181 2.032702 -0.322737 0.157870 -0.933230
-0.780100 1.016646 2.005492 -0.125078 -0.005898 -0.992129
-0.437423 0.570060 1.994508 0.119278 0.179102 -0.976573
-0.305032 0.397526 1.967298 0.159861 0.489203 -0.857394
-0.240577 0.313526 1.904052 -0.291798 0.905707 -0.307489
-0.255757 0.333308 1.803159 -0.620461 0.599794 0.505248
-0.342229 0.446002 1.677416 -0.469854 0.369669 0.801612
-0.474137 0.617908 1.551564 -0.278074 0.344428 0.896685
-0.615220 0.801770 1.456272 -0.116786 0.271797 0.955242
-0.728590 0.949518 1.420126 0.101419 -0.058061 0.993148
-0.786559 1.025063 1.461763 0.419747 -0.756308 0.501808
-0.777866 1.013735 1.584265 0.425926 -0.848746 -0.313396
-0.710414 0.925829 1.773364 0.416637 -0.726212 -0.546835
-0.707107 0.707107 2.000000 0.278874 -0.262975 -0.923620
-0.578804 0.578804 2.215230 0.673872 -0.437009 -0.595751
-0.491877 0.491877 2.396677 0.840950 -0.401145 -0.363160
-0.476137 0.476137 2.517982 0.769148 -0.448635 0.455124
-0.541400 0.541400 2.565758 0.072977 -0.169639 0.982801
-0.674475 0.674475 2.541870 -0.220300 0.096686 0.970629
-0.842406 0.842406 2.461940 -0.274728 0.267623 0.923527
-1.001116 1.001116 2.350529 -0.336625 0.414576 0.845465
-1.107158 1.107158 2.234345 -0.550194 0.609917 0.570341
-1.129418 1.129418 2.135299 -0.741989 0.591737 -0.315118
-1.057635 1.057635 2.065263 -0.383434 0.156906 -0.910142
-0.905445 0.905445 2.023888 -0.169102 0.023531 -0.985318
-0.508768 0.508768 1.976112 0.049501 0.237886 -0.970031
-0.356578 0.356578 1.934737 0.053022 0.543645 -0.837639
-0.284795 0.284795 1.864701 -0.424005 0.870282 -0.250658
-0.307055 0.307055 1.765655 -0.666468 0.491789 0.560325
-0.413098 0.413098 1.649471 -0.472801 0.271185 0.838402
-0.571808 0.571808 1.538060 -0.278203 0.263370 0.923710
-0.739738 0.739738 1.458130 -0.108399 0.207921 0.972121
-0.872814 0.872814 1.434242 0.152857 -0.091176 0.984033
-0.938077 0.938077 1.482018 0.539872 -0.714922 0.444325
-0.922336 0.922336 1.603323 0.520243 -0.767792 -0.373956
-0.835409 0.835409 1.784770 0.482509 -0.638078 -0.600035
-0.793353 0.608761 2.000000 0.262453 -0.186849 -0.946682
-0.638542 0.489971 2.202902 0.694759 -0.317333 -0.645453
-0.531806 0.408069 2.375920 0.869572 -0.262087 -0.418515
-0.507890 0.389717 2.495510 0.846218 -0.353436 0.398745
-0.578477 0.443881 2.549220 0.142800 -0.200557 0.969219
-0.728704 0.559154 2.537692 -0.182724 0.025087 0.982844
-0.920861 0.706601 2.473465 -0.259120 0.191784 0.946613
-1.104329 0.847381 2.376972 -0.342592 0.333406 0.878334
-1.229079 0.943105 2.270845 -0.593652 0.509807 0.622635
-1.259140 0.966172 2.174071 -0.827320 0.501607 -0.252849
-1.182408 0.907294 2.097545 -0.447469 0.140911 -0.883128
-1.014167 0.778198 2.042182 -0.221756 0.040152 -0.974275
-0.572539 0.439325 1.957818 -0.032668 0.280059 -0.959427
-0.404299 0.310229 1.902455 -0.064657 0.576161 -0.814775
-0.327567 0.251351 1.825929 -0.549771 0.812673 -0.193171
-0.357628 0.274417 1.729155 -0.692336 0.380475 0.613115
-0.482378 0.370142 1.623028 -0.456848 0.177517 0.871652
-0.665846 0.510921 1.526535 -0.261333 0.187914 0.946781
-0.858003 0.658369 1.462308 -0.085179 0.151220 0.984823
-1.008229 0.773642 1.450780 0.213424 -0.110501 0.970690
-1.078817 0.827805 1.504490 0.652716 -0.652566 0.384864
-1.054900 0.809454 1.624080 0.597582 -0.674860 -0.432967
-0.948165 0.727552 1.797098 0.530147 -0.543663 -0.650673
-0.866025 0.500000 2.000000 0.587958 -0.329345 -0.738808
-0.685903 0.396006 2.189705 0.693718 -0.198616 -0.692320
-0.559839 0.323223 2.353553 0.873496 -0.120931 -0.471572
-0.527014 0.304272 2.470916 0.907952 -0.243520 0.341060
-0.600860 0.346907 2.530330 0.220110 -0.215149 0.951453
-0.765150 0.441759 2.531211 -0.130634 -0.034883 0.990817
-0.978097 0.564705 2.482963 -0.228067 0.124516 0.965651
-1.183408 0.683241 2.401802 -0.332106 0.257405 0.907440
-1.325305 0.765165 2.306186 -0.618024 0.407557 0.672268
-1.363530 0.787235 2.212097 -0.898073 0.396944 -0.189473
-1.284284 0.741481 2.129410 -0.511527 0.109153 -0.852306
-1.104161 0.637488 2.060295 -0.280069 0.042250 -0.959050
-0.866025 0.500000 2.000000 -0.179395 0.117618 -0.976721
-0.627890 0.362512 1.939705 -0.123675 0.303424 -0.944795
-0.447767 0.258519 1.870590 -0.188775 0.584981 -0.788772
-0.368520 0.212765 1.787903 -0.665128 0.734405 -0.135109
-0.406746 0.234835 1.693814 -0.698031 0.269631 0.663364
-0.548643 0.316759 1.598198 -0.423489 0.092144 0.901203
-0.753953 0.435295 1.517037 -0.229157 0.121325 0.965799
-0.966901 0.558241 1.468789 -0.049159 0.104630 0.993295
-1.131190 0.653093 1.469670 0.279999 -0.114270 0.953175
-1.205037 0.695728 1.529084 0.754515 -0.570902 0.323692
-1.172212 0.676777 1.646447 0.656375 -0.573508 -0.490164
-1.046148 0.603994 1.810295 0.559064 -0.446658 -0.698529
-0.923880 0.382683 2.000000 0.185417 -0.063848 -0.980583
-0.720672 0.298512 2.175696 0.671457 -0.084969 -0.736156
-0.576575 0.238825 2.329673 0.852701 0.017672 -0.522101
-0.534540 0.221414 2.444305 0.951547 -0.121843 0.282333
-0.609561 0.252488 2.509169 0.301493 -0.212129 0.929571
-0.784397 0.324908 2.522455 -0.066709 -0.080596 0.994512
-1.014000 0.420012 2.490393 -0.183799 0.068716 0.980559
-1.237461 0.512573 2.424910 -0.306842 0.189729 0.932658
-1.394290 0.577534 2.340216 -0.623572 0.306856 0.719025
-1.440668 0.596744 2.249215 -0.951638 0.280525 -0.125264
-1.361304 0.563871 2.160720 -0.572181 0.061596 -0.817811
-1.173736 0.486177 2.078150 -0.340769 0.028750 -0.939707
-0.674023 0.279189 1.921850 -0.219607 0.306519 -0.926185
-0.486455 0.201496 1.839280 -0.314646 0.569217 -0.759598
-0.407091 0.168623 1.750785 -0.766448 0.637729 -0.076549
-0.453469 0.187833 1.659784 -0.684223 0.162968 0.710831
-0.610298 0.252794 1.575090 -0.374844 0.018190 0.926910
-0.833760 0.345355 1.509607 -0.183970 0.066464 0.980682
-1.063362 0.440459 1.477545 -0.002920 0.070601 0.997500
-1.238198 0.512878 1.490831 0.349161 -0.101386 0.931562
-1.313219 0.543953 1.555695 0.841897 -0.472276 0.261083
-1.271184 0.526542 1.670327 0.695784 -0.467483 -0.545292
-1.127087 0.466855 1.824304 0.569506 -0.350746 -0.743398
-0.965926 0.258819 2.000000 0.129890 -0.022270 -0.991278
-0.742826 0.199040 2.160934 0.629456 0.019709 -0.776786
-0.582766 0.156152 2.304381 0.808071 0.149124 -0.569897
-0.531670 0.142461 2.415792 0.974825 0.008103 0.222823
-0.605840 0.162334 2.485828 0.383351 -0.190893 0.903660
-0.787402 0.210984 2.511463 0.005919 -0.109994 0.993915
-1.028965 0.275710 2.495722 -0.129069 0.026771 0.991274
-1.266233 0.339286 2.446200 -0.269061 0.133123 0.953879
-1.435199 0.384561 2.372789 -0.611269 0.211244 0.762710
-1.489332 0.399065 2.285266 -0.985967 0.155593 -0.060500
-1.412125 0.378378 2.191342 -0.626035 -0.001090 -0.779794
-1.221657 0.327342 2.095671 -0.400420 -0.000732 -0.916331
-0.710195 0.190296 1.904329 -0.316334 0.288678 -0.903658
-0.519726 0.139260 1.808658 -0.437484 0.528903 -0.727234
-0.442519 0.118573 1.714734 -0.850584 0.525546 -0.017577
-0.496652 0.133078 1.627211 -0.652265 0.063996 0.755285
-0.665619 0.178352 1.553800 -0.313579 -0.041685 0.948647
-0.902887 0.241928 1.504278 -0.128582 0.025668 0.991367
-1.144450 0.306654 1.488537 0.050523 0.050999 0.997420
-1.326012 0.355304 1.514172 0.417326 -0.071464 0.905943
-1.400181 0.375177 1.584208 0.911998 -0.359618 0.197317
-1.349086 0.361487 1.695619 0.715716 -0.360582 -0.598107
-1.189026 0.318598 1.839066 0.562431 -0.259453 -0.785083
-0.991445 0.130526 2.000000 0.067180 0.003455 -0.997735
-0.752506 0.099069 2.145483 0.569924 0.111873 -0.814046
-0.579267 0.076262 2.277785 0.741379 0.269055 -0.614789
-0.519709 0.068421 2.385498 0.976330 0.142425 0.162771
-0.591134 0.077824 2.460406 0.462026 -0.151541 0.873824
-0.775431 0.102087 2.498280 0.083783 -0.121665 0.989029
-1.023867 0.134795 2.498929 -0.067045 0.000473 0.997750
-1.270092 0.167211 2.465578 -0.221522 0.089811 0.971011
-1.447912 0.190621 2.403765 -0.582754 0.123982 0.803135
-1.509032 0.198668 2.320095 -0.999658 0.025747 0.004540
-1.436045 0.189059 2.221144 -0.669864 -0.077547 -0.738423
-1.247167 0.164193 2.112782 -0.455558 -0.045871 -0.889023
-0.735723 0.096860 1.887218 -0.409676 0.250048 -0.877292
-0.546845 0.071994 1.778856 -0.552587 0.465003 -0.691679
-0.473858 0.062385 1.679905 -0.914992 0.401311 0.041700
-0.534978 0.070431 1.596235 -0.604141 -0.024097 0.796513
-0.712797 0.093842 1.534422 -0.242814 -0.085384 0.966308
-0.959023 0.126258 1.501071 -0.066204 0.000667 0.997806
-1.207458 0.158965 1.501720 0.107844 0.047037 0.993054
-1.391756 0.183228 1.539594 0.480894 -0.024849 0.876426
-1.463180 0.192631 1.614502 0.962568 -0.236345 0.132676
-1.403623 0.184790 1.722215 0.716814 -0.256497 -0.648373
-1.230384 0.161983 1.854517 0.539463 -0.176018 -0.823406
-1.000000 0.000000 2.000000 0.000795 0.012228 -0.999925
-0.750000 0.000000 2.129410 0.495710 0.188470 -0.847792
-0.566987 0.000000 2.250000 0.655225 0.373499 -0.656641
-0.500000 0.000000 2.353553 0.955402 0.276986 0.102403
-0.566987 0.000000 2.433013 0.533940 -0.094868 0.840184
-0.750000 0.000000 2.482963 0.163208 -0.114889 0.979879
-1.000000 0.000000 2.500000 -0.001180 -0.009054 0.999958
-1.250000 0.000000 2.482963 -0.167368 0.061407 0.983980
-1.433013 0.000000 2.433013 -0.540264 0.047926 0.840129
-1.500000 0.000000 2.353553 -0.992015 -0.105194 0.069571
-1.433013 0.000000 2.250000 -0.700751 -0.165771 -0.693879
-1.250000 0.000000 2.129410 -0.502838 -0.105640 -0.857901
-0.750000 0.000000 1.870590 -0.495557 0.191591 -0.847182
-0.566987 0.000000 1.750000 -0.655526 0.379382 -0.652959
-0.500000 0.000000 1.646447 -0.957840 0.268909 0.101151
-0.566987 0.000000 1.566987 -0.542401 -0.098564 0.834318
-0.750000 0.000000 1.517037 -0.166004 -0.111442 0.979808
-1.000000 0.000000 1.500000 -0.000321 -0.007484 0.999972
-1.250000 0.000000 1.517037 0.165543 0.059220 0.984423
-1.433013 0.000000 1.566987 0.536393 0.037394 0.843139
-1.500000 0.000000 1.646447 0.992052 -0.106224 0.067448
-1.433013 0.000000 1.750000 0.700419 -0.158680 -0.695869
-1.250000 0.000000 1.870590 0.502823 -0.103264 -0.858199
-0.991445 -0.130526 2.000000 -0.065615 0.003675 -0.997838
-0.735723 -0.096860 2.112782 0.410198 0.247055 -0.877896
-0.546845 -0.071994 2.221144 0.552945 0.459062 -0.695352
-0.473858 -0.062385 2.320095 0.912210 0.407574 0.041920
-0.534978 -0.070431 2.403765 0.595721 -0.022345 0.802880
-0.712797 -0.093842 2.465578 0.240450 -0.089668 0.966511
-0.959023 -0.126258 2.498929 0.064916 -0.001397 0.997890
-1.207458 -0.158965 2.498280 -0.109995 0.048851 0.992731
-1.391756 -0.183228 2.460406 -0.486542 -0.014583 0.873535
-1.463180 -0.192631 2.385498 -0.963077 -0.233329 0.134311
-1.403623 -0.184790 2.277785 -0.716209 -0.263186 -0.646358
-1.230384 -0.161983 2.145483 -0.539167 -0.178345 -0.823099
-0.752506 -0.099069 1.854517 -0.570164 0.115043 -0.813436
-0.579267 -0.076262 1.722215 -0.742321 0.274726 -0.611134
-0.519709 -0.068421 1.614502 -0.978083 0.132498 0.160615
-0.591134 -0.077824 1.539594 -0.470064 -0.157195 0.868522
-0.775431 -0.102087 1.501720 -0.086821 -0.119091 0.989080
-1.023867 -0.134795 1.501071 0.065443 0.001554 0.997855
-1.270092 -0.167211 1.534422 0.220089 0.087333 0.971562
-1.447912 -0.190621 1.596235 0.580618 0.113516 0.806224
-1.509032 -0.198668 1.679905 0.999640 0.026768 0.001923
-1.436045 -0.189059 1.778856 0.668507 -0.070213 -0.740384
-1.247167 -0.164193 1.887218 0.455226 -0.043494 -0.889313
-0.965926 -0.258819 2.000000 -0.128393 -0.021839 -0.991483
-0.710195 -0.190296 2.095671 0.317186 0.285887 -0.904247
-0.519726 -0.139260 2.191342 0.438482 0.523050 -0.730857
-0.442519 -0.118573 2.285266 0.847753 0.530068 -0.018504
-0.496652 -0.133078 2.372789 0.644327 0.063942 0.762073
-0.665619 -0.178352 2.446200 0.311830 -0.046719 0.948989
-0.902887 -0.241928 2.495722 0.127626 0.023132 0.991553
-1.144450 -0.306654 2.511463 -0.052914 0.052374 0.997225
-1.326012 -0.355304 2.485828 -0.424723 -0.061806 0.903211
-1.400181 -0.375177 2.415792 -0.913625 -0.354817 0.198478
-1.349086 -0.361487 2.304381 -0.714288 -0.366733 -0.596070
-1.189026 -0.318598 2.160934 -0.561837 -0.261684 -0.784768
-0.742826 -0.199040 1.839066 -0.630095 0.022845 -0.776182
-0.582766 -0.156152 1.695619 -0.809599 0.154442 -0.566301
-0.531670 -0.142461 1.584208 -0.975515 -0.003647 0.219901
-0.605840 -0.162334 1.514172 -0.390510 -0.198401 0.898966
-0.787402 -0.210984 1.488537 -0.009014 -0.108279 0.994080
-1.028965 -0.275710 1.504278 0.127470 0.027390 0.991464
-1.266233 -0.339286 1.553800 0.268066 0.130445 0.954529
-1.435199 -0.384561 1.627211 0.610762 0.201154 0.765838
-1.489332 -0.399065 1.714734 0.985294 0.158587 -0.063612
-1.412125 -0.378378 1.808658 0.623593 0.006311 -0.781724
-1.221657 -0.327342 1.904329 0.399773 0.001596 -0.916613
-0.923880 -0.382683 2.000000 -0.184031 -0.063229 -0.980885
-0.674023 -0.279189 2.078150 0.220732 0.303992 -0.926750
-0.486455 -0.201496 2.160720 0.316235 0.563591 -0.763126
-0.407091 -0.168623 2.249215 0.763820 0.640611 -0.078716
-0.453469 -0.187833 2.340216 0.677148 0.161356 0.717938
-0.610298 -0.252794 2.424910 0.373865 0.012547 0.927398
-0.833760 -0.345355 2.490393 0.183460 0.063509 0.980974
-1.063362 -0.440459 2.522455 0.000389 0.071490 0.997441
-1.238198 -0.512878 2.509169 -0.358209 -0.092669 0.929031
-1.313219 -0.543953 2.444305 -0.845156 -0.466021 0.261792
-1.271184 -0.526542 2.329673 -0.693669 -0.472986 -0.543238
-1.127087 -0.466855 2.175696 -0.568636 -0.352837 -0.743074
-0.720672 -0.298512 1.824304 -0.672480 -0.081948 -0.735564
-0.576575 -0.238825 1.670327 -0.854726 0.022511 -0.518590
-0.534540 -0.221414 1.555695 -0.950770 -0.135316 0.278793
-0.609561 -0.252488 1.490831 -0.307359 -0.221272 0.925510
-0.784397 -0.324908 1.477545 0.063726 -0.079682 0.994781
-1.014000 -0.420012 1.509607 0.182291 0.068920 0.980826
-1.237461 -0.512573 1.575090 0.306310 0.186946 0.933395
-1.394290 -0.577534 1.659784 0.624528 0.297418 0.722154
-1.440668 -0.596744 1.750785 0.949743 0.285275 -0.128866
-1.361304 -0.563871 1.839280 0.568629 0.068878 -0.819705
-1.173736 -0.486177 1.921850 0.339820 0.030981 -0.939980
-0.866025 -0.500000 2.000000 -0.229300 -0.118725 -0.966088
-0.627890 -0.362512 2.060295 0.125009 0.301205 -0.945330
-0.447767 -0.258519 2.129410 0.190878 0.579697 -0.792159
-0.368520 -0.212765 2.212097 0.662915 0.735756 -0.138590
-0.406746 -0.234835 2.306186 0.692110 0.266804 0.670671
-0.548643 -0.316759 2.401802 0.423399 0.086080 0.901845
-0.753953 -0.435295 2.482963 0.229197 0.118031 0.966197
-0.966901 -0.558241 2.531211 0.046598 0.105010 0.993379
-1.131190 -0.653093 2.530330 -0.290533 -0.106806 0.950885
-1.205037 -0.695728 2.470916 -0.759833 -0.563642 0.323977
-1.172212 -0.676777 2.353553 -0.653722 -0.578281 -0.488097
-1.046148 -0.603994 2.189705 -0.557946 -0.448571 -0.698198
-0.685903 -0.396006 1.810295 -0.695096 -0.195786 -0.691743
-0.559839 -0.323223 1.646447 -0.875903 -0.116672 -0.468169
-0.527014 -0.304272 1.529084 -0.905296 -0.258528 0.337049
-0.600860 -0.346907 1.469670 -0.224331 -0.225617 0.948036
-0.765150 -0.441759 1.468789 0.127906 -0.034679 0.991180
-0.978097 -0.564705 1.517037 0.226722 0.124366 0.965987
-1.183408 -0.683241 1.598198 0.332039 0.254615 0.908252
-1.325305 -0.765165 1.693814 0.620230 0.399002 0.675361
-1.363530 -0.787235 1.787903 0.894450 0.403109 -0.193553
-1.284284 -0.741481 1.870590 0.506875 0.116123 -0.854162
-1.104161 -0.637488 1.939705 0.278836 0.044337 -0.959315
-0.793353 -0.608761 2.000000 -0.261385 -0.185946 -0.947155
-0.572539 -0.439325 2.042182 0.034136 0.278180 -0.959922
-0.404299 -0.310229 2.097545 0.067183 0.571313 -0.817978
-0.327567 -0.251351 2.174071 0.548158 0.812597 -0.198010
-0.357628 -0.274417 2.270845 0.687745 0.376835 0.620485
-0.482378 -0.370142 2.376972 0.457711 0.171256 0.872452
-0.665846 -0.510921 2.473465 0.262009 0.184388 0.947287
-0.858003 -0.658369 2.537692 0.082704 0.151092 0.985054
-1.008229 -0.773642 2.549220 -0.225214 -0.104566 0.968682
-1.078817 -0.827805 2.495510 -0.660409 -0.644841 0.384759
-1.054900 -0.809454 2.375920 -0.594549 -0.678855 -0.430891
-0.948165 -0.727552 2.202902 -0.528813 -0.545365 -0.650334
-0.638542 -0.489971 1.797098 -0.696446 -0.314759 -0.644896
-0.531806 -0.408069 1.624080 -0.872222 -0.258473 -0.415236
-0.507890 -0.389717 1.504490 -0.841286 -0.369697 0.394412
-0.578477 -0.443881 1.450780 -0.145114 -0.211969 0.966443
-0.728704 -0.559154 1.462308 0.180363 0.024698 0.983290
-0.920861 -0.706601 1.526535 0.257991 0.191351 0.947009
-1.104329 -0.847381 1.623028 0.342971 0.330703 0.879208
-1.229079 -0.943105 1.729155 0.596857 0.502309 0.625658
-1.259140 -0.966172 1.825929 0.821550 0.508731 -0.257389
-1.182408 -0.907294 1.902455 0.441763 0.147381 -0.884943
-1.014167 -0.778198 1.957818 0.220267 0.042053 -0.974533
-0.707107 -0.707107 2.000000 -0.277996 -0.261988 -0.924165
-0.508768 -0.508768 2.023888 -0.047972 0.236359 -0.970481
-0.356578 -0.356578 2.065263 -0.050177 0.539300 -0.840617
-0.284795 -0.284795 2.135299 0.423163 0.868879 -0.256869
-0.307055 -0.307055 2.234345 0.663255 0.487762 0.567610
-0.413098 -0.413098 2.350529 0.474617 0.264972 0.839362
-0.571808 -0.571808 2.461940 0.279575 0.259744 0.924322
-0.739738 -0.739738 2.541870 0.106126 0.207312 0.972502
-0.872814 -0.872814 2.565758 -0.165620 -0.086999 0.982345
-0.938077 -0.938077 2.517982 -0.550130 -0.707343 0.443873
-0.922336 -0.922336 2.396677 -0.516991 -0.770992 -0.371875
-0.835409 -0.835409 2.215230 -0.480997 -0.639543 -0.599689
-0.578804 -0.578804 1.784770 -0.675810 -0.434742 -0.595214
-0.491877 -0.491877 1.603323 -0.843693 -0.398208 -0.360016
-0.476137 -0.476137 1.482018 -0.761580 -0.465771 0.450614
-0.541400 -0.541400 1.434242 -0.073217 -0.181565 0.980649
-0.674475 -0.674475 1.458130 0.218384 0.095836 0.971146
-0.842406 -0.842406 1.538060 0.273848 0.266983 0.923974
-1.001116 -1.001116 1.649471 0.337413 0.412043 0.846388
-1.107158 -1.107158 1.765655 0.554121 0.603592 0.573259
-1.129418 -1.129418 1.864701 0.733763 0.599276 -0.320095
-1.057635 -1.057635 1.934737 0.376753 0.162697 -0.911914
-0.905445 -0.905445 1.976112 0.167391 0.025210 -0.985568
-0.608761 -0.793353 2.000000 -0.277460 -0.343542 -0.897215
-0.437423 -0.570060 2.005492 -0.117762 0.177921 -0.976973
-0.305032 -0.397526 2.032702 -0.156798 0.485403 -0.860115
-0.240577 -0.313526 2.095948 0.291900 0.903071 -0.315053
-0.255757 -0.333308 2.196841 0.618548 0.595783 0.512290
-0.342229 -0.446002 2.322584 0.472551 0.363752 0.802733
-0.474137 -0.617908 2.448436 0.280168 0.340851 0.897400
-0.615220 -0.801770 2.543728 0.114823 0.270761 0.955774
-0.728590 -0.949518 2.579874 -0.114829 -0.055808 0.991816
-0.786559 -1.025063 2.538237 -0.432616 -0.749522 0.501059
-0.777866 -1.013735 2.415735 -0.422611 -0.851165 -0.311315
-0.710414 -0.925829 2.226636 -0.414988 -0.727420 -0.546484
-0.507109 -0.660878 1.773364 -0.633276 -0.551557 -0.542905
-0.439657 -0.572972 1.584265 -0.791225 -0.531317 -0.302761
-0.430964 -0.561644 1.461763 -0.669537 -0.544346 0.505378
-0.488932 -0.637189 1.420126 -0.011839 -0.136308 0.990596
-0.602303 -0.784937 1.456272 0.239809 0.175638 0.954800
-0.743386 -0.968799 1.551564 0.272656 0.347973 0.896980
-0.875294 -1.140705 1.677416 0.314339 0.495176 0.809933
-0.961766 -1.253398 1.803159 0.492477 0.699098 0.518390
-0.976946 -1.273181 1.904052 0.634287 0.672471 -0.381396
-0.912490 -1.189181 1.967298 0.315193 0.162819 -0.934956
-0.780100 -1.016646 1.994508 0.123185 -0.004472 -0.992374
-0.500000 -0.866025 2.000000 -0.258790 -0.427018 -0.866420
-0.359394 -0.622489 1.987072 -0.172175 0.105699 -0.979379
-0.250000 -0.433013 2.000000 -0.248718 0.412170 -0.876502
-0.195105 -0.337932 2.056186 0.158548 0.914417 -0.372429
-0.204247 -0.353766 2.158494 0.554256 0.697118 0.454782
-0.271006 -0.469396 2.293258 0.450627 0.463861 0.762737
-0.375000 -0.649519 2.433013 0.262734 0.424163 0.866635
-0.487512 -0.844396 2.543258 0.107379 0.338159 0.934943
-0.579247 -1.003285 2.591506 -0.075507 -0.013283 0.997057
-0.628118 -1.087932 2.556186 -0.311731 -0.770465 0.556064
-0.625000 -1.082532 2.433013 -0.313649 -0.916178 -0.249484
-0.575901 -0.997489 2.237072 -0.332001 -0.805447 -0.490949
-0.424099 -0.734561 1.762928 -0.569728 -0.661120 -0.488190
-0.375000 -0.649519 1.566987 -0.716572 -0.653541 -0.243739
-0.371882 -0.644119 1.443814 -0.568889 -0.603756 0.558430
-0.420753 -0.728766 1.408494 0.036252 -0.078686 0.996240
-0.512488 -0.887654 1.456742 0.243117 0.260636 0.934325
-0.625000 -1.082532 1.566987 0.253461 0.430758 0.866144
-0.728994 -1.262654 1.706742 0.273429 0.576486 0.770000
-0.795753 -1.378285 1.841506 0.413107 0.785212 0.461286
-0.804895 -1.394119 1.943814 0.526674 0.726713 -0.441025
-0.750000 -1.299038 2.000000 0.260181 0.149156 -0.953970
-0.640606 -1.109561 2.012928 0.090203 -0.044703 -0.994920
-0.382683 -0.923880 2.000000 -0.221729 -0.508687 -0.831910
-0.275623 -0.665412 1.968708 -0.208769 0.023067 -0.977693
-0.191751 -0.462929 1.967298 -0.322554 0.322847 -0.889792
-0.148420 -0.358319 2.016184 0.027350 0.902967 -0.428839
-0.152842 -0.368992 2.119468 0.471731 0.788141 0.395353
-0.200454 -0.483940 2.262676 0.408682 0.561442 0.719557
-0.276380 -0.667240 2.415735 0.226931 0.505980 0.832158
-0.359549 -0.868029 2.540462 0.083067 0.405986 0.910096
-0.428402 -1.034254 2.600606 -0.049798 0.037795 0.998044
-0.466610 -1.126497 2.571754 -0.191446 -0.770000 0.608645
-0.467312 -1.128190 2.448436 -0.192948 -0.963291 -0.186659
-0.434717 -1.049501 2.246493 -0.233935 -0.870347 -0.433326
-0.330649 -0.798258 1.753507 -0.486811 -0.759601 -0.431302
-0.298055 -0.719569 1.551564 -0.622251 -0.761071 -0.183233
-0.298757 -0.721263 1.428246 -0.463580 -0.643124 0.609496
-0.336965 -0.813506 1.399394 0.068829 -0.011687 0.997560
-0.405818 -0.979730 1.459538 0.227488 0.347125 0.909809
-0.488987 -1.180520 1.584265 0.216028 0.511644 0.831596
-0.564912 -1.363819 1.737324 0.215094 0.652344 0.726761
-0.612525 -1.478767 1.880532 0.317883 0.858599 0.402192
-0.616946 -1.489440 1.983816 0.414685 0.761124 -0.498725
-0.573615 -1.384830 2.032702 0.214439 0.123714 -0.968871
-0.489744 -1.182347 2.031292 0.070474 -0.092720 -0.993195
-0.258819 -0.965926 2.000000 -0.166761 -0.584827 -0.793831
-0.187096 -0.698251 1.950477 -0.225809 -0.066186 -0.971921
-0.130517 -0.487095 1.934737 -0.375622 0.221253 -0.899975
-0.100446 -0.374870 1.976112 -0.097541 0.869567 -0.484085
-0.101681 -0.379480 2.079931 0.373008 0.865520 0.334275
-0.131390 -0.490355 2.230970 0.347289 0.652641 0.673387
-0.180040 -0.671917 2.396677 0.173152 0.582582 0.794114
-0.234058 -0.873515 2.535351 0.041887 0.470621 0.881340
-0.279507 -1.043133 2.607134 -0.039238 0.094263 0.994774
-0.305781 -1.141190 2.584873 -0.075693 -0.748706 0.658566
-0.308342 -1.150748 2.461940 -0.063857 -0.990334 -0.123128
-0.289763 -1.081411 2.254858 -0.123314 -0.919249 -0.373864
-0.227875 -0.850441 1.745142 -0.386866 -0.843558 -0.372485
-0.209296 -0.781104 1.538060 -0.511431 -0.850686 -0.121540
-0.211857 -0.790661 1.415127 -0.357606 -0.662377 0.658312
-0.238131 -0.888719 1.392866 0.084294 0.061321 0.994552
-0.283580 -1.058337 1.464649 0.192836 0.431296 0.881361
-0.337599 -1.259935 1.603323 0.160858 0.586946 0.793486
-0.386248 -1.441497 1.769030 0.140461 0.719253 0.680401
-0.415957 -1.552372 1.920069 0.209299 0.916332 0.341364
-0.417192 -1.556982 2.023888 0.302150 0.775576 -0.554245
-0.387121 -1.444757 2.065263 0.180199 0.089006 -0.979595
-0.330542 -1.233601 2.049523 0.065413 -0.145406 -0.987207
-0.130526 -0.991445 2.000000 -0.095102 -0.651866 -0.752347
-0.094855 -0.720497 1.932459 -0.222335 -0.158007 -0.962082
-0.066517 -0.505248 1.902455 -0.406028 0.111633 -0.907017
-0.051031 -0.387621 1.936143 -0.212212 0.815839 -0.537933
-0.050767 -0.385611 2.040051 0.260747 0.926349 0.271825
-0.064428 -0.489378 2.198274 0.267754 0.733756 0.624428
-0.087495 -0.664592 2.375920 0.102517 0.650374 0.752665
-0.113495 -0.862082 2.527947 -0.015425 0.528492 0.848798
-0.135754 -1.031153 2.611061 -0.044691 0.152708 0.987260
-0.149166 -1.133029 2.595488 0.031778 -0.707892 0.705605
-0.151504 -1.150790 2.473465 0.069881 -0.995798 -0.059180
-0.143923 -1.093201 2.262132 -0.003192 -0.949806 -0.312824
-0.117130 -0.889689 1.737868 -0.272841 -0.910065 -0.311993
-0.109548 -0.832100 1.526535 -0.387800 -0.919856 -0.058962
-0.111886 -0.849861 1.404512 -0.254844 -0.662237 0.704625
-0.125298 -0.951736 1.388939 0.081739 0.136713 0.987233
-0.147557 -1.120808 1.472053 0.139817 0.509385 0.849104
-0.173557 -1.318297 1.624080 0.089170 0.653132 0.751975
-0.196625 -1.493512 1.801726 0.051338 0.773984 0.631120
-0.210286 -1.597278 1.959949 0.090383 0.956010 0.279063
-0.210021 -1.595268 2.063857 0.192818 0.770684 -0.607345
-0.194535 -1.477642 2.097545 0.159115 0.047943 -0.986095
-0.166197 -1.262392 2.067541 0.075769 -0.199411 -0.976982
-0.000000 -1.000000 2.000000 -0.008651 -0.706527 -0.707634
-0.000000 -0.731717 1.914730 -0.198199 -0.248231 -0.948208
-0.000000 -0.517037 1.870590 -0.412728 -0.001498 -0.910853
-0.000000 -0.396447 1.896447 -0.313135 0.744121 -0.590111
-0.000000 -0.387628 2.000000 0.138149 0.968263 0.208280
-0.000000 -0.481717 2.164730 0.172086 0.801366 0.572886
-0.000000 -0.646447 2.353553 0.016840 0.706027 0.707985
-0.000000 -0.835270 2.518283 -0.087419 0.576215 0.812609
-0.000000 -1.000000 2.612372 -0.066310 0.209602 0.975536
-0.000000 -1.103553 2.603553 0.127533 -0.649550 0.749547
-0.000000 -1.129410 2.482963 0.204267 -0.978903 0.004891
-0.000000 -1.085270 2.268283 0.122950 -0.960285 -0.250470
-0.000000 -0.914730 1.731717 -0.148178 -0.956817 -0.250088
-0.000000 -0.870590 1.517037 -0.255419 -0.966821 0.004195
-0.000000 -0.896447 1.396447 -0.158906 -0.644169 0.748195
-0.000000 -1.000000 1.387628 0.060987 0.210753 0.975635
-0.000000 -1.164730 1.481717 0.069808 0.577811 0.813180
-0.000000 -1.353553 1.646447 0.002862 0.706965 0.707243
-0.000000 -1.518283 1.835270 -0.049855 0.813710 0.579129
-0.000000 -1.612372 2.000000 -0.035417 0.975849 0.215557
-0.000000 -1.603553 2.103553 0.090214 0.747773 -0.657797
-0.000000 -1.482963 2.129410 0.152196 0.003709 -0.988343
-0.000000 -1.268283 2.085270 0.101585 -0.251298 -0.962564
0.130526 -0.991445 2.000000 0.090074 -0.745951 -0.659882
0.096311 -0.731556 1.897366 -0.154072 -0.332744 -0.930346
0.068727 -0.522030 1.839280 -0.395558 -0.113517 -0.911399
0.052799 -0.401051 1.857194 -0.397297 0.657385 -0.640312
0.050767 -0.385611 1.959949 0.008837 0.989550 0.143917
0.061615 -0.468014 2.130480 0.062934 0.852471 0.518973
0.081459 -0.618741 2.329673 -0.081434 0.746606 0.660264
0.104646 -0.794867 2.506400 -0.171979 0.610740 0.772929
0.125298 -0.951736 2.611061 -0.103524 0.261447 0.959650
0.138861 -1.054756 2.609034 0.208575 -0.576277 0.790190
0.143258 -1.088156 2.490393 0.335187 -0.939637 0.068788
0.139342 -1.058408 2.273286 0.251333 -0.949650 -0.187075
0.121710 -0.924481 1.726714 -0.016681 -0.982211 -0.187040
0.117794 -0.894734 1.509607 -0.118559 -0.990642 0.067622
0.122191 -0.928134 1.390966 -0.072993 -0.610308 0.788794
0.135754 -1.031153 1.388939 0.022596 0.279731 0.959813
0.156406 -1.188023 1.493600 -0.015141 0.633319 0.773743
0.179594 -1.364149 1.670327 -0.095561 0.745623 0.659480
0.199437 -1.514875 1.869520 -0.160169 0.836113 0.524652
0.210286 -1.597278 2.040051 -0.164359 0.974756 0.151120
0.208253 -1.581839 2.142806 -0.002495 0.708819 -0.705386
0.192326 -1.460859 2.160720 0.159761 -0.040376 -0.986330
0.164741 -1.251334 2.102634 0.142199 -0.297682 -0.944015
0.258819 -0.965926 2.000000 0.198034 -0.767816 -0.609295
0.192857 -0.719752 1.880441 -0.091414 -0.407642 -0.908555
0.139260 -0.519726 1.808658 -0.355239 -0.219865 -0.908551
0.107443 -0.400981 1.818553 -0.462322 0.559130 -0.688209
0.101681 -0.379480 1.920069 -0.123269 0.989223 0.079007
0.120260 -0.448817 2.095671 -0.056489 0.884607 0.462903
0.156152 -0.582766 2.304381 -0.189311 0.769691 0.609702
0.199040 -0.742826 2.492348 -0.266392 0.629474 0.729930
0.238131 -0.888719 2.607134 -0.155062 0.304916 0.939671
0.265002 -0.989000 2.611906 0.272455 -0.491190 0.827345
0.275710 -1.028965 2.495722 0.458561 -0.878773 0.132213
0.271637 -1.013761 2.277118 0.378023 -0.917601 -0.122914
0.246002 -0.918090 1.722882 0.117623 -0.985396 -0.123123
0.241928 -0.902887 1.504278 0.018457 -0.991209 0.131010
0.252636 -0.942852 1.388094 0.000222 -0.563357 0.826214
0.279507 -1.043133 1.392866 -0.032150 0.340111 0.939836
0.318598 -1.189026 1.507652 -0.112380 0.673097 0.730966
0.361487 -1.349086 1.695619 -0.203077 0.766818 0.608892
0.397378 -1.483035 1.904329 -0.276241 0.839487 0.467923
0.415957 -1.552372 2.079931 -0.292549 0.952373 0.086030
0.410195 -1.530870 2.181447 -0.082620 0.656363 -0.749907
0.378378 -1.412125 2.191342 0.181430 -0.080993 -0.980063
0.324781 -1.212100 2.119559 0.196266 -0.335371 -0.921415
0.382683 -0.923880 2.000000 0.311777 -0.770427 -0.556091
0.288355 -0.696150 1.864029 -0.012418 -0.469378 -0.882910
0.211074 -0.509578 1.778856 -0.293343 -0.316203 -0.902200
0.163883 -0.395648 1.780689 -0.506558 0.453245 -0.733463
0.152842 -0.368992 1.880532 -0.254114 0.967075 0.013821
0.175858 -0.424558 2.060452 -0.182523 0.895960 0.404897
0.223589 -0.539791 2.277785 -0.303357 0.773476 0.556515
0.282162 -0.681198 2.476187 -0.367454 0.630395 0.683798
0.336965 -0.813506 2.600606 -0.218993 0.336993 0.915684
0.376490 -0.908928 2.612159 0.317357 -0.397805 0.860834
0.395198 -0.954092 2.498929 0.570495 -0.797848 0.194869
0.394659 -0.952790 2.279763 0.499070 -0.864600 -0.058268
0.370708 -0.894969 1.720237 0.250637 -0.966305 -0.058617
0.370169 -0.893667 1.501071 0.151416 -0.969235 0.194054
0.388877 -0.938831 1.387841 0.058696 -0.506461 0.860263
0.428402 -1.034254 1.399394 -0.101297 0.388668 0.915793
0.483205 -1.166561 1.523813 -0.218758 0.694891 0.685034
0.541778 -1.307968 1.722215 -0.316262 0.768883 0.555694
0.589509 -1.423201 1.939548 -0.394417 0.822801 0.409186
0.612525 -1.478767 2.119468 -0.416083 0.909094 0.020568
0.601484 -1.452111 2.219311 -0.148049 0.593402 -0.791173
0.554293 -1.338181 2.221144 0.216133 -0.114973 -0.969571
0.477012 -1.151609 2.135971 0.261804 -0.361497 -0.894862
0.500000 -0.866025 2.000000 0.427574 -0.752784 -0.500497
0.381464 -0.660715 1.848198 0.080074 -0.514899 -0.853503
0.283494 -0.491025 1.750000 -0.212238 -0.398577 -0.892240
0.221907 -0.384354 1.743764 -0.529146 0.343857 -0.775736
0.204247 -0.353766 1.841506 -0.379663 0.923698 -0.051372
0.228371 -0.395550 2.024975 -0.311185 0.885447 0.345178
0.283494 -0.491025 2.250000 -0.419821 0.756850 0.500928
0.353371 -0.612056 2.457988 -0.471585 0.612144 0.634734
0.420753 -0.728766 2.591506 -0.292801 0.355096 0.887792
0.471907 -0.817367 2.609789 0.342161 -0.299915 0.890493
0.500000 -0.866025 2.500000 0.667425 -0.699123 0.256459
0.506464 -0.877221 2.281211 0.610663 -0.791863 0.006581
0.493536 -0.854829 1.718789 0.378344 -0.925644 0.006197
0.500000 -0.866025 1.500000 0.276371 -0.926203 0.256451
0.528093 -0.914684 1.390211 0.101081 -0.443077 0.890767
0.579247 -1.003285 1.408494 -0.182288 0.422611 0.887790
0.646629 -1.119994 1.542012 -0.330737 0.697088 0.636146
0.716506 -1.241025 1.750000 -0.431419 0.750840 0.500116
0.771629 -1.336501 1.975025 -0.510890 0.785751 0.348692
0.795753 -1.378285 2.158494 -0.531196 0.846054 -0.044984
0.778093 -1.347697 2.256236 -0.197324 0.523267 -0.829009
0.716506 -1.241025 2.250000 0.262159 -0.139428 -0.954899
0.618536 -1.071336 2.151802 0.336279 -0.373640 -0.864471
0.608761 -0.793353 2.000000 0.541553 -0.714627 -0.442751
0.470794 -0.613551 1.833018 0.182681 -0.541762 -0.820440
0.355678 -0.463529 1.722215 -0.114998 -0.463555 -0.878574
0.281104 -0.366341 1.707936 -0.530044 0.235169 -0.814708
0.255757 -0.333308 1.803159 -0.496064 0.860461 -0.116307
0.277761 -0.361985 1.989391 -0.438323 0.852777 0.283978
0.335771 -0.437585 2.221144 -0.534780 0.719448 0.443175
0.412385 -0.537430 2.437827 -0.574966 0.574090 0.582953
0.488932 -0.637189 2.579874 -0.373480 0.357187 0.856114
0.550352 -0.717233 2.604809 0.346484 -0.201450 0.916170
0.588854 -0.767409 2.498929 0.746248 -0.585510 0.316691
0.605418 -0.788996 2.281455 0.709269 -0.701317 0.071350
0.612105 -0.797710 1.718545 0.496952 -0.864866 0.071036
0.628669 -0.819297 1.501071 0.389776 -0.864298 0.317906
0.667171 -0.869474 1.395191 0.126770 -0.376822 0.917570
0.728590 -0.949518 1.420126 -0.272058 0.439699 0.855949
0.805138 -1.049277 1.562173 -0.444522 0.678781 0.584514
0.881752 -1.149122 1.778856 -0.544713 0.712443 0.442394
0.939762 -1.224722 2.010609 -0.621844 0.728773 0.286703
0.961766 -1.253398 2.196841 -0.634400 0.765089 -0.110343
0.936419 -1.220365 2.292064 -0.229689 0.449483 -0.863254
0.861845 -1.123178 2.277785 0.317217 -0.151875 -0.936113
0.746729 -0.973156 2.166982 0.416695 -0.369928 -0.830372
0.707107 -0.707107 2.000000 0.649853 -0.656449 -0.383101
0.554916 -0.554916 1.818553 0.291613 -0.548223 -0.783845
0.426614 -0.426614 1.695619 -0.005286 -0.508355 -0.861131
0.340838 -0.340838 1.673359 -0.510023 0.131296 -0.850081
0.307055 -0.307055 1.765655 -0.599810 0.779466 -0.180721
0.323947 -0.323947 1.953852 -0.559778 0.798481 0.221534
0.380466 -0.380466 2.191342 -0.644285 0.661680 0.383504
0.459246 -0.459246 2.415792 -0.673687 0.516372 0.528683
0.541400 -0.541400 2.565758 -0.457646 0.341866 0.820785
0.611436 -0.611436 2.597239 0.330692 -0.106342 0.937728
0.660959 -0.660959 2.495722 0.804447 -0.460472 0.375274
0.690215 -0.690215 2.280493 0.791770 -0.595542 0.135757
0.723998 -0.723998 1.719507 0.603035 -0.786102 0.135617
0.753255 -0.753255 1.504278 0.488612 -0.786306 0.378129
0.802778 -0.802778 1.402761 0.135905 -0.311319 0.940537
0.872814 -0.872814 1.434242 -0.367152 0.438323 0.820410
0.954968 -0.954968 1.584208 -0.556205 0.639808 0.530360
1.033748 -1.033748 1.808658 -0.652318 0.654188 0.382777
1.090267 -1.090267 2.046148 -0.723601 0.653036 0.223484
1.107158 -1.107158 2.234345 -0.722620 0.668667 -0.175228
1.073376 -1.073376 2.326641 -0.245117 0.375628 -0.893768
0.987600 -0.987600 2.304381 0.378534 -0.150349 -0.913295
0.859297 -0.859297 2.181447 0.499717 -0.349124 -0.792714
0.793353 -0.608761 2.000000 0.748762 -0.579481 -0.321802
0.632381 -0.485243 1.804865 0.402813 -0.533306 -0.743859
0.495116 -0.379916 1.670327 0.112780 -0.530948 -0.839866
0.400239 -0.307114 1.640181 -0.470626 0.036109 -0.881594
0.357628 -0.274417 1.729155 -0.687880 0.683457 -0.244350
0.366774 -0.281435 1.918511 -0.671549 0.723899 0.158092
0.417728 -0.320534 2.160720 -0.744517 0.584723 0.322170
0.494281 -0.379275 2.391976 -0.763901 0.439906 0.472163
0.578477 -0.443881 2.549220 -0.541677 0.308430 0.781957
0.655254 -0.502794 2.587111 0.295887 -0.018378 0.955046
0.715966 -0.549380 2.490393 0.840185 -0.327913 0.431929
0.759888 -0.583083 2.278330 0.855580 -0.477677 0.199520
0.826818 -0.634440 1.721670 0.693656 -0.692083 0.199657
0.870741 -0.668143 1.509607 0.570484 -0.695499 0.436839
0.931453 -0.714729 1.412889 0.129361 -0.250055 0.959551
1.008229 -0.773642 1.450780 -0.463854 0.417575 0.781326
1.092426 -0.838248 1.608024 -0.661909 0.580756 0.473919
1.168978 -0.896989 1.839280 -0.750563 0.577305 0.321520
1.219933 -0.936088 2.081489 -0.812757 0.560400 0.159308
1.229079 -0.943105 2.270845 -0.793303 0.559802 -0.239358
1.186468 -0.910409 2.359819 -0.244303 0.305188 -0.920422
1.091591 -0.837607 2.329673 0.442966 -0.133491 -0.886544
0.954326 -0.732280 2.195135 0.581797 -0.310677 -0.751659
0.866025 -0.500000 2.000000 0.834866 -0.485649 -0.259120
0.701736 -0.405148 1.792012 0.512116 -0.496831 -0.700640
0.559839 -0.323223 1.646447 0.234783 -0.530122 -0.814769
0.458200 -0.264542 1.608543 -0.414096 -0.046913 -0.909023
0.406746 -0.234835 1.693814 -0.757858 0.575711 -0.306933
0.405983 -0.234394 1.883519 -0.769963 0.631141 0.093907
0.447767 -0.258519 2.129410 -0.831936 0.490485 0.259436
0.518055 -0.299099 2.366481 -0.841978 0.346369 0.413644
0.600860 -0.346907 2.530330 -0.621845 0.256920 0.739798
0.682344 -0.393952 2.574469 0.243865 0.058929 0.968017
0.753953 -0.435295 2.482963 0.852384 -0.192035 0.486379
0.813808 -0.469852 2.274975 0.898748 -0.351311 0.262361
0.918243 -0.530148 1.725025 0.766464 -0.586028 0.262878
0.978097 -0.564705 1.517037 0.633702 -0.595499 0.493764
1.049707 -0.606048 1.425531 0.108699 -0.196231 0.974514
1.131190 -0.653093 1.469670 -0.558326 0.377287 0.738869
1.213996 -0.700901 1.633519 -0.757931 0.502946 0.415434
1.284284 -0.741481 1.870590 -0.836066 0.483706 0.258885
1.326068 -0.765606 2.116481 -0.886314 0.453351 0.094449
1.325305 -0.765165 2.306186 -0.844519 0.441936 -0.302456
1.273851 -0.735458 2.391457 -0.228625 0.241411 -0.943107
1.172212 -0.676777 2.353553 0.507124 -0.100611 -0.855981
1.030315 -0.594852 2.207988 0.659320 -0.254760 -0.707386
0.923880 -0.382683 2.000000 0.905174 -0.377505 -0.195322
0.761558 -0.315448 1.780050 0.615399 -0.439428 -0.654360
0.619301 -0.256523 1.624080 0.356172 -0.505528 -0.785864
0.513395 -0.212655 1.578582 -0.343282 -0.114799 -0.932190
0.453469 -0.187833 1.659784 -0.808031 0.459899 -0.368210
0.441194 -0.182748 1.849025 -0.851827 0.523006 0.029240
0.470816 -0.195018 2.097545 -0.903426 0.381539 0.195573
0.531314 -0.220077 2.339418 -0.904658 0.238143 0.353387
0.609561 -0.252488 2.509169 -0.694476 0.188121 0.694488
0.693635 -0.287313 2.559367 0.177057 0.122466 0.976552
0.775394 -0.321179 2.473465 0.840770 -0.057195 0.538363
0.851678 -0.352777 2.270443 0.920036 -0.220351 0.324006
0.996081 -0.412590 1.729557 0.819783 -0.471518 0.325003
1.072365 -0.444188 1.526535 0.677320 -0.490133 0.548642
1.154124 -0.478054 1.440633 0.076087 -0.152639 0.985349
1.238198 -0.512878 1.490831 -0.646758 0.318040 0.693221
1.316445 -0.545290 1.660582 -0.840883 0.408385 0.355158
1.376943 -0.570349 1.902455 -0.905870 0.375925 0.195141
1.406565 -0.582618 2.150975 -0.941796 0.334916 0.029187
1.394290 -0.577534 2.340216 -0.875030 0.318816 -0.364250
1.334364 -0.552712 2.421418 -0.200087 0.187181 -0.961732
1.228458 -0.508844 2.375920 0.567512 -0.051729 -0.821739
1.086201 -0.449919 2.219950 0.728744 -0.182266 -0.660085
0.965926 -0.258819 2.000000 0.957230 -0.258133 -0.130684
0.810476 -0.217166 1.769030 0.708741 -0.362501 -0.605210
0.671917 -0.180040 1.603323 0.472430 -0.457687 -0.753215
0.564302 -0.151204 1.550426 -0.261523 -0.165192 -0.950956
0.496652 -0.133078 1.627211 -0.837450 0.339936 -0.427925
0.471891 -0.126443 1.815178 -0.914563 0.402871 -0.035636
0.487095 -0.130517 2.065263 -0.956421 0.261028 0.130858
0.534930 -0.143334 2.310901 -0.949186 0.118237 0.291661
0.605840 -0.162334 2.485828 -0.756090 0.103555 0.646223
0.690380 -0.184987 2.541870 0.098441 0.169634 0.980578
0.781104 -0.209296 2.461940 0.805896 0.072250 0.587632
0.873515 -0.234058 2.264753 0.918966 -0.088885 0.384188
1.058337 -0.283580 1.735247 0.852660 -0.352363 0.385762
1.150748 -0.308342 1.538060 0.701162 -0.383283 0.601221
1.241471 -0.332651 1.458130 0.034211 -0.121546 0.991996
1.326012 -0.355304 1.514172 -0.725510 0.241146 0.644580
1.396921 -0.374304 1.689099 -0.907817 0.299689 0.293350
1.444757 -0.387121 1.934737 -0.957546 0.257019 0.130560
1.459961 -0.391195 2.184822 -0.977343 0.208544 -0.036197
1.435199 -0.384561 2.372789 -0.884335 0.194353 -0.424473
1.367550 -0.366434 2.449574 -0.161231 0.144898 -0.976222
1.259935 -0.337599 2.396677 0.620675 0.012412 -0.783970
1.121376 -0.300472 2.230970 0.786741 -0.094789 -0.609962
0.991445 -0.130526 2.000000 0.965546 -0.241514 -0.096916
0.847206 -0.111537 1.758999 0.776576 -0.143170 -0.613541
0.716036 -0.094268 1.584265 0.540224 -0.084583 -0.837260
0.609245 -0.080209 1.524194 -0.317385 0.260383 -0.911848
0.534978 -0.070431 1.596235 -0.756084 0.553550 -0.349170
0.497428 -0.065488 1.782123 -0.841915 0.537645 -0.046011
0.496784 -0.065403 2.032702 -0.904286 0.413128 0.107665
0.529850 -0.069756 2.281052 -0.904888 0.315039 0.286231
0.591134 -0.077824 2.460406 -0.632756 0.368837 0.680867
0.674088 -0.088745 2.522053 0.354032 0.424377 0.833406
0.772192 -0.101661 2.448436 0.833114 0.063381 0.549458
0.879628 -0.115805 2.257929 0.898962 -0.198088 0.390677
1.103262 -0.145247 1.742071 0.844205 -0.311764 0.436030
1.210697 -0.159391 1.551564 0.574568 -0.524696 0.628145
1.308801 -0.172307 1.477947 -0.326881 -0.402655 0.854996
1.391756 -0.183228 1.539594 -0.867011 -0.119090 0.483848
1.453040 -0.191296 1.718948 -0.974236 -0.096980 0.203614
1.486106 -0.195650 1.967298 -0.987554 -0.145677 0.059286
1.485462 -0.195565 2.217877 -0.976570 -0.188098 -0.104545
1.447912 -0.190621 2.403765 -0.832452 -0.195919 -0.518305
1.373645 -0.180844 2.475806 0.057869 -0.255314 -0.965125
1.266853 -0.166784 2.415735 0.681098 -0.207296 -0.702235
1.135683 -0.149516 2.241001 0.794076 -0.233300 -0.561261
3 0 1 24
3 1 25 24
3 1 2 25
3 2 26 25
3 2 3 26
3 3 27 26
3 3 4 27
3 4 28 27
3 4 5 28
3 5 29 28
3 5 6 29
3 6 30 29
3 6 7 30
3 7 31 30
3 7 8 31
3 8 32 31
3 8 9 32
3 9 33 32
3 9 10 33
3 10 34 33
3 10 11 34
3 11 35 34
3 11 12 35
3 12 36 35
3 12 13 36
3 13 37 36
3 13 14 37
3 14 38 37
3 14 15 38
3 15 39 38
3 15 16 39
3 16 40 39
3 16 17 40
3 17 41 40
3 17 18 41
3 18 42 41
3 18 19 42
3 19 43 42
3 19 20 43
3 20 44 43
3 20 21 44
3 21 45 44
3 21 22 45
3 22 46 45
3 22 23 46
3 23 47 46
3 23 0 47
3 0 24 47
3 24 25 48
3 25 49 48
3 25 26 49
3 26 50 49
3 26 27 50
3 27 51 50
3 27 28 51
3 28 52 51
3 28 29 52
3 29 53 52
3 29 30 53
3 30 54 53
3 30 31 54
3 31 55 54
3 31 32 55
3 32 56 55
3 32 33 56
3 33 57 56
3 33 34 57
3 34 58 57
3 34 35 58
3 35 59 58
3 35 36 59
3 36 60 59
3 36 37 60
3 37 61 60
3 37 38 61
3 38 62 61
3 38 39 62
3 39 63 62
3 39 40 63
3 40 64 63
3 40 41 64
3 41 65 64
3 41 42 65
3 42 66 65
3 42 43 66
3 43 67 66
3 43 44 67
3 44 68 67
3 44 45 68
3 45 69 68
3 45 46 69
3 46 70 69
3 46 47 70
3 47 71 70
3 47 24 71
3 24 48 71
3 48 49 72
3 49 73 72
3 49 50 73
3 50 74 73
3 50 51 74
3 51 75 74
3 51 52 75
3 52 76 75
3 52 53 76
3 53 77 76
3 53 54 77
3 54 78 77
3 54 55 78
3 55 79 78
3 55 56 79
3 56 80 79
3 56 57 80
3 57 81 80
3 57 58 81
3 58 82 81
3 58 59 82
3 59 83 82
3 59 60 83
3 60 72 83
3 60 61 72
3 61 84 72
3 61 62 84
3 62 85 84
3 62 63 85
3 63 86 85
3 63 64 86
3 64 87 86
3 64 65 87
3 65 88 87
3 65 66 88
3 66 89 88
3 66 67 89
3 67 90 89
3 67 68 90
3 68 91 90
3 68 69 91
3 69 92 91
3 69 70 92
3 70 93 92
3 70 71 93
3 71 94 93
3 71 48 94
3 48 72 94
3 72 73 95
3 73 96 95
3 73 74 96
3 74 97 96
3 74 75 97
3 75 98 97
3 75 76 98
3 76 99 98
3 76 77 99
3 77 100 99
3 77 78 100
3 78 101 100
3 78 79 101
3 79 102 101
3 79 80 102
3 80 103 102
3 80 81 103
3 81 104 103
3 81 82 104
3 82 105 104
3 82 83 105
3 83 106 105
3 83 72 106
3 72 95 106
3 72 84 95
3 84 107 95
3 84 85 107
3 85 108 107
3 85 86 108
3 86 109 108
3 86 87 109
3 87 110 109
3 87 88 110
3 88 111 110
3 88 89 111
3 89 112 111
3 89 90 112
3 90 113 112
3 90 91 113
3 91 114 113
3 91 92 114
3 92 115 114
3 92 93 115
3 93 116 115
3 93 94 116
3 94 117 116
3 94 72 117
3 72 95 117
3 95 96 118
3 96 119 118
3 96 97 119
3 97 120 119
3 97 98 120
3 98 121 120
3 98 99 121
3 99 122 121
3 99 100 122
3 100 123 122
3 100 101 123
3 101 124 123
3 101 102 124
3 102 125 124
3 102 103 125
3 103 126 125
3 103 104 126
3 104 127 126
3 104 105 127
3 105 128 127
3 105 106 128
3 106 129 128
3 106 95 129
3 95 118 129
3 95 107 118
3 107 130 118
3 107 108 130
3 108 131 130
3 108 109 131
3 109 132 131
3 109 110 132
3 110 133 132
3 110 111 133
3 111 134 133
3 111 112 134
3 112 135 134
3 112 113 135
3 113 136 135
3 113 114 136
3 114 137 136
3 114 115 137
3 115 138 137
3 115 116 138
3 116 139 138
3 116 117 139
3 117 140 139
3 117 95 140
3 95 118 140
3 118 119 141
3 119 142 141
3 119 120 142
3 120 143 142
3 120 121 143
3 121 144 143
3 121 122 144
3 122 145 144
3 122 123 145
3 123 146 145
3 123 124 146
3 124 147 146
3 124 125 147
3 125 148 147
3 125 126 148
3 126 149 148
3 126 127 149
3 127 150 149
3 127 128 150
3 128 151 150
3 128 129 151
3 129 152 151
3 129 118 152
3 118 141 152
3 118 130 141
3 130 153 141
3 130 131 153
3 131 154 153
3 131 132 154
3 132 155 154
3 132 133 155
3 133 156 155
3 133 134 156
3 134 157 156
3 134 135 157
3 135 158 157
3 135 136 158
3 136 159 158
3 136 137 159
3 137 160 159
3 137 138 160
3 138 161 160
3 138 139 161
3 139 162 161
3 139 140 162
3 140 163 162
3 140 118 163
3 118 141 163
3 141 142 164
3 142 165 164
3 142 143 165
3 143 166 165
3 143 144 166
3 144 167 166
3 144 145 167
3 145 168 167
3 145 146 168
3 146 169 168
3 146 147 169
3 147 170 169
3 147 148 170
3 148 171 170
3 148 149 171
3 149 172 171
3 149 150 172
3 150 173 172
3 150 151 173
3 151 174 173
3 151 152 174
3 152 175 174
3 152 141 175
3 141 164 175
3 141 153 164
3 153 176 164
3 153 154 176
3 154 177 176
3 154 155 177
3 155 178 177
3 155 156 178
3 156 179 178
3 156 157 179
3 157 180 179
3 157 158 180
3 158 181 180
3 158 159 181
3 159 182 181
3 159 160 182
3 160 183 182
3 160 161 183
3 161 184 183
3 161 162 184
3 162 185 184
3 162 163 185
3 163 186 185
3 163 141 186
3 141 164 186
3 164 165 187
3 165 188 187
3 165 166 188
3 166 189 188
3 166 167 189
3 167 190 189
3 167 168 190
3 168 191 190
3 168 169 191
3 169 192 191
3 169 170 192
3 170 193 192
3 170 171 193
3 171 194 193
3 171 172 194
3 172 195 194
3 172 173 195
3 173 196 195
3 173 174 196
3 174 197 196
3 174 175 197
3 175 198 197
3 175 164 198
3 164 187 198
3 164 176 187
3 176 199 187
3 176 177 199
3 177 200 199
3 177 178 200
3 178 201 200
3 178 179 201
3 179 202 201
3 179 180 202
3 180 203 202
3 180 181 203
3 181 204 203
3 181 182 204
3 182 205 204
3 182 183 205
3 183 206 205
3 183 184 206
3 184 207 206
3 184 185 207
3 185 208 207
3 185 186 208
3 186 209 208
3 186 164 209
3 164 187 209
3 187 188 210
3 188 211 210
3 188 189 211
3 189 212 211
3 189 190 212
3 190 213 212
3 190 191 213
3 191 214 213
3 191 192 214
3 192 215 214
3 192 193 215
3 193 216 215
3 193 194 216
3 194 217 216
3 194 195 217
3 195 218 217
3 195 196 218
3 196 219 218
3 196 197 219
3 197 220 219
3 197 198 220
3 198 221 220
3 198 187 221
3 187 210 221
3 187 199 210
3 199 222 210
3 199 200 222
3 200 223 222
3 200 201 223
3 201 224 223
3 201 202 224
3 202 225 224
3 202 203 225
3 203 226 225
3 203 204 226
3 204 227 226
3 204 205 227
3 205 228 227
3 205 206 228
3 206 229 228
3 206 207 229
3 207 230 229
3 207 208 230
3 208 231 230
3 208 209 231
3 209 232 231
3 209 187 232
3 187 210 232
3 210 211 233
3 211 234 233
3 211 212 234
3 212 235 234
3 212 213 235
3 213 236 235
3 213 214 236
3 214 237 236
3 214 215 237
3 215 238 237
3 215 216 238
3 216 239 238
3 216 217 239
3 217 240 239
3 217 218 240
3 218 241 240
3 218 219 241
3 219 242 241
3 219 220 242
3 220 243 242
3 220 221 243
3 221 244 243
3 221 210 244
3 210 233 244
3 210 222 233
3 222 245 233
3 222 223 245
3 223 246 245
3 223 224 246
3 224 247 246
3 224 225 247
3 225 248 247
3 225 226 248
3 226 249 248
3 226 227 249
3 227 250 249
3 227 228 250
3 228 251 250
3 228 229 251
3 229 252 251
3 229 230 252
3 230 253 252
3 230 231 253
3 231 254 253
3 231 232 254
3 232 255 254
3 232 210 255
3 210 233 255
3 233 234 256
3 234 257 256
3 234 235 257
3 235 258 257
3 235 236 258
3 236 259 258
3 236 237 259
3 237 260 259
3 237 238 260
3 238 261 260
3 238 239 261
3 239 262 261
3 239 240 262
3 240 263 262
3 240 241 263
3 241 264 263
3 241 242 264
3 242 265 264
3 242 243 265
3 243 266 265
3 243 244 266
3 244 267 266
3 244 233 267
3 233 256 267
3 233 245 256
3 245 268 256
3 245 246 268
3 246 269 268
3 246 247 269
3 247 270 269
3 247 248 270
3 248 271 270
3 248 249 271
3 249 272 271
3 249 250 272
3 250 273 272
3 250 251 273
3 251 274 273
3 251 252 274
3 252 275 274
3 252 253 275
3 253 276 275
3 253 254 276
3 254 277 276
3 254 255 277
3 255 278 277
3 255 233 278
3 233 256 278
3 256 257 279
3 257 280 279
3 257 258 280
3 258 281 280
3 258 259 281
3 259 282 281
3 259 260 282
3 260 283 282
3 260 261 283
3 261 284 283
3 261 262 284
3 262 285 284
3 262 263 285
3 263 286 285
3 263 264 286
3 264 287 286
3 264 265 287
3 265 288 287
3 265 266 288
3 266 289 288
3 266 267 289
3 267 290 289
3 267 256 290
3 256 279 290
3 256 268 279
3 268 291 279
3 268 269 291
3 269 292 291
3 269 270 292
3 270 293 292
3 270 271 293
3 271 294 293
3 271 272 294
3 272 295 294
3 272 273 295
3 273 296 295
3 273 274 296
3 274 297 296
3 274 275 297
3 275 298 297
3 275 276 298
3 276 299 298
3 276 277 299
3 277 300 299
3 277 278 300
3 278 301 300
3 278 256 301
3 256 279 301
3 279 280 302
3 280 303 302
3 280 281 303
3 281 304 303
3 281 282 304
3 282 305 304
3 282 283 305
3 283 306 305
3 283 284 306
3 284 307 306
3 284 285 307
3 285 308 307
3 285 286 308
3 286 309 308
3 286 287 309
3 287 310 309
3 287 288 310
3 288 311 310
3 288 289 311
3 289 312 311
3 289 290 312
3 290 313 312
3 290 279 313
3 279 302 313
3 279 291 302
3 291 314 302
3 291 292 314
3 292 315 314
3 292 293 315
3 293 316 315
3 293 294 316
3 294 317 316
3 294 295 317
3 295 318 317
3 295 296 318
3 296 319 318
3 296 297 319
3 297 320 319
3 297 298 320
3 298 321 320
3 298 299 321
3 299 322 321
3 299 300 322
3 300 323 322
3 300 301 323
3 301 324 323
3 301 279 324
3 279 302 324
3 302 303 325
3 303 326 325
3 303 304 326
3 304 327 326
3 304 305 327
3 305 328 327
3 305 306 328
3 306 329 328
3 306 307 329
3 307 330 329
3 307 308 330
3 308 331 330
3 308 309 331
3 309 332 331
3 309 310 332
3 310 333 332
3 310 311 333
3 311 334 333
3 311 312 334
3 312 335 334
3 312 313 335
3 313 336 335
3 313 302 336
3 302 325 336
3 302 314 325
3 314 337 325
3 314 315 337
3 315 338 337
3 315 316 338
3 316 339 338
3 316 317 339
3 317 340 339
3 317 318 340
3 318 341 340
3 318 319 341
3 319 342 341
3 319 320 342
3 320 343 342
3 320 321 343
3 321 344 343
3 321 322 344
3 322 345 344
3 322 323 345
3 323 346 345
3 323 324 346
3 324 347 346
3 324 302 347
3 302 325 347
3 325 326 348
3 326 349 348
3 326 327 349
3 327 350 349
3 327 328 350
3 328 351 350
3 328 329 351
3 329 352 351
3 329 330 352
3 330 353 352
3 330 331 353
3 331 354 353
3 331 332 354
3 332 355 354
3 332 333 355
3 333 356 355
3 333 334 356
3 334 357 356
3 334 335 357
3 335 358 357
3 335 336 358
3 336 359 358
3 336 325 359
3 325 348 359
3 325 337 348
3 337 360 348
3 337 338 360
3 338 361 360
3 338 339 361
3 339 362 361
3 339 340 362
3 340 363 362
3 340 341 363
3 341 364 363
3 341 342 364
3 342 365 364
3 342 343 365
3 343 366 365
3 343 344 366
3 344 367 366
3 344 345 367
3 345 368 367
3 345 346 368
3 346 369 368
3 346 347 369
3 347 370 369
3 347 325 370
3 325 348 370
3 348 349 371
3 349 372 371
3 349 350 372
3 350 373 372
3 350 351 373
3 351 374 373
3 351 352 374
3 352 375 374
3 352 353 375
3 353 376 375
3 353 354 376
3 354 377 376
3 354 355 377
3 355 378 377
3 355 356 378
3 356 379 378
3 356 357 379
3 357 380 379
3 357 358 380
3 358 381 380
3 358 359 381
3 359 382 381
3 359 348 382
3 348 371 382
3 348 360 371
3 360 383 371
3 360 361 383
3 361 384 383
3 361 362 384
3 362 385 384
3 362 363 385
3 363 386 385
3 363 364 386
3 364 387 386
3 364 365 387
3 365 388 387
3 365 366 388
3 366 389 388
3 366 367 389
3 367 390 389
3 367 368 390
3 368 391 390
3 368 369 391
3 369 392 391
3 369 370 392
3 370 393 392
3 370 348 393
3 348 371 393
3 371 372 394
3 372 395 394
3 372 373 395
3 373 396 395
3 373 374 396
3 374 397 396
3 374 375 397
3 375 398 397
3 375 376 398
3 376 399 398
3 376 377 399
3 377 400 399
3 377 378 400
3 378 401 400
3 378 379 401
3 379 402 401
3 379 380 402
3 380 403 402
3 380 381 403
3 381 404 403
3 381 382 404
3 382 405 404
3 382 371 405
3 371 394 405
3 371 383 394
3 383 406 394
3 383 384 406
3 384 407 406
3 384 385 407
3 385 408 407
3 385 386 408
3 386 409 408
3 386 387 409
3 387 410 409
3 387 388 410
3 388 411 410
3 388 389 411
3 389 412 411
3 389 390 412
3 390 413 412
3 390 391 413
3 391 414 413
3 391 392 414
3 392 415 414
3 392 393 415
3 393 416 415
3 393 371 416
3 371 394 416
3 394 395 417
3 395 418 417
3 395 396 418
3 396 419 418
3 396 397 419
3 397 420 419
3 397 398 420
3 398 421 420
3 398 399 421
3 399 422 421
3 399 400 422
3 400 423 422
3 400 401 423
3 401 424 423
3 401 402 424
3 402 425 424
3 402 403 425
3 403 426 425
3 403 404 426
3 404 427 426
3 404 405 427
3 405 428 427
3 405 394 428
3 394 417 428
3 394 406 417
3 406 429 417
3 406 407 429
3 407 430 429
3 407 408 430
3 408 431 430
3 408 409 431
3 409 432 431
3 409 410 432
3 410 433 432
3 410 411 433
3 411 434 433
3 411 412 434
3 412 435 434
3 412 413 435
3 413 436 435
3 413 414 436
3 414 437 436
3 414 415 437
3 415 438 437
3 415 416 438
3 416 439 438
3 416 394 439
3 394 417 439
3 417 418 440
3 418 441 440
3 418 419 441
3 419 442 441
3 419 420 442
3 420 443 442
3 420 421 443
3 421 444 443
3 421 422 444
3 422 445 444
3 422 423 445
3 423 446 445
3 423 424 446
3 424 447 446
3 424 425 447
3 425 448 447
3 425 426 448
3 426 449 448
3 426 427 449
3 427 450 449
3 427 428 450
3 428 451 450
3 428 417 451
3 417 440 451
3 417 429 440
3 429 452 440
3 429 430 452
3 430 453 452
3 430 431 453
3 431 454 453
3 431 432 454
3 432 455 454
3 432 433 455
3 433 456 455
3 433 434 456
3 434 457 456
3 434 435 457
3 435 458 457
3 435 436 458
3 436 459 458
3 436 437 459
3 437 460 459
3 437 438 460
3 438 461 460
3 438 439 461
3 439 462 461
3 439 417 462
3 417 440 462
3 440 441 463
3 441 464 463
3 441 442 464
3 442 465 464
3 442 443 465
3 443 466 465
3 443 444 466
3 444 467 466
3 444 445 467
3 445 468 467
3 445 446 468
3 446 469 468
3 446 447 469
3 447 470 469
3 447 448 470
3 448 471 470
3 448 449 471
3 449 472 471
3 449 450 472
3 450 473 472
3 450 451 473
3 451 474 473
3 451 440 474
3 440 475 474
3 440 452 475
3 452 476 475
3 452 453 476
3 453 477 476
3 453 454 477
3 454 478 477
3 454 455 478
3 455 479 478
3 455 456 479
3 456 480 479
3 456 457 480
3 457 481 480
3 457 458 481
3 458 482 481
3 458 459 482
3 459 483 482
3 459 460 483
3 460 484 483
3 460 461 484
3 461 485 484
3 461 462 485
3 462 486 485
3 462 440 486
3 440 463 486
3 463 464 487
3 464 488 487
3 464 465 488
3 465 489 488
3 465 466 489
3 466 490 489
3 466 467 490
3 467 491 490
3 467 468 491
3 468 492 491
3 468 469 492
3 469 493 492
3 469 470 493
3 470 494 493
3 470 471 494
3 471 495 494
3 471 472 495
3 472 496 495
3 472 473 496
3 473 497 496
3 473 474 497
3 474 498 497
3 474 475 498
3 475 487 498
3 475 476 487
3 476 499 487
3 476 477 499
3 477 500 499
3 477 478 500
3 478 501 500
3 478 479 501
3 479 502 501
3 479 480 502
3 480 503 502
3 480 481 503
3 481 504 503
3 481 482 504
3 482 505 504
3 482 483 505
3 483 506 505
3 483 484 506
3 484 507 506
3 484 485 507
3 485 508 507
3 485 486 508
3 486 509 508
3 486 463 509
3 463 487 509
3 487 488 510
3 488 511 510
3 488 489 511
3 489 512 511
3 489 490 512
3 490 513 512
3 490 491 513
3 491 514 513
3 491 492 514
3 492 515 514
3 492 493 515
3 493 516 515
3 493 494 516
3 494 517 516
3 494 495 517
3 495 518 517
3 495 496 518
3 496 519 518
3 496 497 519
3 497 520 519
3 497 498 520
3 498 521 520
3 498 487 521
3 487 510 521
3 487 499 510
3 499 522 510
3 499 500 522
3 500 523 522
3 500 501 523
3 501 524 523
3 501 502 524
3 502 525 524
3 502 503 525
3 503 526 525
3 503 504 526
3 504 527 526
3 504 505 527
3 505 528 527
3 505 506 528
3 506 529 528
3 506 507 529
3 507 530 529
3 507 508 530
3 508 531 530
3 508 509 531
3 509 532 531
3 509 487 532
3 487 510 532
3 510 511 533
3 511 534 533
3 511 512 534
3 512 535 534
3 512 513 535
3 513 536 535
3 513 514 536
3 514 537 536
3 514 515 537
3 515 538 537
3 515 516 538
3 516 539 538
3 516 517 539
3 517 540 539
3 517 518 540
3 518 541 540
3 518 519 541
3 519 542 541
3 519 520 542
3 520 543 542
3 520 521 543
3 521 544 543
3 521 510 544
3 510 533 544
3 510 522 533
3 522 545 533
3 522 523 545
3 523 546 545
3 523 524 546
3 524 547 546
3 524 525 547
3 525 548 547
3 525 526 548
3 526 549 548
3 526 527 549
3 527 550 549
3 527 528 550
3 528 551 550
3 528 529 551
3 529 552 551
3 529 530 552
3 530 553 552
3 530 531 553
3 531 554 553
3 531 532 554
3 532 555 554
3 532 510 555
3 510 533 555
3 533 534 556
3 534 557 556
3 534 535 557
3 535 558 557
3 535 536 558
3 536 559 558
3 536 537 559
3 537 560 559
3 537 538 560
3 538 561 560
3 538 539 561
3 539 562 561
3 539 540 562
3 540 563 562
3 540 541 563
3 541 564 563
3 541 542 564
3 542 565 564
3 542 543 565
3 543 566 565
3 543 544 566
3 544 567 566
3 544 533 567
3 533 556 567
3 533 545 556
3 545 568 556
3 545 546 568
3 546 569 568
3 546 547 569
3 547 570 569
3 547 548 570
3 548 571 570
3 548 549 571
3 549 572 571
3 549 550 572
3 550 573 572
3 550 551 573
3 551 574 573
3 551 552 574
3 552 575 574
3 552 553 575
3 553 576 575
3 553 554 576
3 554 577 576
3 554 555 577
3 555 578 577
3 555 533 578
3 533 556 578
3 556 557 579
3 557 580 579
3 557 558 580
3 558 581 580
3 558 559 581
3 559 582 581
3 559 560 582
3 560 583 582
3 560 561 583
3 561 584 583
3 561 562 584
3 562 585 584
3 562 563 585
3 563 586 585
3 563 564 586
3 564 587 586
3 564 565 587
3 565 588 587
3 565 566 588
3 566 589 588
3 566 567 589
3 567 590 589
3 567 556 590
3 556 579 590
3 556 568 579
3 568 591 579
3 568 569 591
3 569 592 591
3 569 570 592
3 570 593 592
3 570 571 593
3 571 594 593
3 571 572 594
3 572 595 594
3 572 573 595
3 573 596 595
3 573 574 596
3 574 597 596
3 574 575 597
3 575 598 597
3 575 576 598
3 576 599 598
3 576 577 599
3 577 600 599
3 577 578 600
3 578 601 600
3 578 556 601
3 556 579 601
3 579 580 602
3 580 603 602
3 580 581 603
3 581 604 603
3 581 582 604
3 582 605 604
3 582 583 605
3 583 606 605
3 583 584 606
3 584 607 606
3 584 585 607
3 585 608 607
3 585 586 608
3 586 609 608
3 586 587 609
3 587 610 609
3 587 588 610
3 588 611 610
3 588 589 611
3 589 612 611
3 589 590 612
3 590 613 612
3 590 579 613
3 579 602 613
3 579 591 602
3 591 614 602
3 591 592 614
3 592 615 614
3 592 593 615
3 593 616 615
3 593 594 616
3 594 617 616
3 594 595 617
3 595 618 617
3 595 596 618
3 596 619 618
3 596 597 619
3 597 620 619
3 597 598 620
3 598 621 620
3 598 599 621
3 599 622 621
3 599 600 622
3 600 623 622
3 600 601 623
3 601 624 623
3 601 579 624
3 579 602 624
3 602 603 625
3 603 626 625
3 603 604 626
3 604 627 626
3 604 605 627
3 605 628 627
3 605 606 628
3 606 629 628
3 606 607 629
3 607 630 629
3 607 608 630
3 608 631 630
3 608 609 631
3 609 632 631
3 609 610 632
3 610 633 632
3 610 611 633
3 611 634 633
3 611 612 634
3 612 635 634
3 612 613 635
3 613 636 635
3 613 602 636
3 602 625 636
3 602 614 625
3 614 637 625
3 614 615 637
3 615 638 637
3 615 616 638
3 616 639 638
3 616 617 639
3 617 640 639
3 617 618 640
3 618 641 640
3 618 619 641
3 619 642 641
3 619 620 642
3 620 643 642
3 620 621 643
3 621 644 643
3 621 622 644
3 622 645 644
3 622 623 645
3 623 646 645
3 623 624 646
3 624 647 646
3 624 602 647
3 602 625 647
3 625 626 648
3 626 649 648
3 626 627 649
3 627 650 649
3 627 628 650
3 628 651 650
3 628 629 651
3 629 652 651
3 629 630 652
3 630 653 652
3 630 631 653
3 631 654 653
3 631 632 654
3 632 655 654
3 632 633 655
3 633 656 655
3 633 634 656
3 634 657 656
3 634 635 657
3 635 658 657
3 635 636 658
3 636 659 658
3 636 625 659
3 625 648 659
3 625 637 648
3 637 660 648
3 637 638 660
3 638 661 660
3 638 639 661
3 639 662 661
3 639 640 662
3 640 663 662
3 640 641 663
3 641 664 663
3 641 642 664
3 642 665 664
3 642 643 665
3 643 666 665
3 643 644 666
3 644 667 666
3 644 645 667
3 645 668 667
3 645 646 668
3 646 669 668
3 646 647 669
3 647 670 669
3 647 625 670
3 625 648 670
3 648 649 671
3 649 672 671
3 649 650 672
3 650 673 672
3 650 651 673
3 651 674 673
3 651 652 674
3 652 675 674
3 652 653 675
3 653 676 675
3 653 654 676
3 654 677 676
3 654 655 677
3 655 678 677
3 655 656 678
3 656 679 678
3 656 657 679
3 657 680 679
3 657 658 680
3 658 681 680
3 658 659 681
3 659 682 681
3 659 648 682
3 648 671 682
3 648 660 671
3 660 683 671
3 660 661 683
3 661 684 683
3 661 662 684
3 662 685 684
3 662 663 685
3 663 686 685
3 663 664 686
3 664 687 686
3 664 665 687
3 665 688 687
3 665 666 688
3 666 689 688
3 666 667 689
3 667 690 689
3 667 668 690
3 668 691 690
3 668 669 691
3 669 692 691
3 669 670 692
3 670 693 692
3 670 648 693
3 648 671 693
3 671 672 694
3 672 695 694
3 672 673 695
3 673 696 695
3 673 674 696
3 674 697 696
3 674 675 697
3 675 698 697
3 675 676 698
3 676 699 698
3 676 677 699
3 677 700 699
3 677 678 700
3 678 701 700
3 678 679 701
3 679 702 701
3 679 680 702
3 680 703 702
3 680 681 703
3 681 704 703
3 681 682 704
3 682 705 704
3 682 671 705
3 671 694 705
3 671 683 694
3 683 706 694
3 683 684 706
3 684 707 706
3 684 685 707
3 685 708 707
3 685 686 708
3 686 709 708
3 686 687 709
3 687 710 709
3 687 688 710
3 688 711 710
3 688 689 711
3 689 712 711
3 689 690 712
3 690 713 712
3 690 691 713
3 691 714 713
3 691 692 714
3 692 715 714
3 692 693 715
3 693 716 715
3 693 671 716
3 671 694 716
3 694 695 717
3 695 718 717
3 695 696 718
3 696 719 718
3 696 697 719
3 697 720 719
3 697 698 720
3 698 721 720
3 698 699 721
3 699 722 721
3 699 700 722
3 700 723 722
3 700 701 723
3 701 724 723
3 701 702 724
3 702 725 724
3 702 703 725
3 703 726 725
3 703 704 726
3 704 727 726
3 704 705 727
3 705 728 727
3 705 694 728
3 694 717 728
3 694 706 717
3 706 729 717
3 706 707 729
3 707 730 729
3 707 708 730
3 708 731 730
3 708 709 731
3 709 732 731
3 709 710 732
3 710 733 732
3 710 711 733
3 711 734 733
3 711 712 734
3 712 735 734
3 712 713 735
3 713 736 735
3 713 714 736
3 714 737 736
3 714 715 737
3 715 738 737
3 715 716 738
3 716 739 738
3 716 694 739
3 694 717 739
3 717 718 740
3 718 741 740
3 718 719 741
3 719 742 741
3 719 720 742
3 720 743 742
3 720 721 743
3 721 744 743
3 721 722 744
3 722 745 744
3 722 723 745
3 723 746 745
3 723 724 746
3 724 747 746
3 724 725 747
3 725 748 747
3 725 726 748
3 726 749 748
3 726 727 749
3 727 750 749
3 727 728 750
3 728 751 750
3 728 717 751
3 717 740 751
3 717 729 740
3 729 752 740
3 729 730 752
3 730 753 752
3 730 731 753
3 731 754 753
3 731 732 754
3 732 755 754
3 732 733 755
3 733 756 755
3 733 734 756
3 734 757 756
3 734 735 757
3 735 758 757
3 735 736 758
3 736 759 758
3 736 737 759
3 737 760 759
3 737 738 760
3 738 761 760
3 738 739 761
3 739 762 761
3 739 717 762
3 717 740 762
3 740 741 763
3 741 764 763
3 741 742 764
3 742 765 764
3 742 743 765
3 743 766 765
3 743 744 766
3 744 767 766
3 744 745 767
3 745 768 767
3 745 746 768
3 746 769 768
3 746 747 769
3 747 770 769
3 747 748 770
3 748 771 770
3 748 749 771
3 749 772 771
3 749 750 772
3 750 773 772
3 750 751 773
3 751 774 773
3 751 740 774
3 740 763 774
3 740 752 763
3 752 775 763
3 752 753 775
3 753 776 775
3 753 754 776
3 754 777 776
3 754 755 777
3 755 778 777
3 755 756 778
3 756 779 778
3 756 757 779
3 757 780 779
3 757 758 780
3 758 781 780
3 758 759 781
3 759 782 781
3 759 760 782
3 760 783 782
3 760 761 783
3 761 784 783
3 761 762 784
3 762 785 784
3 762 740 785
3 740 763 785
3 763 764 786
3 764 787 786
3 764 765 787
3 765 788 787
3 765 766 788
3 766 789 788
3 766 767 789
3 767 790 789
3 767 768 790
3 768 791 790
3 768 769 791
3 769 792 791
3 769 770 792
3 770 793 792
3 770 771 793
3 771 794 793
3 771 772 794
3 772 795 794
3 772 773 795
3 773 796 795
3 773 774 796
3 774 797 796
3 774 763 797
3 763 786 797
3 763 775 786
3 775 798 786
3 775 776 798
3 776 799 798
3 776 777 799
3 777 800 799
3 777 778 800
3 778 801 800
3 778 779 801
3 779 802 801
3 779 780 802
3 780 803 802
3 780 781 803
3 781 804 803
3 781 782 804
3 782 805 804
3 782 783 805
3 783 806 805
3 783 784 806
3 784 807 806
3 784 785 807
3 785 808 807
3 785 763 808
3 763 786 808
3 786 787 809
3 787 810 809
3 787 788 810
3 788 811 810
3 788 789 811
3 789 812 811
3 789 790 812
3 790 813 812
3 790 791 813
3 791 814 813
3 791 792 814
3 792 815 814
3 792 793 815
3 793 816 815
3 793 794 816
3 794 817 816
3 794 795 817
3 795 818 817
3 795 796 818
3 796 819 818
3 796 797 819
3 797 820 819
3 797 786 820
3 786 809 820
3 786 798 809
3 798 821 809
3 798 799 821
3 799 822 821
3 799 800 822
3 800 823 822
3 800 801 823
3 801 824 823
3 801 802 824
3 802 825 824
3 802 803 825
3 803 826 825
3 803 804 826
3 804 827 826
3 804 805 827
3 805 828 827
3 805 806 828
3 806 829 828
3 806 807 829
3 807 830 829
3 807 808 830
3 808 831 830
3 808 786 831
3 786 809 831
3 809 810 832
3 810 833 832
3 810 811 833
3 811 834 833
3 811 812 834
3 812 835 834
3 812 813 835
3 813 836 835
3 813 814 836
3 814 837 836
3 814 815 837
3 815 838 837
3 815 816 838
3 816 839 838
3 816 817 839
3 817 840 839
3 817 818 840
3 818 841 840
3 818 819 841
3 819 842 841
3 819 820 842
3 820 843 842
3 820 809 843
3 809 832 843
3 809 821 832
3 821 844 832
3 821 822 844
3 822 845 844
3 822 823 845
3 823 846 845
3 823 824 846
3 824 847 846
3 824 825 847
3 825 848 847
3 825 826 848
3 826 849 848
3 826 827 849
3 827 850 849
3 827 828 850
3 828 851 850
3 828 829 851
3 829 852 851
3 829 830 852
3 830 853 852
3 830 831 853
3 831 854 853
3 831 809 854
3 809 832 854
3 832 833 855
3 833 856 855
3 833 834 856
3 834 857 856
3 834 835 857
3 835 858 857
3 835 836 858
3 836 859 858
3 836 837 859
3 837 860 859
3 837 838 860
3 838 861 860
3 838 839 861
3 839 862 861
3 839 840 862
3 840 863 862
3 840 841 863
3 841 864 863
3 841 842 864
3 842 865 864
3 842 843 865
3 843 866 865
3 843 832 866
3 832 855 866
3 832 844 855
3 844 867 855
3 844 845 867
3 845 868 867
3 845 846 868
3 846 869 868
3 846 847 869
3 847 870 869
3 847 848 870
3 848 871 870
3 848 849 871
3 849 872 871
3 849 850 872
3 850 873 872
3 850 851 873
3 851 874 873
3 851 852 874
3 852 875 874
3 852 853 875
3 853 876 875
3 853 854 876
3 854 877 876
3 854 832 877
3 832 855 877
3 855 856 878
3 856 879 878
3 856 857 879
3 857 880 879
3 857 858 880
3 858 881 880
3 858 859 881
3 859 882 881
3 859 860 882
3 860 883 882
3 860 861 883
3 861 884 883
3 861 862 884
3 862 885 884
3 862 863 885
3 863 886 885
3 863 864 886
3 864 887 886
3 864 865 887
3 865 888 887
3 865 866 888
3 866 889 888
3 866 855 889
3 855 878 889
3 855 867 878
3 867 890 878
3 867 868 890
3 868 891 890
3 868 869 891
3 869 892 891
3 869 870 892
3 870 893 892
3 870 871 893
3 871 894 893
3 871 872 894
3 872 895 894
3 872 873 895
3 873 896 895
3 873 874 896
3 874 897 896
3 874 875 897
3 875 898 897
3 875 876 898
3 876 899 898
3 876 877 899
3 877 900 899
3 877 855 900
3 855 878 900
3 878 879 901
3 879 902 901
3 879 880 902
3 880 903 902
3 880 881 903
3 881 904 903
3 881 882 904
3 882 905 904
3 882 883 905
3 883 906 905
3 883 884 906
3 884 907 906
3 884 885 907
3 885 908 907
3 885 886 908
3 886 909 908
3 886 887 909
3 887 910 909
3 887 888 910
3 888 911 910
3 888 889 911
3 889 912 911
3 889 878 912
3 878 901 912
3 878 890 901
3 890 913 901
3 890 891 913
3 891 914 913
3 891 892 914
3 892 915 914
3 892 893 915
3 893 916 915
3 893 894 916
3 894 917 916
3 894 895 917
3 895 918 917
3 895 896 918
3 896 919 918
3 896 897 919
3 897 920 919
3 897 898 920
3 898 921 920
3 898 899 921
3 899 922 921
3 899 900 922
3 900 923 922
3 900 878 923
3 878 901 923
3 901 902 924
3 902 925 924
3 902 903 925
3 903 926 925
3 903 904 926
3 904 927 926
3 904 905 927
3 905 928 927
3 905 906 928
3 906 929 928
3 906 907 929
3 907 930 929
3 907 908 930
3 908 931 930
3 908 909 931
3 909 932 931
3 909 910 932
3 910 933 932
3 910 911 933
3 911 934 933
3 911 912 934
3 912 935 934
3 912 901 935
3 901 924 935
3 901 913 924
3 913 936 924
3 913 914 936
3 914 937 936
3 914 915 937
3 915 938 937
3 915 916 938
3 916 939 938
3 916 917 939
3 917 940 939
3 917 918 940
3 918 941 940
3 918 919 941
3 919 942 941
3 919 920 942
3 920 943 942
3 920 921 943
3 921 944 943
3 921 922 944
3 922 945 944
3 922 923 945
3 923 946 945
3 923 901 946
3 901 924 946
3 924 925 947
3 925 948 947
3 925 926 948
3 926 949 948
3 926 927 949
3 927 950 949
3 927 928 950
3 928 951 950
3 928 929 951
3 929 952 951
3 929 930 952
3 930 953 952
3 930 931 953
3 931 954 953
3 931 932 954
3 932 955 954
3 932 933 955
3 933 956 955
3 933 934 956
3 934 957 956
3 934 935 957
3 935 958 957
3 935 924 958
3 924 947 958
3 924 936 947
3 936 959 947
3 936 937 959
3 937 960 959
3 937 938 960
3 938 961 960
3 938 939 961
3 939 962 961
3 939 940 962
3 940 963 962
3 940 941 963
3 941 964 963
3 941 942 964
3 942 965 964
3 942 943 965
3 943 966 965
3 943 944 966
3 944 967 966
3 944 945 967
3 945 968 967
3 945 946 968
3 946 969 968
3 946 924 969
3 924 947 969
3 947 948 970
3 948 971 970
3 948 949 971
3 949 972 971
3 949 950 972
3 950 973 972
3 950 951 973
3 951 974 973
3 951 952 974
3 952 975 974
3 952 953 975
3 953 976 975
3 953 954 976
3 954 977 976
3 954 955 977
3 955 978 977
3 955 956 978
3 956 979 978
3 956 957 979
3 957 980 979
3 957 958 980
3 958 981 980
3 958 947 981
3 947 970 981
3 947 959 970
3 959 982 970
3 959 960 982
3 960 983 982
3 960 961 983
3 961 984 983
3 961 962 984
3 962 985 984
3 962 963 985
3 963 986 985
3 963 964 986
3 964 987 986
3 964 965 987
3 965 988 987
3 965 966 988
3 966 989 988
3 966 967 989
3 967 990 989
3 967 968 990
3 968 991 990
3 968 969 991
3 969 992 991
3 969 947 992
3 947 970 992
3 970 971 993
3 971 994 993
3 971 972 994
3 972 995 994
3 972 973 995
3 973 996 995
3 973 974 996
3 974 997 996
3 974 975 997
3 975 998 997
3 975 976 998
3 976 999 998
3 976 977 999
3 977 1000 999
3 977 978 1000
3 978 1001 1000
3 978 979 1001
3 979 1002 1001
3 979 980 1002
3 980 1003 1002
3 980 981 1003
3 981 1004 1003
3 981 970 1004
3 970 993 1004
3 970 982 993
3 982 1005 993
3 982 983 1005
3 983 1006 1005
3 983 984 1006
3 984 1007 1006
3 984 985 1007
3 985 1008 1007
3 985 986 1008
3 986 1009 1008
3 986 987 1009
3 987 1010 1009
3 987 988 1010
3 988 1011 1010
3 988 989 1011
3 989 1012 1011
3 989 990 1012
3 990 1013 1012
3 990 991 1013
3 991 1014 1013
3 991 992 1014
3 992 1015 1014
3 992 970 1015
3 970 993 1015
3 993 994 1016
3 994 1017 1016
3 994 995 1017
3 995 1018 1017
3 995 996 1018
3 996 1019 1018
3 996 997 1019
3 997 1020 1019
3 997 998 1020
3 998 1021 1020
3 998 999 1021
3 999 1022 1021
3 999 1000 1022
3 1000 1023 1022
3 1000 1001 1023
3 1001 1024 1023
3 1001 1002 1024
3 1002 1025 1024
3 1002 1003 1025
3 1003 1026 1025
3 1003 1004 1026
3 1004 1027 1026
3 1004 993 1027
3 993 1016 1027
3 993 1005 1016
3 1005 1028 1016
3 1005 1006 1028
3 1006 1029 1028
3 1006 1007 1029
3 1007 1030 1029
3 1007 1008 1030
3 1008 1031 1030
3 1008 1009 1031
3 1009 1032 1031
3 1009 1010 1032
3 1010 1033 1032
3 1010 1011 1033
3 1011 1034 1033
3 1011 1012 1034
3 1012 1035 1034
3 1012 1013 1035
3 1013 1036 1035
3 1013 1014 1036
3 1014 1037 1036
3 1014 1015 1037
3 1015 1038 1037
3 1015 993 1038
3 993 1016 1038
3 1016 1017 1039
3 1017 1040 1039
3 1017 1018 1040
3 1018 1041 1040
3 1018 1019 1041
3 1019 1042 1041
3 1019 1020 1042
3 1020 1043 1042
3 1020 1021 1043
3 1021 1044 1043
3 1021 1022 1044
3 1022 1045 1044
3 1022 1023 1045
3 1023 1046 1045
3 1023 1024 1046
3 1024 1047 1046
3 1024 1025 1047
3 1025 1048 1047
3 1025 1026 1048
3 1026 1049 1048
3 1026 1027 1049
3 1027 1050 1049
3 1027 1016 1050
3 1016 1039 1050
3 1016 1028 1039
3 1028 1051 1039
3 1028 1029 1051
3 1029 1052 1051
3 1029 1030 1052
3 1030 1053 1052
3 1030 1031 1053
3 1031 1054 1053
3 1031 1032 1054
3 1032 1055 1054
3 1032 1033 1055
3 1033 1056 1055
3 1033 1034 1056
3 1034 1057 1056
3 1034 1035 1057
3 1035 1058 1057
3 1035 1036 1058
3 1036 1059 1058
3 1036 1037 1059
3 1037 1060 1059
3 1037 1038 1060
3 1038 1061 1060
3 1038 1016 1061
3 1016 1039 1061
3 1039 1040 1062
3 1040 1063 1062
3 1040 1041 1063
3 1041 1064 1063
3 1041 1042 1064
3 1042 1065 1064
3 1042 1043 1065
3 1043 1066 1065
3 1043 1044 1066
3 1044 1067 1066
3 1044 1045 1067
3 1045 1068 1067
3 1045 1046 1068
3 1046 1069 1068
3 1046 1047 1069
3 1047 1070 1069
3 1047 1048 1070
3 1048 1071 1070
3 1048 1049 1071
3 1049 1072 1071
3 1049 1050 1072
3 1050 1073 1072
3 1050 1039 1073
3 1039 1062 1073
3 1039 1051 1062
3 1051 1074 1062
3 1051 1052 1074
3 1052 1075 1074
3 1052 1053 1075
3 1053 1076 1075
3 1053 1054 1076
3 1054 1077 1076
3 1054 1055 1077
3 1055 1078 1077
3 1055 1056 1078
3 1056 1079 1078
3 1056 1057 1079
3 1057 1080 1079
3 1057 1058 1080
3 1058 1081 1080
3 1058 1059 1081
3 1059 1082 1081
3 1059 1060 1082
3 1060 1083 1082
3 1060 1061 1083
3 1061 1084 1083
3 1061 1039 1084
3 1039 1062 1084
3 1062 1063 1085
3 1063 1086 1085
3 1063 1064 1086
3 1064 1087 1086
3 1064 1065 1087
3 1065 1088 1087
3 1065 1066 1088
3 1066 1089 1088
3 1066 1067 1089
3 1067 1090 1089
3 1067 1068 1090
3 1068 1091 1090
3 1068 1069 1091
3 1069 1092 1091
3 1069 1070 1092
3 1070 1093 1092
3 1070 1071 1093
3 1071 1094 1093
3 1071 1072 1094
3 1072 1095 1094
3 1072 1073 1095
3 1073 1096 1095
3 1073 1062 1096
3 1062 1085 1096
3 1062 1074 1085
3 1074 1097 1085
3 1074 1075 1097
3 1075 1098 1097
3 1075 1076 1098
3 1076 1099 1098
3 1076 1077 1099
3 1077 1100 1099
3 1077 1078 1100
3 1078 1101 1100
3 1078 1079 1101
3 1079 1102 1101
3 1079 1080 1102
3 1080 1103 1102
3 1080 1081 1103
3 1081 1104 1103
3 1081 1082 1104
3 1082 1105 1104
3 1082 1083 1105
3 1083 1106 1105
3 1083 1084 1106
3 1084 1107 1106
3 1084 1062 1107
3 1062 1085 1107
3 1085 1086 0
3 1086 1 0
3 1086 1087 1
3 1087 2 1
3 1087 1088 2
3 1088 3 2
3 1088 1089 3
3 1089 4 3
3 1089 1090 4
3 1090 5 4
3 1090 1091 5
3 1091 6 5
3 1091 1092 6
3 1092 7 6
3 1092 1093 7
3 1093 8 7
3 1093 1094 8
3 1094 9 8
3 1094 1095 9
3 1095 10 9
3 1095 1096 10
3 1096 11 10
3 1096 1085 11
3 1085 12 11
3 1085 1097 12
3 1097 13 12
3 1097 1098 13
3 1098 14 13
3 1098 1099 14
3 1099 15 14
3 1099 1100 15
3 1100 16 15
3 1100 1101 16
3 1101 17 16
3 1101 1102 17
3 1102 18 17
3 1102 1103 18
3 1103 19 18
3 1103 1104 19
3 1104 20 19
3 1104 1105 20
3 1105 21 20
3 1105 1106 21
3 1106 22 21
3 1106 1107 22
3 1107 23 22
3 1107 1085 23
3 1085 0 23
