ply
format ascii 1.0
element vertex 1040
property float x
property float y
property float z
property float nx
property float ny
property float nz
element face 2112
property list uchar int vertex_indices
end_header
1.000000 0.000000 1.000000 -0.889789 -0.456372 0.000000
0.977164 0.000000 1.114805 -0.821201 -0.458056 -0.340315
0.912132 0.000000 1.212132 -0.628063 -0.459016 -0.628364
0.814805 0.000000 1.277164 -0.339766 -0.459426 -0.820663
0.700000 0.000000 1.300000 0.000000 0.160398 -0.987052
0.585195 0.000000 1.277164 0.341667 0.449689 -0.825254
0.487868 0.000000 1.212132 0.630742 0.451605 -0.631045
0.422836 0.000000 1.114805 0.823089 0.454067 -0.341098
0.400000 0.000000 1.000000 0.889789 0.456372 0.000000
0.422836 0.000000 0.885195 0.821201 0.458056 0.340315
0.487868 0.000000 0.787868 0.628063 0.459016 0.628364
0.585195 0.000000 0.722836 0.339766 0.459426 0.820663
0.700000 0.000000 0.700000 0.000000 -0.160398 0.987052
0.814805 0.000000 0.722836 -0.341667 -0.449689 0.825254
0.912132 0.000000 0.787868 -0.630742 -0.451605 0.631045
0.977164 0.000000 0.885195 -0.823089 -0.454067 0.341098
0.974928 0.222521 1.000000 -0.974928 -0.222521 0.000000
0.952664 0.217439 1.114805 -0.900020 -0.208326 -0.382838
0.889263 0.202968 1.212132 -0.688035 -0.162425 -0.707267
0.794376 0.181311 1.277164 -0.371393 -0.091835 -0.923923
0.682450 0.155765 1.300000 0.001662 -0.007283 -0.999972
0.570523 0.130218 1.277164 0.374459 0.078401 -0.923923
0.475636 0.108561 1.212132 0.690371 0.152187 -0.707267
0.412235 0.094090 1.114805 0.901279 0.202809 -0.382838
0.389971 0.089008 1.000000 0.974928 0.222521 -0.000000
0.412235 0.094090 0.885195 0.900020 0.208326 0.382838
0.475636 0.108561 0.787868 0.688035 0.162425 0.707267
0.570523 0.130218 0.722836 0.371393 0.091835 0.923923
0.682450 0.155765 0.700000 -0.001662 0.007283 0.999972
0.794376 0.181311 0.722836 -0.374459 -0.078401 0.923923
0.889263 0.202968 0.787868 -0.690371 -0.152187 0.707267
0.952664 0.217439 0.885195 -0.901279 -0.202809 0.382838
0.900969 0.433884 1.000000 -0.900969 -0.433884 0.000000
0.880394 0.423976 1.114805 -0.831097 -0.403376 -0.382838
0.821803 0.395759 1.212132 -0.634641 -0.311455 -0.707267
0.734114 0.353531 1.277164 -0.341647 -0.172175 -0.923923
0.630678 0.303719 1.300000 0.003241 -0.006731 -0.999972
0.527242 0.253907 1.277164 0.347625 0.159761 -0.923923
0.439554 0.211678 1.212132 0.639198 0.301994 -0.707267
0.380962 0.183462 1.114805 0.833553 0.398277 -0.382838
0.360388 0.173553 1.000000 0.900969 0.433884 -0.000000
0.380962 0.183462 0.885195 0.831097 0.403376 0.382838
0.439554 0.211678 0.787868 0.634641 0.311455 0.707267
0.527242 0.253907 0.722836 0.341647 0.172175 0.923923
0.630678 0.303719 0.700000 -0.003241 0.006731 0.999972
0.734114 0.353531 0.722836 -0.347625 -0.159761 0.923923
0.821803 0.395759 0.787868 -0.639198 -0.301994 0.707267
0.880394 0.423976 0.885195 -0.833553 -0.398277 0.382838
0.781831 0.623490 1.000000 -0.781831 -0.623490 0.000000
0.763977 0.609252 1.114805 -0.720501 -0.578199 -0.382838
0.713134 0.568705 1.212132 -0.549424 -0.444867 -0.707267
0.637040 0.508023 1.277164 -0.294768 -0.243882 -0.923923
0.547282 0.436443 1.300000 0.004658 -0.005841 -0.999972
0.457524 0.364863 1.277164 0.303359 0.233109 -0.923923
0.381431 0.304181 1.212132 0.555972 0.436657 -0.707267
0.330587 0.263634 1.114805 0.724029 0.573775 -0.382838
0.312733 0.249396 1.000000 0.781831 0.623490 0.000000
0.330587 0.263634 0.885195 0.720501 0.578199 0.382838
0.381431 0.304181 0.787868 0.549424 0.444867 0.707267
0.457524 0.364863 0.722836 0.294768 0.243882 0.923923
0.547282 0.436443 0.700000 -0.004658 0.005841 0.999972
0.637040 0.508023 0.722836 -0.303359 -0.233109 0.923923
0.713134 0.568705 0.787868 -0.555972 -0.436657 0.707267
0.763977 0.609252 0.885195 -0.724029 -0.573775 0.382838
0.623490 0.781831 1.000000 -0.623490 -0.781831 0.000000
0.609252 0.763977 1.114805 -0.573775 -0.724029 -0.382838
0.568705 0.713134 1.212132 -0.436657 -0.555972 -0.707267
0.508023 0.637040 1.277164 -0.233109 -0.303359 -0.923923
0.436443 0.547282 1.300000 0.005841 -0.004658 -0.999972
0.364863 0.457524 1.277164 0.243882 0.294768 -0.923923
0.304181 0.381431 1.212132 0.444867 0.549424 -0.707267
0.263634 0.330587 1.114805 0.578199 0.720501 -0.382838
0.249396 0.312733 1.000000 0.623490 0.781831 -0.000000
0.263634 0.330587 0.885195 0.573775 0.724029 0.382838
0.304181 0.381431 0.787868 0.436657 0.555972 0.707267
0.364863 0.457524 0.722836 0.233109 0.303359 0.923923
0.436443 0.547282 0.700000 -0.005841 0.004658 0.999972
0.508023 0.637040 0.722836 -0.243882 -0.294768 0.923923
0.568705 0.713134 0.787868 -0.444867 -0.549424 0.707267
0.609252 0.763977 0.885195 -0.578199 -0.720501 0.382838
0.433884 0.900969 1.000000 -0.433884 -0.900969 0.000000
0.423976 0.880394 1.114805 -0.398277 -0.833553 -0.382838
0.395759 0.821803 1.212132 -0.301994 -0.639198 -0.707267
0.353531 0.734114 1.277164 -0.159761 -0.347625 -0.923923
0.303719 0.630678 1.300000 0.006731 -0.003241 -0.999972
0.253907 0.527242 1.277164 0.172175 0.341647 -0.923923
0.211678 0.439554 1.212132 0.311455 0.634641 -0.707267
0.183462 0.380962 1.114805 0.403376 0.831097 -0.382838
0.173553 0.360388 1.000000 0.433884 0.900969 -0.000000
0.183462 0.380962 0.885195 0.398277 0.833553 0.382838
0.211678 0.439554 0.787868 0.301994 0.639198 0.707267
0.253907 0.527242 0.722836 0.159761 0.347625 0.923923
0.303719 0.630678 0.700000 -0.006731 0.003241 0.999972
0.353531 0.734114 0.722836 -0.172175 -0.341647 0.923923
0.395759 0.821803 0.787868 -0.311455 -0.634641 0.707267
0.423976 0.880394 0.885195 -0.403376 -0.831097 0.382838
0.222521 0.974928 1.000000 -0.222521 -0.974928 0.000000
0.217439 0.952664 1.114805 -0.202809 -0.901279 -0.382838
0.202968 0.889263 1.212132 -0.152187 -0.690371 -0.707267
0.181311 0.794376 1.277164 -0.078401 -0.374459 -0.923923
0.155765 0.682450 1.300000 0.007283 -0.001662 -0.999972
0.130218 0.570523 1.277164 0.091835 0.371393 -0.923923
0.108561 0.475636 1.212132 0.162425 0.688035 -0.707267
0.094090 0.412235 1.114805 0.208326 0.900020 -0.382838
0.089008 0.389971 1.000000 0.222521 0.974928 0.000000
0.094090 0.412235 0.885195 0.202809 0.901279 0.382838
0.108561 0.475636 0.787868 0.152187 0.690371 0.707267
0.130218 0.570523 0.722836 0.078401 0.374459 0.923923
0.155765 0.682450 0.700000 -0.007283 0.001662 0.999972
0.181311 0.794376 0.722836 -0.091835 -0.371393 0.923923
0.202968 0.889263 0.787868 -0.162425 -0.688035 0.707267
0.217439 0.952664 0.885195 -0.208326 -0.900020 0.382838
0.000000 1.000000 1.000000 -0.000000 -1.000000 0.000000
0.000000 0.977164 1.114805 0.002829 -0.923811 -0.382838
0.000000 0.912132 1.212132 0.005250 -0.706927 -0.707267
0.000000 0.814805 1.277164 0.006890 -0.382517 -0.923923
0.000000 0.700000 1.300000 0.007470 0.000000 -0.999972
0.000000 0.585195 1.277164 0.006890 0.382517 -0.923923
0.000000 0.487868 1.212132 0.005250 0.706927 -0.707267
0.000000 0.422836 1.114805 0.002829 0.923811 -0.382838
0.000000 0.400000 1.000000 0.000000 1.000000 -0.000000
0.000000 0.422836 0.885195 -0.002829 0.923811 0.382838
0.000000 0.487868 0.787868 -0.005250 0.706927 0.707267
0.000000 0.585195 0.722836 -0.006890 0.382517 0.923923
0.000000 0.700000 0.700000 -0.007470 0.000000 0.999972
0.000000 0.814805 0.722836 -0.006890 -0.382517 0.923923
0.000000 0.912132 0.787868 -0.005250 -0.706927 0.707267
0.000000 0.977164 0.885195 -0.002829 -0.923811 0.382838
-0.222521 0.974928 1.000000 0.222521 -0.974928 0.000000
-0.217439 0.952664 1.114805 0.208326 -0.900020 -0.382838
-0.202968 0.889263 1.212132 0.162425 -0.688035 -0.707267
-0.181311 0.794376 1.277164 0.091835 -0.371393 -0.923923
-0.155765 0.682450 1.300000 0.007283 0.001662 -0.999972
-0.130218 0.570523 1.277164 -0.078401 0.374459 -0.923923
-0.108561 0.475636 1.212132 -0.152187 0.690371 -0.707267
-0.094090 0.412235 1.114805 -0.202809 0.901279 -0.382838
-0.089008 0.389971 1.000000 -0.222521 0.974928 -0.000000
-0.094090 0.412235 0.885195 -0.208326 0.900020 0.382838
-0.108561 0.475636 0.787868 -0.162425 0.688035 0.707267
-0.130218 0.570523 0.722836 -0.091835 0.371393 0.923923
-0.155765 0.682450 0.700000 -0.007283 -0.001662 0.999972
-0.181311 0.794376 0.722836 0.078401 -0.374459 0.923923
-0.202968 0.889263 0.787868 0.152187 -0.690371 0.707267
-0.217439 0.952664 0.885195 0.202809 -0.901279 0.382838
-0.433884 0.900969 1.000000 0.433884 -0.900969 0.000000
-0.423976 0.880394 1.114805 0.403376 -0.831097 -0.382838
-0.395759 0.821803 1.212132 0.311455 -0.634641 -0.707267
-0.353531 0.734114 1.277164 0.172175 -0.341647 -0.923923
-0.303719 0.630678 1.300000 0.006731 0.003241 -0.999972
-0.253907 0.527242 1.277164 -0.159761 0.347625 -0.923923
-0.211678 0.439554 1.212132 -0.301994 0.639198 -0.707267
-0.183462 0.380962 1.114805 -0.398277 0.833553 -0.382838
-0.173553 0.360388 1.000000 -0.433884 0.900969 0.000000
-0.183462 0.380962 0.885195 -0.403376 0.831097 0.382838
-0.211678 0.439554 0.787868 -0.311455 0.634641 0.707267
-0.253907 0.527242 0.722836 -0.172175 0.341647 0.923923
-0.303719 0.630678 0.700000 -0.006731 -0.003241 0.999972
-0.353531 0.734114 0.722836 0.159761 -0.347625 0.923923
-0.395759 0.821803 0.787868 0.301994 -0.639198 0.707267
-0.423976 0.880394 0.885195 0.398277 -0.833553 0.382838
-0.623490 0.781831 1.000000 0.623490 -0.781831 0.000000
-0.609252 0.763977 1.114805 0.578199 -0.720501 -0.382838
-0.568705 0.713134 1.212132 0.444867 -0.549424 -0.707267
-0.508023 0.637040 1.277164 0.243882 -0.294768 -0.923923
-0.436443 0.547282 1.300000 0.005841 0.004658 -0.999972
-0.364863 0.457524 1.277164 -0.233109 0.303359 -0.923923
-0.304181 0.381431 1.212132 -0.436657 0.555972 -0.707267
-0.263634 0.330587 1.114805 -0.573775 0.724029 -0.382838
-0.249396 0.312733 1.000000 -0.623490 0.781831 0.000000
-0.263634 0.330587 0.885195 -0.578199 0.720501 0.382838
-0.304181 0.381431 0.787868 -0.444867 0.549424 0.707267
-0.364863 0.457524 0.722836 -0.243882 0.294768 0.923923
-0.436443 0.547282 0.700000 -0.005841 -0.004658 0.999972
-0.508023 0.637040 0.722836 0.233109 -0.303359 0.923923
-0.568705 0.713134 0.787868 0.436657 -0.555972 0.707267
-0.609252 0.763977 0.885195 0.573775 -0.724029 0.382838
-0.781831 0.623490 1.000000 0.781831 -0.623490 0.000000
-0.763977 0.609252 1.114805 0.724029 -0.573775 -0.382838
-0.713134 0.568705 1.212132 0.555972 -0.436657 -0.707267
-0.637040 0.508023 1.277164 0.303359 -0.233109 -0.923923
-0.547282 0.436443 1.300000 0.004658 0.005841 -0.999972
-0.457524 0.364863 1.277164 -0.294768 0.243882 -0.923923
-0.381431 0.304181 1.212132 -0.549424 0.444867 -0.707267
-0.330587 0.263634 1.114805 -0.720501 0.578199 -0.382838
-0.312733 0.249396 1.000000 -0.781831 0.623490 0.000000
-0.330587 0.263634 0.885195 -0.724029 0.573775 0.382838
-0.381431 0.304181 0.787868 -0.555972 0.436657 0.707267
-0.457524 0.364863 0.722836 -0.303359 0.233109 0.923923
-0.547282 0.436443 0.700000 -0.004658 -0.005841 0.999972
-0.637040 0.508023 0.722836 0.294768 -0.243882 0.923923
-0.713134 0.568705 0.787868 0.549424 -0.444867 0.707267
-0.763977 0.609252 0.885195 0.720501 -0.578199 0.382838
-0.900969 0.433884 1.000000 0.900969 -0.433884 0.000000
-0.880394 0.423976 1.114805 0.833553 -0.398277 -0.382838
-0.821803 0.395759 1.212132 0.639198 -0.301994 -0.707267
-0.734114 0.353531 1.277164 0.347625 -0.159761 -0.923923
-0.630678 0.303719 1.300000 0.003241 0.006731 -0.999972
-0.527242 0.253907 1.277164 -0.341647 0.172175 -0.923923
-0.439554 0.211678 1.212132 -0.634641 0.311455 -0.707267
-0.380962 0.183462 1.114805 -0.831097 0.403376 -0.382838
-0.360388 0.173553 1.000000 -0.900969 0.433884 -0.000000
-0.380962 0.183462 0.885195 -0.833553 0.398277 0.382838
-0.439554 0.211678 0.787868 -0.639198 0.301994 0.707267
-0.527242 0.253907 0.722836 -0.347625 0.159761 0.923923
-0.630678 0.303719 0.700000 -0.003241 -0.006731 0.999972
-0.734114 0.353531 0.722836 0.341647 -0.172175 0.923923
-0.821803 0.395759 0.787868 0.634641 -0.311455 0.707267
-0.880394 0.423976 0.885195 0.831097 -0.403376 0.382838
-0.974928 0.222521 1.000000 0.974928 -0.222521 0.000000
-0.952664 0.217439 1.114805 0.901279 -0.202809 -0.382838
-0.889263 0.202968 1.212132 0.690371 -0.152187 -0.707267
-0.794376 0.181311 1.277164 0.374459 -0.078401 -0.923923
-0.682450 0.155765 1.300000 0.001662 0.007283 -0.999972
-0.570523 0.130218 1.277164 -0.371393 0.091835 -0.923923
-0.475636 0.108561 1.212132 -0.688035 0.162425 -0.707267
-0.412235 0.094090 1.114805 -0.900020 0.208326 -0.382838
-0.389971 0.089008 1.000000 -0.974928 0.222521 -0.000000
-0.412235 0.094090 0.885195 -0.901279 0.202809 0.382838
-0.475636 0.108561 0.787868 -0.690371 0.152187 0.707267
-0.570523 0.130218 0.722836 -0.374459 0.078401 0.923923
-0.682450 0.155765 0.700000 -0.001662 -0.007283 0.999972
-0.794376 0.181311 0.722836 0.371393 -0.091835 0.923923
-0.889263 0.202968 0.787868 0.688035 -0.162425 0.707267
-0.952664 0.217439 0.885195 0.900020 -0.208326 0.382838
-1.000000 0.000000 1.000000 1.000000 0.000000 0.000000
-0.977164 0.000000 1.114805 0.923811 0.002829 -0.382838
-0.912132 0.000000 1.212132 0.706927 0.005250 -0.707267
-0.814805 0.000000 1.277164 0.382517 0.006890 -0.923923
-0.700000 0.000000 1.300000 -0.000000 0.007470 -0.999972
-0.585195 0.000000 1.277164 -0.382517 0.006890 -0.923923
-0.487868 0.000000 1.212132 -0.706927 0.005250 -0.707267
-0.422836 0.000000 1.114805 -0.923811 0.002829 -0.382838
-0.400000 0.000000 1.000000 -1.000000 0.000000 0.000000
-0.422836 0.000000 0.885195 -0.923811 -0.002829 0.382838
-0.487868 0.000000 0.787868 -0.706927 -0.005250 0.707267
-0.585195 0.000000 0.722836 -0.382517 -0.006890 0.923923
-0.700000 0.000000 0.700000 -0.000000 -0.007470 0.999972
-0.814805 0.000000 0.722836 0.382517 -0.006890 0.923923
-0.912132 0.000000 0.787868 0.706927 -0.005250 0.707267
-0.977164 0.000000 0.885195 0.923811 -0.002829 0.382838
-0.974928 -0.222521 1.000000 0.974928 0.222521 0.000000
-0.952664 -0.217439 1.114805 0.900020 0.208326 -0.382838
-0.889263 -0.202968 1.212132 0.688035 0.162425 -0.707267
-0.794376 -0.181311 1.277164 0.371393 0.091835 -0.923923
-0.682450 -0.155765 1.300000 -0.001662 0.007283 -0.999972
-0.570523 -0.130218 1.277164 -0.374459 -0.078401 -0.923923
-0.475636 -0.108561 1.212132 -0.690371 -0.152187 -0.707267
-0.412235 -0.094090 1.114805 -0.901279 -0.202809 -0.382838
-0.389971 -0.089008 1.000000 -0.974928 -0.222521 -0.000000
-0.412235 -0.094090 0.885195 -0.900020 -0.208326 0.382838
-0.475636 -0.108561 0.787868 -0.688035 -0.162425 0.707267
-0.570523 -0.130218 0.722836 -0.371393 -0.091835 0.923923
-0.682450 -0.155765 0.700000 0.001662 -0.007283 0.999972
-0.794376 -0.181311 0.722836 0.374459 0.078401 0.923923
-0.889263 -0.202968 0.787868 0.690371 0.152187 0.707267
-0.952664 -0.217439 0.885195 0.901279 0.202809 0.382838
-0.900969 -0.433884 1.000000 0.900969 0.433884 0.000000
-0.880394 -0.423976 1.114805 0.831097 0.403376 -0.382838
-0.821803 -0.395759 1.212132 0.634641 0.311455 -0.707267
-0.734114 -0.353531 1.277164 0.341647 0.172175 -0.923923
-0.630678 -0.303719 1.300000 -0.003241 0.006731 -0.999972
-0.527242 -0.253907 1.277164 -0.347625 -0.159761 -0.923923
-0.439554 -0.211678 1.212132 -0.639198 -0.301994 -0.707267
-0.380962 -0.183462 1.114805 -0.833553 -0.398277 -0.382838
-0.360388 -0.173553 1.000000 -0.900969 -0.433884 -0.000000
-0.380962 -0.183462 0.885195 -0.831097 -0.403376 0.382838
-0.439554 -0.211678 0.787868 -0.634641 -0.311455 0.707267
-0.527242 -0.253907 0.722836 -0.341647 -0.172175 0.923923
-0.630678 -0.303719 0.700000 0.003241 -0.006731 0.999972
-0.734114 -0.353531 0.722836 0.347625 0.159761 0.923923
-0.821803 -0.395759 0.787868 0.639198 0.301994 0.707267
-0.880394 -0.423976 0.885195 0.833553 0.398277 0.382838
-0.781831 -0.623490 1.000000 0.781831 0.623490 0.000000
-0.763977 -0.609252 1.114805 0.720501 0.578199 -0.382838
-0.713134 -0.568705 1.212132 0.549424 0.444867 -0.707267
-0.637040 -0.508023 1.277164 0.294768 0.243882 -0.923923
-0.547282 -0.436443 1.300000 -0.004658 0.005841 -0.999972
-0.457524 -0.364863 1.277164 -0.303359 -0.233109 -0.923923
-0.381431 -0.304181 1.212132 -0.555972 -0.436657 -0.707267
-0.330587 -0.263634 1.114805 -0.724029 -0.573775 -0.382838
-0.312733 -0.249396 1.000000 -0.781831 -0.623490 0.000000
-0.330587 -0.263634 0.885195 -0.720501 -0.578199 0.382838
-0.381431 -0.304181 0.787868 -0.549424 -0.444867 0.707267
-0.457524 -0.364863 0.722836 -0.294768 -0.243882 0.923923
-0.547282 -0.436443 0.700000 0.004658 -0.005841 0.999972
-0.637040 -0.508023 0.722836 0.303359 0.233109 0.923923
-0.713134 -0.568705 0.787868 0.555972 0.436657 0.707267
-0.763977 -0.609252 0.885195 0.724029 0.573775 0.382838
-0.623490 -0.781831 1.000000 0.623490 0.781831 0.000000
-0.609252 -0.763977 1.114805 0.573775 0.724029 -0.382838
-0.568705 -0.713134 1.212132 0.436657 0.555972 -0.707267
-0.508023 -0.637040 1.277164 0.233109 0.303359 -0.923923
-0.436443 -0.547282 1.300000 -0.005841 0.004658 -0.999972
-0.364863 -0.457524 1.277164 -0.243882 -0.294768 -0.923923
-0.304181 -0.381431 1.212132 -0.444867 -0.549424 -0.707267
-0.263634 -0.330587 1.114805 -0.578199 -0.720501 -0.382838
-0.249396 -0.312733 1.000000 -0.623490 -0.781831 0.000000
-0.263634 -0.330587 0.885195 -0.573775 -0.724029 0.382838
-0.304181 -0.381431 0.787868 -0.436657 -0.555972 0.707267
-0.364863 -0.457524 0.722836 -0.233109 -0.303359 0.923923
-0.436443 -0.547282 0.700000 0.005841 -0.004658 0.999972
-0.508023 -0.637040 0.722836 0.243882 0.294768 0.923923
-0.568705 -0.713134 0.787868 0.444867 0.549424 0.707267
-0.609252 -0.763977 0.885195 0.578199 0.720501 0.382838
-0.433884 -0.900969 1.000000 0.433884 0.900969 0.000000
-0.423976 -0.880394 1.114805 0.398277 0.833553 -0.382838
-0.395759 -0.821803 1.212132 0.301994 0.639198 -0.707267
-0.353531 -0.734114 1.277164 0.159761 0.347625 -0.923923
-0.303719 -0.630678 1.300000 -0.006731 0.003241 -0.999972
-0.253907 -0.527242 1.277164 -0.172175 -0.341647 -0.923923
-0.211678 -0.439554 1.212132 -0.311455 -0.634641 -0.707267
-0.183462 -0.380962 1.114805 -0.403376 -0.831097 -0.382838
-0.173553 -0.360388 1.000000 -0.433884 -0.900969 0.000000
-0.183462 -0.380962 0.885195 -0.398277 -0.833553 0.382838
-0.211678 -0.439554 0.787868 -0.301994 -0.639198 0.707267
-0.253907 -0.527242 0.722836 -0.159761 -0.347625 0.923923
-0.303719 -0.630678 0.700000 0.006731 -0.003241 0.999972
-0.353531 -0.734114 0.722836 0.172175 0.341647 0.923923
-0.395759 -0.821803 0.787868 0.311455 0.634641 0.707267
-0.423976 -0.880394 0.885195 0.403376 0.831097 0.382838
-0.222521 -0.974928 1.000000 0.222521 0.974928 0.000000
-0.217439 -0.952664 1.114805 0.202809 0.901279 -0.382838
-0.202968 -0.889263 1.212132 0.152187 0.690371 -0.707267
-0.181311 -0.794376 1.277164 0.078401 0.374459 -0.923923
-0.155765 -0.682450 1.300000 -0.007283 0.001662 -0.999972
-0.130218 -0.570523 1.277164 -0.091835 -0.371393 -0.923923
-0.108561 -0.475636 1.212132 -0.162425 -0.688035 -0.707267
-0.094090 -0.412235 1.114805 -0.208326 -0.900020 -0.382838
-0.089008 -0.389971 1.000000 -0.222521 -0.974928 -0.000000
-0.094090 -0.412235 0.885195 -0.202809 -0.901279 0.382838
-0.108561 -0.475636 0.787868 -0.152187 -0.690371 0.707267
-0.130218 -0.570523 0.722836 -0.078401 -0.374459 0.923923
-0.155765 -0.682450 0.700000 0.007283 -0.001662 0.999972
-0.181311 -0.794376 0.722836 0.091835 0.371393 0.923923
-0.202968 -0.889263 0.787868 0.162425 0.688035 0.707267
-0.217439 -0.952664 0.885195 0.208326 0.900020 0.382838
-0.000000 -1.000000 1.000000 0.000000 1.000000 0.000000
-0.000000 -0.977164 1.114805 -0.002829 0.923811 -0.382838
-0.000000 -0.912132 1.212132 -0.005250 0.706927 -0.707267
-0.000000 -0.814805 1.277164 -0.006890 0.382517 -0.923923
-0.000000 -0.700000 1.300000 -0.007470 0.000000 -0.999972
-0.000000 -0.585195 1.277164 -0.006890 -0.382517 -0.923923
-0.000000 -0.487868 1.212132 -0.005250 -0.706927 -0.707267
-0.000000 -0.422836 1.114805 -0.002829 -0.923811 -0.382838
-0.000000 -0.400000 1.000000 -0.000000 -1.000000 -0.000000
-0.000000 -0.422836 0.885195 0.002829 -0.923811 0.382838
-0.000000 -0.487868 0.787868 0.005250 -0.706927 0.707267
-0.000000 -0.585195 0.722836 0.006890 -0.382517 0.923923
-0.000000 -0.700000 0.700000 0.007470 -0.000000 0.999972
-0.000000 -0.814805 0.722836 0.006890 0.382517 0.923923
-0.000000 -0.912132 0.787868 0.005250 0.706927 0.707267
-0.000000 -0.977164 0.885195 0.002829 0.923811 0.382838
0.222521 -0.974928 1.000000 -0.222521 0.974928 0.000000
0.217439 -0.952664 1.114805 -0.208326 0.900020 -0.382838
0.202968 -0.889263 1.212132 -0.162425 0.688035 -0.707267
0.181311 -0.794376 1.277164 -0.091835 0.371393 -0.923923
0.155765 -0.682450 1.300000 -0.007283 -0.001662 -0.999972
0.130218 -0.570523 1.277164 0.078401 -0.374459 -0.923923
0.108561 -0.475636 1.212132 0.152187 -0.690371 -0.707267
0.094090 -0.412235 1.114805 0.202809 -0.901279 -0.382838
0.089008 -0.389971 1.000000 0.222521 -0.974928 -0.000000
0.094090 -0.412235 0.885195 0.208326 -0.900020 0.382838
0.108561 -0.475636 0.787868 0.162425 -0.688035 0.707267
0.130218 -0.570523 0.722836 0.091835 -0.371393 0.923923
0.155765 -0.682450 0.700000 0.007283 0.001662 0.999972
0.181311 -0.794376 0.722836 -0.078401 0.374459 0.923923
0.202968 -0.889263 0.787868 -0.152187 0.690371 0.707267
0.217439 -0.952664 0.885195 -0.202809 0.901279 0.382838
0.433884 -0.900969 1.000000 -0.433884 0.900969 0.000000
0.423976 -0.880394 1.114805 -0.403376 0.831097 -0.382838
0.395759 -0.821803 1.212132 -0.311455 0.634641 -0.707267
0.353531 -0.734114 1.277164 -0.172175 0.341647 -0.923923
0.303719 -0.630678 1.300000 -0.006731 -0.003241 -0.999972
0.253907 -0.527242 1.277164 0.159761 -0.347625 -0.923923
0.211678 -0.439554 1.212132 0.301994 -0.639198 -0.707267
0.183462 -0.380962 1.114805 0.398277 -0.833553 -0.382838
0.173553 -0.360388 1.000000 0.433884 -0.900969 0.000000
0.183462 -0.380962 0.885195 0.403376 -0.831097 0.382838
0.211678 -0.439554 0.787868 0.311455 -0.634641 0.707267
0.253907 -0.527242 0.722836 0.172175 -0.341647 0.923923
0.303719 -0.630678 0.700000 0.006731 0.003241 0.999972
0.353531 -0.734114 0.722836 -0.159761 0.347625 0.923923
0.395759 -0.821803 0.787868 -0.301994 0.639198 0.707267
0.423976 -0.880394 0.885195 -0.398277 0.833553 0.382838
0.623490 -0.781831 1.000000 -0.623490 0.781831 0.000000
0.609252 -0.763977 1.114805 -0.578199 0.720501 -0.382838
0.568705 -0.713134 1.212132 -0.444867 0.549424 -0.707267
0.508023 -0.637040 1.277164 -0.243882 0.294768 -0.923923
0.436443 -0.547282 1.300000 -0.005841 -0.004658 -0.999972
0.364863 -0.457524 1.277164 0.233109 -0.303359 -0.923923
0.304181 -0.381431 1.212132 0.436657 -0.555972 -0.707267
0.263634 -0.330587 1.114805 0.573775 -0.724029 -0.382838
0.249396 -0.312733 1.000000 0.623490 -0.781831 0.000000
0.263634 -0.330587 0.885195 0.578199 -0.720501 0.382838
0.304181 -0.381431 0.787868 0.444867 -0.549424 0.707267
0.364863 -0.457524 0.722836 0.243882 -0.294768 0.923923
0.436443 -0.547282 0.700000 0.005841 0.004658 0.999972
0.508023 -0.637040 0.722836 -0.233109 0.303359 0.923923
0.568705 -0.713134 0.787868 -0.436657 0.555972 0.707267
0.609252 -0.763977 0.885195 -0.573775 0.724029 0.382838
0.781831 -0.623490 1.000000 -0.781831 0.623490 0.000000
0.763977 -0.609252 1.114805 -0.724029 0.573775 -0.382838
0.713134 -0.568705 1.212132 -0.555972 0.436657 -0.707267
0.637040 -0.508023 1.277164 -0.303359 0.233109 -0.923923
0.547282 -0.436443 1.300000 -0.004658 -0.005841 -0.999972
0.457524 -0.364863 1.277164 0.294768 -0.243882 -0.923923
0.381431 -0.304181 1.212132 0.549424 -0.444867 -0.707267
0.330587 -0.263634 1.114805 0.720501 -0.578199 -0.382838
0.312733 -0.249396 1.000000 0.781831 -0.623490 -0.000000
0.330587 -0.263634 0.885195 0.724029 -0.573775 0.382838
0.381431 -0.304181 0.787868 0.555972 -0.436657 0.707267
0.457524 -0.364863 0.722836 0.303359 -0.233109 0.923923
0.547282 -0.436443 0.700000 0.004658 0.005841 0.999972
0.637040 -0.508023 0.722836 -0.294768 0.243882 0.923923
0.713134 -0.568705 0.787868 -0.549424 0.444867 0.707267
0.763977 -0.609252 0.885195 -0.720501 0.578199 0.382838
0.900969 -0.433884 1.000000 -0.900969 0.433884 0.000000
0.880394 -0.423976 1.114805 -0.833553 0.398277 -0.382838
0.821803 -0.395759 1.212132 -0.639198 0.301994 -0.707267
0.734114 -0.353531 1.277164 -0.347625 0.159761 -0.923923
0.630678 -0.303719 1.300000 -0.003241 -0.006731 -0.999972
0.527242 -0.253907 1.277164 0.341647 -0.172175 -0.923923
0.439554 -0.211678 1.212132 0.634641 -0.311455 -0.707267
0.380962 -0.183462 1.114805 0.831097 -0.403376 -0.382838
0.360388 -0.173553 1.000000 0.900969 -0.433884 0.000000
0.380962 -0.183462 0.885195 0.833553 -0.398277 0.382838
0.439554 -0.211678 0.787868 0.639198 -0.301994 0.707267
0.527242 -0.253907 0.722836 0.347625 -0.159761 0.923923
0.630678 -0.303719 0.700000 0.003241 0.006731 0.999972
0.734114 -0.353531 0.722836 -0.341647 0.172175 0.923923
0.821803 -0.395759 0.787868 -0.634641 0.311455 0.707267
0.880394 -0.423976 0.885195 -0.831097 0.403376 0.382838
0.974928 -0.222521 1.000000 -0.974928 0.222521 0.000000
0.952664 -0.217439 1.114805 -0.901279 0.202809 -0.382838
0.889263 -0.202968 1.212132 -0.690371 0.152187 -0.707267
0.794376 -0.181311 1.277164 -0.374459 0.078401 -0.923923
0.682450 -0.155765 1.300000 -0.001662 -0.007283 -0.999972
0.570523 -0.130218 1.277164 0.371393 -0.091835 -0.923923
0.475636 -0.108561 1.212132 0.688035 -0.162425 -0.707267
0.412235 -0.094090 1.114805 0.900020 -0.208326 -0.382838
0.389971 -0.089008 1.000000 0.974928 -0.222521 0.000000
0.412235 -0.094090 0.885195 0.901279 -0.202809 0.382838
0.475636 -0.108561 0.787868 0.690371 -0.152187 0.707267
0.570523 -0.130218 0.722836 0.374459 -0.078401 0.923923
0.682450 -0.155765 0.700000 0.001662 0.007283 0.999972
0.794376 -0.181311 0.722836 -0.371393 0.091835 0.923923
0.889263 -0.202968 0.787868 -0.688035 0.162425 0.707267
0.952664 -0.217439 0.885195 -0.900020 0.208326 0.382838
3.200000 0.000000 1.000000 -0.889789 -0.456372 -0.000000
3.177164 0.000000 1.114805 -0.821201 -0.458056 -0.340315
3.112132 0.000000 1.212132 -0.628063 -0.459016 -0.628364
3.014805 0.000000 1.277164 -0.339766 -0.459426 -0.820663
2.900000 0.000000 1.300000 -0.000000 -0.174714 -0.984619
2.785195 0.000000 1.277164 0.341667 0.449689 -0.825254
2.687868 0.000000 1.212132 0.630742 0.451605 -0.631045
2.622836 0.000000 1.114805 0.823089 0.454067 -0.341098
2.600000 0.000000 1.000000 0.889789 0.456372 0.000000
2.622836 0.000000 0.885195 0.821201 0.458056 0.340315
2.687868 0.000000 0.787868 0.628063 0.459016 0.628364
2.785195 0.000000 0.722836 0.339766 0.459426 0.820663
2.900000 0.000000 0.700000 0.000000 0.174714 0.984619
3.014805 0.000000 0.722836 -0.341667 -0.449689 0.825254
3.112132 0.000000 0.787868 -0.630742 -0.451605 0.631045
3.177164 0.000000 0.885195 -0.823089 -0.454067 0.341098
3.174928 0.222521 1.000000 -0.974928 -0.222521 -0.000000
3.152664 0.217439 1.114805 -0.900020 -0.208326 -0.382838
3.089263 0.202968 1.212132 -0.688035 -0.162425 -0.707267
2.994376 0.181311 1.277164 -0.371393 -0.091835 -0.923923
2.882450 0.155765 1.300000 0.001662 -0.007283 -0.999972
2.770523 0.130218 1.277164 0.374459 0.078401 -0.923923
2.675636 0.108561 1.212132 0.690371 0.152187 -0.707267
2.612235 0.094090 1.114805 0.901279 0.202809 -0.382838
2.589971 0.089008 1.000000 0.974928 0.222521 0.000000
2.612235 0.094090 0.885195 0.900020 0.208326 0.382838
2.675636 0.108561 0.787868 0.688035 0.162425 0.707267
2.770523 0.130218 0.722836 0.371393 0.091835 0.923923
2.882450 0.155765 0.700000 -0.001662 0.007283 0.999972
2.994376 0.181311 0.722836 -0.374459 -0.078401 0.923923
3.089263 0.202968 0.787868 -0.690371 -0.152187 0.707267
3.152664 0.217439 0.885195 -0.901279 -0.202809 0.382838
3.100969 0.433884 1.000000 -0.900969 -0.433884 0.000000
3.080394 0.423976 1.114805 -0.831097 -0.403376 -0.382838
3.021803 0.395759 1.212132 -0.634641 -0.311455 -0.707267
2.934114 0.353531 1.277164 -0.341647 -0.172175 -0.923923
2.830678 0.303719 1.300000 0.003241 -0.006731 -0.999972
2.727242 0.253907 1.277164 0.347625 0.159761 -0.923923
2.639554 0.211678 1.212132 0.639198 0.301994 -0.707267
2.580962 0.183462 1.114805 0.833553 0.398277 -0.382838
2.560388 0.173553 1.000000 0.900969 0.433884 -0.000000
2.580962 0.183462 0.885195 0.831097 0.403376 0.382838
2.639554 0.211678 0.787868 0.634641 0.311455 0.707267
2.727242 0.253907 0.722836 0.341647 0.172175 0.923923
2.830678 0.303719 0.700000 -0.003241 0.006731 0.999972
2.934114 0.353531 0.722836 -0.347625 -0.159761 0.923923
3.021803 0.395759 0.787868 -0.639198 -0.301994 0.707267
3.080394 0.423976 0.885195 -0.833553 -0.398277 0.382838
2.981831 0.623490 1.000000 -0.781831 -0.623490 0.000000
2.963977 0.609252 1.114805 -0.720501 -0.578199 -0.382838
2.913134 0.568705 1.212132 -0.549424 -0.444867 -0.707267
2.837040 0.508023 1.277164 -0.294768 -0.243882 -0.923923
2.747282 0.436443 1.300000 0.004658 -0.005841 -0.999972
2.657524 0.364863 1.277164 0.303359 0.233109 -0.923923
2.581431 0.304181 1.212132 0.555972 0.436657 -0.707267
2.530587 0.263634 1.114805 0.724029 0.573775 -0.382838
2.512733 0.249396 1.000000 0.781831 0.623490 -0.000000
2.530587 0.263634 0.885195 0.720501 0.578199 0.382838
2.581431 0.304181 0.787868 0.549424 0.444867 0.707267
2.657524 0.364863 0.722836 0.294768 0.243882 0.923923
2.747282 0.436443 0.700000 -0.004658 0.005841 0.999972
2.837040 0.508023 0.722836 -0.303359 -0.233109 0.923923
2.913134 0.568705 0.787868 -0.555972 -0.436657 0.707267
2.963977 0.609252 0.885195 -0.724029 -0.573775 0.382838
2.823490 0.781831 1.000000 -0.623490 -0.781831 0.000000
2.809252 0.763977 1.114805 -0.573775 -0.724029 -0.382838
2.768705 0.713134 1.212132 -0.436657 -0.555972 -0.707267
2.708023 0.637040 1.277164 -0.233109 -0.303359 -0.923923
2.636443 0.547282 1.300000 0.005841 -0.004658 -0.999972
2.564863 0.457524 1.277164 0.243882 0.294768 -0.923923
2.504181 0.381431 1.212132 0.444867 0.549424 -0.707267
2.463634 0.330587 1.114805 0.578199 0.720501 -0.382838
2.449396 0.312733 1.000000 0.623490 0.781831 -0.000000
2.463634 0.330587 0.885195 0.573775 0.724029 0.382838
2.504181 0.381431 0.787868 0.436657 0.555972 0.707267
2.564863 0.457524 0.722836 0.233109 0.303359 0.923923
2.636443 0.547282 0.700000 -0.005841 0.004658 0.999972
2.708023 0.637040 0.722836 -0.243882 -0.294768 0.923923
2.768705 0.713134 0.787868 -0.444867 -0.549424 0.707267
2.809252 0.763977 0.885195 -0.578199 -0.720501 0.382838
2.633884 0.900969 1.000000 -0.433884 -0.900969 0.000000
2.623976 0.880394 1.114805 -0.398277 -0.833553 -0.382838
2.595759 0.821803 1.212132 -0.301994 -0.639198 -0.707267
2.553531 0.734114 1.277164 -0.159761 -0.347625 -0.923923
2.503719 0.630678 1.300000 0.006731 -0.003241 -0.999972
2.453907 0.527242 1.277164 0.172175 0.341647 -0.923923
2.411678 0.439554 1.212132 0.311455 0.634641 -0.707267
2.383462 0.380962 1.114805 0.403376 0.831097 -0.382838
2.373553 0.360388 1.000000 0.433884 0.900969 0.000000
2.383462 0.380962 0.885195 0.398277 0.833553 0.382838
2.411678 0.439554 0.787868 0.301994 0.639198 0.707267
2.453907 0.527242 0.722836 0.159761 0.347625 0.923923
2.503719 0.630678 0.700000 -0.006731 0.003241 0.999972
2.553531 0.734114 0.722836 -0.172175 -0.341647 0.923923
2.595759 0.821803 0.787868 -0.311455 -0.634641 0.707267
2.623976 0.880394 0.885195 -0.403376 -0.831097 0.382838
2.422521 0.974928 1.000000 -0.222521 -0.974928 0.000000
2.417439 0.952664 1.114805 -0.202809 -0.901279 -0.382838
2.402968 0.889263 1.212132 -0.152187 -0.690371 -0.707267
2.381311 0.794376 1.277164 -0.078401 -0.374459 -0.923923
2.355765 0.682450 1.300000 0.007283 -0.001662 -0.999972
2.330218 0.570523 1.277164 0.091835 0.371393 -0.923923
2.308561 0.475636 1.212132 0.162425 0.688035 -0.707267
2.294090 0.412235 1.114805 0.208326 0.900020 -0.382838
2.289008 0.389971 1.000000 0.222521 0.974928 0.000000
2.294090 0.412235 0.885195 0.202809 0.901279 0.382838
2.308561 0.475636 0.787868 0.152187 0.690371 0.707267
2.330218 0.570523 0.722836 0.078401 0.374459 0.923923
2.355765 0.682450 0.700000 -0.007283 0.001662 0.999972
2.381311 0.794376 0.722836 -0.091835 -0.371393 0.923923
2.402968 0.889263 0.787868 -0.162425 -0.688035 0.707267
2.417439 0.952664 0.885195 -0.208326 -0.900020 0.382838
2.200000 1.000000 1.000000 0.000000 -1.000000 0.000000
2.200000 0.977164 1.114805 0.002829 -0.923811 -0.382838
2.200000 0.912132 1.212132 0.005250 -0.706927 -0.707267
2.200000 0.814805 1.277164 0.006890 -0.382517 -0.923923
2.200000 0.700000 1.300000 0.007470 -0.000000 -0.999972
2.200000 0.585195 1.277164 0.006890 0.382517 -0.923923
2.200000 0.487868 1.212132 0.005250 0.706927 -0.707267
2.200000 0.422836 1.114805 0.002829 0.923811 -0.382838
2.200000 0.400000 1.000000 0.000000 1.000000 0.000000
2.200000 0.422836 0.885195 -0.002829 0.923811 0.382838
2.200000 0.487868 0.787868 -0.005250 0.706927 0.707267
2.200000 0.585195 0.722836 -0.006890 0.382517 0.923923
2.200000 0.700000 0.700000 -0.007470 0.000000 0.999972
2.200000 0.814805 0.722836 -0.006890 -0.382517 0.923923
2.200000 0.912132 0.787868 -0.005250 -0.706927 0.707267
2.200000 0.977164 0.885195 -0.002829 -0.923811 0.382838
1.977479 0.974928 1.000000 0.222521 -0.974928 0.000000
1.982561 0.952664 1.114805 0.208326 -0.900020 -0.382838
1.997032 0.889263 1.212132 0.162425 -0.688035 -0.707267
2.018689 0.794376 1.277164 0.091835 -0.371393 -0.923923
2.044235 0.682450 1.300000 0.007283 0.001662 -0.999972
2.069782 0.570523 1.277164 -0.078401 0.374459 -0.923923
2.091439 0.475636 1.212132 -0.152187 0.690371 -0.707267
2.105910 0.412235 1.114805 -0.202809 0.901279 -0.382838
2.110992 0.389971 1.000000 -0.222521 0.974928 -0.000000
2.105910 0.412235 0.885195 -0.208326 0.900020 0.382838
2.091439 0.475636 0.787868 -0.162425 0.688035 0.707267
2.069782 0.570523 0.722836 -0.091835 0.371393 0.923923
2.044235 0.682450 0.700000 -0.007283 -0.001662 0.999972
2.018689 0.794376 0.722836 0.078401 -0.374459 0.923923
1.997032 0.889263 0.787868 0.152187 -0.690371 0.707267
1.982561 0.952664 0.885195 0.202809 -0.901279 0.382838
1.766116 0.900969 1.000000 0.433884 -0.900969 0.000000
1.776024 0.880394 1.114805 0.403376 -0.831097 -0.382838
1.804241 0.821803 1.212132 0.311455 -0.634641 -0.707267
1.846469 0.734114 1.277164 0.172175 -0.341647 -0.923923
1.896281 0.630678 1.300000 0.006731 0.003241 -0.999972
1.946093 0.527242 1.277164 -0.159761 0.347625 -0.923923
1.988322 0.439554 1.212132 -0.301994 0.639198 -0.707267
2.016538 0.380962 1.114805 -0.398277 0.833553 -0.382838
2.026447 0.360388 1.000000 -0.433884 0.900969 -0.000000
2.016538 0.380962 0.885195 -0.403376 0.831097 0.382838
1.988322 0.439554 0.787868 -0.311455 0.634641 0.707267
1.946093 0.527242 0.722836 -0.172175 0.341647 0.923923
1.896281 0.630678 0.700000 -0.006731 -0.003241 0.999972
1.846469 0.734114 0.722836 0.159761 -0.347625 0.923923
1.804241 0.821803 0.787868 0.301994 -0.639198 0.707267
1.776024 0.880394 0.885195 0.398277 -0.833553 0.382838
1.576510 0.781831 1.000000 0.623490 -0.781831 0.000000
1.590748 0.763977 1.114805 0.578199 -0.720501 -0.382838
1.631295 0.713134 1.212132 0.444867 -0.549424 -0.707267
1.691977 0.637040 1.277164 0.243882 -0.294768 -0.923923
1.763557 0.547282 1.300000 0.005841 0.004658 -0.999972
1.835137 0.457524 1.277164 -0.233109 0.303359 -0.923923
1.895819 0.381431 1.212132 -0.436657 0.555972 -0.707267
1.936366 0.330587 1.114805 -0.573775 0.724029 -0.382838
1.950604 0.312733 1.000000 -0.623490 0.781831 0.000000
1.936366 0.330587 0.885195 -0.578199 0.720501 0.382838
1.895819 0.381431 0.787868 -0.444867 0.549424 0.707267
1.835137 0.457524 0.722836 -0.243882 0.294768 0.923923
1.763557 0.547282 0.700000 -0.005841 -0.004658 0.999972
1.691977 0.637040 0.722836 0.233109 -0.303359 0.923923
1.631295 0.713134 0.787868 0.436657 -0.555972 0.707267
1.590748 0.763977 0.885195 0.573775 -0.724029 0.382838
1.418169 0.623490 1.000000 0.781831 -0.623490 0.000000
1.436023 0.609252 1.114805 0.724029 -0.573775 -0.382838
1.486866 0.568705 1.212132 0.555972 -0.436657 -0.707267
1.562960 0.508023 1.277164 0.303359 -0.233109 -0.923923
1.652718 0.436443 1.300000 0.004658 0.005841 -0.999972
1.742476 0.364863 1.277164 -0.294768 0.243882 -0.923923
1.818569 0.304181 1.212132 -0.549424 0.444867 -0.707267
1.869413 0.263634 1.114805 -0.720501 0.578199 -0.382838
1.887267 0.249396 1.000000 -0.781831 0.623490 0.000000
1.869413 0.263634 0.885195 -0.724029 0.573775 0.382838
1.818569 0.304181 0.787868 -0.555972 0.436657 0.707267
1.742476 0.364863 0.722836 -0.303359 0.233109 0.923923
1.652718 0.436443 0.700000 -0.004658 -0.005841 0.999972
1.562960 0.508023 0.722836 0.294768 -0.243882 0.923923
1.486866 0.568705 0.787868 0.549424 -0.444867 0.707267
1.436023 0.609252 0.885195 0.720501 -0.578199 0.382838
1.299031 0.433884 1.000000 0.900969 -0.433884 0.000000
1.319606 0.423976 1.114805 0.833553 -0.398277 -0.382838
1.378197 0.395759 1.212132 0.639198 -0.301994 -0.707267
1.465886 0.353531 1.277164 0.347625 -0.159761 -0.923923
1.569322 0.303719 1.300000 0.003241 0.006731 -0.999972
1.672758 0.253907 1.277164 -0.341647 0.172175 -0.923923
1.760446 0.211678 1.212132 -0.634641 0.311455 -0.707267
1.819038 0.183462 1.114805 -0.831097 0.403376 -0.382838
1.839612 0.173553 1.000000 -0.900969 0.433884 0.000000
1.819038 0.183462 0.885195 -0.833553 0.398277 0.382838
1.760446 0.211678 0.787868 -0.639198 0.301994 0.707267
1.672758 0.253907 0.722836 -0.347625 0.159761 0.923923
1.569322 0.303719 0.700000 -0.003241 -0.006731 0.999972
1.465886 0.353531 0.722836 0.341647 -0.172175 0.923923
1.378197 0.395759 0.787868 0.634641 -0.311455 0.707267
1.319606 0.423976 0.885195 0.831097 -0.403376 0.382838
1.225072 0.222521 1.000000 0.974928 -0.222521 0.000000
1.247336 0.217439 1.114805 0.901279 -0.202809 -0.382838
1.310737 0.202968 1.212132 0.690371 -0.152187 -0.707267
1.405624 0.181311 1.277164 0.374459 -0.078401 -0.923923
1.517550 0.155765 1.300000 0.001662 0.007283 -0.999972
1.629477 0.130218 1.277164 -0.371393 0.091835 -0.923923
1.724364 0.108561 1.212132 -0.688035 0.162425 -0.707267
1.787765 0.094090 1.114805 -0.900020 0.208326 -0.382838
1.810029 0.089008 1.000000 -0.974928 0.222521 -0.000000
1.787765 0.094090 0.885195 -0.901279 0.202809 0.382838
1.724364 0.108561 0.787868 -0.690371 0.152187 0.707267
1.629477 0.130218 0.722836 -0.374459 0.078401 0.923923
1.517550 0.155765 0.700000 -0.001662 -0.007283 0.999972
1.405624 0.181311 0.722836 0.371393 -0.091835 0.923923
1.310737 0.202968 0.787868 0.688035 -0.162425 0.707267
1.247336 0.217439 0.885195 0.900020 -0.208326 0.382838
1.200000 0.000000 1.000000 1.000000 0.000000 0.000000
1.222836 0.000000 1.114805 0.923811 0.002829 -0.382838
1.287868 0.000000 1.212132 0.706927 0.005250 -0.707267
1.385195 0.000000 1.277164 0.382517 0.006890 -0.923923
1.500000 0.000000 1.300000 0.000000 0.007470 -0.999972
1.614805 0.000000 1.277164 -0.382517 0.006890 -0.923923
1.712132 0.000000 1.212132 -0.706927 0.005250 -0.707267
1.777164 0.000000 1.114805 -0.923811 0.002829 -0.382838
1.800000 0.000000 1.000000 -1.000000 0.000000 0.000000
1.777164 0.000000 0.885195 -0.923811 -0.002829 0.382838
1.712132 0.000000 0.787868 -0.706927 -0.005250 0.707267
1.614805 0.000000 0.722836 -0.382517 -0.006890 0.923923
1.500000 0.000000 0.700000 -0.000000 -0.007470 0.999972
1.385195 0.000000 0.722836 0.382517 -0.006890 0.923923
1.287868 0.000000 0.787868 0.706927 -0.005250 0.707267
1.222836 0.000000 0.885195 0.923811 -0.002829 0.382838
1.225072 -0.222521 1.000000 0.974928 0.222521 0.000000
1.247336 -0.217439 1.114805 0.900020 0.208326 -0.382838
1.310737 -0.202968 1.212132 0.688035 0.162425 -0.707267
1.405624 -0.181311 1.277164 0.371393 0.091835 -0.923923
1.517550 -0.155765 1.300000 -0.001662 0.007283 -0.999972
1.629477 -0.130218 1.277164 -0.374459 -0.078401 -0.923923
1.724364 -0.108561 1.212132 -0.690371 -0.152187 -0.707267
1.787765 -0.094090 1.114805 -0.901279 -0.202809 -0.382838
1.810029 -0.089008 1.000000 -0.974928 -0.222521 0.000000
1.787765 -0.094090 0.885195 -0.900020 -0.208326 0.382838
1.724364 -0.108561 0.787868 -0.688035 -0.162425 0.707267
1.629477 -0.130218 0.722836 -0.371393 -0.091835 0.923923
1.517550 -0.155765 0.700000 0.001662 -0.007283 0.999972
1.405624 -0.181311 0.722836 0.374459 0.078401 0.923923
1.310737 -0.202968 0.787868 0.690371 0.152187 0.707267
1.247336 -0.217439 0.885195 0.901279 0.202809 0.382838
1.299031 -0.433884 1.000000 0.900969 0.433884 0.000000
1.319606 -0.423976 1.114805 0.831097 0.403376 -0.382838
1.378197 -0.395759 1.212132 0.634641 0.311455 -0.707267
1.465886 -0.353531 1.277164 0.341647 0.172175 -0.923923
1.569322 -0.303719 1.300000 -0.003241 0.006731 -0.999972
1.672758 -0.253907 1.277164 -0.347625 -0.159761 -0.923923
1.760446 -0.211678 1.212132 -0.639198 -0.301994 -0.707267
1.819038 -0.183462 1.114805 -0.833553 -0.398277 -0.382838
1.839612 -0.173553 1.000000 -0.900969 -0.433884 -0.000000
1.819038 -0.183462 0.885195 -0.831097 -0.403376 0.382838
1.760446 -0.211678 0.787868 -0.634641 -0.311455 0.707267
1.672758 -0.253907 0.722836 -0.341647 -0.172175 0.923923
1.569322 -0.303719 0.700000 0.003241 -0.006731 0.999972
1.465886 -0.353531 0.722836 0.347625 0.159761 0.923923
1.378197 -0.395759 0.787868 0.639198 0.301994 0.707267
1.319606 -0.423976 0.885195 0.833553 0.398277 0.382838
1.418169 -0.623490 1.000000 0.781831 0.623490 0.000000
1.436023 -0.609252 1.114805 0.720501 0.578199 -0.382838
1.486866 -0.568705 1.212132 0.549424 0.444867 -0.707267
1.562960 -0.508023 1.277164 0.294768 0.243882 -0.923923
1.652718 -0.436443 1.300000 -0.004658 0.005841 -0.999972
1.742476 -0.364863 1.277164 -0.303359 -0.233109 -0.923923
1.818569 -0.304181 1.212132 -0.555972 -0.436657 -0.707267
1.869413 -0.263634 1.114805 -0.724029 -0.573775 -0.382838
1.887267 -0.249396 1.000000 -0.781831 -0.623490 -0.000000
1.869413 -0.263634 0.885195 -0.720501 -0.578199 0.382838
1.818569 -0.304181 0.787868 -0.549424 -0.444867 0.707267
1.742476 -0.364863 0.722836 -0.294768 -0.243882 0.923923
1.652718 -0.436443 0.700000 0.004658 -0.005841 0.999972
1.562960 -0.508023 0.722836 0.303359 0.233109 0.923923
1.486866 -0.568705 0.787868 0.555972 0.436657 0.707267
1.436023 -0.609252 0.885195 0.724029 0.573775 0.382838
1.576510 -0.781831 1.000000 0.623490 0.781831 0.000000
1.590748 -0.763977 1.114805 0.573775 0.724029 -0.382838
1.631295 -0.713134 1.212132 0.436657 0.555972 -0.707267
1.691977 -0.637040 1.277164 0.233109 0.303359 -0.923923
1.763557 -0.547282 1.300000 -0.005841 0.004658 -0.999972
1.835137 -0.457524 1.277164 -0.243882 -0.294768 -0.923923
1.895819 -0.381431 1.212132 -0.444867 -0.549424 -0.707267
1.936366 -0.330587 1.114805 -0.578199 -0.720501 -0.382838
1.950604 -0.312733 1.000000 -0.623490 -0.781831 0.000000
1.936366 -0.330587 0.885195 -0.573775 -0.724029 0.382838
1.895819 -0.381431 0.787868 -0.436657 -0.555972 0.707267
1.835137 -0.457524 0.722836 -0.233109 -0.303359 0.923923
1.763557 -0.547282 0.700000 0.005841 -0.004658 0.999972
1.691977 -0.637040 0.722836 0.243882 0.294768 0.923923
1.631295 -0.713134 0.787868 0.444867 0.549424 0.707267
1.590748 -0.763977 0.885195 0.578199 0.720501 0.382838
1.766116 -0.900969 1.000000 0.433884 0.900969 0.000000
1.776024 -0.880394 1.114805 0.398277 0.833553 -0.382838
1.804241 -0.821803 1.212132 0.301994 0.639198 -0.707267
1.846469 -0.734114 1.277164 0.159761 0.347625 -0.923923
1.896281 -0.630678 1.300000 -0.006731 0.003241 -0.999972
1.946093 -0.527242 1.277164 -0.172175 -0.341647 -0.923923
1.988322 -0.439554 1.212132 -0.311455 -0.634641 -0.707267
2.016538 -0.380962 1.114805 -0.403376 -0.831097 -0.382838
2.026447 -0.360388 1.000000 -0.433884 -0.900969 0.000000
2.016538 -0.380962 0.885195 -0.398277 -0.833553 0.382838
1.988322 -0.439554 0.787868 -0.301994 -0.639198 0.707267
1.946093 -0.527242 0.722836 -0.159761 -0.347625 0.923923
1.896281 -0.630678 0.700000 0.006731 -0.003241 0.999972
1.846469 -0.734114 0.722836 0.172175 0.341647 0.923923
1.804241 -0.821803 0.787868 0.311455 0.634641 0.707267
1.776024 -0.880394 0.885195 0.403376 0.831097 0.382838
1.977479 -0.974928 1.000000 0.222521 0.974928 0.000000
1.982561 -0.952664 1.114805 0.202809 0.901279 -0.382838
1.997032 -0.889263 1.212132 0.152187 0.690371 -0.707267
2.018689 -0.794376 1.277164 0.078401 0.374459 -0.923923
2.044235 -0.682450 1.300000 -0.007283 0.001662 -0.999972
2.069782 -0.570523 1.277164 -0.091835 -0.371393 -0.923923
2.091439 -0.475636 1.212132 -0.162425 -0.688035 -0.707267
2.105910 -0.412235 1.114805 -0.208326 -0.900020 -0.382838
2.110992 -0.389971 1.000000 -0.222521 -0.974928 -0.000000
2.105910 -0.412235 0.885195 -0.202809 -0.901279 0.382838
2.091439 -0.475636 0.787868 -0.152187 -0.690371 0.707267
2.069782 -0.570523 0.722836 -0.078401 -0.374459 0.923923
2.044235 -0.682450 0.700000 0.007283 -0.001662 0.999972
2.018689 -0.794376 0.722836 0.091835 0.371393 0.923923
1.997032 -0.889263 0.787868 0.162425 0.688035 0.707267
1.982561 -0.952664 0.885195 0.208326 0.900020 0.382838
2.200000 -1.000000 1.000000 0.000000 1.000000 0.000000
2.200000 -0.977164 1.114805 -0.002829 0.923811 -0.382838
2.200000 -0.912132 1.212132 -0.005250 0.706927 -0.707267
2.200000 -0.814805 1.277164 -0.006890 0.382517 -0.923923
2.200000 -0.700000 1.300000 -0.007470 0.000000 -0.999972
2.200000 -0.585195 1.277164 -0.006890 -0.382517 -0.923923
2.200000 -0.487868 1.212132 -0.005250 -0.706927 -0.707267
2.200000 -0.422836 1.114805 -0.002829 -0.923811 -0.382838
2.200000 -0.400000 1.000000 0.000000 -1.000000 -0.000000
2.200000 -0.422836 0.885195 0.002829 -0.923811 0.382838
2.200000 -0.487868 0.787868 0.005250 -0.706927 0.707267
2.200000 -0.585195 0.722836 0.006890 -0.382517 0.923923
2.200000 -0.700000 0.700000 0.007470 -0.000000 0.999972
2.200000 -0.814805 0.722836 0.006890 0.382517 0.923923
2.200000 -0.912132 0.787868 0.005250 0.706927 0.707267
2.200000 -0.977164 0.885195 0.002829 0.923811 0.382838
2.422521 -0.974928 1.000000 -0.222521 0.974928 0.000000
2.417439 -0.952664 1.114805 -0.208326 0.900020 -0.382838
2.402968 -0.889263 1.212132 -0.162425 0.688035 -0.707267
2.381311 -0.794376 1.277164 -0.091835 0.371393 -0.923923
2.355765 -0.682450 1.300000 -0.007283 -0.001662 -0.999972
2.330218 -0.570523 1.277164 0.078401 -0.374459 -0.923923
2.308561 -0.475636 1.212132 0.152187 -0.690371 -0.707267
2.294090 -0.412235 1.114805 0.202809 -0.901279 -0.382838
2.289008 -0.389971 1.000000 0.222521 -0.974928 -0.000000
2.294090 -0.412235 0.885195 0.208326 -0.900020 0.382838
2.308561 -0.475636 0.787868 0.162425 -0.688035 0.707267
2.330218 -0.570523 0.722836 0.091835 -0.371393 0.923923
2.355765 -0.682450 0.700000 0.007283 0.001662 0.999972
2.381311 -0.794376 0.722836 -0.078401 0.374459 0.923923
2.402968 -0.889263 0.787868 -0.152187 0.690371 0.707267
2.417439 -0.952664 0.885195 -0.202809 0.901279 0.382838
2.633884 -0.900969 1.000000 -0.433884 0.900969 0.000000
2.623976 -0.880394 1.114805 -0.403376 0.831097 -0.382838
2.595759 -0.821803 1.212132 -0.311455 0.634641 -0.707267
2.553531 -0.734114 1.277164 -0.172175 0.341647 -0.923923
2.503719 -0.630678 1.300000 -0.006731 -0.003241 -0.999972
2.453907 -0.527242 1.277164 0.159761 -0.347625 -0.923923
2.411678 -0.439554 1.212132 0.301994 -0.639198 -0.707267
2.383462 -0.380962 1.114805 0.398277 -0.833553 -0.382838
2.373553 -0.360388 1.000000 0.433884 -0.900969 0.000000
2.383462 -0.380962 0.885195 0.403376 -0.831097 0.382838
2.411678 -0.439554 0.787868 0.311455 -0.634641 0.707267
2.453907 -0.527242 0.722836 0.172175 -0.341647 0.923923
2.503719 -0.630678 0.700000 0.006731 0.003241 0.999972
2.553531 -0.734114 0.722836 -0.159761 0.347625 0.923923
2.595759 -0.821803 0.787868 -0.301994 0.639198 0.707267
2.623976 -0.880394 0.885195 -0.398277 0.833553 0.382838
2.823490 -0.781831 1.000000 -0.623490 0.781831 0.000000
2.809252 -0.763977 1.114805 -0.578199 0.720501 -0.382838
2.768705 -0.713134 1.212132 -0.444867 0.549424 -0.707267
2.708023 -0.637040 1.277164 -0.243882 0.294768 -0.923923
2.636443 -0.547282 1.300000 -0.005841 -0.004658 -0.999972
2.564863 -0.457524 1.277164 0.233109 -0.303359 -0.923923
2.504181 -0.381431 1.212132 0.436657 -0.555972 -0.707267
2.463634 -0.330587 1.114805 0.573775 -0.724029 -0.382838
2.449396 -0.312733 1.000000 0.623490 -0.781831 -0.000000
2.463634 -0.330587 0.885195 0.578199 -0.720501 0.382838
2.504181 -0.381431 0.787868 0.444867 -0.549424 0.707267
2.564863 -0.457524 0.722836 0.243882 -0.294768 0.923923
2.636443 -0.547282 0.700000 0.005841 0.004658 0.999972
2.708023 -0.637040 0.722836 -0.233109 0.303359 0.923923
2.768705 -0.713134 0.787868 -0.436657 0.555972 0.707267
2.809252 -0.763977 0.885195 -0.573775 0.724029 0.382838
2.981831 -0.623490 1.000000 -0.781831 0.623490 0.000000
2.963977 -0.609252 1.114805 -0.724029 0.573775 -0.382838
2.913134 -0.568705 1.212132 -0.555972 0.436657 -0.707267
2.837040 -0.508023 1.277164 -0.303359 0.233109 -0.923923
2.747282 -0.436443 1.300000 -0.004658 -0.005841 -0.999972
2.657524 -0.364863 1.277164 0.294768 -0.243882 -0.923923
2.581431 -0.304181 1.212132 0.549424 -0.444867 -0.707267
2.530587 -0.263634 1.114805 0.720501 -0.578199 -0.382838
2.512733 -0.249396 1.000000 0.781831 -0.623490 0.000000
2.530587 -0.263634 0.885195 0.724029 -0.573775 0.382838
2.581431 -0.304181 0.787868 0.555972 -0.436657 0.707267
2.657524 -0.364863 0.722836 0.303359 -0.233109 0.923923
2.747282 -0.436443 0.700000 0.004658 0.005841 0.999972
2.837040 -0.508023 0.722836 -0.294768 0.243882 0.923923
2.913134 -0.568705 0.787868 -0.549424 0.444867 0.707267
2.963977 -0.609252 0.885195 -0.720501 0.578199 0.382838
3.100969 -0.433884 1.000000 -0.900969 0.433884 0.000000
3.080394 -0.423976 1.114805 -0.833553 0.398277 -0.382838
3.021803 -0.395759 1.212132 -0.639198 0.301994 -0.707267
2.934114 -0.353531 1.277164 -0.347625 0.159761 -0.923923
2.830678 -0.303719 1.300000 -0.003241 -0.006731 -0.999972
2.727242 -0.253907 1.277164 0.341647 -0.172175 -0.923923
2.639554 -0.211678 1.212132 0.634641 -0.311455 -0.707267
2.580962 -0.183462 1.114805 0.831097 -0.403376 -0.382838
2.560388 -0.173553 1.000000 0.900969 -0.433884 0.000000
2.580962 -0.183462 0.885195 0.833553 -0.398277 0.382838
2.639554 -0.211678 0.787868 0.639198 -0.301994 0.707267
2.727242 -0.253907 0.722836 0.347625 -0.159761 0.923923
2.830678 -0.303719 0.700000 0.003241 0.006731 0.999972
2.934114 -0.353531 0.722836 -0.341647 0.172175 0.923923
3.021803 -0.395759 0.787868 -0.634641 0.311455 0.707267
3.080394 -0.423976 0.885195 -0.831097 0.403376 0.382838
3.174928 -0.222521 1.000000 -0.974928 0.222521 0.000000
3.152664 -0.217439 1.114805 -0.901279 0.202809 -0.382838
3.089263 -0.202968 1.212132 -0.690371 0.152187 -0.707267
2.994376 -0.181311 1.277164 -0.374459 0.078401 -0.923923
2.882450 -0.155765 1.300000 -0.001662 -0.007283 -0.999972
2.770523 -0.130218 1.277164 0.371393 -0.091835 -0.923923
2.675636 -0.108561 1.212132 0.688035 -0.162425 -0.707267
2.612235 -0.094090 1.114805 0.900020 -0.208326 -0.382838
2.589971 -0.089008 1.000000 0.974928 -0.222521 -0.000000
2.612235 -0.094090 0.885195 0.901279 -0.202809 0.382838
2.675636 -0.108561 0.787868 0.690371 -0.152187 0.707267
2.770523 -0.130218 0.722836 0.374459 -0.078401 0.923923
2.882450 -0.155765 0.700000 0.001662 0.007283 0.999972
2.994376 -0.181311 0.722836 -0.371393 0.091835 0.923923
3.089263 -0.202968 0.787868 -0.688035 0.162425 0.707267
3.152664 -0.217439 0.885195 -0.900020 0.208326 0.382838
1.220000 0.000000 1.000000 0.000000 -1.000000 0.000000
1.197164 0.000000 1.114805 0.000000 -1.000000 0.000000
1.132132 0.000000 1.212132 0.000000 -1.000000 0.000000
1.034805 0.000000 1.277164 0.000000 -1.000000 0.000000
0.920000 0.000000 1.300000 0.000000 0.000000 0.000000
0.805195 0.000000 1.277164 0.000000 1.000000 0.000000
0.707868 0.000000 1.212132 0.000000 1.000000 0.000000
0.642836 0.000000 1.114805 0.000000 1.000000 0.000000
0.620000 0.000000 1.000000 0.000000 1.000000 0.000000
0.642836 0.000000 0.885195 0.000000 1.000000 0.000000
0.707868 0.000000 0.787868 0.000000 1.000000 0.000000
0.805195 0.000000 0.722836 0.000000 1.000000 0.000000
0.920000 0.000000 0.700000 0.000000 0.000000 0.000000
1.034805 0.000000 0.722836 0.000000 -1.000000 0.000000
1.132132 0.000000 0.787868 0.000000 -1.000000 0.000000
1.197164 0.000000 0.885195 0.000000 -1.000000 0.000000
1.440000 0.000000 1.000000 0.000000 -1.000000 0.000000
1.417164 0.000000 1.114805 0.000000 -1.000000 0.000000
1.352132 0.000000 1.212132 0.000000 -1.000000 0.000000
1.254805 0.000000 1.277164 0.000000 -1.000000 0.000000
1.140000 0.000000 1.300000 0.000000 0.000000 0.000000
1.025195 0.000000 1.277164 0.000000 1.000000 0.000000
0.927868 0.000000 1.212132 0.000000 1.000000 0.000000
0.862836 0.000000 1.114805 0.000000 1.000000 0.000000
0.840000 0.000000 1.000000 0.000000 1.000000 0.000000
0.862836 0.000000 0.885195 0.000000 1.000000 0.000000
0.927868 0.000000 0.787868 0.000000 1.000000 0.000000
1.025195 0.000000 0.722836 0.000000 1.000000 0.000000
1.140000 0.000000 0.700000 0.000000 0.000000 0.000000
1.254805 0.000000 0.722836 0.000000 -1.000000 0.000000
1.352132 0.000000 0.787868 0.000000 -1.000000 0.000000
1.417164 0.000000 0.885195 0.000000 -1.000000 0.000000
1.660000 0.000000 1.000000 0.000000 -1.000000 0.000000
1.637164 0.000000 1.114805 0.000000 -1.000000 0.000000
1.572132 0.000000 1.212132 0.000000 -1.000000 0.000000
1.474805 0.000000 1.277164 0.000000 -1.000000 0.000000
1.360000 0.000000 1.300000 0.000000 0.000000 0.000000
1.245195 0.000000 1.277164 0.000000 1.000000 0.000000
1.147868 0.000000 1.212132 0.000000 1.000000 0.000000
1.082836 0.000000 1.114805 0.000000 1.000000 0.000000
1.060000 0.000000 1.000000 0.000000 1.000000 0.000000
1.082836 0.000000 0.885195 0.000000 1.000000 0.000000
1.147868 0.000000 0.787868 0.000000 1.000000 0.000000
1.245195 0.000000 0.722836 0.000000 1.000000 0.000000
1.360000 0.000000 0.700000 0.000000 0.000000 0.000000
1.474805 0.000000 0.722836 0.000000 -1.000000 0.000000
1.572132 0.000000 0.787868 0.000000 -1.000000 0.000000
1.637164 0.000000 0.885195 0.000000 -1.000000 0.000000
1.880000 0.000000 1.000000 0.000000 -1.000000 0.000000
1.857164 0.000000 1.114805 0.000000 -1.000000 0.000000
1.792132 0.000000 1.212132 0.000000 -1.000000 0.000000
1.694805 0.000000 1.277164 0.000000 -1.000000 0.000000
1.580000 0.000000 1.300000 0.000000 0.000000 0.000000
1.465195 0.000000 1.277164 0.000000 1.000000 0.000000
1.367868 0.000000 1.212132 0.000000 1.000000 0.000000
1.302836 0.000000 1.114805 0.000000 1.000000 0.000000
1.280000 0.000000 1.000000 0.000000 1.000000 0.000000
1.302836 0.000000 0.885195 0.000000 1.000000 0.000000
1.367868 0.000000 0.787868 0.000000 1.000000 0.000000
1.465195 0.000000 0.722836 0.000000 1.000000 0.000000
1.580000 0.000000 0.700000 0.000000 0.000000 0.000000
1.694805 0.000000 0.722836 0.000000 -1.000000 0.000000
1.792132 0.000000 0.787868 0.000000 -1.000000 0.000000
1.857164 0.000000 0.885195 0.000000 -1.000000 0.000000
2.100000 0.000000 1.000000 0.000000 -1.000000 0.000000
2.077164 0.000000 1.114805 0.000000 -1.000000 0.000000
2.012132 0.000000 1.212132 0.000000 -1.000000 0.000000
1.914805 0.000000 1.277164 0.000000 -1.000000 0.000000
1.800000 0.000000 1.300000 0.000000 0.000000 0.000000
1.685195 0.000000 1.277164 0.000000 1.000000 0.000000
1.587868 0.000000 1.212132 0.000000 1.000000 0.000000
1.522836 0.000000 1.114805 0.000000 1.000000 0.000000
1.500000 0.000000 1.000000 0.000000 1.000000 0.000000
1.522836 0.000000 0.885195 0.000000 1.000000 0.000000
1.587868 0.000000 0.787868 0.000000 1.000000 0.000000
1.685195 0.000000 0.722836 0.000000 1.000000 0.000000
1.800000 0.000000 0.700000 0.000000 0.000000 0.000000
1.914805 0.000000 0.722836 0.000000 -1.000000 0.000000
2.012132 0.000000 0.787868 0.000000 -1.000000 0.000000
2.077164 0.000000 0.885195 0.000000 -1.000000 0.000000
2.320000 0.000000 1.000000 0.000000 -1.000000 0.000000
2.297164 0.000000 1.114805 0.000000 -1.000000 0.000000
2.232132 0.000000 1.212132 0.000000 -1.000000 0.000000
2.134805 0.000000 1.277164 0.000000 -1.000000 0.000000
2.020000 0.000000 1.300000 0.000000 0.000000 0.000000
1.905195 0.000000 1.277164 0.000000 1.000000 0.000000
1.807868 0.000000 1.212132 0.000000 1.000000 0.000000
1.742836 0.000000 1.114805 0.000000 1.000000 0.000000
1.720000 0.000000 1.000000 0.000000 1.000000 0.000000
1.742836 0.000000 0.885195 0.000000 1.000000 0.000000
1.807868 0.000000 0.787868 0.000000 1.000000 0.000000
1.905195 0.000000 0.722836 0.000000 1.000000 0.000000
2.020000 0.000000 0.700000 0.000000 0.000000 0.000000
2.134805 0.000000 0.722836 0.000000 -1.000000 0.000000
2.232132 0.000000 0.787868 0.000000 -1.000000 0.000000
2.297164 0.000000 0.885195 0.000000 -1.000000 0.000000
2.540000 0.000000 1.000000 0.000000 -1.000000 0.000000
2.517164 0.000000 1.114805 0.000000 -1.000000 0.000000
2.452132 0.000000 1.212132 0.000000 -1.000000 0.000000
2.354805 0.000000 1.277164 0.000000 -1.000000 0.000000
2.240000 0.000000 1.300000 0.000000 0.000000 0.000000
2.125195 0.000000 1.277164 0.000000 1.000000 0.000000
2.027868 0.000000 1.212132 0.000000 1.000000 0.000000
1.962836 0.000000 1.114805 0.000000 1.000000 0.000000
1.940000 0.000000 1.000000 0.000000 1.000000 0.000000
1.962836 0.000000 0.885195 0.000000 1.000000 0.000000
2.027868 0.000000 0.787868 0.000000 1.000000 0.000000
2.125195 0.000000 0.722836 0.000000 1.000000 0.000000
2.240000 0.000000 0.700000 0.000000 0.000000 0.000000
2.354805 0.000000 0.722836 0.000000 -1.000000 0.000000
2.452132 0.000000 0.787868 0.000000 -1.000000 0.000000
2.517164 0.000000 0.885195 0.000000 -1.000000 0.000000
2.760000 0.000000 1.000000 0.000000 -1.000000 0.000000
2.737164 0.000000 1.114805 0.000000 -1.000000 0.000000
2.672132 0.000000 1.212132 0.000000 -1.000000 0.000000
2.574805 0.000000 1.277164 0.000000 -1.000000 0.000000
2.460000 0.000000 1.300000 0.000000 0.000000 0.000000
2.345195 0.000000 1.277164 0.000000 1.000000 0.000000
2.247868 0.000000 1.212132 0.000000 1.000000 0.000000
2.182836 0.000000 1.114805 0.000000 1.000000 0.000000
2.160000 0.000000 1.000000 0.000000 1.000000 0.000000
2.182836 0.000000 0.885195 0.000000 1.000000 0.000000
2.247868 0.000000 0.787868 0.000000 1.000000 0.000000
2.345195 0.000000 0.722836 0.000000 1.000000 0.000000
2.460000 0.000000 0.700000 0.000000 0.000000 0.000000
2.574805 0.000000 0.722836 0.000000 -1.000000 0.000000
2.672132 0.000000 0.787868 0.000000 -1.000000 0.000000
2.737164 0.000000 0.885195 0.000000 -1.000000 0.000000
2.980000 0.000000 1.000000 0.000000 -1.000000 0.000000
2.957164 0.000000 1.114805 0.000000 -1.000000 0.000000
2.892132 0.000000 1.212132 0.000000 -1.000000 0.000000
2.794805 0.000000 1.277164 0.000000 -1.000000 0.000000
2.680000 0.000000 1.300000 0.000000 0.000000 0.000000
2.565195 0.000000 1.277164 0.000000 1.000000 0.000000
2.467868 0.000000 1.212132 0.000000 1.000000 0.000000
2.402836 0.000000 1.114805 0.000000 1.000000 0.000000
2.380000 0.000000 1.000000 0.000000 1.000000 0.000000
2.402836 0.000000 0.885195 0.000000 1.000000 0.000000
2.467868 0.000000 0.787868 0.000000 1.000000 0.000000
2.565195 0.000000 0.722836 0.000000 1.000000 0.000000
2.680000 0.000000 0.700000 0.000000 0.000000 0.000000
2.794805 0.000000 0.722836 0.000000 -1.000000 0.000000
2.892132 0.000000 0.787868 0.000000 -1.000000 0.000000
2.957164 0.000000 0.885195 0.000000 -1.000000 0.000000
3 0 1 16
3 1 17 16
3 1 2 17
3 2 18 17
3 2 3 18
3 3 19 18
3 3 4 19
3 4 20 19
3 4 5 20
3 5 21 20
3 5 6 21
3 6 22 21
3 6 7 22
3 7 23 22
3 7 8 23
3 8 24 23
3 8 9 24
3 9 25 24
3 9 10 25
3 10 26 25
3 10 11 26
3 11 27 26
3 11 12 27
3 12 28 27
3 12 13 28
3 13 29 28
3 13 14 29
3 14 30 29
3 14 15 30
3 15 31 30
3 15 0 31
3 0 16 31
3 16 17 32
3 17 33 32
3 17 18 33
3 18 34 33
3 18 19 34
3 19 35 34
3 19 20 35
3 20 36 35
3 20 21 36
3 21 37 36
3 21 22 37
3 22 38 37
3 22 23 38
3 23 39 38
3 23 24 39
3 24 40 39
3 24 25 40
3 25 41 40
3 25 26 41
3 26 42 41
3 26 27 42
3 27 43 42
3 27 28 43
3 28 44 43
3 28 29 44
3 29 45 44
3 29 30 45
3 30 46 45
3 30 31 46
3 31 47 46
3 31 16 47
3 16 32 47
3 32 33 48
3 33 49 48
3 33 34 49
3 34 50 49
3 34 35 50
3 35 51 50
3 35 36 51
3 36 52 51
3 36 37 52
3 37 53 52
3 37 38 53
3 38 54 53
3 38 39 54
3 39 55 54
3 39 40 55
3 40 56 55
3 40 41 56
3 41 57 56
3 41 42 57
3 42 58 57
3 42 43 58
3 43 59 58
3 43 44 59
3 44 60 59
3 44 45 60
3 45 61 60
3 45 46 61
3 46 62 61
3 46 47 62
3 47 63 62
3 47 32 63
3 32 48 63
3 48 49 64
3 49 65 64
3 49 50 65
3 50 66 65
3 50 51 66
3 51 67 66
3 51 52 67
3 52 68 67
3 52 53 68
3 53 69 68
3 53 54 69
3 54 70 69
3 54 55 70
3 55 71 70
3 55 56 71
3 56 72 71
3 56 57 72
3 57 73 72
3 57 58 73
3 58 74 73
3 58 59 74
3 59 75 74
3 59 60 75
3 60 76 75
3 60 61 76
3 61 77 76
3 61 62 77
3 62 78 77
3 62 63 78
3 63 79 78
3 63 48 79
3 48 64 79
3 64 65 80
3 65 81 80
3 65 66 81
3 66 82 81
3 66 67 82
3 67 83 82
3 67 68 83
3 68 84 83
3 68 69 84
3 69 85 84
3 69 70 85
3 70 86 85
3 70 71 86
3 71 87 86
3 71 72 87
3 72 88 87
3 72 73 88
3 73 89 88
3 73 74 89
3 74 90 89
3 74 75 90
3 75 91 90
3 75 76 91
3 76 92 91
3 76 77 92
3 77 93 92
3 77 78 93
3 78 94 93
3 78 79 94
3 79 95 94
3 79 64 95
3 64 80 95
3 80 81 96
3 81 97 96
3 81 82 97
3 82 98 97
3 82 83 98
3 83 99 98
3 83 84 99
3 84 100 99
3 84 85 100
3 85 101 100
3 85 86 101
3 86 102 101
3 86 87 102
3 87 103 102
3 87 88 103
3 88 104 103
3 88 89 104
3 89 105 104
3 89 90 105
3 90 106 105
3 90 91 106
3 91 107 106
3 91 92 107
3 92 108 107
3 92 93 108
3 93 109 108
3 93 94 109
3 94 110 109
3 94 95 110
3 95 111 110
3 95 80 111
3 80 96 111
3 96 97 112
3 97 113 112
3 97 98 113
3 98 114 113
3 98 99 114
3 99 115 114
3 99 100 115
3 100 116 115
3 100 101 116
3 101 117 116
3 101 102 117
3 102 118 117
3 102 103 118
3 103 119 118
3 103 104 119
3 104 120 119
3 104 105 120
3 105 121 120
3 105 106 121
3 106 122 121
3 106 107 122
3 107 123 122
3 107 108 123
3 108 124 123
3 108 109 124
3 109 125 124
3 109 110 125
3 110 126 125
3 110 111 126
3 111 127 126
3 111 96 127
3 96 112 127
3 112 113 128
3 113 129 128
3 113 114 129
3 114 130 129
3 114 115 130
3 115 131 130
3 115 116 131
3 116 132 131
3 116 117 132
3 117 133 132
3 117 118 133
3 118 134 133
3 118 119 134
3 119 135 134
3 119 120 135
3 120 136 135
3 120 121 136
3 121 137 136
3 121 122 137
3 122 138 137
3 122 123 138
3 123 139 138
3 123 124 139
3 124 140 139
3 124 125 140
3 125 141 140
3 125 126 141
3 126 142 141
3 126 127 142
3 127 143 142
3 127 112 143
3 112 128 143
3 128 129 144
3 129 145 144
3 129 130 145
3 130 146 145
3 130 131 146
3 131 147 146
3 131 132 147
3 132 148 147
3 132 133 148
3 133 149 148
3 133 134 149
3 134 150 149
3 134 135 150
3 135 151 150
3 135 136 151
3 136 152 151
3 136 137 152
3 137 153 152
3 137 138 153
3 138 154 153
3 138 139 154
3 139 155 154
3 139 140 155
3 140 156 155
3 140 141 156
3 141 157 156
3 141 142 157
3 142 158 157
3 142 143 158
3 143 159 158
3 143 128 159
3 128 144 159
3 144 145 160
3 145 161 160
3 145 146 161
3 146 162 161
3 146 147 162
3 147 163 162
3 147 148 163
3 148 164 163
3 148 149 164
3 149 165 164
3 149 150 165
3 150 166 165
3 150 151 166
3 151 167 166
3 151 152 167
3 152 168 167
3 152 153 168
3 153 169 168
3 153 154 169
3 154 170 169
3 154 155 170
3 155 171 170
3 155 156 171
3 156 172 171
3 156 157 172
3 157 173 172
3 157 158 173
3 158 174 173
3 158 159 174
3 159 175 174
3 159 144 175
3 144 160 175
3 160 161 176
3 161 177 176
3 161 162 177
3 162 178 177
3 162 163 178
3 163 179 178
3 163 164 179
3 164 180 179
3 164 165 180
3 165 181 180
3 165 166 181
3 166 182 181
3 166 167 182
3 167 183 182
3 167 168 183
3 168 184 183
3 168 169 184
3 169 185 184
3 169 170 185
3 170 186 185
3 170 171 186
3 171 187 186
3 171 172 187
3 172 188 187
3 172 173 188
3 173 189 188
3 173 174 189
3 174 190 189
3 174 175 190
3 175 191 190
3 175 160 191
3 160 176 191
3 176 177 192
3 177 193 192
3 177 178 193
3 178 194 193
3 178 179 194
3 179 195 194
3 179 180 195
3 180 196 195
3 180 181 196
3 181 197 196
3 181 182 197
3 182 198 197
3 182 183 198
3 183 199 198
3 183 184 199
3 184 200 199
3 184 185 200
3 185 201 200
3 185 186 201
3 186 202 201
3 186 187 202
3 187 203 202
3 187 188 203
3 188 204 203
3 188 189 204
3 189 205 204
3 189 190 205
3 190 206 205
3 190 191 206
3 191 207 206
3 191 176 207
3 176 192 207
3 192 193 208
3 193 209 208
3 193 194 209
3 194 210 209
3 194 195 210
3 195 211 210
3 195 196 211
3 196 212 211
3 196 197 212
3 197 213 212
3 197 198 213
3 198 214 213
3 198 199 214
3 199 215 214
3 199 200 215
3 200 216 215
3 200 201 216
3 201 217 216
3 201 202 217
3 202 218 217
3 202 203 218
3 203 219 218
3 203 204 219
3 204 220 219
3 204 205 220
3 205 221 220
3 205 206 221
3 206 222 221
3 206 207 222
3 207 223 222
3 207 192 223
3 192 208 223
3 208 209 224
3 209 225 224
3 209 210 225
3 210 226 225
3 210 211 226
3 211 227 226
3 211 212 227
3 212 228 227
3 212 213 228
3 213 229 228
3 213 214 229
3 214 230 229
3 214 215 230
3 215 231 230
3 215 216 231
3 216 232 231
3 216 217 232
3 217 233 232
3 217 218 233
3 218 234 233
3 218 219 234
3 219 235 234
3 219 220 235
3 220 236 235
3 220 221 236
3 221 237 236
3 221 222 237
3 222 238 237
3 222 223 238
3 223 239 238
3 223 208 239
3 208 224 239
3 224 225 240
3 225 241 240
3 225 226 241
3 226 242 241
3 226 227 242
3 227 243 242
3 227 228 243
3 228 244 243
3 228 229 244
3 229 245 244
3 229 230 245
3 230 246 245
3 230 231 246
3 231 247 246
3 231 232 247
3 232 248 247
3 232 233 248
3 233 249 248
3 233 234 249
3 234 250 249
3 234 235 250
3 235 251 250
3 235 236 251
3 236 252 251
3 236 237 252
3 237 253 252
3 237 238 253
3 238 254 253
3 238 239 254
3 239 255 254
3 239 224 255
3 224 240 255
3 240 241 256
3 241 257 256
3 241 242 257
3 242 258 257
3 242 243 258
3 243 259 258
3 243 244 259
3 244 260 259
3 244 245 260
3 245 261 260
3 245 246 261
3 246 262 261
3 246 247 262
3 247 263 262
3 247 248 263
3 248 264 263
3 248 249 264
3 249 265 264
3 249 250 265
3 250 266 265
3 250 251 266
3 251 267 266
3 251 252 267
3 252 268 267
3 252 253 268
3 253 269 268
3 253 254 269
3 254 270 269
3 254 255 270
3 255 271 270
3 255 240 271
3 240 256 271
3 256 257 272
3 257 273 272
3 257 258 273
3 258 274 273
3 258 259 274
3 259 275 274
3 259 260 275
3 260 276 275
3 260 261 276
3 261 277 276
3 261 262 277
3 262 278 277
3 262 263 278
3 263 279 278
3 263 264 279
3 264 280 279
3 264 265 280
3 265 281 280
3 265 266 281
3 266 282 281
3 266 267 282
3 267 283 282
3 267 268 283
3 268 284 283
3 268 269 284
3 269 285 284
3 269 270 285
3 270 286 285
3 270 271 286
3 271 287 286
3 271 256 287
3 256 272 287
3 272 273 288
3 273 289 288
3 273 274 289
3 274 290 289
3 274 275 290
3 275 291 290
3 275 276 291
3 276 292 291
3 276 277 292
3 277 293 292
3 277 278 293
3 278 294 293
3 278 279 294
3 279 295 294
3 279 280 295
3 280 296 295
3 280 281 296
3 281 297 296
3 281 282 297
3 282 298 297
3 282 283 298
3 283 299 298
3 283 284 299
3 284 300 299
3 284 285 300
3 285 301 300
3 285 286 301
3 286 302 301
3 286 287 302
3 287 303 302
3 287 272 303
3 272 288 303
3 288 289 304
3 289 305 304
3 289 290 305
3 290 306 305
3 290 291 306
3 291 307 306
3 291 292 307
3 292 308 307
3 292 293 308
3 293 309 308
3 293 294 309
3 294 310 309
3 294 295 310
3 295 311 310
3 295 296 311
3 296 312 311
3 296 297 312
3 297 313 312
3 297 298 313
3 298 314 313
3 298 299 314
3 299 315 314
3 299 300 315
3 300 316 315
3 300 301 316
3 301 317 316
3 301 302 317
3 302 318 317
3 302 303 318
3 303 319 318
3 303 288 319
3 288 304 319
3 304 305 320
3 305 321 320
3 305 306 321
3 306 322 321
3 306 307 322
3 307 323 322
3 307 308 323
3 308 324 323
3 308 309 324
3 309 325 324
3 309 310 325
3 310 326 325
3 310 311 326
3 311 327 326
3 311 312 327
3 312 328 327
3 312 313 328
3 313 329 328
3 313 314 329
3 314 330 329
3 314 315 330
3 315 331 330
3 315 316 331
3 316 332 331
3 316 317 332
3 317 333 332
3 317 318 333
3 318 334 333
3 318 319 334
3 319 335 334
3 319 304 335
3 304 320 335
3 320 321 336
3 321 337 336
3 321 322 337
3 322 338 337
3 322 323 338
3 323 339 338
3 323 324 339
3 324 340 339
3 324 325 340
3 325 341 340
3 325 326 341
3 326 342 341
3 326 327 342
3 327 343 342
3 327 328 343
3 328 344 343
3 328 329 344
3 329 345 344
3 329 330 345
3 330 346 345
3 330 331 346
3 331 347 346
3 331 332 347
3 332 348 347
3 332 333 348
3 333 349 348
3 333 334 349
3 334 350 349
3 334 335 350
3 335 351 350
3 335 320 351
3 320 336 351
3 336 337 352
3 337 353 352
3 337 338 353
3 338 354 353
3 338 339 354
3 339 355 354
3 339 340 355
3 340 356 355
3 340 341 356
3 341 357 356
3 341 342 357
3 342 358 357
3 342 343 358
3 343 359 358
3 343 344 359
3 344 360 359
3 344 345 360
3 345 361 360
3 345 346 361
3 346 362 361
3 346 347 362
3 347 363 362
3 347 348 363
3 348 364 363
3 348 349 364
3 349 365 364
3 349 350 365
3 350 366 365
3 350 351 366
3 351 367 366
3 351 336 367
3 336 352 367
3 352 353 368
3 353 369 368
3 353 354 369
3 354 370 369
3 354 355 370
3 355 371 370
3 355 356 371
3 356 372 371
3 356 357 372
3 357 373 372
3 357 358 373
3 358 374 373
3 358 359 374
3 359 375 374
3 359 360 375
3 360 376 375
3 360 361 376
3 361 377 376
3 361 362 377
3 362 378 377
3 362 363 378
3 363 379 378
3 363 364 379
3 364 380 379
3 364 365 380
3 365 381 380
3 365 366 381
3 366 382 381
3 366 367 382
3 367 383 382
3 367 352 383
3 352 368 383
3 368 369 384
3 369 385 384
3 369 370 385
3 370 386 385
3 370 371 386
3 371 387 386
3 371 372 387
3 372 388 387
3 372 373 388
3 373 389 388
3 373 374 389
3 374 390 389
3 374 375 390
3 375 391 390
3 375 376 391
3 376 392 391
3 376 377 392
3 377 393 392
3 377 378 393
3 378 394 393
3 378 379 394
3 379 395 394
3 379 380 395
3 380 396 395
3 380 381 396
3 381 397 396
3 381 382 397
3 382 398 397
3 382 383 398
3 383 399 398
3 383 368 399
3 368 384 399
3 384 385 400
3 385 401 400
3 385 386 401
3 386 402 401
3 386 387 402
3 387 403 402
3 387 388 403
3 388 404 403
3 388 389 404
3 389 405 404
3 389 390 405
3 390 406 405
3 390 391 406
3 391 407 406
3 391 392 407
3 392 408 407
3 392 393 408
3 393 409 408
3 393 394 409
3 394 410 409
3 394 395 410
3 395 411 410
3 395 396 411
3 396 412 411
3 396 397 412
3 397 413 412
3 397 398 413
3 398 414 413
3 398 399 414
3 399 415 414
3 399 384 415
3 384 400 415
3 400 401 416
3 401 417 416
3 401 402 417
3 402 418 417
3 402 403 418
3 403 419 418
3 403 404 419
3 404 420 419
3 404 405 420
3 405 421 420
3 405 406 421
3 406 422 421
3 406 407 422
3 407 423 422
3 407 408 423
3 408 424 423
3 408 409 424
3 409 425 424
3 409 410 425
3 410 426 425
3 410 411 426
3 411 427 426
3 411 412 427
3 412 428 427
3 412 413 428
3 413 429 428
3 413 414 429
3 414 430 429
3 414 415 430
3 415 431 430
3 415 400 431
3 400 416 431
3 416 417 432
3 417 433 432
3 417 418 433
3 418 434 433
3 418 419 434
3 419 435 434
3 419 420 435
3 420 436 435
3 420 421 436
3 421 437 436
3 421 422 437
3 422 438 437
3 422 423 438
3 423 439 438
3 423 424 439
3 424 440 439
3 424 425 440
3 425 441 440
3 425 426 441
3 426 442 441
3 426 427 442
3 427 443 442
3 427 428 443
3 428 444 443
3 428 429 444
3 429 445 444
3 429 430 445
3 430 446 445
3 430 431 446
3 431 447 446
3 431 416 447
3 416 432 447
3 432 433 0
3 433 1 0
3 433 434 1
3 434 2 1
3 434 435 2
3 435 3 2
3 435 436 3
3 436 4 3
3 436 437 4
3 437 5 4
3 437 438 5
3 438 6 5
3 438 439 6
3 439 7 6
3 439 440 7
3 440 8 7
3 440 441 8
3 441 9 8
3 441 442 9
3 442 10 9
3 442 443 10
3 443 11 10
3 443 444 11
3 444 12 11
3 444 445 12
3 445 13 12
3 445 446 13
3 446 14 13
3 446 447 14
3 447 15 14
3 447 432 15
3 432 0 15
3 448 449 464
3 449 465 464
3 449 450 465
3 450 466 465
3 450 451 466
3 451 467 466
3 451 452 467
3 452 468 467
3 452 453 468
3 453 469 468
3 453 454 469
3 454 470 469
3 454 455 470
3 455 471 470
3 455 456 471
3 456 472 471
3 456 457 472
3 457 473 472
3 457 458 473
3 458 474 473
3 458 459 474
3 459 475 474
3 459 460 475
3 460 476 475
3 460 461 476
3 461 477 476
3 461 462 477
3 462 478 477
3 462 463 478
3 463 479 478
3 463 448 479
3 448 464 479
3 464 465 480
3 465 481 480
3 465 466 481
3 466 482 481
3 466 467 482
3 467 483 482
3 467 468 483
3 468 484 483
3 468 469 484
3 469 485 484
3 469 470 485
3 470 486 485
3 470 471 486
3 471 487 486
3 471 472 487
3 472 488 487
3 472 473 488
3 473 489 488
3 473 474 489
3 474 490 489
3 474 475 490
3 475 491 490
3 475 476 491
3 476 492 491
3 476 477 492
3 477 493 492
3 477 478 493
3 478 494 493
3 478 479 494
3 479 495 494
3 479 464 495
3 464 480 495
3 480 481 496
3 481 497 496
3 481 482 497
3 482 498 497
3 482 483 498
3 483 499 498
3 483 484 499
3 484 500 499
3 484 485 500
3 485 501 500
3 485 486 501
3 486 502 501
3 486 487 502
3 487 503 502
3 487 488 503
3 488 504 503
3 488 489 504
3 489 505 504
3 489 490 505
3 490 506 505
3 490 491 506
3 491 507 506
3 491 492 507
3 492 508 507
3 492 493 508
3 493 509 508
3 493 494 509
3 494 510 509
3 494 495 510
3 495 511 510
3 495 480 511
3 480 496 511
3 496 497 512
3 497 513 512
3 497 498 513
3 498 514 513
3 498 499 514
3 499 515 514
3 499 500 515
3 500 516 515
3 500 501 516
3 501 517 516
3 501 502 517
3 502 518 517
3 502 503 518
3 503 519 518
3 503 504 519
3 504 520 519
3 504 505 520
3 505 521 520
3 505 506 521
3 506 522 521
3 506 507 522
3 507 523 522
3 507 508 523
3 508 524 523
3 508 509 524
3 509 525 524
3 509 510 525
3 510 526 525
3 510 511 526
3 511 527 526
3 511 496 527
3 496 512 527
3 512 513 528
3 513 529 528
3 513 514 529
3 514 530 529
3 514 515 530
3 515 531 530
3 515 516 531
3 516 532 531
3 516 517 532
3 517 533 532
3 517 518 533
3 518 534 533
3 518 519 534
3 519 535 534
3 519 520 535
3 520 536 535
3 520 521 536
3 521 537 536
3 521 522 537
3 522 538 537
3 522 523 538
3 523 539 538
3 523 524 539
3 524 540 539
3 524 525 540
3 525 541 540
3 525 526 541
3 526 542 541
3 526 527 542
3 527 543 542
3 527 512 543
3 512 528 543
3 528 529 544
3 529 545 544
3 529 530 545
3 530 546 545
3 530 531 546
3 531 547 546
3 531 532 547
3 532 548 547
3 532 533 548
3 533 549 548
3 533 534 549
3 534 550 549
3 534 535 550
3 535 551 550
3 535 536 551
3 536 552 551
3 536 537 552
3 537 553 552
3 537 538 553
3 538 554 553
3 538 539 554
3 539 555 554
3 539 540 555
3 540 556 555
3 540 541 556
3 541 557 556
3 541 542 557
3 542 558 557
3 542 543 558
3 543 559 558
3 543 528 559
3 528 544 559
3 544 545 560
3 545 561 560
3 545 546 561
3 546 562 561
3 546 547 562
3 547 563 562
3 547 548 563
3 548 564 563
3 548 549 564
3 549 565 564
3 549 550 565
3 550 566 565
3 550 551 566
3 551 567 566
3 551 552 567
3 552 568 567
3 552 553 568
3 553 569 568
3 553 554 569
3 554 570 569
3 554 555 570
3 555 571 570
3 555 556 571
3 556 572 571
3 556 557 572
3 557 573 572
3 557 558 573
3 558 574 573
3 558 559 574
3 559 575 574
3 559 544 575
3 544 560 575
3 560 561 576
3 561 577 576
3 561 562 577
3 562 578 577
3 562 563 578
3 563 579 578
3 563 564 579
3 564 580 579
3 564 565 580
3 565 581 580
3 565 566 581
3 566 582 581
3 566 567 582
3 567 583 582
3 567 568 583
3 568 584 583
3 568 569 584
3 569 585 584
3 569 570 585
3 570 586 585
3 570 571 586
3 571 587 586
3 571 572 587
3 572 588 587
3 572 573 588
3 573 589 588
3 573 574 589
3 574 590 589
3 574 575 590
3 575 591 590
3 575 560 591
3 560 576 591
3 576 577 592
3 577 593 592
3 577 578 593
3 578 594 593
3 578 579 594
3 579 595 594
3 579 580 595
3 580 596 595
3 580 581 596
3 581 597 596
3 581 582 597
3 582 598 597
3 582 583 598
3 583 599 598
3 583 584 599
3 584 600 599
3 584 585 600
3 585 601 600
3 585 586 601
3 586 602 601
3 586 587 602
3 587 603 602
3 587 588 603
3 588 604 603
3 588 589 604
3 589 605 604
3 589 590 605
3 590 606 605
3 590 591 606
3 591 607 606
3 591 576 607
3 576 592 607
3 592 593 608
3 593 609 608
3 593 594 609
3 594 610 609
3 594 595 610
3 595 611 610
3 595 596 611
3 596 612 611
3 596 597 612
3 597 613 612
3 597 598 613
3 598 614 613
3 598 599 614
3 599 615 614
3 599 600 615
3 600 616 615
3 600 601 616
3 601 617 616
3 601 602 617
3 602 618 617
3 602 603 618
3 603 619 618
3 603 604 619
3 604 620 619
3 604 605 620
3 605 621 620
3 605 606 621
3 606 622 621
3 606 607 622
3 607 623 622
3 607 592 623
3 592 608 623
3 608 609 624
3 609 625 624
3 609 610 625
3 610 626 625
3 610 611 626
3 611 627 626
3 611 612 627
3 612 628 627
3 612 613 628
3 613 629 628
3 613 614 629
3 614 630 629
3 614 615 630
3 615 631 630
3 615 616 631
3 616 632 631
3 616 617 632
3 617 633 632
3 617 618 633
3 618 634 633
3 618 619 634
3 619 635 634
3 619 620 635
3 620 636 635
3 620 621 636
3 621 637 636
3 621 622 637
3 622 638 637
3 622 623 638
3 623 639 638
3 623 608 639
3 608 624 639
3 624 625 640
3 625 641 640
3 625 626 641
3 626 642 641
3 626 627 642
3 627 643 642
3 627 628 643
3 628 644 643
3 628 629 644
3 629 645 644
3 629 630 645
3 630 646 645
3 630 631 646
3 631 647 646
3 631 632 647
3 632 648 647
3 632 633 648
3 633 649 648
3 633 634 649
3 634 650 649
3 634 635 650
3 635 651 650
3 635 636 651
3 636 652 651
3 636 637 652
3 637 653 652
3 637 638 653
3 638 654 653
3 638 639 654
3 639 655 654
3 639 624 655
3 624 640 655
3 640 641 656
3 641 657 656
3 641 642 657
3 642 658 657
3 642 643 658
3 643 659 658
3 643 644 659
3 644 660 659
3 644 645 660
3 645 661 660
3 645 646 661
3 646 662 661
3 646 647 662
3 647 663 662
3 647 648 663
3 648 664 663
3 648 649 664
3 649 665 664
3 649 650 665
3 650 666 665
3 650 651 666
3 651 667 666
3 651 652 667
3 652 668 667
3 652 653 668
3 653 669 668
3 653 654 669
3 654 670 669
3 654 655 670
3 655 671 670
3 655 640 671
3 640 656 671
3 656 657 672
3 657 673 672
3 657 658 673
3 658 674 673
3 658 659 674
3 659 675 674
3 659 660 675
3 660 676 675
3 660 661 676
3 661 677 676
3 661 662 677
3 662 678 677
3 662 663 678
3 663 679 678
3 663 664 679
3 664 680 679
3 664 665 680
3 665 681 680
3 665 666 681
3 666 682 681
3 666 667 682
3 667 683 682
3 667 668 683
3 668 684 683
3 668 669 684
3 669 685 684
3 669 670 685
3 670 686 685
3 670 671 686
3 671 687 686
3 671 656 687
3 656 672 687
3 672 673 688
3 673 689 688
3 673 674 689
3 674 690 689
3 674 675 690
3 675 691 690
3 675 676 691
3 676 692 691
3 676 677 692
3 677 693 692
3 677 678 693
3 678 694 693
3 678 679 694
3 679 695 694
3 679 680 695
3 680 696 695
3 680 681 696
3 681 697 696
3 681 682 697
3 682 698 697
3 682 683 698
3 683 699 698
3 683 684 699
3 684 700 699
3 684 685 700
3 685 701 700
3 685 686 701
3 686 702 701
3 686 687 702
3 687 703 702
3 687 672 703
3 672 688 703
3 688 689 704
3 689 705 704
3 689 690 705
3 690 706 705
3 690 691 706
3 691 707 706
3 691 692 707
3 692 708 707
3 692 693 708
3 693 709 708
3 693 694 709
3 694 710 709
3 694 695 710
3 695 711 710
3 695 696 711
3 696 712 711
3 696 697 712
3 697 713 712
3 697 698 713
3 698 714 713
3 698 699 714
3 699 715 714
3 699 700 715
3 700 716 715
3 700 701 716
3 701 717 716
3 701 702 717
3 702 718 717
3 702 703 718
3 703 719 718
3 703 688 719
3 688 704 719
3 704 705 720
3 705 721 720
3 705 706 721
3 706 722 721
3 706 707 722
3 707 723 722
3 707 708 723
3 708 724 723
3 708 709 724
3 709 725 724
3 709 710 725
3 710 726 725
3 710 711 726
3 711 727 726
3 711 712 727
3 712 728 727
3 712 713 728
3 713 729 728
3 713 714 729
3 714 730 729
3 714 715 730
3 715 731 730
3 715 716 731
3 716 732 731
3 716 717 732
3 717 733 732
3 717 718 733
3 718 734 733
3 718 719 734
3 719 735 734
3 719 704 735
3 704 720 735
3 720 721 736
3 721 737 736
3 721 722 737
3 722 738 737
3 722 723 738
3 723 739 738
3 723 724 739
3 724 740 739
3 724 725 740
3 725 741 740
3 725 726 741
3 726 742 741
3 726 727 742
3 727 743 742
3 727 728 743
3 728 744 743
3 728 729 744
3 729 745 744
3 729 730 745
3 730 746 745
3 730 731 746
3 731 747 746
3 731 732 747
3 732 748 747
3 732 733 748
3 733 749 748
3 733 734 749
3 734 750 749
3 734 735 750
3 735 751 750
3 735 720 751
3 720 736 751
3 736 737 752
3 737 753 752
3 737 738 753
3 738 754 753
3 738 739 754
3 739 755 754
3 739 740 755
3 740 756 755
3 740 741 756
3 741 757 756
3 741 742 757
3 742 758 757
3 742 743 758
3 743 759 758
3 743 744 759
3 744 760 759
3 744 745 760
3 745 761 760
3 745 746 761
3 746 762 761
3 746 747 762
3 747 763 762
3 747 748 763
3 748 764 763
3 748 749 764
3 749 765 764
3 749 750 765
3 750 766 765
3 750 751 766
3 751 767 766
3 751 736 767
3 736 752 767
3 752 753 768
3 753 769 768
3 753 754 769
3 754 770 769
3 754 755 770
3 755 771 770
3 755 756 771
3 756 772 771
3 756 757 772
3 757 773 772
3 757 758 773
3 758 774 773
3 758 759 774
3 759 775 774
3 759 760 775
3 760 776 775
3 760 761 776
3 761 777 776
3 761 762 777
3 762 778 777
3 762 763 778
3 763 779 778
3 763 764 779
3 764 780 779
3 764 765 780
3 765 781 780
3 765 766 781
3 766 782 781
3 766 767 782
3 767 783 782
3 767 752 783
3 752 768 783
3 768 769 784
3 769 785 784
3 769 770 785
3 770 786 785
3 770 771 786
3 771 787 786
3 771 772 787
3 772 788 787
3 772 773 788
3 773 789 788
3 773 774 789
3 774 790 789
3 774 775 790
3 775 791 790
3 775 776 791
3 776 792 791
3 776 777 792
3 777 793 792
3 777 778 793
3 778 794 793
3 778 779 794
3 779 795 794
3 779 780 795
3 780 796 795
3 780 781 796
3 781 797 796
3 781 782 797
3 782 798 797
3 782 783 798
3 783 799 798
3 783 768 799
3 768 784 799
3 784 785 800
3 785 801 800
3 785 786 801
3 786 802 801
3 786 787 802
3 787 803 802
3 787 788 803
3 788 804 803
3 788 789 804
3 789 805 804
3 789 790 805
3 790 806 805
3 790 791 806
3 791 807 806
3 791 792 807
3 792 808 807
3 792 793 808
3 793 809 808
3 793 794 809
3 794 810 809
3 794 795 810
3 795 811 810
3 795 796 811
3 796 812 811
3 796 797 812
3 797 813 812
3 797 798 813
3 798 814 813
3 798 799 814
3 799 815 814
3 799 784 815
3 784 800 815
3 800 801 816
3 801 817 816
3 801 802 817
3 802 818 817
3 802 803 818
3 803 819 818
3 803 804 819
3 804 820 819
3 804 805 820
3 805 821 820
3 805 806 821
3 806 822 821
3 806 807 822
3 807 823 822
3 807 808 823
3 808 824 823
3 808 809 824
3 809 825 824
3 809 810 825
3 810 826 825
3 810 811 826
3 811 827 826
3 811 812 827
3 812 828 827
3 812 813 828
3 813 829 828
3 813 814 829
3 814 830 829
3 814 815 830
3 815 831 830
3 815 800 831
3 800 816 831
3 816 817 832
3 817 833 832
3 817 818 833
3 818 834 833
3 818 819 834
3 819 835 834
3 819 820 835
3 820 836 835
3 820 821 836
3 821 837 836
3 821 822 837
3 822 838 837
3 822 823 838
3 823 839 838
3 823 824 839
3 824 840 839
3 824 825 840
3 825 841 840
3 825 826 841
3 826 842 841
3 826 827 842
3 827 843 842
3 827 828 843
3 828 844 843
3 828 829 844
3 829 845 844
3 829 830 845
3 830 846 845
3 830 831 846
3 831 847 846
3 831 816 847
3 816 832 847
3 832 833 848
3 833 849 848
3 833 834 849
3 834 850 849
3 834 835 850
3 835 851 850
3 835 836 851
3 836 852 851
3 836 837 852
3 837 853 852
3 837 838 853
3 838 854 853
3 838 839 854
3 839 855 854
3 839 840 855
3 840 856 855
3 840 841 856
3 841 857 856
3 841 842 857
3 842 858 857
3 842 843 858
3 843 859 858
3 843 844 859
3 844 860 859
3 844 845 860
3 845 861 860
3 845 846 861
3 846 862 861
3 846 847 862
3 847 863 862
3 847 832 863
3 832 848 863
3 848 849 864
3 849 865 864
3 849 850 865
3 850 866 865
3 850 851 866
3 851 867 866
3 851 852 867
3 852 868 867
3 852 853 868
3 853 869 868
3 853 854 869
3 854 870 869
3 854 855 870
3 855 871 870
3 855 856 871
3 856 872 871
3 856 857 872
3 857 873 872
3 857 858 873
3 858 874 873
3 858 859 874
3 859 875 874
3 859 860 875
3 860 876 875
3 860 861 876
3 861 877 876
3 861 862 877
3 862 878 877
3 862 863 878
3 863 879 878
3 863 848 879
3 848 864 879
3 864 865 880
3 865 881 880
3 865 866 881
3 866 882 881
3 866 867 882
3 867 883 882
3 867 868 883
3 868 884 883
3 868 869 884
3 869 885 884
3 869 870 885
3 870 886 885
3 870 871 886
3 871 887 886
3 871 872 887
3 872 888 887
3 872 873 888
3 873 889 888
3 873 874 889
3 874 890 889
3 874 875 890
3 875 891 890
3 875 876 891
3 876 892 891
3 876 877 892
3 877 893 892
3 877 878 893
3 878 894 893
3 878 879 894
3 879 895 894
3 879 864 895
3 864 880 895
3 880 881 448
3 881 449 448
3 881 882 449
3 882 450 449
3 882 883 450
3 883 451 450
3 883 884 451
3 884 452 451
3 884 885 452
3 885 453 452
3 885 886 453
3 886 454 453
3 886 887 454
3 887 455 454
3 887 888 455
3 888 456 455
3 888 889 456
3 889 457 456
3 889 890 457
3 890 458 457
3 890 891 458
3 891 459 458
3 891 892 459
3 892 460 459
3 892 893 460
3 893 461 460
3 893 894 461
3 894 462 461
3 894 895 462
3 895 463 462
3 895 880 463
3 880 448 463
3 0 896 897
3 0 897 1
3 896 912 913
3 896 913 897
3 912 928 929
3 912 929 913
3 928 944 945
3 928 945 929
3 944 960 961
3 944 961 945
3 960 976 977
3 960 977 961
3 976 992 993
3 976 993 977
3 992 1008 1009
3 992 1009 993
3 1008 1024 1025
3 1008 1025 1009
3 1024 448 449
3 1024 449 1025
3 1 897 898
3 1 898 2
3 897 913 914
3 897 914 898
3 913 929 930
3 913 930 914
3 929 945 946
3 929 946 930
3 945 961 962
3 945 962 946
3 961 977 978
3 961 978 962
3 977 993 994
3 977 994 978
3 993 1009 1010
3 993 1010 994
3 1009 1025 1026
3 1009 1026 1010
3 1025 449 450
3 1025 450 1026
3 2 898 899
3 2 899 3
3 898 914 915
3 898 915 899
3 914 930 931
3 914 931 915
3 930 946 947
3 930 947 931
3 946 962 963
3 946 963 947
3 962 978 979
3 962 979 963
3 978 994 995
3 978 995 979
3 994 1010 1011
3 994 1011 995
3 1010 1026 1027
3 1010 1027 1011
3 1026 450 451
3 1026 451 1027
3 3 899 900
3 3 900 4
3 899 915 916
3 899 916 900
3 915 931 932
3 915 932 916
3 931 947 948
3 931 948 932
3 947 963 964
3 947 964 948
3 963 979 980
3 963 980 964
3 979 995 996
3 979 996 980
3 995 1011 1012
3 995 1012 996
3 1011 1027 1028
3 1011 1028 1012
3 1027 451 452
3 1027 452 1028
3 4 900 901
3 4 901 5
3 900 916 917
3 900 917 901
3 916 932 933
3 916 933 917
3 932 948 949
3 932 949 933
3 948 964 965
3 948 965 949
3 964 980 981
3 964 981 965
3 980 996 997
3 980 997 981
3 996 1012 1013
3 996 1013 997
3 1012 1028 1029
3 1012 1029 1013
3 1028 452 453
3 1028 453 1029
3 5 901 902
3 5 902 6
3 901 917 918
3 901 918 902
3 917 933 934
3 917 934 918
3 933 949 950
3 933 950 934
3 949 965 966
3 949 966 950
3 965 981 982
3 965 982 966
3 981 997 998
3 981 998 982
3 997 1013 1014
3 997 1014 998
3 1013 1029 1030
3 1013 1030 1014
3 1029 453 454
3 1029 454 1030
3 6 902 903
3 6 903 7
3 902 918 919
3 902 919 903
3 918 934 935
3 918 935 919
3 934 950 951
3 934 951 935
3 950 966 967
3 950 967 951
3 966 982 983
3 966 983 967
3 982 998 999
3 982 999 983
3 998 1014 1015
3 998 1015 999
3 1014 1030 1031
3 1014 1031 1015
3 1030 454 455
3 1030 455 1031
3 7 903 904
3 7 904 8
3 903 919 920
3 903 920 904
3 919 935 936
3 919 936 920
3 935 951 952
3 935 952 936
3 951 967 968
3 951 968 952
3 967 983 984
3 967 984 968
3 983 999 1000
3 983 1000 984
3 999 1015 1016
3 999 1016 1000
3 1015 1031 1032
3 1015 1032 1016
3 1031 455 456
3 1031 456 1032
3 8 904 905
3 8 905 9
3 904 920 921
3 904 921 905
3 920 936 937
3 920 937 921
3 936 952 953
3 936 953 937
3 952 968 969
3 952 969 953
3 968 984 985
3 968 985 969
3 984 1000 1001
3 984 1001 985
3 1000 1016 1017
3 1000 1017 1001
3 1016 1032 1033
3 1016 1033 1017
3 1032 456 457
3 1032 457 1033
3 9 905 906
3 9 906 10
3 905 921 922
3 905 922 906
3 921 937 938
3 921 938 922
3 937 953 954
3 937 954 938
3 953 969 970
3 953 970 954
3 969 985 986
3 969 986 970
3 985 1001 1002
3 985 1002 986
3 1001 1017 1018
3 1001 1018 1002
3 1017 1033 1034
3 1017 1034 1018
3 1033 457 458
3 1033 458 1034
3 10 906 907
3 10 907 11
3 906 922 923
3 906 923 907
3 922 938 939
3 922 939 923
3 938 954 955
3 938 955 939
3 954 970 971
3 954 971 955
3 970 986 987
3 970 987 971
3 986 1002 1003
3 986 1003 987
3 1002 1018 1019
3 1002 1019 1003
3 1018 1034 1035
3 1018 1035 1019
3 1034 458 459
3 1034 459 1035
3 11 907 908
3 11 908 12
3 907 923 924
3 907 924 908
3 923 939 940
3 923 940 924
3 939 955 956
3 939 956 940
3 955 971 972
3 955 972 956
3 971 987 988
3 971 988 972
3 987 1003 1004
3 987 1004 988
3 1003 1019 1020
3 1003 1020 1004
3 1019 1035 1036
3 1019 1036 1020
3 1035 459 460
3 1035 460 1036
3 12 908 909
3 12 909 13
3 908 924 925
3 908 925 909
3 924 940 941
3 924 941 925
3 940 956 957
3 940 957 941
3 956 972 973
3 956 973 957
3 972 988 989
3 972 989 973
3 988 1004 1005
3 988 1005 989
3 1004 1020 1021
3 1004 1021 1005
3 1020 1036 1037
3 1020 1037 1021
3 1036 460 461
3 1036 461 1037
3 13 909 910
3 13 910 14
3 909 925 926
3 909 926 910
3 925 941 942
3 925 942 926
3 941 957 958
3 941 958 942
3 957 973 974
3 957 974 958
3 973 989 990
3 973 990 974
3 989 1005 1006
3 989 1006 990
3 1005 1021 1022
3 1005 1022 1006
3 1021 1037 1038
3 1021 1038 1022
3 1037 461 462
3 1037 462 1038
3 14 910 911
3 14 911 15
3 910 926 927
3 910 927 911
3 926 942 943
3 926 943 927
3 942 958 959
3 942 959 943
3 958 974 975
3 958 975 959
3 974 990 991
3 974 991 975
3 990 1006 1007
3 990 1007 991
3 1006 1022 1023
3 1006 1023 1007
3 1022 1038 1039
3 1022 1039 1023
3 1038 462 463
3 1038 463 1039
3 15 911 896
3 15 896 0
3 911 927 912
3 911 912 896
3 927 943 928
3 927 928 912
3 943 959 944
3 943 944 928
3 959 975 960
3 959 960 944
3 975 991 976
3 975 976 960
3 991 1007 992
3 991 992 976
3 1007 1023 1008
3 1007 1008 992
3 1023 1039 1024
3 1023 1024 1008
3 1039 463 448
3 1039 448 1024
