ply
format ascii 1.0
element vertex 504
property float x
property float y
property float z
property float nx
property float ny
property float nz
element face 1008
property list uchar int vertex_indices
end_header
1.400000 0.000000 1.400000 -1.000000 0.000000 0.000000
1.375877 0.000000 1.536808 -0.939649 -0.002241 -0.342134
1.306418 0.000000 1.657115 -0.765917 -0.004226 -0.642925
1.200000 0.000000 1.746410 -0.499849 -0.005718 -0.866094
1.069459 0.000000 1.793923 -0.173580 -0.006519 -0.984798
0.930541 0.000000 1.793923 0.173580 -0.006519 -0.984798
0.800000 0.000000 1.746410 0.499849 -0.005718 -0.866094
0.693582 0.000000 1.657115 0.765917 -0.004226 -0.642925
0.624123 0.000000 1.536808 0.939649 -0.002241 -0.342134
0.600000 0.000000 1.400000 1.000000 -0.000000 0.000000
0.624123 0.000000 1.263192 0.939649 0.002241 0.342134
0.693582 0.000000 1.142885 0.765917 0.004226 0.642925
0.800000 0.000000 1.053590 0.499849 0.005718 0.866094
0.930541 0.000000 1.006077 0.173580 0.006519 0.984798
1.069459 0.000000 1.006077 -0.173580 0.006519 0.984798
1.200000 0.000000 1.053590 -0.499849 0.005718 0.866094
1.306418 0.000000 1.142885 -0.765917 0.004226 0.642925
1.375877 0.000000 1.263192 -0.939649 0.002241 0.342134
1.364899 0.311529 1.400000 -0.974928 -0.222521 -0.000000
1.341381 0.306161 1.536808 -0.915591 -0.211276 -0.342134
1.273663 0.290705 1.657115 -0.745774 -0.174553 -0.642925
1.169913 0.267025 1.746410 -0.486044 -0.116801 -0.866094
1.042646 0.237977 1.793923 -0.167777 -0.044981 -0.984798
0.907210 0.207065 1.793923 0.170679 0.032269 -0.984798
0.779942 0.178017 1.746410 0.488589 0.105653 -0.866094
0.676193 0.154337 1.657115 0.747655 0.166312 -0.642925
0.608475 0.138880 1.536808 0.916588 0.206907 -0.342134
0.584957 0.133513 1.400000 0.974928 0.222521 0.000000
0.608475 0.138880 1.263192 0.915591 0.211276 0.342134
0.676193 0.154337 1.142885 0.745774 0.174553 0.642925
0.779942 0.178017 1.053590 0.486044 0.116801 0.866094
0.907210 0.207065 1.006077 0.167777 0.044981 0.984798
1.042646 0.237977 1.006077 -0.170679 -0.032269 0.984798
1.169913 0.267025 1.053590 -0.488589 -0.105653 0.866094
1.273663 0.290705 1.142885 -0.747655 -0.166312 0.642925
1.341381 0.306161 1.263192 -0.916588 -0.206907 0.342134
1.261356 0.607437 1.400000 -0.900969 -0.433884 -0.000000
1.239622 0.596971 1.536808 -0.845622 -0.409717 -0.342134
1.177042 0.566833 1.657115 -0.688234 -0.336127 -0.642925
1.081163 0.520660 1.746410 -0.447867 -0.222028 -0.866094
0.963550 0.464021 1.793923 -0.153562 -0.081187 -0.984798
0.838388 0.403746 1.793923 0.159219 0.069440 -0.984798
0.720775 0.347107 1.746410 0.452829 0.211725 -0.866094
0.624896 0.300934 1.657115 0.691901 0.328511 -0.642925
0.562315 0.270797 1.536808 0.847566 0.405680 -0.342134
0.540581 0.260330 1.400000 0.900969 0.433884 -0.000000
0.562315 0.270797 1.263192 0.845622 0.409717 0.342134
0.624896 0.300934 1.142885 0.688234 0.336127 0.642925
0.720775 0.347107 1.053590 0.447867 0.222028 0.866094
0.838388 0.403746 1.006077 0.153562 0.081187 0.984798
0.963550 0.464021 1.006077 -0.159219 -0.069440 0.984798
1.081163 0.520660 1.053590 -0.452829 -0.211725 0.866094
1.177042 0.566833 1.142885 -0.691901 -0.328511 0.642925
1.239622 0.596971 1.263192 -0.847566 -0.405680 0.342134
1.094564 0.872886 1.400000 -0.781831 -0.623490 -0.000000
1.075704 0.857845 1.536808 -0.733250 -0.587613 -0.342134
1.021399 0.814538 1.657115 -0.596183 -0.480846 -0.642925
0.938198 0.748188 1.746410 -0.387233 -0.316121 -0.866094
0.836137 0.666797 1.793923 -0.131646 -0.113322 -0.984798
0.727526 0.580183 1.793923 0.139775 0.103128 -0.984798
0.625465 0.498792 1.746410 0.394362 0.307180 -0.866094
0.542264 0.432441 1.657115 0.601453 0.474237 -0.642925
0.487959 0.389134 1.536808 0.736044 0.584110 -0.342134
0.469099 0.374094 1.400000 0.781831 0.623490 -0.000000
0.487959 0.389134 1.263192 0.733250 0.587613 0.342134
0.542264 0.432441 1.142885 0.596183 0.480846 0.642925
0.625465 0.498792 1.053590 0.387233 0.316121 0.866094
0.727526 0.580183 1.006077 0.131646 0.113322 0.984798
0.836137 0.666797 1.006077 -0.139775 -0.103128 0.984798
0.938198 0.748188 1.053590 -0.394362 -0.307180 0.866094
1.021399 0.814538 1.142885 -0.601453 -0.474237 0.642925
1.075704 0.857845 1.263192 -0.736044 -0.584110 0.342134
0.872886 1.094564 1.400000 -0.623490 -0.781831 0.000000
0.857845 1.075704 1.536808 -0.584110 -0.736044 -0.342134
0.814538 1.021399 1.657115 -0.474237 -0.601453 -0.642925
0.748188 0.938198 1.746410 -0.307180 -0.394362 -0.866094
0.666797 0.836137 1.793923 -0.103128 -0.139775 -0.984798
0.580183 0.727526 1.793923 0.113322 0.131646 -0.984798
0.498792 0.625465 1.746410 0.316121 0.387233 -0.866094
0.432441 0.542264 1.657115 0.480846 0.596183 -0.642925
0.389134 0.487959 1.536808 0.587613 0.733250 -0.342134
0.374094 0.469099 1.400000 0.623490 0.781831 0.000000
0.389134 0.487959 1.263192 0.584110 0.736044 0.342134
0.432441 0.542264 1.142885 0.474237 0.601453 0.642925
0.498792 0.625465 1.053590 0.307180 0.394362 0.866094
0.580183 0.727526 1.006077 0.103128 0.139775 0.984798
0.666797 0.836137 1.006077 -0.113322 -0.131646 0.984798
0.748188 0.938198 1.053590 -0.316121 -0.387233 0.866094
0.814538 1.021399 1.142885 -0.480846 -0.596183 0.642925
0.857845 1.075704 1.263192 -0.587613 -0.733250 0.342134
0.607437 1.261356 1.400000 -0.433884 -0.900969 0.000000
0.596971 1.239622 1.536808 -0.405680 -0.847566 -0.342134
0.566833 1.177042 1.657115 -0.328511 -0.691901 -0.642925
0.520660 1.081163 1.746410 -0.211725 -0.452829 -0.866094
0.464021 0.963550 1.793923 -0.069440 -0.159219 -0.984798
0.403746 0.838388 1.793923 0.081187 0.153562 -0.984798
0.347107 0.720775 1.746410 0.222028 0.447867 -0.866094
0.300934 0.624896 1.657115 0.336127 0.688234 -0.642925
0.270797 0.562315 1.536808 0.409717 0.845622 -0.342134
0.260330 0.540581 1.400000 0.433884 0.900969 0.000000
0.270797 0.562315 1.263192 0.405680 0.847566 0.342134
0.300934 0.624896 1.142885 0.328511 0.691901 0.642925
0.347107 0.720775 1.053590 0.211725 0.452829 0.866094
0.403746 0.838388 1.006077 0.069440 0.159219 0.984798
0.464021 0.963550 1.006077 -0.081187 -0.153562 0.984798
0.520660 1.081163 1.053590 -0.222028 -0.447867 0.866094
0.566833 1.177042 1.142885 -0.336127 -0.688234 0.642925
0.596971 1.239622 1.263192 -0.409717 -0.845622 0.342134
0.311529 1.364899 1.400000 -0.222521 -0.974928 0.000000
0.306161 1.341381 1.536808 -0.206907 -0.916588 -0.342134
0.290705 1.273663 1.657115 -0.166312 -0.747655 -0.642925
0.267025 1.169913 1.746410 -0.105653 -0.488589 -0.866094
0.237977 1.042646 1.793923 -0.032269 -0.170679 -0.984798
0.207065 0.907210 1.793923 0.044981 0.167777 -0.984798
0.178017 0.779942 1.746410 0.116801 0.486044 -0.866094
0.154337 0.676193 1.657115 0.174553 0.745774 -0.642925
0.138880 0.608475 1.536808 0.211276 0.915591 -0.342134
0.133513 0.584957 1.400000 0.222521 0.974928 -0.000000
0.138880 0.608475 1.263192 0.206907 0.916588 0.342134
0.154337 0.676193 1.142885 0.166312 0.747655 0.642925
0.178017 0.779942 1.053590 0.105653 0.488589 0.866094
0.207065 0.907210 1.006077 0.032269 0.170679 0.984798
0.237977 1.042646 1.006077 -0.044981 -0.167777 0.984798
0.267025 1.169913 1.053590 -0.116801 -0.486044 0.866094
0.290705 1.273663 1.142885 -0.174553 -0.745774 0.642925
0.306161 1.341381 1.263192 -0.211276 -0.915591 0.342134
0.000000 1.400000 1.400000 -0.000000 -1.000000 0.000000
0.000000 1.375877 1.536808 0.002241 -0.939649 -0.342134
0.000000 1.306418 1.657115 0.004226 -0.765917 -0.642925
0.000000 1.200000 1.746410 0.005718 -0.499849 -0.866094
0.000000 1.069459 1.793923 0.006519 -0.173580 -0.984798
0.000000 0.930541 1.793923 0.006519 0.173580 -0.984798
0.000000 0.800000 1.746410 0.005718 0.499849 -0.866094
0.000000 0.693582 1.657115 0.004226 0.765917 -0.642925
0.000000 0.624123 1.536808 0.002241 0.939649 -0.342134
0.000000 0.600000 1.400000 -0.000000 1.000000 -0.000000
0.000000 0.624123 1.263192 -0.002241 0.939649 0.342134
0.000000 0.693582 1.142885 -0.004226 0.765917 0.642925
0.000000 0.800000 1.053590 -0.005718 0.499849 0.866094
0.000000 0.930541 1.006077 -0.006519 0.173580 0.984798
0.000000 1.069459 1.006077 -0.006519 -0.173580 0.984798
0.000000 1.200000 1.053590 -0.005718 -0.499849 0.866094
0.000000 1.306418 1.142885 -0.004226 -0.765917 0.642925
0.000000 1.375877 1.263192 -0.002241 -0.939649 0.342134
-0.311529 1.364899 1.400000 0.222521 -0.974928 -0.000000
-0.306161 1.341381 1.536808 0.211276 -0.915591 -0.342134
-0.290705 1.273663 1.657115 0.174553 -0.745774 -0.642925
-0.267025 1.169913 1.746410 0.116801 -0.486044 -0.866094
-0.237977 1.042646 1.793923 0.044981 -0.167777 -0.984798
-0.207065 0.907210 1.793923 -0.032269 0.170679 -0.984798
-0.178017 0.779942 1.746410 -0.105653 0.488589 -0.866094
-0.154337 0.676193 1.657115 -0.166312 0.747655 -0.642925
-0.138880 0.608475 1.536808 -0.206907 0.916588 -0.342134
-0.133513 0.584957 1.400000 -0.222521 0.974928 0.000000
-0.138880 0.608475 1.263192 -0.211276 0.915591 0.342134
-0.154337 0.676193 1.142885 -0.174553 0.745774 0.642925
-0.178017 0.779942 1.053590 -0.116801 0.486044 0.866094
-0.207065 0.907210 1.006077 -0.044981 0.167777 0.984798
-0.237977 1.042646 1.006077 0.032269 -0.170679 0.984798
-0.267025 1.169913 1.053590 0.105653 -0.488589 0.866094
-0.290705 1.273663 1.142885 0.166312 -0.747655 0.642925
-0.306161 1.341381 1.263192 0.206907 -0.916588 0.342134
-0.607437 1.261356 1.400000 0.433884 -0.900969 -0.000000
-0.596971 1.239622 1.536808 0.409717 -0.845622 -0.342134
-0.566833 1.177042 1.657115 0.336127 -0.688234 -0.642925
-0.520660 1.081163 1.746410 0.222028 -0.447867 -0.866094
-0.464021 0.963550 1.793923 0.081187 -0.153562 -0.984798
-0.403746 0.838388 1.793923 -0.069440 0.159219 -0.984798
-0.347107 0.720775 1.746410 -0.211725 0.452829 -0.866094
-0.300934 0.624896 1.657115 -0.328511 0.691901 -0.642925
-0.270797 0.562315 1.536808 -0.405680 0.847566 -0.342134
-0.260330 0.540581 1.400000 -0.433884 0.900969 -0.000000
-0.270797 0.562315 1.263192 -0.409717 0.845622 0.342134
-0.300934 0.624896 1.142885 -0.336127 0.688234 0.642925
-0.347107 0.720775 1.053590 -0.222028 0.447867 0.866094
-0.403746 0.838388 1.006077 -0.081187 0.153562 0.984798
-0.464021 0.963550 1.006077 0.069440 -0.159219 0.984798
-0.520660 1.081163 1.053590 0.211725 -0.452829 0.866094
-0.566833 1.177042 1.142885 0.328511 -0.691901 0.642925
-0.596971 1.239622 1.263192 0.405680 -0.847566 0.342134
-0.872886 1.094564 1.400000 0.623490 -0.781831 0.000000
-0.857845 1.075704 1.536808 0.587613 -0.733250 -0.342134
-0.814538 1.021399 1.657115 0.480846 -0.596183 -0.642925
-0.748188 0.938198 1.746410 0.316121 -0.387233 -0.866094
-0.666797 0.836137 1.793923 0.113322 -0.131646 -0.984798
-0.580183 0.727526 1.793923 -0.103128 0.139775 -0.984798
-0.498792 0.625465 1.746410 -0.307180 0.394362 -0.866094
-0.432441 0.542264 1.657115 -0.474237 0.601453 -0.642925
-0.389134 0.487959 1.536808 -0.584110 0.736044 -0.342134
-0.374094 0.469099 1.400000 -0.623490 0.781831 0.000000
-0.389134 0.487959 1.263192 -0.587613 0.733250 0.342134
-0.432441 0.542264 1.142885 -0.480846 0.596183 0.642925
-0.498792 0.625465 1.053590 -0.316121 0.387233 0.866094
-0.580183 0.727526 1.006077 -0.113322 0.131646 0.984798
-0.666797 0.836137 1.006077 0.103128 -0.139775 0.984798
-0.748188 0.938198 1.053590 0.307180 -0.394362 0.866094
-0.814538 1.021399 1.142885 0.474237 -0.601453 0.642925
-0.857845 1.075704 1.263192 0.584110 -0.736044 0.342134
-1.094564 0.872886 1.400000 0.781831 -0.623490 -0.000000
-1.075704 0.857845 1.536808 0.736044 -0.584110 -0.342134
-1.021399 0.814538 1.657115 0.601453 -0.474237 -0.642925
-0.938198 0.748188 1.746410 0.394362 -0.307180 -0.866094
-0.836137 0.666797 1.793923 0.139775 -0.103128 -0.984798
-0.727526 0.580183 1.793923 -0.131646 0.113322 -0.984798
-0.625465 0.498792 1.746410 -0.387233 0.316121 -0.866094
-0.542264 0.432441 1.657115 -0.596183 0.480846 -0.642925
-0.487959 0.389134 1.536808 -0.733250 0.587613 -0.342134
-0.469099 0.374094 1.400000 -0.781831 0.623490 0.000000
-0.487959 0.389134 1.263192 -0.736044 0.584110 0.342134
-0.542264 0.432441 1.142885 -0.601453 0.474237 0.642925
-0.625465 0.498792 1.053590 -0.394362 0.307180 0.866094
-0.727526 0.580183 1.006077 -0.139775 0.103128 0.984798
-0.836137 0.666797 1.006077 0.131646 -0.113322 0.984798
-0.938198 0.748188 1.053590 0.387233 -0.316121 0.866094
-1.021399 0.814538 1.142885 0.596183 -0.480846 0.642925
-1.075704 0.857845 1.263192 0.733250 -0.587613 0.342134
-1.261356 0.607437 1.400000 0.900969 -0.433884 -0.000000
-1.239622 0.596971 1.536808 0.847566 -0.405680 -0.342134
-1.177042 0.566833 1.657115 0.691901 -0.328511 -0.642925
-1.081163 0.520660 1.746410 0.452829 -0.211725 -0.866094
-0.963550 0.464021 1.793923 0.159219 -0.069440 -0.984798
-0.838388 0.403746 1.793923 -0.153562 0.081187 -0.984798
-0.720775 0.347107 1.746410 -0.447867 0.222028 -0.866094
-0.624896 0.300934 1.657115 -0.688234 0.336127 -0.642925
-0.562315 0.270797 1.536808 -0.845622 0.409717 -0.342134
-0.540581 0.260330 1.400000 -0.900969 0.433884 -0.000000
-0.562315 0.270797 1.263192 -0.847566 0.405680 0.342134
-0.624896 0.300934 1.142885 -0.691901 0.328511 0.642925
-0.720775 0.347107 1.053590 -0.452829 0.211725 0.866094
-0.838388 0.403746 1.006077 -0.159219 0.069440 0.984798
-0.963550 0.464021 1.006077 0.153562 -0.081187 0.984798
-1.081163 0.520660 1.053590 0.447867 -0.222028 0.866094
-1.177042 0.566833 1.142885 0.688234 -0.336127 0.642925
-1.239622 0.596971 1.263192 0.845622 -0.409717 0.342134
-1.364899 0.311529 1.400000 0.974928 -0.222521 0.000000
-1.341381 0.306161 1.536808 0.916588 -0.206907 -0.342134
-1.273663 0.290705 1.657115 0.747655 -0.166312 -0.642925
-1.169913 0.267025 1.746410 0.488589 -0.105653 -0.866094
-1.042646 0.237977 1.793923 0.170679 -0.032269 -0.984798
-0.907210 0.207065 1.793923 -0.167777 0.044981 -0.984798
-0.779942 0.178017 1.746410 -0.486044 0.116801 -0.866094
-0.676193 0.154337 1.657115 -0.745774 0.174553 -0.642925
-0.608475 0.138880 1.536808 -0.915591 0.211276 -0.342134
-0.584957 0.133513 1.400000 -0.974928 0.222521 -0.000000
-0.608475 0.138880 1.263192 -0.916588 0.206907 0.342134
-0.676193 0.154337 1.142885 -0.747655 0.166312 0.642925
-0.779942 0.178017 1.053590 -0.488589 0.105653 0.866094
-0.907210 0.207065 1.006077 -0.170679 0.032269 0.984798
-1.042646 0.237977 1.006077 0.167777 -0.044981 0.984798
-1.169913 0.267025 1.053590 0.486044 -0.116801 0.866094
-1.273663 0.290705 1.142885 0.745774 -0.174553 0.642925
-1.341381 0.306161 1.263192 0.915591 -0.211276 0.342134
-1.400000 0.000000 1.400000 1.000000 0.000000 -0.000000
-1.375877 0.000000 1.536808 0.939649 0.002241 -0.342134
-1.306418 0.000000 1.657115 0.765917 0.004226 -0.642925
-1.200000 0.000000 1.746410 0.499849 0.005718 -0.866094
-1.069459 0.000000 1.793923 0.173580 0.006519 -0.984798
-0.930541 0.000000 1.793923 -0.173580 0.006519 -0.984798
-0.800000 0.000000 1.746410 -0.499849 0.005718 -0.866094
-0.693582 0.000000 1.657115 -0.765917 0.004226 -0.642925
-0.624123 0.000000 1.536808 -0.939649 0.002241 -0.342134
-0.600000 0.000000 1.400000 -1.000000 0.000000 0.000000
-0.624123 0.000000 1.263192 -0.939649 -0.002241 0.342134
-0.693582 0.000000 1.142885 -0.765917 -0.004226 0.642925
-0.800000 0.000000 1.053590 -0.499849 -0.005718 0.866094
-0.930541 0.000000 1.006077 -0.173580 -0.006519 0.984798
-1.069459 0.000000 1.006077 0.173580 -0.006519 0.984798
-1.200000 0.000000 1.053590 0.499849 -0.005718 0.866094
-1.306418 0.000000 1.142885 0.765917 -0.004226 0.642925
-1.375877 0.000000 1.263192 0.939649 -0.002241 0.342134
-1.364899 -0.311529 1.400000 0.974928 0.222521 -0.000000
-1.341381 -0.306161 1.536808 0.915591 0.211276 -0.342134
-1.273663 -0.290705 1.657115 0.745774 0.174553 -0.642925
-1.169913 -0.267025 1.746410 0.486044 0.116801 -0.866094
-1.042646 -0.237977 1.793923 0.167777 0.044981 -0.984798
-0.907210 -0.207065 1.793923 -0.170679 -0.032269 -0.984798
-0.779942 -0.178017 1.746410 -0.488589 -0.105653 -0.866094
-0.676193 -0.154337 1.657115 -0.747655 -0.166312 -0.642925
-0.608475 -0.138880 1.536808 -0.916588 -0.206907 -0.342134
-0.584957 -0.133513 1.400000 -0.974928 -0.222521 0.000000
-0.608475 -0.138880 1.263192 -0.915591 -0.211276 0.342134
-0.676193 -0.154337 1.142885 -0.745774 -0.174553 0.642925
-0.779942 -0.178017 1.053590 -0.486044 -0.116801 0.866094
-0.907210 -0.207065 1.006077 -0.167777 -0.044981 0.984798
-1.042646 -0.237977 1.006077 0.170679 0.032269 0.984798
-1.169913 -0.267025 1.053590 0.488589 0.105653 0.866094
-1.273663 -0.290705 1.142885 0.747655 0.166312 0.642925
-1.341381 -0.306161 1.263192 0.916588 0.206907 0.342134
-1.261356 -0.607437 1.400000 0.900969 0.433884 0.000000
-1.239622 -0.596971 1.536808 0.845622 0.409717 -0.342134
-1.177042 -0.566833 1.657115 0.688234 0.336127 -0.642925
-1.081163 -0.520660 1.746410 0.447867 0.222028 -0.866094
-0.963550 -0.464021 1.793923 0.153562 0.081187 -0.984798
-0.838388 -0.403746 1.793923 -0.159219 -0.069440 -0.984798
-0.720775 -0.347107 1.746410 -0.452829 -0.211725 -0.866094
-0.624896 -0.300934 1.657115 -0.691901 -0.328511 -0.642925
-0.562315 -0.270797 1.536808 -0.847566 -0.405680 -0.342134
-0.540581 -0.260330 1.400000 -0.900969 -0.433884 0.000000
-0.562315 -0.270797 1.263192 -0.845622 -0.409717 0.342134
-0.624896 -0.300934 1.142885 -0.688234 -0.336127 0.642925
-0.720775 -0.347107 1.053590 -0.447867 -0.222028 0.866094
-0.838388 -0.403746 1.006077 -0.153562 -0.081187 0.984798
-0.963550 -0.464021 1.006077 0.159219 0.069440 0.984798
-1.081163 -0.520660 1.053590 0.452829 0.211725 0.866094
-1.177042 -0.566833 1.142885 0.691901 0.328511 0.642925
-1.239622 -0.596971 1.263192 0.847566 0.405680 0.342134
-1.094564 -0.872886 1.400000 0.781831 0.623490 -0.000000
-1.075704 -0.857845 1.536808 0.733250 0.587613 -0.342134
-1.021399 -0.814538 1.657115 0.596183 0.480846 -0.642925
-0.938198 -0.748188 1.746410 0.387233 0.316121 -0.866094
-0.836137 -0.666797 1.793923 0.131646 0.113322 -0.984798
-0.727526 -0.580183 1.793923 -0.139775 -0.103128 -0.984798
-0.625465 -0.498792 1.746410 -0.394362 -0.307180 -0.866094
-0.542264 -0.432441 1.657115 -0.601453 -0.474237 -0.642925
-0.487959 -0.389134 1.536808 -0.736044 -0.584110 -0.342134
-0.469099 -0.374094 1.400000 -0.781831 -0.623490 -0.000000
-0.487959 -0.389134 1.263192 -0.733250 -0.587613 0.342134
-0.542264 -0.432441 1.142885 -0.596183 -0.480846 0.642925
-0.625465 -0.498792 1.053590 -0.387233 -0.316121 0.866094
-0.727526 -0.580183 1.006077 -0.131646 -0.113322 0.984798
-0.836137 -0.666797 1.006077 0.139775 0.103128 0.984798
-0.938198 -0.748188 1.053590 0.394362 0.307180 0.866094
-1.021399 -0.814538 1.142885 0.601453 0.474237 0.642925
-1.075704 -0.857845 1.263192 0.736044 0.584110 0.342134
-0.872886 -1.094564 1.400000 0.623490 0.781831 0.000000
-0.857845 -1.075704 1.536808 0.584110 0.736044 -0.342134
-0.814538 -1.021399 1.657115 0.474237 0.601453 -0.642925
-0.748188 -0.938198 1.746410 0.307180 0.394362 -0.866094
-0.666797 -0.836137 1.793923 0.103128 0.139775 -0.984798
-0.580183 -0.727526 1.793923 -0.113322 -0.131646 -0.984798
-0.498792 -0.625465 1.746410 -0.316121 -0.387233 -0.866094
-0.432441 -0.542264 1.657115 -0.480846 -0.596183 -0.642925
-0.389134 -0.487959 1.536808 -0.587613 -0.733250 -0.342134
-0.374094 -0.469099 1.400000 -0.623490 -0.781831 0.000000
-0.389134 -0.487959 1.263192 -0.584110 -0.736044 0.342134
-0.432441 -0.542264 1.142885 -0.474237 -0.601453 0.642925
-0.498792 -0.625465 1.053590 -0.307180 -0.394362 0.866094
-0.580183 -0.727526 1.006077 -0.103128 -0.139775 0.984798
-0.666797 -0.836137 1.006077 0.113322 0.131646 0.984798
-0.748188 -0.938198 1.053590 0.316121 0.387233 0.866094
-0.814538 -1.021399 1.142885 0.480846 0.596183 0.642925
-0.857845 -1.075704 1.263192 0.587613 0.733250 0.342134
-0.607437 -1.261356 1.400000 0.433884 0.900969 0.000000
-0.596971 -1.239622 1.536808 0.405680 0.847566 -0.342134
-0.566833 -1.177042 1.657115 0.328511 0.691901 -0.642925
-0.520660 -1.081163 1.746410 0.211725 0.452829 -0.866094
-0.464021 -0.963550 1.793923 0.069440 0.159219 -0.984798
-0.403746 -0.838388 1.793923 -0.081187 -0.153562 -0.984798
-0.347107 -0.720775 1.746410 -0.222028 -0.447867 -0.866094
-0.300934 -0.624896 1.657115 -0.336127 -0.688234 -0.642925
-0.270797 -0.562315 1.536808 -0.409717 -0.845622 -0.342134
-0.260330 -0.540581 1.400000 -0.433884 -0.900969 0.000000
-0.270797 -0.562315 1.263192 -0.405680 -0.847566 0.342134
-0.300934 -0.624896 1.142885 -0.328511 -0.691901 0.642925
-0.347107 -0.720775 1.053590 -0.211725 -0.452829 0.866094
-0.403746 -0.838388 1.006077 -0.069440 -0.159219 0.984798
-0.464021 -0.963550 1.006077 0.081187 0.153562 0.984798
-0.520660 -1.081163 1.053590 0.222028 0.447867 0.866094
-0.566833 -1.177042 1.142885 0.336127 0.688234 0.642925
-0.596971 -1.239622 1.263192 0.409717 0.845622 0.342134
-0.311529 -1.364899 1.400000 0.222521 0.974928 0.000000
-0.306161 -1.341381 1.536808 0.206907 0.916588 -0.342134
-0.290705 -1.273663 1.657115 0.166312 0.747655 -0.642925
-0.267025 -1.169913 1.746410 0.105653 0.488589 -0.866094
-0.237977 -1.042646 1.793923 0.032269 0.170679 -0.984798
-0.207065 -0.907210 1.793923 -0.044981 -0.167777 -0.984798
-0.178017 -0.779942 1.746410 -0.116801 -0.486044 -0.866094
-0.154337 -0.676193 1.657115 -0.174553 -0.745774 -0.642925
-0.138880 -0.608475 1.536808 -0.211276 -0.915591 -0.342134
-0.133513 -0.584957 1.400000 -0.222521 -0.974928 -0.000000
-0.138880 -0.608475 1.263192 -0.206907 -0.916588 0.342134
-0.154337 -0.676193 1.142885 -0.166312 -0.747655 0.642925
-0.178017 -0.779942 1.053590 -0.105653 -0.488589 0.866094
-0.207065 -0.907210 1.006077 -0.032269 -0.170679 0.984798
-0.237977 -1.042646 1.006077 0.044981 0.167777 0.984798
-0.267025 -1.169913 1.053590 0.116801 0.486044 0.866094
-0.290705 -1.273663 1.142885 0.174553 0.745774 0.642925
-0.306161 -1.341381 1.263192 0.211276 0.915591 0.342134
-0.000000 -1.400000 1.400000 0.000000 1.000000 -0.000000
-0.000000 -1.375877 1.536808 -0.002241 0.939649 -0.342134
-0.000000 -1.306418 1.657115 -0.004226 0.765917 -0.642925
-0.000000 -1.200000 1.746410 -0.005718 0.499849 -0.866094
-0.000000 -1.069459 1.793923 -0.006519 0.173580 -0.984798
-0.000000 -0.930541 1.793923 -0.006519 -0.173580 -0.984798
-0.000000 -0.800000 1.746410 -0.005718 -0.499849 -0.866094
-0.000000 -0.693582 1.657115 -0.004226 -0.765917 -0.642925
-0.000000 -0.624123 1.536808 -0.002241 -0.939649 -0.342134
-0.000000 -0.600000 1.400000 -0.000000 -1.000000 -0.000000
-0.000000 -0.624123 1.263192 0.002241 -0.939649 0.342134
-0.000000 -0.693582 1.142885 0.004226 -0.765917 0.642925
-0.000000 -0.800000 1.053590 0.005718 -0.499849 0.866094
-0.000000 -0.930541 1.006077 0.006519 -0.173580 0.984798
-0.000000 -1.069459 1.006077 0.006519 0.173580 0.984798
-0.000000 -1.200000 1.053590 0.005718 0.499849 0.866094
-0.000000 -1.306418 1.142885 0.004226 0.765917 0.642925
-0.000000 -1.375877 1.263192 0.002241 0.939649 0.342134
0.311529 -1.364899 1.400000 -0.222521 0.974928 -0.000000
0.306161 -1.341381 1.536808 -0.211276 0.915591 -0.342134
0.290705 -1.273663 1.657115 -0.174553 0.745774 -0.642925
0.267025 -1.169913 1.746410 -0.116801 0.486044 -0.866094
0.237977 -1.042646 1.793923 -0.044981 0.167777 -0.984798
0.207065 -0.907210 1.793923 0.032269 -0.170679 -0.984798
0.178017 -0.779942 1.746410 0.105653 -0.488589 -0.866094
0.154337 -0.676193 1.657115 0.166312 -0.747655 -0.642925
0.138880 -0.608475 1.536808 0.206907 -0.916588 -0.342134
0.133513 -0.584957 1.400000 0.222521 -0.974928 -0.000000
0.138880 -0.608475 1.263192 0.211276 -0.915591 0.342134
0.154337 -0.676193 1.142885 0.174553 -0.745774 0.642925
0.178017 -0.779942 1.053590 0.116801 -0.486044 0.866094
0.207065 -0.907210 1.006077 0.044981 -0.167777 0.984798
0.237977 -1.042646 1.006077 -0.032269 0.170679 0.984798
0.267025 -1.169913 1.053590 -0.105653 0.488589 0.866094
0.290705 -1.273663 1.142885 -0.166312 0.747655 0.642925
0.306161 -1.341381 1.263192 -0.206907 0.916588 0.342134
0.607437 -1.261356 1.400000 -0.433884 0.900969 0.000000
0.596971 -1.239622 1.536808 -0.409717 0.845622 -0.342134
0.566833 -1.177042 1.657115 -0.336127 0.688234 -0.642925
0.520660 -1.081163 1.746410 -0.222028 0.447867 -0.866094
0.464021 -0.963550 1.793923 -0.081187 0.153562 -0.984798
0.403746 -0.838388 1.793923 0.069440 -0.159219 -0.984798
0.347107 -0.720775 1.746410 0.211725 -0.452829 -0.866094
0.300934 -0.624896 1.657115 0.328511 -0.691901 -0.642925
0.270797 -0.562315 1.536808 0.405680 -0.847566 -0.342134
0.260330 -0.540581 1.400000 0.433884 -0.900969 -0.000000
0.270797 -0.562315 1.263192 0.409717 -0.845622 0.342134
0.300934 -0.624896 1.142885 0.336127 -0.688234 0.642925
0.347107 -0.720775 1.053590 0.222028 -0.447867 0.866094
0.403746 -0.838388 1.006077 0.081187 -0.153562 0.984798
0.464021 -0.963550 1.006077 -0.069440 0.159219 0.984798
0.520660 -1.081163 1.053590 -0.211725 0.452829 0.866094
0.566833 -1.177042 1.142885 -0.328511 0.691901 0.642925
0.596971 -1.239622 1.263192 -0.405680 0.847566 0.342134
0.872886 -1.094564 1.400000 -0.623490 0.781831 -0.000000
0.857845 -1.075704 1.536808 -0.587613 0.733250 -0.342134
0.814538 -1.021399 1.657115 -0.480846 0.596183 -0.642925
0.748188 -0.938198 1.746410 -0.316121 0.387233 -0.866094
0.666797 -0.836137 1.793923 -0.113322 0.131646 -0.984798
0.580183 -0.727526 1.793923 0.103128 -0.139775 -0.984798
0.498792 -0.625465 1.746410 0.307180 -0.394362 -0.866094
0.432441 -0.542264 1.657115 0.474237 -0.601453 -0.642925
0.389134 -0.487959 1.536808 0.584110 -0.736044 -0.342134
0.374094 -0.469099 1.400000 0.623490 -0.781831 0.000000
0.389134 -0.487959 1.263192 0.587613 -0.733250 0.342134
0.432441 -0.542264 1.142885 0.480846 -0.596183 0.642925
0.498792 -0.625465 1.053590 0.316121 -0.387233 0.866094
0.580183 -0.727526 1.006077 0.113322 -0.131646 0.984798
0.666797 -0.836137 1.006077 -0.103128 0.139775 0.984798
0.748188 -0.938198 1.053590 -0.307180 0.394362 0.866094
0.814538 -1.021399 1.142885 -0.474237 0.601453 0.642925
0.857845 -1.075704 1.263192 -0.584110 0.736044 0.342134
1.094564 -0.872886 1.400000 -0.781831 0.623490 0.000000
1.075704 -0.857845 1.536808 -0.736044 0.584110 -0.342134
1.021399 -0.814538 1.657115 -0.601453 0.474237 -0.642925
0.938198 -0.748188 1.746410 -0.394362 0.307180 -0.866094
0.836137 -0.666797 1.793923 -0.139775 0.103128 -0.984798
0.727526 -0.580183 1.793923 0.131646 -0.113322 -0.984798
0.625465 -0.498792 1.746410 0.387233 -0.316121 -0.866094
0.542264 -0.432441 1.657115 0.596183 -0.480846 -0.642925
0.487959 -0.389134 1.536808 0.733250 -0.587613 -0.342134
0.469099 -0.374094 1.400000 0.781831 -0.623490 0.000000
0.487959 -0.389134 1.263192 0.736044 -0.584110 0.342134
0.542264 -0.432441 1.142885 0.601453 -0.474237 0.642925
0.625465 -0.498792 1.053590 0.394362 -0.307180 0.866094
0.727526 -0.580183 1.006077 0.139775 -0.103128 0.984798
0.836137 -0.666797 1.006077 -0.131646 0.113322 0.984798
0.938198 -0.748188 1.053590 -0.387233 0.316121 0.866094
1.021399 -0.814538 1.142885 -0.596183 0.480846 0.642925
1.075704 -0.857845 1.263192 -0.733250 0.587613 0.342134
1.261356 -0.607437 1.400000 -0.900969 0.433884 -0.000000
1.239622 -0.596971 1.536808 -0.847566 0.405680 -0.342134
1.177042 -0.566833 1.657115 -0.691901 0.328511 -0.642925
1.081163 -0.520660 1.746410 -0.452829 0.211725 -0.866094
0.963550 -0.464021 1.793923 -0.159219 0.069440 -0.984798
0.838388 -0.403746 1.793923 0.153562 -0.081187 -0.984798
0.720775 -0.347107 1.746410 0.447867 -0.222028 -0.866094
0.624896 -0.300934 1.657115 0.688234 -0.336127 -0.642925
0.562315 -0.270797 1.536808 0.845622 -0.409717 -0.342134
0.540581 -0.260330 1.400000 0.900969 -0.433884 -0.000000
0.562315 -0.270797 1.263192 0.847566 -0.405680 0.342134
0.624896 -0.300934 1.142885 0.691901 -0.328511 0.642925
0.720775 -0.347107 1.053590 0.452829 -0.211725 0.866094
0.838388 -0.403746 1.006077 0.159219 -0.069440 0.984798
0.963550 -0.464021 1.006077 -0.153562 0.081187 0.984798
1.081163 -0.520660 1.053590 -0.447867 0.222028 0.866094
1.177042 -0.566833 1.142885 -0.688234 0.336127 0.642925
1.239622 -0.596971 1.263192 -0.845622 0.409717 0.342134
1.364899 -0.311529 1.400000 -0.974928 0.222521 -0.000000
1.341381 -0.306161 1.536808 -0.916588 0.206907 -0.342134
1.273663 -0.290705 1.657115 -0.747655 0.166312 -0.642925
1.169913 -0.267025 1.746410 -0.488589 0.105653 -0.866094
1.042646 -0.237977 1.793923 -0.170679 0.032269 -0.984798
0.907210 -0.207065 1.793923 0.167777 -0.044981 -0.984798
0.779942 -0.178017 1.746410 0.486044 -0.116801 -0.866094
0.676193 -0.154337 1.657115 0.745774 -0.174553 -0.642925
0.608475 -0.138880 1.536808 0.915591 -0.211276 -0.342134
0.584957 -0.133513 1.400000 0.974928 -0.222521 -0.000000
0.608475 -0.138880 1.263192 0.916588 -0.206907 0.342134
0.676193 -0.154337 1.142885 0.747655 -0.166312 0.642925
0.779942 -0.178017 1.053590 0.488589 -0.105653 0.866094
0.907210 -0.207065 1.006077 0.170679 -0.032269 0.984798
1.042646 -0.237977 1.006077 -0.167777 0.044981 0.984798
1.169913 -0.267025 1.053590 -0.486044 0.116801 0.866094
1.273663 -0.290705 1.142885 -0.745774 0.174553 0.642925
1.341381 -0.306161 1.263192 -0.915591 0.211276 0.342134
3 0 1 18
3 1 19 18
3 1 2 19
3 2 20 19
3 2 3 20
3 3 21 20
3 3 4 21
3 4 22 21
3 4 5 22
3 5 23 22
3 5 6 23
3 6 24 23
3 6 7 24
3 7 25 24
3 7 8 25
3 8 26 25
3 8 9 26
3 9 27 26
3 9 10 27
3 10 28 27
3 10 11 28
3 11 29 28
3 11 12 29
3 12 30 29
3 12 13 30
3 13 31 30
3 13 14 31
3 14 32 31
3 14 15 32
3 15 33 32
3 15 16 33
3 16 34 33
3 16 17 34
3 17 35 34
3 17 0 35
3 0 18 35
3 18 19 36
3 19 37 36
3 19 20 37
3 20 38 37
3 20 21 38
3 21 39 38
3 21 22 39
3 22 40 39
3 22 23 40
3 23 41 40
3 23 24 41
3 24 42 41
3 24 25 42
3 25 43 42
3 25 26 43
3 26 44 43
3 26 27 44
3 27 45 44
3 27 28 45
3 28 46 45
3 28 29 46
3 29 47 46
3 29 30 47
3 30 48 47
3 30 31 48
3 31 49 48
3 31 32 49
3 32 50 49
3 32 33 50
3 33 51 50
3 33 34 51
3 34 52 51
3 34 35 52
3 35 53 52
3 35 18 53
3 18 36 53
3 36 37 54
3 37 55 54
3 37 38 55
3 38 56 55
3 38 39 56
3 39 57 56
3 39 40 57
3 40 58 57
3 40 41 58
3 41 59 58
3 41 42 59
3 42 60 59
3 42 43 60
3 43 61 60
3 43 44 61
3 44 62 61
3 44 45 62
3 45 63 62
3 45 46 63
3 46 64 63
3 46 47 64
3 47 65 64
3 47 48 65
3 48 66 65
3 48 49 66
3 49 67 66
3 49 50 67
3 50 68 67
3 50 51 68
3 51 69 68
3 51 52 69
3 52 70 69
3 52 53 70
3 53 71 70
3 53 36 71
3 36 54 71
3 54 55 72
3 55 73 72
3 55 56 73
3 56 74 73
3 56 57 74
3 57 75 74
3 57 58 75
3 58 76 75
3 58 59 76
3 59 77 76
3 59 60 77
3 60 78 77
3 60 61 78
3 61 79 78
3 61 62 79
3 62 80 79
3 62 63 80
3 63 81 80
3 63 64 81
3 64 82 81
3 64 65 82
3 65 83 82
3 65 66 83
3 66 84 83
3 66 67 84
3 67 85 84
3 67 68 85
3 68 86 85
3 68 69 86
3 69 87 86
3 69 70 87
3 70 88 87
3 70 71 88
3 71 89 88
3 71 54 89
3 54 72 89
3 72 73 90
3 73 91 90
3 73 74 91
3 74 92 91
3 74 75 92
3 75 93 92
3 75 76 93
3 76 94 93
3 76 77 94
3 77 95 94
3 77 78 95
3 78 96 95
3 78 79 96
3 79 97 96
3 79 80 97
3 80 98 97
3 80 81 98
3 81 99 98
3 81 82 99
3 82 100 99
3 82 83 100
3 83 101 100
3 83 84 101
3 84 102 101
3 84 85 102
3 85 103 102
3 85 86 103
3 86 104 103
3 86 87 104
3 87 105 104
3 87 88 105
3 88 106 105
3 88 89 106
3 89 107 106
3 89 72 107
3 72 90 107
3 90 91 108
3 91 109 108
3 91 92 109
3 92 110 109
3 92 93 110
3 93 111 110
3 93 94 111
3 94 112 111
3 94 95 112
3 95 113 112
3 95 96 113
3 96 114 113
3 96 97 114
3 97 115 114
3 97 98 115
3 98 116 115
3 98 99 116
3 99 117 116
3 99 100 117
3 100 118 117
3 100 101 118
3 101 119 118
3 101 102 119
3 102 120 119
3 102 103 120
3 103 121 120
3 103 104 121
3 104 122 121
3 104 105 122
3 105 123 122
3 105 106 123
3 106 124 123
3 106 107 124
3 107 125 124
3 107 90 125
3 90 108 125
3 108 109 126
3 109 127 126
3 109 110 127
3 110 128 127
3 110 111 128
3 111 129 128
3 111 112 129
3 112 130 129
3 112 113 130
3 113 131 130
3 113 114 131
3 114 132 131
3 114 115 132
3 115 133 132
3 115 116 133
3 116 134 133
3 116 117 134
3 117 135 134
3 117 118 135
3 118 136 135
3 118 119 136
3 119 137 136
3 119 120 137
3 120 138 137
3 120 121 138
3 121 139 138
3 121 122 139
3 122 140 139
3 122 123 140
3 123 141 140
3 123 124 141
3 124 142 141
3 124 125 142
3 125 143 142
3 125 108 143
3 108 126 143
3 126 127 144
3 127 145 144
3 127 128 145
3 128 146 145
3 128 129 146
3 129 147 146
3 129 130 147
3 130 148 147
3 130 131 148
3 131 149 148
3 131 132 149
3 132 150 149
3 132 133 150
3 133 151 150
3 133 134 151
3 134 152 151
3 134 135 152
3 135 153 152
3 135 136 153
3 136 154 153
3 136 137 154
3 137 155 154
3 137 138 155
3 138 156 155
3 138 139 156
3 139 157 156
3 139 140 157
3 140 158 157
3 140 141 158
3 141 159 158
3 141 142 159
3 142 160 159
3 142 143 160
3 143 161 160
3 143 126 161
3 126 144 161
3 144 145 162
3 145 163 162
3 145 146 163
3 146 164 163
3 146 147 164
3 147 165 164
3 147 148 165
3 148 166 165
3 148 149 166
3 149 167 166
3 149 150 167
3 150 168 167
3 150 151 168
3 151 169 168
3 151 152 169
3 152 170 169
3 152 153 170
3 153 171 170
3 153 154 171
3 154 172 171
3 154 155 172
3 155 173 172
3 155 156 173
3 156 174 173
3 156 157 174
3 157 175 174
3 157 158 175
3 158 176 175
3 158 159 176
3 159 177 176
3 159 160 177
3 160 178 177
3 160 161 178
3 161 179 178
3 161 144 179
3 144 162 179
3 162 163 180
3 163 181 180
3 163 164 181
3 164 182 181
3 164 165 182
3 165 183 182
3 165 166 183
3 166 184 183
3 166 167 184
3 167 185 184
3 167 168 185
3 168 186 185
3 168 169 186
3 169 187 186
3 169 170 187
3 170 188 187
3 170 171 188
3 171 189 188
3 171 172 189
3 172 190 189
3 172 173 190
3 173 191 190
3 173 174 191
3 174 192 191
3 174 175 192
3 175 193 192
3 175 176 193
3 176 194 193
3 176 177 194
3 177 195 194
3 177 178 195
3 178 196 195
3 178 179 196
3 179 197 196
3 179 162 197
3 162 180 197
3 180 181 198
3 181 199 198
3 181 182 199
3 182 200 199
3 182 183 200
3 183 201 200
3 183 184 201
3 184 202 201
3 184 185 202
3 185 203 202
3 185 186 203
3 186 204 203
3 186 187 204
3 187 205 204
3 187 188 205
3 188 206 205
3 188 189 206
3 189 207 206
3 189 190 207
3 190 208 207
3 190 191 208
3 191 209 208
3 191 192 209
3 192 210 209
3 192 193 210
3 193 211 210
3 193 194 211
3 194 212 211
3 194 195 212
3 195 213 212
3 195 196 213
3 196 214 213
3 196 197 214
3 197 215 214
3 197 180 215
3 180 198 215
3 198 199 216
3 199 217 216
3 199 200 217
3 200 218 217
3 200 201 218
3 201 219 218
3 201 202 219
3 202 220 219
3 202 203 220
3 203 221 220
3 203 204 221
3 204 222 221
3 204 205 222
3 205 223 222
3 205 206 223
3 206 224 223
3 206 207 224
3 207 225 224
3 207 208 225
3 208 226 225
3 208 209 226
3 209 227 226
3 209 210 227
3 210 228 227
3 210 211 228
3 211 229 228
3 211 212 229
3 212 230 229
3 212 213 230
3 213 231 230
3 213 214 231
3 214 232 231
3 214 215 232
3 215 233 232
3 215 198 233
3 198 216 233
3 216 217 234
3 217 235 234
3 217 218 235
3 218 236 235
3 218 219 236
3 219 237 236
3 219 220 237
3 220 238 237
3 220 221 238
3 221 239 238
3 221 222 239
3 222 240 239
3 222 223 240
3 223 241 240
3 223 224 241
3 224 242 241
3 224 225 242
3 225 243 242
3 225 226 243
3 226 244 243
3 226 227 244
3 227 245 244
3 227 228 245
3 228 246 245
3 228 229 246
3 229 247 246
3 229 230 247
3 230 248 247
3 230 231 248
3 231 249 248
3 231 232 249
3 232 250 249
3 232 233 250
3 233 251 250
3 233 216 251
3 216 234 251
3 234 235 252
3 235 253 252
3 235 236 253
3 236 254 253
3 236 237 254
3 237 255 254
3 237 238 255
3 238 256 255
3 238 239 256
3 239 257 256
3 239 240 257
3 240 258 257
3 240 241 258
3 241 259 258
3 241 242 259
3 242 260 259
3 242 243 260
3 243 261 260
3 243 244 261
3 244 262 261
3 244 245 262
3 245 263 262
3 245 246 263
3 246 264 263
3 246 247 264
3 247 265 264
3 247 248 265
3 248 266 265
3 248 249 266
3 249 267 266
3 249 250 267
3 250 268 267
3 250 251 268
3 251 269 268
3 251 234 269
3 234 252 269
3 252 253 270
3 253 271 270
3 253 254 271
3 254 272 271
3 254 255 272
3 255 273 272
3 255 256 273
3 256 274 273
3 256 257 274
3 257 275 274
3 257 258 275
3 258 276 275
3 258 259 276
3 259 277 276
3 259 260 277
3 260 278 277
3 260 261 278
3 261 279 278
3 261 262 279
3 262 280 279
3 262 263 280
3 263 281 280
3 263 264 281
3 264 282 281
3 264 265 282
3 265 283 282
3 265 266 283
3 266 284 283
3 266 267 284
3 267 285 284
3 267 268 285
3 268 286 285
3 268 269 286
3 269 287 286
3 269 252 287
3 252 270 287
3 270 271 288
3 271 289 288
3 271 272 289
3 272 290 289
3 272 273 290
3 273 291 290
3 273 274 291
3 274 292 291
3 274 275 292
3 275 293 292
3 275 276 293
3 276 294 293
3 276 277 294
3 277 295 294
3 277 278 295
3 278 296 295
3 278 279 296
3 279 297 296
3 279 280 297
3 280 298 297
3 280 281 298
3 281 299 298
3 281 282 299
3 282 300 299
3 282 283 300
3 283 301 300
3 283 284 301
3 284 302 301
3 284 285 302
3 285 303 302
3 285 286 303
3 286 304 303
3 286 287 304
3 287 305 304
3 287 270 305
3 270 288 305
3 288 289 306
3 289 307 306
3 289 290 307
3 290 308 307
3 290 291 308
3 291 309 308
3 291 292 309
3 292 310 309
3 292 293 310
3 293 311 310
3 293 294 311
3 294 312 311
3 294 295 312
3 295 313 312
3 295 296 313
3 296 314 313
3 296 297 314
3 297 315 314
3 297 298 315
3 298 316 315
3 298 299 316
3 299 317 316
3 299 300 317
3 300 318 317
3 300 301 318
3 301 319 318
3 301 302 319
3 302 320 319
3 302 303 320
3 303 321 320
3 303 304 321
3 304 322 321
3 304 305 322
3 305 323 322
3 305 288 323
3 288 306 323
3 306 307 324
3 307 325 324
3 307 308 325
3 308 326 325
3 308 309 326
3 309 327 326
3 309 310 327
3 310 328 327
3 310 311 328
3 311 329 328
3 311 312 329
3 312 330 329
3 312 313 330
3 313 331 330
3 313 314 331
3 314 332 331
3 314 315 332
3 315 333 332
3 315 316 333
3 316 334 333
3 316 317 334
3 317 335 334
3 317 318 335
3 318 336 335
3 318 319 336
3 319 337 336
3 319 320 337
3 320 338 337
3 320 321 338
3 321 339 338
3 321 322 339
3 322 340 339
3 322 323 340
3 323 341 340
3 323 306 341
3 306 324 341
3 324 325 342
3 325 343 342
3 325 326 343
3 326 344 343
3 326 327 344
3 327 345 344
3 327 328 345
3 328 346 345
3 328 329 346
3 329 347 346
3 329 330 347
3 330 348 347
3 330 331 348
3 331 349 348
3 331 332 349
3 332 350 349
3 332 333 350
3 333 351 350
3 333 334 351
3 334 352 351
3 334 335 352
3 335 353 352
3 335 336 353
3 336 354 353
3 336 337 354
3 337 355 354
3 337 338 355
3 338 356 355
3 338 339 356
3 339 357 356
3 339 340 357
3 340 358 357
3 340 341 358
3 341 359 358
3 341 324 359
3 324 342 359
3 342 343 360
3 343 361 360
3 343 344 361
3 344 362 361
3 344 345 362
3 345 363 362
3 345 346 363
3 346 364 363
3 346 347 364
3 347 365 364
3 347 348 365
3 348 366 365
3 348 349 366
3 349 367 366
3 349 350 367
3 350 368 367
3 350 351 368
3 351 369 368
3 351 352 369
3 352 370 369
3 352 353 370
3 353 371 370
3 353 354 371
3 354 372 371
3 354 355 372
3 355 373 372
3 355 356 373
3 356 374 373
3 356 357 374
3 357 375 374
3 357 358 375
3 358 376 375
3 358 359 376
3 359 377 376
3 359 342 377
3 342 360 377
3 360 361 378
3 361 379 378
3 361 362 379
3 362 380 379
3 362 363 380
3 363 381 380
3 363 364 381
3 364 382 381
3 364 365 382
3 365 383 382
3 365 366 383
3 366 384 383
3 366 367 384
3 367 385 384
3 367 368 385
3 368 386 385
3 368 369 386
3 369 387 386
3 369 370 387
3 370 388 387
3 370 371 388
3 371 389 388
3 371 372 389
3 372 390 389
3 372 373 390
3 373 391 390
3 373 374 391
3 374 392 391
3 374 375 392
3 375 393 392
3 375 376 393
3 376 394 393
3 376 377 394
3 377 395 394
3 377 360 395
3 360 378 395
3 378 379 396
3 379 397 396
3 379 380 397
3 380 398 397
3 380 381 398
3 381 399 398
3 381 382 399
3 382 400 399
3 382 383 400
3 383 401 400
3 383 384 401
3 384 402 401
3 384 385 402
3 385 403 402
3 385 386 403
3 386 404 403
3 386 387 404
3 387 405 404
3 387 388 405
3 388 406 405
3 388 389 406
3 389 407 406
3 389 390 407
3 390 408 407
3 390 391 408
3 391 409 408
3 391 392 409
3 392 410 409
3 392 393 410
3 393 411 410
3 393 394 411
3 394 412 411
3 394 395 412
3 395 413 412
3 395 378 413
3 378 396 413
3 396 397 414
3 397 415 414
3 397 398 415
3 398 416 415
3 398 399 416
3 399 417 416
3 399 400 417
3 400 418 417
3 400 401 418
3 401 419 418
3 401 402 419
3 402 420 419
3 402 403 420
3 403 421 420
3 403 404 421
3 404 422 421
3 404 405 422
3 405 423 422
3 405 406 423
3 406 424 423
3 406 407 424
3 407 425 424
3 407 408 425
3 408 426 425
3 408 409 426
3 409 427 426
3 409 410 427
3 410 428 427
3 410 411 428
3 411 429 428
3 411 412 429
3 412 430 429
3 412 413 430
3 413 431 430
3 413 396 431
3 396 414 431
3 414 415 432
3 415 433 432
3 415 416 433
3 416 434 433
3 416 417 434
3 417 435 434
3 417 418 435
3 418 436 435
3 418 419 436
3 419 437 436
3 419 420 437
3 420 438 437
3 420 421 438
3 421 439 438
3 421 422 439
3 422 440 439
3 422 423 440
3 423 441 440
3 423 424 441
3 424 442 441
3 424 425 442
3 425 443 442
3 425 426 443
3 426 444 443
3 426 427 444
3 427 445 444
3 427 428 445
3 428 446 445
3 428 429 446
3 429 447 446
3 429 430 447
3 430 448 447
3 430 431 448
3 431 449 448
3 431 414 449
3 414 432 449
3 432 433 450
3 433 451 450
3 433 434 451
3 434 452 451
3 434 435 452
3 435 453 452
3 435 436 453
3 436 454 453
3 436 437 454
3 437 455 454
3 437 438 455
3 438 456 455
3 438 439 456
3 439 457 456
3 439 440 457
3 440 458 457
3 440 441 458
3 441 459 458
3 441 442 459
3 442 460 459
3 442 443 460
3 443 461 460
3 443 444 461
3 444 462 461
3 444 445 462
3 445 463 462
3 445 446 463
3 446 464 463
3 446 447 464
3 447 465 464
3 447 448 465
3 448 466 465
3 448 449 466
3 449 467 466
3 449 432 467
3 432 450 467
3 450 451 468
3 451 469 468
3 451 452 469
3 452 470 469
3 452 453 470
3 453 471 470
3 453 454 471
3 454 472 471
3 454 455 472
3 455 473 472
3 455 456 473
3 456 474 473
3 456 457 474
3 457 475 474
3 457 458 475
3 458 476 475
3 458 459 476
3 459 477 476
3 459 460 477
3 460 478 477
3 460 461 478
3 461 479 478
3 461 462 479
3 462 480 479
3 462 463 480
3 463 481 480
3 463 464 481
3 464 482 481
3 464 465 482
3 465 483 482
3 465 466 483
3 466 484 483
3 466 467 484
3 467 485 484
3 467 450 485
3 450 468 485
3 468 469 486
3 469 487 486
3 469 470 487
3 470 488 487
3 470 471 488
3 471 489 488
3 471 472 489
3 472 490 489
3 472 473 490
3 473 491 490
3 473 474 491
3 474 492 491
3 474 475 492
3 475 493 492
3 475 476 493
3 476 494 493
3 476 477 494
3 477 495 494
3 477 478 495
3 478 496 495
3 478 479 496
3 479 497 496
3 479 480 497
3 480 498 497
3 480 481 498
3 481 499 498
3 481 482 499
3 482 500 499
3 482 483 500
3 483 501 500
3 483 484 501
3 484 502 501
3 484 485 502
3 485 503 502
3 485 468 503
3 468 486 503
3 486 487 0
3 487 1 0
3 487 488 1
3 488 2 1
3 488 489 2
3 489 3 2
3 489 490 3
3 490 4 3
3 490 491 4
3 491 5 4
3 491 492 5
3 492 6 5
3 492 493 6
3 493 7 6
3 493 494 7
3 494 8 7
3 494 495 8
3 495 9 8
3 495 496 9
3 496 10 9
3 496 497 10
3 497 11 10
3 497 498 11
3 498 12 11
3 498 499 12
3 499 13 12
3 499 500 13
3 500 14 13
3 500 501 14
3 501 15 14
3 501 502 15
3 502 16 15
3 502 503 16
3 503 17 16
3 503 486 17
3 486 0 17
