ply
format ascii 1.0
element vertex 640
property float x
property float y
property float z
property float nx
property float ny
property float nz
element face 1280
property list uchar int vertex_indices
end_header
0.600000 0.000000 1.500000 0.000000 -0.086041 -0.996292
0.680000 0.000000 1.500000 0.035560 -0.031184 -0.998881
0.760000 0.000000 1.500000 0.032086 -0.008561 -0.999448
0.840000 0.000000 1.500000 0.029146 0.006761 -0.999552
0.920000 0.000000 1.500000 0.026653 0.015626 -0.999523
1.000000 0.000000 1.500000 0.024531 0.018527 -0.999527
1.080000 0.000000 1.500000 0.022717 0.015627 -0.999620
1.160000 0.000000 1.500000 0.021164 0.006762 -0.999753
1.240000 0.000000 1.500000 0.019835 -0.008564 -0.999767
1.320000 0.000000 1.500000 0.000000 0.136513 0.990638
0.597590 0.058858 1.480373 0.493786 -0.866738 0.070291
0.677109 0.066689 1.484298 0.070116 -0.224938 -0.971847
0.756628 0.074521 1.488224 0.063626 -0.151706 -0.986376
0.836147 0.082353 1.492149 0.057980 -0.090420 -0.994215
0.915666 0.090185 1.496075 0.053092 -0.038953 -0.997830
0.995185 0.098017 1.500000 0.048858 0.004543 -0.998795
1.074704 0.105849 1.503925 0.045177 0.041586 -0.998113
1.154222 0.113681 1.507851 0.041962 0.073386 -0.996420
1.233741 0.121513 1.511776 0.039139 0.100904 -0.994126
1.313260 0.129345 1.515702 -0.266555 0.956450 -0.118960
0.590360 0.117430 1.460793 0.576451 -0.812134 0.090241
0.668445 0.132962 1.468635 0.138466 -0.207339 -0.968420
0.746530 0.148494 1.476476 0.125563 -0.135143 -0.982838
0.824615 0.164026 1.484317 0.114336 -0.074734 -0.990627
0.902700 0.179558 1.492159 0.104612 -0.024008 -0.994223
0.980785 0.195090 1.500000 0.096186 0.018861 -0.995185
1.058870 0.210622 1.507841 0.088858 0.055368 -0.994504
1.136955 0.226154 1.515683 0.082457 0.086708 -0.992815
1.215040 0.241687 1.523524 0.076834 0.113826 -0.990525
1.293125 0.257219 1.531365 -0.355525 0.926003 -0.126963
0.578307 0.175428 1.441308 0.652051 -0.750118 0.110238
0.654034 0.198399 1.453046 0.203314 -0.178417 -0.962720
0.729760 0.221370 1.464785 0.184156 -0.107940 -0.976952
0.805487 0.244342 1.476523 0.167478 -0.048986 -0.984658
0.881214 0.267313 1.488262 0.153024 0.000512 -0.988222
0.956940 0.290285 1.500000 0.140489 0.042340 -0.989177
1.032667 0.313256 1.511738 0.129583 0.077959 -0.988499
1.108394 0.336228 1.523477 0.120051 0.108535 -0.986817
1.184120 0.359199 1.535215 0.111674 0.134990 -0.984534
1.259847 0.382170 1.546954 -0.441114 0.887284 -0.134708
0.561429 0.232551 1.421964 0.719991 -0.681659 0.130205
0.633919 0.262578 1.437571 0.263002 -0.138808 -0.954758
0.706409 0.292604 1.453178 0.237823 -0.070709 -0.968731
0.778899 0.322631 1.468786 0.215886 -0.013767 -0.976321
0.851389 0.352657 1.484393 0.196857 0.034030 -0.979842
0.923880 0.382683 1.500000 0.180340 0.074415 -0.980785
0.996370 0.412710 1.515607 0.165958 0.108801 -0.980112
1.068860 0.442736 1.531214 0.153377 0.138315 -0.978440
1.141350 0.472763 1.546822 0.142315 0.163848 -0.976166
1.213840 0.502789 1.562429 -0.522582 0.840640 -0.142241
0.539725 0.288489 1.402808 0.779813 -0.607759 0.150068
0.608164 0.325070 1.422246 0.315979 -0.089384 -0.944546
0.676603 0.361652 1.441685 0.285086 -0.024286 -0.958194
0.745043 0.398234 1.461123 0.258143 0.030112 -0.965637
0.813482 0.434815 1.480562 0.234744 0.075756 -0.969101
0.881921 0.471397 1.500000 0.214411 0.114311 -0.970031
0.950361 0.507978 1.519438 0.196688 0.147130 -0.969364
1.018800 0.544560 1.538877 0.181169 0.175292 -0.967704
1.087239 0.581141 1.558315 0.167512 0.199650 -0.965443
1.155678 0.617723 1.577754 -0.599215 0.786483 -0.149617
0.513203 0.342911 1.383886 0.831194 -0.529434 0.169752
0.576856 0.385443 1.407109 0.360840 -0.031234 -0.932104
0.640510 0.427975 1.430332 0.324606 0.030283 -0.945364
0.704163 0.470507 1.453554 0.292967 0.081640 -0.952631
0.767816 0.513038 1.476777 0.265450 0.124704 -0.956026
0.831470 0.555570 1.500000 0.241505 0.161060 -0.956940
0.895123 0.598102 1.523223 0.220606 0.191993 -0.956280
0.958776 0.640634 1.546446 0.202285 0.218524 -0.954635
1.022430 0.683166 1.569668 0.186146 0.241461 -0.952390
1.086083 0.725697 1.592891 -0.670326 0.725291 -0.156895
0.481881 0.395470 1.365244 0.873942 -0.447698 0.189185
0.540107 0.443254 1.392195 0.396352 0.034361 -0.917455
0.598333 0.491039 1.419146 0.355213 0.091767 -0.930270
0.656559 0.538824 1.446098 0.319237 0.139625 -0.937333
0.714785 0.586609 1.473049 0.287896 0.179713 -0.940648
0.773010 0.634393 1.500000 0.260579 0.213526 -0.941544
0.831236 0.682178 1.526951 0.236700 0.242270 -0.940892
0.889462 0.729963 1.553902 0.215740 0.266904 -0.939265
0.947688 0.777747 1.580854 0.197252 0.288184 -0.937039
1.005914 0.825532 1.607805 -0.735265 0.657605 -0.164136
0.445794 0.445794 1.346927 0.907991 -0.363546 0.208294
0.498057 0.498057 1.377541 0.421482 0.105951 -0.900626
0.550319 0.550319 1.408156 0.375926 0.158774 -0.912946
0.602582 0.602582 1.438771 0.336020 0.202722 -0.919779
0.654844 0.654844 1.469385 0.301188 0.239473 -0.923005
0.707107 0.707107 1.500000 0.270772 0.270423 -0.923880
0.759369 0.759369 1.530615 0.244139 0.296696 -0.923237
0.811632 0.811632 1.561229 0.220724 0.319182 -0.921631
0.863894 0.863894 1.591844 0.200044 0.338580 -0.919427
0.916157 0.916157 1.622459 -0.793424 0.584036 -0.171406
0.404999 0.493493 1.328978 0.933391 -0.277936 0.227010
0.450878 0.549397 1.363182 0.435417 0.181952 -0.881649
0.496757 0.605300 1.397387 0.385981 0.229783 -0.893431
0.542636 0.661204 1.431591 0.342590 0.269460 -0.900013
0.588515 0.717107 1.465796 0.304636 0.302551 -0.903139
0.634393 0.773010 1.500000 0.271424 0.330351 -0.903990
0.680272 0.828914 1.534204 0.242287 0.353894 -0.903358
0.726151 0.884817 1.568409 0.216627 0.373997 -0.901775
0.772030 0.940721 1.602613 0.193929 0.391302 -0.899597
0.817908 0.996624 1.636818 -0.844248 0.505260 -0.178769
0.359583 0.538153 1.311441 0.950299 -0.191774 0.245263
0.398780 0.596817 1.349153 0.437585 0.260677 -0.860562
0.437978 0.655480 1.386865 0.384840 0.303178 -0.871769
0.477175 0.714143 1.424577 0.338445 0.338276 -0.878080
0.516373 0.772806 1.462288 0.297766 0.367428 -0.881097
0.555570 0.831470 1.500000 0.262089 0.391821 -0.881922
0.594768 0.890133 1.537712 0.230723 0.412399 -0.881302
0.633965 0.948796 1.575423 0.203048 0.429904 -0.879746
0.673163 1.007459 1.613135 0.178526 0.444918 -0.877597
0.712360 1.066123 1.650847 -0.887240 0.422020 -0.186291
0.309665 0.579342 1.294359 0.958969 -0.105910 0.262985
0.342011 0.639858 1.335487 0.427665 0.340375 -0.837405
0.374357 0.700373 1.376615 0.372210 0.377278 -0.848010
0.406704 0.760889 1.417744 0.323316 0.407548 -0.854033
0.439050 0.821405 1.458872 0.280337 0.432525 -0.856933
0.471397 0.881921 1.500000 0.242548 0.453290 -0.857729
0.503743 0.942437 1.541128 0.209249 0.470696 -0.857123
0.536090 1.002953 1.582256 0.179809 0.485409 -0.855597
0.568436 1.063469 1.623385 0.153676 0.497950 -0.853481
0.600782 1.123985 1.664513 -0.921980 0.335119 -0.194031
0.255408 0.616608 1.277772 0.959736 -0.021118 0.280109
0.280863 0.678063 1.322218 0.405590 0.419265 -0.812227
0.306318 0.739517 1.366663 0.348045 0.450375 -0.822208
0.331773 0.800971 1.411109 0.297177 0.475627 -0.827928
0.357228 0.862425 1.455554 0.252339 0.496241 -0.830704
0.382683 0.923880 1.500000 0.212812 0.513194 -0.831470
0.408139 0.985334 1.544446 0.177897 0.527250 -0.830879
0.433594 1.046788 1.588891 0.146959 0.539000 -0.829386
0.459049 1.108242 1.633337 0.119445 0.548905 -0.827307
0.484504 1.169696 1.677782 -0.948129 0.245415 -0.202049
0.197021 0.649492 1.261720 0.953003 0.061903 0.296568
0.215674 0.710981 1.309376 0.371557 0.495575 -0.785081
0.234327 0.772471 1.357032 0.312549 0.520773 -0.794423
0.252979 0.833961 1.404688 0.260243 0.540876 -0.799829
0.271632 0.895451 1.452344 0.214004 0.556989 -0.802475
0.290285 0.956940 1.500000 0.173127 0.569986 -0.803208
0.308937 1.018430 1.547656 0.136927 0.580544 -0.802633
0.327590 1.079920 1.595312 0.104777 0.589184 -0.801177
0.346243 1.141410 1.642968 0.076126 0.596308 -0.799138
0.364896 1.202899 1.690624 -0.965441 0.153812 -0.210393
0.134768 0.677522 1.246243 0.939230 0.142541 0.312297
0.146832 0.738175 1.296994 0.326013 0.567579 -0.756022
0.158897 0.798828 1.347746 0.266170 0.586820 -0.764719
0.170961 0.859480 1.398497 0.212967 0.601705 -0.769803
0.183026 0.920133 1.449249 0.165792 0.613227 -0.772312
0.195090 0.980785 1.500000 0.123966 0.622163 -0.773011
0.207155 1.041438 1.550751 0.086825 0.629108 -0.772454
0.219219 1.102090 1.601503 0.053762 0.634517 -0.771037
0.231284 1.162743 1.652254 0.024235 0.638737 -0.769043
0.243349 1.223396 1.703006 -0.973776 0.061249 -0.219108
0.068967 0.700231 1.231376 0.918914 0.220267 0.327229
0.074777 0.759222 1.285101 0.269652 0.633637 -0.725115
0.080587 0.818213 1.338826 0.209593 0.646947 -0.733165
0.086397 0.877203 1.392551 0.156032 0.656604 -0.737920
0.092207 0.936194 1.446275 0.108388 0.663495 -0.740288
0.098017 0.995185 1.500000 0.066020 0.668305 -0.740952
0.103827 1.054175 1.553725 0.028295 0.671556 -0.740413
0.109637 1.113166 1.607449 -0.005371 0.673641 -0.739039
0.115447 1.172157 1.661174 -0.035502 0.674855 -0.737096
0.121257 1.231147 1.714899 -0.973105 -0.031315 -0.228225
0.000000 0.717157 1.217157 0.892579 0.294646 0.341301
0.000000 0.773726 1.273726 0.203397 0.692224 -0.692427
0.000000 0.830294 1.330294 0.143722 0.699697 -0.699834
0.000000 0.886863 1.386863 0.090332 0.704175 -0.704257
0.000000 0.943431 1.443431 0.042687 0.706444 -0.706481
0.000000 1.000000 1.500000 0.000188 0.707106 -0.707107
0.000000 1.056569 1.556569 -0.037760 0.706616 -0.706589
0.000000 1.113137 1.613137 -0.071710 0.705311 -0.705261
0.000000 1.169706 1.669706 -0.102160 0.703441 -0.703373
0.000000 1.226274 1.726274 -0.963514 -0.122915 -0.237767
-0.071687 0.727855 1.203620 0.860759 0.365324 0.354447
-0.076953 0.781321 1.262896 0.128381 0.741965 -0.658032
-0.082219 0.834787 1.322172 0.069665 0.743761 -0.664805
-0.087485 0.888253 1.381448 0.016961 0.743163 -0.668895
-0.092751 0.941719 1.440724 -0.030227 0.740867 -0.670972
-0.098017 0.995185 1.500000 -0.072449 0.737400 -0.671560
-0.103283 1.048651 1.559276 -0.110254 0.733157 -0.671062
-0.108549 1.102117 1.618552 -0.144159 0.728427 -0.669785
-0.113815 1.155583 1.677828 -0.174635 0.723420 -0.667957
-0.119081 1.209049 1.737104 -0.945212 -0.212601 -0.247742
-0.145585 0.731904 1.190796 0.823983 0.432034 0.366604
-0.155486 0.781680 1.252637 0.045922 0.781663 -0.622008
-0.165387 0.831456 1.314477 -0.011292 0.778002 -0.628161
-0.175288 0.881233 1.376318 -0.062817 0.772485 -0.631918
-0.185189 0.931009 1.438159 -0.109102 0.765726 -0.633845
-0.195090 0.980785 1.500000 -0.150642 0.758189 -0.634394
-0.204991 1.030562 1.561841 -0.187939 0.750217 -0.633919
-0.214893 1.080338 1.623682 -0.221468 0.742057 -0.632696
-0.224794 1.130114 1.685523 -0.251668 0.733884 -0.630934
-0.234695 1.179890 1.747363 -0.918526 -0.299451 -0.258144
-0.221116 0.728921 1.178717 0.782764 0.494586 0.377710
-0.234950 0.774525 1.242974 -0.042504 0.810325 -0.584437
-0.248783 0.820129 1.307230 -0.097710 0.801479 -0.589987
-0.262617 0.865733 1.371487 -0.147592 0.791249 -0.593415
-0.276451 0.911336 1.435743 -0.192544 0.780175 -0.595192
-0.290285 0.956940 1.500000 -0.233008 0.768667 -0.595700
-0.304118 1.002544 1.564257 -0.269433 0.757023 -0.595249
-0.317952 1.048148 1.628513 -0.302253 0.745458 -0.594083
-0.331786 1.093752 1.692770 -0.331870 0.734120 -0.592393
-0.345620 1.139356 1.757026 -0.883901 -0.382599 -0.268955
-0.297640 0.718568 1.167412 0.737588 0.552856 0.387704
-0.314649 0.759630 1.233930 -0.135294 0.827180 -0.545408
-0.331658 0.800692 1.300447 -0.188032 0.813470 -0.550374
-0.348666 0.841755 1.366965 -0.235836 0.798776 -0.553479
-0.365675 0.882817 1.433482 -0.279048 0.783576 -0.555104
-0.382683 0.923880 1.500000 -0.318054 0.768233 -0.555571
-0.399692 0.964942 1.566518 -0.353251 0.753012 -0.555145
-0.416701 1.006004 1.633035 -0.385029 0.738100 -0.554041
-0.433709 1.047067 1.699553 -0.413753 0.723623 -0.552429
-0.450718 1.088129 1.766070 -0.841889 -0.461245 -0.280137
-0.374458 0.700562 1.156909 0.688897 0.606783 0.396529
-0.393846 0.736834 1.225527 -0.230756 0.831695 -0.505011
-0.413234 0.773106 1.294145 -0.280609 0.813482 -0.509417
-0.432621 0.809378 1.362763 -0.325937 0.794614 -0.512204
-0.452009 0.845649 1.431382 -0.367027 0.775516 -0.513678
-0.471397 0.881921 1.500000 -0.404211 0.756513 -0.514103
-0.490784 0.918193 1.568618 -0.437834 0.737841 -0.513704
-0.510172 0.954465 1.637237 -0.468241 0.719670 -0.512665
-0.529560 0.990737 1.705855 -0.495759 0.702111 -0.511138
-0.548948 1.027009 1.774473 -0.793137 -0.534679 -0.291638
-0.450813 0.674689 1.147231 0.637090 0.656348 0.404133
-0.471764 0.706045 1.217785 -0.327137 0.823587 -0.463343
-0.492716 0.737401 1.288339 -0.373742 0.801267 -0.467213
-0.513667 0.768757 1.358893 -0.416234 0.778550 -0.469690
-0.534619 0.800113 1.429446 -0.454849 0.755816 -0.471014
-0.555570 0.831470 1.500000 -0.489866 0.733359 -0.471397
-0.576522 0.862826 1.570554 -0.521581 0.711399 -0.471026
-0.597473 0.894182 1.641107 -0.550295 0.690088 -0.470056
-0.618425 0.925538 1.711661 -0.576298 0.669533 -0.468621
-0.639376 0.956894 1.782215 -0.738374 -0.602295 -0.303388
-0.525898 0.640809 1.138404 0.582512 0.701568 0.410465
-0.547597 0.667249 1.210723 -0.422667 0.802826 -0.420503
-0.569296 0.693689 1.283043 -0.465712 0.776822 -0.423864
-0.590995 0.720130 1.355362 -0.505050 0.750610 -0.426040
-0.612694 0.746570 1.427681 -0.540868 0.724534 -0.427215
-0.634393 0.773010 1.500000 -0.573397 0.698864 -0.427556
-0.656092 0.799451 1.572319 -0.602887 0.673807 -0.427213
-0.677791 0.825891 1.644638 -0.629596 0.649509 -0.426317
-0.699490 0.852332 1.716957 -0.653777 0.626072 -0.424982
-0.721189 0.878772 1.789277 -0.678390 -0.663604 -0.315304
-0.598868 0.598868 1.130448 0.525452 0.742477 0.415484
-0.620515 0.620515 1.204359 -0.515592 0.769637 -0.376595
-0.642163 0.642163 1.278269 -0.554818 0.740391 -0.379472
-0.663811 0.663811 1.352179 -0.590726 0.711062 -0.381358
-0.685459 0.685459 1.426090 -0.623463 0.681965 -0.382386
-0.707107 0.707107 1.500000 -0.653210 0.653353 -0.382684
-0.728755 0.728755 1.573910 -0.680176 0.625422 -0.382371
-0.750402 0.750402 1.647821 -0.704580 0.598318 -0.381554
-0.772050 0.772050 1.721731 -0.726639 0.572143 -0.380326
-0.793698 0.793698 1.795641 -0.614015 -0.718241 -0.327283
-0.668843 0.548905 1.123382 0.466145 0.779112 0.419157
-0.689676 0.566003 1.198706 -0.604213 0.724490 -0.331724
-0.710510 0.583100 1.274029 -0.639413 0.692458 -0.334146
-0.731343 0.600198 1.349353 -0.671662 0.660410 -0.335751
-0.752177 0.617296 1.424676 -0.701066 0.628636 -0.336635
-0.773010 0.634393 1.500000 -0.727767 0.597378 -0.336890
-0.793844 0.651491 1.575324 -0.751933 0.566825 -0.336609
-0.814678 0.668589 1.650647 -0.773747 0.537126 -0.335874
-0.835511 0.685686 1.725971 -0.793395 0.508389 -0.334762
-0.856345 0.702784 1.801294 -0.546095 -0.765973 -0.339213
-0.734924 0.491061 1.117224 0.404776 0.811499 0.421457
-0.754233 0.503963 1.193779 -0.686917 0.668094 -0.286000
-0.773543 0.516865 1.270334 -0.717938 0.633738 -0.287994
-0.792852 0.529766 1.346890 -0.746343 0.599383 -0.289330
-0.812161 0.542668 1.423445 -0.772203 0.565297 -0.290072
-0.831470 0.555570 1.500000 -0.795624 0.531711 -0.290285
-0.850779 0.568472 1.576555 -0.816739 0.498815 -0.290036
-0.870088 0.581374 1.653110 -0.835697 0.466761 -0.289388
-0.889397 0.594276 1.729666 -0.852655 0.435665 -0.288400
-0.908706 0.607178 1.806221 -0.475466 -0.806694 -0.350967
-0.796206 0.425581 1.111987 0.341486 0.839637 0.422371
-0.813349 0.434744 1.189590 -0.762214 0.601375 -0.239535
-0.830492 0.443907 1.267192 -0.788955 0.565161 -0.241128
-0.847635 0.453070 1.344795 -0.813376 0.528919 -0.242206
-0.864778 0.462234 1.422397 -0.835520 0.492900 -0.242809
-0.881921 0.471397 1.500000 -0.855461 0.457326 -0.242981
-0.899064 0.480560 1.577603 -0.873300 0.422389 -0.242765
-0.916208 0.489723 1.655205 -0.889157 0.388246 -0.242209
-0.933351 0.498886 1.732808 -0.903164 0.355025 -0.241355
-0.950494 0.508050 1.810410 -0.402933 -0.840420 -0.362408
-0.851784 0.352820 1.107686 0.276386 0.863490 0.421896
-0.866203 0.358793 1.186149 -0.828766 0.525464 -0.192442
-0.880622 0.364766 1.264612 -0.851173 0.487852 -0.193660
-0.895041 0.370738 1.343074 -0.871516 0.450147 -0.194493
-0.909460 0.376711 1.421537 -0.889812 0.412583 -0.194961
-0.923880 0.382683 1.500000 -0.906108 0.375378 -0.195091
-0.938299 0.388656 1.578463 -0.920477 0.338722 -0.194910
-0.952718 0.394629 1.656926 -0.933012 0.302783 -0.194449
-0.967137 0.400601 1.735388 -0.943823 0.267699 -0.193739
-0.981556 0.406574 1.813851 -0.329247 -0.867279 -0.373394
-0.900775 0.273247 1.104329 0.209568 0.882975 0.420043
-0.912008 0.276655 1.183464 -0.885412 0.441664 -0.144837
-0.923241 0.280062 1.262598 -0.903480 0.403106 -0.145707
-0.934474 0.283470 1.341732 -0.919694 0.364359 -0.146305
-0.945707 0.286877 1.420866 -0.934050 0.325648 -0.146643
-0.956940 0.290285 1.500000 -0.946572 0.287180 -0.146731
-0.968173 0.293692 1.579134 -0.957307 0.249149 -0.146586
-0.979406 0.297100 1.658268 -0.966328 0.211728 -0.146225
-0.990639 0.300507 1.737402 -0.973720 0.175070 -0.145669
-1.001872 0.303915 1.816536 -0.255083 -0.887495 -0.383777
-0.942332 0.187441 1.101926 0.141123 0.897959 0.416838
-0.950022 0.188971 1.181541 -0.931194 0.351427 -0.096837
-0.957713 0.190501 1.261156 -0.944960 0.312359 -0.097383
-0.965404 0.192031 1.340770 -0.957037 0.272990 -0.097760
-0.973095 0.193561 1.420385 -0.967402 0.233528 -0.097970
-0.980785 0.195090 1.500000 -0.976057 0.194176 -0.098017
-0.988476 0.196620 1.579615 -0.983031 0.155127 -0.097909
-0.996167 0.198150 1.659230 -0.988371 0.116562 -0.097654
-1.003857 0.199680 1.738844 -0.992147 0.078643 -0.097262
-1.011548 0.201209 1.818459 -0.181029 -0.901363 -0.393411
-0.975652 0.096093 1.100482 0.071158 0.908257 0.412318
-0.979559 0.096478 1.180385 -0.965372 0.256319 -0.048559
-0.983465 0.096863 1.260289 -0.974915 0.217162 -0.048806
-0.987372 0.097248 1.340193 -0.982887 0.177579 -0.048973
-0.991278 0.097632 1.420096 -0.989249 0.137764 -0.049060
-0.995185 0.098017 1.500000 -0.993985 0.097912 -0.049068
-0.999091 0.098402 1.579904 -0.997101 0.058215 -0.048997
-1.002998 0.098787 1.659807 -0.998628 0.018858 -0.048851
-1.006904 0.099171 1.739711 -0.998617 -0.019981 -0.048634
-1.010811 0.099556 1.819615 -0.107574 -0.909232 -0.402151
-1.000000 0.000000 1.100000 -0.000188 0.913634 0.406539
-1.000000 0.000000 1.180000 -0.987440 0.157992 -0.000124
-1.000000 0.000000 1.260000 -0.992877 0.119144 -0.000094
-1.000000 0.000000 1.340000 -0.996815 0.079744 -0.000064
-1.000000 0.000000 1.420000 -0.999201 0.039967 -0.000032
-1.000000 0.000000 1.500000 -1.000000 0.000000 -0.000000
-1.000000 0.000000 1.580000 -0.999201 -0.039967 0.000032
-1.000000 0.000000 1.660000 -0.996815 -0.079744 0.000064
-1.000000 0.000000 1.740000 -0.992877 -0.119144 0.000094
-1.000000 0.000000 1.820000 -0.035107 -0.911473 -0.409859
-1.014717 -0.099941 1.100482 -0.072725 0.913815 0.399567
-1.010811 -0.099556 1.180385 -0.997137 0.058143 0.048350
-1.006904 -0.099171 1.260289 -0.998617 0.019981 0.048634
-1.002998 -0.098787 1.340193 -0.998628 -0.018858 0.048851
-0.999091 -0.098402 1.420096 -0.997101 -0.058215 0.048997
-0.995185 -0.098017 1.500000 -0.993985 -0.097912 0.049068
-0.991278 -0.097632 1.579904 -0.989249 -0.137764 0.049060
-0.987372 -0.097248 1.659807 -0.982887 -0.177579 0.048973
-0.983465 -0.096863 1.739711 -0.974915 -0.217162 0.048806
-0.979559 -0.096478 1.819615 0.036084 -0.908463 -0.416405
-1.019239 -0.202739 1.101926 -0.146199 0.908496 0.391485
-1.011548 -0.201209 1.181541 -0.994443 -0.041517 0.096744
-1.003857 -0.199680 1.261156 -0.992147 -0.078643 0.097262
-0.996167 -0.198150 1.340770 -0.988371 -0.116562 0.097654
-0.988476 -0.196620 1.420385 -0.983031 -0.155127 0.097909
-0.980785 -0.195090 1.500000 -0.976057 -0.194176 0.098017
-0.973095 -0.193561 1.579615 -0.967402 -0.233528 0.097970
-0.965404 -0.192031 1.659230 -0.957037 -0.272990 0.097760
-0.957713 -0.190501 1.738844 -0.944960 -0.312359 0.097383
-0.950022 -0.188971 1.818459 0.105802 -0.900554 -0.421674
-1.013105 -0.307322 1.104329 -0.220280 0.897362 0.382384
-1.001872 -0.303915 1.183464 -0.979586 -0.139301 0.144936
-0.990639 -0.300507 1.262598 -0.973720 -0.175070 0.145669
-0.979406 -0.297100 1.341732 -0.966328 -0.211728 0.146225
-0.968173 -0.293692 1.420866 -0.957307 -0.249149 0.146586
-0.956940 -0.290285 1.500000 -0.946572 -0.287180 0.146731
-0.945707 -0.286877 1.579134 -0.934050 -0.325648 0.146643
-0.934474 -0.283470 1.658268 -0.919694 -0.364359 0.146305
-0.923241 -0.280062 1.737402 -0.903480 -0.403106 0.145707
-0.912008 -0.276655 1.816536 0.173926 -0.888057 -0.425564
-0.995976 -0.412547 1.107686 -0.294553 0.880102 0.372369
-0.981556 -0.406574 1.186149 -0.953029 -0.233582 0.192810
-0.967137 -0.400601 1.264612 -0.943823 -0.267699 0.193739
-0.952718 -0.394629 1.343074 -0.933012 -0.302783 0.194449
-0.938299 -0.388656 1.421537 -0.920477 -0.338722 0.194910
-0.923880 -0.382683 1.500000 -0.906108 -0.375378 0.195091
-0.909460 -0.376711 1.578463 -0.889812 -0.412583 0.194961
-0.895041 -0.370738 1.656926 -0.871516 -0.450147 0.194493
-0.880622 -0.364766 1.735388 -0.851173 -0.487852 0.193660
-0.866203 -0.358793 1.813851 0.240394 -0.871227 -0.427989
-0.967637 -0.517213 1.111987 -0.368517 0.856433 0.361549
-0.950494 -0.508050 1.189590 -0.915460 -0.322823 0.240246
-0.933351 -0.498886 1.267192 -0.903164 -0.355025 0.241355
-0.916208 -0.489723 1.344795 -0.889157 -0.388246 0.242209
-0.899064 -0.480560 1.422397 -0.873300 -0.422389 0.242765
-0.881921 -0.471397 1.500000 -0.855461 -0.457326 0.242981
-0.864778 -0.462234 1.577603 -0.835520 -0.492900 0.242809
-0.847635 -0.453070 1.655205 -0.813376 -0.528919 0.242206
-0.830492 -0.443907 1.732808 -0.788955 -0.565161 0.241128
-0.813349 -0.434744 1.810410 0.305183 -0.850248 -0.428884
-0.928015 -0.620080 1.117224 -0.441588 0.826118 0.350042
-0.908706 -0.607178 1.193779 -0.867777 -0.405611 0.287128
-0.889397 -0.594276 1.270334 -0.852655 -0.435665 0.288400
-0.870088 -0.581374 1.346890 -0.835697 -0.466761 0.289388
-0.850779 -0.568472 1.423445 -0.816739 -0.498815 0.290036
-0.831470 -0.555570 1.500000 -0.795624 -0.531711 0.290285
-0.812161 -0.542668 1.576555 -0.772203 -0.565297 0.290072
-0.792852 -0.529766 1.653110 -0.746343 -0.599383 0.289330
-0.773543 -0.516865 1.729666 -0.717938 -0.633738 0.287994
-0.754233 -0.503963 1.806221 0.368283 -0.825235 -0.428200
-0.877178 -0.719882 1.123382 -0.513105 0.788989 0.337965
-0.856345 -0.702784 1.198706 -0.811064 -0.480686 0.333340
-0.835511 -0.685686 1.274029 -0.793395 -0.508389 0.334762
-0.814678 -0.668589 1.349353 -0.773747 -0.537126 0.335874
-0.793844 -0.651491 1.424676 -0.751933 -0.566825 0.336609
-0.773010 -0.634393 1.500000 -0.727767 -0.597378 0.336890
-0.752177 -0.617296 1.575324 -0.701066 -0.628636 0.336635
-0.731343 -0.600198 1.650647 -0.671662 -0.660410 0.335751
-0.710510 -0.583100 1.725971 -0.639413 -0.692458 0.334146
-0.689676 -0.566003 1.801294 0.429679 -0.796229 -0.425906
-0.815346 -0.815346 1.130448 -0.582340 0.744964 0.325438
-0.793698 -0.793698 1.204359 -0.746569 -0.546963 0.378769
-0.772050 -0.772050 1.278269 -0.726639 -0.572143 0.380326
-0.750402 -0.750402 1.352179 -0.704580 -0.598318 0.381554
-0.728755 -0.728755 1.426090 -0.680176 -0.625422 0.382371
-0.707107 -0.707107 1.500000 -0.653210 -0.653353 0.382684
-0.685459 -0.685459 1.573910 -0.623463 -0.681965 0.382386
-0.663811 -0.663811 1.647821 -0.590726 -0.711062 0.381358
-0.642163 -0.642163 1.721731 -0.554818 -0.740391 0.379472
-0.620515 -0.620515 1.795641 0.489324 -0.763207 -0.421993
-0.742889 -0.905212 1.138404 -0.648518 0.694061 0.312577
-0.721189 -0.878772 1.210723 -0.675674 -0.603557 0.423302
-0.699490 -0.852332 1.283043 -0.653777 -0.626072 0.424982
-0.677791 -0.825891 1.355362 -0.629596 -0.649509 0.426317
-0.656092 -0.799451 1.427681 -0.602887 -0.673807 0.427213
-0.634393 -0.773010 1.500000 -0.573397 -0.698864 0.427556
-0.612694 -0.746570 1.572319 -0.540868 -0.724534 0.427215
-0.590995 -0.720130 1.644638 -0.505050 -0.750610 0.426040
-0.569296 -0.693689 1.716957 -0.465712 -0.776822 0.423864
-0.547597 -0.667249 1.789277 0.547125 -0.726092 -0.416466
-0.660328 -0.988250 1.147231 -0.710833 0.636412 0.299493
-0.639376 -0.956894 1.217785 -0.599863 -0.649796 0.466830
-0.618425 -0.925538 1.288339 -0.576298 -0.669533 0.468621
-0.597473 -0.894182 1.358893 -0.550295 -0.690088 0.470056
-0.576522 -0.862826 1.429446 -0.521581 -0.711399 0.471026
-0.555570 -0.831470 1.500000 -0.489866 -0.733359 0.471397
-0.534619 -0.800113 1.570554 -0.454849 -0.755816 0.471014
-0.513667 -0.768757 1.641107 -0.416234 -0.778550 0.469690
-0.492716 -0.737401 1.711661 -0.373742 -0.801267 0.467213
-0.471764 -0.706045 1.782215 0.602925 -0.684773 -0.409349
-0.568335 -1.063281 1.156909 -0.768471 0.572267 0.286292
-0.548948 -1.027009 1.225527 -0.520693 -0.685236 0.509245
-0.529560 -0.990737 1.294145 -0.495759 -0.702111 0.511138
-0.510172 -0.954465 1.362763 -0.468241 -0.719670 0.512665
-0.490784 -0.918193 1.431382 -0.437834 -0.737841 0.513704
-0.471397 -0.881921 1.500000 -0.404211 -0.756513 0.514103
-0.452009 -0.845649 1.568618 -0.367027 -0.775516 0.513678
-0.432621 -0.809378 1.637237 -0.325937 -0.794614 0.512204
-0.413234 -0.773106 1.705855 -0.280609 -0.813482 0.509417
-0.393846 -0.736834 1.774473 0.656494 -0.639118 -0.400680
-0.467726 -1.129192 1.167412 -0.820629 0.501999 0.273066
-0.450718 -1.088129 1.233930 -0.439757 -0.709665 0.550445
-0.433709 -1.047067 1.300447 -0.413753 -0.723623 0.552429
-0.416701 -1.006004 1.366965 -0.385029 -0.738100 0.554041
-0.399692 -0.964942 1.433482 -0.353251 -0.753012 0.555145
-0.382683 -0.923880 1.500000 -0.318054 -0.768233 0.555571
-0.365675 -0.882817 1.566518 -0.279048 -0.783576 0.555104
-0.348666 -0.841755 1.633035 -0.235836 -0.798776 0.553479
-0.331658 -0.800692 1.699553 -0.188032 -0.813470 0.550374
-0.314649 -0.759630 1.766070 0.707521 -0.588996 -0.390508
-0.359454 -1.184960 1.178717 -0.866540 0.426098 0.259901
-0.345620 -1.139356 1.242974 -0.358649 -0.723108 0.590327
-0.331786 -1.093752 1.307230 -0.331870 -0.734120 0.592393
-0.317952 -1.048148 1.371487 -0.302253 -0.745458 0.594083
-0.304118 -1.002544 1.435743 -0.269433 -0.757023 0.595249
-0.290285 -0.956940 1.500000 -0.233008 -0.768667 0.595700
-0.276451 -0.911336 1.564257 -0.192544 -0.780175 0.595192
-0.262617 -0.865733 1.628513 -0.147592 -0.791249 0.593415
-0.248783 -0.820129 1.692770 -0.097710 -0.801479 0.589987
-0.234950 -0.774525 1.757026 0.755616 -0.534304 -0.378899
-0.244596 -1.229667 1.190796 -0.905491 0.345170 0.246869
-0.234695 -1.179890 1.252637 -0.278931 -0.725821 0.628793
-0.224794 -1.130114 1.314477 -0.251668 -0.733884 0.630934
-0.214893 -1.080338 1.376318 -0.221468 -0.742057 0.632696
-0.204991 -1.030562 1.438159 -0.187939 -0.750217 0.633919
-0.195090 -0.980785 1.500000 -0.150642 -0.758189 0.634394
-0.185189 -0.931009 1.561841 -0.109102 -0.765726 0.633845
-0.175288 -0.881233 1.623682 -0.062817 -0.772485 0.631918
-0.165387 -0.831456 1.685523 -0.011292 -0.778002 0.628161
-0.155486 -0.781680 1.747363 0.800310 -0.474978 -0.365922
-0.124347 -1.262515 1.203620 -0.936841 0.259919 0.234031
-0.119081 -1.209049 1.262896 -0.202100 -0.718284 0.665750
-0.113815 -1.155583 1.322172 -0.174635 -0.723420 0.667957
-0.108549 -1.102117 1.381448 -0.144159 -0.728427 0.669785
-0.103283 -1.048651 1.440724 -0.110254 -0.733157 0.671062
-0.098017 -0.995185 1.500000 -0.072449 -0.737400 0.671560
-0.092751 -0.941719 1.559276 -0.030227 -0.740867 0.670972
-0.087485 -0.888253 1.618552 0.016961 -0.743163 0.668895
-0.082219 -0.834787 1.677828 0.069665 -0.743761 0.664805
-0.076953 -0.781321 1.737104 0.841068 -0.411023 -0.351660
-0.000000 -1.282843 1.217157 -0.960040 0.171142 0.221435
-0.000000 -1.226274 1.273726 -0.129552 -0.701189 0.701107
-0.000000 -1.169706 1.330294 -0.102160 -0.703441 0.703373
-0.000000 -1.113137 1.386863 -0.071710 -0.705311 0.705261
-0.000000 -1.056569 1.443431 -0.037760 -0.706616 0.706589
-0.000000 -1.000000 1.500000 0.000188 -0.707106 0.707107
-0.000000 -0.943431 1.556569 0.042687 -0.706444 0.706481
-0.000000 -0.886863 1.613137 0.090332 -0.704175 0.704257
-0.000000 -0.830294 1.669706 0.143722 -0.699697 0.699834
-0.000000 -0.773726 1.726274 0.877296 -0.342521 -0.336200
0.127068 -1.290138 1.231376 -0.974637 0.079709 0.209116
0.121257 -1.231147 1.285101 -0.062556 -0.675419 0.734776
0.115447 -1.172157 1.338826 -0.035502 -0.674855 0.737096
0.109637 -1.113166 1.392551 -0.005371 -0.673641 0.739039
0.103827 -1.054175 1.446275 0.028295 -0.671556 0.740413
0.098017 -0.995185 1.500000 0.066020 -0.668305 0.740952
0.092207 -0.936194 1.553725 0.108388 -0.663495 0.740288
0.086397 -0.877203 1.607449 0.156032 -0.656604 0.737920
0.080587 -0.818213 1.661174 0.209593 -0.646947 0.733165
0.074777 -0.759222 1.714899 0.908362 -0.269653 -0.319633
0.255413 -1.284048 1.246243 -0.980291 -0.013454 0.197098
0.243349 -1.223396 1.296994 -0.002227 -0.642031 0.766676
0.231284 -1.162743 1.347746 0.024235 -0.638737 0.769043
0.219219 -1.102090 1.398497 0.053762 -0.634517 0.771037
0.207155 -1.041438 1.449249 0.086825 -0.629108 0.772454
0.195090 -0.980785 1.500000 0.123966 -0.622163 0.773011
0.183026 -0.920133 1.550751 0.165792 -0.613227 0.772312
0.170961 -0.859480 1.601503 0.212967 -0.601705 0.769803
0.158897 -0.798828 1.652254 0.266170 -0.586820 0.764719
0.146832 -0.738175 1.703006 0.933609 -0.192704 -0.302058
0.383548 -1.264389 1.261720 -0.976780 -0.107381 0.185393
0.364896 -1.202899 1.309376 0.050497 -0.602225 0.796728
0.346243 -1.141410 1.357032 0.076126 -0.596308 0.799138
0.327590 -1.079920 1.404688 0.104777 -0.589184 0.801177
0.308937 -1.018430 1.452344 0.136927 -0.580544 0.802633
0.290285 -0.956940 1.500000 0.173127 -0.569986 0.803208
0.271632 -0.895451 1.547656 0.214004 -0.556989 0.802475
0.252979 -0.833961 1.595312 0.260243 -0.540876 0.799829
0.234327 -0.772471 1.642968 0.312549 -0.520773 0.794423
0.215674 -0.710981 1.690624 0.952379 -0.112074 -0.283572
0.509959 -1.231151 1.277772 -0.963996 -0.201082 0.174004
0.484504 -1.169696 1.322218 0.094876 -0.557321 0.824859
0.459049 -1.108242 1.366663 0.119445 -0.548905 0.827307
0.433594 -1.046788 1.411109 0.146959 -0.539000 0.829386
0.408139 -0.985334 1.455554 0.177897 -0.527250 0.830879
0.382683 -0.923880 1.500000 0.212812 -0.513194 0.831470
0.357228 -0.862425 1.544446 0.252339 -0.496241 0.830704
0.331773 -0.800971 1.588891 0.297177 -0.475627 0.827928
0.306318 -0.739517 1.633337 0.348045 -0.450375 0.822208
0.280863 -0.678063 1.677782 0.964032 -0.028281 -0.264277
0.633129 -1.184501 1.294359 -0.941953 -0.293564 0.162924
0.600782 -1.123985 1.335487 0.130380 -0.508724 0.851000
0.568436 -1.063469 1.376615 0.153676 -0.497950 0.853481
0.536090 -1.002953 1.417744 0.179809 -0.485409 0.855597
0.503743 -0.942437 1.458872 0.209249 -0.470696 0.857123
0.471397 -0.881921 1.500000 0.242548 -0.453290 0.857729
0.439050 -0.821405 1.541128 0.280337 -0.432525 0.856933
0.406704 -0.760889 1.582256 0.323316 -0.407548 0.854033
0.374357 -0.700373 1.623385 0.372210 -0.377278 0.848010
0.342011 -0.639858 1.664513 0.967967 0.058042 -0.244275
0.751558 -1.124786 1.311441 -0.910779 -0.383843 0.152138
0.712360 -1.066123 1.349153 0.156701 -0.457895 0.875087
0.673163 -1.007459 1.386865 0.178526 -0.444918 0.877597
0.633965 -0.948796 1.424577 0.203048 -0.429904 0.879746
0.594768 -0.890133 1.462288 0.230723 -0.412399 0.881302
0.555570 -0.831470 1.500000 0.262089 -0.391821 0.881922
0.516373 -0.772806 1.537712 0.297766 -0.367428 0.881097
0.477175 -0.714143 1.575423 0.338445 -0.338276 0.878080
0.437978 -0.655480 1.613135 0.384840 -0.303178 0.871769
0.398780 -0.596817 1.650847 0.963646 0.146146 -0.223671
0.863787 -1.052528 1.328978 -0.870713 -0.470958 0.141625
0.817908 -0.996624 1.363182 0.173756 -0.406312 0.897061
0.772030 -0.940721 1.397387 0.193929 -0.391302 0.899597
0.726151 -0.884817 1.431591 0.216627 -0.373997 0.901775
0.680272 -0.828914 1.465796 0.242287 -0.353894 0.903358
0.634393 -0.773010 1.500000 0.271424 -0.330351 0.903990
0.588515 -0.717107 1.534204 0.304636 -0.302551 0.903139
0.542636 -0.661204 1.568409 0.342590 -0.269460 0.900013
0.496757 -0.605300 1.602613 0.385981 -0.229783 0.893431
0.450878 -0.549397 1.636818 0.950610 0.235178 -0.202565
0.968419 -0.968419 1.346927 -0.822098 -0.553986 0.131357
0.916157 -0.916157 1.377541 0.181689 -0.355443 0.916869
0.863894 -0.863894 1.408156 0.200044 -0.338580 0.919427
0.811632 -0.811632 1.438771 0.220724 -0.319182 0.921631
0.759369 -0.759369 1.469385 0.244139 -0.296696 0.923237
0.707107 -0.707107 1.500000 0.270772 -0.270423 0.923880
0.654844 -0.654844 1.530615 0.301188 -0.239473 0.923005
0.602582 -0.602582 1.561229 0.336020 -0.202722 0.919779
0.550319 -0.550319 1.591844 0.375926 -0.158774 0.912946
0.498057 -0.498057 1.622459 0.928502 0.324192 -0.181062
1.064140 -0.873317 1.365244 -0.765373 -0.632052 0.121305
1.005914 -0.825532 1.392195 0.180864 -0.306706 0.934462
0.947688 -0.777747 1.419146 0.197252 -0.288184 0.937039
0.889462 -0.729963 1.446098 0.215740 -0.266904 0.939265
0.831236 -0.682178 1.473049 0.236700 -0.242270 0.940892
0.773010 -0.634393 1.500000 0.260579 -0.213526 0.941544
0.714785 -0.586609 1.526951 0.287896 -0.179713 0.940648
0.656559 -0.538824 1.553902 0.319237 -0.139625 0.937333
0.598333 -0.491039 1.580854 0.355213 -0.091767 0.930270
0.540107 -0.443254 1.607805 0.897084 0.412161 -0.159263
1.149736 -0.768229 1.383886 -0.701065 -0.704337 0.111436
1.086083 -0.725697 1.407109 0.171853 -0.261441 0.949797
1.022430 -0.683166 1.430332 0.186146 -0.241461 0.952390
0.958776 -0.640634 1.453554 0.202285 -0.218524 0.954635
0.895123 -0.598102 1.476777 0.220606 -0.191993 0.956280
0.831470 -0.555570 1.500000 0.241505 -0.161060 0.956940
0.767816 -0.513038 1.523223 0.265450 -0.124704 0.956026
0.704163 -0.470507 1.546446 0.292967 -0.081640 0.952631
0.640510 -0.427975 1.569668 0.324606 -0.030283 0.945364
0.576856 -0.385443 1.592891 0.856247 0.497994 -0.137269
1.224118 -0.654305 1.402808 -0.629781 -0.770084 0.101713
1.155678 -0.617723 1.422246 0.155428 -0.220877 0.962837
1.087239 -0.581141 1.441685 0.167512 -0.199650 0.965443
1.018800 -0.544560 1.461123 0.181169 -0.175292 0.967704
0.950361 -0.507978 1.480562 0.196688 -0.147130 0.969364
0.881921 -0.471397 1.500000 0.214411 -0.114311 0.970031
0.813482 -0.434815 1.519438 0.234744 -0.075756 0.969101
0.745043 -0.398234 1.538877 0.258143 -0.030112 0.965637
0.676603 -0.361652 1.558315 0.285086 0.024286 0.958194
0.608164 -0.325070 1.577754 0.806031 0.580558 -0.115178
1.286331 -0.532816 1.421964 -0.552199 -0.828609 0.092104
1.213840 -0.502789 1.437571 0.132535 -0.186105 0.973550
1.141350 -0.472763 1.453178 0.142315 -0.163848 0.976166
1.068860 -0.442736 1.468786 0.153377 -0.138315 0.978440
0.996370 -0.412710 1.484393 0.165958 -0.108801 0.980112
0.923880 -0.382683 1.500000 0.180340 -0.074415 0.980785
0.851389 -0.352657 1.515607 0.196857 -0.034030 0.979842
0.778899 -0.322631 1.531214 0.215886 0.013767 0.976321
0.706409 -0.292604 1.546822 0.237823 0.070709 0.968731
0.633919 -0.262578 1.562429 0.746626 0.658699 -0.093089
1.335573 -0.405142 1.441308 -0.469057 -0.879300 0.082572
1.259847 -0.382170 1.453046 0.104272 -0.158054 0.981909
1.184120 -0.359199 1.464785 0.111674 -0.134990 0.984534
1.108394 -0.336228 1.476523 0.120051 -0.108535 0.986817
1.032667 -0.313256 1.488262 0.129583 -0.077959 0.988499
0.956940 -0.290285 1.500000 0.140489 -0.042340 0.989177
0.881214 -0.267313 1.511738 0.153024 -0.000512 0.988222
0.805487 -0.244342 1.523477 0.167478 0.048986 0.984658
0.729760 -0.221370 1.535215 0.184156 0.107940 0.976952
0.654034 -0.198399 1.546954 0.678381 0.731263 -0.071096
1.371210 -0.272751 1.460793 -0.381147 -0.921621 0.073086
1.293125 -0.257219 1.468635 0.071868 -0.137470 0.987895
1.215040 -0.241687 1.476476 0.076834 -0.113826 0.990525
1.136955 -0.226154 1.484317 0.082457 -0.086708 0.992815
1.058870 -0.210622 1.492159 0.088858 -0.055368 0.994504
0.980785 -0.195090 1.500000 0.096186 -0.018861 0.995185
0.902700 -0.179558 1.507841 0.104612 0.024008 0.994223
0.824615 -0.164026 1.515683 0.114336 0.074734 0.990627
0.746530 -0.148494 1.523524 0.125563 0.135143 0.982838
0.668445 -0.132962 1.531365 0.601807 0.797119 -0.049293
1.392779 -0.137177 1.480373 -0.057273 -0.082714 -0.994926
1.313260 -0.129345 1.484298 0.070346 0.023148 0.997254
1.233741 -0.121513 1.488224 0.069267 0.000531 0.997598
1.154222 -0.113681 1.492149 0.069081 -0.014833 0.997501
1.074704 -0.105849 1.496075 0.069746 -0.023792 0.997281
0.995185 -0.098017 1.500000 0.071256 -0.026846 0.997097
0.915666 -0.090185 1.503925 0.073643 -0.024167 0.996992
0.836147 -0.082353 1.507851 0.076982 -0.015605 0.996910
0.756628 -0.074521 1.511776 0.081387 -0.000685 0.996682
0.677109 -0.066689 1.515702 0.045910 -0.033870 0.998371
3 0 10 11
3 0 11 1
3 1 11 12
3 1 12 2
3 2 12 13
3 2 13 3
3 3 13 14
3 3 14 4
3 4 14 15
3 4 15 5
3 5 15 16
3 5 16 6
3 6 16 17
3 6 17 7
3 7 17 18
3 7 18 8
3 8 18 19
3 8 19 9
3 9 19 10
3 9 10 0
3 10 20 21
3 10 21 11
3 11 21 22
3 11 22 12
3 12 22 23
3 12 23 13
3 13 23 24
3 13 24 14
3 14 24 25
3 14 25 15
3 15 25 26
3 15 26 16
3 16 26 27
3 16 27 17
3 17 27 28
3 17 28 18
3 18 28 29
3 18 29 19
3 19 29 20
3 19 20 10
3 20 30 31
3 20 31 21
3 21 31 32
3 21 32 22
3 22 32 33
3 22 33 23
3 23 33 34
3 23 34 24
3 24 34 35
3 24 35 25
3 25 35 36
3 25 36 26
3 26 36 37
3 26 37 27
3 27 37 38
3 27 38 28
3 28 38 39
3 28 39 29
3 29 39 30
3 29 30 20
3 30 40 41
3 30 41 31
3 31 41 42
3 31 42 32
3 32 42 43
3 32 43 33
3 33 43 44
3 33 44 34
3 34 44 45
3 34 45 35
3 35 45 46
3 35 46 36
3 36 46 47
3 36 47 37
3 37 47 48
3 37 48 38
3 38 48 49
3 38 49 39
3 39 49 40
3 39 40 30
3 40 50 51
3 40 51 41
3 41 51 52
3 41 52 42
3 42 52 53
3 42 53 43
3 43 53 54
3 43 54 44
3 44 54 55
3 44 55 45
3 45 55 56
3 45 56 46
3 46 56 57
3 46 57 47
3 47 57 58
3 47 58 48
3 48 58 59
3 48 59 49
3 49 59 50
3 49 50 40
3 50 60 61
3 50 61 51
3 51 61 62
3 51 62 52
3 52 62 63
3 52 63 53
3 53 63 64
3 53 64 54
3 54 64 65
3 54 65 55
3 55 65 66
3 55 66 56
3 56 66 67
3 56 67 57
3 57 67 68
3 57 68 58
3 58 68 69
3 58 69 59
3 59 69 60
3 59 60 50
3 60 70 71
3 60 71 61
3 61 71 72
3 61 72 62
3 62 72 73
3 62 73 63
3 63 73 74
3 63 74 64
3 64 74 75
3 64 75 65
3 65 75 76
3 65 76 66
3 66 76 77
3 66 77 67
3 67 77 78
3 67 78 68
3 68 78 79
3 68 79 69
3 69 79 70
3 69 70 60
3 70 80 81
3 70 81 71
3 71 81 82
3 71 82 72
3 72 82 83
3 72 83 73
3 73 83 84
3 73 84 74
3 74 84 85
3 74 85 75
3 75 85 86
3 75 86 76
3 76 86 87
3 76 87 77
3 77 87 88
3 77 88 78
3 78 88 89
3 78 89 79
3 79 89 80
3 79 80 70
3 80 90 91
3 80 91 81
3 81 91 92
3 81 92 82
3 82 92 93
3 82 93 83
3 83 93 94
3 83 94 84
3 84 94 95
3 84 95 85
3 85 95 96
3 85 96 86
3 86 96 97
3 86 97 87
3 87 97 98
3 87 98 88
3 88 98 99
3 88 99 89
3 89 99 90
3 89 90 80
3 90 100 101
3 90 101 91
3 91 101 102
3 91 102 92
3 92 102 103
3 92 103 93
3 93 103 104
3 93 104 94
3 94 104 105
3 94 105 95
3 95 105 106
3 95 106 96
3 96 106 107
3 96 107 97
3 97 107 108
3 97 108 98
3 98 108 109
3 98 109 99
3 99 109 100
3 99 100 90
3 100 110 111
3 100 111 101
3 101 111 112
3 101 112 102
3 102 112 113
3 102 113 103
3 103 113 114
3 103 114 104
3 104 114 115
3 104 115 105
3 105 115 116
3 105 116 106
3 106 116 117
3 106 117 107
3 107 117 118
3 107 118 108
3 108 118 119
3 108 119 109
3 109 119 110
3 109 110 100
3 110 120 121
3 110 121 111
3 111 121 122
3 111 122 112
3 112 122 123
3 112 123 113
3 113 123 124
3 113 124 114
3 114 124 125
3 114 125 115
3 115 125 126
3 115 126 116
3 116 126 127
3 116 127 117
3 117 127 128
3 117 128 118
3 118 128 129
3 118 129 119
3 119 129 120
3 119 120 110
3 120 130 131
3 120 131 121
3 121 131 132
3 121 132 122
3 122 132 133
3 122 133 123
3 123 133 134
3 123 134 124
3 124 134 135
3 124 135 125
3 125 135 136
3 125 136 126
3 126 136 137
3 126 137 127
3 127 137 138
3 127 138 128
3 128 138 139
3 128 139 129
3 129 139 130
3 129 130 120
3 130 140 141
3 130 141 131
3 131 141 142
3 131 142 132
3 132 142 143
3 132 143 133
3 133 143 144
3 133 144 134
3 134 144 145
3 134 145 135
3 135 145 146
3 135 146 136
3 136 146 147
3 136 147 137
3 137 147 148
3 137 148 138
3 138 148 149
3 138 149 139
3 139 149 140
3 139 140 130
3 140 150 151
3 140 151 141
3 141 151 152
3 141 152 142
3 142 152 153
3 142 153 143
3 143 153 154
3 143 154 144
3 144 154 155
3 144 155 145
3 145 155 156
3 145 156 146
3 146 156 157
3 146 157 147
3 147 157 158
3 147 158 148
3 148 158 159
3 148 159 149
3 149 159 150
3 149 150 140
3 150 160 161
3 150 161 151
3 151 161 162
3 151 162 152
3 152 162 163
3 152 163 153
3 153 163 164
3 153 164 154
3 154 164 165
3 154 165 155
3 155 165 166
3 155 166 156
3 156 166 167
3 156 167 157
3 157 167 168
3 157 168 158
3 158 168 169
3 158 169 159
3 159 169 160
3 159 160 150
3 160 170 171
3 160 171 161
3 161 171 172
3 161 172 162
3 162 172 173
3 162 173 163
3 163 173 174
3 163 174 164
3 164 174 175
3 164 175 165
3 165 175 176
3 165 176 166
3 166 176 177
3 166 177 167
3 167 177 178
3 167 178 168
3 168 178 179
3 168 179 169
3 169 179 170
3 169 170 160
3 170 180 181
3 170 181 171
3 171 181 182
3 171 182 172
3 172 182 183
3 172 183 173
3 173 183 184
3 173 184 174
3 174 184 185
3 174 185 175
3 175 185 186
3 175 186 176
3 176 186 187
3 176 187 177
3 177 187 188
3 177 188 178
3 178 188 189
3 178 189 179
3 179 189 180
3 179 180 170
3 180 190 191
3 180 191 181
3 181 191 192
3 181 192 182
3 182 192 193
3 182 193 183
3 183 193 194
3 183 194 184
3 184 194 195
3 184 195 185
3 185 195 196
3 185 196 186
3 186 196 197
3 186 197 187
3 187 197 198
3 187 198 188
3 188 198 199
3 188 199 189
3 189 199 190
3 189 190 180
3 190 200 201
3 190 201 191
3 191 201 202
3 191 202 192
3 192 202 203
3 192 203 193
3 193 203 204
3 193 204 194
3 194 204 205
3 194 205 195
3 195 205 206
3 195 206 196
3 196 206 207
3 196 207 197
3 197 207 208
3 197 208 198
3 198 208 209
3 198 209 199
3 199 209 200
3 199 200 190
3 200 210 211
3 200 211 201
3 201 211 212
3 201 212 202
3 202 212 213
3 202 213 203
3 203 213 214
3 203 214 204
3 204 214 215
3 204 215 205
3 205 215 216
3 205 216 206
3 206 216 217
3 206 217 207
3 207 217 218
3 207 218 208
3 208 218 219
3 208 219 209
3 209 219 210
3 209 210 200
3 210 220 221
3 210 221 211
3 211 221 222
3 211 222 212
3 212 222 223
3 212 223 213
3 213 223 224
3 213 224 214
3 214 224 225
3 214 225 215
3 215 225 226
3 215 226 216
3 216 226 227
3 216 227 217
3 217 227 228
3 217 228 218
3 218 228 229
3 218 229 219
3 219 229 220
3 219 220 210
3 220 230 231
3 220 231 221
3 221 231 232
3 221 232 222
3 222 232 233
3 222 233 223
3 223 233 234
3 223 234 224
3 224 234 235
3 224 235 225
3 225 235 236
3 225 236 226
3 226 236 237
3 226 237 227
3 227 237 238
3 227 238 228
3 228 238 239
3 228 239 229
3 229 239 230
3 229 230 220
3 230 240 241
3 230 241 231
3 231 241 242
3 231 242 232
3 232 242 243
3 232 243 233
3 233 243 244
3 233 244 234
3 234 244 245
3 234 245 235
3 235 245 246
3 235 246 236
3 236 246 247
3 236 247 237
3 237 247 248
3 237 248 238
3 238 248 249
3 238 249 239
3 239 249 240
3 239 240 230
3 240 250 251
3 240 251 241
3 241 251 252
3 241 252 242
3 242 252 253
3 242 253 243
3 243 253 254
3 243 254 244
3 244 254 255
3 244 255 245
3 245 255 256
3 245 256 246
3 246 256 257
3 246 257 247
3 247 257 258
3 247 258 248
3 248 258 259
3 248 259 249
3 249 259 250
3 249 250 240
3 250 260 261
3 250 261 251
3 251 261 262
3 251 262 252
3 252 262 263
3 252 263 253
3 253 263 264
3 253 264 254
3 254 264 265
3 254 265 255
3 255 265 266
3 255 266 256
3 256 266 267
3 256 267 257
3 257 267 268
3 257 268 258
3 258 268 269
3 258 269 259
3 259 269 260
3 259 260 250
3 260 270 271
3 260 271 261
3 261 271 272
3 261 272 262
3 262 272 273
3 262 273 263
3 263 273 274
3 263 274 264
3 264 274 275
3 264 275 265
3 265 275 276
3 265 276 266
3 266 276 277
3 266 277 267
3 267 277 278
3 267 278 268
3 268 278 279
3 268 279 269
3 269 279 270
3 269 270 260
3 270 280 281
3 270 281 271
3 271 281 282
3 271 282 272
3 272 282 283
3 272 283 273
3 273 283 284
3 273 284 274
3 274 284 285
3 274 285 275
3 275 285 286
3 275 286 276
3 276 286 287
3 276 287 277
3 277 287 288
3 277 288 278
3 278 288 289
3 278 289 279
3 279 289 280
3 279 280 270
3 280 290 291
3 280 291 281
3 281 291 292
3 281 292 282
3 282 292 293
3 282 293 283
3 283 293 294
3 283 294 284
3 284 294 295
3 284 295 285
3 285 295 296
3 285 296 286
3 286 296 297
3 286 297 287
3 287 297 298
3 287 298 288
3 288 298 299
3 288 299 289
3 289 299 290
3 289 290 280
3 290 300 301
3 290 301 291
3 291 301 302
3 291 302 292
3 292 302 303
3 292 303 293
3 293 303 304
3 293 304 294
3 294 304 305
3 294 305 295
3 295 305 306
3 295 306 296
3 296 306 307
3 296 307 297
3 297 307 308
3 297 308 298
3 298 308 309
3 298 309 299
3 299 309 300
3 299 300 290
3 300 310 311
3 300 311 301
3 301 311 312
3 301 312 302
3 302 312 313
3 302 313 303
3 303 313 314
3 303 314 304
3 304 314 315
3 304 315 305
3 305 315 316
3 305 316 306
3 306 316 317
3 306 317 307
3 307 317 318
3 307 318 308
3 308 318 319
3 308 319 309
3 309 319 310
3 309 310 300
3 310 320 321
3 310 321 311
3 311 321 322
3 311 322 312
3 312 322 323
3 312 323 313
3 313 323 324
3 313 324 314
3 314 324 325
3 314 325 315
3 315 325 326
3 315 326 316
3 316 326 327
3 316 327 317
3 317 327 328
3 317 328 318
3 318 328 329
3 318 329 319
3 319 329 320
3 319 320 310
3 320 330 331
3 320 331 321
3 321 331 332
3 321 332 322
3 322 332 333
3 322 333 323
3 323 333 334
3 323 334 324
3 324 334 335
3 324 335 325
3 325 335 336
3 325 336 326
3 326 336 337
3 326 337 327
3 327 337 338
3 327 338 328
3 328 338 339
3 328 339 329
3 329 339 330
3 329 330 320
3 330 340 341
3 330 341 331
3 331 341 342
3 331 342 332
3 332 342 343
3 332 343 333
3 333 343 344
3 333 344 334
3 334 344 345
3 334 345 335
3 335 345 346
3 335 346 336
3 336 346 347
3 336 347 337
3 337 347 348
3 337 348 338
3 338 348 349
3 338 349 339
3 339 349 340
3 339 340 330
3 340 350 351
3 340 351 341
3 341 351 352
3 341 352 342
3 342 352 353
3 342 353 343
3 343 353 354
3 343 354 344
3 344 354 355
3 344 355 345
3 345 355 356
3 345 356 346
3 346 356 357
3 346 357 347
3 347 357 358
3 347 358 348
3 348 358 359
3 348 359 349
3 349 359 350
3 349 350 340
3 350 360 361
3 350 361 351
3 351 361 362
3 351 362 352
3 352 362 363
3 352 363 353
3 353 363 364
3 353 364 354
3 354 364 365
3 354 365 355
3 355 365 366
3 355 366 356
3 356 366 367
3 356 367 357
3 357 367 368
3 357 368 358
3 358 368 369
3 358 369 359
3 359 369 360
3 359 360 350
3 360 370 371
3 360 371 361
3 361 371 372
3 361 372 362
3 362 372 373
3 362 373 363
3 363 373 374
3 363 374 364
3 364 374 375
3 364 375 365
3 365 375 376
3 365 376 366
3 366 376 377
3 366 377 367
3 367 377 378
3 367 378 368
3 368 378 379
3 368 379 369
3 369 379 370
3 369 370 360
3 370 380 381
3 370 381 371
3 371 381 382
3 371 382 372
3 372 382 383
3 372 383 373
3 373 383 384
3 373 384 374
3 374 384 385
3 374 385 375
3 375 385 386
3 375 386 376
3 376 386 387
3 376 387 377
3 377 387 388
3 377 388 378
3 378 388 389
3 378 389 379
3 379 389 380
3 379 380 370
3 380 390 391
3 380 391 381
3 381 391 392
3 381 392 382
3 382 392 393
3 382 393 383
3 383 393 394
3 383 394 384
3 384 394 395
3 384 395 385
3 385 395 396
3 385 396 386
3 386 396 397
3 386 397 387
3 387 397 398
3 387 398 388
3 388 398 399
3 388 399 389
3 389 399 390
3 389 390 380
3 390 400 401
3 390 401 391
3 391 401 402
3 391 402 392
3 392 402 403
3 392 403 393
3 393 403 404
3 393 404 394
3 394 404 405
3 394 405 395
3 395 405 406
3 395 406 396
3 396 406 407
3 396 407 397
3 397 407 408
3 397 408 398
3 398 408 409
3 398 409 399
3 399 409 400
3 399 400 390
3 400 410 411
3 400 411 401
3 401 411 412
3 401 412 402
3 402 412 413
3 402 413 403
3 403 413 414
3 403 414 404
3 404 414 415
3 404 415 405
3 405 415 416
3 405 416 406
3 406 416 417
3 406 417 407
3 407 417 418
3 407 418 408
3 408 418 419
3 408 419 409
3 409 419 410
3 409 410 400
3 410 420 421
3 410 421 411
3 411 421 422
3 411 422 412
3 412 422 423
3 412 423 413
3 413 423 424
3 413 424 414
3 414 424 425
3 414 425 415
3 415 425 426
3 415 426 416
3 416 426 427
3 416 427 417
3 417 427 428
3 417 428 418
3 418 428 429
3 418 429 419
3 419 429 420
3 419 420 410
3 420 430 431
3 420 431 421
3 421 431 432
3 421 432 422
3 422 432 433
3 422 433 423
3 423 433 434
3 423 434 424
3 424 434 435
3 424 435 425
3 425 435 436
3 425 436 426
3 426 436 437
3 426 437 427
3 427 437 438
3 427 438 428
3 428 438 439
3 428 439 429
3 429 439 430
3 429 430 420
3 430 440 441
3 430 441 431
3 431 441 442
3 431 442 432
3 432 442 443
3 432 443 433
3 433 443 444
3 433 444 434
3 434 444 445
3 434 445 435
3 435 445 446
3 435 446 436
3 436 446 447
3 436 447 437
3 437 447 448
3 437 448 438
3 438 448 449
3 438 449 439
3 439 449 440
3 439 440 430
3 440 450 451
3 440 451 441
3 441 451 452
3 441 452 442
3 442 452 453
3 442 453 443
3 443 453 454
3 443 454 444
3 444 454 455
3 444 455 445
3 445 455 456
3 445 456 446
3 446 456 457
3 446 457 447
3 447 457 458
3 447 458 448
3 448 458 459
3 448 459 449
3 449 459 450
3 449 450 440
3 450 460 461
3 450 461 451
3 451 461 462
3 451 462 452
3 452 462 463
3 452 463 453
3 453 463 464
3 453 464 454
3 454 464 465
3 454 465 455
3 455 465 466
3 455 466 456
3 456 466 467
3 456 467 457
3 457 467 468
3 457 468 458
3 458 468 469
3 458 469 459
3 459 469 460
3 459 460 450
3 460 470 471
3 460 471 461
3 461 471 472
3 461 472 462
3 462 472 473
3 462 473 463
3 463 473 474
3 463 474 464
3 464 474 475
3 464 475 465
3 465 475 476
3 465 476 466
3 466 476 477
3 466 477 467
3 467 477 478
3 467 478 468
3 468 478 479
3 468 479 469
3 469 479 470
3 469 470 460
3 470 480 481
3 470 481 471
3 471 481 482
3 471 482 472
3 472 482 483
3 472 483 473
3 473 483 484
3 473 484 474
3 474 484 485
3 474 485 475
3 475 485 486
3 475 486 476
3 476 486 487
3 476 487 477
3 477 487 488
3 477 488 478
3 478 488 489
3 478 489 479
3 479 489 480
3 479 480 470
3 480 490 491
3 480 491 481
3 481 491 492
3 481 492 482
3 482 492 493
3 482 493 483
3 483 493 494
3 483 494 484
3 484 494 495
3 484 495 485
3 485 495 496
3 485 496 486
3 486 496 497
3 486 497 487
3 487 497 498
3 487 498 488
3 488 498 499
3 488 499 489
3 489 499 490
3 489 490 480
3 490 500 501
3 490 501 491
3 491 501 502
3 491 502 492
3 492 502 503
3 492 503 493
3 493 503 504
3 493 504 494
3 494 504 505
3 494 505 495
3 495 505 506
3 495 506 496
3 496 506 507
3 496 507 497
3 497 507 508
3 497 508 498
3 498 508 509
3 498 509 499
3 499 509 500
3 499 500 490
3 500 510 511
3 500 511 501
3 501 511 512
3 501 512 502
3 502 512 513
3 502 513 503
3 503 513 514
3 503 514 504
3 504 514 515
3 504 515 505
3 505 515 516
3 505 516 506
3 506 516 517
3 506 517 507
3 507 517 518
3 507 518 508
3 508 518 519
3 508 519 509
3 509 519 510
3 509 510 500
3 510 520 521
3 510 521 511
3 511 521 522
3 511 522 512
3 512 522 523
3 512 523 513
3 513 523 524
3 513 524 514
3 514 524 525
3 514 525 515
3 515 525 526
3 515 526 516
3 516 526 527
3 516 527 517
3 517 527 528
3 517 528 518
3 518 528 529
3 518 529 519
3 519 529 520
3 519 520 510
3 520 530 531
3 520 531 521
3 521 531 532
3 521 532 522
3 522 532 533
3 522 533 523
3 523 533 534
3 523 534 524
3 524 534 535
3 524 535 525
3 525 535 536
3 525 536 526
3 526 536 537
3 526 537 527
3 527 537 538
3 527 538 528
3 528 538 539
3 528 539 529
3 529 539 530
3 529 530 520
3 530 540 541
3 530 541 531
3 531 541 542
3 531 542 532
3 532 542 543
3 532 543 533
3 533 543 544
3 533 544 534
3 534 544 545
3 534 545 535
3 535 545 546
3 535 546 536
3 536 546 547
3 536 547 537
3 537 547 548
3 537 548 538
3 538 548 549
3 538 549 539
3 539 549 540
3 539 540 530
3 540 550 551
3 540 551 541
3 541 551 552
3 541 552 542
3 542 552 553
3 542 553 543
3 543 553 554
3 543 554 544
3 544 554 555
3 544 555 545
3 545 555 556
3 545 556 546
3 546 556 557
3 546 557 547
3 547 557 558
3 547 558 548
3 548 558 559
3 548 559 549
3 549 559 550
3 549 550 540
3 550 560 561
3 550 561 551
3 551 561 562
3 551 562 552
3 552 562 563
3 552 563 553
3 553 563 564
3 553 564 554
3 554 564 565
3 554 565 555
3 555 565 566
3 555 566 556
3 556 566 567
3 556 567 557
3 557 567 568
3 557 568 558
3 558 568 569
3 558 569 559
3 559 569 560
3 559 560 550
3 560 570 571
3 560 571 561
3 561 571 572
3 561 572 562
3 562 572 573
3 562 573 563
3 563 573 574
3 563 574 564
3 564 574 575
3 564 575 565
3 565 575 576
3 565 576 566
3 566 576 577
3 566 577 567
3 567 577 578
3 567 578 568
3 568 578 579
3 568 579 569
3 569 579 570
3 569 570 560
3 570 580 581
3 570 581 571
3 571 581 582
3 571 582 572
3 572 582 583
3 572 583 573
3 573 583 584
3 573 584 574
3 574 584 585
3 574 585 575
3 575 585 586
3 575 586 576
3 576 586 587
3 576 587 577
3 577 587 588
3 577 588 578
3 578 588 589
3 578 589 579
3 579 589 580
3 579 580 570
3 580 590 591
3 580 591 581
3 581 591 592
3 581 592 582
3 582 592 593
3 582 593 583
3 583 593 594
3 583 594 584
3 584 594 595
3 584 595 585
3 585 595 596
3 585 596 586
3 586 596 597
3 586 597 587
3 587 597 598
3 587 598 588
3 588 598 599
3 588 599 589
3 589 599 590
3 589 590 580
3 590 600 601
3 590 601 591
3 591 601 602
3 591 602 592
3 592 602 603
3 592 603 593
3 593 603 604
3 593 604 594
3 594 604 605
3 594 605 595
3 595 605 606
3 595 606 596
3 596 606 607
3 596 607 597
3 597 607 608
3 597 608 598
3 598 608 609
3 598 609 599
3 599 609 600
3 599 600 590
3 600 610 611
3 600 611 601
3 601 611 612
3 601 612 602
3 602 612 613
3 602 613 603
3 603 613 614
3 603 614 604
3 604 614 615
3 604 615 605
3 605 615 616
3 605 616 606
3 606 616 617
3 606 617 607
3 607 617 618
3 607 618 608
3 608 618 619
3 608 619 609
3 609 619 610
3 609 610 600
3 610 620 621
3 610 621 611
3 611 621 622
3 611 622 612
3 612 622 623
3 612 623 613
3 613 623 624
3 613 624 614
3 614 624 625
3 614 625 615
3 615 625 626
3 615 626 616
3 616 626 627
3 616 627 617
3 617 627 628
3 617 628 618
3 618 628 629
3 618 629 619
3 619 629 620
3 619 620 610
3 620 630 631
3 620 631 621
3 621 631 632
3 621 632 622
3 622 632 633
3 622 633 623
3 623 633 634
3 623 634 624
3 624 634 635
3 624 635 625
3 625 635 636
3 625 636 626
3 626 636 637
3 626 637 627
3 627 637 638
3 627 638 628
3 628 638 639
3 628 639 629
3 629 639 630
3 629 630 620
3 630 0 1
3 630 1 631
3 631 1 2
3 631 2 632
3 632 2 3
3 632 3 633
3 633 3 4
3 633 4 634
3 634 4 5
3 634 5 635
3 635 5 6
3 635 6 636
3 636 6 7
3 636 7 637
3 637 7 8
3 637 8 638
3 638 8 9
3 638 9 639
3 639 9 0
3 639 0 630
