ply
format ascii 1.0
element vertex 8
property float x
property float y
property float z
property float nx
property float ny
property float nz
element face 12
property list uchar int vertex_indices
end_header
-1.000000 -1.000000 0.000000 0.577350 0.577350 0.577350
1.000000 -1.000000 0.000000 -0.816497 0.408248 0.408248
-1.000000 1.000000 0.000000 0.408248 -0.816497 0.408248
1.000000 1.000000 0.000000 -0.408248 -0.408248 0.816497
-1.000000 -1.000000 2.000000 0.408248 0.408248 -0.816497
1.000000 -1.000000 2.000000 -0.408248 0.816497 -0.408248
-1.000000 1.000000 2.000000 0.816497 -0.408248 -0.408248
1.000000 1.000000 2.000000 -0.577350 -0.577350 -0.577350
3 0 1 3
3 0 3 2
3 4 6 7
3 4 7 5
3 0 4 5
3 0 5 1
3 2 3 7
3 2 7 6
3 0 2 6
3 0 6 4
3 1 5 7
3 1 7 3
