ply
format ascii 1.0
element vertex 20
property float x
property float y
property float z
property float nx
property float ny
property float nz
element face 36
property list uchar int vertex_indices
end_header
1.000000 1.000000 2.618034 0.577350 0.577350 0.577350
1.000000 1.000000 0.618034 0.513375 0.564254 -0.646578
1.000000 -1.000000 2.618034 0.564254 -0.646578 0.513375
1.000000 -1.000000 0.618034 0.491951 -0.643972 -0.585905
-1.000000 1.000000 2.618034 -0.646578 0.513375 0.564254
-1.000000 1.000000 0.618034 -0.585905 0.491951 -0.643972
-1.000000 -1.000000 2.618034 -0.643972 -0.585905 0.491951
-1.000000 -1.000000 0.618034 -0.577350 -0.577350 -0.577350
0.000000 0.618034 3.236068 0.000000 0.356822 0.934172
0.000000 0.618034 0.000000 0.000000 0.356822 -0.934172
0.000000 -0.618034 3.236068 0.000000 -0.211637 0.977348
0.000000 -0.618034 0.000000 0.000000 -0.211637 -0.977348
0.618034 1.618034 1.618034 0.356822 0.934172 0.000000
0.618034 -1.618034 1.618034 0.356822 -0.934172 0.000000
-0.618034 1.618034 1.618034 -0.211637 0.977348 0.000000
-0.618034 -1.618034 1.618034 -0.211637 -0.977348 0.000000
1.618034 0.000000 2.236068 0.934172 0.000000 0.356822
1.618034 0.000000 1.000000 0.977348 0.000000 -0.211637
-1.618034 0.000000 2.236068 -0.934172 0.000000 0.356822
-1.618034 0.000000 1.000000 -0.977348 0.000000 -0.211637
3 0 8 10
3 0 10 2
3 0 2 16
3 0 16 17
3 0 17 1
3 0 1 12
3 0 12 14
3 0 14 4
3 0 4 8
3 1 17 3
3 1 3 11
3 1 11 9
3 1 9 5
3 1 5 14
3 1 14 12
3 2 10 6
3 2 6 15
3 2 15 13
3 2 13 3
3 2 3 17
3 2 17 16
3 3 13 15
3 3 15 7
3 3 7 11
3 4 14 5
3 4 5 19
3 4 19 18
3 4 18 6
3 4 6 10
3 4 10 8
3 5 9 11
3 5 11 7
3 5 7 19
3 6 18 19
3 6 19 7
3 6 7 15
