ply
format ascii 1.0
element vertex 6
property float x
property float y
property float z
property float nx
property float ny
property float nz
element face 8
property list uchar int vertex_indices
end_header
1.000000 0.000000 1.000000 1.000000 0.000000 0.000000
-1.000000 0.000000 1.000000 -1.000000 0.000000 0.000000
0.000000 1.000000 1.000000 0.000000 1.000000 0.000000
0.000000 -1.000000 1.000000 0.000000 -1.000000 0.000000
0.000000 0.000000 2.000000 0.000000 0.000000 1.000000
0.000000 0.000000 0.000000 0.000000 0.000000 -1.000000
3 0 2 4
3 2 1 4
3 1 3 4
3 3 0 4
3 2 0 5
3 1 2 5
3 3 1 5
3 0 3 5
