ply
format ascii 1.0
element vertex 5
property float x
property float y
property float z
property float nx
property float ny
property float nz
element face 6
property list uchar int vertex_indices
end_header
0.000000 0.000000 1.800000 -0.000000 0.000000 1.000000
1.000000 0.000000 0.000000 0.549573 -0.000000 -0.835446
-0.500000 0.866025 0.000000 -0.274787 0.475944 -0.835446
-0.500000 -0.866025 0.000000 -0.274787 -0.475944 -0.835446
0.000000 0.000000 0.000000 0.000000 0.000000 -1.000000
3 0 1 2
3 4 2 1
3 0 2 3
3 4 3 2
3 0 3 1
3 4 1 3
