ply
format ascii 1.0
element vertex 8
property float x
property float y
property float z
property float nx
property float ny
property float nz
element face 12
property list uchar int vertex_indices
end_header
0.000000 0.000000 1.800000 0.000000 0.000000 1.000000
1.000000 0.000000 0.000000 0.809287 0.000000 -0.587413
0.500000 0.866025 0.000000 0.404644 0.700863 -0.587413
-0.500000 0.866025 0.000000 -0.404644 0.700863 -0.587413
-1.000000 0.000000 0.000000 -0.809287 0.000000 -0.587413
-0.500000 -0.866025 0.000000 -0.404644 -0.700863 -0.587413
0.500000 -0.866025 0.000000 0.404644 -0.700863 -0.587413
0.000000 0.000000 0.000000 0.000000 0.000000 -1.000000
3 0 1 2
3 7 2 1
3 0 2 3
3 7 3 2
3 0 3 4
3 7 4 3
3 0 4 5
3 7 5 4
3 0 5 6
3 7 6 5
3 0 6 1
3 7 1 6
