ply
format ascii 1.0
element vertex 42
property float x
property float y
property float z
property float nx
property float ny
property float nz
element face 80
property list uchar int vertex_indices
end_header
1.000000 0.000000 0.000000 0.934486 -0.049336 -0.352566
0.951057 0.309017 0.000000 0.903994 0.241851 -0.352566
0.809017 0.587785 0.000000 0.785014 0.509363 -0.352566
0.587785 0.809017 0.000000 0.589190 0.727016 -0.352566
0.309017 0.951057 0.000000 0.335693 0.873503 -0.352566
0.000000 1.000000 0.000000 0.049336 0.934486 -0.352566
-0.309017 0.951057 0.000000 -0.241851 0.903994 -0.352566
-0.587785 0.809017 0.000000 -0.509363 0.785014 -0.352566
-0.809017 0.587785 0.000000 -0.727016 0.589190 -0.352566
-0.951057 0.309017 0.000000 -0.873503 0.335693 -0.352566
-1.000000 0.000000 0.000000 -0.934486 0.049336 -0.352566
-0.951057 -0.309017 0.000000 -0.903994 -0.241851 -0.352566
-0.809017 -0.587785 0.000000 -0.785014 -0.509363 -0.352566
-0.587785 -0.809017 0.000000 -0.589190 -0.727016 -0.352566
-0.309017 -0.951057 0.000000 -0.335693 -0.873503 -0.352566
-0.000000 -1.000000 0.000000 -0.049336 -0.934486 -0.352566
0.309017 -0.951057 0.000000 0.241851 -0.903994 -0.352566
0.587785 -0.809017 0.000000 0.509363 -0.785014 -0.352566
0.809017 -0.587785 0.000000 0.727016 -0.589190 -0.352566
0.951057 -0.309017 0.000000 0.873503 -0.335693 -0.352566
0.500000 0.000000 1.500000 0.691281 0.036496 0.721663
0.475528 0.154508 1.500000 0.646170 0.248328 0.721663
0.404508 0.293893 1.500000 0.537807 0.435851 0.721663
0.293893 0.404508 1.500000 0.376799 0.580710 0.721663
0.154508 0.475528 1.500000 0.178908 0.668726 0.721663
0.000000 0.500000 1.500000 -0.036496 0.691281 0.721663
-0.154508 0.475528 1.500000 -0.248328 0.646170 0.721663
-0.293893 0.404508 1.500000 -0.435851 0.537807 0.721663
-0.404508 0.293893 1.500000 -0.580710 0.376799 0.721663
-0.475528 0.154508 1.500000 -0.668726 0.178908 0.721663
-0.500000 0.000000 1.500000 -0.691281 -0.036496 0.721663
-0.475528 -0.154508 1.500000 -0.646170 -0.248328 0.721663
-0.404508 -0.293893 1.500000 -0.537807 -0.435851 0.721663
-0.293893 -0.404508 1.500000 -0.376799 -0.580710 0.721663
-0.154508 -0.475528 1.500000 -0.178908 -0.668726 0.721663
-0.000000 -0.500000 1.500000 0.036496 -0.691281 0.721663
0.154508 -0.475528 1.500000 0.248328 -0.646170 0.721663
0.293893 -0.404508 1.500000 0.435851 -0.537807 0.721663
0.404508 -0.293893 1.500000 0.580710 -0.376799 0.721663
0.475528 -0.154508 1.500000 0.668726 -0.178908 0.721663
0.000000 0.000000 0.000000 0.000000 0.000000 -1.000000
0.000000 0.000000 1.500000 0.000000 0.000000 1.000000
3 0 1 20
3 1 21 20
3 40 1 0
3 41 20 21
3 1 2 21
3 2 22 21
3 40 2 1
3 41 21 22
3 2 3 22
3 3 23 22
3 40 3 2
3 41 22 23
3 3 4 23
3 4 24 23
3 40 4 3
3 41 23 24
3 4 5 24
3 5 25 24
3 40 5 4
3 41 24 25
3 5 6 25
3 6 26 25
3 40 6 5
3 41 25 26
3 6 7 26
3 7 27 26
3 40 7 6
3 41 26 27
3 7 8 27
3 8 28 27
3 40 8 7
3 41 27 28
3 8 9 28
3 9 29 28
3 40 9 8
3 41 28 29
3 9 10 29
3 10 30 29
3 40 10 9
3 41 29 30
3 10 11 30
3 11 31 30
3 40 11 10
3 41 30 31
3 11 12 31
3 12 32 31
3 40 12 11
3 41 31 32
3 12 13 32
3 13 33 32
3 40 13 12
3 41 32 33
3 13 14 33
3 14 34 33
3 40 14 13
3 41 33 34
3 14 15 34
3 15 35 34
3 40 15 14
3 41 34 35
3 15 16 35
3 16 36 35
3 40 16 15
3 41 35 36
3 16 17 36
3 17 37 36
3 40 17 16
3 41 36 37
3 17 18 37
3 18 38 37
3 40 18 17
3 41 37 38
3 18 19 38
3 19 39 38
3 40 19 18
3 41 38 39
3 19 0 39
3 0 20 39
3 40 0 19
3 41 39 20
