ply
format ascii 1.0
element vertex 26
property float x
property float y
property float z
property float nx
property float ny
property float nz
element face 48
property list uchar int vertex_indices
end_header
0.000000 0.000000 2.000000 -0.000000 -0.000000 1.000000
1.000000 0.000000 0.000000 0.847709 -0.000000 -0.530461
0.965926 0.258819 0.000000 0.818824 0.219403 -0.530461
0.866025 0.500000 0.000000 0.734138 0.423855 -0.530461
0.707107 0.707107 0.000000 0.599421 0.599421 -0.530461
0.500000 0.866025 0.000000 0.423855 0.734138 -0.530461
0.258819 0.965926 0.000000 0.219403 0.818824 -0.530461
0.000000 1.000000 0.000000 0.000000 0.847709 -0.530461
-0.258819 0.965926 0.000000 -0.219403 0.818824 -0.530461
-0.500000 0.866025 0.000000 -0.423855 0.734138 -0.530461
-0.707107 0.707107 0.000000 -0.599421 0.599421 -0.530461
-0.866025 0.500000 0.000000 -0.734138 0.423855 -0.530461
-0.965926 0.258819 0.000000 -0.818824 0.219403 -0.530461
-1.000000 0.000000 0.000000 -0.847709 0.000000 -0.530461
-0.965926 -0.258819 0.000000 -0.818824 -0.219403 -0.530461
-0.866025 -0.500000 0.000000 -0.734138 -0.423855 -0.530461
-0.707107 -0.707107 0.000000 -0.599421 -0.599421 -0.530461
-0.500000 -0.866025 0.000000 -0.423855 -0.734138 -0.530461
-0.258819 -0.965926 0.000000 -0.219403 -0.818824 -0.530461
-0.000000 -1.000000 0.000000 -0.000000 -0.847709 -0.530461
0.258819 -0.965926 0.000000 0.219403 -0.818824 -0.530461
0.500000 -0.866025 0.000000 0.423855 -0.734138 -0.530461
0.707107 -0.707107 0.000000 0.599421 -0.599421 -0.530461
0.866025 -0.500000 0.000000 0.734138 -0.423855 -0.530461
0.965926 -0.258819 0.000000 0.818824 -0.219403 -0.530461
0.000000 0.000000 0.000000 0.000000 0.000000 -1.000000
3 0 1 2
3 25 2 1
3 0 2 3
3 25 3 2
3 0 3 4
3 25 4 3
3 0 4 5
3 25 5 4
3 0 5 6
3 25 6 5
3 0 6 7
3 25 7 6
3 0 7 8
3 25 8 7
3 0 8 9
3 25 9 8
3 0 9 10
3 25 10 9
3 0 10 11
3 25 11 10
3 0 11 12
3 25 12 11
3 0 12 13
3 25 13 12
3 0 13 14
3 25 14 13
3 0 14 15
3 25 15 14
3 0 15 16
3 25 16 15
3 0 16 17
3 25 17 16
3 0 17 18
3 25 18 17
3 0 18 19
3 25 19 18
3 0 19 20
3 25 20 19
3 0 20 21
3 25 21 20
3 0 21 22
3 25 22 21
3 0 22 23
3 25 23 22
3 0 23 24
3 25 24 23
3 0 24 1
3 25 1 24
