ply
format ascii 1.0
element vertex 534
property float x
property float y
property float z
property float nx
property float ny
property float nz
element face 1064
property list uchar int vertex_indices
end_header
0.000000 0.000000 2.000000 0.000000 -0.000000 -1.000000
0.156434 0.000000 1.987688 -0.171946 0.005275 -0.985092
0.152512 0.034810 1.987688 -0.168809 -0.033118 -0.985092
0.140943 0.067874 1.987688 -0.157207 -0.069851 -0.985092
0.122305 0.097535 1.987688 -0.137722 -0.103082 -0.985092
0.097535 0.122305 1.987688 -0.111331 -0.131144 -0.985092
0.067874 0.140943 1.987688 -0.079358 -0.152629 -0.985092
0.034810 0.152512 1.987688 -0.043405 -0.166461 -0.985092
0.000000 0.156434 1.987688 -0.005275 -0.171946 -0.985092
-0.034810 0.152512 1.987688 0.033118 -0.168809 -0.985092
-0.067874 0.140943 1.987688 0.069851 -0.157207 -0.985092
-0.097535 0.122305 1.987688 0.103082 -0.137722 -0.985092
-0.122305 0.097535 1.987688 0.131144 -0.111331 -0.985092
-0.140943 0.067874 1.987688 0.152629 -0.079358 -0.985092
-0.152512 0.034810 1.987688 0.166461 -0.043405 -0.985092
-0.156434 0.000000 1.987688 0.171946 -0.005275 -0.985092
-0.152512 -0.034810 1.987688 0.168809 0.033118 -0.985092
-0.140943 -0.067874 1.987688 0.157207 0.069851 -0.985092
-0.122305 -0.097535 1.987688 0.137722 0.103082 -0.985092
-0.097535 -0.122305 1.987688 0.111331 0.131144 -0.985092
-0.067874 -0.140943 1.987688 0.079358 0.152629 -0.985092
-0.034810 -0.152512 1.987688 0.043405 0.166461 -0.985092
-0.000000 -0.156434 1.987688 0.005275 0.171946 -0.985092
0.034810 -0.152512 1.987688 -0.033118 0.168809 -0.985092
0.067874 -0.140943 1.987688 -0.069851 0.157207 -0.985092
0.097535 -0.122305 1.987688 -0.103082 0.137722 -0.985092
0.122305 -0.097535 1.987688 -0.131144 0.111331 -0.985092
0.140943 -0.067874 1.987688 -0.152629 0.079358 -0.985092
0.152512 -0.034810 1.987688 -0.166461 0.043405 -0.985092
0.309017 0.000000 1.951057 -0.308994 0.002808 -0.951060
0.301269 0.068763 1.951057 -0.301872 -0.066020 -0.951060
0.278415 0.134077 1.951057 -0.279612 -0.131538 -0.951060
0.241599 0.192669 1.951057 -0.243332 -0.190459 -0.951060
0.192669 0.241599 1.951057 -0.194850 -0.239831 -0.951060
0.134077 0.278415 1.951057 -0.136597 -0.277176 -0.951060
0.068763 0.301269 1.951057 -0.071495 -0.300622 -0.951060
0.000000 0.309017 1.951057 -0.002808 -0.308994 -0.951060
-0.068763 0.301269 1.951057 0.066020 -0.301872 -0.951060
-0.134077 0.278415 1.951057 0.131538 -0.279612 -0.951060
-0.192669 0.241599 1.951057 0.190459 -0.243332 -0.951060
-0.241599 0.192669 1.951057 0.239831 -0.194850 -0.951060
-0.278415 0.134077 1.951057 0.277176 -0.136597 -0.951060
-0.301269 0.068763 1.951057 0.300622 -0.071495 -0.951060
-0.309017 0.000000 1.951057 0.308994 -0.002808 -0.951060
-0.301269 -0.068763 1.951057 0.301872 0.066020 -0.951060
-0.278415 -0.134077 1.951057 0.279612 0.131538 -0.951060
-0.241599 -0.192669 1.951057 0.243332 0.190459 -0.951060
-0.192669 -0.241599 1.951057 0.194850 0.239831 -0.951060
-0.134077 -0.278415 1.951057 0.136597 0.277176 -0.951060
-0.068763 -0.301269 1.951057 0.071495 0.300622 -0.951060
-0.000000 -0.309017 1.951057 0.002808 0.308994 -0.951060
0.068763 -0.301269 1.951057 -0.066020 0.301872 -0.951060
0.134077 -0.278415 1.951057 -0.131538 0.279612 -0.951060
0.192669 -0.241599 1.951057 -0.190459 0.243332 -0.951060
0.241599 -0.192669 1.951057 -0.239831 0.194850 -0.951060
0.278415 -0.134077 1.951057 -0.277176 0.136597 -0.951060
0.301269 -0.068763 1.951057 -0.300622 0.071495 -0.951060
0.453990 0.000000 1.891007 -0.453961 0.002627 -0.891018
0.442608 0.101022 1.891007 -0.443164 -0.098455 -0.891018
0.409031 0.196979 1.891007 -0.410144 -0.194600 -0.891018
0.354944 0.283058 1.891007 -0.356559 -0.280986 -0.891018
0.283058 0.354944 1.891007 -0.285094 -0.353283 -0.891018
0.196979 0.409031 1.891007 -0.199333 -0.407865 -0.891018
0.101022 0.442608 1.891007 -0.103577 -0.441995 -0.891018
0.000000 0.453990 1.891007 -0.002627 -0.453961 -0.891018
-0.101022 0.442608 1.891007 0.098455 -0.443164 -0.891018
-0.196979 0.409031 1.891007 0.194600 -0.410144 -0.891018
-0.283058 0.354944 1.891007 0.280986 -0.356559 -0.891018
-0.354944 0.283058 1.891007 0.353283 -0.285094 -0.891018
-0.409031 0.196979 1.891007 0.407865 -0.199333 -0.891018
-0.442608 0.101022 1.891007 0.441995 -0.103577 -0.891018
-0.453990 0.000000 1.891007 0.453961 -0.002627 -0.891018
-0.442608 -0.101022 1.891007 0.443164 0.098455 -0.891018
-0.409031 -0.196979 1.891007 0.410144 0.194600 -0.891018
-0.354944 -0.283058 1.891007 0.356559 0.280986 -0.891018
-0.283058 -0.354944 1.891007 0.285094 0.353283 -0.891018
-0.196979 -0.409031 1.891007 0.199333 0.407865 -0.891018
-0.101022 -0.442608 1.891007 0.103577 0.441995 -0.891018
-0.000000 -0.453990 1.891007 0.002627 0.453961 -0.891018
0.101022 -0.442608 1.891007 -0.098455 0.443164 -0.891018
0.196979 -0.409031 1.891007 -0.194600 0.410144 -0.891018
0.283058 -0.354944 1.891007 -0.280986 0.356559 -0.891018
0.354944 -0.283058 1.891007 -0.353283 0.285094 -0.891018
0.409031 -0.196979 1.891007 -0.407865 0.199333 -0.891018
0.442608 -0.101022 1.891007 -0.441995 0.103577 -0.891018
0.587785 0.000000 1.809017 -0.587754 0.002381 -0.809036
0.573048 0.130795 1.809017 -0.573547 -0.128466 -0.809036
0.529576 0.255030 1.809017 -0.530581 -0.252872 -0.809036
0.459549 0.366478 1.809017 -0.461009 -0.364597 -0.809036
0.366478 0.459549 1.809017 -0.368320 -0.458040 -0.809036
0.255030 0.529576 1.809017 -0.257162 -0.528515 -0.809036
0.130795 0.573048 1.809017 -0.133109 -0.572488 -0.809036
0.000000 0.587785 1.809017 -0.002381 -0.587754 -0.809036
-0.130795 0.573048 1.809017 0.128466 -0.573547 -0.809036
-0.255030 0.529576 1.809017 0.252872 -0.530581 -0.809036
-0.366478 0.459549 1.809017 0.364597 -0.461009 -0.809036
-0.459549 0.366478 1.809017 0.458040 -0.368320 -0.809036
-0.529576 0.255030 1.809017 0.528515 -0.257162 -0.809036
-0.573048 0.130795 1.809017 0.572488 -0.133109 -0.809036
-0.587785 0.000000 1.809017 0.587754 -0.002381 -0.809036
-0.573048 -0.130795 1.809017 0.573547 0.128466 -0.809036
-0.529576 -0.255030 1.809017 0.530581 0.252872 -0.809036
-0.459549 -0.366478 1.809017 0.461009 0.364597 -0.809036
-0.366478 -0.459549 1.809017 0.368320 0.458040 -0.809036
-0.255030 -0.529576 1.809017 0.257162 0.528515 -0.809036
-0.130795 -0.573048 1.809017 0.133109 0.572488 -0.809036
-0.000000 -0.587785 1.809017 0.002381 0.587754 -0.809036
0.130795 -0.573048 1.809017 -0.128466 0.573547 -0.809036
0.255030 -0.529576 1.809017 -0.252872 0.530581 -0.809036
0.366478 -0.459549 1.809017 -0.364597 0.461009 -0.809036
0.459549 -0.366478 1.809017 -0.458040 0.368320 -0.809036
0.529576 -0.255030 1.809017 -0.528515 0.257162 -0.809036
0.573048 -0.130795 1.809017 -0.572488 0.133109 -0.809036
0.707107 0.000000 1.707107 -0.707078 0.002077 -0.707133
0.689378 0.157346 1.707107 -0.689812 -0.155315 -0.707133
0.637081 0.306802 1.707107 -0.637956 -0.304918 -0.707133
0.552838 0.440874 1.707107 -0.554111 -0.439232 -0.707133
0.440874 0.552838 1.707107 -0.442480 -0.551521 -0.707133
0.306802 0.637081 1.707107 -0.308661 -0.636154 -0.707133
0.157346 0.689378 1.707107 -0.159365 -0.688888 -0.707133
0.000000 0.707107 1.707107 -0.002077 -0.707078 -0.707133
-0.157346 0.689378 1.707107 0.155315 -0.689812 -0.707133
-0.306802 0.637081 1.707107 0.304918 -0.637956 -0.707133
-0.440874 0.552838 1.707107 0.439232 -0.554111 -0.707133
-0.552838 0.440874 1.707107 0.551521 -0.442480 -0.707133
-0.637081 0.306802 1.707107 0.636154 -0.308661 -0.707133
-0.689378 0.157346 1.707107 0.688888 -0.159365 -0.707133
-0.707107 0.000000 1.707107 0.707078 -0.002077 -0.707133
-0.689378 -0.157346 1.707107 0.689812 0.155315 -0.707133
-0.637081 -0.306802 1.707107 0.637956 0.304918 -0.707133
-0.552838 -0.440874 1.707107 0.554111 0.439232 -0.707133
-0.440874 -0.552838 1.707107 0.442480 0.551521 -0.707133
-0.306802 -0.637081 1.707107 0.308661 0.636154 -0.707133
-0.157346 -0.689378 1.707107 0.159365 0.688888 -0.707133
-0.000000 -0.707107 1.707107 0.002077 0.707078 -0.707133
0.157346 -0.689378 1.707107 -0.155315 0.689812 -0.707133
0.306802 -0.637081 1.707107 -0.304918 0.637956 -0.707133
0.440874 -0.552838 1.707107 -0.439232 0.554111 -0.707133
0.552838 -0.440874 1.707107 -0.551521 0.442480 -0.707133
0.637081 -0.306802 1.707107 -0.636154 0.308661 -0.707133
0.689378 -0.157346 1.707107 -0.688888 0.159365 -0.707133
0.809017 0.000000 1.587785 -0.808994 0.001723 -0.587814
0.788733 0.180023 1.587785 -0.789094 -0.178338 -0.587814
0.728899 0.351019 1.587785 -0.729626 -0.349457 -0.587814
0.632515 0.504414 1.587785 -0.633571 -0.503052 -0.587814
0.504414 0.632515 1.587785 -0.505747 -0.631423 -0.587814
0.351019 0.728899 1.587785 -0.352562 -0.728131 -0.587814
0.180023 0.788733 1.587785 -0.181698 -0.788328 -0.587814
0.000000 0.809017 1.587785 -0.001723 -0.808994 -0.587814
-0.180023 0.788733 1.587785 0.178338 -0.789094 -0.587814
-0.351019 0.728899 1.587785 0.349457 -0.729626 -0.587814
-0.504414 0.632515 1.587785 0.503052 -0.633571 -0.587814
-0.632515 0.504414 1.587785 0.631423 -0.505747 -0.587814
-0.728899 0.351019 1.587785 0.728131 -0.352562 -0.587814
-0.788733 0.180023 1.587785 0.788328 -0.181698 -0.587814
-0.809017 0.000000 1.587785 0.808994 -0.001723 -0.587814
-0.788733 -0.180023 1.587785 0.789094 0.178338 -0.587814
-0.728899 -0.351019 1.587785 0.729626 0.349457 -0.587814
-0.632515 -0.504414 1.587785 0.633571 0.503052 -0.587814
-0.504414 -0.632515 1.587785 0.505747 0.631423 -0.587814
-0.351019 -0.728899 1.587785 0.352562 0.728131 -0.587814
-0.180023 -0.788733 1.587785 0.181698 0.788328 -0.587814
-0.000000 -0.809017 1.587785 0.001723 0.808994 -0.587814
0.180023 -0.788733 1.587785 -0.178338 0.789094 -0.587814
0.351019 -0.728899 1.587785 -0.349457 0.729626 -0.587814
0.504414 -0.632515 1.587785 -0.503052 0.633571 -0.587814
0.632515 -0.504414 1.587785 -0.631423 0.505747 -0.587814
0.728899 -0.351019 1.587785 -0.728131 0.352562 -0.587814
0.788733 -0.180023 1.587785 -0.788328 0.181698 -0.587814
0.891007 0.000000 1.453990 -0.890992 0.001329 -0.454018
0.868667 0.198268 1.453990 -0.868948 -0.196969 -0.454018
0.802769 0.386593 1.453990 -0.803332 -0.385390 -0.454018
0.696617 0.555533 1.453990 -0.697434 -0.554485 -0.454018
0.555533 0.696617 1.453990 -0.556563 -0.695777 -0.454018
0.386593 0.802769 1.453990 -0.387784 -0.802179 -0.454018
0.198268 0.868667 1.453990 -0.199560 -0.868357 -0.454018
0.000000 0.891007 1.453990 -0.001329 -0.890992 -0.454018
-0.198268 0.868667 1.453990 0.196969 -0.868948 -0.454018
-0.386593 0.802769 1.453990 0.385390 -0.803332 -0.454018
-0.555533 0.696617 1.453990 0.554485 -0.697434 -0.454018
-0.696617 0.555533 1.453990 0.695777 -0.556563 -0.454018
-0.802769 0.386593 1.453990 0.802179 -0.387784 -0.454018
-0.868667 0.198268 1.453990 0.868357 -0.199560 -0.454018
-0.891007 0.000000 1.453990 0.890992 -0.001329 -0.454018
-0.868667 -0.198268 1.453990 0.868948 0.196969 -0.454018
-0.802769 -0.386593 1.453990 0.803332 0.385390 -0.454018
-0.696617 -0.555533 1.453990 0.697434 0.554485 -0.454018
-0.555533 -0.696617 1.453990 0.556563 0.695777 -0.454018
-0.386593 -0.802769 1.453990 0.387784 0.802179 -0.454018
-0.198268 -0.868667 1.453990 0.199560 0.868357 -0.454018
-0.000000 -0.891007 1.453990 0.001329 0.890992 -0.454018
0.198268 -0.868667 1.453990 -0.196969 0.868948 -0.454018
0.386593 -0.802769 1.453990 -0.385390 0.803332 -0.454018
0.555533 -0.696617 1.453990 -0.554485 0.697434 -0.454018
0.696617 -0.555533 1.453990 -0.695777 0.556563 -0.454018
0.802769 -0.386593 1.453990 -0.802179 0.387784 -0.454018
0.868667 -0.198268 1.453990 -0.868357 0.199560 -0.454018
0.951057 0.000000 1.309017 -0.951049 0.000903 -0.309038
0.927212 0.211630 1.309017 -0.927405 -0.210748 -0.309038
0.856872 0.412648 1.309017 -0.857257 -0.411831 -0.309038
0.743566 0.592974 1.309017 -0.744123 -0.592263 -0.309038
0.592974 0.743566 1.309017 -0.593675 -0.742997 -0.309038
0.412648 0.856872 1.309017 -0.413458 -0.856474 -0.309038
0.211630 0.927212 1.309017 -0.212509 -0.927003 -0.309038
0.000000 0.951057 1.309017 -0.000903 -0.951049 -0.309038
-0.211630 0.927212 1.309017 0.210748 -0.927405 -0.309038
-0.412648 0.856872 1.309017 0.411831 -0.857257 -0.309038
-0.592974 0.743566 1.309017 0.592263 -0.744123 -0.309038
-0.743566 0.592974 1.309017 0.742997 -0.593675 -0.309038
-0.856872 0.412648 1.309017 0.856474 -0.413458 -0.309038
-0.927212 0.211630 1.309017 0.927003 -0.212509 -0.309038
-0.951057 0.000000 1.309017 0.951049 -0.000903 -0.309038
-0.927212 -0.211630 1.309017 0.927405 0.210748 -0.309038
-0.856872 -0.412648 1.309017 0.857257 0.411831 -0.309038
-0.743566 -0.592974 1.309017 0.744123 0.592263 -0.309038
-0.592974 -0.743566 1.309017 0.593675 0.742997 -0.309038
-0.412648 -0.856872 1.309017 0.413458 0.856474 -0.309038
-0.211630 -0.927212 1.309017 0.212509 0.927003 -0.309038
-0.000000 -0.951057 1.309017 0.000903 0.951049 -0.309038
0.211630 -0.927212 1.309017 -0.210748 0.927405 -0.309038
0.412648 -0.856872 1.309017 -0.411831 0.857257 -0.309038
0.592974 -0.743566 1.309017 -0.592263 0.744123 -0.309038
0.743566 -0.592974 1.309017 -0.742997 0.593675 -0.309038
0.856872 -0.412648 1.309017 -0.856474 0.413458 -0.309038
0.927212 -0.211630 1.309017 -0.927003 0.212509 -0.309038
0.987688 0.000000 1.156434 -0.987686 0.000457 -0.156446
0.962925 0.219781 1.156434 -0.963025 -0.219336 -0.156446
0.889876 0.428542 1.156434 -0.890073 -0.428130 -0.156446
0.772206 0.615814 1.156434 -0.772489 -0.615455 -0.156446
0.615814 0.772206 1.156434 -0.616170 -0.771920 -0.156446
0.428542 0.889876 1.156434 -0.428953 -0.889676 -0.156446
0.219781 0.962925 1.156434 -0.220226 -0.962821 -0.156446
0.000000 0.987688 1.156434 -0.000457 -0.987686 -0.156446
-0.219781 0.962925 1.156434 0.219336 -0.963025 -0.156446
-0.428542 0.889876 1.156434 0.428130 -0.890073 -0.156446
-0.615814 0.772206 1.156434 0.615455 -0.772489 -0.156446
-0.772206 0.615814 1.156434 0.771920 -0.616170 -0.156446
-0.889876 0.428542 1.156434 0.889676 -0.428953 -0.156446
-0.962925 0.219781 1.156434 0.962821 -0.220226 -0.156446
-0.987688 0.000000 1.156434 0.987686 -0.000457 -0.156446
-0.962925 -0.219781 1.156434 0.963025 0.219336 -0.156446
-0.889876 -0.428542 1.156434 0.890073 0.428130 -0.156446
-0.772206 -0.615814 1.156434 0.772489 0.615455 -0.156446
-0.615814 -0.772206 1.156434 0.616170 0.771920 -0.156446
-0.428542 -0.889876 1.156434 0.428953 0.889676 -0.156446
-0.219781 -0.962925 1.156434 0.220226 0.962821 -0.156446
-0.000000 -0.987688 1.156434 0.000457 0.987686 -0.156446
0.219781 -0.962925 1.156434 -0.219336 0.963025 -0.156446
0.428542 -0.889876 1.156434 -0.428130 0.890073 -0.156446
0.615814 -0.772206 1.156434 -0.615455 0.772489 -0.156446
0.772206 -0.615814 1.156434 -0.771920 0.616170 -0.156446
0.889876 -0.428542 1.156434 -0.889676 0.428953 -0.156446
0.962925 -0.219781 1.156434 -0.962821 0.220226 -0.156446
1.000000 0.000000 1.000000 -1.000000 0.000000 -0.000000
0.974928 0.222521 1.000000 -0.974928 -0.222521 0.000000
0.900969 0.433884 1.000000 -0.900969 -0.433884 0.000000
0.781831 0.623490 1.000000 -0.781831 -0.623490 0.000000
0.623490 0.781831 1.000000 -0.623490 -0.781831 0.000000
0.433884 0.900969 1.000000 -0.433884 -0.900969 0.000000
0.222521 0.974928 1.000000 -0.222521 -0.974928 0.000000
0.000000 1.000000 1.000000 0.000000 -1.000000 0.000000
-0.222521 0.974928 1.000000 0.222521 -0.974928 0.000000
-0.433884 0.900969 1.000000 0.433884 -0.900969 0.000000
-0.623490 0.781831 1.000000 0.623490 -0.781831 0.000000
-0.781831 0.623490 1.000000 0.781831 -0.623490 0.000000
-0.900969 0.433884 1.000000 0.900969 -0.433884 0.000000
-0.974928 0.222521 1.000000 0.974928 -0.222521 0.000000
-1.000000 0.000000 1.000000 1.000000 0.000000 0.000000
-0.974928 -0.222521 1.000000 0.974928 0.222521 0.000000
-0.900969 -0.433884 1.000000 0.900969 0.433884 0.000000
-0.781831 -0.623490 1.000000 0.781831 0.623490 0.000000
-0.623490 -0.781831 1.000000 0.623490 0.781831 0.000000
-0.433884 -0.900969 1.000000 0.433884 0.900969 0.000000
-0.222521 -0.974928 1.000000 0.222521 0.974928 0.000000
-0.000000 -1.000000 1.000000 0.000000 1.000000 0.000000
0.222521 -0.974928 1.000000 -0.222521 0.974928 0.000000
0.433884 -0.900969 1.000000 -0.433884 0.900969 0.000000
0.623490 -0.781831 1.000000 -0.623490 0.781831 0.000000
0.781831 -0.623490 1.000000 -0.781831 0.623490 0.000000
0.900969 -0.433884 1.000000 -0.900969 0.433884 0.000000
0.974928 -0.222521 1.000000 -0.974928 0.222521 0.000000
0.987688 0.000000 0.843566 -0.987686 -0.000457 0.156446
0.962925 0.219781 0.843566 -0.962821 -0.220226 0.156446
0.889876 0.428542 0.843566 -0.889676 -0.428953 0.156446
0.772206 0.615814 0.843566 -0.771920 -0.616170 0.156446
0.615814 0.772206 0.843566 -0.615455 -0.772489 0.156446
0.428542 0.889876 0.843566 -0.428130 -0.890073 0.156446
0.219781 0.962925 0.843566 -0.219336 -0.963025 0.156446
0.000000 0.987688 0.843566 0.000457 -0.987686 0.156446
-0.219781 0.962925 0.843566 0.220226 -0.962821 0.156446
-0.428542 0.889876 0.843566 0.428953 -0.889676 0.156446
-0.615814 0.772206 0.843566 0.616170 -0.771920 0.156446
-0.772206 0.615814 0.843566 0.772489 -0.615455 0.156446
-0.889876 0.428542 0.843566 0.890073 -0.428130 0.156446
-0.962925 0.219781 0.843566 0.963025 -0.219336 0.156446
-0.987688 0.000000 0.843566 0.987686 0.000457 0.156446
-0.962925 -0.219781 0.843566 0.962821 0.220226 0.156446
-0.889876 -0.428542 0.843566 0.889676 0.428953 0.156446
-0.772206 -0.615814 0.843566 0.771920 0.616170 0.156446
-0.615814 -0.772206 0.843566 0.615455 0.772489 0.156446
-0.428542 -0.889876 0.843566 0.428130 0.890073 0.156446
-0.219781 -0.962925 0.843566 0.219336 0.963025 0.156446
-0.000000 -0.987688 0.843566 -0.000457 0.987686 0.156446
0.219781 -0.962925 0.843566 -0.220226 0.962821 0.156446
0.428542 -0.889876 0.843566 -0.428953 0.889676 0.156446
0.615814 -0.772206 0.843566 -0.616170 0.771920 0.156446
0.772206 -0.615814 0.843566 -0.772489 0.615455 0.156446
0.889876 -0.428542 0.843566 -0.890073 0.428130 0.156446
0.962925 -0.219781 0.843566 -0.963025 0.219336 0.156446
0.951057 0.000000 0.690983 -0.951049 -0.000903 0.309038
0.927212 0.211630 0.690983 -0.927003 -0.212509 0.309038
0.856872 0.412648 0.690983 -0.856474 -0.413458 0.309038
0.743566 0.592974 0.690983 -0.742997 -0.593675 0.309038
0.592974 0.743566 0.690983 -0.592263 -0.744123 0.309038
0.412648 0.856872 0.690983 -0.411831 -0.857257 0.309038
0.211630 0.927212 0.690983 -0.210748 -0.927405 0.309038
0.000000 0.951057 0.690983 0.000903 -0.951049 0.309038
-0.211630 0.927212 0.690983 0.212509 -0.927003 0.309038
-0.412648 0.856872 0.690983 0.413458 -0.856474 0.309038
-0.592974 0.743566 0.690983 0.593675 -0.742997 0.309038
-0.743566 0.592974 0.690983 0.744123 -0.592263 0.309038
-0.856872 0.412648 0.690983 0.857257 -0.411831 0.309038
-0.927212 0.211630 0.690983 0.927405 -0.210748 0.309038
-0.951057 0.000000 0.690983 0.951049 0.000903 0.309038
-0.927212 -0.211630 0.690983 0.927003 0.212509 0.309038
-0.856872 -0.412648 0.690983 0.856474 0.413458 0.309038
-0.743566 -0.592974 0.690983 0.742997 0.593675 0.309038
-0.592974 -0.743566 0.690983 0.592263 0.744123 0.309038
-0.412648 -0.856872 0.690983 0.411831 0.857257 0.309038
-0.211630 -0.927212 0.690983 0.210748 0.927405 0.309038
-0.000000 -0.951057 0.690983 -0.000903 0.951049 0.309038
0.211630 -0.927212 0.690983 -0.212509 0.927003 0.309038
0.412648 -0.856872 0.690983 -0.413458 0.856474 0.309038
0.592974 -0.743566 0.690983 -0.593675 0.742997 0.309038
0.743566 -0.592974 0.690983 -0.744123 0.592263 0.309038
0.856872 -0.412648 0.690983 -0.857257 0.411831 0.309038
0.927212 -0.211630 0.690983 -0.927405 0.210748 0.309038
0.891007 0.000000 0.546010 -0.890992 -0.001329 0.454018
0.868667 0.198268 0.546010 -0.868357 -0.199560 0.454018
0.802769 0.386593 0.546010 -0.802179 -0.387784 0.454018
0.696617 0.555533 0.546010 -0.695777 -0.556563 0.454018
0.555533 0.696617 0.546010 -0.554485 -0.697434 0.454018
0.386593 0.802769 0.546010 -0.385390 -0.803332 0.454018
0.198268 0.868667 0.546010 -0.196969 -0.868948 0.454018
0.000000 0.891007 0.546010 0.001329 -0.890992 0.454018
-0.198268 0.868667 0.546010 0.199560 -0.868357 0.454018
-0.386593 0.802769 0.546010 0.387784 -0.802179 0.454018
-0.555533 0.696617 0.546010 0.556563 -0.695777 0.454018
-0.696617 0.555533 0.546010 0.697434 -0.554485 0.454018
-0.802769 0.386593 0.546010 0.803332 -0.385390 0.454018
-0.868667 0.198268 0.546010 0.868948 -0.196969 0.454018
-0.891007 0.000000 0.546010 0.890992 0.001329 0.454018
-0.868667 -0.198268 0.546010 0.868357 0.199560 0.454018
-0.802769 -0.386593 0.546010 0.802179 0.387784 0.454018
-0.696617 -0.555533 0.546010 0.695777 0.556563 0.454018
-0.555533 -0.696617 0.546010 0.554485 0.697434 0.454018
-0.386593 -0.802769 0.546010 0.385390 0.803332 0.454018
-0.198268 -0.868667 0.546010 0.196969 0.868948 0.454018
-0.000000 -0.891007 0.546010 -0.001329 0.890992 0.454018
0.198268 -0.868667 0.546010 -0.199560 0.868357 0.454018
0.386593 -0.802769 0.546010 -0.387784 0.802179 0.454018
0.555533 -0.696617 0.546010 -0.556563 0.695777 0.454018
0.696617 -0.555533 0.546010 -0.697434 0.554485 0.454018
0.802769 -0.386593 0.546010 -0.803332 0.385390 0.454018
0.868667 -0.198268 0.546010 -0.868948 0.196969 0.454018
0.809017 0.000000 0.412215 -0.808994 -0.001723 0.587814
0.788733 0.180023 0.412215 -0.788328 -0.181698 0.587814
0.728899 0.351019 0.412215 -0.728131 -0.352562 0.587814
0.632515 0.504414 0.412215 -0.631423 -0.505747 0.587814
0.504414 0.632515 0.412215 -0.503052 -0.633571 0.587814
0.351019 0.728899 0.412215 -0.349457 -0.729626 0.587814
0.180023 0.788733 0.412215 -0.178338 -0.789094 0.587814
0.000000 0.809017 0.412215 0.001723 -0.808994 0.587814
-0.180023 0.788733 0.412215 0.181698 -0.788328 0.587814
-0.351019 0.728899 0.412215 0.352562 -0.728131 0.587814
-0.504414 0.632515 0.412215 0.505747 -0.631423 0.587814
-0.632515 0.504414 0.412215 0.633571 -0.503052 0.587814
-0.728899 0.351019 0.412215 0.729626 -0.349457 0.587814
-0.788733 0.180023 0.412215 0.789094 -0.178338 0.587814
-0.809017 0.000000 0.412215 0.808994 0.001723 0.587814
-0.788733 -0.180023 0.412215 0.788328 0.181698 0.587814
-0.728899 -0.351019 0.412215 0.728131 0.352562 0.587814
-0.632515 -0.504414 0.412215 0.631423 0.505747 0.587814
-0.504414 -0.632515 0.412215 0.503052 0.633571 0.587814
-0.351019 -0.728899 0.412215 0.349457 0.729626 0.587814
-0.180023 -0.788733 0.412215 0.178338 0.789094 0.587814
-0.000000 -0.809017 0.412215 -0.001723 0.808994 0.587814
0.180023 -0.788733 0.412215 -0.181698 0.788328 0.587814
0.351019 -0.728899 0.412215 -0.352562 0.728131 0.587814
0.504414 -0.632515 0.412215 -0.505747 0.631423 0.587814
0.632515 -0.504414 0.412215 -0.633571 0.503052 0.587814
0.728899 -0.351019 0.412215 -0.729626 0.349457 0.587814
0.788733 -0.180023 0.412215 -0.789094 0.178338 0.587814
0.707107 0.000000 0.292893 -0.707078 -0.002077 0.707133
0.689378 0.157346 0.292893 -0.688888 -0.159365 0.707133
0.637081 0.306802 0.292893 -0.636154 -0.308661 0.707133
0.552838 0.440874 0.292893 -0.551521 -0.442480 0.707133
0.440874 0.552838 0.292893 -0.439232 -0.554111 0.707133
0.306802 0.637081 0.292893 -0.304918 -0.637956 0.707133
0.157346 0.689378 0.292893 -0.155315 -0.689812 0.707133
0.000000 0.707107 0.292893 0.002077 -0.707078 0.707133
-0.157346 0.689378 0.292893 0.159365 -0.688888 0.707133
-0.306802 0.637081 0.292893 0.308661 -0.636154 0.707133
-0.440874 0.552838 0.292893 0.442480 -0.551521 0.707133
-0.552838 0.440874 0.292893 0.554111 -0.439232 0.707133
-0.637081 0.306802 0.292893 0.637956 -0.304918 0.707133
-0.689378 0.157346 0.292893 0.689812 -0.155315 0.707133
-0.707107 0.000000 0.292893 0.707078 0.002077 0.707133
-0.689378 -0.157346 0.292893 0.688888 0.159365 0.707133
-0.637081 -0.306802 0.292893 0.636154 0.308661 0.707133
-0.552838 -0.440874 0.292893 0.551521 0.442480 0.707133
-0.440874 -0.552838 0.292893 0.439232 0.554111 0.707133
-0.306802 -0.637081 0.292893 0.304918 0.637956 0.707133
-0.157346 -0.689378 0.292893 0.155315 0.689812 0.707133
-0.000000 -0.707107 0.292893 -0.002077 0.707078 0.707133
0.157346 -0.689378 0.292893 -0.159365 0.688888 0.707133
0.306802 -0.637081 0.292893 -0.308661 0.636154 0.707133
0.440874 -0.552838 0.292893 -0.442480 0.551521 0.707133
0.552838 -0.440874 0.292893 -0.554111 0.439232 0.707133
0.637081 -0.306802 0.292893 -0.637956 0.304918 0.707133
0.689378 -0.157346 0.292893 -0.689812 0.155315 0.707133
0.587785 0.000000 0.190983 -0.587754 -0.002381 0.809036
0.573048 0.130795 0.190983 -0.572488 -0.133109 0.809036
0.529576 0.255030 0.190983 -0.528515 -0.257162 0.809036
0.459549 0.366478 0.190983 -0.458040 -0.368320 0.809036
0.366478 0.459549 0.190983 -0.364597 -0.461009 0.809036
0.255030 0.529576 0.190983 -0.252872 -0.530581 0.809036
0.130795 0.573048 0.190983 -0.128466 -0.573547 0.809036
0.000000 0.587785 0.190983 0.002381 -0.587754 0.809036
-0.130795 0.573048 0.190983 0.133109 -0.572488 0.809036
-0.255030 0.529576 0.190983 0.257162 -0.528515 0.809036
-0.366478 0.459549 0.190983 0.368320 -0.458040 0.809036
-0.459549 0.366478 0.190983 0.461009 -0.364597 0.809036
-0.529576 0.255030 0.190983 0.530581 -0.252872 0.809036
-0.573048 0.130795 0.190983 0.573547 -0.128466 0.809036
-0.587785 0.000000 0.190983 0.587754 0.002381 0.809036
-0.573048 -0.130795 0.190983 0.572488 0.133109 0.809036
-0.529576 -0.255030 0.190983 0.528515 0.257162 0.809036
-0.459549 -0.366478 0.190983 0.458040 0.368320 0.809036
-0.366478 -0.459549 0.190983 0.364597 0.461009 0.809036
-0.255030 -0.529576 0.190983 0.252872 0.530581 0.809036
-0.130795 -0.573048 0.190983 0.128466 0.573547 0.809036
-0.000000 -0.587785 0.190983 -0.002381 0.587754 0.809036
0.130795 -0.573048 0.190983 -0.133109 0.572488 0.809036
0.255030 -0.529576 0.190983 -0.257162 0.528515 0.809036
0.366478 -0.459549 0.190983 -0.368320 0.458040 0.809036
0.459549 -0.366478 0.190983 -0.461009 0.364597 0.809036
0.529576 -0.255030 0.190983 -0.530581 0.252872 0.809036
0.573048 -0.130795 0.190983 -0.573547 0.128466 0.809036
0.453990 0.000000 0.108993 -0.453961 -0.002627 0.891018
0.442608 0.101022 0.108993 -0.441995 -0.103577 0.891018
0.409031 0.196979 0.108993 -0.407865 -0.199333 0.891018
0.354944 0.283058 0.108993 -0.353283 -0.285094 0.891018
0.283058 0.354944 0.108993 -0.280986 -0.356559 0.891018
0.196979 0.409031 0.108993 -0.194600 -0.410144 0.891018
0.101022 0.442608 0.108993 -0.098455 -0.443164 0.891018
0.000000 0.453990 0.108993 0.002627 -0.453961 0.891018
-0.101022 0.442608 0.108993 0.103577 -0.441995 0.891018
-0.196979 0.409031 0.108993 0.199333 -0.407865 0.891018
-0.283058 0.354944 0.108993 0.285094 -0.353283 0.891018
-0.354944 0.283058 0.108993 0.356559 -0.280986 0.891018
-0.409031 0.196979 0.108993 0.410144 -0.194600 0.891018
-0.442608 0.101022 0.108993 0.443164 -0.098455 0.891018
-0.453990 0.000000 0.108993 0.453961 0.002627 0.891018
-0.442608 -0.101022 0.108993 0.441995 0.103577 0.891018
-0.409031 -0.196979 0.108993 0.407865 0.199333 0.891018
-0.354944 -0.283058 0.108993 0.353283 0.285094 0.891018
-0.283058 -0.354944 0.108993 0.280986 0.356559 0.891018
-0.196979 -0.409031 0.108993 0.194600 0.410144 0.891018
-0.101022 -0.442608 0.108993 0.098455 0.443164 0.891018
-0.000000 -0.453990 0.108993 -0.002627 0.453961 0.891018
0.101022 -0.442608 0.108993 -0.103577 0.441995 0.891018
0.196979 -0.409031 0.108993 -0.199333 0.407865 0.891018
0.283058 -0.354944 0.108993 -0.285094 0.353283 0.891018
0.354944 -0.283058 0.108993 -0.356559 0.280986 0.891018
0.409031 -0.196979 0.108993 -0.410144 0.194600 0.891018
0.442608 -0.101022 0.108993 -0.443164 0.098455 0.891018
0.309017 0.000000 0.048943 -0.308994 -0.002808 0.951060
0.301269 0.068763 0.048943 -0.300622 -0.071495 0.951060
0.278415 0.134077 0.048943 -0.277176 -0.136597 0.951060
0.241599 0.192669 0.048943 -0.239831 -0.194850 0.951060
0.192669 0.241599 0.048943 -0.190459 -0.243332 0.951060
0.134077 0.278415 0.048943 -0.131538 -0.279612 0.951060
0.068763 0.301269 0.048943 -0.066020 -0.301872 0.951060
0.000000 0.309017 0.048943 0.002808 -0.308994 0.951060
-0.068763 0.301269 0.048943 0.071495 -0.300622 0.951060
-0.134077 0.278415 0.048943 0.136597 -0.277176 0.951060
-0.192669 0.241599 0.048943 0.194850 -0.239831 0.951060
-0.241599 0.192669 0.048943 0.243332 -0.190459 0.951060
-0.278415 0.134077 0.048943 0.279612 -0.131538 0.951060
-0.301269 0.068763 0.048943 0.301872 -0.066020 0.951060
-0.309017 0.000000 0.048943 0.308994 0.002808 0.951060
-0.301269 -0.068763 0.048943 0.300622 0.071495 0.951060
-0.278415 -0.134077 0.048943 0.277176 0.136597 0.951060
-0.241599 -0.192669 0.048943 0.239831 0.194850 0.951060
-0.192669 -0.241599 0.048943 0.190459 0.243332 0.951060
-0.134077 -0.278415 0.048943 0.131538 0.279612 0.951060
-0.068763 -0.301269 0.048943 0.066020 0.301872 0.951060
-0.000000 -0.309017 0.048943 -0.002808 0.308994 0.951060
0.068763 -0.301269 0.048943 -0.071495 0.300622 0.951060
0.134077 -0.278415 0.048943 -0.136597 0.277176 0.951060
0.192669 -0.241599 0.048943 -0.194850 0.239831 0.951060
0.241599 -0.192669 0.048943 -0.243332 0.190459 0.951060
0.278415 -0.134077 0.048943 -0.279612 0.131538 0.951060
0.301269 -0.068763 0.048943 -0.301872 0.066020 0.951060
0.156434 0.000000 0.012312 -0.171946 -0.005275 0.985092
0.152512 0.034810 0.012312 -0.166461 -0.043405 0.985092
0.140943 0.067874 0.012312 -0.152629 -0.079358 0.985092
0.122305 0.097535 0.012312 -0.131144 -0.111331 0.985092
0.097535 0.122305 0.012312 -0.103082 -0.137722 0.985092
0.067874 0.140943 0.012312 -0.069851 -0.157207 0.985092
0.034810 0.152512 0.012312 -0.033118 -0.168809 0.985092
0.000000 0.156434 0.012312 0.005275 -0.171946 0.985092
-0.034810 0.152512 0.012312 0.043405 -0.166461 0.985092
-0.067874 0.140943 0.012312 0.079358 -0.152629 0.985092
-0.097535 0.122305 0.012312 0.111331 -0.131144 0.985092
-0.122305 0.097535 0.012312 0.137722 -0.103082 0.985092
-0.140943 0.067874 0.012312 0.157207 -0.069851 0.985092
-0.152512 0.034810 0.012312 0.168809 -0.033118 0.985092
-0.156434 0.000000 0.012312 0.171946 0.005275 0.985092
-0.152512 -0.034810 0.012312 0.166461 0.043405 0.985092
-0.140943 -0.067874 0.012312 0.152629 0.079358 0.985092
-0.122305 -0.097535 0.012312 0.131144 0.111331 0.985092
-0.097535 -0.122305 0.012312 0.103082 0.137722 0.985092
-0.067874 -0.140943 0.012312 0.069851 0.157207 0.985092
-0.034810 -0.152512 0.012312 0.033118 0.168809 0.985092
-0.000000 -0.156434 0.012312 -0.005275 0.171946 0.985092
0.034810 -0.152512 0.012312 -0.043405 0.166461 0.985092
0.067874 -0.140943 0.012312 -0.079358 0.152629 0.985092
0.097535 -0.122305 0.012312 -0.111331 0.131144 0.985092
0.122305 -0.097535 0.012312 -0.137722 0.103082 0.985092
0.140943 -0.067874 0.012312 -0.157207 0.069851 0.985092
0.152512 -0.034810 0.012312 -0.168809 0.033118 0.985092
0.000000 0.000000 0.000000 -0.000000 -0.000000 1.000000
3 0 2 1
3 0 3 2
3 0 4 3
3 0 5 4
3 0 6 5
3 0 7 6
3 0 8 7
3 0 9 8
3 0 10 9
3 0 11 10
3 0 12 11
3 0 13 12
3 0 14 13
3 0 15 14
3 0 16 15
3 0 17 16
3 0 18 17
3 0 19 18
3 0 20 19
3 0 21 20
3 0 22 21
3 0 23 22
3 0 24 23
3 0 25 24
3 0 26 25
3 0 27 26
3 0 28 27
3 0 1 28
3 1 2 29
3 2 30 29
3 2 3 30
3 3 31 30
3 3 4 31
3 4 32 31
3 4 5 32
3 5 33 32
3 5 6 33
3 6 34 33
3 6 7 34
3 7 35 34
3 7 8 35
3 8 36 35
3 8 9 36
3 9 37 36
3 9 10 37
3 10 38 37
3 10 11 38
3 11 39 38
3 11 12 39
3 12 40 39
3 12 13 40
3 13 41 40
3 13 14 41
3 14 42 41
3 14 15 42
3 15 43 42
3 15 16 43
3 16 44 43
3 16 17 44
3 17 45 44
3 17 18 45
3 18 46 45
3 18 19 46
3 19 47 46
3 19 20 47
3 20 48 47
3 20 21 48
3 21 49 48
3 21 22 49
3 22 50 49
3 22 23 50
3 23 51 50
3 23 24 51
3 24 52 51
3 24 25 52
3 25 53 52
3 25 26 53
3 26 54 53
3 26 27 54
3 27 55 54
3 27 28 55
3 28 56 55
3 28 1 56
3 1 29 56
3 29 30 57
3 30 58 57
3 30 31 58
3 31 59 58
3 31 32 59
3 32 60 59
3 32 33 60
3 33 61 60
3 33 34 61
3 34 62 61
3 34 35 62
3 35 63 62
3 35 36 63
3 36 64 63
3 36 37 64
3 37 65 64
3 37 38 65
3 38 66 65
3 38 39 66
3 39 67 66
3 39 40 67
3 40 68 67
3 40 41 68
3 41 69 68
3 41 42 69
3 42 70 69
3 42 43 70
3 43 71 70
3 43 44 71
3 44 72 71
3 44 45 72
3 45 73 72
3 45 46 73
3 46 74 73
3 46 47 74
3 47 75 74
3 47 48 75
3 48 76 75
3 48 49 76
3 49 77 76
3 49 50 77
3 50 78 77
3 50 51 78
3 51 79 78
3 51 52 79
3 52 80 79
3 52 53 80
3 53 81 80
3 53 54 81
3 54 82 81
3 54 55 82
3 55 83 82
3 55 56 83
3 56 84 83
3 56 29 84
3 29 57 84
3 57 58 85
3 58 86 85
3 58 59 86
3 59 87 86
3 59 60 87
3 60 88 87
3 60 61 88
3 61 89 88
3 61 62 89
3 62 90 89
3 62 63 90
3 63 91 90
3 63 64 91
3 64 92 91
3 64 65 92
3 65 93 92
3 65 66 93
3 66 94 93
3 66 67 94
3 67 95 94
3 67 68 95
3 68 96 95
3 68 69 96
3 69 97 96
3 69 70 97
3 70 98 97
3 70 71 98
3 71 99 98
3 71 72 99
3 72 100 99
3 72 73 100
3 73 101 100
3 73 74 101
3 74 102 101
3 74 75 102
3 75 103 102
3 75 76 103
3 76 104 103
3 76 77 104
3 77 105 104
3 77 78 105
3 78 106 105
3 78 79 106
3 79 107 106
3 79 80 107
3 80 108 107
3 80 81 108
3 81 109 108
3 81 82 109
3 82 110 109
3 82 83 110
3 83 111 110
3 83 84 111
3 84 112 111
3 84 57 112
3 57 85 112
3 85 86 113
3 86 114 113
3 86 87 114
3 87 115 114
3 87 88 115
3 88 116 115
3 88 89 116
3 89 117 116
3 89 90 117
3 90 118 117
3 90 91 118
3 91 119 118
3 91 92 119
3 92 120 119
3 92 93 120
3 93 121 120
3 93 94 121
3 94 122 121
3 94 95 122
3 95 123 122
3 95 96 123
3 96 124 123
3 96 97 124
3 97 125 124
3 97 98 125
3 98 126 125
3 98 99 126
3 99 127 126
3 99 100 127
3 100 128 127
3 100 101 128
3 101 129 128
3 101 102 129
3 102 130 129
3 102 103 130
3 103 131 130
3 103 104 131
3 104 132 131
3 104 105 132
3 105 133 132
3 105 106 133
3 106 134 133
3 106 107 134
3 107 135 134
3 107 108 135
3 108 136 135
3 108 109 136
3 109 137 136
3 109 110 137
3 110 138 137
3 110 111 138
3 111 139 138
3 111 112 139
3 112 140 139
3 112 85 140
3 85 113 140
3 113 114 141
3 114 142 141
3 114 115 142
3 115 143 142
3 115 116 143
3 116 144 143
3 116 117 144
3 117 145 144
3 117 118 145
3 118 146 145
3 118 119 146
3 119 147 146
3 119 120 147
3 120 148 147
3 120 121 148
3 121 149 148
3 121 122 149
3 122 150 149
3 122 123 150
3 123 151 150
3 123 124 151
3 124 152 151
3 124 125 152
3 125 153 152
3 125 126 153
3 126 154 153
3 126 127 154
3 127 155 154
3 127 128 155
3 128 156 155
3 128 129 156
3 129 157 156
3 129 130 157
3 130 158 157
3 130 131 158
3 131 159 158
3 131 132 159
3 132 160 159
3 132 133 160
3 133 161 160
3 133 134 161
3 134 162 161
3 134 135 162
3 135 163 162
3 135 136 163
3 136 164 163
3 136 137 164
3 137 165 164
3 137 138 165
3 138 166 165
3 138 139 166
3 139 167 166
3 139 140 167
3 140 168 167
3 140 113 168
3 113 141 168
3 141 142 169
3 142 170 169
3 142 143 170
3 143 171 170
3 143 144 171
3 144 172 171
3 144 145 172
3 145 173 172
3 145 146 173
3 146 174 173
3 146 147 174
3 147 175 174
3 147 148 175
3 148 176 175
3 148 149 176
3 149 177 176
3 149 150 177
3 150 178 177
3 150 151 178
3 151 179 178
3 151 152 179
3 152 180 179
3 152 153 180
3 153 181 180
3 153 154 181
3 154 182 181
3 154 155 182
3 155 183 182
3 155 156 183
3 156 184 183
3 156 157 184
3 157 185 184
3 157 158 185
3 158 186 185
3 158 159 186
3 159 187 186
3 159 160 187
3 160 188 187
3 160 161 188
3 161 189 188
3 161 162 189
3 162 190 189
3 162 163 190
3 163 191 190
3 163 164 191
3 164 192 191
3 164 165 192
3 165 193 192
3 165 166 193
3 166 194 193
3 166 167 194
3 167 195 194
3 167 168 195
3 168 196 195
3 168 141 196
3 141 169 196
3 169 170 197
3 170 198 197
3 170 171 198
3 171 199 198
3 171 172 199
3 172 200 199
3 172 173 200
3 173 201 200
3 173 174 201
3 174 202 201
3 174 175 202
3 175 203 202
3 175 176 203
3 176 204 203
3 176 177 204
3 177 205 204
3 177 178 205
3 178 206 205
3 178 179 206
3 179 207 206
3 179 180 207
3 180 208 207
3 180 181 208
3 181 209 208
3 181 182 209
3 182 210 209
3 182 183 210
3 183 211 210
3 183 184 211
3 184 212 211
3 184 185 212
3 185 213 212
3 185 186 213
3 186 214 213
3 186 187 214
3 187 215 214
3 187 188 215
3 188 216 215
3 188 189 216
3 189 217 216
3 189 190 217
3 190 218 217
3 190 191 218
3 191 219 218
3 191 192 219
3 192 220 219
3 192 193 220
3 193 221 220
3 193 194 221
3 194 222 221
3 194 195 222
3 195 223 222
3 195 196 223
3 196 224 223
3 196 169 224
3 169 197 224
3 197 198 225
3 198 226 225
3 198 199 226
3 199 227 226
3 199 200 227
3 200 228 227
3 200 201 228
3 201 229 228
3 201 202 229
3 202 230 229
3 202 203 230
3 203 231 230
3 203 204 231
3 204 232 231
3 204 205 232
3 205 233 232
3 205 206 233
3 206 234 233
3 206 207 234
3 207 235 234
3 207 208 235
3 208 236 235
3 208 209 236
3 209 237 236
3 209 210 237
3 210 238 237
3 210 211 238
3 211 239 238
3 211 212 239
3 212 240 239
3 212 213 240
3 213 241 240
3 213 214 241
3 214 242 241
3 214 215 242
3 215 243 242
3 215 216 243
3 216 244 243
3 216 217 244
3 217 245 244
3 217 218 245
3 218 246 245
3 218 219 246
3 219 247 246
3 219 220 247
3 220 248 247
3 220 221 248
3 221 249 248
3 221 222 249
3 222 250 249
3 222 223 250
3 223 251 250
3 223 224 251
3 224 252 251
3 224 197 252
3 197 225 252
3 225 226 253
3 226 254 253
3 226 227 254
3 227 255 254
3 227 228 255
3 228 256 255
3 228 229 256
3 229 257 256
3 229 230 257
3 230 258 257
3 230 231 258
3 231 259 258
3 231 232 259
3 232 260 259
3 232 233 260
3 233 261 260
3 233 234 261
3 234 262 261
3 234 235 262
3 235 263 262
3 235 236 263
3 236 264 263
3 236 237 264
3 237 265 264
3 237 238 265
3 238 266 265
3 238 239 266
3 239 267 266
3 239 240 267
3 240 268 267
3 240 241 268
3 241 269 268
3 241 242 269
3 242 270 269
3 242 243 270
3 243 271 270
3 243 244 271
3 244 272 271
3 244 245 272
3 245 273 272
3 245 246 273
3 246 274 273
3 246 247 274
3 247 275 274
3 247 248 275
3 248 276 275
3 248 249 276
3 249 277 276
3 249 250 277
3 250 278 277
3 250 251 278
3 251 279 278
3 251 252 279
3 252 280 279
3 252 225 280
3 225 253 280
3 253 254 281
3 254 282 281
3 254 255 282
3 255 283 282
3 255 256 283
3 256 284 283
3 256 257 284
3 257 285 284
3 257 258 285
3 258 286 285
3 258 259 286
3 259 287 286
3 259 260 287
3 260 288 287
3 260 261 288
3 261 289 288
3 261 262 289
3 262 290 289
3 262 263 290
3 263 291 290
3 263 264 291
3 264 292 291
3 264 265 292
3 265 293 292
3 265 266 293
3 266 294 293
3 266 267 294
3 267 295 294
3 267 268 295
3 268 296 295
3 268 269 296
3 269 297 296
3 269 270 297
3 270 298 297
3 270 271 298
3 271 299 298
3 271 272 299
3 272 300 299
3 272 273 300
3 273 301 300
3 273 274 301
3 274 302 301
3 274 275 302
3 275 303 302
3 275 276 303
3 276 304 303
3 276 277 304
3 277 305 304
3 277 278 305
3 278 306 305
3 278 279 306
3 279 307 306
3 279 280 307
3 280 308 307
3 280 253 308
3 253 281 308
3 281 282 309
3 282 310 309
3 282 283 310
3 283 311 310
3 283 284 311
3 284 312 311
3 284 285 312
3 285 313 312
3 285 286 313
3 286 314 313
3 286 287 314
3 287 315 314
3 287 288 315
3 288 316 315
3 288 289 316
3 289 317 316
3 289 290 317
3 290 318 317
3 290 291 318
3 291 319 318
3 291 292 319
3 292 320 319
3 292 293 320
3 293 321 320
3 293 294 321
3 294 322 321
3 294 295 322
3 295 323 322
3 295 296 323
3 296 324 323
3 296 297 324
3 297 325 324
3 297 298 325
3 298 326 325
3 298 299 326
3 299 327 326
3 299 300 327
3 300 328 327
3 300 301 328
3 301 329 328
3 301 302 329
3 302 330 329
3 302 303 330
3 303 331 330
3 303 304 331
3 304 332 331
3 304 305 332
3 305 333 332
3 305 306 333
3 306 334 333
3 306 307 334
3 307 335 334
3 307 308 335
3 308 336 335
3 308 281 336
3 281 309 336
3 309 310 337
3 310 338 337
3 310 311 338
3 311 339 338
3 311 312 339
3 312 340 339
3 312 313 340
3 313 341 340
3 313 314 341
3 314 342 341
3 314 315 342
3 315 343 342
3 315 316 343
3 316 344 343
3 316 317 344
3 317 345 344
3 317 318 345
3 318 346 345
3 318 319 346
3 319 347 346
3 319 320 347
3 320 348 347
3 320 321 348
3 321 349 348
3 321 322 349
3 322 350 349
3 322 323 350
3 323 351 350
3 323 324 351
3 324 352 351
3 324 325 352
3 325 353 352
3 325 326 353
3 326 354 353
3 326 327 354
3 327 355 354
3 327 328 355
3 328 356 355
3 328 329 356
3 329 357 356
3 329 330 357
3 330 358 357
3 330 331 358
3 331 359 358
3 331 332 359
3 332 360 359
3 332 333 360
3 333 361 360
3 333 334 361
3 334 362 361
3 334 335 362
3 335 363 362
3 335 336 363
3 336 364 363
3 336 309 364
3 309 337 364
3 337 338 365
3 338 366 365
3 338 339 366
3 339 367 366
3 339 340 367
3 340 368 367
3 340 341 368
3 341 369 368
3 341 342 369
3 342 370 369
3 342 343 370
3 343 371 370
3 343 344 371
3 344 372 371
3 344 345 372
3 345 373 372
3 345 346 373
3 346 374 373
3 346 347 374
3 347 375 374
3 347 348 375
3 348 376 375
3 348 349 376
3 349 377 376
3 349 350 377
3 350 378 377
3 350 351 378
3 351 379 378
3 351 352 379
3 352 380 379
3 352 353 380
3 353 381 380
3 353 354 381
3 354 382 381
3 354 355 382
3 355 383 382
3 355 356 383
3 356 384 383
3 356 357 384
3 357 385 384
3 357 358 385
3 358 386 385
3 358 359 386
3 359 387 386
3 359 360 387
3 360 388 387
3 360 361 388
3 361 389 388
3 361 362 389
3 362 390 389
3 362 363 390
3 363 391 390
3 363 364 391
3 364 392 391
3 364 337 392
3 337 365 392
3 365 366 393
3 366 394 393
3 366 367 394
3 367 395 394
3 367 368 395
3 368 396 395
3 368 369 396
3 369 397 396
3 369 370 397
3 370 398 397
3 370 371 398
3 371 399 398
3 371 372 399
3 372 400 399
3 372 373 400
3 373 401 400
3 373 374 401
3 374 402 401
3 374 375 402
3 375 403 402
3 375 376 403
3 376 404 403
3 376 377 404
3 377 405 404
3 377 378 405
3 378 406 405
3 378 379 406
3 379 407 406
3 379 380 407
3 380 408 407
3 380 381 408
3 381 409 408
3 381 382 409
3 382 410 409
3 382 383 410
3 383 411 410
3 383 384 411
3 384 412 411
3 384 385 412
3 385 413 412
3 385 386 413
3 386 414 413
3 386 387 414
3 387 415 414
3 387 388 415
3 388 416 415
3 388 389 416
3 389 417 416
3 389 390 417
3 390 418 417
3 390 391 418
3 391 419 418
3 391 392 419
3 392 420 419
3 392 365 420
3 365 393 420
3 393 394 421
3 394 422 421
3 394 395 422
3 395 423 422
3 395 396 423
3 396 424 423
3 396 397 424
3 397 425 424
3 397 398 425
3 398 426 425
3 398 399 426
3 399 427 426
3 399 400 427
3 400 428 427
3 400 401 428
3 401 429 428
3 401 402 429
3 402 430 429
3 402 403 430
3 403 431 430
3 403 404 431
3 404 432 431
3 404 405 432
3 405 433 432
3 405 406 433
3 406 434 433
3 406 407 434
3 407 435 434
3 407 408 435
3 408 436 435
3 408 409 436
3 409 437 436
3 409 410 437
3 410 438 437
3 410 411 438
3 411 439 438
3 411 412 439
3 412 440 439
3 412 413 440
3 413 441 440
3 413 414 441
3 414 442 441
3 414 415 442
3 415 443 442
3 415 416 443
3 416 444 443
3 416 417 444
3 417 445 444
3 417 418 445
3 418 446 445
3 418 419 446
3 419 447 446
3 419 420 447
3 420 448 447
3 420 393 448
3 393 421 448
3 421 422 449
3 422 450 449
3 422 423 450
3 423 451 450
3 423 424 451
3 424 452 451
3 424 425 452
3 425 453 452
3 425 426 453
3 426 454 453
3 426 427 454
3 427 455 454
3 427 428 455
3 428 456 455
3 428 429 456
3 429 457 456
3 429 430 457
3 430 458 457
3 430 431 458
3 431 459 458
3 431 432 459
3 432 460 459
3 432 433 460
3 433 461 460
3 433 434 461
3 434 462 461
3 434 435 462
3 435 463 462
3 435 436 463
3 436 464 463
3 436 437 464
3 437 465 464
3 437 438 465
3 438 466 465
3 438 439 466
3 439 467 466
3 439 440 467
3 440 468 467
3 440 441 468
3 441 469 468
3 441 442 469
3 442 470 469
3 442 443 470
3 443 471 470
3 443 444 471
3 444 472 471
3 444 445 472
3 445 473 472
3 445 446 473
3 446 474 473
3 446 447 474
3 447 475 474
3 447 448 475
3 448 476 475
3 448 421 476
3 421 449 476
3 449 450 477
3 450 478 477
3 450 451 478
3 451 479 478
3 451 452 479
3 452 480 479
3 452 453 480
3 453 481 480
3 453 454 481
3 454 482 481
3 454 455 482
3 455 483 482
3 455 456 483
3 456 484 483
3 456 457 484
3 457 485 484
3 457 458 485
3 458 486 485
3 458 459 486
3 459 487 486
3 459 460 487
3 460 488 487
3 460 461 488
3 461 489 488
3 461 462 489
3 462 490 489
3 462 463 490
3 463 491 490
3 463 464 491
3 464 492 491
3 464 465 492
3 465 493 492
3 465 466 493
3 466 494 493
3 466 467 494
3 467 495 494
3 467 468 495
3 468 496 495
3 468 469 496
3 469 497 496
3 469 470 497
3 470 498 497
3 470 471 498
3 471 499 498
3 471 472 499
3 472 500 499
3 472 473 500
3 473 501 500
3 473 474 501
3 474 502 501
3 474 475 502
3 475 503 502
3 475 476 503
3 476 504 503
3 476 449 504
3 449 477 504
3 477 478 505
3 478 506 505
3 478 479 506
3 479 507 506
3 479 480 507
3 480 508 507
3 480 481 508
3 481 509 508
3 481 482 509
3 482 510 509
3 482 483 510
3 483 511 510
3 483 484 511
3 484 512 511
3 484 485 512
3 485 513 512
3 485 486 513
3 486 514 513
3 486 487 514
3 487 515 514
3 487 488 515
3 488 516 515
3 488 489 516
3 489 517 516
3 489 490 517
3 490 518 517
3 490 491 518
3 491 519 518
3 491 492 519
3 492 520 519
3 492 493 520
3 493 521 520
3 493 494 521
3 494 522 521
3 494 495 522
3 495 523 522
3 495 496 523
3 496 524 523
3 496 497 524
3 497 525 524
3 497 498 525
3 498 526 525
3 498 499 526
3 499 527 526
3 499 500 527
3 500 528 527
3 500 501 528
3 501 529 528
3 501 502 529
3 502 530 529
3 502 503 530
3 503 531 530
3 503 504 531
3 504 532 531
3 504 477 532
3 477 505 532
3 505 506 533
3 506 507 533
3 507 508 533
3 508 509 533
3 509 510 533
3 510 511 533
3 511 512 533
3 512 513 533
3 513 514 533
3 514 515 533
3 515 516 533
3 516 517 533
3 517 518 533
3 518 519 533
3 519 520 533
3 520 521 533
3 521 522 533
3 522 523 533
3 523 524 533
3 524 525 533
3 525 526 533
3 526 527 533
3 527 528 533
3 528 529 533
3 529 530 533
3 530 531 533
3 531 532 533
3 532 505 533
