ply
format ascii 1.0
element vertex 114
property float x
property float y
property float z
property float nx
property float ny
property float nz
element face 184
property list uchar int vertex_indices
end_header
0.200000 0.000000 0.000000 0.815655 -0.088341 -0.571754
0.161803 0.117557 0.000000 0.711804 0.407961 -0.571754
0.061803 0.190211 0.000000 0.336068 0.748435 -0.571754
-0.061803 0.190211 0.000000 -0.168034 0.803033 -0.571754
-0.161803 0.117557 0.000000 -0.607954 0.550899 -0.571754
-0.200000 0.000000 0.000000 -0.815655 0.088341 -0.571754
-0.161803 -0.117557 0.000000 -0.711804 -0.407961 -0.571754
-0.061803 -0.190211 0.000000 -0.336068 -0.748435 -0.571754
0.061803 -0.190211 0.000000 0.168034 -0.803033 -0.571754
0.161803 -0.117557 0.000000 0.607954 -0.550899 -0.571754
0.200000 0.000000 1.200000 0.815655 0.088341 0.571754
0.161803 0.117557 1.200000 0.607954 0.550899 0.571754
0.061803 0.190211 1.200000 0.168034 0.803033 0.571754
-0.061803 0.190211 1.200000 -0.336068 0.748435 0.571754
-0.161803 0.117557 1.200000 -0.711804 0.407961 0.571754
-0.200000 0.000000 1.200000 -0.815655 -0.088341 0.571754
-0.161803 -0.117557 1.200000 -0.607954 -0.550899 0.571754
-0.061803 -0.190211 1.200000 -0.168034 -0.803033 0.571754
0.061803 -0.190211 1.200000 0.336068 -0.748435 0.571754
0.161803 -0.117557 1.200000 0.711804 -0.407961 0.571754
0.000000 0.000000 0.000000 0.000000 0.000000 -1.000000
0.000000 0.000000 1.200000 0.000000 0.000000 1.000000
0.000000 0.000000 1.300000 0.000000 0.000000 -1.000000
0.117557 0.000000 1.280902 -0.412146 0.037464 -0.910347
0.095106 0.069098 1.280902 -0.355454 -0.211944 -0.910347
0.036327 0.111803 1.280902 -0.162991 -0.380397 -0.910347
-0.036327 0.111803 1.280902 0.091730 -0.403551 -0.910347
-0.095106 0.069098 1.280902 0.311412 -0.272563 -0.910347
-0.117557 0.000000 1.280902 0.412146 -0.037464 -0.910347
-0.095106 -0.069098 1.280902 0.355454 0.211944 -0.910347
-0.036327 -0.111803 1.280902 0.162991 0.380397 -0.910347
0.036327 -0.111803 1.280902 -0.091730 0.403551 -0.910347
0.095106 -0.069098 1.280902 -0.311412 0.272563 -0.910347
0.190211 0.000000 1.230902 -0.880727 0.024882 -0.472970
0.153884 0.111803 1.230902 -0.727149 -0.497548 -0.472970
0.058779 0.180902 1.230902 -0.295824 -0.829932 -0.472970
-0.058779 0.180902 1.230902 0.248495 -0.845311 -0.472970
-0.153884 0.111803 1.230902 0.697898 -0.537809 -0.472970
-0.190211 0.000000 1.230902 0.880727 -0.024882 -0.472970
-0.153884 -0.111803 1.230902 0.727149 0.497548 -0.472970
-0.058779 -0.180902 1.230902 0.295824 0.829932 -0.472970
0.058779 -0.180902 1.230902 -0.248495 0.845311 -0.472970
0.153884 -0.111803 1.230902 -0.697898 0.537809 -0.472970
0.190211 0.000000 1.169098 -0.880727 -0.024882 0.472970
0.153884 0.111803 1.169098 -0.697898 -0.537809 0.472970
0.058779 0.180902 1.169098 -0.248495 -0.845311 0.472970
-0.058779 0.180902 1.169098 0.295824 -0.829932 0.472970
-0.153884 0.111803 1.169098 0.727149 -0.497548 0.472970
-0.190211 0.000000 1.169098 0.880727 0.024882 0.472970
-0.153884 -0.111803 1.169098 0.697898 0.537809 0.472970
-0.058779 -0.180902 1.169098 0.248495 0.845311 0.472970
0.058779 -0.180902 1.169098 -0.295824 0.829932 0.472970
0.153884 -0.111803 1.169098 -0.727149 0.497548 0.472970
0.117557 0.000000 1.119098 -0.412146 -0.037464 0.910347
0.095106 0.069098 1.119098 -0.311412 -0.272563 0.910347
0.036327 0.111803 1.119098 -0.091730 -0.403551 0.910347
-0.036327 0.111803 1.119098 0.162991 -0.380397 0.910347
-0.095106 0.069098 1.119098 0.355454 -0.211944 0.910347
-0.117557 0.000000 1.119098 0.412146 0.037464 0.910347
-0.095106 -0.069098 1.119098 0.311412 0.272563 0.910347
-0.036327 -0.111803 1.119098 0.091730 0.403551 0.910347
0.036327 -0.111803 1.119098 -0.162991 0.380397 0.910347
0.095106 -0.069098 1.119098 -0.355454 0.211944 0.910347
0.000000 0.000000 1.100000 -0.000000 0.000000 1.000000
-0.200000 0.000000 0.600000 0.000000 0.000000 0.000000
-0.229289 0.070711 0.600000 0.000000 0.000000 0.000000
-0.300000 0.100000 0.600000 0.000000 0.000000 0.000000
-0.370711 0.070711 0.600000 0.000000 0.000000 0.000000
-0.400000 0.000000 0.600000 0.000000 0.000000 -1.000000
-0.370711 -0.070711 0.600000 0.000000 0.000000 0.000000
-0.300000 -0.100000 0.600000 0.000000 0.000000 0.000000
-0.229289 -0.070711 0.600000 0.000000 0.000000 0.000000
-0.300000 0.000000 0.600000 0.805885 -0.111270 -0.581522
-0.329289 0.070711 0.600000 0.648526 0.491167 -0.581522
-0.400000 0.100000 0.600000 0.111270 0.805885 -0.581522
-0.470711 0.070711 0.600000 -0.491167 0.648526 -0.581522
-0.500000 0.000000 0.600000 -0.805885 0.111270 -0.581522
-0.470711 -0.070711 0.600000 -0.648526 -0.491167 -0.581522
-0.400000 -0.100000 0.600000 -0.111270 -0.805885 -0.581522
-0.329289 -0.070711 0.600000 0.491167 -0.648526 -0.581522
-0.300000 0.000000 1.100000 0.805885 0.111270 0.581522
-0.329289 0.070711 1.100000 0.491167 0.648526 0.581522
-0.400000 0.100000 1.100000 -0.111270 0.805885 0.581522
-0.470711 0.070711 1.100000 -0.648526 0.491167 0.581522
-0.500000 0.000000 1.100000 -0.805885 -0.111270 0.581522
-0.470711 -0.070711 1.100000 -0.491167 -0.648526 0.581522
-0.400000 -0.100000 1.100000 0.111270 -0.805885 0.581522
-0.329289 -0.070711 1.100000 0.648526 -0.491167 0.581522
-0.400000 0.000000 1.100000 0.000000 0.000000 1.000000
0.400000 0.000000 0.800000 0.000000 0.000000 -1.000000
0.370711 0.070711 0.800000 0.000000 0.000000 0.000000
0.300000 0.100000 0.800000 0.000000 0.000000 0.000000
0.229289 0.070711 0.800000 0.000000 0.000000 0.000000
0.200000 0.000000 0.800000 0.000000 0.000000 0.000000
0.229289 -0.070711 0.800000 0.000000 0.000000 0.000000
0.300000 -0.100000 0.800000 0.000000 0.000000 0.000000
0.370711 -0.070711 0.800000 0.000000 0.000000 0.000000
0.500000 0.000000 0.800000 0.805885 -0.111270 -0.581522
0.470711 0.070711 0.800000 0.648526 0.491167 -0.581522
0.400000 0.100000 0.800000 0.111270 0.805885 -0.581522
0.329289 0.070711 0.800000 -0.491167 0.648526 -0.581522
0.300000 0.000000 0.800000 -0.805885 0.111270 -0.581522
0.329289 -0.070711 0.800000 -0.648526 -0.491167 -0.581522
0.400000 -0.100000 0.800000 -0.111270 -0.805885 -0.581522
0.470711 -0.070711 0.800000 0.491167 -0.648526 -0.581522
0.500000 0.000000 1.300000 0.805885 0.111270 0.581522
0.470711 0.070711 1.300000 0.491167 0.648526 0.581522
0.400000 0.100000 1.300000 -0.111270 0.805885 0.581522
0.329289 0.070711 1.300000 -0.648526 0.491167 0.581522
0.300000 0.000000 1.300000 -0.805885 -0.111270 0.581522
0.329289 -0.070711 1.300000 -0.491167 -0.648526 0.581522
0.400000 -0.100000 1.300000 0.111270 -0.805885 0.581522
0.470711 -0.070711 1.300000 0.648526 -0.491167 0.581522
0.400000 0.000000 1.300000 0.000000 0.000000 1.000000
3 0 1 10
3 1 11 10
3 1 2 11
3 2 12 11
3 2 3 12
3 3 13 12
3 3 4 13
3 4 14 13
3 4 5 14
3 5 15 14
3 5 6 15
3 6 16 15
3 6 7 16
3 7 17 16
3 7 8 17
3 8 18 17
3 8 9 18
3 9 19 18
3 9 0 19
3 0 10 19
3 20 1 0
3 21 10 11
3 20 2 1
3 21 11 12
3 20 3 2
3 21 12 13
3 20 4 3
3 21 13 14
3 20 5 4
3 21 14 15
3 20 6 5
3 21 15 16
3 20 7 6
3 21 16 17
3 20 8 7
3 21 17 18
3 20 9 8
3 21 18 19
3 20 0 9
3 21 19 10
3 22 24 23
3 22 25 24
3 22 26 25
3 22 27 26
3 22 28 27
3 22 29 28
3 22 30 29
3 22 31 30
3 22 32 31
3 22 23 32
3 23 24 33
3 24 34 33
3 24 25 34
3 25 35 34
3 25 26 35
3 26 36 35
3 26 27 36
3 27 37 36
3 27 28 37
3 28 38 37
3 28 29 38
3 29 39 38
3 29 30 39
3 30 40 39
3 30 31 40
3 31 41 40
3 31 32 41
3 32 42 41
3 32 23 42
3 23 33 42
3 33 34 43
3 34 44 43
3 34 35 44
3 35 45 44
3 35 36 45
3 36 46 45
3 36 37 46
3 37 47 46
3 37 38 47
3 38 48 47
3 38 39 48
3 39 49 48
3 39 40 49
3 40 50 49
3 40 41 50
3 41 51 50
3 41 42 51
3 42 52 51
3 42 33 52
3 33 43 52
3 43 44 53
3 44 54 53
3 44 45 54
3 45 55 54
3 45 46 55
3 46 56 55
3 46 47 56
3 47 57 56
3 47 48 57
3 48 58 57
3 48 49 58
3 49 59 58
3 49 50 59
3 50 60 59
3 50 51 60
3 51 61 60
3 51 52 61
3 52 62 61
3 52 43 62
3 43 53 62
3 53 54 63
3 54 55 63
3 55 56 63
3 56 57 63
3 57 58 63
3 58 59 63
3 59 60 63
3 60 61 63
3 61 62 63
3 62 53 63
3 72 73 80
3 73 81 80
3 73 74 81
3 74 82 81
3 74 75 82
3 75 83 82
3 75 76 83
3 76 84 83
3 76 77 84
3 77 85 84
3 77 78 85
3 78 86 85
3 78 79 86
3 79 87 86
3 79 72 87
3 72 80 87
3 68 73 72
3 88 80 81
3 68 74 73
3 88 81 82
3 68 75 74
3 88 82 83
3 68 76 75
3 88 83 84
3 68 77 76
3 88 84 85
3 68 78 77
3 88 85 86
3 68 79 78
3 88 86 87
3 68 72 79
3 88 87 80
3 97 98 105
3 98 106 105
3 98 99 106
3 99 107 106
3 99 100 107
3 100 108 107
3 100 101 108
3 101 109 108
3 101 102 109
3 102 110 109
3 102 103 110
3 103 111 110
3 103 104 111
3 104 112 111
3 104 97 112
3 97 105 112
3 89 98 97
3 113 105 106
3 89 99 98
3 113 106 107
3 89 100 99
3 113 107 108
3 89 101 100
3 113 108 109
3 89 102 101
3 113 109 110
3 89 103 102
3 113 110 111
3 89 104 103
3 113 111 112
3 89 97 104
3 113 112 105
