ply
format ascii 1.0
element vertex 58
property float x
property float y
property float z
property float nx
property float ny
property float nz
element face 96
property list uchar int vertex_indices
end_header
0.100000 0.000000 0.000000 0.805885 -0.111270 -0.581522
0.070711 0.070711 0.000000 0.648526 0.491167 -0.581522
0.000000 0.100000 0.000000 0.111270 0.805885 -0.581522
-0.070711 0.070711 0.000000 -0.491167 0.648526 -0.581522
-0.100000 0.000000 0.000000 -0.805885 0.111270 -0.581522
-0.070711 -0.070711 0.000000 -0.648526 -0.491167 -0.581522
-0.000000 -0.100000 0.000000 -0.111270 -0.805885 -0.581522
0.070711 -0.070711 0.000000 0.491167 -0.648526 -0.581522
0.100000 0.000000 0.800000 0.805885 0.111270 0.581522
0.070711 0.070711 0.800000 0.491167 0.648526 0.581522
0.000000 0.100000 0.800000 -0.111270 0.805885 0.581522
-0.070711 0.070711 0.800000 -0.648526 0.491167 0.581522
-0.100000 0.000000 0.800000 -0.805885 -0.111270 0.581522
-0.070711 -0.070711 0.800000 -0.491167 -0.648526 0.581522
-0.000000 -0.100000 0.800000 0.111270 -0.805885 0.581522
0.070711 -0.070711 0.800000 0.648526 -0.491167 0.581522
0.000000 0.000000 0.000000 0.000000 0.000000 -1.000000
0.000000 0.000000 0.800000 0.000000 0.000000 1.000000
0.000000 0.000000 1.400000 -0.000000 0.000000 1.000000
0.700000 0.000000 0.700000 0.903758 -0.000000 -0.428043
0.494975 0.494975 0.700000 0.639054 0.639054 -0.428043
0.000000 0.700000 0.700000 0.000000 0.903758 -0.428043
-0.494975 0.494975 0.700000 -0.639054 0.639054 -0.428043
-0.700000 0.000000 0.700000 -0.903758 0.000000 -0.428043
-0.494975 -0.494975 0.700000 -0.639054 -0.639054 -0.428043
-0.000000 -0.700000 0.700000 -0.000000 -0.903758 -0.428043
0.494975 -0.494975 0.700000 0.639054 -0.639054 -0.428043
0.000000 0.000000 0.700000 0.000000 0.000000 -1.000000
0.000000 0.000000 1.900000 -0.000000 0.000000 1.000000
0.550000 0.000000 1.200000 0.875553 -0.000000 -0.483122
0.388909 0.388909 1.200000 0.619109 0.619109 -0.483122
0.000000 0.550000 1.200000 -0.000000 0.875553 -0.483122
-0.388909 0.388909 1.200000 -0.619109 0.619109 -0.483122
-0.550000 0.000000 1.200000 -0.875553 0.000000 -0.483122
-0.388909 -0.388909 1.200000 -0.619109 -0.619109 -0.483122
-0.000000 -0.550000 1.200000 -0.000000 -0.875553 -0.483122
0.388909 -0.388909 1.200000 0.619109 -0.619109 -0.483122
0.000000 0.000000 1.200000 0.000000 0.000000 -1.000000
0.000000 0.000000 2.400000 -0.000000 -0.000000 1.000000
0.400000 0.000000 1.700000 0.837470 -0.000000 -0.546484
0.282843 0.282843 1.700000 0.592180 0.592180 -0.546484
0.000000 0.400000 1.700000 0.000000 0.837470 -0.546484
-0.282843 0.282843 1.700000 -0.592180 0.592180 -0.546484
-0.400000 0.000000 1.700000 -0.837470 0.000000 -0.546484
-0.282843 -0.282843 1.700000 -0.592180 -0.592180 -0.546484
-0.000000 -0.400000 1.700000 -0.000000 -0.837470 -0.546484
0.282843 -0.282843 1.700000 0.592180 -0.592180 -0.546484
0.000000 0.000000 1.700000 0.000000 0.000000 -1.000000
0.000000 0.000000 2.700000 -0.000000 -0.000000 1.000000
0.250000 0.000000 2.100000 0.802630 -0.000000 -0.596478
0.176777 0.176777 2.100000 0.567545 0.567545 -0.596478
0.000000 0.250000 2.100000 0.000000 0.802630 -0.596478
-0.176777 0.176777 2.100000 -0.567545 0.567545 -0.596478
-0.250000 0.000000 2.100000 -0.802630 0.000000 -0.596478
-0.176777 -0.176777 2.100000 -0.567545 -0.567545 -0.596478
-0.000000 -0.250000 2.100000 -0.000000 -0.802630 -0.596478
0.176777 -0.176777 2.100000 0.567545 -0.567545 -0.596478
0.000000 0.000000 2.100000 0.000000 0.000000 -1.000000
3 0 1 8
3 1 9 8
3 1 2 9
3 2 10 9
3 2 3 10
3 3 11 10
3 3 4 11
3 4 12 11
3 4 5 12
3 5 13 12
3 5 6 13
3 6 14 13
3 6 7 14
3 7 15 14
3 7 0 15
3 0 8 15
3 16 1 0
3 17 8 9
3 16 2 1
3 17 9 10
3 16 3 2
3 17 10 11
3 16 4 3
3 17 11 12
3 16 5 4
3 17 12 13
3 16 6 5
3 17 13 14
3 16 7 6
3 17 14 15
3 16 0 7
3 17 15 8
3 18 19 20
3 27 20 19
3 18 20 21
3 27 21 20
3 18 21 22
3 27 22 21
3 18 22 23
3 27 23 22
3 18 23 24
3 27 24 23
3 18 24 25
3 27 25 24
3 18 25 26
3 27 26 25
3 18 26 19
3 27 19 26
3 28 29 30
3 37 30 29
3 28 30 31
3 37 31 30
3 28 31 32
3 37 32 31
3 28 32 33
3 37 33 32
3 28 33 34
3 37 34 33
3 28 34 35
3 37 35 34
3 28 35 36
3 37 36 35
3 28 36 29
3 37 29 36
3 38 39 40
3 47 40 39
3 38 40 41
3 47 41 40
3 38 41 42
3 47 42 41
3 38 42 43
3 47 43 42
3 38 43 44
3 47 44 43
3 38 44 45
3 47 45 44
3 38 45 46
3 47 46 45
3 38 46 39
3 47 39 46
3 48 49 50
3 57 50 49
3 48 50 51
3 57 51 50
3 48 51 52
3 57 52 51
3 48 52 53
3 57 53 52
3 48 53 54
3 57 54 53
3 48 54 55
3 57 55 54
3 48 55 56
3 57 56 55
3 48 56 49
3 57 49 56
