ply
format ascii 1.0
element vertex 48
property float x
property float y
property float z
property float nx
property float ny
property float nz
element face 58
property list uchar int vertex_indices
end_header
0.030000 0.000000 0.000000 0.981981 -0.188982 0.000000
0.015000 0.025981 0.000000 0.654654 0.755929 0.000000
-0.015000 0.025981 0.000000 -0.327327 0.944911 0.000000
-0.030000 0.000000 0.000000 -0.981981 0.188982 0.000000
-0.015000 -0.025981 0.000000 -0.654654 -0.755929 0.000000
0.015000 -0.025981 0.000000 0.327327 -0.944911 0.000000
0.030000 0.000000 1.000000 0.981981 0.188982 0.000000
0.015000 0.025981 1.000000 0.327327 0.944911 0.000000
-0.015000 0.025981 1.000000 -0.654654 0.755929 0.000000
-0.030000 0.000000 1.000000 -0.981981 -0.188982 0.000000
-0.015000 -0.025981 1.000000 -0.327327 -0.944911 0.000000
0.015000 -0.025981 1.000000 0.654654 -0.755929 0.000000
0.000000 0.000000 1.000000 0.000000 -0.000000 -1.000000
0.150000 0.060000 1.020000 0.132164 0.000000 -0.991228
0.375000 0.000000 1.050000 0.132164 0.000000 -0.991228
0.150000 -0.060000 1.020000 0.132164 0.000000 -0.991228
-0.010711 0.161199 1.020000 0.040841 0.125695 -0.991228
0.115881 0.356646 1.050000 0.040841 0.125695 -0.991228
0.103416 0.124117 1.020000 0.040841 0.125695 -0.991228
-0.156620 0.039627 1.020000 -0.106923 0.077684 -0.991228
-0.303381 0.220419 1.050000 -0.106923 0.077684 -0.991228
-0.086085 0.136709 1.020000 -0.106923 0.077684 -0.991228
-0.086085 -0.136709 1.020000 -0.106923 -0.077684 -0.991228
-0.303381 -0.220419 1.050000 -0.106923 -0.077684 -0.991228
-0.156620 -0.039627 1.020000 -0.106923 -0.077684 -0.991228
0.103416 -0.124117 1.020000 0.040841 -0.125695 -0.991228
0.115881 -0.356646 1.050000 0.040841 -0.125695 -0.991228
-0.010711 -0.161199 1.020000 0.040841 -0.125695 -0.991228
0.000000 0.000000 1.080000 0.000000 -0.000000 -1.000000
0.042426 0.000000 1.065355 -0.701199 0.106363 -0.704988
0.021213 0.036742 1.065355 -0.442712 -0.554075 -0.704988
-0.021213 0.036742 1.065355 0.258487 -0.660437 -0.704988
-0.042426 0.000000 1.065355 0.701199 -0.106363 -0.704988
-0.021213 -0.036742 1.065355 0.442712 0.554075 -0.704988
0.021213 -0.036742 1.065355 -0.258487 0.660437 -0.704988
0.060000 0.000000 1.030000 -1.000000 0.000000 -0.000000
0.030000 0.051962 1.030000 -0.500000 -0.866025 -0.000000
-0.030000 0.051962 1.030000 0.500000 -0.866025 -0.000000
-0.060000 0.000000 1.030000 1.000000 -0.000000 -0.000000
-0.030000 -0.051962 1.030000 0.500000 0.866025 -0.000000
0.030000 -0.051962 1.030000 -0.500000 0.866025 -0.000000
0.042426 0.000000 0.994645 -0.701199 -0.106363 0.704988
0.021213 0.036742 0.994645 -0.258487 -0.660437 0.704988
-0.021213 0.036742 0.994645 0.442712 -0.554075 0.704988
-0.042426 0.000000 0.994645 0.701199 0.106363 0.704988
-0.021213 -0.036742 0.994645 0.258487 0.660437 0.704988
0.021213 -0.036742 0.994645 -0.442712 0.554075 0.704988
0.000000 0.000000 0.980000 -0.000000 -0.000000 1.000000
3 0 1 6
3 1 7 6
3 1 2 7
3 2 8 7
3 2 3 8
3 3 9 8
3 3 4 9
3 4 10 9
3 4 5 10
3 5 11 10
3 5 0 11
3 0 6 11
3 12 13 14
3 12 14 15
3 12 16 17
3 12 17 18
3 12 19 20
3 12 20 21
3 12 22 23
3 12 23 24
3 12 25 26
3 12 26 27
3 28 30 29
3 28 31 30
3 28 32 31
3 28 33 32
3 28 34 33
3 28 29 34
3 29 30 35
3 30 36 35
3 30 31 36
3 31 37 36
3 31 32 37
3 32 38 37
3 32 33 38
3 33 39 38
3 33 34 39
3 34 40 39
3 34 29 40
3 29 35 40
3 35 36 41
3 36 42 41
3 36 37 42
3 37 43 42
3 37 38 43
3 38 44 43
3 38 39 44
3 39 45 44
3 39 40 45
3 40 46 45
3 40 35 46
3 35 41 46
3 41 42 47
3 42 43 47
3 43 44 47
3 44 45 47
3 45 46 47
3 46 41 47
