ply
format ascii 1.0
element vertex 135
property float x
property float y
property float z
property float nx
property float ny
property float nz
element face 250
property list uchar int vertex_indices
end_header
0.100000 0.000000 0.000000 0.815655 -0.088341 -0.571754
0.080902 0.058779 0.000000 0.711804 0.407961 -0.571754
0.030902 0.095106 0.000000 0.336068 0.748435 -0.571754
-0.030902 0.095106 0.000000 -0.168034 0.803033 -0.571754
-0.080902 0.058779 0.000000 -0.607954 0.550899 -0.571754
-0.100000 0.000000 0.000000 -0.815655 0.088341 -0.571754
-0.080902 -0.058779 0.000000 -0.711804 -0.407961 -0.571754
-0.030902 -0.095106 0.000000 -0.336068 -0.748435 -0.571754
0.030902 -0.095106 0.000000 0.168034 -0.803033 -0.571754
0.080902 -0.058779 0.000000 0.607954 -0.550899 -0.571754
0.100000 0.000000 0.600000 0.815655 0.088341 0.571754
0.080902 0.058779 0.600000 0.607954 0.550899 0.571754
0.030902 0.095106 0.600000 0.168034 0.803033 0.571754
-0.030902 0.095106 0.600000 -0.336068 0.748435 0.571754
-0.080902 0.058779 0.600000 -0.711804 0.407961 0.571754
-0.100000 0.000000 0.600000 -0.815655 -0.088341 0.571754
-0.080902 -0.058779 0.600000 -0.607954 -0.550899 0.571754
-0.030902 -0.095106 0.600000 -0.168034 -0.803033 0.571754
0.030902 -0.095106 0.600000 0.336068 -0.748435 0.571754
0.080902 -0.058779 0.600000 0.711804 -0.407961 0.571754
0.000000 0.000000 0.000000 0.000000 0.000000 -1.000000
0.000000 0.000000 0.600000 0.000000 0.000000 1.000000
0.400000 0.000000 0.600000 0.992344 -0.075499 0.097737
0.360388 0.173553 0.600000 0.926829 0.362540 0.097737
0.249396 0.312733 0.600000 0.677744 0.728773 0.097737
0.089008 0.389971 0.600000 0.294423 0.950664 0.097737
-0.089008 0.389971 0.600000 -0.147212 0.984264 0.097737
-0.249396 0.312733 0.600000 -0.559689 0.822919 0.097737
-0.360388 0.173553 0.600000 -0.861314 0.498584 0.097737
-0.400000 0.000000 0.600000 -0.992344 0.075499 0.097737
-0.360388 -0.173553 0.600000 -0.926829 -0.362540 0.097737
-0.249396 -0.312733 0.600000 -0.677744 -0.728773 0.097737
-0.089008 -0.389971 0.600000 -0.294423 -0.950664 0.097737
0.089008 -0.389971 0.600000 0.147212 -0.984264 0.097737
0.249396 -0.312733 0.600000 0.559689 -0.822919 0.097737
0.360388 -0.173553 0.600000 0.861314 -0.498584 0.097737
0.392314 0.000000 0.678036 0.980767 0.001393 0.195180
0.353463 0.170219 0.678036 0.883036 0.426793 0.195180
0.244604 0.306724 0.678036 0.610409 0.767663 0.195180
0.087298 0.382478 0.678036 0.216883 0.956487 0.195180
-0.087298 0.382478 0.678036 -0.219599 0.955867 0.195180
-0.244604 0.306724 0.678036 -0.612587 0.765926 0.195180
-0.353463 0.170219 0.678036 -0.884244 0.424284 0.195180
-0.392314 0.000000 0.678036 -0.980767 -0.001393 0.195180
-0.353463 -0.170219 0.678036 -0.883036 -0.426793 0.195180
-0.244604 -0.306724 0.678036 -0.610409 -0.767663 0.195180
-0.087298 -0.382478 0.678036 -0.216883 -0.956487 0.195180
0.087298 -0.382478 0.678036 0.219599 -0.955867 0.195180
0.244604 -0.306724 0.678036 0.612587 -0.765926 0.195180
0.353463 -0.170219 0.678036 0.884244 -0.424284 0.195180
0.369552 0.000000 0.753073 0.923811 0.002747 0.382839
0.332955 0.160343 0.753073 0.831133 0.403301 0.382839
0.230412 0.288927 0.753073 0.573839 0.723977 0.382839
0.082233 0.360286 0.753073 0.202890 0.901260 0.382839
-0.082233 0.360286 0.753073 -0.208245 0.900038 0.382839
-0.230412 0.288927 0.753073 -0.578134 0.720552 0.382839
-0.332955 0.160343 0.753073 -0.833517 0.398352 0.382839
-0.369552 0.000000 0.753073 -0.923811 -0.002747 0.382839
-0.332955 -0.160343 0.753073 -0.831133 -0.403301 0.382839
-0.230412 -0.288927 0.753073 -0.573839 -0.723977 0.382839
-0.082233 -0.360286 0.753073 -0.202890 -0.901260 0.382839
0.082233 -0.360286 0.753073 0.208245 -0.900038 0.382839
0.230412 -0.288927 0.753073 0.578134 -0.720552 0.382839
0.332955 -0.160343 0.753073 0.833517 -0.398352 0.382839
0.332588 0.000000 0.822228 0.831339 0.004020 0.555751
0.299651 0.144304 0.822228 0.747266 0.364326 0.555751
0.207365 0.260028 0.822228 0.515189 0.652473 0.555751
0.074008 0.324249 0.822228 0.181071 0.811390 0.555751
-0.074008 0.324249 0.822228 -0.188909 0.809601 0.555751
-0.207365 0.260028 0.822228 -0.521474 0.647461 0.555751
-0.299651 0.144304 0.822228 -0.750755 0.357083 0.555751
-0.332588 0.000000 0.822228 -0.831339 -0.004020 0.555751
-0.299651 -0.144304 0.822228 -0.747266 -0.364326 0.555751
-0.207365 -0.260028 0.822228 -0.515189 -0.652473 0.555751
-0.074008 -0.324249 0.822228 -0.181071 -0.811390 0.555751
0.074008 -0.324249 0.822228 0.188909 -0.809601 0.555751
0.207365 -0.260028 0.822228 0.521474 -0.647461 0.555751
0.299651 -0.144304 0.822228 0.750755 -0.357083 0.555751
0.282843 0.000000 0.882843 0.706925 0.005165 0.707270
0.254832 0.122721 0.882843 0.634676 0.311377 0.707270
0.176350 0.221135 0.882843 0.436722 0.555917 0.707270
0.062938 0.275751 0.882843 0.152270 0.690350 0.707270
-0.062938 0.275751 0.882843 -0.162341 0.688051 0.707270
-0.176350 0.221135 0.882843 -0.444799 0.549476 0.707270
-0.254832 0.122721 0.882843 -0.639158 0.302069 0.707270
-0.282843 0.000000 0.882843 -0.706925 -0.005165 0.707270
-0.254832 -0.122721 0.882843 -0.634676 -0.311377 0.707270
-0.176350 -0.221135 0.882843 -0.436722 -0.555917 0.707270
-0.062938 -0.275751 0.882843 -0.152270 -0.690350 0.707270
0.062938 -0.275751 0.882843 0.162341 -0.688051 0.707270
0.176350 -0.221135 0.882843 0.444799 -0.549476 0.707270
0.254832 -0.122721 0.882843 0.639158 -0.302069 0.707270
0.222228 0.000000 0.932588 0.555371 0.006133 0.831580
0.200221 0.096421 0.932588 0.497711 0.246492 0.831580
0.138557 0.173745 0.932588 0.341473 0.438030 0.831580
0.049450 0.216656 0.932588 0.117603 0.542811 0.831580
-0.049450 0.216656 0.932588 -0.129561 0.540082 0.831580
-0.138557 0.173745 0.932588 -0.351063 0.430383 0.831580
-0.200221 0.096421 0.932588 -0.503033 0.235441 0.831580
-0.222228 0.000000 0.932588 -0.555371 -0.006133 0.831580
-0.200221 -0.096421 0.932588 -0.497711 -0.246492 0.831580
-0.138557 -0.173745 0.932588 -0.341473 -0.438030 0.831580
-0.049450 -0.216656 0.932588 -0.117603 -0.542811 0.831580
0.049450 -0.216656 0.932588 0.129561 -0.540082 0.831580
0.138557 -0.173745 0.932588 0.351063 -0.430383 0.831580
0.200221 -0.096421 0.932588 0.503033 -0.235441 0.831580
0.153073 0.000000 0.969552 0.382512 0.006871 0.923925
0.137914 0.066416 0.969552 0.341650 0.172156 0.923925
0.095440 0.119678 0.969552 0.233121 0.303344 0.923925
0.034062 0.149236 0.969552 0.078418 0.374451 0.923925
-0.034062 0.149236 0.969552 -0.091816 0.371393 0.923925
-0.095440 0.119678 0.969552 -0.243864 0.294776 0.923925
-0.137914 0.066416 0.969552 -0.347613 0.159775 0.923925
-0.153073 0.000000 0.969552 -0.382512 -0.006871 0.923925
-0.137914 -0.066416 0.969552 -0.341650 -0.172156 0.923925
-0.095440 -0.119678 0.969552 -0.233121 -0.303344 0.923925
-0.034062 -0.149236 0.969552 -0.078418 -0.374451 0.923925
0.034062 -0.149236 0.969552 0.091816 -0.371393 0.923925
0.095440 -0.119678 0.969552 0.243864 -0.294776 0.923925
0.137914 -0.066416 0.969552 0.347613 -0.159775 0.923925
0.078036 0.000000 0.992314 0.214260 0.013301 0.976686
0.070308 0.033859 0.992314 0.187270 0.104948 0.976686
0.048655 0.061011 0.992314 0.123190 0.175808 0.976686
0.017365 0.076080 0.992314 0.034710 0.211848 0.976686
-0.017365 0.076080 0.992314 -0.060645 0.205928 0.976686
-0.048655 0.061011 0.992314 -0.143988 0.159222 0.976686
-0.070308 0.033859 0.992314 -0.198813 0.080980 0.976686
-0.078036 0.000000 0.992314 -0.214260 -0.013301 0.976686
-0.070308 -0.033859 0.992314 -0.187270 -0.104948 0.976686
-0.048655 -0.061011 0.992314 -0.123190 -0.175808 0.976686
-0.017365 -0.076080 0.992314 -0.034710 -0.211848 0.976686
0.017365 -0.076080 0.992314 0.060645 -0.205928 0.976686
0.048655 -0.061011 0.992314 0.143988 -0.159222 0.976686
0.070308 -0.033859 0.992314 0.198813 -0.080980 0.976686
0.000000 0.000000 1.000000 0.000000 0.000000 1.000000
3 0 1 10
3 1 11 10
3 1 2 11
3 2 12 11
3 2 3 12
3 3 13 12
3 3 4 13
3 4 14 13
3 4 5 14
3 5 15 14
3 5 6 15
3 6 16 15
3 6 7 16
3 7 17 16
3 7 8 17
3 8 18 17
3 8 9 18
3 9 19 18
3 9 0 19
3 0 10 19
3 20 1 0
3 21 10 11
3 20 2 1
3 21 11 12
3 20 3 2
3 21 12 13
3 20 4 3
3 21 13 14
3 20 5 4
3 21 14 15
3 20 6 5
3 21 15 16
3 20 7 6
3 21 16 17
3 20 8 7
3 21 17 18
3 20 9 8
3 21 18 19
3 20 0 9
3 21 19 10
3 22 23 36
3 23 37 36
3 23 24 37
3 24 38 37
3 24 25 38
3 25 39 38
3 25 26 39
3 26 40 39
3 26 27 40
3 27 41 40
3 27 28 41
3 28 42 41
3 28 29 42
3 29 43 42
3 29 30 43
3 30 44 43
3 30 31 44
3 31 45 44
3 31 32 45
3 32 46 45
3 32 33 46
3 33 47 46
3 33 34 47
3 34 48 47
3 34 35 48
3 35 49 48
3 35 22 49
3 22 36 49
3 36 37 50
3 37 51 50
3 37 38 51
3 38 52 51
3 38 39 52
3 39 53 52
3 39 40 53
3 40 54 53
3 40 41 54
3 41 55 54
3 41 42 55
3 42 56 55
3 42 43 56
3 43 57 56
3 43 44 57
3 44 58 57
3 44 45 58
3 45 59 58
3 45 46 59
3 46 60 59
3 46 47 60
3 47 61 60
3 47 48 61
3 48 62 61
3 48 49 62
3 49 63 62
3 49 36 63
3 36 50 63
3 50 51 64
3 51 65 64
3 51 52 65
3 52 66 65
3 52 53 66
3 53 67 66
3 53 54 67
3 54 68 67
3 54 55 68
3 55 69 68
3 55 56 69
3 56 70 69
3 56 57 70
3 57 71 70
3 57 58 71
3 58 72 71
3 58 59 72
3 59 73 72
3 59 60 73
3 60 74 73
3 60 61 74
3 61 75 74
3 61 62 75
3 62 76 75
3 62 63 76
3 63 77 76
3 63 50 77
3 50 64 77
3 64 65 78
3 65 79 78
3 65 66 79
3 66 80 79
3 66 67 80
3 67 81 80
3 67 68 81
3 68 82 81
3 68 69 82
3 69 83 82
3 69 70 83
3 70 84 83
3 70 71 84
3 71 85 84
3 71 72 85
3 72 86 85
3 72 73 86
3 73 87 86
3 73 74 87
3 74 88 87
3 74 75 88
3 75 89 88
3 75 76 89
3 76 90 89
3 76 77 90
3 77 91 90
3 77 64 91
3 64 78 91
3 78 79 92
3 79 93 92
3 79 80 93
3 80 94 93
3 80 81 94
3 81 95 94
3 81 82 95
3 82 96 95
3 82 83 96
3 83 97 96
3 83 84 97
3 84 98 97
3 84 85 98
3 85 99 98
3 85 86 99
3 86 100 99
3 86 87 100
3 87 101 100
3 87 88 101
3 88 102 101
3 88 89 102
3 89 103 102
3 89 90 103
3 90 104 103
3 90 91 104
3 91 105 104
3 91 78 105
3 78 92 105
3 92 93 106
3 93 107 106
3 93 94 107
3 94 108 107
3 94 95 108
3 95 109 108
3 95 96 109
3 96 110 109
3 96 97 110
3 97 111 110
3 97 98 111
3 98 112 111
3 98 99 112
3 99 113 112
3 99 100 113
3 100 114 113
3 100 101 114
3 101 115 114
3 101 102 115
3 102 116 115
3 102 103 116
3 103 117 116
3 103 104 117
3 104 118 117
3 104 105 118
3 105 119 118
3 105 92 119
3 92 106 119
3 106 107 120
3 107 121 120
3 107 108 121
3 108 122 121
3 108 109 122
3 109 123 122
3 109 110 123
3 110 124 123
3 110 111 124
3 111 125 124
3 111 112 125
3 112 126 125
3 112 113 126
3 113 127 126
3 113 114 127
3 114 128 127
3 114 115 128
3 115 129 128
3 115 116 129
3 116 130 129
3 116 117 130
3 117 131 130
3 117 118 131
3 118 132 131
3 118 119 132
3 119 133 132
3 119 106 133
3 106 120 133
3 120 121 134
3 121 122 134
3 122 123 134
3 123 124 134
3 124 125 134
3 125 126 134
3 126 127 134
3 127 128 134
3 128 129 134
3 129 130 134
3 130 131 134
3 131 132 134
3 132 133 134
3 133 120 134
