ply
format ascii 1.0
element vertex 54
property float x
property float y
property float z
property float nx
property float ny
property float nz
element face 92
property list uchar int vertex_indices
end_header
0.120000 0.000000 0.000000 0.805885 -0.111270 -0.581522
0.084853 0.084853 0.000000 0.648526 0.491167 -0.581522
0.000000 0.120000 0.000000 0.111270 0.805885 -0.581522
-0.084853 0.084853 0.000000 -0.491167 0.648526 -0.581522
-0.120000 0.000000 0.000000 -0.805885 0.111270 -0.581522
-0.084853 -0.084853 0.000000 -0.648526 -0.491167 -0.581522
-0.000000 -0.120000 0.000000 -0.111270 -0.805885 -0.581522
0.084853 -0.084853 0.000000 0.491167 -0.648526 -0.581522
0.120000 0.000000 1.000000 0.805885 0.111270 0.581522
0.084853 0.084853 1.000000 0.491167 0.648526 0.581522
0.000000 0.120000 1.000000 -0.111270 0.805885 0.581522
-0.084853 0.084853 1.000000 -0.648526 0.491167 0.581522
-0.120000 0.000000 1.000000 -0.805885 -0.111270 0.581522
-0.084853 -0.084853 1.000000 -0.491167 -0.648526 0.581522
-0.000000 -0.120000 1.000000 0.111270 -0.805885 0.581522
0.084853 -0.084853 1.000000 0.648526 -0.491167 0.581522
0.000000 0.000000 0.000000 0.000000 0.000000 -1.000000
0.000000 0.000000 1.000000 0.000000 0.000000 1.000000
0.000000 0.000000 1.900000 -0.000000 -0.000000 1.000000
0.800000 0.000000 0.900000 0.886780 -0.000000 -0.462191
0.647214 0.470228 0.900000 0.717420 0.521236 -0.462191
0.247214 0.760845 0.900000 0.274030 0.843378 -0.462191
-0.247214 0.760845 0.900000 -0.274030 0.843378 -0.462191
-0.647214 0.470228 0.900000 -0.717420 0.521236 -0.462191
-0.800000 0.000000 0.900000 -0.886780 0.000000 -0.462191
-0.647214 -0.470228 0.900000 -0.717420 -0.521236 -0.462191
-0.247214 -0.760845 0.900000 -0.274030 -0.843378 -0.462191
0.247214 -0.760845 0.900000 0.274030 -0.843378 -0.462191
0.647214 -0.470228 0.900000 0.717420 -0.521236 -0.462191
0.000000 0.000000 0.900000 0.000000 0.000000 -1.000000
0.000000 0.000000 2.400000 -0.000000 0.000000 1.000000
0.600000 0.000000 1.500000 0.865658 0.000000 -0.500636
0.485410 0.352671 1.500000 0.700332 0.508821 -0.500636
0.185410 0.570634 1.500000 0.267503 0.823290 -0.500636
-0.185410 0.570634 1.500000 -0.267503 0.823290 -0.500636
-0.485410 0.352671 1.500000 -0.700332 0.508821 -0.500636
-0.600000 0.000000 1.500000 -0.865658 0.000000 -0.500636
-0.485410 -0.352671 1.500000 -0.700332 -0.508821 -0.500636
-0.185410 -0.570634 1.500000 -0.267503 -0.823290 -0.500636
0.185410 -0.570634 1.500000 0.267503 -0.823290 -0.500636
0.485410 -0.352671 1.500000 0.700332 -0.508821 -0.500636
0.000000 0.000000 1.500000 0.000000 0.000000 -1.000000
0.000000 0.000000 2.800000 -0.000000 -0.000000 1.000000
0.400000 0.000000 2.000000 0.832963 -0.000000 -0.553329
0.323607 0.235114 2.000000 0.673881 0.489603 -0.553329
0.123607 0.380423 2.000000 0.257400 0.792195 -0.553329
-0.123607 0.380423 2.000000 -0.257400 0.792195 -0.553329
-0.323607 0.235114 2.000000 -0.673881 0.489603 -0.553329
-0.400000 0.000000 2.000000 -0.832963 0.000000 -0.553329
-0.323607 -0.235114 2.000000 -0.673881 -0.489603 -0.553329
-0.123607 -0.380423 2.000000 -0.257400 -0.792195 -0.553329
0.123607 -0.380423 2.000000 0.257400 -0.792195 -0.553329
0.323607 -0.235114 2.000000 0.673881 -0.489603 -0.553329
0.000000 0.000000 2.000000 0.000000 0.000000 -1.000000
3 0 1 8
3 1 9 8
3 1 2 9
3 2 10 9
3 2 3 10
3 3 11 10
3 3 4 11
3 4 12 11
3 4 5 12
3 5 13 12
3 5 6 13
3 6 14 13
3 6 7 14
3 7 15 14
3 7 0 15
3 0 8 15
3 16 1 0
3 17 8 9
3 16 2 1
3 17 9 10
3 16 3 2
3 17 10 11
3 16 4 3
3 17 11 12
3 16 5 4
3 17 12 13
3 16 6 5
3 17 13 14
3 16 7 6
3 17 14 15
3 16 0 7
3 17 15 8
3 18 19 20
3 29 20 19
3 18 20 21
3 29 21 20
3 18 21 22
3 29 22 21
3 18 22 23
3 29 23 22
3 18 23 24
3 29 24 23
3 18 24 25
3 29 25 24
3 18 25 26
3 29 26 25
3 18 26 27
3 29 27 26
3 18 27 28
3 29 28 27
3 18 28 19
3 29 19 28
3 30 31 32
3 41 32 31
3 30 32 33
3 41 33 32
3 30 33 34
3 41 34 33
3 30 34 35
3 41 35 34
3 30 35 36
3 41 36 35
3 30 36 37
3 41 37 36
3 30 37 38
3 41 38 37
3 30 38 39
3 41 39 38
3 30 39 40
3 41 40 39
3 30 40 31
3 41 31 40
3 42 43 44
3 53 44 43
3 42 44 45
3 53 45 44
3 42 45 46
3 53 46 45
3 42 46 47
3 53 47 46
3 42 47 48
3 53 48 47
3 42 48 49
3 53 49 48
3 42 49 50
3 53 50 49
3 42 50 51
3 53 51 50
3 42 51 52
3 53 52 51
3 42 52 43
3 53 43 52
